<svg width="40" height="40" viewBox="0 0 40 40" fill="none" xmlns="http://www.w3.org/2000/svg">
<path d="M1.07822 6.9755V36.3902C1.07822 37.767 2.273 38.8799 3.73668 38.8799H27.2819C28.755 38.8799 29.9451 37.767 29.9451 36.3902V6.9755C29.9451 5.60055 28.755 4.48048 27.2819 4.48048H3.73668C2.273 4.48048 1.07822 5.60055 1.07822 6.9755Z" fill="#7DDCE2"/>
<path d="M10.1916 4.63587V8.84766H20.5215V4.63587H10.1916Z" fill="#E5E5E5"/>
<path d="M4.08622 10.0405V33.323C4.08622 34.4055 5.03727 35.2861 6.19478 35.2861H24.8217C25.9861 35.2861 26.9302 34.4055 26.9302 33.323V10.0405C26.9302 8.96145 25.9861 8.07715 24.8217 8.07715H6.19478C5.03727 8.07715 4.08622 8.96145 4.08622 10.0405Z" fill="white"/>
<path d="M24.1354 26.9908L18.6112 29.1382L16.8122 27.3416L18.6687 21.3101L33.3702 6.63205L35.9837 8.20001L37.79 9.99848L39.2992 12.5483L24.1354 26.9908Z" fill="white"/>
<path d="M24.5407 26.7002L23.3843 24.2639L21.7512 22.6392L18.7878 21.4235L32.2176 8.02294L32.7945 10.4609L34.8854 13.0126L37.4388 14.0578L24.5407 26.7002Z" fill="#FFDA6A"/>
<path d="M18.4716 3.7085L18.3612 3.32948C17.9388 2.26619 16.7219 1.46357 15.2698 1.50622C14.3842 1.52395 13.6185 1.86393 13.0953 2.36203C12.6993 2.73411 12.4448 3.19292 12.356 3.6891V3.7085H18.4716ZM20.1398 8.22497V5.33506H10.7263V8.22497H20.1398ZM27.6858 11.1185L29.2556 9.58415V7.26303C29.2556 6.20693 28.2643 5.21097 26.8434 5.21097H21.6494V6.68706H24.436C26.1666 6.68706 27.6858 8 27.6858 9.73126V11.1185ZM36.1872 11.659C36.0096 11.659 35.8296 11.5933 35.7 11.4551L34.4927 10.2327C34.3487 10.0978 34.2839 9.92077 34.2887 9.7418C34.2959 9.5681 34.3607 9.39104 34.4951 9.26334L34.5503 9.20656C34.8215 8.93918 35.2583 8.932 35.5272 9.20656L36.7416 10.4311C37.0033 10.7004 37.0009 11.129 36.7272 11.4002L36.6672 11.4462C36.5376 11.5828 36.36 11.6554 36.1872 11.659ZM37.5865 13.321L38.417 12.5023L37.6057 10.4931L35.5488 8.41831L33.427 7.48968L32.6134 8.29061L33.5206 10.4222L35.5848 12.4971L37.5865 13.321ZM8.98379 15.3498C8.47736 15.3498 8.06695 14.9387 8.06695 14.4336C8.06695 13.9269 8.47736 13.5141 8.98379 13.5141H21.7502C22.2543 13.5141 22.6671 13.9269 22.6671 14.4336C22.6671 14.9387 22.2543 15.3498 21.7502 15.3498H8.98379ZM21.107 21.6081L32.0925 10.7943L31.4997 9.3944L19.8205 20.8905L21.107 21.6081ZM23.2792 23.6209L34.0439 13.0268L32.9782 11.953L22.2063 22.5506L23.2792 23.6209ZM24.7961 25.9084L36.4584 14.4372L35.1935 13.9233L24.1648 24.7725L24.7961 25.9084ZM18.7284 28.4279L23.5552 26.6773L22.6791 25.0862L20.603 23.0025L19.0021 22.0988L17.3028 26.9803L18.7284 28.4279ZM16.5275 29.2289L17.2139 28.9771L16.7723 28.5219L16.5275 29.2289ZM24.436 35.1433C25.4585 35.1433 26.1809 34.3975 26.1809 33.6054V26.5728L25.0889 27.6483C25.0073 27.7245 24.9161 27.7794 24.8153 27.8148L24.5896 27.8362L15.5098 31.1372C15.4114 31.1743 15.3058 31.1868 15.2074 31.1796C15.0178 31.1638 14.8474 31.0591 14.737 30.912L14.7058 30.8554H8.98379C8.47736 30.8554 8.06695 30.4462 8.06695 29.9429C8.06695 29.4397 8.47736 29.0269 8.98379 29.0269H14.8018L15.0418 29.0765L16.2107 25.7187H8.98379C8.47736 25.7187 8.06695 25.3095 8.06695 24.8008C8.06695 24.3013 8.47736 23.8885 8.98379 23.8885H16.8467L17.8956 20.8515L17.9388 20.7822L17.9676 20.7468L18.054 20.6193L18.0636 20.6068H8.98379C8.47736 20.6068 8.06695 20.194 8.06695 19.689C8.06695 19.1823 8.47736 18.7694 8.98379 18.7694H19.9165L26.1809 12.607V9.73126C26.1809 8.94613 25.4585 8.1931 24.436 8.1931H21.6494V8.35985C21.6494 9.0985 21.1022 9.73126 20.3725 9.73126H10.4935C9.76145 9.73126 9.21661 9.08964 9.21661 8.35985V8.1931H6.32203C5.29716 8.1931 4.5795 8.94613 4.5795 9.73126V33.6054C4.5795 34.3975 5.29716 35.1433 6.32203 35.1433H24.436ZM26.8434 38.4975C28.2643 38.4975 29.2556 37.4894 29.2556 36.4457V23.5483L27.6858 25.0862V33.6054C27.6858 35.3436 26.1666 36.6513 24.436 36.6513H6.32203C4.58671 36.6513 3.0674 35.3436 3.0674 33.6054V9.73126C3.0674 8 4.58671 6.68706 6.32203 6.68706H9.21661V5.21097H3.91946C2.49376 5.21097 1.49771 6.20693 1.49771 7.26303V36.4457C1.49771 37.4894 2.49376 38.4975 3.91946 38.4975H26.8434ZM3.91946 40C1.84812 40 0 38.4851 0 36.4457V7.26303C0 5.21815 1.84812 3.7085 3.91946 3.7085H10.8415L10.8727 3.41454C11.0287 2.587 11.4512 1.84811 12.0536 1.27047C12.8625 0.504985 13.9881 0.0337122 15.2266 0.00184708C17.5644 -0.0602061 19.6405 1.45111 19.9909 3.55613L20.0101 3.7085H26.8434C28.9195 3.7085 30.7677 5.21815 30.7677 7.26303V8.09224L31.2525 7.61377L32.7862 6.09168C32.983 5.89498 33.2878 5.83653 33.5518 5.95177L36.2808 7.14611C36.36 7.18157 36.4272 7.23092 36.4896 7.28603L38.7506 9.57697C38.8154 9.63542 38.8682 9.71161 38.9042 9.79666L39.9531 12.4173C40.0515 12.676 39.9939 12.9702 39.7922 13.1667L38.417 14.5328L38.3522 14.5755L38.309 14.5879L38.2922 14.6198L38.2561 14.6888L30.7677 22.0616V36.4457C30.7677 38.4851 28.9195 40 26.8434 40H3.91946Z" fill="#333333"/>
</svg>
