<svg xmlns="http://www.w3.org/2000/svg" xmlns:xlink="http://www.w3.org/1999/xlink" width="500" zoomAndPan="magnify" viewBox="0 0 375 374.999991" height="500" preserveAspectRatio="xMidYMid meet" version="1.0"><defs><clipPath id="972c6855de"><path d="M 37.5 86 L 337.445312 86 L 337.445312 306.1875 L 37.5 306.1875 Z M 37.5 86 " clip-rule="nonzero"/></clipPath><clipPath id="3660327ba7"><path d="M 37.5 86 L 337.445312 86 L 337.445312 111 L 37.5 111 Z M 37.5 86 " clip-rule="nonzero"/></clipPath><clipPath id="a5bd3b753c"><path d="M 62 69.1875 L 97 69.1875 L 97 104 L 62 104 Z M 62 69.1875 " clip-rule="nonzero"/></clipPath><clipPath id="269fab1724"><path d="M 119 69.1875 L 154 69.1875 L 154 104 L 119 104 Z M 119 69.1875 " clip-rule="nonzero"/></clipPath><clipPath id="fc6b2159e3"><path d="M 176 69.1875 L 210 69.1875 L 210 104 L 176 104 Z M 176 69.1875 " clip-rule="nonzero"/></clipPath><clipPath id="594d5c3020"><path d="M 232 69.1875 L 267 69.1875 L 267 104 L 232 104 Z M 232 69.1875 " clip-rule="nonzero"/></clipPath><clipPath id="5b5bb6b985"><path d="M 289 69.1875 L 324 69.1875 L 324 104 L 289 104 Z M 289 69.1875 " clip-rule="nonzero"/></clipPath></defs><g clip-path="url(#972c6855de)"><path fill="#edf3f3" d="M 74.347656 93.367188 C 77.40625 93.371094 79.878906 95.859375 79.871094 98.925781 C 79.863281 101.988281 77.378906 104.460938 74.316406 104.457031 C 71.273438 104.445312 68.804688 101.972656 68.800781 98.925781 C 68.792969 95.859375 71.277344 93.367188 74.339844 93.367188 C 74.34375 93.367188 74.34375 93.367188 74.347656 93.367188 Z M 130.902344 93.367188 C 133.964844 93.355469 136.445312 95.832031 136.457031 98.890625 C 136.464844 101.957031 133.988281 104.445312 130.933594 104.457031 C 127.875 104.460938 125.390625 101.988281 125.386719 98.925781 C 125.394531 95.871094 127.851562 93.394531 130.902344 93.367188 Z M 187.488281 93.367188 C 190.546875 93.355469 193.03125 95.832031 193.042969 98.890625 C 193.046875 101.957031 190.574219 104.445312 187.519531 104.457031 C 184.460938 104.460938 181.976562 101.988281 181.964844 98.925781 C 181.964844 95.863281 184.433594 93.378906 187.488281 93.367188 Z M 244.074219 93.367188 C 247.132812 93.371094 249.601562 95.859375 249.597656 98.925781 C 249.585938 101.988281 247.101562 104.460938 244.046875 104.457031 C 240.996094 104.445312 238.53125 101.972656 238.523438 98.925781 C 238.519531 95.859375 240.996094 93.367188 244.0625 93.367188 C 244.066406 93.367188 244.066406 93.367188 244.074219 93.367188 Z M 300.628906 93.367188 C 303.6875 93.355469 306.171875 95.832031 306.175781 98.890625 C 306.1875 101.957031 303.714844 104.445312 300.660156 104.457031 C 297.605469 104.460938 295.113281 101.988281 295.105469 98.925781 C 295.113281 95.871094 297.578125 93.394531 300.628906 93.367188 Z M 322.441406 86.214844 L 52.476562 86.214844 C 44.199219 86.222656 37.496094 92.949219 37.5 101.242188 C 37.5 101.246094 37.5 101.246094 37.5 101.246094 L 37.5 291.160156 C 37.488281 299.453125 44.191406 306.183594 52.472656 306.195312 C 52.476562 306.195312 52.476562 306.195312 52.476562 306.195312 L 322.441406 306.195312 C 330.71875 306.199219 337.4375 299.476562 337.445312 291.183594 C 337.445312 291.179688 337.445312 291.167969 337.445312 291.160156 L 337.445312 101.246094 C 337.449219 92.949219 330.742188 86.21875 322.457031 86.214844 C 322.453125 86.214844 322.445312 86.214844 322.441406 86.214844 " fill-opacity="1" fill-rule="nonzero"/></g><g clip-path="url(#3660327ba7)"><path fill="#058789" d="M 300.628906 104.457031 C 297.566406 104.445312 295.097656 101.957031 295.105469 98.890625 C 295.113281 95.832031 297.597656 93.355469 300.660156 93.367188 C 303.714844 93.371094 306.1875 95.859375 306.175781 98.925781 C 306.183594 101.980469 303.707031 104.457031 300.660156 104.457031 C 300.648438 104.457031 300.636719 104.457031 300.628906 104.457031 Z M 244.074219 104.457031 C 241.019531 104.460938 238.53125 101.988281 238.523438 98.925781 C 238.511719 95.863281 240.988281 93.371094 244.042969 93.367188 C 247.101562 93.355469 249.585938 95.832031 249.597656 98.890625 C 249.597656 98.902344 249.597656 98.914062 249.597656 98.925781 C 249.582031 101.972656 247.117188 104.441406 244.074219 104.457031 Z M 187.488281 104.457031 C 184.425781 104.460938 181.945312 101.988281 181.9375 98.925781 C 181.929688 95.863281 184.402344 93.371094 187.457031 93.367188 C 190.515625 93.355469 193 95.832031 193.011719 98.890625 C 193.011719 98.902344 193.011719 98.914062 193.011719 98.925781 C 193.011719 101.980469 190.539062 104.457031 187.492188 104.457031 C 187.488281 104.457031 187.488281 104.457031 187.488281 104.457031 Z M 130.902344 104.457031 C 127.847656 104.445312 125.375 101.957031 125.378906 98.890625 C 125.390625 95.832031 127.875 93.355469 130.933594 93.367188 C 133.988281 93.371094 136.464844 95.859375 136.453125 98.925781 C 136.457031 101.980469 133.984375 104.457031 130.933594 104.457031 C 130.925781 104.457031 130.914062 104.457031 130.902344 104.457031 Z M 74.347656 104.457031 C 71.292969 104.460938 68.804688 101.988281 68.800781 98.925781 C 68.789062 95.863281 71.261719 93.371094 74.316406 93.367188 C 77.378906 93.355469 79.863281 95.832031 79.871094 98.890625 C 79.871094 98.902344 79.871094 98.914062 79.871094 98.925781 C 79.867188 101.980469 77.398438 104.449219 74.347656 104.457031 Z M 322.441406 86.214844 L 52.476562 86.214844 C 44.199219 86.222656 37.496094 92.949219 37.5 101.242188 C 37.5 101.246094 37.5 101.246094 37.5 101.246094 L 37.5 110.65625 L 337.445312 110.65625 L 337.445312 101.246094 C 337.449219 92.949219 330.742188 86.21875 322.457031 86.214844 C 322.453125 86.214844 322.445312 86.214844 322.441406 86.214844 " fill-opacity="1" fill-rule="nonzero"/></g><path fill="#f77c5b" d="M 70.414062 129.386719 L 86.457031 129.386719 C 90.03125 129.386719 92.925781 132.285156 92.925781 135.863281 L 92.925781 151.933594 C 92.925781 155.507812 90.03125 158.410156 86.457031 158.410156 L 70.414062 158.410156 C 66.839844 158.410156 63.945312 155.507812 63.945312 151.933594 L 63.945312 135.863281 C 63.945312 132.285156 66.839844 129.386719 70.414062 129.386719 " fill-opacity="1" fill-rule="nonzero"/><path fill="#f77c5b" d="M 147.449219 135.863281 L 147.449219 151.902344 C 147.449219 155.488281 144.558594 158.390625 140.980469 158.410156 L 124.9375 158.410156 C 121.363281 158.390625 118.472656 155.488281 118.472656 151.902344 L 118.472656 135.863281 C 118.472656 132.285156 121.367188 129.386719 124.9375 129.386719 L 140.980469 129.386719 C 144.554688 129.386719 147.449219 132.285156 147.449219 135.863281 " fill-opacity="1" fill-rule="nonzero"/><path fill="#f77c5b" d="M 195.511719 129.386719 L 179.464844 129.386719 C 175.890625 129.386719 172.996094 132.285156 172.996094 135.863281 L 172.996094 151.902344 C 172.996094 155.488281 175.886719 158.390625 179.464844 158.410156 L 195.511719 158.410156 C 199.089844 158.390625 201.980469 155.488281 201.972656 151.902344 L 201.972656 135.863281 C 201.972656 132.285156 199.085938 129.386719 195.511719 129.386719 Z M 195.511719 133.972656 C 196.550781 133.972656 197.402344 134.816406 197.402344 135.863281 L 197.402344 151.902344 C 197.394531 152.953125 196.558594 153.808594 195.511719 153.828125 L 179.464844 153.828125 C 178.417969 153.808594 177.582031 152.953125 177.574219 151.902344 L 177.574219 135.863281 C 177.574219 134.816406 178.417969 133.972656 179.464844 133.972656 L 195.511719 133.972656 " fill-opacity="1" fill-rule="nonzero"/><path fill="#f77c5b" d="M 233.988281 129.386719 L 250.035156 129.386719 C 253.609375 129.386719 256.503906 132.285156 256.503906 135.863281 L 256.503906 151.933594 C 256.503906 155.507812 253.609375 158.410156 250.035156 158.410156 L 233.988281 158.410156 C 230.421875 158.410156 227.527344 155.507812 227.527344 151.933594 L 227.527344 135.863281 C 227.527344 132.285156 230.421875 129.386719 233.988281 129.386719 " fill-opacity="1" fill-rule="nonzero"/><path fill="#f77c5b" d="M 311.027344 135.863281 L 311.027344 151.902344 C 311.027344 155.488281 308.136719 158.390625 304.5625 158.410156 L 288.519531 158.410156 C 284.941406 158.390625 282.050781 155.488281 282.050781 151.902344 L 282.050781 135.863281 C 282.050781 132.285156 284.945312 129.386719 288.519531 129.386719 L 304.5625 129.386719 C 308.132812 129.386719 311.027344 132.285156 311.027344 135.863281 " fill-opacity="1" fill-rule="nonzero"/><path fill="#f77c5b" d="M 92.925781 177.109375 L 92.925781 193.148438 C 92.925781 196.730469 90.035156 199.640625 86.457031 199.65625 L 70.414062 199.65625 C 66.835938 199.640625 63.945312 196.730469 63.945312 193.148438 L 63.945312 177.109375 C 63.949219 173.53125 66.839844 170.632812 70.414062 170.632812 L 86.457031 170.632812 C 90.027344 170.632812 92.921875 173.53125 92.925781 177.109375 " fill-opacity="1" fill-rule="nonzero"/><path fill="#f77c5b" d="M 124.9375 170.632812 L 140.980469 170.632812 C 144.554688 170.632812 147.449219 173.53125 147.449219 177.109375 L 147.449219 193.183594 C 147.449219 196.753906 144.554688 199.65625 140.980469 199.65625 L 124.9375 199.65625 C 121.367188 199.65625 118.472656 196.753906 118.472656 193.183594 L 118.472656 177.109375 C 118.472656 173.53125 121.367188 170.632812 124.9375 170.632812 " fill-opacity="1" fill-rule="nonzero"/><path fill="#f77c5b" d="M 179.464844 170.632812 L 195.511719 170.632812 C 199.085938 170.632812 201.972656 173.53125 201.972656 177.109375 L 201.972656 193.183594 C 201.972656 196.753906 199.085938 199.65625 195.511719 199.65625 L 179.464844 199.65625 C 175.890625 199.65625 172.996094 196.753906 172.996094 193.183594 L 172.996094 177.109375 C 172.996094 173.53125 175.890625 170.632812 179.464844 170.632812 " fill-opacity="1" fill-rule="nonzero"/><path fill="#f77c5b" d="M 250.035156 170.632812 L 233.988281 170.632812 C 230.421875 170.632812 227.527344 173.53125 227.527344 177.109375 L 227.527344 193.148438 C 227.519531 196.730469 230.417969 199.640625 233.988281 199.65625 L 250.035156 199.65625 C 253.613281 199.640625 256.503906 196.730469 256.503906 193.148438 L 256.503906 177.109375 C 256.496094 173.53125 253.609375 170.632812 250.035156 170.632812 Z M 250.035156 175.21875 C 251.082031 175.21875 251.925781 176.0625 251.925781 177.109375 L 251.925781 193.148438 C 251.921875 194.199219 251.082031 195.054688 250.035156 195.074219 L 233.988281 195.074219 C 232.941406 195.054688 232.105469 194.199219 232.097656 193.148438 L 232.097656 177.109375 C 232.097656 176.0625 232.949219 175.21875 233.988281 175.21875 L 250.035156 175.21875 " fill-opacity="1" fill-rule="nonzero"/><path fill="#f77c5b" d="M 311.027344 177.109375 L 311.027344 193.148438 C 311.027344 196.730469 308.136719 199.640625 304.5625 199.65625 L 288.519531 199.65625 C 284.941406 199.640625 282.050781 196.730469 282.050781 193.148438 L 282.050781 177.109375 C 282.050781 173.53125 284.945312 170.632812 288.519531 170.632812 L 304.5625 170.632812 C 308.132812 170.632812 311.027344 173.53125 311.027344 177.109375 " fill-opacity="1" fill-rule="nonzero"/><path fill="#f77c5b" d="M 256.492188 218.367188 L 256.492188 234.390625 C 256.496094 237.980469 253.601562 240.902344 250.019531 240.917969 L 233.980469 240.917969 C 230.410156 240.886719 227.535156 237.96875 227.542969 234.390625 L 227.542969 218.367188 C 227.527344 214.804688 230.390625 211.902344 233.953125 211.878906 C 233.960938 211.878906 233.972656 211.878906 233.980469 211.878906 L 250.019531 211.878906 C 253.574219 211.867188 256.480469 214.746094 256.492188 218.316406 C 256.492188 218.332031 256.492188 218.351562 256.492188 218.367188 " fill-opacity="1" fill-rule="nonzero"/><path fill="#f77c5b" d="M 288.519531 211.878906 L 304.5625 211.878906 C 308.136719 211.878906 311.027344 214.777344 311.027344 218.359375 L 311.027344 234.421875 C 311.027344 238 308.136719 240.902344 304.5625 240.902344 L 288.519531 240.902344 C 284.945312 240.902344 282.050781 238 282.050781 234.421875 L 282.050781 218.359375 C 282.050781 214.777344 284.945312 211.878906 288.519531 211.878906 " fill-opacity="1" fill-rule="nonzero"/><path fill="#f77c5b" d="M 256.492188 259.582031 L 256.492188 275.640625 C 256.492188 279.226562 253.597656 282.132812 250.019531 282.132812 L 233.980469 282.132812 C 230.417969 282.117188 227.535156 279.210938 227.542969 275.640625 L 227.542969 259.582031 C 227.542969 256.023438 230.421875 253.136719 233.972656 253.128906 C 233.972656 253.128906 233.980469 253.128906 233.980469 253.128906 L 250.019531 253.128906 C 253.574219 253.113281 256.476562 255.988281 256.492188 259.554688 C 256.492188 259.5625 256.492188 259.570312 256.492188 259.582031 " fill-opacity="1" fill-rule="nonzero"/><path fill="#f77c5b" d="M 311.027344 259.597656 L 311.027344 275.640625 C 311.027344 279.222656 308.136719 282.132812 304.5625 282.148438 L 288.519531 282.148438 C 284.941406 282.132812 282.050781 279.222656 282.050781 275.640625 L 282.050781 259.597656 C 282.050781 256.023438 284.945312 253.125 288.519531 253.121094 L 304.5625 253.121094 C 308.132812 253.125 311.027344 256.023438 311.027344 259.597656 " fill-opacity="1" fill-rule="nonzero"/><path fill="#f77c5b" d="M 86.457031 211.878906 L 70.414062 211.878906 C 66.839844 211.878906 63.949219 214.777344 63.945312 218.359375 L 63.945312 234.394531 C 63.945312 237.976562 66.835938 240.886719 70.414062 240.902344 L 86.457031 240.902344 C 90.035156 240.886719 92.925781 237.976562 92.925781 234.394531 L 92.925781 218.359375 C 92.921875 214.777344 90.027344 211.878906 86.457031 211.878906 Z M 86.457031 216.457031 C 87.503906 216.464844 88.347656 217.308594 88.347656 218.359375 L 88.347656 234.394531 C 88.34375 235.445312 87.503906 236.296875 86.457031 236.320312 L 70.414062 236.320312 C 69.367188 236.296875 68.527344 235.445312 68.523438 234.394531 L 68.523438 218.359375 C 68.523438 217.308594 69.367188 216.464844 70.414062 216.457031 L 86.457031 216.457031 " fill-opacity="1" fill-rule="nonzero"/><path fill="#f77c5b" d="M 124.9375 211.878906 L 140.980469 211.878906 C 144.554688 211.878906 147.449219 214.777344 147.449219 218.359375 L 147.449219 234.421875 C 147.449219 238 144.554688 240.902344 140.980469 240.902344 L 124.9375 240.902344 C 121.367188 240.902344 118.472656 238 118.472656 234.421875 L 118.472656 218.359375 C 118.472656 214.777344 121.367188 211.878906 124.9375 211.878906 " fill-opacity="1" fill-rule="nonzero"/><path fill="#f77c5b" d="M 179.464844 211.878906 L 195.511719 211.878906 C 199.085938 211.878906 201.972656 214.777344 201.972656 218.359375 L 201.972656 234.421875 C 201.972656 238 199.085938 240.902344 195.511719 240.902344 L 179.464844 240.902344 C 175.890625 240.902344 172.996094 238 172.996094 234.421875 L 172.996094 218.359375 C 172.996094 214.777344 175.890625 211.878906 179.464844 211.878906 " fill-opacity="1" fill-rule="nonzero"/><path fill="#f77c5b" d="M 92.925781 259.597656 L 92.925781 275.640625 C 92.925781 279.222656 90.035156 282.132812 86.457031 282.148438 L 70.414062 282.148438 C 66.835938 282.132812 63.945312 279.222656 63.945312 275.640625 L 63.945312 259.597656 C 63.949219 256.023438 66.839844 253.125 70.414062 253.121094 L 86.457031 253.121094 C 90.027344 253.125 92.921875 256.023438 92.925781 259.597656 " fill-opacity="1" fill-rule="nonzero"/><path fill="#f77c5b" d="M 124.9375 253.121094 L 140.980469 253.121094 C 144.554688 253.121094 147.449219 256.023438 147.449219 259.597656 L 147.449219 275.667969 C 147.449219 279.25 144.554688 282.148438 140.980469 282.148438 L 124.9375 282.148438 C 121.367188 282.148438 118.472656 279.25 118.472656 275.667969 L 118.472656 259.597656 C 118.472656 256.023438 121.367188 253.121094 124.9375 253.121094 " fill-opacity="1" fill-rule="nonzero"/><path fill="#f77c5b" d="M 195.511719 253.121094 L 179.464844 253.121094 C 175.890625 253.125 172.996094 256.023438 172.996094 259.597656 L 172.996094 275.640625 C 172.996094 279.222656 175.886719 282.132812 179.464844 282.148438 L 195.511719 282.148438 C 199.089844 282.132812 201.980469 279.222656 201.972656 275.640625 L 201.972656 259.597656 C 201.972656 256.023438 199.085938 253.125 195.511719 253.121094 Z M 195.511719 257.703125 C 196.550781 257.703125 197.402344 258.554688 197.402344 259.597656 L 197.402344 275.640625 C 197.394531 276.691406 196.558594 277.542969 195.511719 277.5625 L 179.464844 277.5625 C 178.417969 277.542969 177.582031 276.691406 177.574219 275.640625 L 177.574219 259.597656 C 177.574219 258.554688 178.417969 257.703125 179.464844 257.703125 L 195.511719 257.703125 " fill-opacity="1" fill-rule="nonzero"/><g clip-path="url(#a5bd3b753c)"><path fill="#243239" d="M 79.871094 69.226562 C 70.515625 69.210938 62.925781 76.796875 62.910156 86.164062 C 62.902344 91.113281 65.054688 95.820312 68.800781 99.046875 C 71.367188 101.289062 74.558594 102.695312 77.949219 103.082031 C 79.179688 102.054688 79.886719 100.53125 79.871094 98.925781 C 79.867188 98.289062 79.753906 97.65625 79.535156 97.0625 C 76.738281 97 74.070312 95.835938 72.121094 93.820312 C 67.925781 89.535156 67.992188 82.652344 72.277344 78.445312 C 76.554688 74.242188 83.429688 74.308594 87.628906 78.601562 C 89.613281 80.632812 90.730469 83.367188 90.730469 86.214844 L 96.832031 86.214844 C 96.804688 76.839844 89.230469 69.25 79.871094 69.226562 " fill-opacity="1" fill-rule="nonzero"/></g><g clip-path="url(#269fab1724)"><path fill="#243239" d="M 136.453125 69.226562 C 127.101562 69.210938 119.511719 76.796875 119.492188 86.164062 C 119.488281 91.113281 121.636719 95.820312 125.378906 99.046875 C 127.953125 101.289062 131.144531 102.695312 134.535156 103.082031 C 135.761719 102.054688 136.472656 100.53125 136.453125 98.925781 C 136.453125 98.289062 136.339844 97.65625 136.121094 97.0625 C 133.324219 97 130.65625 95.835938 128.707031 93.820312 C 124.507812 89.535156 124.578125 82.652344 128.863281 78.445312 C 133.140625 74.242188 140.015625 74.308594 144.214844 78.601562 C 146.199219 80.632812 147.316406 83.367188 147.316406 86.214844 L 153.417969 86.214844 C 153.394531 76.839844 145.808594 69.25 136.453125 69.226562 " fill-opacity="1" fill-rule="nonzero"/></g><g clip-path="url(#fc6b2159e3)"><path fill="#243239" d="M 193.023438 69.226562 C 183.667969 69.210938 176.074219 76.796875 176.0625 86.164062 C 176.050781 91.113281 178.207031 95.820312 181.949219 99.046875 C 184.519531 101.289062 187.710938 102.695312 191.097656 103.082031 C 192.332031 102.054688 193.039062 100.53125 193.023438 98.925781 C 193.015625 98.289062 192.90625 97.65625 192.683594 97.0625 C 189.886719 97 187.222656 95.835938 185.273438 93.820312 C 181.078125 89.535156 181.144531 82.652344 185.425781 78.445312 C 189.703125 74.242188 196.578125 74.308594 200.777344 78.601562 C 202.769531 80.632812 203.878906 83.367188 203.878906 86.214844 L 209.980469 86.214844 C 209.957031 76.839844 202.378906 69.25 193.023438 69.226562 " fill-opacity="1" fill-rule="nonzero"/></g><g clip-path="url(#594d5c3020)"><path fill="#243239" d="M 249.605469 69.226562 C 240.25 69.210938 232.660156 76.796875 232.648438 86.164062 C 232.636719 91.113281 234.789062 95.820312 238.53125 99.046875 C 241.105469 101.289062 244.292969 102.695312 247.683594 103.082031 C 248.914062 102.054688 249.625 100.53125 249.605469 98.925781 C 249.601562 98.289062 249.488281 97.65625 249.269531 97.0625 C 246.472656 97 243.804688 95.835938 241.855469 93.820312 C 237.660156 89.535156 237.726562 82.652344 242.011719 78.445312 C 246.289062 74.242188 253.164062 74.308594 257.363281 78.601562 C 259.351562 80.632812 260.464844 83.367188 260.464844 86.214844 L 266.566406 86.214844 C 266.542969 76.839844 258.964844 69.25 249.605469 69.226562 " fill-opacity="1" fill-rule="nonzero"/></g><g clip-path="url(#5b5bb6b985)"><path fill="#243239" d="M 306.175781 69.226562 C 296.824219 69.210938 289.234375 76.796875 289.21875 86.164062 C 289.210938 91.113281 291.359375 95.820312 295.105469 99.046875 C 297.679688 101.289062 300.867188 102.695312 304.257812 103.082031 C 305.488281 102.054688 306.199219 100.53125 306.175781 98.925781 C 306.175781 98.289062 306.066406 97.65625 305.84375 97.0625 C 303.042969 97 300.382812 95.835938 298.433594 93.820312 C 294.234375 89.535156 294.304688 82.652344 298.582031 78.445312 C 302.863281 74.242188 309.738281 74.308594 313.933594 78.601562 C 315.925781 80.632812 317.039062 83.367188 317.039062 86.214844 L 323.140625 86.214844 C 323.121094 76.839844 315.539062 69.25 306.175781 69.226562 " fill-opacity="1" fill-rule="nonzero"/></g><path fill="#243239" d="M 184.945312 153.578125 C 184.132812 153.578125 183.359375 153.257812 182.789062 152.683594 L 172.601562 142.480469 C 171.410156 141.289062 171.410156 139.359375 172.601562 138.164062 C 173.792969 136.972656 175.726562 136.972656 176.917969 138.164062 L 184.945312 146.207031 L 201.203125 129.914062 C 202.394531 128.722656 204.328125 128.722656 205.519531 129.914062 C 206.710938 131.109375 206.710938 133.046875 205.519531 134.238281 L 187.105469 152.683594 C 186.527344 153.257812 185.753906 153.578125 184.945312 153.578125 " fill-opacity="1" fill-rule="nonzero"/><path fill="#243239" d="M 239.941406 195.074219 C 239.132812 195.074219 238.359375 194.75 237.785156 194.175781 L 227.601562 183.976562 C 226.410156 182.78125 226.410156 180.851562 227.601562 179.65625 C 228.792969 178.464844 230.726562 178.464844 231.917969 179.65625 L 239.941406 187.699219 L 256.203125 171.410156 C 257.394531 170.214844 259.324219 170.214844 260.515625 171.410156 C 261.707031 172.601562 261.707031 174.539062 260.515625 175.730469 L 242.097656 194.175781 C 241.527344 194.75 240.75 195.074219 239.941406 195.074219 " fill-opacity="1" fill-rule="nonzero"/><path fill="#243239" d="M 184.945312 277.679688 C 184.132812 277.679688 183.359375 277.359375 182.789062 276.789062 L 172.601562 266.585938 C 171.410156 265.390625 171.410156 263.457031 172.601562 262.261719 C 173.792969 261.070312 175.726562 261.070312 176.917969 262.261719 L 184.945312 270.304688 L 201.203125 254.019531 C 202.394531 252.824219 204.328125 252.824219 205.519531 254.019531 C 206.710938 255.210938 206.710938 257.148438 205.519531 258.335938 L 187.105469 276.789062 C 186.527344 277.359375 185.753906 277.679688 184.945312 277.679688 " fill-opacity="1" fill-rule="nonzero"/><path fill="#243239" d="M 77.179688 235.964844 C 76.367188 235.964844 75.59375 235.640625 75.023438 235.070312 L 64.84375 224.867188 C 63.652344 223.675781 63.652344 221.742188 64.84375 220.550781 C 66.03125 219.359375 67.960938 219.359375 69.152344 220.550781 L 77.179688 228.589844 L 93.4375 212.300781 C 94.628906 211.109375 96.5625 211.109375 97.753906 212.300781 C 98.945312 213.496094 98.945312 215.429688 97.753906 216.625 L 79.339844 235.070312 C 78.765625 235.640625 77.988281 235.964844 77.179688 235.964844 " fill-opacity="1" fill-rule="nonzero"/></svg>