<svg width="40" height="40" viewBox="0 0 40 40" fill="none" xmlns="http://www.w3.org/2000/svg">
<path d="M21.7385 10.4326V12.8568C21.7385 13.1191 21.8561 13.334 22.0003 13.334H24.8847C25.0311 13.334 25.1465 13.1191 25.1465 12.8568V10.4326C25.1465 10.1665 25.0311 9.95162 24.8847 9.95162H22.0003C21.8561 9.95162 21.7385 10.1665 21.7385 10.4326Z" fill="#FFA184"/>
<path d="M6.93999 13.4722L8.42888 15.307C8.58864 15.5048 8.91038 15.5561 9.14558 15.4154L13.8319 12.6241C14.0694 12.4853 14.1248 12.2115 13.9629 12.0081L12.474 10.1751C12.3142 9.97925 11.9947 9.92791 11.7595 10.0648L7.06869 12.8599C6.8357 13.0006 6.77801 13.2744 6.93999 13.4722Z" fill="#FFA184"/>
<path d="M19.7804 7.92541V10.3499C19.7804 10.6125 20.0309 10.8291 20.3374 10.8291H26.5419C26.8505 10.8291 27.101 10.6125 27.101 10.3499V7.92541C27.101 7.66092 26.8505 7.44816 26.5419 7.44816H20.3374C20.0309 7.44816 19.7804 7.66092 19.7804 7.92541Z" fill="#FFA184"/>
<path d="M11.88 26.4257C11.88 20.9351 17.0819 16.4793 23.4872 16.4793C29.8946 16.4793 35.0966 20.9351 35.0966 26.4257C35.0966 31.9163 29.8946 36.3721 23.4872 36.3721C17.0819 36.3721 11.88 31.9163 11.88 26.4257Z" fill="white"/>
<path d="M39.8065 13.4722L38.3154 15.307C38.1557 15.5048 37.8339 15.5561 37.6009 15.4154L32.9124 12.6241C32.6749 12.4853 32.6195 12.2115 32.7814 12.0081L34.2681 10.1751C34.4301 9.97925 34.7496 9.92791 34.9848 10.0648L39.6756 12.8599C39.9086 13.0006 39.9663 13.2744 39.8065 13.4722Z" fill="#FFA184"/>
<path d="M23.4824 38.5796C19.6276 38.5796 16.1337 37.2617 13.5763 35.1226L12.7187 34.3277L17.3261 32.798L17.3895 30.0721L18.3434 29.0579L17.4748 26.8382L17.6433 19.9186H11.5088L12.0142 19.2794C14.5936 16.2517 18.7722 14.2795 23.4824 14.2795C31.308 14.2795 37.6591 19.7255 37.6591 26.4314C37.6591 33.1373 31.308 38.5796 23.4824 38.5796Z" fill="#FFDD9E"/>
<path d="M18.7321 7.00354L18.8993 6.8858C19.2451 6.65621 19.6733 6.52473 20.1519 6.52473H25.8151L26.2868 6.6562L26.4563 6.67976L26.6074 6.74844L27.0104 6.85832L27.5669 6.01648C27.6906 5.72605 27.7547 5.42385 27.7547 5.11381C27.7547 3.4164 25.6868 1.78964 22.7992 1.78964C19.9161 1.78964 17.839 3.40659 17.839 5.11381C17.839 5.46114 17.9238 5.80455 18.068 6.1244L18.7321 7.00354ZM25.8013 10.0412L25.8952 9.86263V8.48705L25.7967 8.31239H20.1634L20.0672 8.48705V9.86263L20.1634 10.0412H25.8013ZM22.3801 12.6864L23.4037 12.6629V11.8289H22.3801V12.6864ZM36.8391 14.3485L36.9879 14.2641L37.8764 13.1534C37.936 13.075 37.9108 12.9592 37.8169 12.9023L34.6636 11.0616C34.5697 11.0067 34.4369 11.0283 34.3705 11.1126L33.4705 12.239C33.4156 12.3195 33.4362 12.4333 33.5255 12.4863L36.6559 14.3191L36.8391 14.3485ZM8.87602 14.3485L9.05691 14.3191L12.1873 12.4863C12.2766 12.4352 12.3041 12.3195 12.24 12.239L11.3355 11.1126C11.2782 11.0283 11.1385 11.0067 11.0515 11.0616L7.89132 12.9042C7.80201 12.9592 7.76993 13.075 7.83863 13.1534L8.72486 14.2641L8.87602 14.3485ZM0.155715 23.3261L0 23.1868V21.2461L0.155715 21.1146H15.7941L15.9475 21.2461V23.1868L15.7941 23.3261H0.155715ZM23.0007 27.2469C22.7992 27.2606 22.5885 27.2174 22.403 27.1193C21.9083 26.8642 21.748 26.3187 22.048 25.8968L25.0685 21.5993C25.3639 21.1754 26.0097 21.0381 26.4998 21.2912C26.9944 21.5483 27.1547 22.0977 26.8616 22.5196L23.8411 26.8151C23.651 27.0801 23.3327 27.2331 23.0007 27.2469ZM4.1426 27.7139L3.98917 27.5785V25.6338L4.1426 25.4984H15.7941L15.9475 25.6338V27.5785L15.7941 27.7139H4.1426ZM7.65087 32.0977L7.49744 31.9662V30.0275L7.65087 29.8901H15.7941L15.9475 30.0275V31.9662L15.7941 32.0977H7.65087ZM22.9343 36.7347C19.6321 36.7347 16.6391 35.6044 14.4476 33.7696L14.3239 33.6499L14.3834 33.4321L16.2177 32.8218L16.378 32.8454L16.5383 32.9749L17.0513 33.3065L17.8047 32.2331C18.1001 31.8092 18.739 31.664 19.2405 31.9211C19.7306 32.1762 19.8909 32.7257 19.5955 33.1495L18.8649 34.1994L20.3855 34.6625L22.1488 34.9137V33.7539C22.1488 33.2574 22.6137 32.8571 23.1976 32.8571C23.7678 32.8571 24.235 33.2575 24.235 33.752V34.8685L26.6944 34.3151L27.1593 34.1366L26.5662 33.228C26.2868 32.7983 26.4631 32.2547 26.9692 32.0114C27.473 31.772 28.0982 31.9211 28.389 32.3548L28.9478 33.2182L30.7019 31.7936L31.082 31.354L30.1546 30.8791C29.6622 30.622 29.4951 30.0726 29.7951 29.6546C30.0951 29.2288 30.7363 29.0856 31.224 29.3407L32.1286 29.8038L32.369 29.3014L32.9324 27.1546H31.9362C31.3569 27.1546 30.8897 26.7523 30.8897 26.2618C30.8897 25.7692 31.3569 25.365 31.9362 25.365H32.9209L32.9117 25.3179C32.8087 24.5879 32.6026 23.8756 32.3072 23.2123L32.1744 22.9611L31.3179 23.3713C31.1668 23.4439 30.9973 23.4812 30.8279 23.4812C30.4569 23.487 30.0951 23.3261 29.9027 23.0279C29.6164 22.6001 29.7951 22.0526 30.3057 21.8093L31.1668 21.3952L31.1233 21.3422C30.6492 20.7712 30.0951 20.2512 29.4745 19.7979L29.1035 19.5428L28.5768 20.2983C28.3753 20.5887 28.0066 20.7418 27.6356 20.73C27.473 20.7261 27.3036 20.6848 27.1433 20.6044C26.6532 20.3473 26.4952 19.7979 26.786 19.376L27.3333 18.595L25.8677 18.0965L24.235 17.7885V18.7696C24.235 19.2582 23.7678 19.6664 23.1976 19.6664C22.6137 19.6664 22.1488 19.2582 22.1488 18.7696V17.7433L19.5497 18.2241L19.1924 18.3438L19.8176 19.2916C20.0993 19.7253 19.916 20.2728 19.4191 20.5122C19.2588 20.5887 19.0917 20.624 18.9245 20.6319C18.5489 20.6338 18.1871 20.4631 17.9925 20.1707L17.3467 19.1778L17.2253 19.2445L16.2177 19.9293L16.1169 20.0157L16.0048 20.051H13.5842L13.4583 19.8352L13.5659 19.7155C15.7941 17.3999 19.1626 15.9262 22.9343 15.9262C29.6348 15.9262 35.0735 20.5887 35.0735 26.3304C35.0735 32.0683 29.6348 36.7347 22.9343 36.7347ZM22.9343 40C17.9787 40 13.5453 38.0671 10.6233 35.0216L10.5156 34.8921L10.5821 34.6899L12.3385 34.1071L12.5125 34.1425L13.2499 34.8332L15.288 36.2441C17.4841 37.4843 20.113 38.2064 22.9343 38.2064C30.5828 38.2064 36.7979 32.8866 36.7979 26.3304C36.7979 19.7724 30.5828 14.4506 22.9343 14.4506C18.2741 14.4506 14.1476 16.4266 11.6263 19.4525L11.2072 19.998L11.079 20.051H9.02487L8.88288 19.8626L8.90578 19.8234C9.64316 18.6519 10.5729 17.5981 11.6606 16.6641L11.7316 16.6052L10.7263 15.5082L10.2065 15.8104C9.81719 16.0381 9.37064 16.1499 8.93096 16.1578C8.18901 16.1578 7.46308 15.8556 7.02341 15.2983L6.11427 14.1601C5.40209 13.2692 5.67003 12.0388 6.71884 11.4266L9.87672 9.58202C10.9187 8.96978 12.3476 9.20525 13.069 10.0981L13.9644 11.2323C14.6788 12.1272 14.4109 13.3556 13.3644 13.9659L12.4644 14.4976L13.3232 15.4396L14.0125 15.0039C15.7116 14.0169 17.6444 13.3006 19.7191 12.9376L20.2939 12.8611V11.8289H20.1519C18.8833 11.8289 17.9764 10.8928 17.9764 9.86263V8.82653L17.2116 8.24962C16.3116 7.39012 15.746 6.31475 15.746 5.11381C15.746 2.14874 19.0596 1.77009e-06 22.7992 1.77009e-06C26.5479 1.77009e-06 29.8409 2.17229 29.8409 5.11381C29.8409 6.18131 29.3943 7.15267 28.6615 7.94741L27.9814 8.56359V9.86263C27.9814 10.8811 27.0883 11.8289 25.8151 11.8289H25.4922V12.8513L26.138 12.9376C28.2219 13.3006 30.1546 14.0169 31.8561 14.998L32.495 15.4101L33.2988 14.5192L32.3507 13.9659C31.3065 13.3556 31.0294 12.1272 31.7484 11.2323L32.653 10.0981C33.3629 9.20525 34.7964 8.96978 35.8429 9.58202L38.994 11.4266C40.0473 12.0388 40.3153 13.2633 39.5985 14.1601L38.6986 15.2983C38.2451 15.8556 37.5238 16.1578 36.7841 16.1578C36.3444 16.1499 35.8979 16.0381 35.504 15.8104L35.0323 15.5318L34.0934 16.5699L34.2102 16.6621C37.1024 19.1464 38.884 22.5589 38.884 26.3304C38.884 33.8736 31.737 40 22.9343 40Z" fill="#333333"/>
</svg>
