<svg xmlns="http://www.w3.org/2000/svg" xmlns:xlink="http://www.w3.org/1999/xlink" width="500" zoomAndPan="magnify" viewBox="0 0 375 374.999991" height="500" preserveAspectRatio="xMidYMid meet" version="1.0"><defs><clipPath id="5b68d03714"><path d="M 126.5625 112.5 L 248.8125 112.5 L 248.8125 262.5 L 126.5625 262.5 Z M 126.5625 112.5 " clip-rule="nonzero"/></clipPath></defs><g clip-path="url(#5b68d03714)"><path fill="#040606" d="M 137.550781 176.714844 L 137.550781 214.5 C 137.550781 217.253906 136.894531 220.015625 135.664062 222.484375 L 127.1875 239.378906 C 126.632812 240.484375 126.691406 241.804688 127.347656 242.851562 C 127.996094 243.902344 129.148438 244.550781 130.386719 244.550781 L 166.523438 244.550781 C 168.238281 254.660156 177.0625 262.394531 187.6875 262.394531 C 193.402344 262.394531 198.800781 260.179688 202.910156 256.121094 C 206.089844 252.917969 208.125 248.894531 208.859375 244.550781 L 244.980469 244.550781 C 246.226562 244.550781 247.378906 243.902344 248.027344 242.851562 C 248.683594 241.804688 248.742188 240.484375 248.1875 239.378906 L 239.710938 222.484375 C 238.480469 220.015625 237.824219 217.253906 237.824219 214.5 L 237.824219 176.714844 C 237.824219 163.375 232.605469 150.828125 223.128906 141.382812 C 217.167969 135.4375 209.859375 131.121094 201.789062 128.746094 C 201.882812 128.078125 202.007812 127.421875 202.007812 126.734375 C 202.007812 118.863281 195.589844 112.453125 187.6875 112.453125 C 179.785156 112.453125 173.367188 118.863281 173.367188 126.734375 C 173.367188 127.425781 173.492188 128.085938 173.585938 128.753906 C 152.5 134.929688 137.550781 154.515625 137.550781 176.714844 Z M 197.847656 251.078125 C 195.113281 253.773438 191.5 255.261719 187.6875 255.261719 C 181.027344 255.261719 175.414062 250.699219 173.816406 244.550781 L 201.566406 244.550781 C 200.933594 246.992188 199.664062 249.242188 197.847656 251.078125 Z M 187.6875 119.597656 C 191.636719 119.597656 194.851562 122.796875 194.851562 126.734375 C 194.851562 126.902344 194.84375 127.070312 194.832031 127.238281 C 194.402344 127.175781 193.96875 127.152344 193.542969 127.101562 C 193.144531 127.054688 192.753906 127.011719 192.359375 126.976562 C 190.796875 126.832031 189.238281 126.734375 187.6875 126.734375 C 186.132812 126.734375 184.566406 126.832031 183.003906 126.976562 C 182.621094 127.011719 182.242188 127.054688 181.863281 127.101562 C 181.425781 127.148438 180.980469 127.175781 180.542969 127.238281 C 180.53125 127.070312 180.523438 126.902344 180.523438 126.734375 C 180.523438 122.796875 183.738281 119.597656 187.6875 119.597656 Z M 178.703125 134.800781 C 183.179688 133.878906 187.710938 133.652344 192.183594 134.109375 C 193.683594 134.265625 195.171875 134.492188 196.660156 134.796875 C 204.792969 136.550781 212.191406 140.574219 218.0625 146.425781 C 226.1875 154.527344 230.660156 165.28125 230.660156 176.714844 L 230.660156 214.5 C 230.660156 218.359375 231.578125 222.226562 233.304688 225.675781 L 239.191406 237.40625 L 136.183594 237.40625 L 142.070312 225.675781 C 143.796875 222.226562 144.714844 218.359375 144.714844 214.5 L 144.714844 176.714844 C 144.714844 156.601562 159.019531 138.96875 178.703125 134.800781 " fill-opacity="1" fill-rule="nonzero"/></g></svg>