<svg xmlns="http://www.w3.org/2000/svg" xmlns:xlink="http://www.w3.org/1999/xlink" width="500" zoomAndPan="magnify" viewBox="0 0 375 374.999991" height="500" preserveAspectRatio="xMidYMid meet" version="1.0"><defs><g/><clipPath id="ab94d21126"><path d="M 131.25 131.25 L 244 131.25 L 244 229.132812 L 131.25 229.132812 Z M 131.25 131.25 " clip-rule="nonzero"/></clipPath><clipPath id="a14f2e9a37"><path d="M 243.75 131.25 L 131.25 131.25 L 131.25 203.117188 L 153.046875 203.117188 L 153.046875 229.132812 L 195.410156 203.117188 L 243.75 203.117188 Z M 243.75 131.25 " clip-rule="nonzero"/></clipPath><clipPath id="ee6c67b111"><path d="M 131.253906 131.25 L 243.746094 131.25 L 243.746094 229.5 L 131.253906 229.5 Z M 131.253906 131.25 " clip-rule="nonzero"/></clipPath><clipPath id="4b940713d9"><path d="M 243.746094 131.25 L 131.253906 131.25 L 131.253906 203.109375 L 153.050781 203.109375 L 153.050781 229.125 L 195.410156 203.109375 L 243.746094 203.109375 Z M 243.746094 131.25 " clip-rule="nonzero"/></clipPath></defs><g clip-path="url(#ab94d21126)"><g clip-path="url(#a14f2e9a37)"><path fill="#ffffff" d="M 131.25 131.25 L 243.660156 131.25 L 243.660156 229.132812 L 131.25 229.132812 Z M 131.25 131.25 " fill-opacity="1" fill-rule="nonzero"/></g></g><g clip-path="url(#ee6c67b111)"><g clip-path="url(#4b940713d9)"><path stroke-linecap="butt" transform="matrix(0.75, 0, 0, 0.75, 131.253644, 131.249991)" fill="none" stroke-linejoin="miter" d="M 149.989933 0.0000114917 L 0.000349825 0.0000114917 L 0.000349825 95.812512 L 29.06285 95.812512 L 29.06285 130.500012 L 85.542017 95.812512 L 149.989933 95.812512 Z M 149.989933 0.0000114917 " stroke="#00bf63" stroke-width="26" stroke-opacity="1" stroke-miterlimit="4"/></g></g><g fill="#00bf63" fill-opacity="1"><g transform="translate(149.121088, 177.749988)"><g><path d="M 2.453125 -20.84375 L 10.140625 -20.84375 C 14.722656 -20.84375 17.015625 -19.082031 17.015625 -15.5625 L 17.015625 -14.9375 C 17.015625 -14.457031 16.953125 -13.992188 16.828125 -13.546875 C 16.710938 -13.097656 16.519531 -12.679688 16.25 -12.296875 C 15.976562 -11.921875 15.613281 -11.585938 15.15625 -11.296875 C 14.707031 -11.003906 14.164062 -10.78125 13.53125 -10.625 C 14.851562 -10.414062 15.925781 -9.910156 16.75 -9.109375 C 17.582031 -8.316406 18 -7.171875 18 -5.671875 L 18 -4.921875 C 18 -3.140625 17.429688 -1.742188 16.296875 -0.734375 C 15.171875 0.273438 13.425781 0.78125 11.0625 0.78125 L 2.453125 0.78125 Z M 5.4375 -1.796875 L 9.953125 -1.796875 C 10.796875 -1.796875 11.53125 -1.835938 12.15625 -1.921875 C 12.789062 -2.015625 13.3125 -2.179688 13.71875 -2.421875 C 14.132812 -2.671875 14.441406 -3 14.640625 -3.40625 C 14.835938 -3.8125 14.9375 -4.335938 14.9375 -4.984375 L 14.9375 -5.640625 C 14.9375 -6.296875 14.847656 -6.851562 14.671875 -7.3125 C 14.492188 -7.78125 14.179688 -8.160156 13.734375 -8.453125 C 13.296875 -8.753906 12.71875 -8.96875 12 -9.09375 C 11.28125 -9.226562 10.378906 -9.296875 9.296875 -9.296875 L 5.4375 -9.296875 Z M 5.4375 -18.296875 L 5.4375 -11.734375 L 9.265625 -11.734375 C 10.003906 -11.734375 10.671875 -11.769531 11.265625 -11.84375 C 11.859375 -11.925781 12.351562 -12.085938 12.75 -12.328125 C 13.144531 -12.566406 13.445312 -12.894531 13.65625 -13.3125 C 13.875 -13.738281 13.984375 -14.289062 13.984375 -14.96875 L 13.984375 -15.515625 C 13.984375 -16.148438 13.882812 -16.648438 13.6875 -17.015625 C 13.5 -17.390625 13.203125 -17.671875 12.796875 -17.859375 C 12.390625 -18.054688 11.875 -18.175781 11.25 -18.21875 C 10.625 -18.269531 9.894531 -18.296875 9.0625 -18.296875 Z M 5.4375 -18.296875 "/></g></g></g><g fill="#00bf63" fill-opacity="1"><g transform="translate(168.171071, 177.749988)"><g><path d="M 5.4375 -20.84375 L 5.4375 -1.765625 L 15.78125 -1.765625 L 15.78125 0.78125 L 2.453125 0.78125 L 2.453125 -20.84375 Z M 5.4375 -20.84375 "/></g></g></g><g fill="#00bf63" fill-opacity="1"><g transform="translate(184.551056, 177.749988)"><g><path d="M 10.59375 1.109375 C 9.289062 1.109375 8.101562 0.910156 7.03125 0.515625 C 5.96875 0.128906 5.046875 -0.457031 4.265625 -1.25 C 3.484375 -2.050781 2.875 -3.039062 2.4375 -4.21875 C 2.007812 -5.40625 1.796875 -6.800781 1.796875 -8.40625 L 1.796875 -11.671875 C 1.796875 -13.253906 2.007812 -14.632812 2.4375 -15.8125 C 2.875 -16.988281 3.484375 -17.976562 4.265625 -18.78125 C 5.046875 -19.582031 5.972656 -20.179688 7.046875 -20.578125 C 8.128906 -20.984375 9.3125 -21.1875 10.59375 -21.1875 C 11.875 -21.1875 13.050781 -20.984375 14.125 -20.578125 C 15.207031 -20.179688 16.140625 -19.582031 16.921875 -18.78125 C 17.703125 -17.976562 18.304688 -16.988281 18.734375 -15.8125 C 19.160156 -14.632812 19.375 -13.253906 19.375 -11.671875 L 19.375 -8.40625 C 19.375 -6.800781 19.160156 -5.40625 18.734375 -4.21875 C 18.304688 -3.039062 17.703125 -2.050781 16.921875 -1.25 C 16.140625 -0.457031 15.207031 0.128906 14.125 0.515625 C 13.050781 0.910156 11.875 1.109375 10.59375 1.109375 Z M 10.59375 -18.484375 C 9.75 -18.484375 8.972656 -18.347656 8.265625 -18.078125 C 7.554688 -17.804688 6.945312 -17.382812 6.4375 -16.8125 C 5.925781 -16.238281 5.523438 -15.5 5.234375 -14.59375 C 4.941406 -13.6875 4.796875 -12.601562 4.796875 -11.34375 L 4.796875 -8.734375 C 4.796875 -7.472656 4.941406 -6.382812 5.234375 -5.46875 C 5.523438 -4.5625 5.925781 -3.820312 6.4375 -3.25 C 6.945312 -2.6875 7.554688 -2.269531 8.265625 -2 C 8.972656 -1.726562 9.75 -1.59375 10.59375 -1.59375 C 11.425781 -1.59375 12.195312 -1.726562 12.90625 -2 C 13.625 -2.269531 14.238281 -2.6875 14.75 -3.25 C 15.257812 -3.820312 15.65625 -4.5625 15.9375 -5.46875 C 16.226562 -6.382812 16.375 -7.472656 16.375 -8.734375 L 16.375 -11.34375 C 16.375 -12.601562 16.226562 -13.6875 15.9375 -14.59375 C 15.65625 -15.5 15.257812 -16.238281 14.75 -16.8125 C 14.238281 -17.382812 13.625 -17.804688 12.90625 -18.078125 C 12.195312 -18.347656 11.425781 -18.484375 10.59375 -18.484375 Z M 10.59375 -18.484375 "/></g></g></g><g fill="#00bf63" fill-opacity="1"><g transform="translate(205.731036, 177.749988)"><g><path d="M 18.390625 -0.84375 C 17.429688 -0.175781 16.304688 0.3125 15.015625 0.625 C 13.722656 0.945312 12.398438 1.109375 11.046875 1.109375 C 9.597656 1.109375 8.300781 0.910156 7.15625 0.515625 C 6.019531 0.128906 5.054688 -0.457031 4.265625 -1.25 C 3.484375 -2.050781 2.875 -3.039062 2.4375 -4.21875 C 2.007812 -5.40625 1.796875 -6.800781 1.796875 -8.40625 L 1.796875 -11.671875 C 1.796875 -13.253906 2.003906 -14.632812 2.421875 -15.8125 C 2.847656 -16.988281 3.453125 -17.976562 4.234375 -18.78125 C 5.015625 -19.582031 5.957031 -20.179688 7.0625 -20.578125 C 8.175781 -20.984375 9.421875 -21.1875 10.796875 -21.1875 C 12.203125 -21.1875 13.492188 -21.003906 14.671875 -20.640625 C 15.847656 -20.273438 16.945312 -19.695312 17.96875 -18.90625 L 16.4375 -16.5 C 15.5 -17.238281 14.578125 -17.753906 13.671875 -18.046875 C 12.773438 -18.335938 11.816406 -18.484375 10.796875 -18.484375 C 8.921875 -18.484375 7.445312 -17.90625 6.375 -16.75 C 5.300781 -15.601562 4.765625 -13.78125 4.765625 -11.28125 L 4.765625 -8.796875 C 4.765625 -6.296875 5.335938 -4.46875 6.484375 -3.3125 C 7.640625 -2.164062 9.1875 -1.59375 11.125 -1.59375 C 11.945312 -1.59375 12.722656 -1.664062 13.453125 -1.8125 C 14.179688 -1.96875 14.835938 -2.179688 15.421875 -2.453125 L 15.421875 -8.546875 L 10.625 -8.546875 L 10.625 -11.09375 L 18.390625 -11.09375 Z M 18.390625 -0.84375 "/></g></g></g></svg>