<svg width="45" height="30" viewBox="0 0 45 30" fill="none" xmlns="http://www.w3.org/2000/svg">
<path d="M42.3219 0.619832H2.92368C1.70046 0.619832 0.70929 1.50892 0.70929 2.60626V5.9809V10.4584V27.5799C0.70929 28.6777 1.70046 29.5659 2.92368 29.5659H42.3219C43.5433 29.5659 44.5349 28.6777 44.5349 27.5799V10.4584V5.9809V2.60626C44.5349 1.50892 43.5433 0.619832 42.3219 0.619832Z" fill="white"/>
<path d="M44.3809 11.1255H0.555237V5.90311H44.3809V11.1255Z" fill="#87B570"/>
<path d="M2.80158 1.05392C1.90436 1.05392 1.17437 1.70861 1.17437 2.51338V27.487C1.17437 28.2914 1.90436 28.9461 2.80158 28.9461H42.1998C43.0961 28.9461 43.8256 28.2914 43.8256 27.487V2.51338C43.8256 1.70861 43.0961 1.05392 42.1998 1.05392H2.80158ZM42.1998 30H2.80158C1.25705 30 0 28.8727 0 27.487V2.51338C0 1.12727 1.25705 -3.42524e-07 2.80158 -3.42524e-07H42.1998C43.7439 -3.42524e-07 45 1.12727 45 2.51338V27.487C45 28.8727 43.7439 30 42.1998 30Z" fill="#333333"/>
<path d="M13.5715 25.5864H5.0282V20.6486H13.5715V25.5864Z" fill="#F7D959"/>
<path d="M25.4782 17.9473H5.02777V13.786H25.4782V17.9473Z" fill="#CCCCCC"/>
<path d="M40.6816 21.6724H16.3641V20.648H40.6816V21.6724Z" fill="#E6E6E6"/>
<path d="M27.1947 23.6294H16.3641V22.605H27.1947V23.6294Z" fill="#E6E6E6"/>
<path d="M30.9409 25.5864H16.3641V24.562H30.9409V25.5864Z" fill="#E6E6E6"/>
</svg>
