<svg xmlns="http://www.w3.org/2000/svg" xmlns:xlink="http://www.w3.org/1999/xlink" width="500" zoomAndPan="magnify" viewBox="0 0 375 374.999991" height="500" preserveAspectRatio="xMidYMid meet" version="1.0"><defs><clipPath id="9bb448a9ba"><path d="M 205 131 L 337.5 131 L 337.5 334.5 L 205 334.5 Z M 205 131 " clip-rule="nonzero"/></clipPath><clipPath id="1e07206c41"><path d="M 281 131 L 312 131 L 312 334.5 L 281 334.5 Z M 281 131 " clip-rule="nonzero"/></clipPath><clipPath id="b0b6ad50a4"><path d="M 43 40.5 L 252 40.5 L 252 334.5 L 43 334.5 Z M 43 40.5 " clip-rule="nonzero"/></clipPath></defs><g clip-path="url(#9bb448a9ba)"><path fill="#3b97d3" d="M 215.691406 131.746094 L 322.136719 131.746094 C 330.535156 131.746094 337.34375 138.558594 337.34375 146.953125 L 337.34375 319.292969 C 337.34375 327.691406 330.535156 334.5 322.136719 334.5 L 215.691406 334.5 C 210.09375 334.5 205.550781 329.960938 205.550781 324.363281 L 205.550781 141.886719 C 205.550781 136.285156 210.09375 131.746094 215.691406 131.746094 Z M 215.691406 131.746094 " fill-opacity="1" fill-rule="nonzero"/></g><g clip-path="url(#1e07206c41)"><path fill="#35495e" d="M 281.585938 334.5 L 312 334.5 L 312 131.746094 L 281.585938 131.746094 Z M 281.585938 334.5 " fill-opacity="1" fill-rule="nonzero"/></g><path fill="#84b5cb" d="M 256.242188 146.953125 C 253.445312 146.953125 251.171875 149.222656 251.171875 152.023438 L 251.171875 187.503906 C 251.171875 190.304688 253.445312 192.574219 256.242188 192.574219 C 259.039062 192.574219 261.308594 190.304688 261.308594 187.503906 L 261.308594 152.023438 C 261.308594 149.222656 259.039062 146.953125 256.242188 146.953125 Z M 256.242188 146.953125 " fill-opacity="1" fill-rule="nonzero"/><path fill="#84b5cb" d="M 256.242188 202.710938 C 253.445312 202.710938 251.171875 204.980469 251.171875 207.78125 L 251.171875 217.917969 C 251.171875 220.71875 253.445312 222.988281 256.242188 222.988281 C 259.039062 222.988281 261.308594 220.71875 261.308594 217.917969 L 261.308594 207.78125 C 261.308594 204.980469 259.039062 202.710938 256.242188 202.710938 Z M 256.242188 202.710938 " fill-opacity="1" fill-rule="nonzero"/><path fill="#e64c3c" d="M 246.105469 273.671875 C 243.113281 273.6875 240.191406 274.570312 237.691406 276.207031 C 232.101562 272.496094 229.609375 265.566406 231.546875 259.148438 C 233.484375 252.726562 239.398438 248.335938 246.105469 248.335938 C 252.8125 248.335938 258.722656 252.726562 260.660156 259.148438 C 262.597656 265.566406 260.101562 272.496094 254.519531 276.207031 C 252.015625 274.570312 249.09375 273.6875 246.105469 273.671875 Z M 246.105469 273.671875 " fill-opacity="1" fill-rule="nonzero"/><path fill="#d25627" d="M 246.105469 278.742188 C 243.113281 278.726562 240.191406 277.847656 237.691406 276.207031 C 242.792969 272.828125 249.417969 272.828125 254.519531 276.207031 C 252.015625 277.847656 249.09375 278.726562 246.105469 278.742188 Z M 246.105469 278.742188 " fill-opacity="1" fill-rule="nonzero"/><path fill="#f29c1f" d="M 246.105469 304.089844 C 239.394531 304.089844 233.476562 299.695312 231.539062 293.273438 C 229.597656 286.851562 232.097656 279.917969 237.691406 276.207031 C 242.792969 279.589844 249.417969 279.589844 254.519531 276.207031 C 260.109375 279.917969 262.605469 286.851562 260.667969 293.273438 C 258.730469 299.695312 252.8125 304.089844 246.105469 304.089844 Z M 246.105469 304.089844 " fill-opacity="1" fill-rule="nonzero"/><g clip-path="url(#b0b6ad50a4)"><path fill="#7ed09e" d="M 225.777344 61.441406 L 223.699219 51.8125 L 221.214844 40.507812 L 56.527344 40.507812 L 67.277344 89.574219 C 73.238281 116.839844 69.789062 145.316406 57.492188 170.371094 L 55.972656 173.410156 C 37.667969 210.671875 39.347656 254.640625 60.433594 290.402344 L 86.484375 334.5 L 251.171875 334.5 L 233.636719 304.796875 C 233.316406 304.144531 232.941406 303.515625 232.519531 302.921875 L 225.117188 290.402344 C 204.023438 254.640625 202.367188 210.660156 220.707031 173.410156 L 222.179688 170.371094 C 234.5 145.324219 237.949219 116.835938 231.960938 89.574219 L 225.777344 61.59375 L 225.777344 61.542969 C 225.828125 61.492188 225.828125 61.492188 225.777344 61.441406 " fill-opacity="1" fill-rule="nonzero"/></g><path fill="#4fba6f" d="M 205.398438 296.789062 C 199.203125 300.40625 195.402344 307.050781 195.414062 314.226562 L 119.382812 314.226562 C 119.386719 306.777344 115.308594 299.925781 108.757812 296.378906 C 102.207031 292.835938 94.238281 293.167969 88.003906 297.246094 L 77.871094 280.0625 C 60.191406 250.207031 58.796875 213.441406 74.167969 182.335938 L 75.6875 179.292969 C 76.554688 177.519531 77.414062 175.691406 78.222656 173.867188 C 90.4375 146.003906 93.542969 115 87.09375 85.265625 L 86.128906 80.957031 C 96.402344 79.800781 104.171875 71.121094 104.175781 60.78125 L 185.277344 60.78125 C 185.277344 71.980469 194.355469 81.058594 205.550781 81.058594 C 206.796875 81.070312 208.035156 80.949219 209.253906 80.703125 L 212.140625 93.933594 C 217.109375 116.699219 214.234375 140.476562 203.980469 161.398438 L 202.511719 164.4375 C 199.457031 170.648438 196.847656 177.070312 194.707031 183.652344 C 191.988281 192.039062 190.054688 200.65625 188.925781 209.402344 C 188.925781 209.429688 188.90625 209.453125 188.875 209.453125 C 184.992188 239.578125 190.773438 270.164062 205.398438 296.789062 Z M 205.398438 296.789062 " fill-opacity="1" fill-rule="nonzero"/><path fill="#7ed09e" d="M 170.070312 101.332031 C 170.070312 112.53125 160.996094 121.609375 149.796875 121.609375 C 138.597656 121.609375 129.519531 112.53125 129.519531 101.332031 C 129.519531 90.136719 138.597656 81.058594 149.796875 81.058594 C 160.996094 81.058594 170.070312 90.136719 170.070312 101.332031 Z M 170.070312 101.332031 " fill-opacity="1" fill-rule="nonzero"/><path fill="#7ed09e" d="M 159.933594 273.671875 C 159.933594 284.871094 150.855469 293.949219 139.660156 293.949219 C 128.460938 293.949219 119.382812 284.871094 119.382812 273.671875 C 119.382812 262.476562 128.460938 253.398438 139.660156 253.398438 C 150.855469 253.398438 159.933594 262.476562 159.933594 273.671875 Z M 159.933594 273.671875 " fill-opacity="1" fill-rule="nonzero"/><path fill="#7ed09e" d="M 188.925781 209.402344 C 188.925781 209.414062 188.921875 209.429688 188.910156 209.4375 C 188.902344 209.449219 188.890625 209.453125 188.875 209.453125 C 178.839844 223.492188 158.3125 233.121094 134.589844 233.121094 C 100.980469 233.121094 73.765625 213.8125 73.765625 190.039062 C 73.816406 184.351562 75.355469 178.777344 78.222656 173.867188 C 87.246094 158.105469 109.09375 146.953125 134.589844 146.953125 C 165.105469 146.953125 190.394531 162.871094 194.707031 183.652344 " fill-opacity="1" fill-rule="nonzero"/><path fill="#e6e7e8" d="M 154.863281 106.402344 L 144.726562 106.402344 C 141.929688 106.402344 139.660156 104.132812 139.660156 101.332031 C 139.660156 98.535156 141.929688 96.265625 144.726562 96.265625 L 154.863281 96.265625 C 157.664062 96.265625 159.933594 98.535156 159.933594 101.332031 C 159.933594 104.132812 157.664062 106.402344 154.863281 106.402344 Z M 154.863281 106.402344 " fill-opacity="1" fill-rule="nonzero"/><path fill="#e6e7e8" d="M 144.726562 278.742188 L 134.589844 278.742188 C 131.789062 278.742188 129.519531 276.472656 129.519531 273.671875 C 129.519531 270.875 131.789062 268.605469 134.589844 268.605469 L 144.726562 268.605469 C 147.527344 268.605469 149.796875 270.875 149.796875 273.671875 C 149.796875 276.472656 147.527344 278.742188 144.726562 278.742188 Z M 144.726562 278.742188 " fill-opacity="1" fill-rule="nonzero"/><path fill="#4fba6f" d="M 170.070312 182.433594 L 164.632812 182.433594 C 164.109375 178.207031 162.707031 174.136719 160.515625 170.480469 C 157.855469 165.582031 152.832031 162.425781 147.261719 162.15625 C 141.691406 162.425781 136.664062 165.582031 134 170.480469 C 131.816406 174.136719 130.414062 178.207031 129.890625 182.433594 L 114.847656 182.433594 C 115.25 180.113281 116.066406 177.878906 117.257812 175.84375 C 118.738281 173.464844 118.011719 170.335938 115.632812 168.855469 C 113.253906 167.371094 110.125 168.097656 108.640625 170.476562 C 106.460938 174.132812 105.0625 178.207031 104.546875 182.433594 L 99.105469 182.433594 C 96.308594 182.433594 94.039062 184.707031 94.039062 187.503906 C 94.039062 190.304688 96.308594 192.574219 99.105469 192.574219 L 104.546875 192.574219 C 105.070312 196.800781 106.46875 200.871094 108.65625 204.523438 C 111.320312 209.421875 116.347656 212.578125 121.917969 212.847656 C 127.484375 212.578125 132.511719 209.421875 135.171875 204.523438 C 137.363281 200.871094 138.765625 196.800781 139.289062 192.574219 L 154.355469 192.574219 C 153.957031 194.894531 153.140625 197.128906 151.949219 199.160156 C 150.925781 200.699219 150.816406 202.667969 151.671875 204.308594 C 152.519531 205.945312 154.195312 206.996094 156.039062 207.042969 C 157.882812 207.089844 159.609375 206.128906 160.542969 204.535156 C 162.726562 200.878906 164.117188 196.800781 164.632812 192.574219 L 170.070312 192.574219 C 172.867188 192.574219 175.140625 190.304688 175.140625 187.503906 C 175.140625 184.707031 172.867188 182.433594 170.070312 182.433594 Z M 151.917969 175.84375 C 153.121094 177.878906 153.945312 180.109375 154.355469 182.433594 L 140.214844 182.433594 C 140.621094 180.113281 141.433594 177.882812 142.625 175.84375 C 145.433594 171.335938 149.097656 171.335938 151.917969 175.84375 Z M 117.253906 199.160156 C 116.0625 197.128906 115.25 194.894531 114.847656 192.574219 L 129.011719 192.574219 C 128.613281 194.894531 127.792969 197.128906 126.597656 199.160156 C 123.75 203.675781 120.089844 203.675781 117.253906 199.160156 Z M 117.253906 199.160156 " fill-opacity="1" fill-rule="nonzero"/></svg>