<svg xmlns="http://www.w3.org/2000/svg" xmlns:xlink="http://www.w3.org/1999/xlink" width="500" zoomAndPan="magnify" viewBox="0 0 375 374.999991" height="500" preserveAspectRatio="xMidYMid meet" version="1.0"><defs><clipPath id="3524a0ad72"><path d="M 81 52.6875 L 290 52.6875 L 290 287 L 81 287 Z M 81 52.6875 " clip-rule="nonzero"/></clipPath><clipPath id="1e077d48aa"><path d="M 81 96 L 214 96 L 214 322.6875 L 81 322.6875 Z M 81 96 " clip-rule="nonzero"/></clipPath><clipPath id="67e86e9d05"><path d="M 212 128 L 289.1875 128 L 289.1875 322.6875 L 212 322.6875 Z M 212 128 " clip-rule="nonzero"/></clipPath><clipPath id="d484e316ba"><path d="M 38.085938 70 L 336.828125 70 L 336.828125 314 L 38.085938 314 Z M 38.085938 70 " clip-rule="nonzero"/></clipPath><clipPath id="d0ef94effd"><path d="M 38.085938 89 L 336.828125 89 L 336.828125 322.6875 L 38.085938 322.6875 Z M 38.085938 89 " clip-rule="nonzero"/></clipPath></defs><g clip-path="url(#3524a0ad72)"><path fill="#daf0b7" d="M 215.816406 245.644531 C 217.898438 244.160156 220.507812 243.414062 223.652344 243.414062 C 227.09375 243.414062 229.972656 244.007812 232.289062 245.199219 C 234.308594 246.570312 235.316406 248.175781 235.316406 250.011719 C 235.316406 251.976562 234.308594 253.671875 232.289062 255.097656 C 229.683594 256.226562 226.914062 256.792969 224.003906 256.792969 C 220.625 256.792969 217.898438 256.046875 215.816406 254.5625 C 213.5 253.496094 212.222656 251.976562 211.992188 250.011719 C 211.992188 248.175781 213.265625 246.71875 215.816406 245.644531 Z M 175.921875 133.648438 L 219.554688 108.417969 C 220.144531 109.964844 220.445312 111.628906 220.445312 113.414062 C 220.445312 117.335938 218.84375 120.78125 215.636719 123.757812 C 214.097656 125.179688 212.191406 126.578125 209.9375 127.945312 C 206.378906 130.207031 202.335938 131.808594 197.828125 132.757812 C 193.792969 133.710938 189.339844 134.183594 184.472656 134.183594 C 181.5 134.183594 178.65625 134.011719 175.921875 133.648438 Z M 236.742188 135.96875 C 236.617188 137.753906 235.554688 139.363281 233.535156 140.78125 C 230.921875 141.855469 228.136719 142.390625 225.167969 142.390625 C 221.667969 142.390625 218.84375 141.675781 216.707031 140.253906 C 214.445312 139.0625 213.144531 137.515625 212.785156 135.613281 C 212.785156 133.710938 214.097656 132.226562 216.707031 131.15625 C 218.726562 129.726562 221.304688 128.953125 224.449219 128.835938 C 224.574219 128.835938 224.6875 128.835938 224.8125 128.835938 C 228.25 128.835938 231.15625 129.488281 233.535156 130.800781 C 235.671875 132.109375 236.742188 133.710938 236.742188 135.613281 C 236.742188 135.730469 236.742188 135.851562 236.742188 135.96875 Z M 237.097656 103.421875 L 236.429688 109.886719 L 226.765625 104.3125 L 236.5625 98.609375 L 236.609375 98.652344 Z M 289.007812 128.835938 L 286.605469 130.222656 L 286.605469 127.457031 Z M 148.589844 228.082031 C 148.824219 224.992188 149.980469 222.105469 152.058594 219.429688 C 154.023438 217.355469 156.449219 215.472656 159.363281 213.816406 C 166.1875 209.894531 174.410156 207.929688 184.027344 207.929688 C 193.640625 207.929688 201.980469 209.894531 209.046875 213.816406 C 216 217.675781 219.46875 222.496094 219.46875 228.257812 C 219.46875 233.851562 216 238.601562 209.046875 242.523438 C 205.542969 244.726562 201.597656 246.300781 197.203125 247.253906 C 193.171875 248.203125 188.777344 248.675781 184.027344 248.675781 C 174.410156 248.675781 166.1875 246.628906 159.363281 242.523438 C 152.535156 238.839844 148.945312 234.027344 148.589844 228.082031 Z M 159.894531 181.804688 L 103.621094 213.816406 L 209.046875 274.179688 L 264.609375 241.722656 Z M 144.402344 198.566406 C 147.789062 198.566406 150.632812 199.132812 152.949219 200.261719 C 154.914062 201.6875 155.886719 203.382812 155.886719 205.34375 C 155.886719 207.066406 154.914062 208.675781 152.949219 210.160156 C 150.398438 211.230469 147.664062 211.761719 144.757812 211.761719 C 141.3125 211.761719 138.585938 211.113281 136.566406 209.804688 C 134.25 208.558594 132.972656 207.066406 132.734375 205.34375 C 132.734375 203.382812 134.015625 201.808594 136.566406 200.617188 C 138.585938 199.25 141.195312 198.566406 144.402344 198.566406 Z M 236.875 158.847656 L 213.328125 172.351562 L 160.875 142.390625 L 160.875 142.210938 L 169.871094 137.214844 L 209.9375 160.042969 L 236.832031 144.441406 L 237.097656 147.207031 L 236.386719 149.078125 L 236.386719 154.164062 Z M 243.957031 268.117188 L 212.339844 286.214844 L 87.238281 214.171875 C 87.359375 213.398438 87.414062 212.714844 87.414062 212.125 C 87.414062 211.050781 87.238281 210.070312 86.878906 209.175781 L 149.257812 172.890625 L 156.601562 168.605469 L 160.875 171.058594 L 213.328125 201.242188 L 220.757812 205.519531 L 286.699219 243.414062 L 270.933594 252.605469 C 270.222656 252.421875 269.445312 252.332031 268.617188 252.332031 C 261.792969 252.332031 255.949219 253.761719 251.082031 256.617188 C 246.328125 259.292969 243.957031 262.558594 243.957031 266.425781 C 243.957031 266.953125 243.957031 267.527344 243.957031 268.117188 Z M 176.636719 93.257812 L 149.480469 108.953125 C 149.953125 107.40625 150.726562 105.921875 151.796875 104.496094 C 153.8125 102.355469 156.304688 100.390625 159.273438 98.609375 C 161.464844 97.425781 163.816406 96.40625 166.308594 95.578125 C 169.515625 94.503906 172.957031 93.734375 176.636719 93.257812 Z M 128.820312 120.71875 L 128.820312 123.757812 L 81.898438 96.824219 L 81.898438 96.46875 L 156.601562 52.6875 L 201.925781 78.8125 L 191.957031 84.523438 L 159.808594 66.152344 L 102.640625 98.609375 L 135.050781 117.152344 Z M 152.859375 94.859375 C 150.25 96.050781 147.460938 96.644531 144.492188 96.644531 C 141.046875 96.644531 138.257812 95.933594 136.121094 94.503906 C 133.742188 93.320312 132.441406 91.832031 132.207031 90.046875 C 132.207031 88.144531 133.507812 86.542969 136.121094 85.234375 C 138.257812 83.925781 140.929688 83.269531 144.136719 83.269531 C 147.582031 83.269531 150.488281 83.804688 152.859375 84.878906 C 154.757812 86.425781 155.710938 88.144531 155.710938 90.046875 C 155.710938 91.832031 154.757812 93.441406 152.859375 94.859375 " fill-opacity="1" fill-rule="evenodd"/></g><path fill="#72c64b" d="M 215.816406 245.644531 C 213.265625 246.71875 211.992188 248.175781 211.992188 250.011719 C 212.222656 251.976562 213.5 253.496094 215.816406 254.5625 C 217.898438 256.046875 220.625 256.792969 224.003906 256.792969 C 226.914062 256.792969 229.683594 256.226562 232.289062 255.097656 C 234.308594 253.671875 235.316406 251.976562 235.316406 250.011719 C 235.316406 248.175781 234.308594 246.570312 232.289062 245.199219 C 229.972656 244.007812 227.09375 243.414062 223.652344 243.414062 C 220.507812 243.414062 217.898438 244.160156 215.816406 245.644531 Z M 236.742188 135.96875 C 236.742188 135.851562 236.742188 135.730469 236.742188 135.613281 C 236.742188 133.710938 235.671875 132.109375 233.535156 130.800781 C 231.15625 129.488281 228.25 128.835938 224.8125 128.835938 C 224.6875 128.835938 224.574219 128.835938 224.449219 128.835938 C 221.304688 128.953125 218.726562 129.726562 216.707031 131.15625 C 214.097656 132.226562 212.785156 133.710938 212.785156 135.613281 C 213.144531 137.515625 214.445312 139.0625 216.707031 140.253906 C 218.84375 141.675781 221.667969 142.390625 225.167969 142.390625 C 228.136719 142.390625 230.921875 141.855469 233.535156 140.78125 C 235.554688 139.363281 236.617188 137.753906 236.742188 135.96875 Z M 236.832031 144.441406 L 209.9375 160.042969 L 169.871094 137.214844 L 175.921875 133.648438 C 178.65625 134.011719 181.5 134.183594 184.472656 134.183594 C 189.339844 134.183594 193.792969 133.710938 197.828125 132.757812 C 202.335938 131.808594 206.378906 130.207031 209.9375 127.945312 C 212.191406 126.578125 214.097656 125.179688 215.636719 123.757812 C 218.84375 120.78125 220.445312 117.335938 220.445312 113.414062 C 220.445312 111.628906 220.144531 109.964844 219.554688 108.417969 L 226.765625 104.3125 L 236.429688 109.886719 L 236.386719 110.292969 L 237.097656 117.242188 L 237.007812 125.359375 L 237.097656 133.566406 L 236.386719 140.335938 Z M 159.894531 181.804688 L 264.609375 241.722656 L 209.046875 274.179688 L 103.621094 213.816406 Z M 148.589844 228.082031 C 148.945312 234.027344 152.535156 238.839844 159.363281 242.523438 C 166.1875 246.628906 174.410156 248.675781 184.027344 248.675781 C 188.777344 248.675781 193.171875 248.203125 197.203125 247.253906 C 201.597656 246.300781 205.542969 244.726562 209.046875 242.523438 C 216 238.601562 219.46875 233.851562 219.46875 228.257812 C 219.46875 222.496094 216 217.675781 209.046875 213.816406 C 201.980469 209.894531 193.640625 207.929688 184.027344 207.929688 C 174.410156 207.929688 166.1875 209.894531 159.363281 213.816406 C 156.449219 215.472656 154.023438 217.355469 152.058594 219.429688 C 149.980469 222.105469 148.824219 224.992188 148.589844 228.082031 Z M 144.402344 198.566406 C 141.195312 198.566406 138.585938 199.25 136.566406 200.617188 C 134.015625 201.808594 132.734375 203.382812 132.734375 205.34375 C 132.972656 207.066406 134.25 208.558594 136.566406 209.804688 C 138.585938 211.113281 141.3125 211.761719 144.757812 211.761719 C 147.664062 211.761719 150.398438 211.230469 152.949219 210.160156 C 154.914062 208.675781 155.886719 207.066406 155.886719 205.34375 C 155.886719 203.382812 154.914062 201.6875 152.949219 200.261719 C 150.632812 199.132812 147.789062 198.566406 144.402344 198.566406 Z M 191.957031 84.523438 L 176.636719 93.257812 C 172.957031 93.734375 169.515625 94.503906 166.308594 95.578125 C 163.816406 96.40625 161.464844 97.425781 159.273438 98.609375 C 156.304688 100.390625 153.8125 102.355469 151.796875 104.496094 C 150.726562 105.921875 149.953125 107.40625 149.480469 108.953125 L 135.050781 117.152344 L 102.640625 98.609375 L 159.808594 66.152344 Z M 152.859375 94.859375 C 154.757812 93.441406 155.710938 91.832031 155.710938 90.046875 C 155.710938 88.144531 154.757812 86.425781 152.859375 84.878906 C 150.488281 83.804688 147.582031 83.269531 144.136719 83.269531 C 140.929688 83.269531 138.257812 83.925781 136.121094 85.234375 C 133.507812 86.542969 132.207031 88.144531 132.207031 90.046875 C 132.441406 91.832031 133.742188 93.320312 136.121094 94.503906 C 138.257812 95.933594 141.046875 96.644531 144.492188 96.644531 C 147.460938 96.644531 150.25 96.050781 152.859375 94.859375 " fill-opacity="1" fill-rule="evenodd"/><path fill="#fef6bf" d="M 176.636719 93.257812 L 191.957031 84.523438 L 201.925781 78.8125 L 204.421875 77.207031 L 236.472656 95.355469 L 236.472656 95.445312 L 160.875 139 L 128.820312 120.71875 L 135.050781 117.152344 L 149.480469 108.953125 L 176.636719 93.257812 " fill-opacity="1" fill-rule="evenodd"/><path fill="#ddd180" d="M 128.820312 120.71875 L 160.875 139 L 160.875 171.058594 L 156.601562 168.605469 L 149.257812 172.890625 L 128.820312 161.296875 L 128.820312 120.71875 " fill-opacity="1" fill-rule="evenodd"/><g clip-path="url(#1e077d48aa)"><path fill="#639152" d="M 93.027344 253.851562 L 86.523438 250.011719 C 87.113281 248.648438 87.414062 247.371094 87.414062 246.179688 C 87.414062 245.171875 87.296875 244.25 87.058594 243.414062 C 87.296875 242.585938 87.414062 241.722656 87.414062 240.832031 C 87.414062 239.402344 87.113281 238.066406 86.523438 236.820312 C 87.113281 235.507812 87.414062 234.171875 87.414062 232.804688 C 87.414062 231.558594 87.113281 230.285156 86.523438 228.976562 C 87.113281 227.847656 87.414062 226.621094 87.414062 225.316406 C 87.414062 223.945312 87.113281 222.609375 86.523438 221.304688 C 87.113281 219.933594 87.414062 218.59375 87.414062 217.292969 C 87.414062 216.28125 87.296875 215.417969 87.058594 214.707031 C 87.175781 214.582031 87.238281 214.410156 87.238281 214.171875 L 212.339844 286.214844 L 212.339844 322.773438 L 134.695312 278.015625 L 134.695312 277.835938 C 134.695312 276.824219 134.578125 275.90625 134.34375 275.070312 C 134.578125 274.296875 134.695312 273.433594 134.695312 272.484375 C 134.695312 271.003906 134.34375 269.664062 133.625 268.472656 C 134.34375 266.988281 134.695312 265.535156 134.695312 264.105469 C 134.695312 260.183594 132.324219 256.824219 127.574219 254.027344 C 122.703125 251.351562 116.859375 250.011719 110.027344 250.011719 C 103.324219 250.011719 97.652344 251.292969 93.027344 253.851562 Z M 160.875 142.390625 L 213.328125 172.351562 L 213.328125 201.242188 L 160.875 171.058594 Z M 128.820312 161.117188 L 81.898438 134.183594 L 81.898438 96.824219 L 128.820312 123.757812 L 128.820312 161.117188 " fill-opacity="1" fill-rule="evenodd"/></g><path fill="#d28619" d="M 81.898438 96.824219 L 81.535156 96.644531 C 81.652344 96.53125 81.769531 96.46875 81.898438 96.46875 L 81.898438 96.824219 " fill-opacity="1" fill-rule="evenodd"/><path fill="#988e4b" d="M 219.554688 108.417969 L 175.921875 133.648438 L 169.871094 137.214844 L 160.875 142.210938 L 160.875 139 L 236.472656 95.445312 L 236.386719 96.46875 L 236.5625 98.203125 L 236.5625 98.609375 L 226.765625 104.3125 L 219.554688 108.417969 " fill-opacity="1" fill-rule="evenodd"/><g clip-path="url(#67e86e9d05)"><path fill="#345925" d="M 287.050781 154.164062 L 286.605469 147.207031 L 287.050781 140.335938 L 286.605469 133.566406 L 286.605469 130.222656 L 289.007812 128.835938 L 289.007812 154.832031 L 287.40625 156.121094 Z M 286.699219 256.972656 C 286.460938 256.734375 286.226562 256.617188 285.980469 256.617188 C 281.828125 254.179688 276.8125 252.839844 270.933594 252.605469 L 286.699219 243.414062 Z M 238.390625 195.3125 L 220.757812 205.519531 L 213.328125 201.242188 L 213.328125 172.351562 L 236.875 158.847656 L 237.097656 161.207031 C 235.554688 165.484375 236.089844 169.023438 238.699219 171.816406 L 238.078125 178.238281 C 238.195312 178.53125 238.378906 178.859375 238.613281 179.214844 C 238.667969 179.394531 238.761719 179.578125 238.878906 179.75 C 238.699219 179.988281 238.550781 180.226562 238.433594 180.46875 C 237.25 183.316406 237.363281 185.730469 238.789062 187.6875 L 238.078125 194.644531 C 238.167969 194.867188 238.273438 195.089844 238.390625 195.3125 Z M 212.339844 286.214844 L 243.957031 268.117188 C 244.1875 269.074219 244.546875 269.929688 245.019531 270.703125 C 244.3125 272.128906 243.957031 273.585938 243.957031 275.070312 C 243.957031 275.90625 244.011719 276.679688 244.128906 277.390625 C 244.011719 278.28125 243.957031 279.082031 243.957031 279.800781 C 243.957031 281.285156 244.25 282.621094 244.847656 283.8125 C 244.25 285.058594 243.957031 286.460938 243.957031 288 C 243.957031 288.773438 244.066406 289.636719 244.3125 290.585938 C 244.066406 291.066406 243.957031 291.628906 243.957031 292.285156 C 243.957031 292.519531 243.957031 292.8125 243.957031 293.175781 C 243.957031 294.597656 244.25 295.933594 244.847656 297.1875 C 244.25 298.433594 243.957031 299.773438 243.957031 301.199219 C 243.957031 302.210938 244.128906 303.25 244.484375 304.320312 L 212.519531 322.773438 L 212.339844 322.773438 L 212.339844 286.214844 " fill-opacity="1" fill-rule="evenodd"/></g><g clip-path="url(#d484e316ba)"><path fill="#fbda3c" d="M 286.605469 125.359375 L 286.605469 133.566406 C 280.25 141.214844 272.144531 144.765625 262.292969 144.21875 C 262.113281 144.203125 261.933594 144.1875 261.765625 144.175781 C 255.628906 144.34375 249.800781 142.992188 244.261719 140.113281 C 244.074219 140.015625 243.886719 139.910156 243.683594 139.808594 C 241.132812 138.441406 238.933594 136.359375 237.097656 133.566406 L 237.007812 125.359375 C 240.394531 130.710938 245.402344 134.066406 252.054688 135.433594 C 252.125 135.445312 252.199219 135.460938 252.277344 135.480469 C 259.921875 137.035156 267.796875 136.394531 275.921875 133.566406 C 279.851562 132.320312 283.058594 130.074219 285.535156 126.828125 C 285.910156 126.371094 286.265625 125.875 286.605469 125.359375 Z M 286.425781 103.421875 C 285.0625 106.042969 282.921875 108.0625 280.019531 109.488281 C 274.433594 112.117188 268.660156 113.523438 262.699219 113.726562 C 259.21875 113.824219 255.671875 113.507812 252.054688 112.785156 C 245.882812 111.65625 240.894531 108.535156 237.097656 103.421875 L 236.609375 98.652344 L 236.5625 98.203125 L 236.386719 96.46875 C 236.445312 96.589844 236.5 96.707031 236.5625 96.824219 C 237.078125 97.820312 237.648438 98.761719 238.253906 99.632812 C 240.632812 102.894531 243.746094 105.171875 247.601562 106.453125 C 249.113281 106.914062 250.613281 107.296875 252.101562 107.617188 C 258.667969 108.988281 265.214844 109.050781 271.734375 107.789062 C 279.210938 106.660156 284.320312 102.886719 287.050781 96.46875 Z M 287.050781 110.382812 L 286.605469 117.242188 C 284.792969 119.972656 282.667969 122.15625 280.242188 123.796875 C 277.722656 125.457031 274.890625 126.542969 271.734375 127.050781 C 269.402344 127.617188 267.113281 127.984375 264.882812 128.167969 C 256.511719 128.800781 248.890625 126.675781 241.996094 121.792969 C 240.214844 120.425781 238.585938 118.910156 237.097656 117.242188 L 236.386719 110.292969 C 237.933594 113.921875 240.367188 116.5625 243.683594 118.226562 C 248.414062 120.664062 253.238281 122.0625 258.15625 122.417969 C 259.351562 122.511719 260.554688 122.542969 261.765625 122.503906 C 266.710938 122.871094 271.113281 122.292969 274.984375 120.769531 C 279.875 118.832031 283.894531 115.371094 287.050781 110.382812 Z M 237.097656 161.207031 L 236.875 158.847656 L 236.386719 154.164062 C 237.179688 155.417969 238.023438 156.574219 238.921875 157.640625 C 239.652344 158.46875 240.402344 159.242188 241.195312 159.960938 C 242.914062 157.996094 245.054688 156.476562 247.601562 155.410156 C 246.703125 155.027344 245.828125 154.609375 244.980469 154.164062 C 243.949219 153.640625 242.953125 153.078125 241.996094 152.464844 C 239.617188 151.164062 237.988281 149.40625 237.097656 147.207031 L 236.832031 144.441406 L 236.386719 140.335938 C 237.082031 141.4375 237.820312 142.460938 238.613281 143.414062 C 241.765625 147.175781 245.667969 149.734375 250.320312 151.085938 C 252.324219 151.691406 254.476562 152.0625 256.777344 152.199219 C 257.542969 152.320312 258.289062 152.410156 259.003906 152.464844 C 261.492188 152.171875 263.929688 152.109375 266.300781 152.289062 C 271.113281 151.753906 275.679688 150.328125 280.019531 148.007812 C 283.457031 146.222656 285.808594 143.667969 287.050781 140.335938 L 286.605469 147.207031 C 284.347656 150.714844 281.410156 153.328125 277.792969 155.054688 C 279.039062 155.585938 280.3125 156.183594 281.621094 156.839844 C 282.691406 157.367188 283.636719 157.96875 284.472656 158.621094 C 285.589844 157.3125 286.460938 155.824219 287.050781 154.164062 L 287.40625 156.121094 L 289.007812 154.832031 L 293.460938 151.308594 C 305.507812 146.015625 317.445312 146.195312 329.257812 151.84375 C 335.847656 155.230469 338.007812 160.164062 335.753906 166.648438 C 334.210938 168.90625 332.046875 170.714844 329.257812 172.082031 C 319.28125 177.667969 308.542969 178.503906 297.019531 174.582031 C 293.523438 173.390625 290.761719 171.582031 288.742188 169.140625 C 288.5625 169.851562 288.324219 170.597656 288.035156 171.371094 C 287.496094 172.261719 286.90625 173.09375 286.253906 173.863281 C 286.128906 173.984375 286.035156 174.074219 285.980469 174.136719 C 285.625 174.546875 285.273438 174.9375 284.917969 175.292969 C 282.898438 177.195312 280.492188 178.558594 277.703125 179.394531 C 272.382812 181.003906 267.164062 181.765625 262.03125 181.667969 C 259.21875 181.617188 256.429688 181.304688 253.660156 180.734375 C 249.328125 179.78125 245.585938 177.941406 242.441406 175.203125 C 241.785156 174.609375 241.132812 173.984375 240.476562 173.335938 C 239.886719 172.679688 239.324219 172 238.789062 171.28125 C 237.363281 169.261719 237.25 166.851562 238.433594 164.054688 C 238.550781 163.820312 238.699219 163.554688 238.878906 163.253906 C 238.222656 162.601562 237.632812 161.917969 237.097656 161.207031 Z M 292.304688 297.363281 C 291.234375 299.5625 289.132812 301.519531 285.980469 303.25 C 284.136719 304.195312 282.121094 305.03125 279.929688 305.742188 C 276.484375 306.871094 272.714844 307.441406 268.617188 307.441406 C 261.792969 307.441406 256.003906 306.042969 251.253906 303.25 C 250.898438 303.011719 250.542969 302.832031 250.191406 302.710938 C 249.773438 302.300781 249.382812 302.03125 249.027344 301.910156 C 247.074219 300.363281 245.675781 298.789062 244.847656 297.1875 C 244.25 295.933594 243.957031 294.597656 243.957031 293.175781 C 243.957031 292.8125 243.957031 292.519531 243.957031 292.285156 C 243.957031 291.628906 244.066406 291.066406 244.3125 290.585938 C 245.265625 293.382812 247.574219 295.824219 251.253906 297.898438 C 251.96875 298.371094 252.769531 298.820312 253.660156 299.238281 C 257.871094 301.136719 262.863281 302.09375 268.617188 302.09375 C 270.578125 302.09375 272.449219 301.96875 274.230469 301.730469 C 278.738281 301.136719 282.664062 299.863281 285.980469 297.898438 C 288.652344 296.472656 290.578125 294.832031 291.769531 292.996094 C 292.25 292.285156 292.632812 291.476562 292.929688 290.585938 C 293.160156 291.476562 293.285156 292.339844 293.285156 293.175781 C 293.285156 293.414062 293.285156 293.648438 293.285156 293.886719 Z M 292.304688 283.8125 C 291.234375 286.125 289.132812 288.144531 285.980469 289.875 C 285.089844 290.472656 284.109375 291.003906 283.046875 291.476562 C 280.25 292.605469 277.078125 293.351562 273.515625 293.707031 C 271.914062 293.941406 270.28125 294.066406 268.617188 294.066406 C 266.664062 294.066406 264.757812 293.941406 262.921875 293.707031 C 258.523438 293.113281 254.640625 291.839844 251.253906 289.875 C 248.226562 288.144531 246.09375 286.125 244.847656 283.8125 C 244.25 282.621094 243.957031 281.285156 243.957031 279.800781 C 243.957031 279.082031 244.011719 278.28125 244.128906 277.390625 C 245.078125 280.246094 247.457031 282.769531 251.253906 284.96875 C 256.003906 287.761719 261.792969 289.164062 268.617188 289.164062 C 269.445312 289.164062 270.160156 289.164062 270.753906 289.164062 C 276.75 288.800781 281.828125 287.40625 285.980469 284.96875 C 289.84375 282.769531 292.152344 280.328125 292.929688 277.65625 C 293.160156 278.371094 293.285156 279.082031 293.285156 279.800781 C 293.285156 281.285156 292.957031 282.621094 292.304688 283.8125 Z M 292.125 270.882812 C 291.179688 272.902344 289.367188 274.714844 286.699219 276.316406 C 286.460938 276.316406 286.226562 276.378906 285.980469 276.5 C 281.230469 279.292969 275.441406 280.691406 268.617188 280.691406 C 261.792969 280.691406 256.003906 279.292969 251.253906 276.5 C 248.347656 274.769531 246.265625 272.839844 245.019531 270.703125 C 244.546875 269.929688 244.1875 269.074219 243.957031 268.117188 C 243.957031 267.527344 243.957031 266.953125 243.957031 266.425781 C 243.957031 262.558594 246.328125 259.292969 251.082031 256.617188 C 255.949219 253.761719 261.792969 252.332031 268.617188 252.332031 C 269.445312 252.332031 270.222656 252.421875 270.933594 252.605469 C 276.8125 252.839844 281.828125 254.179688 285.980469 256.617188 C 286.226562 256.617188 286.460938 256.734375 286.699219 256.972656 C 291.085938 259.648438 293.285156 262.796875 293.285156 266.425781 C 293.285156 268.027344 292.902344 269.519531 292.125 270.882812 Z M 238.523438 195.535156 C 240.953125 200.050781 244.546875 203.089844 249.300781 204.628906 C 257.3125 207.066406 265.328125 207.511719 273.339844 205.964844 C 280.820312 204.835938 285.953125 201.0625 288.742188 194.644531 L 288.386719 190.808594 C 291.53125 194.554688 295.894531 196.902344 301.472656 197.855469 C 312.339844 200.289062 322.578125 198.75 332.195312 193.21875 C 334.035156 191.84375 335.457031 189.886719 336.472656 187.332031 L 336.199219 194.109375 C 335.253906 195.238281 334.335938 196.339844 333.445312 197.410156 C 332.136719 198.476562 330.746094 199.339844 329.257812 199.996094 C 322.316406 204.21875 314.621094 205.730469 306.195312 204.542969 C 301.265625 204.0625 296.9375 202.671875 293.195312 200.351562 C 291.769531 199.8125 290.46875 199.367188 289.277344 199.011719 C 287.371094 206.800781 282.066406 211.351562 273.339844 212.652344 C 266.984375 214.136719 260.457031 214.136719 253.75 212.652344 C 247.628906 211.351562 242.621094 208.285156 238.699219 203.472656 C 238.523438 202.761719 238.316406 202.070312 238.078125 201.421875 C 237.660156 199.222656 237.808594 197.257812 238.523438 195.535156 Z M 336.472656 173.511719 L 336.828125 176.628906 L 336.199219 180.199219 C 332.703125 185.546875 327.628906 188.878906 320.980469 190.1875 C 309.632812 192.800781 299.308594 190.777344 289.988281 184.121094 C 289.632812 183.828125 289.277344 183.554688 288.921875 183.316406 C 288.921875 184.683594 288.625 186.175781 288.035156 187.777344 C 287.734375 188.25 287.433594 188.722656 287.144531 189.203125 C 286.605469 189.914062 286.035156 190.570312 285.445312 191.167969 C 285.390625 191.226562 285.335938 191.316406 285.273438 191.433594 C 283.136719 193.453125 280.609375 194.9375 277.703125 195.890625 C 269.445312 198.386719 261.429688 198.804688 253.660156 197.140625 C 249.765625 196.28125 246.351562 194.699219 243.421875 192.417969 C 242.890625 192.027344 242.390625 191.609375 241.90625 191.167969 C 240.777344 190.097656 239.734375 188.941406 238.789062 187.6875 C 237.363281 185.730469 237.25 183.316406 238.433594 180.46875 C 238.550781 180.226562 238.699219 179.988281 238.878906 179.75 C 241.3125 183.910156 244.785156 186.738281 249.300781 188.222656 C 249.605469 188.3125 249.910156 188.402344 250.230469 188.496094 C 257.925781 190.632812 265.632812 190.988281 273.339844 189.558594 C 280.339844 188.496094 285.300781 185.101562 288.207031 179.394531 C 288.386719 178.976562 288.5625 178.59375 288.742188 178.238281 L 288.652344 177.613281 C 291.148438 180.585938 294.441406 182.726562 298.539062 184.035156 C 305.953125 185.9375 313.4375 186.203125 320.980469 184.835938 C 327.921875 183.589844 333.085938 179.8125 336.472656 173.511719 Z M 133.988281 281.667969 C 132.851562 283.867188 130.71875 285.917969 127.574219 287.824219 C 122.703125 290.675781 116.859375 292.101562 110.027344 292.101562 C 103.324219 292.101562 97.535156 290.675781 92.664062 287.824219 C 91.484375 287.109375 90.4375 286.398438 89.550781 285.679688 C 88.003906 284.316406 86.851562 282.976562 86.078125 281.667969 C 85.960938 281.257812 85.839844 280.8125 85.722656 280.328125 C 85.484375 279.5 85.367188 278.671875 85.367188 277.835938 C 85.367188 276.824219 85.542969 275.90625 85.902344 275.070312 C 86.140625 276.378906 86.757812 277.65625 87.769531 278.910156 C 89.074219 280.09375 90.710938 281.3125 92.664062 282.558594 C 93.320312 282.796875 93.882812 283.09375 94.363281 283.449219 C 98.871094 285.652344 104.09375 286.753906 110.027344 286.753906 C 116.859375 286.753906 122.703125 285.359375 127.574219 282.558594 C 130.363281 280.957031 132.261719 279.171875 133.269531 277.210938 C 133.742188 276.5 134.105469 275.789062 134.34375 275.070312 C 134.578125 275.90625 134.695312 276.824219 134.695312 277.835938 L 134.695312 278.015625 C 134.695312 279.082031 134.460938 280.300781 133.988281 281.667969 Z M 134.34375 288.179688 C 134.578125 289.074219 134.695312 289.992188 134.695312 290.945312 C 134.695312 292.195312 134.460938 293.46875 133.988281 294.777344 C 132.851562 296.980469 130.71875 299 127.574219 300.839844 C 122.703125 303.640625 116.859375 305.03125 110.027344 305.03125 C 103.324219 305.03125 97.535156 303.640625 92.664062 300.839844 C 91.246094 300.007812 89.964844 299.089844 88.839844 298.078125 C 88.957031 298.554688 89.019531 299 89.019531 299.417969 C 89.019531 301.074219 88.601562 302.59375 87.769531 303.960938 C 87.769531 304.085938 87.710938 304.195312 87.59375 304.320312 C 86.46875 306.160156 84.503906 307.855469 81.714844 309.398438 C 76.964844 312.257812 71.121094 313.683594 64.171875 313.683594 C 57.464844 313.683594 51.738281 312.257812 46.988281 309.398438 C 43.960938 307.734375 41.855469 305.867188 40.664062 303.785156 C 40.011719 302.414062 39.683594 300.964844 39.683594 299.417969 C 39.683594 296.980469 40.664062 294.777344 42.625 292.8125 C 43.871094 291.566406 45.261719 290.472656 46.808594 289.519531 C 49.542969 287.910156 52.539062 286.808594 55.800781 286.214844 C 58.472656 285.625 61.261719 285.324219 64.171875 285.324219 C 66.722656 285.324219 69.105469 285.507812 71.292969 285.859375 C 73.257812 286.097656 75.09375 286.570312 76.820312 287.289062 C 78.535156 287.882812 80.171875 288.625 81.714844 289.519531 C 83.199219 290.347656 84.414062 291.265625 85.367188 292.285156 C 85.367188 291.746094 85.367188 291.300781 85.367188 290.945312 C 85.367188 289.875 85.542969 288.953125 85.902344 288.179688 C 86.792969 290.917969 89.046875 293.292969 92.664062 295.3125 C 97.535156 298.050781 103.324219 299.417969 110.027344 299.417969 C 116.859375 299.417969 122.703125 298.050781 127.574219 295.3125 C 131.136719 293.292969 133.390625 290.917969 134.34375 288.179688 Z M 39.15625 263.386719 C 38.4375 262.023438 38.085938 260.65625 38.085938 259.292969 C 38.085938 258.335938 38.203125 257.445312 38.4375 256.617188 C 39.390625 259.292969 41.703125 261.730469 45.390625 263.925781 C 50.25 266.71875 56.039062 268.117188 62.753906 268.117188 C 69.578125 268.117188 75.421875 266.71875 80.289062 263.925781 C 84.03125 261.730469 86.285156 259.292969 87.058594 256.617188 C 87.175781 257.089844 87.238281 257.683594 87.238281 258.398438 C 88.539062 256.792969 90.292969 255.335938 92.492188 254.027344 C 92.726562 254.027344 92.902344 253.96875 93.027344 253.851562 C 97.652344 251.292969 103.324219 250.011719 110.027344 250.011719 C 116.859375 250.011719 122.703125 251.351562 127.574219 254.027344 C 132.324219 256.824219 134.695312 260.183594 134.695312 264.105469 C 134.695312 265.535156 134.34375 266.988281 133.625 268.472656 C 132.5 270.4375 130.542969 272.25 127.753906 273.914062 L 127.574219 274.179688 C 123.175781 276.617188 117.960938 278.015625 111.898438 278.371094 C 111.246094 278.371094 110.628906 278.371094 110.027344 278.371094 C 103.324219 278.371094 97.535156 276.972656 92.664062 274.179688 C 92.546875 274.003906 92.429688 273.851562 92.3125 273.734375 C 90.113281 272.429688 88.421875 271.03125 87.238281 269.546875 C 86.996094 269.074219 86.757812 268.65625 86.523438 268.292969 C 85.988281 267.164062 85.605469 266.0625 85.367188 264.996094 C 84.296875 266.480469 82.605469 267.882812 80.289062 269.183594 C 75.421875 271.984375 69.578125 273.378906 62.753906 273.378906 C 56.039062 273.378906 50.25 271.984375 45.390625 269.183594 C 42.472656 267.34375 40.402344 265.410156 39.15625 263.386719 Z M 38.4375 243.414062 C 39.15625 245.5 40.546875 247.308594 42.625 248.855469 C 43.515625 249.628906 44.4375 250.25 45.390625 250.730469 C 50.25 253.523438 56.039062 254.917969 62.753906 254.917969 C 69.578125 254.917969 75.421875 253.523438 80.289062 250.730469 C 81.480469 250.011719 82.578125 249.210938 83.585938 248.320312 C 85.25 246.890625 86.40625 245.261719 87.058594 243.414062 C 87.296875 244.25 87.414062 245.171875 87.414062 246.179688 C 87.414062 247.371094 87.113281 248.648438 86.523438 250.011719 C 85.394531 252.214844 83.316406 254.207031 80.289062 255.988281 C 75.421875 258.847656 69.578125 260.265625 62.753906 260.265625 C 56.039062 260.265625 50.25 258.847656 45.390625 255.988281 C 42.71875 254.445312 40.8125 252.75 39.683594 250.90625 C 39.449219 250.550781 39.273438 250.25 39.15625 250.011719 C 38.4375 248.648438 38.085938 247.371094 38.085938 246.179688 C 38.085938 245.171875 38.203125 244.25 38.4375 243.414062 Z M 38.976562 228.976562 C 39.984375 231.414062 42.117188 233.550781 45.390625 235.390625 C 50.25 238.183594 56.039062 239.585938 62.753906 239.585938 C 69.578125 239.585938 75.421875 238.183594 80.289062 235.390625 C 81.125 234.855469 81.898438 234.296875 82.605469 233.699219 C 84.441406 232.269531 85.75 230.695312 86.523438 228.976562 C 87.113281 230.285156 87.414062 231.558594 87.414062 232.804688 C 87.414062 234.171875 87.113281 235.507812 86.523438 236.820312 C 85.632812 238.421875 84.324219 239.941406 82.605469 241.367188 C 81.898438 241.902344 81.125 242.40625 80.289062 242.878906 C 78.335938 243.953125 76.136719 244.871094 73.703125 245.644531 C 70.4375 246.480469 66.785156 246.890625 62.753906 246.890625 C 58.828125 246.890625 55.183594 246.480469 51.796875 245.644531 C 49.480469 244.871094 47.34375 243.953125 45.390625 242.878906 C 42.238281 241.039062 40.164062 239.019531 39.15625 236.820312 C 38.4375 235.507812 38.085938 234.171875 38.085938 232.804688 C 38.085938 231.441406 38.382812 230.160156 38.976562 228.976562 Z M 87.058594 214.707031 C 87.296875 215.417969 87.414062 216.28125 87.414062 217.292969 C 87.414062 218.59375 87.113281 219.933594 86.523438 221.304688 C 85.632812 222.851562 84.324219 224.308594 82.605469 225.671875 C 81.898438 226.273438 81.125 226.800781 80.289062 227.28125 C 75.421875 230.132812 69.578125 231.558594 62.753906 231.558594 C 56.039062 231.558594 50.25 230.132812 45.390625 227.28125 C 42.355469 225.5 40.28125 223.5 39.15625 221.304688 C 38.4375 219.933594 38.085938 218.59375 38.085938 217.292969 C 38.085938 216.28125 38.203125 215.363281 38.4375 214.527344 C 39.273438 217.4375 41.582031 219.996094 45.390625 222.195312 C 50.25 224.871094 56.039062 226.210938 62.753906 226.210938 C 69.578125 226.210938 75.421875 224.871094 80.289062 222.195312 C 81.125 221.714844 81.898438 221.1875 82.605469 220.59375 C 84.921875 218.867188 86.40625 216.910156 87.058594 214.707031 Z M 86.257812 194.734375 C 85.1875 196.8125 83.199219 198.714844 80.289062 200.441406 C 75.421875 203.234375 69.578125 204.628906 62.753906 204.628906 C 56.039062 204.628906 50.25 203.234375 45.390625 200.441406 C 42.472656 198.714844 40.402344 196.75 39.15625 194.554688 C 38.4375 193.363281 38.085938 192.027344 38.085938 190.542969 C 38.085938 186.675781 40.457031 183.316406 45.207031 180.46875 C 50.078125 177.667969 55.921875 176.277344 62.753906 176.277344 C 69.578125 176.277344 75.421875 177.667969 80.289062 180.46875 C 85.042969 183.316406 87.414062 186.675781 87.414062 190.542969 C 87.414062 192.027344 87.03125 193.425781 86.257812 194.734375 Z M 87.058594 201.332031 C 87.296875 202.042969 87.414062 202.84375 87.414062 203.734375 C 87.414062 205.164062 87.03125 206.558594 86.257812 207.929688 C 85.902344 208.882812 85.25 209.804688 84.296875 210.695312 C 83.941406 211.050781 83.523438 211.40625 83.050781 211.761719 C 82.933594 211.878906 82.789062 212.003906 82.605469 212.125 C 81.898438 212.714844 81.125 213.28125 80.289062 213.816406 C 75.421875 216.492188 69.578125 217.828125 62.753906 217.828125 C 56.039062 217.828125 50.25 216.492188 45.390625 213.816406 C 42.472656 211.96875 40.402344 210.011719 39.15625 207.929688 C 38.4375 206.558594 38.085938 205.164062 38.085938 203.734375 C 38.085938 202.84375 38.203125 202.042969 38.4375 201.332031 C 39.273438 204.125 41.582031 206.683594 45.390625 209.003906 C 50.25 211.679688 56.039062 213.015625 62.753906 213.015625 C 69.578125 213.015625 75.421875 211.679688 80.289062 209.003906 C 84.03125 206.683594 86.285156 204.125 87.058594 201.332031 Z M 286.425781 89.601562 C 283.9375 93.585938 280.492188 96.289062 276.097656 97.71875 C 267.78125 100.210938 259.769531 100.628906 252.054688 98.964844 C 245.882812 97.660156 240.894531 94.503906 237.097656 89.511719 C 235.726562 87.554688 235.644531 85.144531 236.832031 82.292969 C 239.144531 77.773438 242.703125 74.6875 247.519531 73.015625 C 258.621094 69.039062 269.417969 69.71875 279.929688 75.070312 C 286.574219 78.398438 288.742188 83.242188 286.425781 89.601562 " fill-opacity="1" fill-rule="evenodd"/></g><g clip-path="url(#d0ef94effd)"><path fill="#f78f2c" d="M 286.425781 103.421875 L 286.871094 104.761719 L 287.40625 109.84375 L 287.050781 110.382812 C 283.894531 115.371094 279.875 118.832031 274.984375 120.769531 C 271.113281 122.292969 266.710938 122.871094 261.765625 122.503906 C 260.554688 122.542969 259.351562 122.511719 258.15625 122.417969 C 253.238281 122.0625 248.414062 120.664062 243.683594 118.226562 C 240.367188 116.5625 237.933594 113.921875 236.386719 110.292969 L 237.097656 103.421875 C 240.894531 108.535156 245.882812 111.65625 252.054688 112.785156 C 255.671875 113.507812 259.21875 113.824219 262.699219 113.726562 C 268.660156 113.523438 274.433594 112.117188 280.019531 109.488281 C 282.921875 108.0625 285.0625 106.042969 286.425781 103.421875 Z M 236.386719 154.164062 L 236.386719 149.078125 L 237.097656 147.207031 C 237.988281 149.40625 239.617188 151.164062 241.996094 152.464844 C 242.953125 153.078125 243.949219 153.640625 244.980469 154.164062 C 245.828125 154.609375 246.703125 155.027344 247.601562 155.410156 C 245.054688 156.476562 242.914062 157.996094 241.195312 159.960938 C 240.402344 159.242188 239.652344 158.46875 238.921875 157.640625 C 238.023438 156.574219 237.179688 155.417969 236.386719 154.164062 Z M 286.605469 125.359375 C 286.265625 125.875 285.910156 126.371094 285.535156 126.828125 C 283.058594 130.074219 279.851562 132.320312 275.921875 133.566406 C 267.796875 136.394531 259.921875 137.035156 252.277344 135.480469 C 252.199219 135.460938 252.125 135.445312 252.054688 135.433594 C 245.402344 134.066406 240.394531 130.710938 237.007812 125.359375 L 237.097656 117.242188 C 238.585938 118.910156 240.214844 120.425781 241.996094 121.792969 C 248.890625 126.675781 256.511719 128.800781 264.882812 128.167969 C 267.113281 127.984375 269.402344 127.617188 271.734375 127.050781 C 274.890625 126.542969 277.722656 125.457031 280.242188 123.796875 C 282.667969 122.15625 284.792969 119.972656 286.605469 117.242188 Z M 286.605469 147.207031 L 287.050781 154.164062 C 286.460938 155.824219 285.589844 157.3125 284.472656 158.621094 C 283.636719 157.96875 282.691406 157.367188 281.621094 156.839844 C 280.3125 156.183594 279.039062 155.585938 277.792969 155.054688 C 281.410156 153.328125 284.347656 150.714844 286.605469 147.207031 Z M 286.605469 133.566406 L 287.050781 140.335938 C 285.808594 143.667969 283.457031 146.222656 280.019531 148.007812 C 275.679688 150.328125 271.113281 151.753906 266.300781 152.289062 C 263.929688 152.109375 261.492188 152.171875 259.003906 152.464844 C 258.289062 152.410156 257.542969 152.320312 256.777344 152.199219 C 254.476562 152.0625 252.324219 151.691406 250.320312 151.085938 C 245.667969 149.734375 241.765625 147.175781 238.613281 143.414062 C 237.820312 142.460938 237.082031 141.4375 236.386719 140.335938 L 237.097656 133.566406 C 238.933594 136.359375 241.132812 138.441406 243.683594 139.808594 C 243.886719 139.910156 244.074219 140.015625 244.261719 140.113281 C 249.800781 142.992188 255.628906 144.34375 261.765625 144.175781 C 261.933594 144.1875 262.113281 144.203125 262.292969 144.21875 C 272.144531 144.765625 280.25 141.214844 286.605469 133.566406 Z M 244.847656 297.1875 C 245.675781 298.789062 247.074219 300.363281 249.027344 301.910156 C 249.382812 302.03125 249.773438 302.300781 250.191406 302.710938 C 250.542969 302.832031 250.898438 303.011719 251.253906 303.25 C 256.003906 306.042969 261.792969 307.441406 268.617188 307.441406 C 272.714844 307.441406 276.484375 306.871094 279.929688 305.742188 C 282.121094 305.03125 284.136719 304.195312 285.980469 303.25 C 289.132812 301.519531 291.234375 299.5625 292.304688 297.363281 C 294.140625 302.121094 293.140625 306.070312 289.277344 309.226562 C 284.527344 312.792969 279.273438 314.8125 273.515625 315.285156 C 265.382812 316.414062 257.90625 315.140625 251.082031 311.457031 C 248.046875 309.609375 245.847656 307.234375 244.484375 304.320312 C 244.128906 303.25 243.957031 302.210938 243.957031 301.199219 C 243.957031 299.773438 244.25 298.433594 244.847656 297.1875 Z M 244.3125 290.585938 C 244.066406 289.636719 243.957031 288.773438 243.957031 288 C 243.957031 286.460938 244.25 285.058594 244.847656 283.8125 C 246.09375 286.125 248.226562 288.144531 251.253906 289.875 C 254.640625 291.839844 258.523438 293.113281 262.921875 293.707031 C 264.757812 293.941406 266.664062 294.066406 268.617188 294.066406 C 270.28125 294.066406 271.914062 293.941406 273.515625 293.707031 C 277.078125 293.351562 280.25 292.605469 283.046875 291.476562 C 284.109375 291.003906 285.089844 290.472656 285.980469 289.875 C 289.132812 288.144531 291.234375 286.125 292.304688 283.8125 C 292.957031 285.179688 293.285156 286.570312 293.285156 288 C 293.285156 288.890625 293.160156 289.753906 292.929688 290.585938 C 292.632812 291.476562 292.25 292.285156 291.769531 292.996094 C 290.578125 294.832031 288.652344 296.472656 285.980469 297.898438 C 282.664062 299.863281 278.738281 301.136719 274.230469 301.730469 C 272.449219 301.96875 270.578125 302.09375 268.617188 302.09375 C 262.863281 302.09375 257.871094 301.136719 253.660156 299.238281 C 252.769531 298.820312 251.96875 298.371094 251.253906 297.898438 C 247.574219 295.824219 245.265625 293.382812 244.3125 290.585938 Z M 244.128906 277.390625 C 244.011719 276.679688 243.957031 275.90625 243.957031 275.070312 C 243.957031 273.585938 244.3125 272.128906 245.019531 270.703125 C 246.265625 272.839844 248.347656 274.769531 251.253906 276.5 C 256.003906 279.292969 261.792969 280.691406 268.617188 280.691406 C 275.441406 280.691406 281.230469 279.292969 285.980469 276.5 C 286.226562 276.378906 286.460938 276.316406 286.699219 276.316406 C 289.367188 274.714844 291.179688 272.902344 292.125 270.882812 C 292.902344 272.195312 293.285156 273.585938 293.285156 275.070312 C 293.285156 275.90625 293.160156 276.761719 292.929688 277.65625 C 292.152344 280.328125 289.84375 282.769531 285.980469 284.96875 C 281.828125 287.40625 276.75 288.800781 270.753906 289.164062 C 270.160156 289.164062 269.445312 289.164062 268.617188 289.164062 C 261.792969 289.164062 256.003906 287.761719 251.253906 284.96875 C 247.457031 282.769531 245.078125 280.246094 244.128906 277.390625 Z M 238.699219 203.472656 C 242.621094 208.285156 247.628906 211.351562 253.75 212.652344 C 260.457031 214.136719 266.984375 214.136719 273.339844 212.652344 C 282.066406 211.351562 287.371094 206.800781 289.277344 199.011719 C 290.46875 199.367188 291.769531 199.8125 293.195312 200.351562 C 296.9375 202.671875 301.265625 204.0625 306.195312 204.542969 C 314.621094 205.730469 322.316406 204.21875 329.257812 199.996094 C 330.746094 199.339844 332.136719 198.476562 333.445312 197.410156 C 334.335938 196.339844 335.253906 195.238281 336.199219 194.109375 C 337.328125 197.4375 336.855469 200.558594 334.78125 203.472656 C 331.394531 207.929688 326.796875 210.632812 320.980469 211.585938 C 317.648438 211.878906 314.328125 212.242188 311.003906 212.652344 C 302.699219 213.132812 295.210938 210.632812 288.5625 205.164062 C 289.6875 211.40625 287.433594 216.019531 281.800781 218.984375 C 274.441406 222.378906 266.691406 223.597656 258.558594 222.644531 C 250.84375 222.105469 244.695312 219.042969 240.125 213.460938 C 237.632812 210.488281 237.152344 207.15625 238.699219 203.472656 Z M 238.390625 195.3125 C 238.273438 195.089844 238.167969 194.867188 238.078125 194.644531 L 238.789062 187.6875 C 239.734375 188.941406 240.777344 190.097656 241.90625 191.167969 C 242.390625 191.609375 242.890625 192.027344 243.421875 192.417969 C 246.351562 194.699219 249.765625 196.28125 253.660156 197.140625 C 261.429688 198.804688 269.445312 198.386719 277.703125 195.890625 C 280.609375 194.9375 283.136719 193.453125 285.273438 191.433594 C 285.335938 191.316406 285.390625 191.226562 285.445312 191.167969 C 286.035156 190.570312 286.605469 189.914062 287.144531 189.203125 C 287.433594 188.722656 287.734375 188.25 288.035156 187.777344 C 288.625 186.175781 288.921875 184.683594 288.921875 183.316406 C 289.277344 183.554688 289.632812 183.828125 289.988281 184.121094 C 299.308594 190.777344 309.632812 192.800781 320.980469 190.1875 C 327.628906 188.878906 332.703125 185.546875 336.199219 180.199219 L 336.472656 187.332031 C 335.457031 189.886719 334.035156 191.84375 332.195312 193.21875 C 322.578125 198.75 312.339844 200.289062 301.472656 197.855469 C 295.894531 196.902344 291.53125 194.554688 288.386719 190.808594 L 288.742188 194.644531 C 285.953125 201.0625 280.820312 204.835938 273.339844 205.964844 C 265.328125 207.511719 257.3125 207.066406 249.300781 204.628906 C 244.546875 203.089844 240.953125 200.050781 238.523438 195.535156 C 238.480469 195.46875 238.441406 195.390625 238.390625 195.3125 Z M 237.097656 161.207031 C 237.632812 161.917969 238.222656 162.601562 238.878906 163.253906 C 238.699219 163.554688 238.550781 163.820312 238.433594 164.054688 C 237.25 166.851562 237.363281 169.261719 238.789062 171.28125 C 239.324219 172 239.886719 172.679688 240.476562 173.335938 C 241.132812 173.984375 241.785156 174.609375 242.441406 175.203125 C 245.585938 177.941406 249.328125 179.78125 253.660156 180.734375 C 256.429688 181.304688 259.21875 181.617188 262.03125 181.667969 C 267.164062 181.765625 272.382812 181.003906 277.703125 179.394531 C 280.492188 178.558594 282.898438 177.195312 284.917969 175.292969 C 285.273438 174.9375 285.625 174.546875 285.980469 174.136719 C 286.035156 174.074219 286.128906 173.984375 286.253906 173.863281 C 286.90625 173.09375 287.496094 172.261719 288.035156 171.371094 C 288.324219 170.597656 288.5625 169.851562 288.742188 169.140625 C 290.761719 171.582031 293.523438 173.390625 297.019531 174.582031 C 308.542969 178.503906 319.28125 177.667969 329.257812 172.082031 C 332.046875 170.714844 334.210938 168.90625 335.753906 166.648438 L 336.472656 173.511719 C 333.085938 179.8125 327.921875 183.589844 320.980469 184.835938 C 313.4375 186.203125 305.953125 185.9375 298.539062 184.035156 C 294.441406 182.726562 291.148438 180.585938 288.652344 177.613281 L 288.742188 178.238281 C 288.5625 178.59375 288.386719 178.976562 288.207031 179.394531 C 285.300781 185.101562 280.339844 188.496094 273.339844 189.558594 C 265.632812 190.988281 257.925781 190.632812 250.230469 188.496094 C 249.910156 188.402344 249.605469 188.3125 249.300781 188.222656 C 244.785156 186.738281 241.3125 183.910156 238.878906 179.75 C 238.761719 179.578125 238.667969 179.394531 238.613281 179.214844 C 238.378906 178.859375 238.195312 178.53125 238.078125 178.238281 L 238.699219 171.816406 C 236.089844 169.023438 235.554688 165.484375 237.097656 161.207031 Z M 40.664062 303.785156 C 41.855469 305.867188 43.960938 307.734375 46.988281 309.398438 C 51.738281 312.257812 57.464844 313.683594 64.171875 313.683594 C 71.121094 313.683594 76.964844 312.257812 81.714844 309.398438 C 84.503906 307.855469 86.46875 306.160156 87.59375 304.320312 C 87.710938 304.195312 87.769531 304.085938 87.769531 303.960938 C 88.601562 302.59375 89.019531 301.074219 89.019531 299.417969 C 89.019531 299 88.957031 298.554688 88.839844 298.078125 C 89.964844 299.089844 91.246094 300.007812 92.664062 300.839844 C 97.535156 303.640625 103.324219 305.03125 110.027344 305.03125 C 116.859375 305.03125 122.703125 303.640625 127.574219 300.839844 C 130.71875 299 132.851562 296.980469 133.988281 294.777344 C 134.460938 296.023438 134.695312 297.242188 134.695312 298.433594 C 134.695312 302.355469 132.324219 305.714844 127.574219 308.507812 C 122.703125 311.183594 116.859375 312.519531 110.027344 312.519531 C 103.324219 312.519531 97.535156 311.183594 92.664062 308.507812 C 91.121094 307.441406 89.730469 306.398438 88.484375 305.386719 C 88.839844 306.277344 89.019531 307.207031 89.019531 308.152344 C 89.019531 312.074219 86.585938 315.433594 81.714844 318.226562 C 76.964844 321.027344 71.121094 322.421875 64.171875 322.421875 C 57.464844 322.421875 51.738281 321.027344 46.988281 318.226562 C 42.117188 315.433594 39.683594 312.074219 39.683594 308.152344 C 39.683594 306.667969 40.011719 305.214844 40.664062 303.785156 Z M 133.988281 281.667969 C 134.460938 282.859375 134.695312 284.078125 134.695312 285.324219 C 134.695312 286.277344 134.578125 287.226562 134.34375 288.179688 C 133.390625 290.917969 131.136719 293.292969 127.574219 295.3125 C 122.703125 298.050781 116.859375 299.417969 110.027344 299.417969 C 103.324219 299.417969 97.535156 298.050781 92.664062 295.3125 C 89.046875 293.292969 86.792969 290.917969 85.902344 288.179688 C 85.542969 287.226562 85.367188 286.277344 85.367188 285.324219 C 85.367188 283.960938 85.605469 282.742188 86.078125 281.667969 C 86.851562 282.976562 88.003906 284.316406 89.550781 285.679688 C 90.4375 286.398438 91.484375 287.109375 92.664062 287.824219 C 97.535156 290.675781 103.324219 292.101562 110.027344 292.101562 C 116.859375 292.101562 122.703125 290.675781 127.574219 287.824219 C 130.71875 285.917969 132.851562 283.867188 133.988281 281.667969 Z M 134.34375 275.070312 C 134.105469 275.789062 133.742188 276.5 133.269531 277.210938 C 132.261719 279.171875 130.363281 280.957031 127.574219 282.558594 C 122.703125 285.359375 116.859375 286.753906 110.027344 286.753906 C 104.09375 286.753906 98.871094 285.652344 94.363281 283.449219 C 93.882812 283.09375 93.320312 282.796875 92.664062 282.558594 C 90.710938 281.3125 89.074219 280.09375 87.769531 278.910156 C 86.757812 277.65625 86.140625 276.378906 85.902344 275.070312 C 85.660156 274.597656 85.484375 274.03125 85.367188 273.378906 C 84.179688 274.980469 82.488281 276.40625 80.289062 277.65625 C 75.421875 280.457031 69.578125 281.847656 62.753906 281.847656 C 56.039062 281.847656 50.25 280.457031 45.390625 277.65625 C 40.636719 274.925781 38.203125 271.621094 38.085938 267.761719 C 38.085938 266.152344 38.4375 264.699219 39.15625 263.386719 C 40.402344 265.410156 42.472656 267.34375 45.390625 269.183594 C 50.25 271.984375 56.039062 273.378906 62.753906 273.378906 C 69.578125 273.378906 75.421875 271.984375 80.289062 269.183594 C 82.605469 267.882812 84.296875 266.480469 85.367188 264.996094 C 85.605469 266.0625 85.988281 267.164062 86.523438 268.292969 C 86.757812 268.65625 86.996094 269.074219 87.238281 269.546875 C 88.421875 271.03125 90.113281 272.429688 92.3125 273.734375 C 92.429688 273.851562 92.546875 274.003906 92.664062 274.179688 C 97.535156 276.972656 103.324219 278.371094 110.027344 278.371094 C 110.628906 278.371094 111.246094 278.371094 111.898438 278.371094 C 117.960938 278.015625 123.175781 276.617188 127.574219 274.179688 L 127.753906 273.914062 C 130.542969 272.25 132.5 270.4375 133.625 268.472656 C 134.34375 269.664062 134.695312 271.003906 134.695312 272.484375 C 134.695312 273.433594 134.578125 274.296875 134.34375 275.070312 Z M 86.523438 250.011719 C 87.113281 251.203125 87.414062 252.542969 87.414062 254.027344 C 87.414062 254.863281 87.296875 255.726562 87.058594 256.617188 C 86.285156 259.292969 84.03125 261.730469 80.289062 263.925781 C 75.421875 266.71875 69.578125 268.117188 62.753906 268.117188 C 56.039062 268.117188 50.25 266.71875 45.390625 263.925781 C 41.703125 261.730469 39.390625 259.292969 38.4375 256.617188 C 38.203125 255.726562 38.085938 254.863281 38.085938 254.027344 C 38.085938 253.195312 38.203125 252.394531 38.4375 251.621094 C 38.558594 251.140625 38.792969 250.613281 39.15625 250.011719 C 39.273438 250.25 39.449219 250.550781 39.683594 250.90625 C 40.8125 252.75 42.71875 254.445312 45.390625 255.988281 C 50.25 258.847656 56.039062 260.265625 62.753906 260.265625 C 69.578125 260.265625 75.421875 258.847656 80.289062 255.988281 C 83.316406 254.207031 85.394531 252.214844 86.523438 250.011719 Z M 86.523438 236.820312 C 87.113281 238.066406 87.414062 239.402344 87.414062 240.832031 C 87.414062 241.722656 87.296875 242.585938 87.058594 243.414062 C 86.40625 245.261719 85.25 246.890625 83.585938 248.320312 C 82.578125 249.210938 81.480469 250.011719 80.289062 250.730469 C 75.421875 253.523438 69.578125 254.917969 62.753906 254.917969 C 56.039062 254.917969 50.25 253.523438 45.390625 250.730469 C 44.4375 250.25 43.515625 249.628906 42.625 248.855469 C 40.546875 247.308594 39.15625 245.5 38.4375 243.414062 C 38.203125 242.46875 38.085938 241.605469 38.085938 240.832031 C 38.085938 239.402344 38.4375 238.066406 39.15625 236.820312 C 40.164062 239.019531 42.238281 241.039062 45.390625 242.878906 C 47.34375 243.953125 49.480469 244.871094 51.796875 245.644531 C 55.183594 246.480469 58.828125 246.890625 62.753906 246.890625 C 66.785156 246.890625 70.4375 246.480469 73.703125 245.644531 C 76.136719 244.871094 78.335938 243.953125 80.289062 242.878906 C 81.125 242.40625 81.898438 241.902344 82.605469 241.367188 C 84.324219 239.941406 85.632812 238.421875 86.523438 236.820312 Z M 86.523438 228.976562 C 85.75 230.695312 84.441406 232.269531 82.605469 233.699219 C 81.898438 234.296875 81.125 234.855469 80.289062 235.390625 C 75.421875 238.183594 69.578125 239.585938 62.753906 239.585938 C 56.039062 239.585938 50.25 238.183594 45.390625 235.390625 C 42.117188 233.550781 39.984375 231.414062 38.976562 228.976562 C 38.382812 227.847656 38.085938 226.621094 38.085938 225.316406 C 38.085938 223.832031 38.4375 222.496094 39.15625 221.304688 C 40.28125 223.5 42.355469 225.5 45.390625 227.28125 C 50.25 230.132812 56.039062 231.558594 62.753906 231.558594 C 69.578125 231.558594 75.421875 230.132812 80.289062 227.28125 C 81.125 226.800781 81.898438 226.273438 82.605469 225.671875 C 84.324219 224.308594 85.632812 222.851562 86.523438 221.304688 C 87.113281 222.609375 87.414062 223.945312 87.414062 225.316406 C 87.414062 226.621094 87.113281 227.847656 86.523438 228.976562 Z M 39.15625 207.929688 C 40.402344 210.011719 42.472656 211.96875 45.390625 213.816406 C 50.25 216.492188 56.039062 217.828125 62.753906 217.828125 C 69.578125 217.828125 75.421875 216.492188 80.289062 213.816406 C 81.125 213.28125 81.898438 212.714844 82.605469 212.125 C 82.789062 212.003906 82.933594 211.878906 83.050781 211.761719 C 83.523438 211.40625 83.941406 211.050781 84.296875 210.695312 C 85.25 209.804688 85.902344 208.882812 86.257812 207.929688 C 86.433594 208.285156 86.640625 208.703125 86.878906 209.175781 C 87.238281 210.070312 87.414062 211.050781 87.414062 212.125 C 87.414062 212.714844 87.359375 213.398438 87.238281 214.171875 C 87.238281 214.410156 87.175781 214.582031 87.058594 214.707031 C 86.40625 216.910156 84.921875 218.867188 82.605469 220.59375 C 81.898438 221.1875 81.125 221.714844 80.289062 222.195312 C 75.421875 224.871094 69.578125 226.210938 62.753906 226.210938 C 56.039062 226.210938 50.25 224.871094 45.390625 222.195312 C 41.582031 219.996094 39.273438 217.4375 38.4375 214.527344 C 38.203125 213.816406 38.085938 213.015625 38.085938 212.125 C 38.085938 210.570312 38.4375 209.175781 39.15625 207.929688 Z M 86.257812 194.734375 C 87.03125 195.984375 87.414062 197.410156 87.414062 199.011719 C 87.414062 199.84375 87.296875 200.617188 87.058594 201.332031 C 86.285156 204.125 84.03125 206.683594 80.289062 209.003906 C 75.421875 211.679688 69.578125 213.015625 62.753906 213.015625 C 56.039062 213.015625 50.25 211.679688 45.390625 209.003906 C 41.582031 206.683594 39.273438 204.125 38.4375 201.332031 C 38.203125 200.496094 38.085938 199.722656 38.085938 199.011719 C 38.085938 197.410156 38.4375 195.921875 39.15625 194.554688 C 40.402344 196.75 42.472656 198.714844 45.390625 200.441406 C 50.25 203.234375 56.039062 204.628906 62.753906 204.628906 C 69.578125 204.628906 75.421875 203.234375 80.289062 200.441406 C 83.199219 198.714844 85.1875 196.8125 86.257812 194.734375 Z M 236.472656 95.355469 L 237.097656 89.511719 C 240.894531 94.503906 245.882812 97.660156 252.054688 98.964844 C 259.769531 100.628906 267.78125 100.210938 276.097656 97.71875 C 280.492188 96.289062 283.9375 93.585938 286.425781 89.601562 L 287.050781 96.46875 C 284.320312 102.886719 279.210938 106.660156 271.734375 107.789062 C 265.214844 109.050781 258.667969 108.988281 252.101562 107.617188 C 250.613281 107.296875 249.113281 106.914062 247.601562 106.453125 C 243.746094 105.171875 240.632812 102.894531 238.253906 99.632812 C 237.648438 98.761719 237.078125 97.820312 236.5625 96.824219 C 236.5 96.707031 236.445312 96.589844 236.386719 96.46875 L 236.472656 95.445312 L 236.472656 95.355469 " fill-opacity="1" fill-rule="evenodd"/></g><path fill="#d5dff4" d="M 85.902344 288.179688 C 85.542969 288.953125 85.367188 289.875 85.367188 290.945312 C 85.367188 291.300781 85.367188 291.746094 85.367188 292.285156 C 84.414062 291.265625 83.199219 290.347656 81.714844 289.519531 C 80.171875 288.625 78.535156 287.882812 76.820312 287.289062 C 78.007812 287.527344 79.28125 287.699219 80.644531 287.824219 C 81.835938 288.242188 82.988281 288.746094 84.121094 289.335938 C 84.714844 288.863281 85.304688 288.480469 85.902344 288.179688 Z M 93.027344 253.851562 C 92.902344 253.96875 92.726562 254.027344 92.492188 254.027344 C 90.292969 255.335938 88.539062 256.792969 87.238281 258.398438 C 87.238281 257.683594 87.175781 257.089844 87.058594 256.617188 C 87.296875 255.726562 87.414062 254.863281 87.414062 254.027344 C 87.414062 252.542969 87.113281 251.203125 86.523438 250.011719 L 93.027344 253.851562 " fill-opacity="1" fill-rule="evenodd"/></svg>