<svg xmlns="http://www.w3.org/2000/svg" xmlns:xlink="http://www.w3.org/1999/xlink" width="500" zoomAndPan="magnify" viewBox="0 0 375 374.999991" height="500" preserveAspectRatio="xMidYMid meet" version="1.0"><defs><clipPath id="6fab8890c9"><path d="M 65 55.5 L 337.5 55.5 L 337.5 319.5 L 65 319.5 Z M 65 55.5 " clip-rule="nonzero"/></clipPath><clipPath id="828dba7936"><path d="M 282 247 L 337.5 247 L 337.5 279 L 282 279 Z M 282 247 " clip-rule="nonzero"/></clipPath><clipPath id="004d9cb5e4"><path d="M 275 262 L 332 262 L 332 319.5 L 275 319.5 Z M 275 262 " clip-rule="nonzero"/></clipPath><clipPath id="e49db36153"><path d="M 194 55.5 L 271 55.5 L 271 76 L 194 76 Z M 194 55.5 " clip-rule="nonzero"/></clipPath><clipPath id="17aae3bd9a"><path d="M 82 264 L 139 264 L 139 319.5 L 82 319.5 Z M 82 264 " clip-rule="nonzero"/></clipPath><clipPath id="08a2f294ff"><path d="M 37.5 193 L 65 193 L 65 199 L 37.5 199 Z M 37.5 193 " clip-rule="nonzero"/></clipPath></defs><path fill="#e15c63" d="M 261.707031 97.621094 C 257.050781 97.621094 253.285156 102.636719 253.285156 108.851562 C 253.285156 115.042969 257.050781 120.085938 261.707031 120.085938 C 266.339844 120.085938 270.109375 115.042969 270.109375 108.851562 C 270.109375 102.636719 266.339844 97.621094 261.707031 97.621094 Z M 261.707031 97.621094 " fill-opacity="1" fill-rule="nonzero"/><g clip-path="url(#6fab8890c9)"><path fill="#e15c63" d="M 319.308594 262.789062 C 327.324219 262.789062 333.730469 264.683594 337.5 266.101562 C 336.757812 264.277344 332.386719 253.957031 320.652344 249.253906 C 309.804688 244.90625 300.253906 248.4375 298.1875 249.253906 C 303.035156 244.546875 308.410156 242.125 312.226562 240.828125 C 311.460938 225.949219 309.226562 207.707031 303.804688 187.476562 C 299.746094 172.332031 294.730469 159.15625 289.765625 148.164062 L 300.996094 148.164062 L 300.996094 125.699219 L 281.339844 125.699219 L 267.300781 139.738281 L 265.523438 139.738281 C 264.058594 137.820312 261.828125 136.5 259.234375 136.308594 L 230.867188 134.125 C 230.84375 134.125 230.796875 134.101562 230.796875 134.074219 C 229.933594 131.242188 228.300781 127.140625 225.203125 122.890625 C 223.1875 120.132812 221.050781 117.972656 219.179688 116.363281 C 230.316406 113.699219 238.597656 103.714844 238.597656 91.765625 C 238.597656 85.402344 236.242188 79.597656 232.355469 75.15625 L 264.492188 75.15625 C 266.050781 75.15625 267.46875 74.53125 268.476562 73.5 C 269.484375 72.492188 270.109375 71.101562 270.109375 69.539062 C 270.109375 66.445312 267.613281 63.925781 264.492188 63.925781 L 242.050781 63.925781 L 242.050781 55.5 L 202.738281 55.5 L 194.316406 75.15625 C 190.402344 79.597656 188.050781 85.378906 188.050781 91.765625 C 188.050781 101.867188 193.980469 110.605469 202.546875 114.636719 C 198.78125 118.117188 193.5 123.613281 188.746094 131.316406 C 186.707031 134.652344 184.765625 138.394531 183.082031 142.546875 C 182.796875 143.269531 182.410156 144.226562 181.980469 145.355469 C 178.835938 153.660156 173.101562 172.140625 180.277344 190.285156 C 181.042969 192.226562 181.933594 194.101562 182.941406 195.898438 C 175.980469 193.402344 165.371094 190.476562 152.195312 190.285156 C 151.308594 190.261719 150.421875 190.261719 149.554688 190.261719 L 155.003906 159.394531 L 82.019531 159.394531 L 80.53125 167.820312 L 78.058594 181.859375 L 73.597656 207.132812 L 65.171875 207.132812 L 65.171875 218.363281 L 124.117188 218.363281 C 118.378906 220.621094 109.933594 224.773438 101.675781 232.402344 C 95.652344 237.972656 91.308594 243.875 88.234375 249.253906 C 84.996094 254.890625 83.125 259.90625 82.019531 263.292969 L 91.933594 264.996094 C 85.859375 270.660156 82.019531 279.109375 82.019531 288.5625 C 82.019531 305.628906 94.570312 319.453125 110.101562 319.453125 C 121.164062 319.453125 130.714844 312.421875 135.300781 302.195312 L 169.644531 298.691406 C 169.355469 299.554688 169.1875 300.539062 169.1875 301.546875 C 169.1875 305.363281 171.445312 308.460938 174.253906 308.460938 C 174.492188 308.4375 174.730469 308.410156 174.972656 308.386719 C 183.683594 307.546875 194.101562 305.867188 205.546875 302.605469 C 218.316406 298.957031 228.996094 294.324219 237.371094 290.003906 L 261.707031 294.179688 C 267.875 291.730469 272.460938 288.804688 275.84375 285.898438 C 275.773438 286.789062 275.722656 287.675781 275.722656 288.5625 C 275.722656 305.628906 288.300781 319.453125 303.804688 319.453125 C 319.308594 319.453125 331.882812 305.628906 331.882812 288.5625 C 331.882812 277.789062 326.867188 268.332031 319.308594 262.789062 Z M 211.164062 256.597656 C 206.4375 249.972656 208.019531 241.523438 208.355469 239.746094 C 210.085938 230.53125 216.445312 225.179688 218.914062 223.355469 L 218.941406 223.355469 C 225.300781 225.324219 232.09375 226.5 239.148438 226.789062 C 239.195312 226.789062 239.242188 226.8125 239.242188 226.859375 L 241.210938 262.546875 C 229.019531 267.15625 216.660156 264.324219 211.164062 256.597656 Z M 275.722656 176.242188 L 270.109375 176.242188 C 270.109375 176.242188 270.109375 195.898438 270.109375 204.324219 C 270.109375 221.269531 268.140625 228.226562 264.492188 235.210938 C 263.050781 237.972656 261.515625 240.277344 260.171875 242.027344 L 258.898438 212.796875 C 258.898438 212.773438 258.875 212.746094 258.851562 212.722656 C 253.523438 208.261719 246.996094 203.386719 239.242188 198.707031 C 231.132812 193.8125 223.476562 190.1875 216.828125 187.5 C 216.804688 187.5 216.804688 187.476562 216.78125 187.476562 C 216.78125 187.453125 216.78125 187.429688 216.78125 187.429688 C 217.738281 174.972656 218.699219 162.515625 219.660156 150.085938 L 225.179688 153.757812 C 225.179688 153.78125 225.203125 153.78125 225.226562 153.78125 L 258.011719 153.78125 C 260.628906 153.78125 263.101562 152.722656 264.828125 150.972656 L 270.109375 150.972656 C 270.300781 150.972656 270.492188 150.972656 270.683594 150.949219 L 275.722656 167.820312 L 284.148438 156.035156 Z M 275.722656 176.242188 " fill-opacity="1" fill-rule="nonzero"/></g><path fill="#bc8354" d="M 80.53125 167.820312 L 82.019531 159.394531 L 155.003906 159.394531 L 149.554688 190.261719 C 138.371094 190.164062 128.964844 190.738281 122.148438 194.242188 C 119.074219 195.804688 116.363281 198.394531 115.765625 201.804688 C 115.597656 202.835938 115.621094 203.699219 115.691406 204.324219 C 115.8125 205.285156 116.101562 206.21875 116.554688 207.132812 L 73.597656 207.132812 L 78.058594 181.859375 Z M 80.53125 167.820312 " fill-opacity="1" fill-rule="nonzero"/><path fill="#aba9a0" d="M 129.132812 216.589844 L 124.117188 218.363281 L 65.171875 218.363281 L 65.171875 207.132812 L 116.554688 207.132812 C 118.355469 210.898438 122.796875 214.285156 129.132812 216.589844 Z M 129.132812 216.589844 " fill-opacity="1" fill-rule="nonzero"/><g clip-path="url(#828dba7936)"><path fill="#d14b62" d="M 320.652344 249.253906 C 332.386719 253.957031 336.757812 264.277344 337.5 266.101562 C 333.730469 264.683594 327.324219 262.789062 319.308594 262.789062 L 319.285156 262.789062 C 317.050781 262.789062 314.699219 262.933594 312.226562 263.292969 C 297.898438 265.332031 287.964844 273.109375 282.5625 278.460938 C 289.738281 268.117188 288.804688 258.394531 298.1875 249.253906 C 300.253906 248.4375 309.804688 244.90625 320.652344 249.253906 Z M 320.652344 249.253906 " fill-opacity="1" fill-rule="nonzero"/></g><path fill="#604533" d="M 270.109375 139.738281 C 273.226562 139.738281 275.722656 142.261719 275.722656 145.355469 C 275.722656 146.890625 275.101562 148.308594 274.09375 149.316406 C 273.203125 150.226562 272.003906 150.804688 270.683594 150.949219 C 270.492188 150.972656 270.300781 150.972656 270.109375 150.972656 L 264.492188 150.972656 C 261.394531 150.972656 258.898438 148.453125 258.898438 145.355469 C 258.898438 143.820312 259.523438 142.402344 260.53125 141.394531 C 261.539062 140.363281 262.957031 139.738281 264.492188 139.738281 Z M 270.109375 139.738281 " fill-opacity="1" fill-rule="nonzero"/><path fill="#aba9a0" d="M 261.707031 97.621094 C 266.339844 97.621094 270.109375 102.636719 270.109375 108.851562 C 270.109375 115.042969 266.339844 120.085938 261.707031 120.085938 C 257.050781 120.085938 253.285156 115.042969 253.285156 108.851562 C 253.285156 102.636719 257.050781 97.621094 261.707031 97.621094 Z M 261.707031 97.621094 " fill-opacity="1" fill-rule="nonzero"/><path fill="#c43b58" d="M 280.714844 126.324219 L 281.339844 125.699219 L 300.996094 125.699219 L 300.996094 148.164062 L 289.765625 148.164062 L 284.148438 156.035156 L 275.722656 167.820312 L 270.683594 150.949219 C 272.003906 150.804688 273.203125 150.226562 274.09375 149.316406 C 275.101562 148.308594 275.722656 146.890625 275.722656 145.355469 C 275.722656 142.261719 273.226562 139.738281 270.109375 139.738281 L 267.300781 139.738281 Z M 280.714844 126.324219 " fill-opacity="1" fill-rule="nonzero"/><path fill="#aba9a0" d="M 237.371094 290.003906 C 228.996094 294.324219 218.316406 298.957031 205.546875 302.605469 C 194.101562 305.867188 183.683594 307.546875 174.972656 308.386719 C 177.421875 307.90625 179.316406 305.027344 179.316406 301.546875 C 179.316406 297.757812 177.035156 294.660156 174.253906 294.660156 C 185.074219 293.316406 196.476562 292.210938 208.355469 291.371094 C 218.363281 290.675781 228.058594 290.21875 237.371094 290.003906 Z M 237.371094 290.003906 " fill-opacity="1" fill-rule="nonzero"/><path fill="#60676b" d="M 174.253906 294.660156 C 177.035156 294.660156 179.316406 297.757812 179.316406 301.546875 C 179.316406 305.027344 177.421875 307.90625 174.972656 308.386719 C 174.730469 308.410156 174.492188 308.4375 174.253906 308.460938 C 171.445312 308.460938 169.1875 305.363281 169.1875 301.546875 C 169.1875 300.539062 169.355469 299.554688 169.644531 298.691406 C 170.4375 296.316406 172.1875 294.660156 174.253906 294.660156 Z M 174.253906 294.660156 " fill-opacity="1" fill-rule="nonzero"/><g clip-path="url(#004d9cb5e4)"><path fill="#5d5560" d="M 319.308594 262.789062 C 326.867188 268.332031 331.882812 277.789062 331.882812 288.5625 C 331.882812 305.628906 319.308594 319.453125 303.804688 319.453125 C 288.300781 319.453125 275.722656 305.628906 275.722656 288.5625 C 275.722656 287.675781 275.773438 286.789062 275.84375 285.898438 C 278.171875 283.90625 279.949219 281.941406 281.339844 280.140625 C 281.773438 279.589844 282.179688 279.011719 282.5625 278.460938 C 287.964844 273.109375 297.898438 265.332031 312.226562 263.292969 C 314.699219 262.933594 317.050781 262.789062 319.285156 262.789062 Z M 320.652344 288.5625 C 320.652344 278.339844 313.117188 270.035156 303.804688 270.035156 C 294.515625 270.035156 286.957031 278.339844 286.957031 288.5625 C 286.957031 298.789062 294.515625 307.09375 303.804688 307.09375 C 313.117188 307.09375 320.652344 298.789062 320.652344 288.5625 Z M 320.652344 288.5625 " fill-opacity="1" fill-rule="nonzero"/></g><path fill="#aba9a0" d="M 320.652344 288.5625 C 320.652344 289.171875 320.625 289.777344 320.570312 290.378906 C 320.515625 290.984375 320.4375 291.582031 320.328125 292.179688 C 320.21875 292.773438 320.085938 293.363281 319.925781 293.941406 C 319.765625 294.523438 319.582031 295.09375 319.371094 295.65625 C 319.160156 296.214844 318.921875 296.761719 318.664062 297.296875 C 318.402344 297.832031 318.117188 298.351562 317.8125 298.859375 C 317.507812 299.363281 317.175781 299.847656 316.828125 300.316406 C 316.476562 300.785156 316.109375 301.234375 315.71875 301.664062 C 315.328125 302.09375 314.917969 302.5 314.492188 302.886719 C 314.066406 303.269531 313.621094 303.632812 313.164062 303.96875 C 312.707031 304.304688 312.234375 304.617188 311.746094 304.902344 C 311.257812 305.191406 310.761719 305.449219 310.25 305.679688 C 309.742188 305.914062 309.222656 306.117188 308.695312 306.292969 C 308.167969 306.46875 307.632812 306.617188 307.089844 306.734375 C 306.550781 306.855469 306.003906 306.941406 305.457031 307.003906 C 304.90625 307.0625 304.355469 307.09375 303.804688 307.09375 C 303.253906 307.09375 302.703125 307.0625 302.152344 307.003906 C 301.601562 306.941406 301.058594 306.855469 300.515625 306.734375 C 299.976562 306.617188 299.441406 306.46875 298.914062 306.292969 C 298.386719 306.117188 297.867188 305.914062 297.355469 305.679688 C 296.847656 305.449219 296.347656 305.191406 295.863281 304.902344 C 295.375 304.617188 294.902344 304.304688 294.445312 303.96875 C 293.984375 303.632812 293.542969 303.269531 293.117188 302.886719 C 292.6875 302.5 292.28125 302.09375 291.890625 301.664062 C 291.5 301.234375 291.128906 300.785156 290.78125 300.316406 C 290.429688 299.847656 290.101562 299.363281 289.796875 298.859375 C 289.488281 298.351562 289.207031 297.832031 288.945312 297.296875 C 288.683594 296.761719 288.449219 296.214844 288.238281 295.65625 C 288.027344 295.09375 287.839844 294.523438 287.679688 293.941406 C 287.519531 293.363281 287.386719 292.773438 287.28125 292.179688 C 287.171875 291.582031 287.089844 290.984375 287.035156 290.378906 C 286.984375 289.777344 286.957031 289.171875 286.957031 288.5625 C 286.957031 287.957031 286.984375 287.351562 287.035156 286.746094 C 287.089844 286.144531 287.171875 285.542969 287.28125 284.949219 C 287.386719 284.355469 287.519531 283.765625 287.679688 283.1875 C 287.839844 282.605469 288.027344 282.035156 288.238281 281.472656 C 288.449219 280.914062 288.683594 280.363281 288.945312 279.828125 C 289.207031 279.292969 289.488281 278.773438 289.796875 278.269531 C 290.101562 277.765625 290.429688 277.277344 290.78125 276.808594 C 291.128906 276.339844 291.5 275.890625 291.890625 275.460938 C 292.28125 275.035156 292.6875 274.625 293.117188 274.242188 C 293.542969 273.855469 293.984375 273.496094 294.445312 273.160156 C 294.902344 272.820312 295.375 272.511719 295.863281 272.222656 C 296.347656 271.9375 296.847656 271.679688 297.355469 271.445312 C 297.867188 271.214844 298.386719 271.011719 298.914062 270.832031 C 299.441406 270.65625 299.976562 270.511719 300.515625 270.390625 C 301.058594 270.273438 301.601562 270.183594 302.152344 270.125 C 302.703125 270.066406 303.253906 270.035156 303.804688 270.035156 C 304.355469 270.035156 304.90625 270.066406 305.457031 270.125 C 306.003906 270.183594 306.550781 270.273438 307.089844 270.390625 C 307.632812 270.511719 308.167969 270.65625 308.695312 270.832031 C 309.222656 271.011719 309.742188 271.214844 310.25 271.445312 C 310.761719 271.679688 311.257812 271.9375 311.746094 272.222656 C 312.234375 272.511719 312.707031 272.820312 313.164062 273.160156 C 313.621094 273.496094 314.066406 273.855469 314.492188 274.242188 C 314.917969 274.625 315.328125 275.035156 315.71875 275.460938 C 316.109375 275.890625 316.476562 276.339844 316.828125 276.808594 C 317.175781 277.277344 317.507812 277.765625 317.8125 278.269531 C 318.117188 278.773438 318.402344 279.292969 318.664062 279.828125 C 318.921875 280.363281 319.160156 280.914062 319.371094 281.472656 C 319.582031 282.035156 319.765625 282.605469 319.925781 283.1875 C 320.085938 283.765625 320.21875 284.355469 320.328125 284.949219 C 320.4375 285.542969 320.515625 286.144531 320.570312 286.746094 C 320.625 287.351562 320.652344 287.957031 320.652344 288.5625 Z M 320.652344 288.5625 " fill-opacity="1" fill-rule="nonzero"/><path fill="#d14b62" d="M 286.957031 195.898438 C 288.78125 236.675781 285.875 248.242188 281.339844 257.675781 C 276.925781 266.867188 271.285156 273.371094 267.300781 277.332031 L 251.386719 277.332031 C 257.003906 277.332031 261.492188 272.628906 261.253906 267.035156 L 260.171875 242.027344 C 261.515625 240.277344 263.050781 237.972656 264.492188 235.210938 C 268.140625 228.226562 270.109375 221.269531 270.109375 204.324219 C 270.109375 195.898438 270.109375 176.242188 270.109375 176.242188 L 275.722656 176.242188 L 284.148438 156.035156 C 285.707031 171.949219 286.523438 185.914062 286.957031 195.898438 Z M 286.957031 195.898438 " fill-opacity="1" fill-rule="nonzero"/><g clip-path="url(#e49db36153)"><path fill="#655f68" d="M 264.492188 63.925781 C 267.613281 63.925781 270.109375 66.445312 270.109375 69.539062 C 270.109375 71.101562 269.484375 72.492188 268.476562 73.5 C 267.46875 74.53125 266.050781 75.15625 264.492188 75.15625 L 194.316406 75.15625 L 202.738281 55.5 L 242.050781 55.5 L 242.050781 63.925781 Z M 264.492188 63.925781 " fill-opacity="1" fill-rule="nonzero"/></g><path fill="#655f68" d="M 260.171875 242.027344 L 261.253906 267.035156 C 261.492188 272.628906 257.003906 277.332031 251.386719 277.332031 C 250.835938 277.332031 250.285156 277.285156 249.730469 277.1875 C 245.125 276.445312 241.765625 272.363281 241.5 267.683594 L 241.210938 262.546875 L 239.242188 226.859375 C 239.242188 226.8125 239.195312 226.789062 239.148438 226.789062 C 232.09375 226.5 225.300781 225.324219 218.941406 223.355469 L 218.914062 223.355469 C 203.101562 218.484375 190.09375 208.765625 182.941406 195.898438 C 181.933594 194.101562 181.042969 192.226562 180.277344 190.285156 C 173.101562 172.140625 178.835938 153.660156 181.980469 145.355469 C 182.410156 144.226562 182.796875 143.269531 183.082031 142.546875 C 184.765625 138.394531 186.707031 134.652344 188.746094 131.316406 C 193.5 123.613281 198.78125 118.117188 202.546875 114.636719 C 205.8125 116.171875 209.460938 117.035156 213.324219 117.035156 C 215.339844 117.035156 217.308594 116.796875 219.179688 116.363281 C 221.050781 117.972656 223.1875 120.132812 225.203125 122.890625 C 228.300781 127.140625 229.933594 131.242188 230.796875 134.074219 C 230.796875 134.101562 230.84375 134.125 230.867188 134.125 L 259.234375 136.308594 C 261.828125 136.5 264.058594 137.820312 265.523438 139.738281 L 264.492188 139.738281 C 262.957031 139.738281 261.539062 140.363281 260.53125 141.394531 C 259.523438 142.402344 258.898438 143.820312 258.898438 145.355469 C 258.898438 148.453125 261.394531 150.972656 264.492188 150.972656 L 264.828125 150.972656 C 263.101562 152.722656 260.628906 153.78125 258.011719 153.78125 L 225.226562 153.78125 C 225.203125 153.78125 225.179688 153.78125 225.179688 153.757812 L 219.660156 150.085938 C 218.699219 162.515625 217.738281 174.972656 216.78125 187.429688 C 216.78125 187.429688 216.78125 187.453125 216.78125 187.476562 C 216.804688 187.476562 216.804688 187.5 216.828125 187.5 C 223.476562 190.1875 231.132812 193.8125 239.242188 198.707031 C 246.996094 203.386719 253.523438 208.261719 258.851562 212.722656 C 258.875 212.746094 258.898438 212.773438 258.898438 212.796875 Z M 260.171875 242.027344 " fill-opacity="1" fill-rule="nonzero"/><path fill="#d14b62" d="M 251.386719 277.332031 L 181.140625 277.332031 C 186.058594 273.085938 193.957031 264.421875 194.316406 252.058594 C 194.652344 240.589844 188.292969 231.15625 183.082031 226.789062 C 178.859375 223.234375 173.292969 221.242188 166.691406 220.714844 C 184.09375 221.578125 201.515625 222.46875 218.914062 223.355469 C 216.445312 225.179688 210.082031 230.53125 208.355469 239.746094 C 208.019531 241.523438 206.4375 249.972656 211.164062 256.597656 C 216.660156 264.324219 229.019531 267.15625 241.210938 262.546875 L 241.5 267.683594 C 241.765625 272.363281 245.125 276.445312 249.730469 277.1875 C 250.285156 277.285156 250.835938 277.332031 251.386719 277.332031 Z M 251.386719 277.332031 " fill-opacity="1" fill-rule="nonzero"/><path fill="#524956" d="M 177.972656 279.78125 L 237.371094 290.003906 C 228.058594 290.21875 218.363281 290.675781 208.355469 291.371094 C 196.476562 292.210938 185.074219 293.316406 174.253906 294.660156 C 172.1875 294.660156 170.4375 296.316406 169.644531 298.691406 L 135.300781 302.195312 C 137.125 298.09375 138.15625 293.460938 138.15625 288.5625 C 138.15625 282.5625 136.597656 276.949219 133.90625 272.21875 Z M 177.972656 279.78125 " fill-opacity="1" fill-rule="nonzero"/><path fill="#fec4b9" d="M 232.355469 75.15625 C 236.242188 79.597656 238.597656 85.402344 238.597656 91.765625 C 238.597656 103.714844 230.316406 113.699219 219.179688 116.363281 C 217.308594 116.796875 215.339844 117.035156 213.324219 117.035156 C 209.460938 117.035156 205.8125 116.171875 202.546875 114.636719 C 193.980469 110.605469 188.050781 101.867188 188.050781 91.765625 C 188.050781 85.378906 190.402344 79.597656 194.316406 75.15625 Z M 232.355469 75.15625 " fill-opacity="1" fill-rule="nonzero"/><path fill="#604533" d="M 149.554688 190.261719 C 150.421875 190.261719 151.308594 190.261719 152.195312 190.285156 C 165.371094 190.476562 175.980469 193.402344 182.941406 195.898438 C 190.09375 208.765625 203.101562 218.484375 218.914062 223.355469 C 201.515625 222.46875 184.09375 221.578125 166.691406 220.714844 C 165.78125 220.621094 164.84375 220.570312 163.90625 220.570312 C 158.125 220.261719 152.363281 219.972656 146.578125 219.683594 C 139.882812 219.492188 133.980469 218.339844 129.15625 216.589844 C 129.15625 216.589844 129.15625 216.589844 129.132812 216.589844 C 122.796875 214.285156 118.355469 210.898438 116.554688 207.132812 C 116.101562 206.21875 115.8125 205.285156 115.691406 204.324219 C 115.621094 203.699219 115.597656 202.835938 115.765625 201.804688 C 116.363281 198.394531 119.074219 195.804688 122.148438 194.242188 C 128.964844 190.738281 138.371094 190.164062 149.554688 190.261719 Z M 149.554688 190.261719 " fill-opacity="1" fill-rule="nonzero"/><g clip-path="url(#17aae3bd9a)"><path fill="#5d5560" d="M 138.15625 288.5625 C 138.15625 293.460938 137.125 298.09375 135.300781 302.195312 C 130.714844 312.421875 121.164062 319.453125 110.101562 319.453125 C 94.570312 319.453125 82.019531 305.628906 82.019531 288.5625 C 82.019531 279.109375 85.859375 270.660156 91.933594 264.996094 L 133.90625 272.21875 C 136.597656 276.949219 138.15625 282.5625 138.15625 288.5625 Z M 126.925781 288.5625 C 126.925781 278.339844 119.386719 270.035156 110.101562 270.035156 C 100.789062 270.035156 93.253906 278.339844 93.253906 288.5625 C 93.253906 298.789062 100.789062 307.09375 110.101562 307.09375 C 119.386719 307.09375 126.925781 298.789062 126.925781 288.5625 Z M 126.925781 288.5625 " fill-opacity="1" fill-rule="nonzero"/></g><path fill="#aba9a0" d="M 110.101562 270.035156 C 119.386719 270.035156 126.925781 278.339844 126.925781 288.5625 C 126.925781 298.789062 119.386719 307.09375 110.101562 307.09375 C 100.789062 307.09375 93.253906 298.789062 93.253906 288.5625 C 93.253906 278.339844 100.789062 270.035156 110.101562 270.035156 Z M 110.101562 270.035156 " fill-opacity="1" fill-rule="nonzero"/><path fill="#5d5560" d="M 216.777344 150.5625 C 216.320312 150.5625 215.859375 150.433594 215.449219 150.160156 L 207.023438 144.542969 C 205.921875 143.808594 205.621094 142.320312 206.359375 141.214844 C 207.09375 140.113281 208.578125 139.8125 209.6875 140.550781 L 218.113281 146.167969 C 219.214844 146.902344 219.511719 148.390625 218.777344 149.496094 C 218.316406 150.191406 217.554688 150.5625 216.777344 150.5625 Z M 216.777344 150.5625 " fill-opacity="1" fill-rule="nonzero"/><path fill="#d14b62" d="M 150.792969 221.804688 C 150.492188 220.515625 149.207031 219.710938 147.910156 220.007812 C 137.382812 222.445312 126.140625 227.113281 114.488281 233.878906 C 113.339844 234.542969 112.949219 236.011719 113.617188 237.160156 C 114.066406 237.925781 114.867188 238.355469 115.695312 238.355469 C 116.105469 238.355469 116.519531 238.246094 116.898438 238.027344 C 128.136719 231.5 138.933594 227.011719 148.996094 224.683594 C 150.285156 224.386719 151.089844 223.097656 150.792969 221.804688 Z M 150.792969 221.804688 " fill-opacity="1" fill-rule="nonzero"/><path fill="#655f68" d="M 280.914062 108.554688 C 280.761719 107.355469 279.742188 106.453125 278.53125 106.453125 L 270.109375 106.453125 C 268.78125 106.453125 267.707031 107.527344 267.707031 108.851562 C 267.707031 110.175781 268.78125 111.253906 270.109375 111.253906 L 276.414062 111.253906 L 278.960938 131.613281 C 279.109375 132.828125 280.144531 133.714844 281.335938 133.714844 C 281.4375 133.714844 281.535156 133.710938 281.636719 133.695312 C 282.953125 133.535156 283.886719 132.332031 283.722656 131.019531 Z M 280.914062 108.554688 " fill-opacity="1" fill-rule="nonzero"/><path fill="#e7f2f1" d="M 146.578125 71.941406 L 180.277344 71.941406 C 181.601562 71.941406 182.675781 70.863281 182.675781 69.539062 C 182.675781 68.214844 181.601562 67.140625 180.277344 67.140625 L 146.578125 67.140625 C 145.253906 67.140625 144.179688 68.214844 144.179688 69.539062 C 144.179688 70.863281 145.253906 71.941406 146.578125 71.941406 Z M 146.578125 71.941406 " fill-opacity="1" fill-rule="nonzero"/><path fill="#c3ddda" d="M 90.445312 85.980469 L 177.46875 85.980469 C 178.796875 85.980469 179.867188 84.90625 179.867188 83.578125 C 179.867188 82.253906 178.796875 81.179688 177.46875 81.179688 L 90.445312 81.179688 C 89.117188 81.179688 88.042969 82.253906 88.042969 83.578125 C 88.042969 84.90625 89.117188 85.980469 90.445312 85.980469 Z M 90.445312 85.980469 " fill-opacity="1" fill-rule="nonzero"/><path fill="#e7f2f1" d="M 115.691406 112.066406 C 114.363281 112.066406 113.292969 113.144531 113.292969 114.46875 C 113.292969 115.792969 114.363281 116.867188 115.691406 116.867188 L 171.851562 116.867188 C 173.179688 116.867188 174.253906 115.792969 174.253906 114.46875 C 174.253906 113.144531 173.179688 112.066406 171.851562 112.066406 Z M 115.691406 112.066406 " fill-opacity="1" fill-rule="nonzero"/><path fill="#d6eae8" d="M 197.125 128.914062 L 82.019531 128.914062 C 80.691406 128.914062 79.621094 129.992188 79.621094 131.316406 C 79.621094 132.640625 80.691406 133.714844 82.019531 133.714844 L 197.125 133.714844 C 198.453125 133.714844 199.523438 132.640625 199.523438 131.316406 C 199.523438 129.992188 198.449219 128.914062 197.125 128.914062 Z M 197.125 128.914062 " fill-opacity="1" fill-rule="nonzero"/><path fill="#c3ddda" d="M 194.316406 142.957031 L 126.925781 142.957031 C 125.597656 142.957031 124.523438 144.03125 124.523438 145.355469 C 124.523438 146.679688 125.597656 147.757812 126.925781 147.757812 L 194.316406 147.757812 C 195.644531 147.757812 196.714844 146.679688 196.714844 145.355469 C 196.714844 144.03125 195.644531 142.957031 194.316406 142.957031 Z M 194.316406 142.957031 " fill-opacity="1" fill-rule="nonzero"/><path fill="#b8d3cf" d="M 51.132812 170.21875 L 98.867188 170.21875 C 100.195312 170.21875 101.269531 169.144531 101.269531 167.820312 C 101.269531 166.496094 100.195312 165.421875 98.867188 165.421875 L 51.132812 165.421875 C 49.804688 165.421875 48.730469 166.496094 48.730469 167.820312 C 48.730469 169.144531 49.804688 170.21875 51.132812 170.21875 Z M 51.132812 170.21875 " fill-opacity="1" fill-rule="nonzero"/><path fill="#d6eae8" d="M 109.691406 181.859375 C 109.691406 180.535156 108.621094 179.460938 107.292969 179.460938 L 59.554688 179.460938 C 58.230469 179.460938 57.15625 180.535156 57.15625 181.859375 C 57.15625 183.183594 58.230469 184.261719 59.554688 184.261719 L 107.292969 184.261719 C 108.621094 184.261719 109.691406 183.183594 109.691406 181.859375 Z M 109.691406 181.859375 " fill-opacity="1" fill-rule="nonzero"/><path fill="#b8d3cf" d="M 126.925781 246.851562 L 70.789062 246.851562 C 69.460938 246.851562 68.386719 247.925781 68.386719 249.253906 C 68.386719 250.578125 69.460938 251.652344 70.789062 251.652344 L 126.925781 251.652344 C 128.25 251.652344 129.324219 250.578125 129.324219 249.253906 C 129.324219 247.925781 128.25 246.851562 126.925781 246.851562 Z M 126.925781 246.851562 " fill-opacity="1" fill-rule="nonzero"/><path fill="#acccc6" d="M 70.789062 280.546875 L 56.746094 280.546875 C 55.421875 280.546875 54.347656 281.621094 54.347656 282.949219 C 54.347656 284.273438 55.421875 285.347656 56.746094 285.347656 L 70.789062 285.347656 C 72.117188 285.347656 73.191406 284.273438 73.191406 282.949219 C 73.191406 281.621094 72.113281 280.546875 70.789062 280.546875 Z M 70.789062 280.546875 " fill-opacity="1" fill-rule="nonzero"/><path fill="#d6eae8" d="M 56.746094 230.007812 C 55.421875 230.007812 54.347656 231.078125 54.347656 232.40625 C 54.347656 233.734375 55.421875 234.804688 56.746094 234.804688 L 79.210938 234.804688 C 80.539062 234.804688 81.613281 233.734375 81.613281 232.40625 C 81.613281 231.078125 80.539062 230.007812 79.210938 230.007812 Z M 56.746094 230.007812 " fill-opacity="1" fill-rule="nonzero"/><g clip-path="url(#08a2f294ff)"><path fill="#acccc6" d="M 64.765625 195.898438 C 64.765625 194.574219 63.691406 193.5 62.363281 193.5 L 39.898438 193.5 C 38.574219 193.5 37.5 194.574219 37.5 195.898438 C 37.5 197.226562 38.574219 198.300781 39.898438 198.300781 L 62.363281 198.300781 C 63.691406 198.300781 64.765625 197.226562 64.765625 195.898438 Z M 64.765625 195.898438 " fill-opacity="1" fill-rule="nonzero"/></g></svg>