<svg xmlns="http://www.w3.org/2000/svg" xmlns:xlink="http://www.w3.org/1999/xlink" width="500" zoomAndPan="magnify" viewBox="0 0 375 374.999991" height="500" preserveAspectRatio="xMidYMid meet" version="1.0"><defs><clipPath id="6ec97c6559"><path d="M 50.625 148 L 324.375 148 L 324.375 304 L 50.625 304 Z M 50.625 148 " clip-rule="nonzero"/></clipPath><clipPath id="c1aa7f93a6"><path d="M 208 40 L 324.375 40 L 324.375 213 L 208 213 Z M 208 40 " clip-rule="nonzero"/></clipPath><clipPath id="148193c128"><path d="M 208 41 L 324.375 41 L 324.375 109 L 208 109 Z M 208 41 " clip-rule="nonzero"/></clipPath><clipPath id="7cf4601913"><path d="M 50.625 40 L 211 40 L 211 133 L 50.625 133 Z M 50.625 40 " clip-rule="nonzero"/></clipPath><clipPath id="201bdd1f5a"><path d="M 79 38 L 215 38 L 215 232 L 79 232 Z M 79 38 " clip-rule="nonzero"/></clipPath><clipPath id="6f45b362d5"><path d="M 79.484375 134.167969 L 79.484375 226.660156 C 79.484375 229.796875 82.921875 232.550781 86.058594 231.554688 L 86.113281 231.527344 C 83.847656 231.703125 81.707031 229.945312 81.707031 227.449219 L 81.707031 134.957031 C 81.707031 133.992188 81.914062 133.050781 82.292969 132.203125 C 82.867188 130.910156 83.835938 129.789062 85.117188 129.054688 L 171.445312 79.210938 L 171.445312 66.816406 C 171.445312 63.804688 173.054688 61.023438 175.671875 59.507812 L 210.191406 39.574219 C 211.488281 38.839844 212.921875 38.878906 214.078125 39.464844 C 213.546875 39.140625 210.617188 37.488281 207.957031 38.785156 L 173.449219 58.703125 C 170.832031 60.214844 169.222656 63 169.222656 66.011719 L 169.222656 78.417969 L 82.894531 128.265625 C 81.722656 128.933594 80.820312 129.914062 80.234375 131.058594 C 79.757812 132.011719 79.484375 133.0625 79.484375 134.167969 Z M 79.484375 134.167969 " clip-rule="nonzero"/></clipPath><linearGradient x1="979.764114" gradientTransform="matrix(-0.526131, 0, 0, -0.526131, 670.896658, 344.484888)" y1="600.118832" x2="1039.466085" gradientUnits="userSpaceOnUse" y2="200.122431" id="493670d36c"><stop stop-opacity="1" stop-color="rgb(100%, 82.699585%, 43.899536%)" offset="0"/><stop stop-opacity="1" stop-color="rgb(100%, 82.699585%, 43.899536%)" offset="0.0933764"/><stop stop-opacity="1" stop-color="rgb(100%, 82.699585%, 43.899536%)" offset="0.5"/><stop stop-opacity="1" stop-color="rgb(100%, 82.699585%, 43.899536%)" offset="0.515625"/><stop stop-opacity="1" stop-color="rgb(98.957825%, 81.495667%, 42.272949%)" offset="0.519531"/><stop stop-opacity="1" stop-color="rgb(97.917175%, 80.293274%, 40.646362%)" offset="0.523438"/><stop stop-opacity="1" stop-color="rgb(95.606995%, 77.624512%, 37.039185%)" offset="0.527344"/><stop stop-opacity="1" stop-color="rgb(93.29834%, 74.957275%, 33.433533%)" offset="0.53125"/><stop stop-opacity="1" stop-color="rgb(90.988159%, 72.288513%, 29.826355%)" offset="0.535156"/><stop stop-opacity="1" stop-color="rgb(88.679504%, 69.621277%, 26.220703%)" offset="0.539063"/><stop stop-opacity="1" stop-color="rgb(86.37085%, 66.952515%, 22.615051%)" offset="0.542969"/><stop stop-opacity="1" stop-color="rgb(84.062195%, 64.285278%, 19.009399%)" offset="0.546875"/><stop stop-opacity="1" stop-color="rgb(81.752014%, 61.616516%, 15.402222%)" offset="0.550781"/><stop stop-opacity="1" stop-color="rgb(79.443359%, 58.94928%, 11.79657%)" offset="0.554688"/><stop stop-opacity="1" stop-color="rgb(77.171326%, 56.323242%, 8.247375%)" offset="0.558594"/><stop stop-opacity="1" stop-color="rgb(74.899292%, 53.69873%, 4.699707%)" offset="0.5625"/><stop stop-opacity="1" stop-color="rgb(74.899292%, 53.69873%, 4.699707%)" offset="0.625"/><stop stop-opacity="1" stop-color="rgb(74.899292%, 53.69873%, 4.699707%)" offset="0.75"/><stop stop-opacity="1" stop-color="rgb(74.899292%, 53.69873%, 4.699707%)" offset="0.906624"/><stop stop-opacity="1" stop-color="rgb(74.899292%, 53.69873%, 4.699707%)" offset="1"/></linearGradient><clipPath id="a6e6b96857"><path d="M 89 43 L 224 43 L 224 238 L 89 238 Z M 89 43 " clip-rule="nonzero"/></clipPath><clipPath id="e439b687d1"><path d="M 89.089844 139.636719 L 89.089844 232.128906 C 89.089844 235.265625 92.523438 238.019531 95.660156 237.023438 L 95.714844 236.996094 C 93.453125 237.171875 91.3125 235.414062 91.3125 232.917969 L 91.3125 140.425781 C 91.3125 139.457031 91.515625 138.519531 91.898438 137.671875 C 92.46875 136.378906 93.4375 135.257812 94.71875 134.523438 L 181.050781 84.675781 L 181.050781 72.285156 C 181.050781 69.269531 182.660156 66.492188 185.277344 64.976562 L 219.796875 45.042969 C 221.09375 44.308594 222.523438 44.347656 223.683594 44.933594 C 223.152344 44.609375 220.21875 42.957031 217.5625 44.253906 L 183.054688 64.171875 C 180.4375 65.683594 178.828125 68.46875 178.828125 71.480469 L 178.828125 83.886719 L 92.496094 133.734375 C 91.324219 134.402344 90.425781 135.382812 89.839844 136.527344 C 89.363281 137.480469 89.089844 138.53125 89.089844 139.636719 Z M 89.089844 139.636719 " clip-rule="nonzero"/></clipPath><linearGradient x1="961.506001" gradientTransform="matrix(-0.526131, 0, 0, -0.526131, 670.896658, 344.484888)" y1="589.745247" x2="1021.211152" gradientUnits="userSpaceOnUse" y2="189.728249" id="772d0b48af"><stop stop-opacity="1" stop-color="rgb(100%, 82.699585%, 43.899536%)" offset="0"/><stop stop-opacity="1" stop-color="rgb(100%, 82.699585%, 43.899536%)" offset="0.0933717"/><stop stop-opacity="1" stop-color="rgb(100%, 82.699585%, 43.899536%)" offset="0.5"/><stop stop-opacity="1" stop-color="rgb(100%, 82.699585%, 43.899536%)" offset="0.515625"/><stop stop-opacity="1" stop-color="rgb(98.965454%, 81.504822%, 42.28363%)" offset="0.519531"/><stop stop-opacity="1" stop-color="rgb(97.930908%, 80.310059%, 40.66925%)" offset="0.523437"/><stop stop-opacity="1" stop-color="rgb(95.620728%, 77.641296%, 37.062073%)" offset="0.527344"/><stop stop-opacity="1" stop-color="rgb(93.312073%, 74.972534%, 33.456421%)" offset="0.53125"/><stop stop-opacity="1" stop-color="rgb(91.001892%, 72.303772%, 29.849243%)" offset="0.535156"/><stop stop-opacity="1" stop-color="rgb(88.693237%, 69.636536%, 26.242065%)" offset="0.539062"/><stop stop-opacity="1" stop-color="rgb(86.384583%, 66.967773%, 22.634888%)" offset="0.542969"/><stop stop-opacity="1" stop-color="rgb(84.075928%, 64.300537%, 19.029236%)" offset="0.546875"/><stop stop-opacity="1" stop-color="rgb(81.765747%, 61.631775%, 15.422058%)" offset="0.550781"/><stop stop-opacity="1" stop-color="rgb(79.457092%, 58.964539%, 11.816406%)" offset="0.554688"/><stop stop-opacity="1" stop-color="rgb(77.177429%, 56.330872%, 8.258057%)" offset="0.558594"/><stop stop-opacity="1" stop-color="rgb(74.899292%, 53.69873%, 4.699707%)" offset="0.5625"/><stop stop-opacity="1" stop-color="rgb(74.899292%, 53.69873%, 4.699707%)" offset="0.625"/><stop stop-opacity="1" stop-color="rgb(74.899292%, 53.69873%, 4.699707%)" offset="0.75"/><stop stop-opacity="1" stop-color="rgb(74.899292%, 53.69873%, 4.699707%)" offset="0.906628"/><stop stop-opacity="1" stop-color="rgb(74.899292%, 53.69873%, 4.699707%)" offset="1"/></linearGradient><clipPath id="441db27021"><path d="M 98 49 L 234 49 L 234 243 L 98 243 Z M 98 49 " clip-rule="nonzero"/></clipPath><clipPath id="26cff02f4b"><path d="M 98.617188 145.257812 L 98.617188 237.75 C 98.617188 240.886719 102.054688 243.640625 105.191406 242.644531 L 105.246094 242.617188 C 102.980469 242.792969 100.839844 241.035156 100.839844 238.539062 L 100.839844 146.046875 C 100.839844 145.082031 101.046875 144.140625 101.425781 143.292969 C 102 142 102.96875 140.878906 104.25 140.144531 L 190.578125 90.300781 L 190.578125 77.90625 C 190.578125 74.894531 192.1875 72.113281 194.804688 70.597656 L 229.328125 50.664062 C 230.621094 49.929688 232.054688 49.96875 233.210938 50.554688 C 232.679688 50.230469 229.75 48.578125 227.089844 49.875 L 192.582031 69.792969 C 189.964844 71.304688 188.355469 74.089844 188.355469 77.101562 L 188.355469 89.507812 L 102.027344 139.355469 C 100.855469 140.023438 99.953125 141.003906 99.367188 142.148438 C 98.890625 143.101562 98.617188 144.152344 98.617188 145.257812 Z M 98.617188 145.257812 " clip-rule="nonzero"/></clipPath><linearGradient x1="264.091783" gradientTransform="matrix(0.526131, 0, 0, -0.526131, 35.421784, 344.484888)" y1="578.802046" x2="205.546959" gradientUnits="userSpaceOnUse" y2="179.158137" id="126231cb24"><stop stop-opacity="1" stop-color="rgb(91.799927%, 44.299316%, 34.498596%)" offset="0"/><stop stop-opacity="1" stop-color="rgb(91.799927%, 44.299316%, 34.498596%)" offset="0.0918016"/><stop stop-opacity="1" stop-color="rgb(91.799927%, 44.299316%, 34.498596%)" offset="0.5"/><stop stop-opacity="1" stop-color="rgb(91.799927%, 44.299316%, 34.498596%)" offset="0.507812"/><stop stop-opacity="1" stop-color="rgb(89.370728%, 42.790222%, 33.172607%)" offset="0.511719"/><stop stop-opacity="1" stop-color="rgb(86.941528%, 41.282654%, 31.846619%)" offset="0.515625"/><stop stop-opacity="1" stop-color="rgb(83.796692%, 39.329529%, 30.130005%)" offset="0.519531"/><stop stop-opacity="1" stop-color="rgb(80.653381%, 37.37793%, 28.413391%)" offset="0.523438"/><stop stop-opacity="1" stop-color="rgb(77.508545%, 35.424805%, 26.696777%)" offset="0.527344"/><stop stop-opacity="1" stop-color="rgb(74.365234%, 33.473206%, 24.980164%)" offset="0.53125"/><stop stop-opacity="1" stop-color="rgb(71.220398%, 31.520081%, 23.262024%)" offset="0.535156"/><stop stop-opacity="1" stop-color="rgb(68.077087%, 29.568481%, 21.54541%)" offset="0.539062"/><stop stop-opacity="1" stop-color="rgb(64.932251%, 27.615356%, 19.828796%)" offset="0.542969"/><stop stop-opacity="1" stop-color="rgb(61.78894%, 25.663757%, 18.112183%)" offset="0.546875"/><stop stop-opacity="1" stop-color="rgb(58.644104%, 23.710632%, 16.395569%)" offset="0.550781"/><stop stop-opacity="1" stop-color="rgb(55.500793%, 21.759033%, 14.678955%)" offset="0.554688"/><stop stop-opacity="1" stop-color="rgb(52.355957%, 19.805908%, 12.962341%)" offset="0.558594"/><stop stop-opacity="1" stop-color="rgb(49.212646%, 17.854309%, 11.245728%)" offset="0.5625"/><stop stop-opacity="1" stop-color="rgb(47.155762%, 16.577148%, 10.122681%)" offset="0.566406"/><stop stop-opacity="1" stop-color="rgb(45.098877%, 15.299988%, 8.999634%)" offset="0.570312"/><stop stop-opacity="1" stop-color="rgb(45.098877%, 15.299988%, 8.999634%)" offset="0.578125"/><stop stop-opacity="1" stop-color="rgb(45.098877%, 15.299988%, 8.999634%)" offset="0.59375"/><stop stop-opacity="1" stop-color="rgb(45.098877%, 15.299988%, 8.999634%)" offset="0.625"/><stop stop-opacity="1" stop-color="rgb(45.098877%, 15.299988%, 8.999634%)" offset="0.75"/><stop stop-opacity="1" stop-color="rgb(45.098877%, 15.299988%, 8.999634%)" offset="0.908198"/><stop stop-opacity="1" stop-color="rgb(45.098877%, 15.299988%, 8.999634%)" offset="1"/></linearGradient><clipPath id="d4d1bd8bb5"><path d="M 108 54 L 243 54 L 243 249 L 108 249 Z M 108 54 " clip-rule="nonzero"/></clipPath><clipPath id="968fff7d6b"><path d="M 108.222656 150.726562 L 108.222656 243.21875 C 108.222656 246.355469 111.660156 249.109375 114.792969 248.113281 L 114.847656 248.085938 C 112.585938 248.261719 110.445312 246.503906 110.445312 244.007812 L 110.445312 151.515625 C 110.445312 150.546875 110.648438 149.609375 111.03125 148.761719 C 111.605469 147.46875 112.570312 146.347656 113.855469 145.613281 L 200.183594 95.765625 L 200.183594 83.375 C 200.183594 80.359375 201.792969 77.582031 204.410156 76.066406 L 238.929688 56.132812 C 240.226562 55.398438 241.65625 55.4375 242.816406 56.023438 C 242.285156 55.699219 239.351562 54.046875 236.695312 55.34375 L 202.1875 75.261719 C 199.570312 76.773438 197.960938 79.558594 197.960938 82.570312 L 197.960938 94.976562 L 111.632812 144.824219 C 110.457031 145.492188 109.558594 146.472656 108.972656 147.617188 C 108.496094 148.570312 108.222656 149.621094 108.222656 150.726562 Z M 108.222656 150.726562 " clip-rule="nonzero"/></clipPath><linearGradient x1="297.202011" gradientTransform="matrix(0.526131, 0, 0, -0.526131, 35.421784, 344.484888)" y1="577.378618" x2="190.119191" gradientUnits="userSpaceOnUse" y2="167.751211" id="99c9e106f6"><stop stop-opacity="1" stop-color="rgb(91.799927%, 44.299316%, 34.498596%)" offset="0"/><stop stop-opacity="1" stop-color="rgb(91.799927%, 44.299316%, 34.498596%)" offset="0.152814"/><stop stop-opacity="1" stop-color="rgb(91.799927%, 44.299316%, 34.498596%)" offset="0.5"/><stop stop-opacity="1" stop-color="rgb(91.799927%, 44.299316%, 34.498596%)" offset="0.53125"/><stop stop-opacity="1" stop-color="rgb(89.872742%, 43.103027%, 33.447266%)" offset="0.535156"/><stop stop-opacity="1" stop-color="rgb(87.947083%, 41.906738%, 32.395935%)" offset="0.539063"/><stop stop-opacity="1" stop-color="rgb(84.640503%, 39.852905%, 30.589294%)" offset="0.542969"/><stop stop-opacity="1" stop-color="rgb(81.333923%, 37.800598%, 28.78418%)" offset="0.546875"/><stop stop-opacity="1" stop-color="rgb(78.025818%, 35.746765%, 26.977539%)" offset="0.550781"/><stop stop-opacity="1" stop-color="rgb(74.719238%, 33.692932%, 25.172424%)" offset="0.554688"/><stop stop-opacity="1" stop-color="rgb(71.412659%, 31.639099%, 23.36731%)" offset="0.558594"/><stop stop-opacity="1" stop-color="rgb(68.106079%, 29.586792%, 21.562195%)" offset="0.5625"/><stop stop-opacity="1" stop-color="rgb(64.7995%, 27.532959%, 19.755554%)" offset="0.566406"/><stop stop-opacity="1" stop-color="rgb(61.49292%, 25.479126%, 17.950439%)" offset="0.570312"/><stop stop-opacity="1" stop-color="rgb(58.184814%, 23.425293%, 16.143799%)" offset="0.574219"/><stop stop-opacity="1" stop-color="rgb(54.878235%, 21.372986%, 14.338684%)" offset="0.578125"/><stop stop-opacity="1" stop-color="rgb(51.571655%, 19.319153%, 12.533569%)" offset="0.582031"/><stop stop-opacity="1" stop-color="rgb(48.265076%, 17.26532%, 10.728455%)" offset="0.585938"/><stop stop-opacity="1" stop-color="rgb(46.681213%, 16.282654%, 9.863281%)" offset="0.589844"/><stop stop-opacity="1" stop-color="rgb(45.098877%, 15.299988%, 8.999634%)" offset="0.59375"/><stop stop-opacity="1" stop-color="rgb(45.098877%, 15.299988%, 8.999634%)" offset="0.625"/><stop stop-opacity="1" stop-color="rgb(45.098877%, 15.299988%, 8.999634%)" offset="0.75"/><stop stop-opacity="1" stop-color="rgb(45.098877%, 15.299988%, 8.999634%)" offset="0.847186"/><stop stop-opacity="1" stop-color="rgb(45.098877%, 15.299988%, 8.999634%)" offset="1"/></linearGradient><clipPath id="41296ee02d"><path d="M 117 60 L 253 60 L 253 254 L 117 254 Z M 117 60 " clip-rule="nonzero"/></clipPath><clipPath id="93bd38eb05"><path d="M 117.753906 156.347656 L 117.753906 248.839844 C 117.753906 251.976562 121.1875 254.730469 124.324219 253.734375 L 124.378906 253.707031 C 122.117188 253.882812 119.976562 252.125 119.976562 249.628906 L 119.976562 157.136719 C 119.976562 156.171875 120.179688 155.230469 120.5625 154.382812 C 121.132812 153.089844 122.101562 151.96875 123.382812 151.234375 L 209.714844 101.386719 L 209.714844 88.996094 C 209.714844 85.984375 211.320312 83.203125 213.941406 81.6875 L 248.460938 61.753906 C 249.757812 61.019531 251.1875 61.058594 252.347656 61.644531 C 251.8125 61.320312 248.882812 59.667969 246.226562 60.964844 L 211.71875 80.882812 C 209.101562 82.394531 207.492188 85.179688 207.492188 88.191406 L 207.492188 100.597656 L 121.160156 150.445312 C 119.988281 151.113281 119.089844 152.09375 118.503906 153.238281 C 118.027344 154.191406 117.753906 155.242188 117.753906 156.347656 Z M 117.753906 156.347656 " clip-rule="nonzero"/></clipPath><linearGradient x1="907.027262" gradientTransform="matrix(-0.526131, 0, 0, -0.526131, 670.896658, 344.484888)" y1="557.981849" x2="966.730059" gradientUnits="userSpaceOnUse" y2="157.966539" id="fd162983d0"><stop stop-opacity="1" stop-color="rgb(100%, 82.699585%, 43.899536%)" offset="0"/><stop stop-opacity="1" stop-color="rgb(100%, 82.699585%, 43.899536%)" offset="0.093369"/><stop stop-opacity="1" stop-color="rgb(100%, 82.699585%, 43.899536%)" offset="0.5"/><stop stop-opacity="1" stop-color="rgb(100%, 82.699585%, 43.899536%)" offset="0.515625"/><stop stop-opacity="1" stop-color="rgb(98.963928%, 81.503296%, 42.28363%)" offset="0.519531"/><stop stop-opacity="1" stop-color="rgb(97.929382%, 80.308533%, 40.667725%)" offset="0.523438"/><stop stop-opacity="1" stop-color="rgb(95.620728%, 77.639771%, 37.060547%)" offset="0.527344"/><stop stop-opacity="1" stop-color="rgb(93.312073%, 74.972534%, 33.454895%)" offset="0.53125"/><stop stop-opacity="1" stop-color="rgb(91.001892%, 72.303772%, 29.847717%)" offset="0.535156"/><stop stop-opacity="1" stop-color="rgb(88.693237%, 69.636536%, 26.242065%)" offset="0.539062"/><stop stop-opacity="1" stop-color="rgb(86.384583%, 66.967773%, 22.636414%)" offset="0.542969"/><stop stop-opacity="1" stop-color="rgb(84.075928%, 64.300537%, 19.030762%)" offset="0.546875"/><stop stop-opacity="1" stop-color="rgb(81.765747%, 61.633301%, 15.423584%)" offset="0.550781"/><stop stop-opacity="1" stop-color="rgb(79.457092%, 58.966064%, 11.817932%)" offset="0.554688"/><stop stop-opacity="1" stop-color="rgb(77.177429%, 56.332397%, 8.258057%)" offset="0.558594"/><stop stop-opacity="1" stop-color="rgb(74.899292%, 53.69873%, 4.699707%)" offset="0.5625"/><stop stop-opacity="1" stop-color="rgb(74.899292%, 53.69873%, 4.699707%)" offset="0.625"/><stop stop-opacity="1" stop-color="rgb(74.899292%, 53.69873%, 4.699707%)" offset="0.75"/><stop stop-opacity="1" stop-color="rgb(74.899292%, 53.69873%, 4.699707%)" offset="0.906631"/><stop stop-opacity="1" stop-color="rgb(74.899292%, 53.69873%, 4.699707%)" offset="1"/></linearGradient><clipPath id="407db146d2"><path d="M 127 65 L 262 65 L 262 260 L 127 260 Z M 127 65 " clip-rule="nonzero"/></clipPath><clipPath id="b59ba60f89"><path d="M 127.355469 161.816406 L 127.355469 254.308594 C 127.355469 257.445312 130.792969 260.199219 133.929688 259.203125 L 133.984375 259.175781 C 131.71875 259.351562 129.578125 257.59375 129.578125 255.097656 L 129.578125 162.605469 C 129.578125 161.636719 129.785156 160.699219 130.164062 159.851562 C 130.738281 158.558594 131.707031 157.4375 132.988281 156.703125 L 219.316406 106.855469 L 219.316406 94.464844 C 219.316406 91.449219 220.925781 88.671875 223.542969 87.15625 L 258.066406 67.222656 C 259.359375 66.488281 260.792969 66.527344 261.949219 67.113281 C 261.417969 66.785156 258.488281 65.136719 255.828125 66.433594 L 221.320312 86.351562 C 218.703125 87.863281 217.09375 90.648438 217.09375 93.660156 L 217.09375 106.066406 L 130.765625 155.914062 C 129.59375 156.582031 128.691406 157.5625 128.105469 158.707031 C 127.628906 159.660156 127.355469 160.710938 127.355469 161.816406 Z M 127.355469 161.816406 " clip-rule="nonzero"/></clipPath><linearGradient x1="888.771921" gradientTransform="matrix(-0.526131, 0, 0, -0.526131, 670.896658, 344.484888)" y1="547.589281" x2="948.47721" gradientUnits="userSpaceOnUse" y2="147.57223" id="c65f233e03"><stop stop-opacity="1" stop-color="rgb(100%, 82.699585%, 43.899536%)" offset="0"/><stop stop-opacity="1" stop-color="rgb(100%, 82.699585%, 43.899536%)" offset="0.0933719"/><stop stop-opacity="1" stop-color="rgb(100%, 82.699585%, 43.899536%)" offset="0.5"/><stop stop-opacity="1" stop-color="rgb(100%, 82.699585%, 43.899536%)" offset="0.515625"/><stop stop-opacity="1" stop-color="rgb(98.965454%, 81.504822%, 42.28363%)" offset="0.519531"/><stop stop-opacity="1" stop-color="rgb(97.930908%, 80.310059%, 40.66925%)" offset="0.523438"/><stop stop-opacity="1" stop-color="rgb(95.620728%, 77.641296%, 37.062073%)" offset="0.527344"/><stop stop-opacity="1" stop-color="rgb(93.312073%, 74.972534%, 33.456421%)" offset="0.53125"/><stop stop-opacity="1" stop-color="rgb(91.001892%, 72.303772%, 29.849243%)" offset="0.535156"/><stop stop-opacity="1" stop-color="rgb(88.693237%, 69.636536%, 26.242065%)" offset="0.539062"/><stop stop-opacity="1" stop-color="rgb(86.384583%, 66.967773%, 22.634888%)" offset="0.542969"/><stop stop-opacity="1" stop-color="rgb(84.075928%, 64.300537%, 19.029236%)" offset="0.546875"/><stop stop-opacity="1" stop-color="rgb(81.765747%, 61.631775%, 15.422058%)" offset="0.550781"/><stop stop-opacity="1" stop-color="rgb(79.457092%, 58.964539%, 11.816406%)" offset="0.554688"/><stop stop-opacity="1" stop-color="rgb(77.177429%, 56.330872%, 8.258057%)" offset="0.558594"/><stop stop-opacity="1" stop-color="rgb(74.899292%, 53.69873%, 4.699707%)" offset="0.5625"/><stop stop-opacity="1" stop-color="rgb(74.899292%, 53.69873%, 4.699707%)" offset="0.625"/><stop stop-opacity="1" stop-color="rgb(74.899292%, 53.69873%, 4.699707%)" offset="0.75"/><stop stop-opacity="1" stop-color="rgb(74.899292%, 53.69873%, 4.699707%)" offset="0.906628"/><stop stop-opacity="1" stop-color="rgb(74.899292%, 53.69873%, 4.699707%)" offset="1"/></linearGradient><clipPath id="b2efc4b754"><path d="M 136 71 L 272 71 L 272 266 L 136 266 Z M 136 71 " clip-rule="nonzero"/></clipPath><clipPath id="a632deb510"><path d="M 136.886719 167.4375 L 136.886719 259.929688 C 136.886719 263.066406 140.324219 265.820312 143.457031 264.824219 L 143.511719 264.796875 C 141.25 264.972656 139.109375 263.214844 139.109375 260.71875 L 139.109375 168.226562 C 139.109375 167.257812 139.3125 166.320312 139.695312 165.472656 C 140.269531 164.179688 141.234375 163.058594 142.515625 162.324219 L 228.847656 112.476562 L 228.847656 100.085938 C 228.847656 97.070312 230.457031 94.292969 233.074219 92.777344 L 267.59375 72.84375 C 268.890625 72.109375 270.320312 72.148438 271.480469 72.734375 C 270.949219 72.410156 268.015625 70.757812 265.359375 72.054688 L 230.851562 91.972656 C 228.234375 93.484375 226.625 96.269531 226.625 99.28125 L 226.625 111.6875 L 140.296875 161.535156 C 139.121094 162.203125 138.222656 163.183594 137.636719 164.328125 C 137.160156 165.28125 136.886719 166.332031 136.886719 167.4375 Z M 136.886719 167.4375 " clip-rule="nonzero"/></clipPath><linearGradient x1="355.883708" gradientTransform="matrix(0.526131, 0, 0, -0.526131, 35.421784, 344.484888)" y1="547.420843" x2="235.738952" gradientUnits="userSpaceOnUse" y2="136.963279" id="26d31a54da"><stop stop-opacity="1" stop-color="rgb(34.498596%, 46.299744%, 58.399963%)" offset="0"/><stop stop-opacity="1" stop-color="rgb(34.498596%, 46.299744%, 58.399963%)" offset="0.168034"/><stop stop-opacity="1" stop-color="rgb(34.498596%, 46.299744%, 58.399963%)" offset="0.5"/><stop stop-opacity="1" stop-color="rgb(34.498596%, 46.299744%, 58.399963%)" offset="0.53125"/><stop stop-opacity="1" stop-color="rgb(34.498596%, 46.299744%, 58.399963%)" offset="0.546875"/><stop stop-opacity="1" stop-color="rgb(32.719421%, 44.451904%, 56.492615%)" offset="0.550781"/><stop stop-opacity="1" stop-color="rgb(30.941772%, 42.604065%, 54.585266%)" offset="0.554688"/><stop stop-opacity="1" stop-color="rgb(29.115295%, 40.707397%, 52.626038%)" offset="0.558594"/><stop stop-opacity="1" stop-color="rgb(27.288818%, 38.81073%, 50.668335%)" offset="0.5625"/><stop stop-opacity="1" stop-color="rgb(25.460815%, 36.914062%, 48.709106%)" offset="0.566406"/><stop stop-opacity="1" stop-color="rgb(23.634338%, 35.017395%, 46.751404%)" offset="0.570312"/><stop stop-opacity="1" stop-color="rgb(21.807861%, 33.119202%, 44.792175%)" offset="0.574219"/><stop stop-opacity="1" stop-color="rgb(19.981384%, 31.222534%, 42.834473%)" offset="0.578125"/><stop stop-opacity="1" stop-color="rgb(18.154907%, 29.325867%, 40.875244%)" offset="0.582031"/><stop stop-opacity="1" stop-color="rgb(16.32843%, 27.429199%, 38.917542%)" offset="0.585937"/><stop stop-opacity="1" stop-color="rgb(15.013123%, 26.063538%, 37.507629%)" offset="0.589844"/><stop stop-opacity="1" stop-color="rgb(13.699341%, 24.699402%, 36.099243%)" offset="0.59375"/><stop stop-opacity="1" stop-color="rgb(13.699341%, 24.699402%, 36.099243%)" offset="0.625"/><stop stop-opacity="1" stop-color="rgb(13.699341%, 24.699402%, 36.099243%)" offset="0.75"/><stop stop-opacity="1" stop-color="rgb(13.699341%, 24.699402%, 36.099243%)" offset="0.831966"/><stop stop-opacity="1" stop-color="rgb(13.699341%, 24.699402%, 36.099243%)" offset="1"/></linearGradient><clipPath id="f1b1ea0d15"><path d="M 146 77 L 282 77 L 282 271 L 146 271 Z M 146 77 " clip-rule="nonzero"/></clipPath><clipPath id="c8746f7291"><path d="M 146.492188 172.90625 L 146.492188 265.398438 C 146.492188 268.535156 149.925781 271.289062 153.0625 270.292969 L 153.117188 270.265625 C 150.851562 270.441406 148.714844 268.683594 148.714844 266.1875 L 148.714844 173.695312 C 148.714844 172.726562 148.917969 171.789062 149.300781 170.941406 C 149.871094 169.648438 150.839844 168.527344 152.121094 167.792969 L 238.449219 117.945312 L 238.449219 105.554688 C 238.449219 102.539062 240.058594 99.757812 242.675781 98.246094 L 277.199219 78.3125 C 278.492188 77.578125 279.925781 77.617188 281.085938 78.203125 C 280.550781 77.875 277.621094 76.226562 274.960938 77.523438 L 240.457031 97.441406 C 237.835938 98.953125 236.230469 101.738281 236.230469 104.75 L 236.230469 117.15625 L 149.898438 167 C 148.726562 167.671875 147.828125 168.652344 147.242188 169.796875 C 146.761719 170.75 146.492188 171.800781 146.492188 172.90625 Z M 146.492188 172.90625 " clip-rule="nonzero"/></clipPath><linearGradient x1="376.445734" gradientTransform="matrix(0.526131, 0, 0, -0.526131, 35.421784, 344.484888)" y1="537.900541" x2="249.235357" gradientUnits="userSpaceOnUse" y2="127.309321" id="4cd4e809f3"><stop stop-opacity="1" stop-color="rgb(34.498596%, 46.299744%, 58.399963%)" offset="0"/><stop stop-opacity="1" stop-color="rgb(34.498596%, 46.299744%, 58.399963%)" offset="0.176127"/><stop stop-opacity="1" stop-color="rgb(34.498596%, 46.299744%, 58.399963%)" offset="0.5"/><stop stop-opacity="1" stop-color="rgb(34.498596%, 46.299744%, 58.399963%)" offset="0.53125"/><stop stop-opacity="1" stop-color="rgb(34.498596%, 46.299744%, 58.399963%)" offset="0.546875"/><stop stop-opacity="1" stop-color="rgb(33.421326%, 45.181274%, 57.244873%)" offset="0.550781"/><stop stop-opacity="1" stop-color="rgb(32.345581%, 44.062805%, 56.089783%)" offset="0.554688"/><stop stop-opacity="1" stop-color="rgb(30.235291%, 41.870117%, 53.826904%)" offset="0.558594"/><stop stop-opacity="1" stop-color="rgb(28.125%, 39.678955%, 51.565552%)" offset="0.5625"/><stop stop-opacity="1" stop-color="rgb(26.014709%, 37.487793%, 49.302673%)" offset="0.566406"/><stop stop-opacity="1" stop-color="rgb(23.904419%, 35.296631%, 47.039795%)" offset="0.570312"/><stop stop-opacity="1" stop-color="rgb(21.794128%, 33.105469%, 44.776917%)" offset="0.574219"/><stop stop-opacity="1" stop-color="rgb(19.683838%, 30.914307%, 42.515564%)" offset="0.578125"/><stop stop-opacity="1" stop-color="rgb(17.573547%, 28.721619%, 40.252686%)" offset="0.582031"/><stop stop-opacity="1" stop-color="rgb(15.463257%, 26.530457%, 37.989807%)" offset="0.585938"/><stop stop-opacity="1" stop-color="rgb(14.581299%, 25.614929%, 37.043762%)" offset="0.589844"/><stop stop-opacity="1" stop-color="rgb(13.699341%, 24.699402%, 36.099243%)" offset="0.59375"/><stop stop-opacity="1" stop-color="rgb(13.699341%, 24.699402%, 36.099243%)" offset="0.625"/><stop stop-opacity="1" stop-color="rgb(13.699341%, 24.699402%, 36.099243%)" offset="0.75"/><stop stop-opacity="1" stop-color="rgb(13.699341%, 24.699402%, 36.099243%)" offset="0.823873"/><stop stop-opacity="1" stop-color="rgb(13.699341%, 24.699402%, 36.099243%)" offset="1"/></linearGradient><clipPath id="96600c65f0"><path d="M 156 82 L 291 82 L 291 277 L 156 277 Z M 156 82 " clip-rule="nonzero"/></clipPath><clipPath id="e4503af0be"><path d="M 156.019531 178.527344 L 156.019531 271.019531 C 156.019531 274.15625 159.457031 276.910156 162.59375 275.914062 L 162.648438 275.886719 C 160.382812 276.0625 158.242188 274.304688 158.242188 271.808594 L 158.242188 179.316406 C 158.242188 178.351562 158.449219 177.410156 158.828125 176.5625 C 159.402344 175.269531 160.371094 174.152344 161.652344 173.414062 L 247.980469 123.570312 L 247.980469 111.175781 C 247.980469 108.164062 249.589844 105.382812 252.207031 103.867188 L 286.726562 83.933594 C 288.023438 83.199219 289.457031 83.238281 290.613281 83.824219 C 290.082031 83.5 287.152344 81.847656 284.492188 83.144531 L 249.984375 103.0625 C 247.367188 104.578125 245.757812 107.359375 245.757812 110.371094 L 245.757812 122.777344 L 159.429688 172.625 C 158.257812 173.292969 157.355469 174.273438 156.769531 175.417969 C 156.292969 176.371094 156.019531 177.421875 156.019531 178.527344 Z M 156.019531 178.527344 " clip-rule="nonzero"/></clipPath><linearGradient x1="834.294127" gradientTransform="matrix(-0.526131, 0, 0, -0.526131, 670.896658, 344.484888)" y1="515.824612" x2="893.995649" gradientUnits="userSpaceOnUse" y2="115.809724" id="2d5e291a16"><stop stop-opacity="1" stop-color="rgb(100%, 82.699585%, 43.899536%)" offset="0"/><stop stop-opacity="1" stop-color="rgb(100%, 82.699585%, 43.899536%)" offset="0.0933673"/><stop stop-opacity="1" stop-color="rgb(100%, 82.699585%, 43.899536%)" offset="0.5"/><stop stop-opacity="1" stop-color="rgb(100%, 82.699585%, 43.899536%)" offset="0.515625"/><stop stop-opacity="1" stop-color="rgb(98.963928%, 81.503296%, 42.282104%)" offset="0.519531"/><stop stop-opacity="1" stop-color="rgb(97.929382%, 80.307007%, 40.666199%)" offset="0.523438"/><stop stop-opacity="1" stop-color="rgb(95.619202%, 77.638245%, 37.059021%)" offset="0.527344"/><stop stop-opacity="1" stop-color="rgb(93.310547%, 74.971008%, 33.453369%)" offset="0.53125"/><stop stop-opacity="1" stop-color="rgb(91.000366%, 72.302246%, 29.846191%)" offset="0.535156"/><stop stop-opacity="1" stop-color="rgb(88.691711%, 69.63501%, 26.24054%)" offset="0.539062"/><stop stop-opacity="1" stop-color="rgb(86.383057%, 66.966248%, 22.633362%)" offset="0.542969"/><stop stop-opacity="1" stop-color="rgb(84.074402%, 64.299011%, 19.02771%)" offset="0.546875"/><stop stop-opacity="1" stop-color="rgb(81.764221%, 61.630249%, 15.420532%)" offset="0.550781"/><stop stop-opacity="1" stop-color="rgb(79.455566%, 58.963013%, 11.81488%)" offset="0.554688"/><stop stop-opacity="1" stop-color="rgb(77.177429%, 56.330872%, 8.256531%)" offset="0.558594"/><stop stop-opacity="1" stop-color="rgb(74.899292%, 53.69873%, 4.699707%)" offset="0.5625"/><stop stop-opacity="1" stop-color="rgb(74.899292%, 53.69873%, 4.699707%)" offset="0.625"/><stop stop-opacity="1" stop-color="rgb(74.899292%, 53.69873%, 4.699707%)" offset="0.75"/><stop stop-opacity="1" stop-color="rgb(74.899292%, 53.69873%, 4.699707%)" offset="0.906633"/><stop stop-opacity="1" stop-color="rgb(74.899292%, 53.69873%, 4.699707%)" offset="1"/></linearGradient><clipPath id="694f9fa427"><path d="M 165 88 L 301 88 L 301 282 L 165 282 Z M 165 88 " clip-rule="nonzero"/></clipPath><clipPath id="d99be37cf5"><path d="M 165.625 183.996094 L 165.625 276.488281 C 165.625 279.625 169.058594 282.378906 172.195312 281.382812 L 172.25 281.355469 C 169.988281 281.53125 167.847656 279.773438 167.847656 277.277344 L 167.847656 184.785156 C 167.847656 183.816406 168.050781 182.878906 168.433594 182.03125 C 169.007812 180.738281 169.972656 179.617188 171.253906 178.882812 L 257.585938 129.035156 L 257.585938 116.644531 C 257.585938 113.628906 259.195312 110.847656 261.8125 109.335938 L 296.332031 89.402344 C 297.628906 88.667969 299.058594 88.707031 300.21875 89.292969 C 299.6875 88.964844 296.753906 87.316406 294.097656 88.613281 L 259.589844 108.53125 C 256.972656 110.042969 255.363281 112.828125 255.363281 115.839844 L 255.363281 128.246094 L 169.03125 178.089844 C 167.859375 178.761719 166.960938 179.742188 166.375 180.886719 C 165.898438 181.839844 165.625 182.890625 165.625 183.996094 Z M 165.625 183.996094 " clip-rule="nonzero"/></clipPath><linearGradient x1="816.03823" gradientTransform="matrix(-0.526131, 0, 0, -0.526131, 670.896658, 344.484888)" y1="505.433607" x2="875.74475" gradientUnits="userSpaceOnUse" y2="105.416199" id="147ada37fd"><stop stop-opacity="1" stop-color="rgb(100%, 82.699585%, 43.899536%)" offset="0"/><stop stop-opacity="1" stop-color="rgb(100%, 82.699585%, 43.899536%)" offset="0.0933736"/><stop stop-opacity="1" stop-color="rgb(100%, 82.699585%, 43.899536%)" offset="0.5"/><stop stop-opacity="1" stop-color="rgb(100%, 82.699585%, 43.899536%)" offset="0.515625"/><stop stop-opacity="1" stop-color="rgb(98.965454%, 81.504822%, 42.28363%)" offset="0.519531"/><stop stop-opacity="1" stop-color="rgb(97.930908%, 80.310059%, 40.66925%)" offset="0.523438"/><stop stop-opacity="1" stop-color="rgb(95.620728%, 77.641296%, 37.062073%)" offset="0.527344"/><stop stop-opacity="1" stop-color="rgb(93.312073%, 74.97406%, 33.456421%)" offset="0.53125"/><stop stop-opacity="1" stop-color="rgb(91.001892%, 72.305298%, 29.849243%)" offset="0.535156"/><stop stop-opacity="1" stop-color="rgb(88.693237%, 69.638062%, 26.243591%)" offset="0.539063"/><stop stop-opacity="1" stop-color="rgb(86.384583%, 66.969299%, 22.636414%)" offset="0.542969"/><stop stop-opacity="1" stop-color="rgb(84.075928%, 64.300537%, 19.030762%)" offset="0.546875"/><stop stop-opacity="1" stop-color="rgb(81.765747%, 61.631775%, 15.423584%)" offset="0.550781"/><stop stop-opacity="1" stop-color="rgb(79.457092%, 58.964539%, 11.816406%)" offset="0.554688"/><stop stop-opacity="1" stop-color="rgb(77.177429%, 56.330872%, 8.258057%)" offset="0.558594"/><stop stop-opacity="1" stop-color="rgb(74.899292%, 53.69873%, 4.699707%)" offset="0.5625"/><stop stop-opacity="1" stop-color="rgb(74.899292%, 53.69873%, 4.699707%)" offset="0.625"/><stop stop-opacity="1" stop-color="rgb(74.899292%, 53.69873%, 4.699707%)" offset="0.75"/><stop stop-opacity="1" stop-color="rgb(74.899292%, 53.69873%, 4.699707%)" offset="0.906626"/><stop stop-opacity="1" stop-color="rgb(74.899292%, 53.69873%, 4.699707%)" offset="1"/></linearGradient><clipPath id="9ad0eeab49"><path d="M 50.625 131 L 167 131 L 167 304 L 50.625 304 Z M 50.625 131 " clip-rule="nonzero"/></clipPath><clipPath id="4b5ef432c6"><path d="M 50.625 130 L 169 130 L 169 199 L 50.625 199 Z M 50.625 130 " clip-rule="nonzero"/></clipPath><clipPath id="840a5f0be9"><path d="M 166 107 L 324.375 107 L 324.375 304 L 166 304 Z M 166 107 " clip-rule="nonzero"/></clipPath><clipPath id="260bb982c6"><path d="M 164 106 L 324.375 106 L 324.375 199 L 164 199 Z M 164 106 " clip-rule="nonzero"/></clipPath><clipPath id="e9c723c9fb"><path d="M 54 305 L 128 305 L 128 337.5 L 54 337.5 Z M 54 305 " clip-rule="nonzero"/></clipPath><clipPath id="5414f53cae"><path d="M 70 309 L 78 309 L 78 320 L 70 320 Z M 70 309 " clip-rule="nonzero"/></clipPath><clipPath id="87f20fd1ef"><path d="M 71.105469 309.023438 L 70.621094 316.585938 C 70.613281 316.75 70.640625 316.972656 70.707031 317.207031 C 70.707031 317.214844 70.714844 317.21875 70.714844 317.21875 C 71.714844 318.117188 71.824219 319.824219 75.523438 318.632812 C 76.269531 318.398438 76.917969 317.855469 77.226562 317.132812 C 77.511719 316.441406 77.59375 315.464844 76.890625 314.230469 C 76.835938 314.132812 76.894531 314.011719 76.980469 313.976562 L 76.992188 309.402344 C 76.992188 309.402344 71.105469 309.023438 71.105469 309.023438 Z M 71.105469 309.023438 " clip-rule="nonzero"/></clipPath><linearGradient x1="546.887116" gradientTransform="matrix(-0.525052, -0.0336775, 0.0336775, -0.525052, 364.044676, 349.078333)" y1="30.878" x2="561.447817" gradientUnits="userSpaceOnUse" y2="30.878" id="58832f43f4"><stop stop-opacity="1" stop-color="rgb(95.698547%, 68.998718%, 45.899963%)" offset="0"/><stop stop-opacity="1" stop-color="rgb(95.698547%, 68.93158%, 45.863342%)" offset="0.0625"/><stop stop-opacity="1" stop-color="rgb(95.698547%, 68.722534%, 45.755005%)" offset="0.09375"/><stop stop-opacity="1" stop-color="rgb(95.698547%, 68.440247%, 45.606995%)" offset="0.125"/><stop stop-opacity="1" stop-color="rgb(95.698547%, 68.157959%, 45.46051%)" offset="0.15625"/><stop stop-opacity="1" stop-color="rgb(95.698547%, 67.875671%, 45.3125%)" offset="0.1875"/><stop stop-opacity="1" stop-color="rgb(95.698547%, 67.593384%, 45.166016%)" offset="0.21875"/><stop stop-opacity="1" stop-color="rgb(95.698547%, 67.311096%, 45.018005%)" offset="0.25"/><stop stop-opacity="1" stop-color="rgb(95.698547%, 67.028809%, 44.871521%)" offset="0.28125"/><stop stop-opacity="1" stop-color="rgb(95.698547%, 66.696167%, 44.703674%)" offset="0.3125"/><stop stop-opacity="1" stop-color="rgb(95.698547%, 66.358948%, 44.543457%)" offset="0.328125"/><stop stop-opacity="1" stop-color="rgb(95.698547%, 66.067505%, 44.410706%)" offset="0.34375"/><stop stop-opacity="1" stop-color="rgb(95.698547%, 65.774536%, 44.276428%)" offset="0.359375"/><stop stop-opacity="1" stop-color="rgb(95.698547%, 65.483093%, 44.142151%)" offset="0.375"/><stop stop-opacity="1" stop-color="rgb(95.698547%, 65.19165%, 44.009399%)" offset="0.390625"/><stop stop-opacity="1" stop-color="rgb(95.698547%, 64.898682%, 43.875122%)" offset="0.40625"/><stop stop-opacity="1" stop-color="rgb(95.698547%, 64.607239%, 43.742371%)" offset="0.421875"/><stop stop-opacity="1" stop-color="rgb(95.698547%, 64.31427%, 43.608093%)" offset="0.4375"/><stop stop-opacity="1" stop-color="rgb(95.698547%, 64.022827%, 43.473816%)" offset="0.453125"/><stop stop-opacity="1" stop-color="rgb(95.698547%, 63.731384%, 43.341064%)" offset="0.46875"/><stop stop-opacity="1" stop-color="rgb(95.698547%, 63.438416%, 43.206787%)" offset="0.484375"/><stop stop-opacity="1" stop-color="rgb(95.698547%, 63.146973%, 43.074036%)" offset="0.5"/><stop stop-opacity="1" stop-color="rgb(95.698547%, 62.854004%, 42.939758%)" offset="0.515625"/><stop stop-opacity="1" stop-color="rgb(95.698547%, 62.562561%, 42.805481%)" offset="0.53125"/><stop stop-opacity="1" stop-color="rgb(95.698547%, 62.271118%, 42.672729%)" offset="0.546875"/><stop stop-opacity="1" stop-color="rgb(95.698547%, 61.978149%, 42.538452%)" offset="0.5625"/><stop stop-opacity="1" stop-color="rgb(95.698547%, 61.686707%, 42.405701%)" offset="0.578125"/><stop stop-opacity="1" stop-color="rgb(95.698547%, 61.393738%, 42.271423%)" offset="0.59375"/><stop stop-opacity="1" stop-color="rgb(95.698547%, 61.102295%, 42.137146%)" offset="0.609375"/><stop stop-opacity="1" stop-color="rgb(95.698547%, 60.778809%, 41.993713%)" offset="0.625"/><stop stop-opacity="1" stop-color="rgb(95.698547%, 60.494995%, 41.871643%)" offset="0.632813"/><stop stop-opacity="1" stop-color="rgb(95.698547%, 60.281372%, 41.781616%)" offset="0.640625"/><stop stop-opacity="1" stop-color="rgb(95.698547%, 60.066223%, 41.691589%)" offset="0.648438"/><stop stop-opacity="1" stop-color="rgb(95.698547%, 59.8526%, 41.603088%)" offset="0.65625"/><stop stop-opacity="1" stop-color="rgb(95.698547%, 59.638977%, 41.513062%)" offset="0.664063"/><stop stop-opacity="1" stop-color="rgb(95.698547%, 59.423828%, 41.423035%)" offset="0.671875"/><stop stop-opacity="1" stop-color="rgb(95.698547%, 59.210205%, 41.333008%)" offset="0.679688"/><stop stop-opacity="1" stop-color="rgb(95.698547%, 58.996582%, 41.244507%)" offset="0.6875"/><stop stop-opacity="1" stop-color="rgb(95.698547%, 58.782959%, 41.15448%)" offset="0.695313"/><stop stop-opacity="1" stop-color="rgb(95.698547%, 58.56781%, 41.064453%)" offset="0.703125"/><stop stop-opacity="1" stop-color="rgb(95.698547%, 58.354187%, 40.975952%)" offset="0.710938"/><stop stop-opacity="1" stop-color="rgb(95.698547%, 58.140564%, 40.885925%)" offset="0.71875"/><stop stop-opacity="1" stop-color="rgb(95.698547%, 57.925415%, 40.795898%)" offset="0.726563"/><stop stop-opacity="1" stop-color="rgb(95.698547%, 57.711792%, 40.705872%)" offset="0.734375"/><stop stop-opacity="1" stop-color="rgb(95.698547%, 57.498169%, 40.617371%)" offset="0.742188"/><stop stop-opacity="1" stop-color="rgb(95.698547%, 57.284546%, 40.527344%)" offset="0.75"/><stop stop-opacity="1" stop-color="rgb(95.698547%, 57.069397%, 40.437317%)" offset="0.757813"/><stop stop-opacity="1" stop-color="rgb(95.698547%, 56.855774%, 40.34729%)" offset="0.765625"/><stop stop-opacity="1" stop-color="rgb(95.698547%, 56.642151%, 40.258789%)" offset="0.773438"/><stop stop-opacity="1" stop-color="rgb(95.698547%, 56.427002%, 40.168762%)" offset="0.78125"/><stop stop-opacity="1" stop-color="rgb(95.698547%, 56.213379%, 40.078735%)" offset="0.789062"/><stop stop-opacity="1" stop-color="rgb(95.698547%, 55.999756%, 39.990234%)" offset="0.796875"/><stop stop-opacity="1" stop-color="rgb(95.698547%, 55.786133%, 39.900208%)" offset="0.804688"/><stop stop-opacity="1" stop-color="rgb(95.698547%, 55.570984%, 39.810181%)" offset="0.8125"/><stop stop-opacity="1" stop-color="rgb(95.698547%, 55.357361%, 39.720154%)" offset="0.820312"/><stop stop-opacity="1" stop-color="rgb(95.698547%, 55.143738%, 39.631653%)" offset="0.828125"/><stop stop-opacity="1" stop-color="rgb(95.698547%, 54.928589%, 39.541626%)" offset="0.835938"/><stop stop-opacity="1" stop-color="rgb(95.698547%, 54.714966%, 39.451599%)" offset="0.84375"/><stop stop-opacity="1" stop-color="rgb(95.698547%, 54.501343%, 39.363098%)" offset="0.851562"/><stop stop-opacity="1" stop-color="rgb(95.698547%, 54.28772%, 39.273071%)" offset="0.859375"/><stop stop-opacity="1" stop-color="rgb(95.698547%, 54.072571%, 39.183044%)" offset="0.867188"/><stop stop-opacity="1" stop-color="rgb(95.698547%, 53.858948%, 39.093018%)" offset="0.875"/><stop stop-opacity="1" stop-color="rgb(95.698547%, 53.645325%, 39.004517%)" offset="0.882812"/><stop stop-opacity="1" stop-color="rgb(95.698547%, 53.430176%, 38.91449%)" offset="0.890625"/><stop stop-opacity="1" stop-color="rgb(95.698547%, 53.216553%, 38.824463%)" offset="0.898438"/><stop stop-opacity="1" stop-color="rgb(95.698547%, 53.00293%, 38.734436%)" offset="0.90625"/><stop stop-opacity="1" stop-color="rgb(95.698547%, 52.789307%, 38.645935%)" offset="0.914063"/><stop stop-opacity="1" stop-color="rgb(95.698547%, 52.574158%, 38.555908%)" offset="0.921875"/><stop stop-opacity="1" stop-color="rgb(95.698547%, 52.333069%, 38.4552%)" offset="0.9375"/><stop stop-opacity="1" stop-color="rgb(95.698547%, 52.198792%, 38.398743%)" offset="1"/></linearGradient><clipPath id="2337aa0a9c"><path d="M 91 311 L 99 311 L 99 322 L 91 322 Z M 91 311 " clip-rule="nonzero"/></clipPath><clipPath id="af90539049"><path d="M 92.011719 311.691406 L 91.523438 319.25 C 91.515625 319.417969 91.542969 319.636719 91.609375 319.871094 C 91.609375 319.882812 91.621094 319.882812 91.621094 319.882812 C 92.617188 320.78125 92.726562 322.492188 96.425781 321.296875 C 97.171875 321.0625 97.824219 320.519531 98.128906 319.800781 C 98.414062 319.109375 98.5 318.132812 97.796875 316.898438 C 97.738281 316.800781 97.800781 316.679688 97.882812 316.640625 L 97.894531 312.070312 Z M 92.011719 311.691406 " clip-rule="nonzero"/></clipPath><linearGradient x1="506.913254" gradientTransform="matrix(-0.525052, -0.0336775, 0.0336775, -0.525052, 364.044676, 349.078333)" y1="28.364" x2="521.474953" gradientUnits="userSpaceOnUse" y2="28.364" id="659ad1380b"><stop stop-opacity="1" stop-color="rgb(95.698547%, 68.998718%, 45.899963%)" offset="0"/><stop stop-opacity="1" stop-color="rgb(95.698547%, 68.930054%, 45.863342%)" offset="0.0625"/><stop stop-opacity="1" stop-color="rgb(95.698547%, 68.721008%, 45.753479%)" offset="0.09375"/><stop stop-opacity="1" stop-color="rgb(95.698547%, 68.438721%, 45.606995%)" offset="0.125"/><stop stop-opacity="1" stop-color="rgb(95.698547%, 68.156433%, 45.458984%)" offset="0.15625"/><stop stop-opacity="1" stop-color="rgb(95.698547%, 67.874146%, 45.3125%)" offset="0.1875"/><stop stop-opacity="1" stop-color="rgb(95.698547%, 67.591858%, 45.16449%)" offset="0.21875"/><stop stop-opacity="1" stop-color="rgb(95.698547%, 67.30957%, 45.018005%)" offset="0.25"/><stop stop-opacity="1" stop-color="rgb(95.698547%, 67.027283%, 44.869995%)" offset="0.28125"/><stop stop-opacity="1" stop-color="rgb(95.698547%, 66.694641%, 44.703674%)" offset="0.3125"/><stop stop-opacity="1" stop-color="rgb(95.698547%, 66.357422%, 44.543457%)" offset="0.328125"/><stop stop-opacity="1" stop-color="rgb(95.698547%, 66.065979%, 44.40918%)" offset="0.34375"/><stop stop-opacity="1" stop-color="rgb(95.698547%, 65.774536%, 44.274902%)" offset="0.359375"/><stop stop-opacity="1" stop-color="rgb(95.698547%, 65.481567%, 44.142151%)" offset="0.375"/><stop stop-opacity="1" stop-color="rgb(95.698547%, 65.190125%, 44.007874%)" offset="0.390625"/><stop stop-opacity="1" stop-color="rgb(95.698547%, 64.897156%, 43.875122%)" offset="0.40625"/><stop stop-opacity="1" stop-color="rgb(95.698547%, 64.605713%, 43.740845%)" offset="0.421875"/><stop stop-opacity="1" stop-color="rgb(95.698547%, 64.31427%, 43.608093%)" offset="0.4375"/><stop stop-opacity="1" stop-color="rgb(95.698547%, 64.021301%, 43.473816%)" offset="0.453125"/><stop stop-opacity="1" stop-color="rgb(95.698547%, 63.729858%, 43.339539%)" offset="0.46875"/><stop stop-opacity="1" stop-color="rgb(95.698547%, 63.43689%, 43.206787%)" offset="0.484375"/><stop stop-opacity="1" stop-color="rgb(95.698547%, 63.145447%, 43.07251%)" offset="0.5"/><stop stop-opacity="1" stop-color="rgb(95.698547%, 62.852478%, 42.939758%)" offset="0.515625"/><stop stop-opacity="1" stop-color="rgb(95.698547%, 62.561035%, 42.805481%)" offset="0.53125"/><stop stop-opacity="1" stop-color="rgb(95.698547%, 62.269592%, 42.671204%)" offset="0.546875"/><stop stop-opacity="1" stop-color="rgb(95.698547%, 61.976624%, 42.538452%)" offset="0.5625"/><stop stop-opacity="1" stop-color="rgb(95.698547%, 61.685181%, 42.404175%)" offset="0.578125"/><stop stop-opacity="1" stop-color="rgb(95.698547%, 61.392212%, 42.271423%)" offset="0.59375"/><stop stop-opacity="1" stop-color="rgb(95.698547%, 61.100769%, 42.137146%)" offset="0.609375"/><stop stop-opacity="1" stop-color="rgb(95.698547%, 60.777283%, 41.992188%)" offset="0.625"/><stop stop-opacity="1" stop-color="rgb(95.698547%, 60.491943%, 41.870117%)" offset="0.632812"/><stop stop-opacity="1" stop-color="rgb(95.698547%, 60.27832%, 41.78009%)" offset="0.640625"/><stop stop-opacity="1" stop-color="rgb(95.698547%, 60.064697%, 41.691589%)" offset="0.648438"/><stop stop-opacity="1" stop-color="rgb(95.698547%, 59.851074%, 41.601562%)" offset="0.65625"/><stop stop-opacity="1" stop-color="rgb(95.698547%, 59.635925%, 41.511536%)" offset="0.664063"/><stop stop-opacity="1" stop-color="rgb(95.698547%, 59.422302%, 41.423035%)" offset="0.671875"/><stop stop-opacity="1" stop-color="rgb(95.698547%, 59.208679%, 41.333008%)" offset="0.679688"/><stop stop-opacity="1" stop-color="rgb(95.698547%, 58.99353%, 41.242981%)" offset="0.6875"/><stop stop-opacity="1" stop-color="rgb(95.698547%, 58.779907%, 41.152954%)" offset="0.695313"/><stop stop-opacity="1" stop-color="rgb(95.698547%, 58.566284%, 41.064453%)" offset="0.703125"/><stop stop-opacity="1" stop-color="rgb(95.698547%, 58.352661%, 40.974426%)" offset="0.710938"/><stop stop-opacity="1" stop-color="rgb(95.698547%, 58.137512%, 40.884399%)" offset="0.71875"/><stop stop-opacity="1" stop-color="rgb(95.698547%, 57.923889%, 40.795898%)" offset="0.726562"/><stop stop-opacity="1" stop-color="rgb(95.698547%, 57.710266%, 40.705872%)" offset="0.734375"/><stop stop-opacity="1" stop-color="rgb(95.698547%, 57.496643%, 40.615845%)" offset="0.742188"/><stop stop-opacity="1" stop-color="rgb(95.698547%, 57.281494%, 40.525818%)" offset="0.75"/><stop stop-opacity="1" stop-color="rgb(95.698547%, 57.067871%, 40.437317%)" offset="0.757813"/><stop stop-opacity="1" stop-color="rgb(95.698547%, 56.854248%, 40.34729%)" offset="0.765625"/><stop stop-opacity="1" stop-color="rgb(95.698547%, 56.639099%, 40.257263%)" offset="0.773438"/><stop stop-opacity="1" stop-color="rgb(95.698547%, 56.425476%, 40.167236%)" offset="0.78125"/><stop stop-opacity="1" stop-color="rgb(95.698547%, 56.211853%, 40.078735%)" offset="0.789062"/><stop stop-opacity="1" stop-color="rgb(95.698547%, 55.99823%, 39.988708%)" offset="0.796875"/><stop stop-opacity="1" stop-color="rgb(95.698547%, 55.783081%, 39.898682%)" offset="0.804688"/><stop stop-opacity="1" stop-color="rgb(95.698547%, 55.569458%, 39.810181%)" offset="0.8125"/><stop stop-opacity="1" stop-color="rgb(95.698547%, 55.355835%, 39.720154%)" offset="0.820313"/><stop stop-opacity="1" stop-color="rgb(95.698547%, 55.140686%, 39.630127%)" offset="0.828125"/><stop stop-opacity="1" stop-color="rgb(95.698547%, 54.927063%, 39.5401%)" offset="0.835938"/><stop stop-opacity="1" stop-color="rgb(95.698547%, 54.71344%, 39.451599%)" offset="0.84375"/><stop stop-opacity="1" stop-color="rgb(95.698547%, 54.499817%, 39.361572%)" offset="0.851563"/><stop stop-opacity="1" stop-color="rgb(95.698547%, 54.284668%, 39.271545%)" offset="0.859375"/><stop stop-opacity="1" stop-color="rgb(95.698547%, 54.071045%, 39.183044%)" offset="0.867188"/><stop stop-opacity="1" stop-color="rgb(95.698547%, 53.857422%, 39.093018%)" offset="0.875"/><stop stop-opacity="1" stop-color="rgb(95.698547%, 53.642273%, 39.002991%)" offset="0.882812"/><stop stop-opacity="1" stop-color="rgb(95.698547%, 53.42865%, 38.912964%)" offset="0.890625"/><stop stop-opacity="1" stop-color="rgb(95.698547%, 53.215027%, 38.824463%)" offset="0.898438"/><stop stop-opacity="1" stop-color="rgb(95.698547%, 53.001404%, 38.734436%)" offset="0.90625"/><stop stop-opacity="1" stop-color="rgb(95.698547%, 52.786255%, 38.644409%)" offset="0.914062"/><stop stop-opacity="1" stop-color="rgb(95.698547%, 52.572632%, 38.554382%)" offset="0.921875"/><stop stop-opacity="1" stop-color="rgb(95.698547%, 52.331543%, 38.453674%)" offset="0.9375"/><stop stop-opacity="1" stop-color="rgb(95.698547%, 52.198792%, 38.398743%)" offset="1"/></linearGradient><clipPath id="8ffa2dc5c0"><path d="M 129 157 L 165 157 L 165 192 L 129 192 Z M 129 157 " clip-rule="nonzero"/></clipPath><clipPath id="501dc002c9"><path d="M 129.953125 177.21875 C 130.085938 175.367188 140.429688 171.929688 148.21875 162.390625 C 148.21875 162.390625 152.054688 157.871094 153.332031 157.871094 C 154.609375 157.871094 163.921875 157.871094 163.921875 157.871094 C 163.921875 157.871094 164.3125 158.230469 164.441406 158.863281 C 164.617188 159.730469 163.675781 160.304688 163.011719 160.304688 L 157.128906 160.304688 C 156.679688 160.304688 155.773438 161.410156 155.929688 161.976562 C 156.460938 163.894531 157.84375 167.710938 154.152344 170.425781 C 153.828125 170.664062 153.417969 170.777344 153.015625 170.777344 L 150.128906 170.777344 C 149.460938 170.777344 148.828125 171.078125 148.410156 171.601562 L 131.699219 191.222656 C 131.699219 191.222656 129.332031 185.878906 129.953125 177.21875 Z M 129.953125 177.21875 " clip-rule="nonzero"/></clipPath><linearGradient x1="380.537705" gradientTransform="matrix(-0.526131, 0, 0, -0.526131, 366.117306, 344.484888)" y1="350.747614" x2="457.358877" gradientUnits="userSpaceOnUse" y2="303.079165" id="b0d309686c"><stop stop-opacity="1" stop-color="rgb(94.099426%, 75.299072%, 56.098938%)" offset="0"/><stop stop-opacity="1" stop-color="rgb(94.099426%, 75.163269%, 55.996704%)" offset="0.25"/><stop stop-opacity="1" stop-color="rgb(94.099426%, 74.835205%, 55.751038%)" offset="0.3125"/><stop stop-opacity="1" stop-color="rgb(94.099426%, 74.450684%, 55.462646%)" offset="0.369671"/><stop stop-opacity="1" stop-color="rgb(94.099426%, 74.259949%, 55.319214%)" offset="0.375"/><stop stop-opacity="1" stop-color="rgb(94.099426%, 74.067688%, 55.174255%)" offset="0.4375"/><stop stop-opacity="1" stop-color="rgb(94.100952%, 73.762512%, 54.946899%)" offset="0.46875"/><stop stop-opacity="1" stop-color="rgb(94.116211%, 73.503113%, 54.753113%)" offset="0.484375"/><stop stop-opacity="1" stop-color="rgb(94.140625%, 73.208618%, 54.533386%)" offset="0.5"/><stop stop-opacity="1" stop-color="rgb(94.165039%, 72.914124%, 54.315186%)" offset="0.515625"/><stop stop-opacity="1" stop-color="rgb(94.190979%, 72.621155%, 54.095459%)" offset="0.53125"/><stop stop-opacity="1" stop-color="rgb(94.215393%, 72.32666%, 53.877258%)" offset="0.546875"/><stop stop-opacity="1" stop-color="rgb(94.241333%, 72.032166%, 53.657532%)" offset="0.5625"/><stop stop-opacity="1" stop-color="rgb(94.265747%, 71.737671%, 53.439331%)" offset="0.578125"/><stop stop-opacity="1" stop-color="rgb(94.290161%, 71.444702%, 53.219604%)" offset="0.59375"/><stop stop-opacity="1" stop-color="rgb(94.316101%, 71.150208%, 53.001404%)" offset="0.609375"/><stop stop-opacity="1" stop-color="rgb(94.340515%, 70.855713%, 52.781677%)" offset="0.625"/><stop stop-opacity="1" stop-color="rgb(94.366455%, 70.561218%, 52.563477%)" offset="0.630329"/><stop stop-opacity="1" stop-color="rgb(94.378662%, 70.414734%, 52.453613%)" offset="0.640625"/><stop stop-opacity="1" stop-color="rgb(94.390869%, 70.266724%, 52.34375%)" offset="0.65625"/><stop stop-opacity="1" stop-color="rgb(94.415283%, 69.973755%, 52.124023%)" offset="0.671875"/><stop stop-opacity="1" stop-color="rgb(94.441223%, 69.67926%, 51.905823%)" offset="0.6875"/><stop stop-opacity="1" stop-color="rgb(94.465637%, 69.384766%, 51.686096%)" offset="0.703125"/><stop stop-opacity="1" stop-color="rgb(94.491577%, 69.073486%, 51.452637%)" offset="0.71875"/><stop stop-opacity="1" stop-color="rgb(94.509888%, 68.791199%, 51.234436%)" offset="0.726563"/><stop stop-opacity="1" stop-color="rgb(94.523621%, 68.554688%, 51.045227%)" offset="0.734375"/><stop stop-opacity="1" stop-color="rgb(94.535828%, 68.318176%, 50.856018%)" offset="0.742188"/><stop stop-opacity="1" stop-color="rgb(94.548035%, 68.080139%, 50.666809%)" offset="0.75"/><stop stop-opacity="1" stop-color="rgb(94.561768%, 67.843628%, 50.4776%)" offset="0.757812"/><stop stop-opacity="1" stop-color="rgb(94.573975%, 67.605591%, 50.288391%)" offset="0.765625"/><stop stop-opacity="1" stop-color="rgb(94.587708%, 67.36908%, 50.099182%)" offset="0.773437"/><stop stop-opacity="1" stop-color="rgb(94.599915%, 67.132568%, 49.911499%)" offset="0.78125"/><stop stop-opacity="1" stop-color="rgb(94.612122%, 66.894531%, 49.72229%)" offset="0.789063"/><stop stop-opacity="1" stop-color="rgb(94.625854%, 66.65802%, 49.533081%)" offset="0.796875"/><stop stop-opacity="1" stop-color="rgb(94.638062%, 66.419983%, 49.343872%)" offset="0.804688"/><stop stop-opacity="1" stop-color="rgb(94.651794%, 66.183472%, 49.154663%)" offset="0.8125"/><stop stop-opacity="1" stop-color="rgb(94.664001%, 65.94696%, 48.965454%)" offset="0.820312"/><stop stop-opacity="1" stop-color="rgb(94.676208%, 65.708923%, 48.776245%)" offset="0.828125"/><stop stop-opacity="1" stop-color="rgb(94.689941%, 65.472412%, 48.587036%)" offset="0.835937"/><stop stop-opacity="1" stop-color="rgb(94.702148%, 65.235901%, 48.397827%)" offset="0.84375"/><stop stop-opacity="1" stop-color="rgb(94.715881%, 64.997864%, 48.210144%)" offset="0.851562"/><stop stop-opacity="1" stop-color="rgb(94.728088%, 64.761353%, 48.020935%)" offset="0.859375"/><stop stop-opacity="1" stop-color="rgb(94.740295%, 64.523315%, 47.831726%)" offset="0.867188"/><stop stop-opacity="1" stop-color="rgb(94.754028%, 64.286804%, 47.642517%)" offset="0.875"/><stop stop-opacity="1" stop-color="rgb(94.766235%, 64.050293%, 47.453308%)" offset="0.882812"/><stop stop-opacity="1" stop-color="rgb(94.779968%, 63.812256%, 47.264099%)" offset="0.890625"/><stop stop-opacity="1" stop-color="rgb(94.792175%, 63.575745%, 47.07489%)" offset="0.898437"/><stop stop-opacity="1" stop-color="rgb(94.804382%, 63.337708%, 46.885681%)" offset="0.90625"/><stop stop-opacity="1" stop-color="rgb(94.818115%, 63.101196%, 46.696472%)" offset="0.914062"/><stop stop-opacity="1" stop-color="rgb(94.830322%, 62.864685%, 46.507263%)" offset="0.921875"/><stop stop-opacity="1" stop-color="rgb(94.844055%, 62.626648%, 46.31958%)" offset="0.929688"/><stop stop-opacity="1" stop-color="rgb(94.856262%, 62.390137%, 46.130371%)" offset="0.9375"/><stop stop-opacity="1" stop-color="rgb(94.868469%, 62.1521%, 45.941162%)" offset="0.945312"/><stop stop-opacity="1" stop-color="rgb(94.882202%, 61.915588%, 45.751953%)" offset="0.953125"/><stop stop-opacity="1" stop-color="rgb(94.895935%, 61.671448%, 45.556641%)" offset="0.960938"/><stop stop-opacity="1" stop-color="rgb(94.917297%, 61.378479%, 45.332336%)" offset="0.96875"/><stop stop-opacity="1" stop-color="rgb(94.946289%, 61.047363%, 45.082092%)" offset="0.976562"/><stop stop-opacity="1" stop-color="rgb(94.973755%, 60.714722%, 44.831848%)" offset="0.984375"/><stop stop-opacity="1" stop-color="rgb(95.002747%, 60.383606%, 44.581604%)" offset="0.992187"/><stop stop-opacity="1" stop-color="rgb(95.030212%, 60.050964%, 44.329834%)" offset="1"/></linearGradient><clipPath id="ff8960f192"><path d="M 161 157 L 165 157 L 165 159 L 161 159 Z M 161 157 " clip-rule="nonzero"/></clipPath><clipPath id="ae1b09d3ef"><path d="M 164.144531 158.148438 L 162.128906 158.148438 L 161.878906 157.871094 L 163.921875 157.871094 C 163.921875 157.871094 164.027344 157.953125 164.144531 158.148438 Z M 164.144531 158.148438 " clip-rule="nonzero"/></clipPath><clipPath id="026359ad0e"><path d="M 84 116 L 107 116 L 107 155 L 84 155 Z M 84 116 " clip-rule="nonzero"/></clipPath><clipPath id="a7550acc84"><path d="M 106.355469 123.605469 C 106.355469 123.605469 106.878906 130.214844 105.007812 132.347656 C 105.007812 132.347656 104.804688 135.570312 104.015625 138.457031 L 102.324219 144.558594 C 102.128906 145.523438 101.265625 146.210938 100.28125 146.179688 L 98.507812 146.125 L 96.332031 151.6875 C 95.617188 153.511719 93.835938 154.6875 91.875 154.628906 L 89.773438 154.5625 C 86.445312 154.457031 84.070312 151.296875 84.898438 148.070312 L 85.9375 143.996094 L 84.835938 128.683594 C 84.542969 124.632812 86.242188 120.59375 89.570312 118.265625 C 93.816406 115.300781 98.453125 115.992188 103.984375 119.554688 C 105.402344 120.46875 105.4375 121.914062 106.351562 123.605469 Z M 106.355469 123.605469 " clip-rule="nonzero"/></clipPath><linearGradient x1="-315.51114" gradientTransform="matrix(0.526131, 0, 0, -0.526131, 271.324248, 344.484888)" y1="437.317666" x2="-358.982413" gradientUnits="userSpaceOnUse" y2="362.527308" id="a865ff585a"><stop stop-opacity="1" stop-color="rgb(94.099426%, 75.299072%, 56.098938%)" offset="0"/><stop stop-opacity="1" stop-color="rgb(94.099426%, 75.260925%, 56.069946%)" offset="0.25"/><stop stop-opacity="1" stop-color="rgb(94.099426%, 75.112915%, 55.958557%)" offset="0.251811"/><stop stop-opacity="1" stop-color="rgb(94.099426%, 75.001526%, 55.87616%)" offset="0.28125"/><stop stop-opacity="1" stop-color="rgb(94.099426%, 74.890137%, 55.792236%)" offset="0.3125"/><stop stop-opacity="1" stop-color="rgb(94.099426%, 74.667358%, 55.625916%)" offset="0.34375"/><stop stop-opacity="1" stop-color="rgb(94.099426%, 74.446106%, 55.458069%)" offset="0.375"/><stop stop-opacity="1" stop-color="rgb(94.099426%, 74.223328%, 55.291748%)" offset="0.40625"/><stop stop-opacity="1" stop-color="rgb(94.099426%, 74.000549%, 55.125427%)" offset="0.4375"/><stop stop-opacity="1" stop-color="rgb(94.102478%, 73.745728%, 54.934692%)" offset="0.46875"/><stop stop-opacity="1" stop-color="rgb(94.120789%, 73.431396%, 54.699707%)" offset="0.484375"/><stop stop-opacity="1" stop-color="rgb(94.14978%, 73.091125%, 54.446411%)" offset="0.5"/><stop stop-opacity="1" stop-color="rgb(94.178772%, 72.749329%, 54.193115%)" offset="0.515625"/><stop stop-opacity="1" stop-color="rgb(94.207764%, 72.409058%, 53.938293%)" offset="0.53125"/><stop stop-opacity="1" stop-color="rgb(94.236755%, 72.068787%, 53.684998%)" offset="0.546875"/><stop stop-opacity="1" stop-color="rgb(94.265747%, 71.728516%, 53.431702%)" offset="0.5625"/><stop stop-opacity="1" stop-color="rgb(94.294739%, 71.386719%, 53.178406%)" offset="0.578125"/><stop stop-opacity="1" stop-color="rgb(94.32373%, 71.046448%, 52.923584%)" offset="0.59375"/><stop stop-opacity="1" stop-color="rgb(94.352722%, 70.706177%, 52.670288%)" offset="0.609375"/><stop stop-opacity="1" stop-color="rgb(94.381714%, 70.365906%, 52.416992%)" offset="0.625"/><stop stop-opacity="1" stop-color="rgb(94.410706%, 70.024109%, 52.163696%)" offset="0.640625"/><stop stop-opacity="1" stop-color="rgb(94.439697%, 69.683838%, 51.908875%)" offset="0.65625"/><stop stop-opacity="1" stop-color="rgb(94.468689%, 69.343567%, 51.655579%)" offset="0.671875"/><stop stop-opacity="1" stop-color="rgb(94.491577%, 69.088745%, 51.464844%)" offset="0.679688"/><stop stop-opacity="1" stop-color="rgb(94.506836%, 68.867493%, 51.293945%)" offset="0.6875"/><stop stop-opacity="1" stop-color="rgb(94.520569%, 68.59436%, 51.075745%)" offset="0.695312"/><stop stop-opacity="1" stop-color="rgb(94.535828%, 68.319702%, 50.856018%)" offset="0.703125"/><stop stop-opacity="1" stop-color="rgb(94.551086%, 68.045044%, 50.637817%)" offset="0.710937"/><stop stop-opacity="1" stop-color="rgb(94.564819%, 67.770386%, 50.418091%)" offset="0.71875"/><stop stop-opacity="1" stop-color="rgb(94.580078%, 67.495728%, 50.19989%)" offset="0.726562"/><stop stop-opacity="1" stop-color="rgb(94.595337%, 67.221069%, 49.980164%)" offset="0.734375"/><stop stop-opacity="1" stop-color="rgb(94.610596%, 66.946411%, 49.761963%)" offset="0.742188"/><stop stop-opacity="1" stop-color="rgb(94.624329%, 66.671753%, 49.542236%)" offset="0.748189"/><stop stop-opacity="1" stop-color="rgb(94.631958%, 66.534424%, 49.433899%)" offset="0.75"/><stop stop-opacity="1" stop-color="rgb(94.639587%, 66.397095%, 49.324036%)" offset="0.757812"/><stop stop-opacity="1" stop-color="rgb(94.654846%, 66.122437%, 49.104309%)" offset="0.765625"/><stop stop-opacity="1" stop-color="rgb(94.670105%, 65.847778%, 48.886108%)" offset="0.773437"/><stop stop-opacity="1" stop-color="rgb(94.683838%, 65.57312%, 48.666382%)" offset="0.78125"/><stop stop-opacity="1" stop-color="rgb(94.699097%, 65.298462%, 48.448181%)" offset="0.789062"/><stop stop-opacity="1" stop-color="rgb(94.714355%, 65.023804%, 48.228455%)" offset="0.796875"/><stop stop-opacity="1" stop-color="rgb(94.728088%, 64.749146%, 48.010254%)" offset="0.804688"/><stop stop-opacity="1" stop-color="rgb(94.743347%, 64.474487%, 47.790527%)" offset="0.8125"/><stop stop-opacity="1" stop-color="rgb(94.758606%, 64.199829%, 47.572327%)" offset="0.820312"/><stop stop-opacity="1" stop-color="rgb(94.773865%, 63.925171%, 47.3526%)" offset="0.828125"/><stop stop-opacity="1" stop-color="rgb(94.787598%, 63.650513%, 47.134399%)" offset="0.835937"/><stop stop-opacity="1" stop-color="rgb(94.802856%, 63.375854%, 46.914673%)" offset="0.84375"/><stop stop-opacity="1" stop-color="rgb(94.818115%, 63.101196%, 46.696472%)" offset="0.851562"/><stop stop-opacity="1" stop-color="rgb(94.833374%, 62.826538%, 46.476746%)" offset="0.859375"/><stop stop-opacity="1" stop-color="rgb(94.847107%, 62.55188%, 46.258545%)" offset="0.867187"/><stop stop-opacity="1" stop-color="rgb(94.862366%, 62.277222%, 46.040344%)" offset="0.875"/><stop stop-opacity="1" stop-color="rgb(94.877625%, 62.002563%, 45.820618%)" offset="0.882812"/><stop stop-opacity="1" stop-color="rgb(94.892883%, 61.726379%, 45.600891%)" offset="0.890625"/><stop stop-opacity="1" stop-color="rgb(94.915771%, 61.395264%, 45.344543%)" offset="0.898437"/><stop stop-opacity="1" stop-color="rgb(94.949341%, 61.010742%, 45.054626%)" offset="0.90625"/><stop stop-opacity="1" stop-color="rgb(94.981384%, 60.626221%, 44.764709%)" offset="0.914062"/><stop stop-opacity="1" stop-color="rgb(95.014954%, 60.243225%, 44.474792%)" offset="0.921875"/><stop stop-opacity="1" stop-color="rgb(95.046997%, 59.858704%, 44.184875%)" offset="0.929687"/><stop stop-opacity="1" stop-color="rgb(95.079041%, 59.474182%, 43.894958%)" offset="0.9375"/><stop stop-opacity="1" stop-color="rgb(95.11261%, 59.089661%, 43.603516%)" offset="0.945312"/><stop stop-opacity="1" stop-color="rgb(95.144653%, 58.706665%, 43.313599%)" offset="0.953125"/><stop stop-opacity="1" stop-color="rgb(95.178223%, 58.322144%, 43.023682%)" offset="0.960938"/><stop stop-opacity="1" stop-color="rgb(95.210266%, 57.937622%, 42.733765%)" offset="0.96875"/><stop stop-opacity="1" stop-color="rgb(95.243835%, 57.553101%, 42.443848%)" offset="0.976562"/><stop stop-opacity="1" stop-color="rgb(95.275879%, 57.168579%, 42.153931%)" offset="0.984375"/><stop stop-opacity="1" stop-color="rgb(95.307922%, 56.785583%, 41.862488%)" offset="0.992187"/><stop stop-opacity="1" stop-color="rgb(95.341492%, 56.401062%, 41.572571%)" offset="1"/></linearGradient></defs><path fill="#29333f" d="M 52.703125 237.914062 L 52.703125 132.628906 L 210.203125 41.660156 L 210.203125 146.949219 Z M 52.703125 237.914062 " fill-opacity="1" fill-rule="nonzero"/><g clip-path="url(#6ec97c6559)"><path fill="#1a1c20" d="M 166.769531 303.773438 L 50.71875 236.773438 L 208.125 148.148438 L 324.273438 212.804688 Z M 166.769531 303.773438 " fill-opacity="1" fill-rule="nonzero"/></g><g clip-path="url(#c1aa7f93a6)"><path fill="#414e5f" d="M 208.28125 40.550781 L 208.125 148.148438 L 324.273438 212.804688 L 324.273438 107.519531 Z M 208.28125 40.550781 " fill-opacity="1" fill-rule="nonzero"/></g><g clip-path="url(#148193c128)"><path fill="#67717f" d="M 210.203125 41.660156 L 208.125 42.859375 L 322.519531 108.53125 L 324.273438 107.519531 Z M 210.203125 41.660156 " fill-opacity="1" fill-rule="nonzero"/></g><g clip-path="url(#7cf4601913)"><path fill="#67717f" d="M 210.203125 41.660156 L 208.28125 40.550781 L 50.71875 131.484375 L 52.703125 132.628906 Z M 210.203125 41.660156 " fill-opacity="1" fill-rule="nonzero"/></g><path fill="#ffb610" d="M 216.320312 43.121094 L 216.320312 152.996094 C 216.320312 155.433594 215.019531 157.683594 212.910156 158.902344 L 150.070312 195.125 L 87.839844 231 C 85.113281 232.570312 81.707031 230.601562 81.707031 227.453125 L 81.707031 134.964844 C 81.707031 132.527344 83.007812 130.277344 85.113281 129.058594 L 171.449219 79.214844 L 171.449219 66.816406 C 171.449219 63.800781 173.058594 61.015625 175.667969 59.507812 L 210.183594 39.582031 C 212.914062 38.007812 216.320312 39.972656 216.320312 43.121094 Z M 216.320312 43.121094 " fill-opacity="1" fill-rule="nonzero"/><g clip-path="url(#201bdd1f5a)"><g clip-path="url(#6f45b362d5)"><path fill="url(#493670d36c)" d="M 214.078125 232.550781 L 214.078125 37.5 L 79.484375 37.5 L 79.484375 232.550781 Z M 214.078125 232.550781 " fill-rule="nonzero"/></g></g><path fill="#c7b899" d="M 215.453125 154.722656 L 215.332031 46.34375 C 215.332031 44.613281 215.121094 43.570312 212.410156 43.386719 C 211.742188 43.339844 211.066406 43.507812 210.488281 43.84375 L 88.234375 113.472656 C 86.785156 114.3125 85.605469 116.5625 85.605469 118.5 L 85.605469 227.105469 C 85.605469 229.042969 86.636719 230.378906 88.726562 230.179688 L 212.820312 159.746094 C 214.273438 158.90625 215.453125 156.65625 215.453125 154.722656 Z M 215.453125 154.722656 " fill-opacity="1" fill-rule="nonzero"/><path fill="#edebe1" d="M 215.453125 154.722656 L 215.453125 46.117188 C 215.453125 44.179688 214.273438 43.289062 212.820312 44.128906 L 89.726562 114.246094 C 88.273438 115.085938 87.097656 117.335938 87.097656 119.273438 L 87.097656 227.878906 C 87.097656 229.816406 88.273438 230.703125 89.726562 229.867188 L 212.820312 159.746094 C 214.273438 158.90625 215.453125 156.65625 215.453125 154.722656 Z M 215.453125 154.722656 " fill-opacity="1" fill-rule="nonzero"/><path fill="#ffb610" d="M 225.925781 48.589844 L 225.925781 158.464844 C 225.925781 160.902344 224.625 163.152344 222.511719 164.371094 L 159.675781 200.59375 L 97.445312 236.46875 C 94.714844 238.039062 91.3125 236.070312 91.3125 232.921875 L 91.3125 140.433594 C 91.3125 137.996094 92.609375 135.746094 94.71875 134.527344 L 181.054688 84.683594 L 181.054688 72.285156 C 181.054688 69.269531 182.664062 66.484375 185.273438 64.976562 L 219.789062 45.050781 C 222.515625 43.476562 225.925781 45.441406 225.925781 48.589844 Z M 225.925781 48.589844 " fill-opacity="1" fill-rule="nonzero"/><g clip-path="url(#a6e6b96857)"><g clip-path="url(#e439b687d1)"><path fill="url(#772d0b48af)" d="M 223.683594 238.019531 L 223.683594 42.957031 L 89.089844 42.957031 L 89.089844 238.019531 Z M 223.683594 238.019531 " fill-rule="nonzero"/></g></g><path fill="#bf890c" d="M 79.484375 153.578125 L 91.3125 143.707031 L 91.3125 233.035156 C 91.3125 233.035156 91.332031 235.5625 91.726562 236.480469 L 82.238281 231.082031 L 79.5 227.015625 Z M 79.484375 153.578125 " fill-opacity="1" fill-rule="nonzero"/><path fill="#e54d2e" d="M 235.453125 54.210938 L 235.453125 164.085938 C 235.453125 166.523438 234.152344 168.773438 232.042969 169.992188 L 169.203125 206.214844 L 106.972656 242.089844 C 104.246094 243.660156 100.839844 241.691406 100.839844 238.542969 L 100.839844 146.054688 C 100.839844 143.617188 102.140625 141.367188 104.25 140.148438 L 190.582031 90.304688 L 190.582031 77.90625 C 190.582031 74.890625 192.191406 72.105469 194.804688 70.597656 L 229.320312 50.671875 C 232.046875 49.097656 235.453125 51.0625 235.453125 54.210938 Z M 235.453125 54.210938 " fill-opacity="1" fill-rule="nonzero"/><g clip-path="url(#441db27021)"><g clip-path="url(#26cff02f4b)"><path fill="url(#126231cb24)" d="M 98.617188 243.640625 L 98.617188 48.578125 L 233.210938 48.578125 L 233.210938 243.640625 Z M 98.617188 243.640625 " fill-rule="nonzero"/></g></g><path fill="#c7b899" d="M 234.585938 165.8125 L 234.46875 57.433594 C 234.46875 55.703125 234.253906 54.660156 231.546875 54.476562 C 230.875 54.429688 230.203125 54.597656 229.621094 54.933594 L 107.371094 124.5625 C 105.917969 125.402344 104.738281 127.652344 104.738281 129.589844 L 104.738281 238.195312 C 104.738281 240.132812 105.769531 241.46875 107.863281 241.269531 L 231.953125 170.835938 C 233.40625 169.996094 234.585938 167.746094 234.585938 165.8125 Z M 234.585938 165.8125 " fill-opacity="1" fill-rule="nonzero"/><path fill="#edebe1" d="M 234.585938 165.8125 L 234.585938 57.207031 C 234.585938 55.269531 233.40625 54.378906 231.953125 55.21875 L 108.859375 125.335938 C 107.40625 126.175781 106.230469 128.425781 106.230469 130.363281 L 106.230469 238.96875 C 106.230469 240.90625 107.40625 241.792969 108.859375 240.957031 L 231.953125 170.835938 C 233.40625 169.996094 234.585938 167.746094 234.585938 165.8125 Z M 234.585938 165.8125 " fill-opacity="1" fill-rule="nonzero"/><path fill="#e54d2e" d="M 245.058594 59.679688 L 245.058594 169.554688 C 245.058594 171.992188 243.757812 174.242188 241.644531 175.460938 L 178.808594 211.683594 L 116.578125 247.558594 C 113.851562 249.128906 110.445312 247.160156 110.445312 244.011719 L 110.445312 151.523438 C 110.445312 149.085938 111.742188 146.835938 113.851562 145.617188 L 200.1875 95.773438 L 200.1875 83.375 C 200.1875 80.359375 201.796875 77.574219 204.40625 76.066406 L 238.921875 56.140625 C 241.648438 54.566406 245.058594 56.53125 245.058594 59.679688 Z M 245.058594 59.679688 " fill-opacity="1" fill-rule="nonzero"/><g clip-path="url(#d4d1bd8bb5)"><g clip-path="url(#968fff7d6b)"><path fill="url(#99c9e106f6)" d="M 108.222656 249.109375 L 108.222656 54.046875 L 242.816406 54.046875 L 242.816406 249.109375 Z M 108.222656 249.109375 " fill-rule="nonzero"/></g></g><path fill="#732717" d="M 98.617188 164.667969 L 110.445312 154.796875 L 110.445312 244.125 C 110.445312 244.125 110.46875 246.652344 110.859375 247.570312 L 101.375 242.171875 L 98.632812 238.105469 Z M 98.617188 164.667969 " fill-opacity="1" fill-rule="nonzero"/><path fill="#ffb610" d="M 254.589844 65.300781 L 254.589844 175.175781 C 254.589844 177.613281 253.289062 179.863281 251.175781 181.082031 L 188.339844 217.304688 L 126.105469 253.179688 C 123.378906 254.75 119.972656 252.78125 119.972656 249.632812 L 119.972656 157.144531 C 119.972656 154.707031 121.273438 152.457031 123.382812 151.238281 L 209.714844 101.394531 L 209.714844 88.996094 C 209.71875 85.980469 211.324219 83.195312 213.9375 81.6875 L 248.453125 61.761719 C 251.179688 60.1875 254.589844 62.152344 254.589844 65.300781 Z M 254.589844 65.300781 " fill-opacity="1" fill-rule="nonzero"/><g clip-path="url(#41296ee02d)"><g clip-path="url(#93bd38eb05)"><path fill="url(#fd162983d0)" d="M 252.347656 254.730469 L 252.347656 59.667969 L 117.753906 59.667969 L 117.753906 254.730469 Z M 252.347656 254.730469 " fill-rule="nonzero"/></g></g><path fill="#c7b899" d="M 253.71875 176.902344 L 253.601562 68.523438 C 253.601562 66.792969 253.386719 65.75 250.679688 65.566406 C 250.011719 65.519531 249.335938 65.6875 248.753906 66.023438 L 126.503906 135.65625 C 125.050781 136.492188 123.875 138.742188 123.875 140.679688 L 123.875 249.285156 C 123.875 251.222656 124.902344 252.558594 126.996094 252.363281 L 251.089844 181.925781 C 252.542969 181.089844 253.71875 178.835938 253.71875 176.902344 Z M 253.71875 176.902344 " fill-opacity="1" fill-rule="nonzero"/><path fill="#edebe1" d="M 253.71875 176.902344 L 253.71875 68.296875 C 253.71875 66.359375 252.542969 65.46875 251.089844 66.308594 L 127.992188 136.425781 C 126.539062 137.265625 125.363281 139.515625 125.363281 141.453125 L 125.363281 250.058594 C 125.363281 251.996094 126.539062 252.882812 127.992188 252.046875 L 251.089844 181.925781 C 252.542969 181.085938 253.71875 178.835938 253.71875 176.902344 Z M 253.71875 176.902344 " fill-opacity="1" fill-rule="nonzero"/><path fill="#ffb610" d="M 264.191406 70.769531 L 264.191406 180.644531 C 264.191406 183.082031 262.890625 185.332031 260.78125 186.550781 L 197.941406 222.773438 L 135.710938 258.648438 C 132.984375 260.21875 129.578125 258.25 129.578125 255.101562 L 129.578125 162.613281 C 129.578125 160.175781 130.878906 157.925781 132.988281 156.707031 L 219.320312 106.863281 L 219.320312 94.464844 C 219.320312 91.449219 220.929688 88.664062 223.542969 87.15625 L 258.058594 67.230469 C 260.785156 65.65625 264.191406 67.621094 264.191406 70.769531 Z M 264.191406 70.769531 " fill-opacity="1" fill-rule="nonzero"/><g clip-path="url(#407db146d2)"><g clip-path="url(#b59ba60f89)"><path fill="url(#c65f233e03)" d="M 261.949219 260.199219 L 261.949219 65.136719 L 127.355469 65.136719 L 127.355469 260.199219 Z M 261.949219 260.199219 " fill-rule="nonzero"/></g></g><path fill="#bf890c" d="M 117.753906 175.757812 L 129.578125 165.886719 L 129.582031 255.214844 C 129.582031 255.214844 129.601562 257.742188 129.992188 258.660156 L 120.507812 253.261719 L 117.769531 249.195312 Z M 117.753906 175.757812 " fill-opacity="1" fill-rule="nonzero"/><path fill="#2e547a" d="M 273.722656 76.390625 L 273.722656 186.265625 C 273.722656 188.703125 272.421875 190.953125 270.308594 192.171875 L 207.472656 228.394531 L 145.242188 264.269531 C 142.515625 265.839844 139.109375 263.871094 139.109375 260.722656 L 139.109375 168.234375 C 139.109375 165.796875 140.40625 163.546875 142.515625 162.328125 L 228.851562 112.484375 L 228.851562 100.085938 C 228.851562 97.070312 230.460938 94.285156 233.070312 92.777344 L 267.585938 72.851562 C 270.3125 71.277344 273.722656 73.242188 273.722656 76.390625 Z M 273.722656 76.390625 " fill-opacity="1" fill-rule="nonzero"/><g clip-path="url(#b2efc4b754)"><g clip-path="url(#a632deb510)"><path fill="url(#26d31a54da)" d="M 136.886719 265.820312 L 136.886719 70.757812 L 271.480469 70.757812 L 271.480469 265.820312 Z M 136.886719 265.820312 " fill-rule="nonzero"/></g></g><path fill="#c7b899" d="M 272.851562 187.992188 L 272.734375 79.613281 C 272.734375 77.882812 272.519531 76.839844 269.8125 76.65625 C 269.144531 76.609375 268.46875 76.777344 267.886719 77.113281 L 145.636719 146.746094 C 144.183594 147.582031 143.007812 149.832031 143.007812 151.769531 L 143.007812 260.375 C 143.007812 262.3125 144.035156 263.648438 146.128906 263.453125 L 270.222656 193.015625 C 271.675781 192.179688 272.851562 189.925781 272.851562 187.992188 Z M 272.851562 187.992188 " fill-opacity="1" fill-rule="nonzero"/><path fill="#edebe1" d="M 272.851562 187.992188 L 272.851562 79.386719 C 272.851562 77.449219 271.675781 76.558594 270.222656 77.398438 L 147.128906 147.515625 C 145.675781 148.355469 144.496094 150.605469 144.496094 152.542969 L 144.496094 261.148438 C 144.496094 263.085938 145.675781 263.972656 147.128906 263.136719 L 270.222656 193.015625 C 271.675781 192.175781 272.851562 189.925781 272.851562 187.992188 Z M 272.851562 187.992188 " fill-opacity="1" fill-rule="nonzero"/><path fill="#2e547a" d="M 283.328125 81.859375 L 283.328125 191.734375 C 283.328125 194.171875 282.023438 196.421875 279.914062 197.640625 L 217.074219 233.863281 L 154.84375 269.738281 C 152.117188 271.308594 148.710938 269.339844 148.710938 266.191406 L 148.710938 173.703125 C 148.710938 171.265625 150.011719 169.015625 152.121094 167.796875 L 238.453125 117.953125 L 238.453125 105.554688 C 238.453125 102.539062 240.0625 99.753906 242.675781 98.246094 L 277.191406 78.316406 C 279.917969 76.742188 283.324219 78.710938 283.324219 81.859375 Z M 283.328125 81.859375 " fill-opacity="1" fill-rule="nonzero"/><g clip-path="url(#f1b1ea0d15)"><g clip-path="url(#c8746f7291)"><path fill="url(#4cd4e809f3)" d="M 146.492188 271.289062 L 146.492188 76.226562 L 281.085938 76.226562 L 281.085938 271.289062 Z M 146.492188 271.289062 " fill-rule="nonzero"/></g></g><path fill="#233f5c" d="M 136.886719 186.847656 L 148.710938 176.976562 L 148.714844 266.304688 C 148.714844 266.304688 148.734375 268.832031 149.125 269.75 L 139.640625 264.351562 L 136.902344 260.285156 Z M 136.886719 186.847656 " fill-opacity="1" fill-rule="nonzero"/><path fill="#ffb610" d="M 292.855469 87.480469 L 292.855469 197.355469 C 292.855469 199.792969 291.554688 202.042969 289.445312 203.261719 L 226.605469 239.484375 L 164.375 275.359375 C 161.648438 276.929688 158.242188 274.960938 158.242188 271.8125 L 158.242188 179.324219 C 158.242188 176.886719 159.542969 174.636719 161.648438 173.417969 L 247.984375 123.574219 L 247.984375 111.175781 C 247.984375 108.160156 249.59375 105.375 252.203125 103.867188 L 286.71875 83.941406 C 289.449219 82.367188 292.855469 84.332031 292.855469 87.480469 Z M 292.855469 87.480469 " fill-opacity="1" fill-rule="nonzero"/><g clip-path="url(#96600c65f0)"><g clip-path="url(#e4503af0be)"><path fill="url(#2d5e291a16)" d="M 290.613281 276.910156 L 290.613281 81.847656 L 156.019531 81.847656 L 156.019531 276.910156 Z M 290.613281 276.910156 " fill-rule="nonzero"/></g></g><path fill="#c7b899" d="M 291.988281 199.082031 L 291.867188 90.703125 C 291.867188 88.972656 291.65625 87.929688 288.945312 87.746094 C 288.277344 87.699219 287.601562 87.867188 287.023438 88.203125 L 164.769531 157.835938 C 163.320312 158.671875 162.140625 160.921875 162.140625 162.859375 L 162.140625 271.464844 C 162.140625 273.402344 163.171875 274.738281 165.261719 274.542969 L 289.355469 204.105469 C 290.808594 203.269531 291.988281 201.015625 291.988281 199.082031 Z M 291.988281 199.082031 " fill-opacity="1" fill-rule="nonzero"/><path fill="#edebe1" d="M 291.988281 199.082031 L 291.988281 90.476562 C 291.988281 88.539062 290.808594 87.648438 289.355469 88.488281 L 166.261719 158.605469 C 164.808594 159.445312 163.632812 161.695312 163.632812 163.632812 L 163.632812 272.238281 C 163.632812 274.175781 164.808594 275.066406 166.261719 274.226562 L 289.355469 204.105469 C 290.808594 203.269531 291.988281 201.015625 291.988281 199.082031 Z M 291.988281 199.082031 " fill-opacity="1" fill-rule="nonzero"/><path fill="#ffb610" d="M 302.460938 92.949219 L 302.460938 202.824219 C 302.460938 205.261719 301.160156 207.511719 299.046875 208.730469 L 236.210938 244.953125 L 173.980469 280.828125 C 171.253906 282.398438 167.847656 280.429688 167.847656 277.28125 L 167.847656 184.792969 C 167.847656 182.355469 169.144531 180.105469 171.253906 178.886719 L 257.589844 129.042969 L 257.589844 116.644531 C 257.589844 113.628906 259.199219 110.84375 261.808594 109.335938 L 296.324219 89.40625 C 299.050781 87.832031 302.460938 89.800781 302.460938 92.949219 Z M 302.460938 92.949219 " fill-opacity="1" fill-rule="nonzero"/><g clip-path="url(#694f9fa427)"><g clip-path="url(#d99be37cf5)"><path fill="url(#147ada37fd)" d="M 300.21875 282.378906 L 300.21875 87.316406 L 165.625 87.316406 L 165.625 282.378906 Z M 300.21875 282.378906 " fill-rule="nonzero"/></g></g><path fill="#bf890c" d="M 156.019531 197.9375 L 167.847656 188.066406 L 167.847656 277.394531 C 167.847656 277.394531 167.867188 279.921875 168.261719 280.839844 L 158.773438 275.441406 L 156.035156 271.375 Z M 156.019531 197.9375 " fill-opacity="1" fill-rule="nonzero"/><g clip-path="url(#9ad0eeab49)"><path fill="#29333f" d="M 50.71875 131.484375 L 50.71875 236.773438 L 166.769531 303.773438 L 166.769531 198.484375 Z M 127.492188 223.960938 C 126.574219 223.960938 125.558594 223.667969 124.492188 223.050781 L 93.003906 204.875 C 88.832031 202.46875 85.449219 196 85.449219 190.4375 C 85.449219 186.292969 87.320312 183.816406 90.003906 183.816406 C 90.925781 183.816406 91.9375 184.109375 93.003906 184.726562 L 124.492188 202.902344 C 128.664062 205.316406 132.046875 211.777344 132.046875 217.339844 C 132.046875 221.484375 130.171875 223.960938 127.492188 223.960938 Z M 127.492188 223.960938 " fill-opacity="1" fill-rule="nonzero"/></g><g clip-path="url(#4b5ef432c6)"><path fill="#67717f" d="M 52.796875 130.285156 L 50.71875 131.484375 L 166.769531 198.484375 L 168.527344 197.472656 Z M 52.796875 130.285156 " fill-opacity="1" fill-rule="nonzero"/></g><path fill="#67717f" d="M 130.609375 222.429688 C 129.8125 223.421875 128.742188 223.960938 127.492188 223.960938 C 126.574219 223.960938 125.558594 223.667969 124.492188 223.050781 L 93.003906 204.875 C 88.832031 202.464844 85.449219 196 85.449219 190.4375 C 85.449219 186.839844 86.859375 184.496094 88.992188 183.941406 C 88.089844 185.078125 87.554688 186.816406 87.554688 189.03125 C 87.554688 194.59375 90.9375 201.058594 95.113281 203.464844 L 126.601562 221.652344 C 127.664062 222.265625 128.675781 222.554688 129.597656 222.554688 C 129.953125 222.554688 130.292969 222.511719 130.609375 222.429688 Z M 130.609375 222.429688 " fill-opacity="1" fill-rule="nonzero"/><g clip-path="url(#840a5f0be9)"><path fill="#414e5f" d="M 166.769531 303.773438 L 166.769531 198.484375 L 324.273438 107.519531 L 324.273438 212.804688 Z M 166.769531 303.773438 " fill-opacity="1" fill-rule="nonzero"/></g><g clip-path="url(#260bb982c6)"><path fill="#67717f" d="M 324.273438 107.519531 L 322.347656 106.40625 L 164.789062 197.339844 L 166.769531 198.484375 Z M 324.273438 107.519531 " fill-opacity="1" fill-rule="nonzero"/></g><g clip-path="url(#e9c723c9fb)"><path fill="#d1d3d4" d="M 127.929688 321.449219 C 127.929688 321.972656 127.871094 322.496094 127.753906 323.019531 C 127.632812 323.542969 127.460938 324.0625 127.226562 324.574219 C 126.992188 325.089844 126.703125 325.597656 126.351562 326.101562 C 126.003906 326.605469 125.601562 327.097656 125.144531 327.582031 C 124.6875 328.070312 124.175781 328.542969 123.609375 329.003906 C 123.046875 329.46875 122.429688 329.917969 121.765625 330.355469 C 121.097656 330.792969 120.386719 331.210938 119.625 331.617188 C 118.867188 332.023438 118.0625 332.414062 117.214844 332.785156 C 116.371094 333.15625 115.484375 333.507812 114.558594 333.839844 C 113.632812 334.175781 112.671875 334.488281 111.675781 334.777344 C 110.679688 335.070312 109.652344 335.339844 108.597656 335.585938 C 107.539062 335.835938 106.457031 336.058594 105.351562 336.257812 C 104.246094 336.460938 103.117188 336.636719 101.972656 336.789062 C 100.824219 336.941406 99.664062 337.070312 98.492188 337.171875 C 97.316406 337.273438 96.132812 337.351562 94.941406 337.402344 C 93.75 337.453125 92.554688 337.480469 91.355469 337.480469 C 90.15625 337.480469 88.964844 337.453125 87.769531 337.402344 C 86.578125 337.351562 85.394531 337.273438 84.222656 337.171875 C 83.046875 337.070312 81.886719 336.941406 80.738281 336.789062 C 79.59375 336.636719 78.464844 336.460938 77.359375 336.257812 C 76.253906 336.058594 75.171875 335.835938 74.117188 335.585938 C 73.058594 335.339844 72.035156 335.070312 71.039062 334.777344 C 70.042969 334.488281 69.082031 334.175781 68.15625 333.839844 C 67.230469 333.507812 66.34375 333.15625 65.496094 332.785156 C 64.648438 332.414062 63.84375 332.023438 63.085938 331.617188 C 62.324219 331.210938 61.613281 330.792969 60.945312 330.355469 C 60.28125 329.917969 59.667969 329.46875 59.101562 329.003906 C 58.539062 328.542969 58.027344 328.070312 57.566406 327.582031 C 57.109375 327.097656 56.707031 326.605469 56.359375 326.101562 C 56.011719 325.597656 55.71875 325.089844 55.484375 324.574219 C 55.253906 324.0625 55.078125 323.542969 54.960938 323.019531 C 54.84375 322.496094 54.785156 321.972656 54.785156 321.449219 C 54.785156 320.921875 54.84375 320.398438 54.960938 319.875 C 55.078125 319.355469 55.253906 318.835938 55.484375 318.320312 C 55.71875 317.804688 56.011719 317.296875 56.359375 316.792969 C 56.707031 316.292969 57.109375 315.796875 57.566406 315.3125 C 58.027344 314.828125 58.539062 314.355469 59.101562 313.890625 C 59.667969 313.429688 60.28125 312.976562 60.945312 312.542969 C 61.613281 312.105469 62.324219 311.683594 63.085938 311.277344 C 63.84375 310.871094 64.648438 310.484375 65.496094 310.113281 C 66.34375 309.742188 67.230469 309.386719 68.15625 309.054688 C 69.082031 308.722656 70.042969 308.410156 71.039062 308.117188 C 72.035156 307.828125 73.058594 307.558594 74.117188 307.308594 C 75.171875 307.0625 76.253906 306.835938 77.359375 306.636719 C 78.464844 306.4375 79.59375 306.257812 80.738281 306.105469 C 81.886719 305.953125 83.046875 305.828125 84.222656 305.722656 C 85.394531 305.621094 86.578125 305.546875 87.769531 305.492188 C 88.964844 305.441406 90.15625 305.417969 91.355469 305.417969 C 92.554688 305.417969 93.75 305.441406 94.941406 305.492188 C 96.132812 305.546875 97.316406 305.621094 98.492188 305.722656 C 99.664062 305.828125 100.824219 305.953125 101.972656 306.105469 C 103.117188 306.257812 104.246094 306.4375 105.351562 306.636719 C 106.457031 306.835938 107.539062 307.0625 108.597656 307.308594 C 109.652344 307.558594 110.679688 307.828125 111.675781 308.117188 C 112.671875 308.410156 113.632812 308.722656 114.558594 309.054688 C 115.484375 309.386719 116.371094 309.742188 117.214844 310.113281 C 118.0625 310.484375 118.867188 310.871094 119.625 311.277344 C 120.386719 311.683594 121.097656 312.105469 121.765625 312.542969 C 122.429688 312.976562 123.046875 313.429688 123.609375 313.890625 C 124.175781 314.355469 124.6875 314.828125 125.144531 315.3125 C 125.601562 315.796875 126.003906 316.292969 126.351562 316.792969 C 126.703125 317.296875 126.992188 317.804688 127.226562 318.320312 C 127.460938 318.835938 127.632812 319.355469 127.753906 319.875 C 127.871094 320.398438 127.929688 320.921875 127.929688 321.449219 Z M 127.929688 321.449219 " fill-opacity="0.3" fill-rule="nonzero"/></g><path fill="#221629" d="M 69.460938 323.84375 C 69.480469 323.863281 69.519531 323.882812 69.539062 323.902344 C 69.578125 323.921875 69.621094 323.941406 69.675781 323.960938 C 69.597656 323.941406 69.519531 323.902344 69.460938 323.84375 Z M 69.460938 323.84375 " fill-opacity="1" fill-rule="nonzero"/><g clip-path="url(#5414f53cae)"><g clip-path="url(#87f20fd1ef)"><path fill="url(#58832f43f4)" d="M 77.566406 320.269531 L 78.285156 309.070312 L 70.640625 308.578125 L 69.921875 319.78125 Z M 77.566406 320.269531 " fill-rule="nonzero"/></g></g><path fill="#3b2314" d="M 69.441406 323.824219 C 69.441406 323.824219 69.460938 323.824219 69.460938 323.84375 C 69.519531 323.902344 69.597656 323.941406 69.675781 323.960938 C 69.691406 323.984375 69.703125 323.992188 69.714844 323.980469 C 71.765625 325.152344 76.964844 323.332031 76.964844 323.332031 L 76.964844 322.511719 C 77.902344 322.199219 78.78125 321.886719 79.425781 321.652344 C 80.246094 321.359375 81.085938 321.183594 81.949219 321.144531 C 82.945312 321.105469 84.351562 321.046875 85.542969 320.96875 C 87.242188 320.851562 90.464844 317.570312 90.269531 316.007812 C 90.503906 315.246094 90.328125 314.660156 89.429688 314.523438 C 87.066406 314.171875 84.3125 314.855469 83.375 315.128906 C 83.160156 315.1875 83.023438 315.226562 83.023438 315.226562 C 82.808594 315.207031 82.59375 315.1875 82.378906 315.148438 C 81.070312 314.933594 77.785156 314.367188 77.121094 313.992188 C 76.964844 313.894531 76.808594 314.074219 76.886719 314.230469 C 77.589844 315.460938 77.511719 316.4375 77.21875 317.140625 C 76.925781 317.863281 76.28125 318.390625 75.519531 318.644531 C 71.828125 319.816406 71.710938 318.117188 70.710938 317.21875 C 70.476562 317.003906 70.105469 317.101562 70.007812 317.394531 C 69.714844 318.3125 69.148438 319.992188 69.050781 321.339844 L 69.050781 321.398438 C 68.875 322.453125 68.914062 323.410156 69.441406 323.820312 Z M 69.441406 323.824219 " fill-opacity="1" fill-rule="nonzero"/><path fill="#221629" d="M 90.363281 326.507812 C 90.382812 326.527344 90.425781 326.546875 90.445312 326.566406 C 90.484375 326.585938 90.519531 326.605469 90.582031 326.625 C 90.5 326.605469 90.425781 326.566406 90.363281 326.507812 Z M 90.363281 326.507812 " fill-opacity="1" fill-rule="nonzero"/><g clip-path="url(#2337aa0a9c)"><g clip-path="url(#af90539049)"><path fill="url(#659ad1380b)" d="M 98.46875 322.9375 L 99.1875 311.734375 L 91.542969 311.246094 L 90.824219 322.445312 Z M 98.46875 322.9375 " fill-rule="nonzero"/></g></g><g clip-path="url(#8ffa2dc5c0)"><g clip-path="url(#501dc002c9)"><path fill="url(#b0d309686c)" d="M 164.617188 191.222656 L 164.617188 157.871094 L 129.332031 157.871094 L 129.332031 191.222656 Z M 164.617188 191.222656 " fill-rule="nonzero"/></g></g><g clip-path="url(#ff8960f192)"><g clip-path="url(#ae1b09d3ef)"><path fill="#ffffff" d="M 164.144531 158.148438 L 164.144531 157.871094 L 161.878906 157.871094 L 161.878906 158.148438 Z M 164.144531 158.148438 " fill-opacity="1" fill-rule="nonzero"/></g></g><path fill="#808184" d="M 131.382812 190.390625 C 131.570312 190.941406 131.695312 191.222656 131.695312 191.222656 L 148.40625 171.601562 C 148.824219 171.082031 149.460938 170.777344 150.125 170.777344 L 153.011719 170.777344 C 153.417969 170.777344 153.824219 170.664062 154.148438 170.425781 C 156.640625 168.601562 156.828125 166.277344 156.515625 164.371094 C 156.640625 166.109375 156.203125 168.070312 154.035156 169.644531 C 153.710938 169.882812 153.292969 169.996094 152.886719 169.996094 L 149.972656 169.996094 C 149.292969 169.996094 148.648438 170.300781 148.230469 170.820312 Z M 131.382812 190.390625 " fill-opacity="0.2" fill-rule="nonzero"/><path fill="#f1f1f2" d="M 127.035156 176.59375 C 127.035156 176.59375 125.988281 174.851562 126.847656 174.984375 C 127.703125 175.117188 128.882812 175.332031 129.015625 174.609375 C 129.152344 173.886719 129.554688 175.199219 129.875 176.21875 C 130.195312 177.238281 129.820312 186.457031 132.984375 191.066406 C 132.984375 191.066406 132.964844 192.050781 132.089844 191.40625 C 131.214844 190.761719 131.179688 191.871094 130.804688 191.941406 C 130.429688 192.015625 126.660156 186.152344 127.035156 176.59375 Z M 127.035156 176.59375 " fill-opacity="1" fill-rule="nonzero"/><path fill="#2e547a" d="M 75.007812 213.945312 L 73.390625 258.859375 C 73.390625 258.859375 67.152344 272.277344 69.167969 311.265625 C 69.199219 311.859375 69.609375 312.371094 70.183594 312.515625 C 72.269531 313.039062 78.171875 312.515625 78.171875 312.515625 L 84.164062 278.539062 C 84.164062 278.539062 96.484375 234.488281 94.621094 218.535156 Z M 75.007812 213.945312 " fill-opacity="1" fill-rule="nonzero"/><path fill="#2e547a" d="M 85.023438 216.503906 L 91.183594 265.972656 C 91.183594 265.972656 88.054688 275.574219 90.074219 314.5625 C 90.101562 315.15625 90.511719 315.671875 91.089844 315.8125 C 93.175781 316.339844 99.578125 315.8125 99.578125 315.8125 L 104.613281 282.410156 C 104.613281 282.410156 116.960938 238.828125 115.09375 222.875 Z M 85.023438 216.503906 " fill-opacity="1" fill-rule="nonzero"/><g clip-path="url(#026359ad0e)"><g clip-path="url(#a7550acc84)"><path fill="url(#a865ff585a)" d="M 84.070312 154.6875 L 84.070312 115.300781 L 106.878906 115.300781 L 106.878906 154.6875 Z M 84.070312 154.6875 " fill-rule="nonzero"/></g></g><path fill="#808184" d="M 95.589844 150.59375 L 97.765625 145.03125 L 99.539062 145.09375 C 100.527344 145.125 101.394531 144.4375 101.582031 143.46875 L 103.269531 137.371094 C 104.0625 134.488281 104.269531 131.257812 104.269531 131.257812 C 106.132812 129.121094 105.613281 122.515625 105.613281 122.515625 C 105.09375 121.566406 104.863281 120.691406 104.5 119.949219 C 105.4375 120.867188 105.570312 122.148438 106.363281 123.609375 C 106.363281 123.609375 106.894531 130.214844 105.019531 132.351562 C 105.019531 132.351562 104.820312 135.570312 104.03125 138.457031 L 102.34375 144.5625 C 102.144531 145.519531 101.277344 146.207031 100.289062 146.175781 L 98.519531 146.125 L 96.351562 151.6875 C 95.632812 153.511719 93.851562 154.691406 91.890625 154.628906 L 89.785156 154.566406 C 89.742188 154.5625 89.695312 154.554688 89.652344 154.550781 C 89.652344 154.550781 94.367188 154.25 95.589844 150.59375 Z M 95.589844 150.59375 " fill-opacity="0.2" fill-rule="nonzero"/><path fill="#603813" d="M 86.363281 120.09375 C 84.140625 122.546875 83.054688 125.820312 83.332031 129.121094 C 83.632812 132.703125 84.207031 136.441406 84.695312 139.285156 C 84.96875 140.867188 85.21875 142.179688 85.390625 143.039062 C 85.519531 143.699219 86.074219 144.179688 86.746094 144.230469 L 93.898438 144.746094 C 95.15625 144.839844 96.3125 144.070312 96.714844 142.875 L 98.324219 138.648438 C 98.324219 138.648438 97.40625 133.25 99.722656 133.234375 C 100.191406 133.234375 100.660156 133.589844 100.683594 134.054688 C 100.742188 135.152344 100.113281 139.234375 100.882812 138.449219 C 101.101562 138.226562 101.675781 136.457031 101.675781 136.457031 C 101.96875 135.21875 102.429688 133.929688 102.46875 132.605469 C 102.539062 130.183594 102.796875 126.320312 103.539062 125.984375 C 104.640625 125.472656 108.21875 125.035156 108.796875 122.167969 C 108.898438 121.65625 108.910156 121.148438 108.839844 120.640625 C 108.246094 119.453125 107.425781 118.363281 106.410156 117.429688 C 101.109375 112.582031 92.148438 113.753906 86.40625 120.046875 Z M 86.363281 120.09375 " fill-opacity="1" fill-rule="nonzero"/><path fill="#f1f1f2" d="M 72.976562 197.160156 C 73.210938 207.632812 73.128906 220.167969 73.582031 220.921875 C 75.347656 223.84375 79.042969 227.476562 89.046875 227.414062 L 89.9375 213.945312 L 92.691406 227.738281 C 101.085938 233.148438 117.25 227.996094 117.25 227.996094 C 117.25 227.996094 112.367188 193.957031 110.664062 182.917969 L 119.671875 189.699219 C 121.136719 190.792969 122.898438 191.398438 124.714844 191.4375 L 130.808594 191.945312 C 126.335938 184.539062 127.410156 176.039062 127.410156 176.039062 L 126.277344 175.804688 L 117.230469 161.035156 C 115.277344 157.832031 112.289062 155.367188 108.730469 154.175781 C 108.710938 154.15625 108.691406 154.136719 108.652344 154.136719 C 108.574219 154.097656 108.496094 154.078125 108.398438 154.039062 C 95.679688 149.273438 76.433594 147.28125 71.824219 148.6875 C 66.136719 150.445312 65.453125 177.820312 65.453125 177.820312 C 65.453125 177.820312 63.96875 194.523438 72.976562 197.160156 Z M 72.976562 197.160156 " fill-opacity="1" fill-rule="nonzero"/><path fill="#808184" d="M 110.667969 182.914062 L 106.207031 175.238281 L 113.011719 200.375 Z M 110.667969 182.914062 " fill-opacity="0.2" fill-rule="nonzero"/><path fill="#3b2314" d="M 90.34375 326.488281 C 90.34375 326.488281 90.363281 326.488281 90.363281 326.507812 C 90.425781 326.566406 90.5 326.605469 90.582031 326.625 C 90.59375 326.652344 90.605469 326.65625 90.621094 326.644531 C 92.671875 327.816406 97.867188 326 97.867188 326 L 97.867188 325.179688 C 98.804688 324.867188 99.683594 324.554688 100.328125 324.320312 C 101.152344 324.027344 101.992188 323.851562 102.851562 323.8125 C 103.847656 323.773438 105.253906 323.714844 106.445312 323.636719 C 108.144531 323.519531 111.371094 320.234375 111.175781 318.671875 C 111.410156 317.910156 111.234375 317.324219 110.332031 317.1875 C 107.96875 316.835938 105.214844 317.519531 104.277344 317.792969 C 104.0625 317.851562 103.925781 317.890625 103.925781 317.890625 C 103.710938 317.871094 103.496094 317.851562 103.28125 317.8125 C 101.972656 317.597656 98.6875 317.03125 98.023438 316.660156 C 97.867188 316.5625 97.710938 316.738281 97.789062 316.894531 C 98.492188 318.125 98.414062 319.101562 98.121094 319.804688 C 97.828125 320.527344 97.183594 321.054688 96.421875 321.308594 C 92.730469 322.480469 92.613281 320.78125 91.613281 319.882812 C 91.378906 319.667969 91.007812 319.765625 90.910156 320.058594 C 90.617188 320.976562 90.050781 322.65625 89.953125 324.003906 L 89.953125 324.066406 C 89.777344 325.121094 89.816406 326.078125 90.34375 326.488281 Z M 90.34375 326.488281 " fill-opacity="1" fill-rule="nonzero"/><path fill="#f1f1f2" d="M 99.222656 149.542969 C 93.277344 150.046875 88.058594 149.164062 83.554688 146.921875 C 83.289062 146.789062 82.972656 146.855469 82.789062 147.085938 L 81.203125 149.074219 C 80.953125 149.386719 81.046875 149.863281 81.398438 150.050781 C 86.773438 152.882812 92.957031 154.054688 100.15625 153.164062 C 100.558594 153.113281 100.820312 152.695312 100.6875 152.3125 L 99.875 149.960938 C 99.78125 149.6875 99.511719 149.519531 99.222656 149.542969 Z M 99.222656 149.542969 " fill-opacity="1" fill-rule="nonzero"/><path fill="#808184" d="M 81.40625 150.054688 C 86.761719 152.886719 92.953125 154.058594 100.164062 153.160156 C 100.554688 153.121094 100.828125 152.691406 100.691406 152.320312 L 100.671875 152.28125 C 100.574219 152.378906 100.457031 152.4375 100.320312 152.457031 C 93.109375 153.355469 86.9375 152.183594 81.5625 149.351562 C 81.40625 149.273438 81.308594 149.136719 81.269531 148.980469 L 81.191406 149.078125 C 80.957031 149.390625 81.035156 149.859375 81.40625 150.054688 Z M 81.40625 150.054688 " fill-opacity="0.2" fill-rule="nonzero"/><path fill="#808184" d="M 73.019531 190.117188 L 73.019531 173.761719 L 74.457031 196.03125 L 73.019531 203.707031 Z M 73.019531 190.117188 " fill-opacity="0.2" fill-rule="nonzero"/></svg>