<svg viewBox="0 0 40 40" fill="none" xmlns="http://www.w3.org/2000/svg">
<path d="M7.81396 26.2415V39.0312H32.1898V25.9098L26.6586 24.1871V29.2747H12.5823V24.9211L7.81396 26.2415Z" fill="#8DF5E8"/>
<path d="M10.342 9.59066C16.6882 14.8721 23.0311 14.9509 29.3774 9.67278C29.3287 3.75251 25.9857 0.834251 19.532 0.73079C14.9682 1.41068 11.001 2.99051 10.342 9.59066Z" fill="#FFDA6A"/>
<path d="M28.5449 8.94199L28.5276 8.81226C27.7854 4.0744 23.78 1.78348 19.8128 1.78348C15.8455 1.78348 11.8575 4.06783 11.15 8.80897L11.1325 8.94199H28.5449ZM19.9758 12.8735C22.1294 12.9096 24.3245 12.2429 26.0828 10.7895L26.1487 10.7288H14.1601L14.5 11.0161C16.0362 12.1969 17.9887 12.8341 19.9758 12.8735ZM19.4764 20.9747C19.7122 20.9747 19.9549 20.9665 20.1908 20.9451C23.8286 20.6019 27.7473 17.3897 28.1427 11.8635L28.1566 11.4563L27.529 12.0458C25.3615 13.8687 22.6219 14.7046 19.9377 14.6537C17.2501 14.6028 14.6074 13.6618 12.6307 11.9358L12.0794 11.3922L12.1175 12.1181C12.6723 18.4571 16.123 20.9418 19.4764 20.9747ZM26.0169 28.3582V24.517L25.9197 24.4447C25.0216 23.7074 24.5395 22.9289 24.172 22.1522L23.9674 21.6874L23.246 22.0208C22.3339 22.3919 21.3802 22.6284 20.4093 22.7187C20.0798 22.7499 19.7469 22.7614 19.421 22.7581C18.1932 22.7467 17.0038 22.4921 15.8975 21.9912H15.8941L15.8246 22.1522C15.457 22.9289 14.975 23.7074 14.0768 24.4447C13.9277 24.563 13.7717 24.6812 13.6087 24.7962L13.2966 24.9932V28.3582H26.0169ZM37.9083 38.2132L37.8874 37.8125C37.4886 32.1912 35.9315 28.8985 33.1191 27.4993L33.0498 27.4697V38.2132H37.9083ZM27.1335 38.2132V33.6544H12.2527V38.2132H27.1335ZM10.2136 38.2132V32.7594C10.2136 32.27 10.6678 31.8676 11.2332 31.8676H28.1566C28.7184 31.8676 29.1762 32.27 29.1762 32.7594V38.2132H31.0072V26.78L30.7817 26.7143C29.783 26.4105 28.9334 26.1034 28.212 25.7848L28.056 25.7125V29.2499C28.056 29.7442 27.5982 30.1416 27.0398 30.1416H12.2735C11.7082 30.1416 11.254 29.7442 11.254 29.2499V26.0065L11.0216 26.1034C10.4806 26.3103 9.88074 26.5139 9.21138 26.7143L8.86816 26.8145V38.2132H10.2136ZM6.82553 38.2132V27.5272L6.28797 27.8294C3.8396 29.3928 2.47665 32.6165 2.10902 37.8158L2.0848 38.2132H6.82553ZM1.02021 40C0.444538 40 -0.0201666 39.5812 0.000674682 39.0771C0.271048 31.7855 2.24083 26.757 7.55366 25.3085C10.3939 24.5383 11.84 23.8223 12.6827 23.1408C13.2966 22.6399 13.6295 22.1242 13.9382 21.469L14.174 20.9287L13.6017 20.4508C11.5002 18.4883 10.0888 15.2597 10.0056 10.732V10.7288C9.43688 10.7288 8.98588 10.3281 8.98588 9.83374C8.98588 9.77297 8.98945 9.71221 9.00334 9.65473L9.03808 9.56111L9.03113 9.49708C9.03113 9.46752 9.03113 9.43631 9.03451 9.40347C9.50616 3.20073 14.6352 -5.96046e-07 19.8128 -5.96046e-07C24.9869 -5.96046e-07 30.1334 3.20073 30.6431 9.39689C30.6535 9.46094 30.6501 9.51841 30.6431 9.58246L30.6362 9.60875L30.6535 9.65473C30.6638 9.71221 30.6707 9.77297 30.6707 9.83374C30.6707 10.0834 30.5598 10.3034 30.3726 10.4643L30.1854 10.5777L30.2165 10.7041C30.2789 15.0183 28.4584 18.4456 25.8157 20.5231L25.6563 20.638L25.743 20.7628C26.173 21.7761 26.4989 22.474 27.3104 23.1408C28.1566 23.8223 29.6028 24.5383 32.4394 25.3085C37.7419 26.7537 39.722 31.7576 39.9995 39.0771C40.0168 39.5812 39.5557 40 38.98 40H1.02021Z" fill="#333333"/>
</svg>
