<svg xmlns="http://www.w3.org/2000/svg" xmlns:xlink="http://www.w3.org/1999/xlink" width="500" zoomAndPan="magnify" viewBox="0 0 375 374.999991" height="500" preserveAspectRatio="xMidYMid meet" version="1.0"><defs><clipPath id="74e50cd9f7"><path d="M 37.5 82 L 302 82 L 302 294 L 37.5 294 Z M 37.5 82 " clip-rule="nonzero"/></clipPath><clipPath id="23c212e6f7"><path d="M 65 108 L 337.5 108 L 337.5 294 L 65 294 Z M 65 108 " clip-rule="nonzero"/></clipPath><clipPath id="424dac7f00"><path d="M 65 282 L 337.5 282 L 337.5 294 L 65 294 Z M 65 282 " clip-rule="nonzero"/></clipPath></defs><path fill="#f28124" d="M 314.996094 108.640625 L 314.996094 293.820312 L 65.621094 293.820312 C 59.40625 293.820312 54.371094 288.78125 54.371094 282.570312 L 54.371094 108.640625 C 54.371094 106.859375 55.054688 105.105469 56.40625 103.753906 C 57.75 102.414062 59.527344 101.730469 61.289062 101.730469 L 64.714844 101.730469 L 64.714844 87.933594 C 64.714844 86.160156 65.386719 84.398438 66.761719 83.042969 C 68.097656 81.691406 69.859375 81.027344 71.644531 81.027344 L 137.183594 81.027344 C 138.960938 81.027344 140.714844 81.691406 142.074219 83.042969 C 143.410156 84.398438 144.085938 86.160156 144.085938 87.933594 L 144.085938 101.730469 L 308.085938 101.730469 C 309.859375 101.730469 311.644531 102.410156 312.984375 103.753906 C 314.339844 105.105469 314.996094 106.859375 314.996094 108.640625 Z M 314.996094 108.640625 " fill-opacity="1" fill-rule="nonzero"/><g clip-path="url(#74e50cd9f7)"><path fill="#f2f9fd" d="M 37.492188 128.957031 L 268.035156 82.023438 L 301.59375 246.878906 L 71.050781 293.8125 Z M 37.492188 128.957031 " fill-opacity="1" fill-rule="nonzero"/></g><g clip-path="url(#23c212e6f7)"><path fill="#ff9d4d" d="M 337.5 136.253906 L 337.5 282.957031 C 337.3125 288.980469 332.339844 293.820312 326.242188 293.820312 L 65.660156 293.820312 C 71.875 293.800781 76.886719 288.769531 76.886719 282.570312 L 76.886719 136.253906 C 76.886719 134.5 77.558594 132.734375 78.917969 131.378906 C 80.246094 130.042969 82.023438 129.347656 83.785156 129.347656 L 247.796875 129.347656 L 247.796875 115.566406 C 247.796875 113.792969 248.476562 112.011719 249.816406 110.675781 C 251.175781 109.335938 252.933594 108.652344 254.691406 108.652344 L 320.257812 108.652344 C 322.011719 108.652344 323.789062 109.335938 325.125 110.675781 C 326.480469 112.007812 327.15625 113.792969 327.15625 115.566406 L 327.15625 129.347656 L 330.582031 129.347656 C 332.363281 129.347656 334.144531 130.046875 335.484375 131.378906 C 336.8125 132.734375 337.5 134.5 337.5 136.253906 Z M 337.5 136.253906 " fill-opacity="1" fill-rule="nonzero"/></g><g clip-path="url(#424dac7f00)"><path fill="#f28124" d="M 337.5 282.957031 L 337.5 282.574219 L 76.886719 282.574219 C 76.886719 288.769531 71.871094 293.804688 65.664062 293.824219 L 326.246094 293.824219 C 332.339844 293.820312 337.3125 288.984375 337.5 282.957031 Z M 337.5 282.957031 " fill-opacity="1" fill-rule="nonzero"/></g><path fill="#f28124" d="M 101.632812 154.089844 L 154.039062 154.089844 L 154.039062 173.9375 L 101.632812 173.9375 Z M 101.632812 154.089844 " fill-opacity="1" fill-rule="nonzero"/><path fill="#f28124" d="M 158.417969 154.089844 L 210.816406 154.089844 L 210.816406 157.789062 L 158.417969 157.789062 Z M 158.417969 154.089844 " fill-opacity="1" fill-rule="nonzero"/><path fill="#f28124" d="M 158.417969 162.160156 L 210.816406 162.160156 L 210.816406 165.867188 L 158.417969 165.867188 Z M 158.417969 162.160156 " fill-opacity="1" fill-rule="nonzero"/><path fill="#f28124" d="M 158.417969 170.238281 L 210.816406 170.238281 L 210.816406 173.9375 L 158.417969 173.9375 Z M 158.417969 170.238281 " fill-opacity="1" fill-rule="nonzero"/><path fill="#f28124" d="M 101.632812 178.316406 L 184.617188 178.316406 L 184.617188 182.015625 L 101.632812 182.015625 Z M 101.632812 178.316406 " fill-opacity="1" fill-rule="nonzero"/></svg>