<svg xmlns="http://www.w3.org/2000/svg" xmlns:xlink="http://www.w3.org/1999/xlink" width="500" zoomAndPan="magnify" viewBox="0 0 375 374.999991" height="500" preserveAspectRatio="xMidYMid meet" version="1.0"><defs><clipPath id="4a9429e834"><path d="M 37.5 111 L 293 111 L 293 252 L 37.5 252 Z M 37.5 111 " clip-rule="nonzero"/></clipPath><clipPath id="33f3c3f14e"><path d="M 264 152 L 303 152 L 303 277.296875 L 264 277.296875 Z M 264 152 " clip-rule="nonzero"/></clipPath></defs><g clip-path="url(#4a9429e834)"><path fill="#d1504f" d="M 37.5 251.421875 C 57.441406 225.488281 92.214844 194.714844 117.121094 172.855469 C 122.648438 178.664062 130.359375 186.226562 136.757812 191.078125 C 157.417969 171.773438 177.351562 151.265625 199.941406 134.082031 C 208.570312 140.917969 219.390625 151.265625 228.0625 158.0625 C 242.324219 146.03125 258.019531 134.417969 273.371094 123.042969 C 270.253906 119.476562 267.128906 115.90625 264.011719 112.339844 C 273.386719 113.226562 282.886719 112.734375 292.710938 111.214844 C 291.910156 120.238281 288.457031 128.859375 288.960938 137.921875 C 283.867188 134.652344 282.078125 131.851562 277.058594 128.210938 C 260.976562 141.710938 244.015625 154.253906 226.304688 165.753906 C 218.691406 156.824219 210.054688 148.6875 200.601562 141.542969 C 181.222656 160.886719 157.996094 181.792969 135.980469 198.367188 C 131.136719 195.160156 125.070312 188.703125 118.746094 183.695312 C 100.472656 199.632812 41.839844 250.90625 37.5 251.421875 Z M 37.5 251.421875 " fill-opacity="1" fill-rule="nonzero"/></g><path fill="#6dc5e0" d="M 210.265625 178.496094 C 199.4375 178.101562 184.171875 178.027344 173.347656 177.625 C 171.167969 211.089844 174.527344 235.488281 172.011719 274.074219 C 184.460938 273.917969 196.914062 273.757812 209.359375 273.601562 C 209.648438 239.574219 210 209.617188 210.257812 178.496094 Z M 210.265625 178.496094 " fill-opacity="1" fill-rule="nonzero"/><g clip-path="url(#33f3c3f14e)"><path fill="#ed94bf" d="M 264.554688 274.015625 C 276.929688 275.09375 289.308594 276.175781 301.683594 277.253906 C 303.441406 261.785156 303.070312 172.878906 301.808594 156.425781 C 292.097656 154.800781 279.875 153.617188 270.128906 152.863281 C 269.917969 152.84375 266.46875 233.332031 264.554688 274.015625 Z M 264.554688 274.015625 " fill-opacity="1" fill-rule="nonzero"/></g><path fill="#e479a7" d="M 294.589844 155.578125 C 294.417969 195.875 293.101562 236.167969 290.625 276.589844 C 294.476562 276.703125 298.332031 276.816406 302.484375 276.90625 C 304.167969 236.808594 304.890625 196.664062 304.652344 156.53125 C 302.199219 156.65625 299.738281 156.785156 294.589844 155.578125 Z M 294.589844 155.578125 " fill-opacity="1" fill-rule="nonzero"/><path fill="#f0d06e" d="M 219.660156 185.097656 C 220.613281 218.089844 221.265625 242.144531 222.15625 275.195312 C 233.019531 273.804688 244.070312 273.507812 255.050781 274.304688 C 254.789062 241.988281 253.84375 216.578125 251.234375 184.300781 C 241.304688 184.929688 232.144531 184.78125 219.65625 185.097656 Z M 219.660156 185.097656 " fill-opacity="1" fill-rule="nonzero"/><path fill="#ddbe46" d="M 241.222656 184.75 C 243.054688 193.554688 243.429688 202.589844 243.808594 211.578125 C 244.359375 224.835938 244.910156 238.097656 245.460938 251.355469 C 245.757812 258.605469 246.0625 265.871094 245.449219 273.144531 C 248.785156 273.144531 252.125 273.375 255.429688 273.824219 C 255.269531 259.023438 255.101562 244.226562 254.9375 229.429688 C 254.769531 214.1875 254.585938 198.828125 251.457031 183.910156 C 248.679688 184.964844 245.765625 185.636719 241.226562 184.746094 Z M 241.222656 184.75 " fill-opacity="1" fill-rule="nonzero"/><path fill="#70cce4" d="M 93.078125 232.910156 C 82.585938 233.324219 72.097656 233.738281 61.089844 234.125 C 60.535156 246.769531 60.410156 259.445312 60.726562 272.113281 C 72.460938 272.703125 84.214844 272.71875 95.925781 272.15625 C 95 262.863281 94.910156 251.207031 93.078125 232.910156 Z M 93.078125 232.910156 " fill-opacity="1" fill-rule="nonzero"/><path fill="#9bbc96" d="M 109.839844 208.476562 C 110.15625 229.78125 111.054688 251.09375 112.898438 272.871094 C 127.09375 273.765625 138.21875 271.246094 152.425781 271.292969 C 151.933594 251.09375 149.425781 228 147.5 204.785156 C 135.230469 204.519531 122.957031 205.359375 109.839844 208.476562 Z M 109.839844 208.476562 " fill-opacity="1" fill-rule="nonzero"/><path fill="#86b07c" d="M 133.238281 205.832031 C 133.632812 227.894531 135.035156 249.929688 137.453125 271.863281 C 142.773438 270.605469 148.285156 270.160156 153.734375 270.539062 C 152.539062 248.484375 150.855469 226.460938 148.703125 204.484375 C 144.824219 205.628906 140.808594 206.300781 133.246094 205.839844 Z M 133.238281 205.832031 " fill-opacity="1" fill-rule="nonzero"/><path fill="#3cb4d6" d="M 198.277344 178.105469 C 198.554688 209.660156 199.433594 242.171875 199.707031 273.722656 C 205.519531 274.542969 208.785156 274.980469 209.359375 273.601562 C 210.335938 271.28125 210.378906 242.589844 210.257812 178.496094 C 207.363281 176.726562 205.613281 178.003906 198.273438 178.113281 Z M 198.277344 178.105469 " fill-opacity="1" fill-rule="nonzero"/><path fill="#3cb4d6" d="M 86.277344 233.183594 C 86.277344 246.390625 87.210938 259.277344 88.1875 272.449219 C 91.585938 272.152344 93.664062 272.925781 97.070312 272.625 C 95.878906 259.5 94.933594 245.964844 93.078125 232.917969 C 91.144531 233.335938 89.464844 233.234375 86.277344 233.1875 Z M 86.277344 233.183594 " fill-opacity="1" fill-rule="nonzero"/><path fill="#d8aa53" d="M 328.828125 102.386719 C 323.710938 98.148438 314.101562 99.539062 309.691406 104.316406 C 305.34375 109.023438 304.375 116.53125 307.453125 122.265625 C 310.527344 127.996094 317.488281 131.503906 323.886719 130.449219 C 330.28125 129.394531 335.574219 123.804688 336.117188 117.402344 C 336.417969 113.828125 335.476562 112.101562 334.304688 108.683594 C 333.652344 106.789062 335.0625 105.785156 328.828125 102.386719 Z M 328.828125 102.386719 " fill-opacity="1" fill-rule="nonzero"/><path fill="#e1b663" d="M 311.605469 103.316406 C 316.65625 99.621094 324.144531 99.515625 329.445312 103.058594 C 334.746094 106.601562 337.492188 113.550781 335.992188 119.613281 C 335.699219 120.78125 335.261719 121.929688 334.628906 122.949219 C 334.105469 123.785156 333.453125 124.535156 332.753906 125.238281 C 329.953125 128.039062 326.238281 130.058594 322.234375 130.339844 C 326.679688 130.675781 330.78125 127.984375 333.699219 124.714844 C 334.519531 123.800781 335.285156 122.816406 335.8125 121.699219 C 337.238281 118.683594 336.746094 115.109375 335.984375 111.824219 C 335.574219 110.054688 335.082031 108.269531 334.144531 106.699219 C 332.175781 103.382812 328.457031 101.386719 324.6875 100.496094 C 322.15625 99.898438 319.5 99.730469 316.96875 100.25 C 314.441406 100.773438 312.046875 102.027344 311.605469 103.320312 Z M 311.605469 103.316406 " fill-opacity="1" fill-rule="nonzero"/><path fill="#e1b663" d="M 327.773438 108.304688 C 327.761719 107.035156 326.847656 105.886719 325.699219 105.347656 C 324.550781 104.808594 323.222656 104.796875 321.96875 105.023438 C 320.320312 105.332031 318.703125 106.082031 317.625 107.371094 C 316.546875 108.660156 316.101562 110.53125 316.746094 112.082031 C 317.949219 114.964844 322.066406 115.554688 323.550781 118.304688 C 324.652344 120.351562 323.773438 123.144531 321.828125 124.421875 C 319.882812 125.699219 317.183594 125.507812 315.179688 124.589844 C 314.699219 124.832031 314.710938 125.578125 315.078125 125.976562 C 315.441406 126.371094 316.003906 126.492188 316.535156 126.570312 C 319.300781 126.976562 322.472656 126.5625 324.25 124.398438 C 325.125 123.335938 325.5625 121.945312 325.589844 120.566406 C 325.640625 118.234375 324.496094 115.90625 322.621094 114.515625 C 321.359375 113.582031 319.71875 112.96875 319.015625 111.5625 C 318.070312 109.660156 319.640625 107.140625 321.738281 106.8125 C 323.832031 106.480469 325.933594 107.992188 326.699219 109.976562 C 326.914062 109.9375 327.789062 110.019531 327.773438 108.296875 Z M 327.773438 108.304688 " fill-opacity="1" fill-rule="nonzero"/><path fill="#e1b663" d="M 323.617188 102.097656 C 322.875 111.441406 322.136719 120.777344 321.394531 130.117188 C 321.753906 130.070312 322.113281 130.015625 322.472656 129.96875 C 323.125 120.703125 323.773438 111.441406 324.425781 102.171875 C 323.710938 102.34375 322.992188 102.519531 323.617188 102.097656 Z M 323.617188 102.097656 " fill-opacity="1" fill-rule="nonzero"/></svg>