<svg xmlns="http://www.w3.org/2000/svg" xmlns:xlink="http://www.w3.org/1999/xlink" width="500" zoomAndPan="magnify" viewBox="0 0 375 374.999991" height="500" preserveAspectRatio="xMidYMid meet" version="1.0"><defs><clipPath id="28ad870138"><path d="M 304.90625 115.808594 L 313.125 115.808594 L 313.125 314 L 304.90625 314 Z M 304.90625 115.808594 " clip-rule="nonzero"/></clipPath><clipPath id="82d6dd816e"><path d="M 66.007812 37.5 L 313.125 37.5 L 313.125 120.394531 L 66.007812 120.394531 Z M 66.007812 37.5 " clip-rule="nonzero"/></clipPath><clipPath id="77016701b7"><path d="M 61.875 52 L 194 52 L 194 260 L 61.875 260 Z M 61.875 52 " clip-rule="nonzero"/></clipPath><clipPath id="fcc566888b"><path d="M 138.503906 317.082031 L 173.527344 317.082031 L 173.527344 337.5 L 138.503906 337.5 Z M 138.503906 317.082031 " clip-rule="nonzero"/></clipPath></defs><path fill="#f89d1f" d="M 196.972656 57.640625 C 196.828125 57.675781 196.679688 57.710938 196.527344 57.75 C 196.492188 57.757812 196.460938 57.765625 196.425781 57.777344 C 196.273438 57.8125 196.121094 57.851562 195.960938 57.890625 C 195.9375 57.894531 195.914062 57.902344 195.890625 57.90625 C 195.746094 57.941406 195.597656 57.976562 195.445312 58.011719 C 195.414062 58.023438 195.378906 58.03125 195.347656 58.039062 C 195.179688 58.078125 195.007812 58.117188 194.832031 58.160156 C 194.800781 58.167969 194.765625 58.175781 194.730469 58.183594 C 194.570312 58.222656 194.410156 58.261719 194.242188 58.296875 C 194.214844 58.304688 194.183594 58.3125 194.15625 58.316406 C 193.972656 58.359375 193.785156 58.402344 193.597656 58.445312 C 193.550781 58.457031 193.503906 58.46875 193.457031 58.476562 C 193.273438 58.519531 193.085938 58.5625 192.894531 58.601562 C 192.882812 58.605469 192.871094 58.609375 192.859375 58.613281 C 192.65625 58.65625 192.449219 58.703125 192.238281 58.75 C 192.191406 58.757812 192.144531 58.769531 192.097656 58.78125 C 191.886719 58.824219 191.675781 58.871094 191.457031 58.917969 C 191.433594 58.921875 191.414062 58.925781 191.390625 58.933594 C 191.1875 58.972656 190.984375 59.015625 190.777344 59.058594 C 190.726562 59.070312 190.679688 59.082031 190.628906 59.089844 C 190.40625 59.136719 190.179688 59.1875 189.949219 59.230469 C 189.90625 59.238281 189.863281 59.25 189.824219 59.257812 C 189.617188 59.300781 189.410156 59.339844 189.199219 59.382812 C 189.152344 59.390625 189.105469 59.402344 189.058594 59.410156 C 188.820312 59.457031 188.582031 59.507812 188.335938 59.554688 C 188.285156 59.5625 188.230469 59.574219 188.175781 59.585938 C 187.949219 59.628906 187.71875 59.671875 187.484375 59.71875 C 187.453125 59.722656 187.425781 59.730469 187.394531 59.734375 C 187.140625 59.78125 186.886719 59.832031 186.625 59.878906 C 186.5625 59.890625 186.503906 59.902344 186.441406 59.914062 C 186.175781 59.960938 185.910156 60.011719 185.640625 60.058594 C 185.621094 60.0625 185.605469 60.066406 185.585938 60.070312 C 185.351562 60.109375 185.109375 60.152344 184.867188 60.195312 C 184.796875 60.207031 184.726562 60.222656 184.65625 60.234375 C 184.417969 60.277344 184.175781 60.316406 183.929688 60.359375 C 183.90625 60.363281 183.882812 60.367188 183.859375 60.371094 C 183.597656 60.417969 183.328125 60.460938 183.0625 60.507812 C 182.988281 60.515625 182.917969 60.53125 182.847656 60.539062 C 182.609375 60.582031 182.371094 60.621094 182.125 60.660156 C 182.085938 60.664062 182.046875 60.671875 182.007812 60.679688 C 181.730469 60.722656 181.453125 60.765625 181.171875 60.8125 C 181.101562 60.820312 181.027344 60.835938 180.957031 60.84375 C 180.71875 60.882812 180.480469 60.917969 180.238281 60.957031 C 180.179688 60.964844 180.125 60.972656 180.070312 60.980469 C 179.78125 61.023438 179.492188 61.066406 179.199219 61.109375 C 179.132812 61.121094 179.0625 61.132812 178.996094 61.140625 C 178.75 61.175781 178.503906 61.210938 178.257812 61.246094 C 178.191406 61.257812 178.121094 61.265625 178.050781 61.277344 C 177.753906 61.320312 177.453125 61.359375 177.152344 61.402344 C 177.089844 61.410156 177.023438 61.417969 176.960938 61.425781 C 176.707031 61.460938 176.449219 61.496094 176.191406 61.53125 C 176.113281 61.539062 176.039062 61.550781 175.960938 61.558594 C 175.652344 61.601562 175.339844 61.640625 175.023438 61.679688 C 174.976562 61.6875 174.925781 61.695312 174.875 61.699219 C 174.601562 61.734375 174.324219 61.769531 174.046875 61.804688 C 173.964844 61.8125 173.878906 61.824219 173.796875 61.832031 C 173.472656 61.871094 173.152344 61.910156 172.824219 61.949219 C 172.796875 61.949219 172.773438 61.953125 172.746094 61.957031 C 172.441406 61.992188 172.136719 62.027344 171.828125 62.0625 C 171.742188 62.070312 171.652344 62.082031 171.5625 62.089844 C 171.246094 62.125 170.929688 62.160156 170.609375 62.191406 C 170.589844 62.195312 170.570312 62.195312 170.550781 62.199219 C 170.214844 62.234375 169.875 62.265625 169.535156 62.300781 C 169.457031 62.308594 169.382812 62.316406 169.304688 62.324219 C 168.855469 62.367188 168.402344 62.414062 167.945312 62.453125 C 167.878906 62.460938 167.8125 62.46875 167.746094 62.472656 C 167.285156 62.515625 166.820312 62.554688 166.351562 62.597656 C 166.289062 62.601562 166.222656 62.605469 166.160156 62.613281 C 165.6875 62.648438 165.210938 62.6875 164.730469 62.726562 C 164.671875 62.730469 164.613281 62.734375 164.554688 62.738281 C 164.066406 62.777344 163.578125 62.8125 163.082031 62.847656 C 163.027344 62.851562 162.972656 62.851562 162.917969 62.855469 C 162.417969 62.890625 161.914062 62.925781 161.40625 62.953125 C 161.359375 62.957031 161.3125 62.960938 161.265625 62.964844 C 160.746094 62.996094 160.226562 63.023438 159.703125 63.050781 C 159.667969 63.054688 159.628906 63.054688 159.59375 63.054688 C 159.058594 63.085938 158.515625 63.109375 157.972656 63.136719 C 157.949219 63.136719 157.929688 63.136719 157.910156 63.136719 C 157.347656 63.164062 156.785156 63.183594 156.214844 63.207031 C 155.34375 63.238281 154.472656 63.261719 153.601562 63.28125 C 153.480469 63.285156 153.355469 63.289062 153.230469 63.289062 C 152.410156 63.308594 151.59375 63.320312 150.777344 63.328125 C 150.648438 63.328125 150.519531 63.332031 150.390625 63.332031 C 149.578125 63.335938 148.765625 63.339844 147.953125 63.332031 C 147.828125 63.332031 147.699219 63.332031 147.570312 63.332031 C 146.757812 63.324219 145.945312 63.316406 145.132812 63.300781 C 145.015625 63.296875 144.898438 63.292969 144.78125 63.292969 C 144.21875 63.28125 143.65625 63.261719 143.09375 63.246094 C 142.648438 63.230469 142.199219 63.21875 141.753906 63.203125 C 141.28125 63.183594 140.816406 63.164062 140.347656 63.144531 C 139.902344 63.125 139.457031 63.105469 139.011719 63.082031 C 138.546875 63.058594 138.082031 63.03125 137.617188 63.003906 C 137.171875 62.976562 136.730469 62.953125 136.289062 62.925781 C 135.824219 62.894531 135.363281 62.859375 134.898438 62.824219 C 134.460938 62.796875 134.019531 62.761719 133.578125 62.726562 C 133.109375 62.691406 132.640625 62.648438 132.171875 62.605469 C 131.753906 62.570312 131.332031 62.535156 130.910156 62.496094 C 130.441406 62.449219 129.96875 62.402344 129.5 62.351562 C 129.085938 62.3125 128.667969 62.269531 128.253906 62.222656 C 127.785156 62.171875 127.316406 62.113281 126.847656 62.0625 C 126.433594 62.011719 126.023438 61.964844 125.613281 61.914062 C 125.144531 61.855469 124.675781 61.792969 124.207031 61.726562 C 123.800781 61.675781 123.394531 61.625 122.992188 61.566406 C 122.5 61.496094 122.007812 61.421875 121.515625 61.351562 C 121.148438 61.296875 120.78125 61.242188 120.414062 61.1875 C 119.898438 61.105469 119.382812 61.019531 118.871094 60.933594 C 118.53125 60.878906 118.191406 60.824219 117.851562 60.765625 C 117.285156 60.667969 116.71875 60.566406 116.152344 60.464844 C 115.871094 60.414062 115.589844 60.363281 115.308594 60.3125 C 114.464844 60.152344 113.621094 59.992188 112.785156 59.820312 C 112.433594 59.75 112.085938 59.675781 111.738281 59.601562 C 111.511719 59.554688 111.28125 59.507812 111.054688 59.457031 C 110.792969 59.402344 110.535156 59.34375 110.273438 59.289062 C 110.046875 59.238281 109.824219 59.1875 109.601562 59.136719 C 109.335938 59.082031 109.074219 59.019531 108.8125 58.957031 C 108.59375 58.90625 108.371094 58.859375 108.152344 58.804688 C 107.886719 58.746094 107.621094 58.679688 107.359375 58.617188 C 107.140625 58.566406 106.925781 58.515625 106.710938 58.460938 C 106.441406 58.398438 106.175781 58.328125 105.90625 58.265625 C 105.695312 58.210938 105.484375 58.160156 105.273438 58.105469 C 105 58.035156 104.726562 57.964844 104.457031 57.894531 C 104.253906 57.839844 104.050781 57.789062 103.847656 57.738281 C 103.5625 57.660156 103.277344 57.585938 102.992188 57.503906 C 102.804688 57.453125 102.613281 57.40625 102.425781 57.351562 C 102.113281 57.269531 101.804688 57.179688 101.492188 57.09375 C 101.332031 57.046875 101.171875 57.003906 101.011719 56.957031 C 100.9375 56.9375 100.863281 56.917969 100.789062 56.894531 C 100.324219 56.761719 99.859375 56.625 99.398438 56.488281 C 99.21875 56.4375 99.039062 56.382812 98.863281 56.328125 C 98.5 56.21875 98.140625 56.109375 97.78125 56 C 97.585938 55.9375 97.390625 55.878906 97.199219 55.820312 C 96.84375 55.707031 96.488281 55.59375 96.132812 55.480469 C 95.953125 55.421875 95.769531 55.363281 95.59375 55.304688 C 95.164062 55.164062 94.738281 55.023438 94.3125 54.882812 C 94.210938 54.847656 94.109375 54.816406 94.011719 54.78125 C 93.488281 54.605469 92.964844 54.425781 92.445312 54.242188 C 92.300781 54.195312 92.160156 54.140625 92.019531 54.09375 C 91.640625 53.957031 91.257812 53.820312 90.882812 53.683594 C 90.699219 53.617188 90.515625 53.550781 90.332031 53.484375 C 89.988281 53.355469 89.648438 53.230469 89.304688 53.101562 C 89.121094 53.03125 88.9375 52.960938 88.753906 52.890625 C 88.390625 52.753906 88.03125 52.613281 87.671875 52.472656 C 87.527344 52.417969 87.382812 52.359375 87.238281 52.304688 C 86.53125 52.027344 85.828125 51.742188 85.128906 51.453125 C 85.007812 51.402344 84.882812 51.351562 84.761719 51.300781 C 84.074219 51.015625 83.386719 50.722656 82.707031 50.429688 C 82.589844 50.378906 82.472656 50.324219 82.351562 50.273438 C 81.65625 49.96875 80.964844 49.660156 80.277344 49.34375 C 80.207031 49.3125 80.136719 49.28125 80.070312 49.25 C 79.382812 48.933594 78.695312 48.613281 78.015625 48.285156 C 77.964844 48.261719 77.910156 48.234375 77.855469 48.210938 C 77.171875 47.878906 76.492188 47.542969 75.8125 47.203125 C 75.703125 47.144531 75.589844 47.09375 75.480469 47.035156 C 74.824219 46.707031 74.171875 46.367188 73.523438 46.027344 C 73.40625 45.964844 73.285156 45.898438 73.167969 45.839844 C 72.515625 45.492188 71.863281 45.140625 71.21875 44.785156 C 71.128906 44.734375 71.035156 44.683594 70.945312 44.632812 C 70.265625 44.257812 69.589844 43.878906 68.921875 43.492188 C 67.980469 42.945312 67.046875 42.394531 66.121094 41.828125 L 65.570312 235.492188 C 66.5 236.058594 67.429688 236.613281 68.371094 237.15625 C 69.042969 237.542969 69.71875 237.925781 70.394531 238.300781 C 70.488281 238.351562 70.578125 238.402344 70.667969 238.453125 C 71.316406 238.808594 71.964844 239.160156 72.617188 239.503906 C 72.738281 239.566406 72.855469 239.628906 72.972656 239.691406 C 73.625 240.035156 74.277344 240.371094 74.933594 240.703125 C 75.042969 240.757812 75.152344 240.8125 75.261719 240.867188 C 75.941406 241.207031 76.621094 241.542969 77.308594 241.875 C 77.359375 241.902344 77.414062 241.925781 77.46875 241.949219 C 78.148438 242.277344 78.832031 242.597656 79.519531 242.914062 C 79.589844 242.945312 79.65625 242.976562 79.726562 243.007812 C 80.414062 243.324219 81.109375 243.632812 81.804688 243.941406 C 81.921875 243.988281 82.039062 244.042969 82.15625 244.09375 C 82.839844 244.390625 83.523438 244.679688 84.210938 244.964844 C 84.335938 245.019531 84.457031 245.070312 84.582031 245.121094 C 85.28125 245.40625 85.980469 245.691406 86.6875 245.96875 C 86.714844 245.980469 86.746094 245.992188 86.773438 246.007812 C 86.890625 246.050781 87.003906 246.09375 87.121094 246.140625 C 87.480469 246.28125 87.839844 246.417969 88.203125 246.558594 C 88.386719 246.628906 88.574219 246.695312 88.757812 246.769531 C 89.097656 246.894531 89.441406 247.023438 89.785156 247.148438 C 89.964844 247.214844 90.148438 247.285156 90.332031 247.351562 C 90.710938 247.488281 91.089844 247.621094 91.46875 247.757812 C 91.609375 247.808594 91.753906 247.859375 91.898438 247.910156 C 92.417969 248.089844 92.9375 248.269531 93.460938 248.449219 C 93.5625 248.480469 93.664062 248.515625 93.761719 248.546875 C 94.1875 248.691406 94.617188 248.832031 95.042969 248.972656 C 95.222656 249.03125 95.402344 249.085938 95.582031 249.144531 C 95.9375 249.257812 96.292969 249.371094 96.652344 249.484375 C 96.84375 249.546875 97.035156 249.605469 97.230469 249.664062 C 97.589844 249.777344 97.953125 249.882812 98.3125 249.996094 C 98.492188 250.046875 98.671875 250.101562 98.847656 250.15625 C 99.3125 250.292969 99.777344 250.425781 100.242188 250.5625 C 100.304688 250.578125 100.371094 250.597656 100.433594 250.617188 C 100.441406 250.617188 100.453125 250.621094 100.464844 250.625 C 100.625 250.671875 100.785156 250.714844 100.949219 250.761719 C 101.257812 250.847656 101.566406 250.933594 101.878906 251.019531 C 102.066406 251.070312 102.257812 251.121094 102.449219 251.171875 C 102.730469 251.25 103.011719 251.328125 103.296875 251.398438 C 103.503906 251.457031 103.710938 251.507812 103.917969 251.5625 C 104.1875 251.632812 104.453125 251.703125 104.722656 251.769531 C 104.9375 251.824219 105.152344 251.878906 105.363281 251.929688 C 105.628906 251.996094 105.894531 252.0625 106.160156 252.128906 C 106.375 252.179688 106.597656 252.230469 106.8125 252.285156 C 107.074219 252.347656 107.335938 252.410156 107.601562 252.472656 C 107.824219 252.523438 108.046875 252.574219 108.269531 252.625 C 108.527344 252.6875 108.789062 252.746094 109.050781 252.804688 C 109.273438 252.855469 109.5 252.902344 109.722656 252.953125 C 109.984375 253.011719 110.246094 253.070312 110.507812 253.125 C 110.734375 253.171875 110.960938 253.21875 111.1875 253.269531 C 111.355469 253.304688 111.519531 253.339844 111.6875 253.375 C 111.871094 253.410156 112.054688 253.449219 112.234375 253.488281 C 113.074219 253.65625 113.914062 253.820312 114.757812 253.980469 C 115.039062 254.03125 115.320312 254.078125 115.601562 254.128906 C 116.167969 254.234375 116.734375 254.335938 117.300781 254.433594 C 117.644531 254.492188 117.984375 254.542969 118.328125 254.601562 C 118.839844 254.683594 119.351562 254.769531 119.863281 254.851562 C 120.230469 254.910156 120.601562 254.960938 120.96875 255.015625 C 121.375 255.078125 121.78125 255.140625 122.191406 255.199219 C 122.277344 255.210938 122.359375 255.222656 122.445312 255.234375 C 122.847656 255.289062 123.253906 255.339844 123.65625 255.394531 C 124.125 255.457031 124.59375 255.519531 125.066406 255.578125 C 125.476562 255.628906 125.886719 255.679688 126.296875 255.726562 C 126.765625 255.78125 127.234375 255.835938 127.707031 255.890625 C 128.121094 255.933594 128.535156 255.976562 128.949219 256.019531 C 129.421875 256.066406 129.890625 256.113281 130.363281 256.160156 C 130.78125 256.199219 131.203125 256.238281 131.621094 256.273438 C 131.953125 256.300781 132.285156 256.335938 132.617188 256.363281 C 132.753906 256.375 132.894531 256.382812 133.03125 256.394531 C 133.46875 256.429688 133.910156 256.460938 134.347656 256.492188 C 134.8125 256.527344 135.273438 256.5625 135.742188 256.589844 C 136.179688 256.621094 136.625 256.644531 137.066406 256.671875 C 137.53125 256.699219 137.996094 256.726562 138.464844 256.75 C 138.910156 256.773438 139.355469 256.792969 139.800781 256.8125 C 140.265625 256.832031 140.734375 256.851562 141.203125 256.871094 C 141.648438 256.882812 142.097656 256.898438 142.546875 256.914062 C 142.851562 256.921875 143.15625 256.933594 143.460938 256.941406 C 143.71875 256.949219 143.976562 256.953125 144.234375 256.957031 C 144.351562 256.960938 144.46875 256.964844 144.585938 256.964844 C 145.394531 256.980469 146.207031 256.992188 147.023438 256.996094 C 147.148438 257 147.277344 257 147.40625 257 C 148.214844 257.003906 149.027344 257.003906 149.839844 256.996094 C 149.96875 256.996094 150.097656 256.996094 150.226562 256.992188 C 151.046875 256.984375 151.863281 256.972656 152.683594 256.957031 C 152.804688 256.953125 152.929688 256.949219 153.050781 256.949219 C 153.789062 256.929688 154.53125 256.910156 155.273438 256.882812 C 155.40625 256.882812 155.535156 256.875 155.667969 256.871094 C 156.234375 256.851562 156.800781 256.828125 157.359375 256.804688 C 157.378906 256.804688 157.402344 256.800781 157.421875 256.800781 C 157.96875 256.777344 158.507812 256.75 159.046875 256.722656 C 159.082031 256.722656 159.117188 256.71875 159.152344 256.71875 C 159.679688 256.6875 160.199219 256.660156 160.71875 256.628906 C 160.765625 256.625 160.808594 256.625 160.855469 256.621094 C 161.363281 256.589844 161.871094 256.558594 162.375 256.523438 C 162.425781 256.519531 162.480469 256.515625 162.53125 256.511719 C 163.023438 256.476562 163.515625 256.441406 164 256.40625 C 164.0625 256.402344 164.125 256.398438 164.183594 256.390625 C 164.664062 256.355469 165.140625 256.316406 165.613281 256.277344 C 165.675781 256.273438 165.738281 256.265625 165.800781 256.261719 C 166.269531 256.222656 166.734375 256.179688 167.199219 256.136719 C 167.261719 256.132812 167.328125 256.125 167.394531 256.121094 C 167.851562 256.078125 168.304688 256.035156 168.757812 255.992188 C 168.792969 255.988281 168.828125 255.984375 168.863281 255.980469 C 168.902344 255.976562 168.945312 255.972656 168.984375 255.96875 C 169.324219 255.933594 169.664062 255.898438 170 255.863281 C 170.019531 255.863281 170.039062 255.859375 170.058594 255.859375 C 170.382812 255.824219 170.699219 255.789062 171.015625 255.753906 C 171.101562 255.746094 171.191406 255.738281 171.277344 255.726562 C 171.585938 255.691406 171.894531 255.65625 172.199219 255.621094 C 172.222656 255.621094 172.25 255.617188 172.273438 255.613281 C 172.601562 255.574219 172.925781 255.539062 173.246094 255.5 C 173.332031 255.488281 173.414062 255.476562 173.5 255.46875 C 173.777344 255.433594 174.054688 255.398438 174.328125 255.367188 C 174.375 255.359375 174.425781 255.355469 174.476562 255.347656 C 174.789062 255.308594 175.101562 255.265625 175.414062 255.226562 C 175.488281 255.214844 175.566406 255.207031 175.640625 255.195312 C 175.902344 255.164062 176.15625 255.128906 176.414062 255.09375 C 176.476562 255.085938 176.539062 255.074219 176.601562 255.066406 C 176.90625 255.027344 177.207031 254.984375 177.507812 254.941406 C 177.570312 254.933594 177.636719 254.921875 177.703125 254.914062 C 177.953125 254.878906 178.199219 254.84375 178.449219 254.804688 C 178.515625 254.796875 178.582031 254.785156 178.648438 254.777344 C 178.941406 254.734375 179.234375 254.691406 179.519531 254.648438 C 179.578125 254.640625 179.632812 254.628906 179.6875 254.621094 C 179.929688 254.585938 180.167969 254.546875 180.40625 254.511719 C 180.480469 254.5 180.550781 254.488281 180.625 254.476562 C 180.90625 254.433594 181.183594 254.386719 181.457031 254.34375 C 181.5 254.339844 181.539062 254.332031 181.578125 254.324219 C 181.820312 254.285156 182.0625 254.246094 182.300781 254.207031 C 182.371094 254.195312 182.441406 254.183594 182.511719 254.171875 C 182.78125 254.125 183.050781 254.082031 183.316406 254.039062 C 183.332031 254.035156 183.351562 254.03125 183.371094 254.027344 C 183.617188 253.984375 183.863281 253.941406 184.109375 253.898438 C 184.179688 253.886719 184.25 253.875 184.320312 253.863281 C 184.5625 253.820312 184.800781 253.777344 185.039062 253.734375 C 185.054688 253.730469 185.066406 253.730469 185.082031 253.726562 C 185.085938 253.726562 185.085938 253.726562 185.089844 253.726562 C 185.359375 253.675781 185.628906 253.625 185.890625 253.578125 C 185.953125 253.566406 186.015625 253.558594 186.078125 253.542969 C 186.335938 253.496094 186.59375 253.449219 186.847656 253.402344 C 186.875 253.394531 186.902344 253.390625 186.929688 253.386719 C 187.164062 253.339844 187.398438 253.296875 187.628906 253.25 C 187.679688 253.242188 187.734375 253.230469 187.789062 253.21875 C 188.03125 253.171875 188.273438 253.125 188.511719 253.078125 C 188.554688 253.066406 188.597656 253.058594 188.644531 253.050781 C 188.855469 253.007812 189.066406 252.964844 189.273438 252.921875 C 189.316406 252.914062 189.359375 252.90625 189.398438 252.898438 C 189.628906 252.851562 189.855469 252.804688 190.082031 252.757812 C 190.128906 252.746094 190.179688 252.738281 190.226562 252.726562 C 190.433594 252.683594 190.640625 252.640625 190.839844 252.597656 C 190.863281 252.589844 190.886719 252.585938 190.90625 252.582031 C 191.125 252.535156 191.339844 252.492188 191.546875 252.445312 C 191.597656 252.433594 191.644531 252.421875 191.691406 252.414062 C 191.898438 252.367188 192.105469 252.324219 192.308594 252.277344 C 192.320312 252.277344 192.332031 252.273438 192.34375 252.269531 C 192.535156 252.226562 192.726562 252.183594 192.914062 252.140625 C 192.957031 252.132812 193.003906 252.121094 193.046875 252.109375 C 193.238281 252.070312 193.421875 252.027344 193.605469 251.984375 C 193.636719 251.976562 193.664062 251.972656 193.695312 251.964844 C 193.859375 251.925781 194.023438 251.886719 194.179688 251.851562 C 194.214844 251.84375 194.25 251.835938 194.285156 251.824219 C 194.460938 251.785156 194.628906 251.746094 194.796875 251.703125 C 194.832031 251.695312 194.863281 251.6875 194.898438 251.679688 C 195.050781 251.644531 195.199219 251.609375 195.34375 251.574219 C 195.367188 251.566406 195.390625 251.5625 195.414062 251.554688 C 195.570312 251.515625 195.726562 251.480469 195.875 251.441406 C 195.910156 251.433594 195.945312 251.425781 195.976562 251.417969 C 196.128906 251.378906 196.277344 251.34375 196.421875 251.304688 L 196.972656 57.640625 " fill-opacity="1" fill-rule="nonzero"/><path fill="#f9b142" d="M 305.457031 120.273438 L 304.910156 313.941406 L 196.421875 251.304688 L 196.972656 57.636719 L 305.457031 120.273438 " fill-opacity="1" fill-rule="nonzero"/><g clip-path="url(#28ad870138)"><path fill="#f9c166" d="M 313.125 115.820312 L 312.574219 309.484375 L 304.910156 313.941406 L 305.457031 120.273438 L 313.125 115.820312 " fill-opacity="1" fill-rule="nonzero"/></g><g clip-path="url(#82d6dd816e)"><path fill="#fbc977" d="M 201.933594 51.625 L 201.363281 51.957031 C 199.460938 53.0625 197.042969 52.691406 195.5625 51.0625 C 195.394531 51.113281 178.828125 56.082031 155.507812 56.917969 C 125.535156 57.992188 99.019531 51.988281 76.644531 39.070312 C 75.757812 38.558594 74.875 38.035156 74 37.5 L 66.121094 41.828125 C 67.046875 42.394531 67.980469 42.949219 68.921875 43.492188 C 82.074219 51.085938 96.816406 56.574219 112.785156 59.820312 C 126.503906 62.609375 141.117188 63.746094 156.214844 63.207031 C 175.414062 62.519531 190.363281 59.304688 196.972656 57.640625 L 305.457031 120.273438 L 313.121094 115.820312 L 201.933594 51.625 " fill-opacity="1" fill-rule="nonzero"/></g><g clip-path="url(#77016701b7)"><path fill="#d8e4f0" d="M 177.863281 257.660156 C 177.972656 257.648438 178.078125 257.636719 178.1875 257.625 C 178.304688 257.613281 178.425781 257.601562 178.542969 257.589844 C 178.648438 257.578125 178.75 257.566406 178.855469 257.558594 C 178.972656 257.542969 179.09375 257.53125 179.210938 257.519531 C 179.3125 257.507812 179.414062 257.496094 179.515625 257.484375 C 179.632812 257.472656 179.75 257.460938 179.867188 257.449219 C 179.972656 257.4375 180.074219 257.425781 180.171875 257.414062 C 180.285156 257.402344 180.394531 257.390625 180.503906 257.378906 C 180.609375 257.367188 180.714844 257.355469 180.820312 257.339844 C 180.929688 257.328125 181.035156 257.316406 181.144531 257.304688 C 181.246094 257.292969 181.34375 257.28125 181.445312 257.269531 C 181.554688 257.257812 181.660156 257.246094 181.765625 257.234375 C 181.867188 257.222656 181.964844 257.210938 182.0625 257.199219 C 182.167969 257.1875 182.277344 257.171875 182.382812 257.160156 C 182.480469 257.148438 182.574219 257.136719 182.671875 257.125 C 182.773438 257.113281 182.875 257.101562 182.976562 257.089844 C 183.078125 257.078125 183.171875 257.066406 183.269531 257.054688 C 183.371094 257.042969 183.46875 257.03125 183.570312 257.015625 C 183.664062 257.003906 183.757812 256.992188 183.851562 256.980469 C 183.953125 256.96875 184.050781 256.957031 184.148438 256.945312 C 184.242188 256.933594 184.335938 256.921875 184.425781 256.910156 C 184.523438 256.898438 184.621094 256.882812 184.71875 256.871094 C 184.804688 256.863281 184.894531 256.851562 184.980469 256.839844 C 185.078125 256.828125 185.175781 256.8125 185.273438 256.800781 C 185.363281 256.789062 185.449219 256.777344 185.539062 256.765625 C 185.628906 256.753906 185.71875 256.742188 185.808594 256.730469 C 185.898438 256.71875 185.988281 256.707031 186.078125 256.695312 C 186.164062 256.683594 186.253906 256.671875 186.339844 256.660156 C 186.425781 256.648438 186.511719 256.636719 186.597656 256.625 C 186.6875 256.613281 186.777344 256.601562 186.867188 256.585938 C 186.945312 256.578125 187.027344 256.566406 187.105469 256.554688 C 187.195312 256.542969 187.285156 256.53125 187.371094 256.519531 C 187.453125 256.507812 187.53125 256.496094 187.613281 256.484375 C 187.695312 256.472656 187.777344 256.460938 187.859375 256.449219 C 187.9375 256.441406 188.019531 256.425781 188.101562 256.417969 C 188.183594 256.40625 188.265625 256.394531 188.34375 256.382812 C 188.421875 256.371094 188.496094 256.359375 188.570312 256.347656 C 188.652344 256.335938 188.734375 256.324219 188.816406 256.3125 C 188.890625 256.304688 188.964844 256.292969 189.035156 256.28125 C 189.113281 256.269531 189.183594 256.257812 189.257812 256.25 C 189.335938 256.238281 189.414062 256.226562 189.492188 256.214844 C 189.5625 256.203125 189.632812 256.195312 189.703125 256.183594 C 189.773438 256.171875 189.847656 256.160156 189.921875 256.152344 C 189.996094 256.136719 190.066406 256.128906 190.136719 256.117188 C 190.207031 256.105469 190.277344 256.097656 190.347656 256.085938 C 190.414062 256.074219 190.484375 256.066406 190.554688 256.054688 C 190.621094 256.042969 190.6875 256.03125 190.753906 256.023438 C 190.824219 256.011719 190.894531 256 190.964844 255.988281 C 191.027344 255.980469 191.089844 255.972656 191.148438 255.960938 C 191.210938 255.953125 191.265625 255.941406 191.324219 255.933594 C 191.398438 255.921875 191.472656 255.910156 191.542969 255.898438 C 191.582031 255.894531 191.621094 255.886719 191.660156 255.882812 C 191.746094 255.867188 191.828125 255.851562 191.90625 255.839844 C 191.960938 255.832031 192.011719 255.824219 192.066406 255.816406 C 192.128906 255.804688 192.195312 255.796875 192.257812 255.785156 C 192.320312 255.773438 192.382812 255.765625 192.445312 255.753906 C 192.496094 255.746094 192.550781 255.738281 192.601562 255.726562 C 192.640625 255.722656 192.679688 255.714844 192.71875 255.707031 C 192.898438 255.679688 193.074219 255.648438 193.238281 255.621094 L 193.765625 69.1875 C 193.664062 69.207031 193.5625 69.222656 193.453125 69.242188 C 193.425781 69.246094 193.398438 69.25 193.371094 69.253906 C 193.289062 69.269531 193.207031 69.28125 193.121094 69.296875 C 193.105469 69.300781 193.089844 69.300781 193.070312 69.304688 C 192.976562 69.320312 192.878906 69.335938 192.777344 69.351562 C 192.746094 69.355469 192.710938 69.363281 192.679688 69.371094 C 192.597656 69.382812 192.515625 69.394531 192.429688 69.410156 C 192.371094 69.417969 192.308594 69.429688 192.246094 69.4375 C 192.1875 69.449219 192.125 69.457031 192.066406 69.46875 C 192.007812 69.476562 191.949219 69.484375 191.890625 69.492188 C 191.820312 69.507812 191.746094 69.515625 191.671875 69.527344 C 191.621094 69.539062 191.566406 69.546875 191.511719 69.554688 C 191.4375 69.566406 191.359375 69.578125 191.28125 69.589844 C 191.222656 69.597656 191.160156 69.609375 191.097656 69.617188 C 191.023438 69.628906 190.945312 69.640625 190.867188 69.652344 C 190.808594 69.660156 190.75 69.671875 190.691406 69.679688 C 190.609375 69.691406 190.527344 69.707031 190.445312 69.71875 C 190.382812 69.726562 190.316406 69.738281 190.253906 69.746094 C 190.175781 69.757812 190.09375 69.769531 190.011719 69.78125 C 189.945312 69.792969 189.875 69.800781 189.804688 69.8125 C 189.722656 69.824219 189.644531 69.835938 189.558594 69.847656 C 189.492188 69.859375 189.421875 69.867188 189.351562 69.878906 C 189.269531 69.890625 189.183594 69.902344 189.097656 69.914062 C 189.027344 69.925781 188.957031 69.9375 188.886719 69.945312 C 188.796875 69.957031 188.710938 69.972656 188.621094 69.984375 C 188.550781 69.992188 188.476562 70.003906 188.402344 70.015625 C 188.316406 70.027344 188.222656 70.039062 188.132812 70.054688 C 188.058594 70.0625 187.980469 70.074219 187.90625 70.085938 C 187.816406 70.097656 187.726562 70.109375 187.636719 70.121094 C 187.554688 70.132812 187.476562 70.144531 187.394531 70.15625 C 187.304688 70.167969 187.214844 70.179688 187.125 70.191406 C 187.042969 70.203125 186.960938 70.214844 186.878906 70.226562 C 186.785156 70.238281 186.691406 70.25 186.597656 70.261719 C 186.515625 70.273438 186.433594 70.285156 186.347656 70.296875 C 186.253906 70.308594 186.15625 70.320312 186.058594 70.332031 C 185.972656 70.34375 185.890625 70.355469 185.804688 70.367188 C 185.707031 70.378906 185.609375 70.394531 185.511719 70.40625 C 185.421875 70.417969 185.332031 70.429688 185.246094 70.441406 C 185.148438 70.453125 185.054688 70.464844 184.957031 70.476562 C 184.863281 70.488281 184.769531 70.5 184.675781 70.511719 C 184.578125 70.523438 184.480469 70.535156 184.382812 70.546875 C 184.289062 70.5625 184.191406 70.574219 184.097656 70.582031 C 184 70.59375 183.898438 70.609375 183.796875 70.621094 C 183.703125 70.632812 183.609375 70.644531 183.515625 70.65625 C 183.40625 70.667969 183.300781 70.683594 183.191406 70.695312 C 183.097656 70.707031 183.007812 70.714844 182.914062 70.726562 C 182.808594 70.742188 182.699219 70.753906 182.589844 70.765625 C 182.492188 70.777344 182.394531 70.789062 182.296875 70.800781 C 182.1875 70.8125 182.082031 70.824219 181.972656 70.835938 C 181.875 70.847656 181.773438 70.859375 181.671875 70.871094 C 181.5625 70.882812 181.457031 70.898438 181.347656 70.910156 C 181.242188 70.921875 181.140625 70.929688 181.039062 70.945312 C 180.925781 70.957031 180.816406 70.96875 180.703125 70.980469 C 180.597656 70.992188 180.496094 71.003906 180.390625 71.015625 C 180.277344 71.027344 180.164062 71.039062 180.050781 71.050781 C 179.945312 71.0625 179.84375 71.074219 179.738281 71.085938 C 179.621094 71.097656 179.507812 71.109375 179.390625 71.121094 C 179.285156 71.132812 179.175781 71.144531 179.066406 71.15625 C 178.949219 71.167969 178.835938 71.179688 178.722656 71.191406 C 178.613281 71.203125 178.503906 71.214844 178.390625 71.226562 C 178.273438 71.238281 178.152344 71.25 178.03125 71.265625 C 177.921875 71.273438 177.8125 71.285156 177.707031 71.296875 C 177.625 71.304688 177.546875 71.3125 177.46875 71.320312 C 177.230469 71.34375 176.988281 71.367188 176.75 71.390625 C 176.671875 71.398438 176.59375 71.402344 176.511719 71.414062 C 176.210938 71.441406 175.90625 71.46875 175.601562 71.496094 C 175.554688 71.503906 175.503906 71.503906 175.457031 71.511719 C 175.191406 71.535156 174.925781 71.558594 174.660156 71.582031 C 174.570312 71.589844 174.476562 71.597656 174.386719 71.605469 C 174.097656 71.632812 173.800781 71.65625 173.503906 71.683594 C 173.480469 71.683594 173.457031 71.6875 173.433594 71.6875 C 173.113281 71.714844 172.789062 71.742188 172.464844 71.769531 C 172.375 71.773438 172.289062 71.78125 172.199219 71.789062 C 171.933594 71.8125 171.664062 71.832031 171.394531 71.851562 C 171.324219 71.859375 171.253906 71.863281 171.183594 71.871094 C 170.851562 71.894531 170.519531 71.917969 170.1875 71.941406 C 170.109375 71.949219 170.03125 71.953125 169.953125 71.960938 C 169.679688 71.980469 169.40625 72 169.128906 72.019531 C 169.039062 72.023438 168.949219 72.03125 168.859375 72.039062 C 168.519531 72.058594 168.171875 72.082031 167.828125 72.105469 C 167.78125 72.109375 167.734375 72.109375 167.6875 72.113281 C 167.378906 72.132812 167.074219 72.152344 166.761719 72.171875 C 166.664062 72.175781 166.566406 72.183594 166.46875 72.191406 C 166.152344 72.207031 165.832031 72.226562 165.511719 72.246094 C 165.472656 72.246094 165.429688 72.25 165.390625 72.253906 C 165.03125 72.273438 164.671875 72.292969 164.308594 72.308594 C 164.214844 72.316406 164.121094 72.320312 164.027344 72.324219 C 163.730469 72.339844 163.433594 72.355469 163.132812 72.371094 C 163.050781 72.375 162.96875 72.375 162.886719 72.382812 C 162.519531 72.398438 162.152344 72.414062 161.78125 72.429688 C 161.699219 72.433594 161.621094 72.4375 161.539062 72.441406 C 161.238281 72.453125 160.933594 72.464844 160.625 72.476562 C 160.523438 72.484375 160.421875 72.488281 160.316406 72.488281 C 159.941406 72.503906 159.5625 72.519531 159.183594 72.53125 C 159.132812 72.535156 159.078125 72.535156 159.027344 72.539062 C 158.734375 72.546875 158.441406 72.558594 158.148438 72.566406 C 158.03125 72.570312 157.917969 72.574219 157.800781 72.574219 C 157.566406 72.582031 157.328125 72.589844 157.089844 72.59375 C 156.964844 72.597656 156.839844 72.601562 156.710938 72.605469 C 156.46875 72.609375 156.222656 72.617188 155.976562 72.621094 C 155.867188 72.625 155.757812 72.628906 155.648438 72.628906 C 155.292969 72.636719 154.941406 72.644531 154.585938 72.652344 C 154.550781 72.652344 154.519531 72.652344 154.484375 72.652344 C 154.160156 72.65625 153.835938 72.664062 153.507812 72.667969 C 153.390625 72.667969 153.277344 72.671875 153.160156 72.671875 C 152.914062 72.675781 152.664062 72.679688 152.414062 72.679688 C 152.285156 72.679688 152.15625 72.683594 152.023438 72.683594 C 151.773438 72.683594 151.519531 72.6875 151.265625 72.6875 C 151.152344 72.691406 151.035156 72.691406 150.917969 72.691406 C 150.554688 72.691406 150.1875 72.691406 149.816406 72.691406 C 148.773438 72.691406 147.734375 72.6875 146.699219 72.675781 C 146.359375 72.671875 146.019531 72.660156 145.683594 72.65625 C 144.988281 72.644531 144.289062 72.636719 143.597656 72.617188 C 142.820312 72.601562 142.042969 72.578125 141.269531 72.554688 C 141.140625 72.550781 141.011719 72.542969 140.882812 72.539062 C 140.101562 72.511719 139.328125 72.484375 138.554688 72.449219 C 138.433594 72.445312 138.316406 72.4375 138.195312 72.433594 C 137.371094 72.398438 136.550781 72.355469 135.734375 72.308594 C 135.558594 72.300781 135.382812 72.289062 135.207031 72.28125 C 134.382812 72.230469 133.5625 72.183594 132.746094 72.125 C 132.664062 72.121094 132.585938 72.113281 132.503906 72.109375 C 131.730469 72.054688 130.960938 72 130.195312 71.9375 C 130.046875 71.925781 129.902344 71.914062 129.753906 71.902344 C 129.394531 71.871094 129.039062 71.839844 128.683594 71.808594 C 128.011719 71.753906 127.34375 71.695312 126.679688 71.632812 C 126.300781 71.59375 125.925781 71.554688 125.546875 71.519531 C 124.933594 71.457031 124.320312 71.394531 123.710938 71.328125 C 123.324219 71.285156 122.9375 71.242188 122.550781 71.199219 C 121.945312 71.128906 121.347656 71.058594 120.746094 70.984375 C 120.371094 70.9375 119.992188 70.890625 119.621094 70.84375 C 118.988281 70.761719 118.363281 70.679688 117.738281 70.59375 C 117.402344 70.542969 117.058594 70.5 116.722656 70.453125 C 116.207031 70.378906 115.691406 70.300781 115.179688 70.222656 C 114.800781 70.164062 114.417969 70.109375 114.039062 70.050781 C 113.503906 69.964844 112.972656 69.878906 112.441406 69.789062 C 112.089844 69.730469 111.738281 69.675781 111.386719 69.617188 C 110.800781 69.515625 110.21875 69.410156 109.636719 69.304688 C 109.347656 69.253906 109.054688 69.203125 108.769531 69.148438 C 107.898438 68.984375 107.039062 68.820312 106.179688 68.648438 C 105.769531 68.566406 105.363281 68.480469 104.953125 68.398438 C 104.691406 68.34375 104.433594 68.285156 104.171875 68.230469 C 103.933594 68.179688 103.695312 68.128906 103.460938 68.078125 C 103.199219 68.023438 102.941406 67.964844 102.683594 67.90625 C 102.445312 67.855469 102.210938 67.800781 101.976562 67.75 C 101.71875 67.691406 101.460938 67.628906 101.203125 67.570312 C 100.972656 67.515625 100.738281 67.460938 100.503906 67.410156 C 100.246094 67.347656 99.992188 67.285156 99.734375 67.222656 C 99.503906 67.167969 99.273438 67.113281 99.046875 67.058594 C 98.789062 66.992188 98.535156 66.929688 98.277344 66.867188 C 98.050781 66.808594 97.824219 66.753906 97.597656 66.695312 C 97.339844 66.628906 97.085938 66.5625 96.832031 66.496094 C 96.609375 66.4375 96.382812 66.378906 96.160156 66.320312 C 95.90625 66.253906 95.652344 66.183594 95.398438 66.113281 C 95.175781 66.054688 94.953125 65.996094 94.734375 65.9375 C 94.480469 65.863281 94.226562 65.792969 93.96875 65.71875 C 93.757812 65.660156 93.542969 65.601562 93.332031 65.542969 C 92.808594 65.390625 92.289062 65.242188 91.769531 65.085938 C 91.660156 65.054688 91.550781 65.019531 91.441406 64.988281 C 91.03125 64.863281 90.621094 64.742188 90.214844 64.613281 C 90.039062 64.558594 89.863281 64.507812 89.691406 64.449219 C 89.34375 64.339844 89 64.234375 88.652344 64.121094 C 88.472656 64.066406 88.292969 64.007812 88.109375 63.949219 C 87.753906 63.832031 87.398438 63.714844 87.046875 63.597656 C 86.890625 63.542969 86.734375 63.492188 86.582031 63.441406 C 86.078125 63.269531 85.578125 63.101562 85.082031 62.925781 C 85.046875 62.914062 85.015625 62.902344 84.980469 62.890625 C 84.519531 62.726562 84.058594 62.5625 83.597656 62.394531 C 83.4375 62.335938 83.28125 62.28125 83.121094 62.222656 C 82.785156 62.097656 82.449219 61.972656 82.113281 61.84375 C 81.9375 61.78125 81.761719 61.714844 81.589844 61.648438 C 81.257812 61.523438 80.929688 61.394531 80.601562 61.265625 C 80.453125 61.207031 80.304688 61.152344 80.152344 61.089844 C 79.542969 60.851562 78.9375 60.605469 78.332031 60.355469 C 78.210938 60.304688 78.089844 60.253906 77.96875 60.207031 C 77.351562 59.949219 76.738281 59.6875 76.128906 59.425781 C 76.101562 59.414062 76.078125 59.402344 76.050781 59.390625 C 75.457031 59.132812 74.867188 58.867188 74.28125 58.601562 C 74.171875 58.554688 74.0625 58.503906 73.953125 58.453125 C 73.371094 58.1875 72.792969 57.917969 72.21875 57.644531 C 72.109375 57.589844 71.996094 57.535156 71.882812 57.480469 C 71.292969 57.195312 70.703125 56.910156 70.121094 56.617188 C 70.109375 56.613281 70.097656 56.605469 70.085938 56.597656 C 69.511719 56.308594 68.945312 56.019531 68.378906 55.722656 C 68.273438 55.667969 68.167969 55.609375 68.0625 55.554688 C 67.511719 55.265625 66.964844 54.96875 66.421875 54.671875 C 66.316406 54.613281 66.207031 54.554688 66.105469 54.496094 C 65.542969 54.183594 64.984375 53.871094 64.433594 53.554688 C 63.75 53.160156 63.074219 52.757812 62.40625 52.351562 L 61.878906 238.785156 C 62.546875 239.191406 63.222656 239.59375 63.902344 239.984375 C 64.457031 240.304688 65.015625 240.617188 65.574219 240.929688 C 65.679688 240.988281 65.785156 241.046875 65.890625 241.105469 C 66.433594 241.402344 66.980469 241.695312 67.535156 241.988281 C 67.640625 242.042969 67.746094 242.097656 67.851562 242.152344 C 68.414062 242.449219 68.984375 242.742188 69.558594 243.03125 C 69.570312 243.039062 69.582031 243.042969 69.59375 243.050781 C 70.175781 243.34375 70.761719 243.628906 71.351562 243.914062 C 71.464844 243.96875 71.578125 244.023438 71.691406 244.078125 C 72.265625 244.351562 72.84375 244.621094 73.425781 244.886719 C 73.535156 244.9375 73.644531 244.984375 73.753906 245.035156 C 74.339844 245.300781 74.929688 245.566406 75.523438 245.824219 C 75.550781 245.835938 75.574219 245.847656 75.597656 245.855469 C 76.207031 246.121094 76.824219 246.382812 77.441406 246.636719 C 77.5625 246.6875 77.683594 246.738281 77.804688 246.789062 C 78.40625 247.039062 79.015625 247.28125 79.625 247.523438 C 79.667969 247.542969 79.707031 247.558594 79.75 247.574219 C 79.855469 247.617188 79.964844 247.65625 80.074219 247.699219 C 80.402344 247.828125 80.730469 247.957031 81.0625 248.082031 C 81.234375 248.148438 81.410156 248.214844 81.585938 248.28125 C 81.917969 248.40625 82.257812 248.53125 82.59375 248.65625 C 82.753906 248.714844 82.910156 248.769531 83.066406 248.828125 C 83.527344 248.996094 83.988281 249.160156 84.453125 249.324219 C 84.488281 249.335938 84.519531 249.347656 84.554688 249.359375 C 85.050781 249.535156 85.550781 249.707031 86.054688 249.875 C 86.207031 249.925781 86.363281 249.976562 86.519531 250.03125 C 86.871094 250.148438 87.226562 250.265625 87.582031 250.382812 C 87.761719 250.441406 87.945312 250.496094 88.125 250.554688 C 88.46875 250.667969 88.816406 250.777344 89.164062 250.882812 C 89.335938 250.941406 89.511719 250.996094 89.683594 251.046875 C 90.09375 251.171875 90.503906 251.300781 90.914062 251.421875 C 91.023438 251.453125 91.132812 251.488281 91.242188 251.519531 C 91.757812 251.671875 92.28125 251.824219 92.804688 251.976562 C 92.832031 251.984375 92.859375 251.992188 92.890625 252 C 93.074219 252.050781 93.257812 252.101562 93.441406 252.152344 C 93.695312 252.226562 93.949219 252.296875 94.207031 252.367188 C 94.425781 252.429688 94.648438 252.488281 94.867188 252.546875 C 95.125 252.617188 95.375 252.6875 95.632812 252.753906 C 95.855469 252.8125 96.082031 252.871094 96.304688 252.929688 C 96.558594 252.996094 96.8125 253.0625 97.070312 253.125 C 97.296875 253.183594 97.523438 253.242188 97.753906 253.300781 C 98.007812 253.363281 98.261719 253.425781 98.515625 253.488281 C 98.746094 253.546875 98.976562 253.601562 99.210938 253.65625 C 99.464844 253.71875 99.71875 253.78125 99.976562 253.84375 C 100.210938 253.898438 100.445312 253.953125 100.675781 254.003906 C 100.933594 254.0625 101.191406 254.125 101.449219 254.183594 C 101.683594 254.234375 101.921875 254.289062 102.15625 254.339844 C 102.414062 254.398438 102.671875 254.457031 102.929688 254.511719 C 103.167969 254.5625 103.40625 254.613281 103.644531 254.664062 C 103.90625 254.71875 104.164062 254.777344 104.421875 254.828125 C 104.507812 254.847656 104.589844 254.863281 104.671875 254.882812 C 105 254.949219 105.324219 255.015625 105.652344 255.082031 C 106.507812 255.253906 107.371094 255.421875 108.238281 255.582031 C 108.527344 255.636719 108.820312 255.6875 109.113281 255.738281 C 109.691406 255.84375 110.273438 255.949219 110.859375 256.050781 C 111.210938 256.109375 111.566406 256.164062 111.917969 256.222656 C 112.449219 256.3125 112.976562 256.398438 113.511719 256.484375 C 113.890625 256.542969 114.273438 256.597656 114.65625 256.65625 C 115.167969 256.734375 115.679688 256.8125 116.191406 256.882812 C 116.28125 256.898438 116.367188 256.914062 116.453125 256.925781 C 116.703125 256.960938 116.960938 256.988281 117.210938 257.023438 C 117.835938 257.109375 118.460938 257.195312 119.089844 257.277344 C 119.464844 257.324219 119.839844 257.371094 120.21875 257.417969 C 120.816406 257.492188 121.417969 257.5625 122.019531 257.632812 C 122.40625 257.675781 122.792969 257.71875 123.183594 257.761719 C 123.792969 257.828125 124.40625 257.890625 125.019531 257.953125 C 125.394531 257.992188 125.773438 258.027344 126.152344 258.0625 C 126.816406 258.128906 127.488281 258.1875 128.15625 258.246094 C 128.414062 258.265625 128.667969 258.292969 128.929688 258.3125 C 129.027344 258.320312 129.125 258.328125 129.222656 258.335938 C 129.371094 258.347656 129.519531 258.359375 129.667969 258.371094 C 130.433594 258.429688 131.203125 258.488281 131.972656 258.542969 C 132.054688 258.546875 132.136719 258.554688 132.21875 258.558594 C 133.035156 258.617188 133.855469 258.667969 134.679688 258.714844 C 134.855469 258.722656 135.027344 258.734375 135.203125 258.742188 C 136.019531 258.789062 136.84375 258.828125 137.667969 258.867188 C 137.785156 258.871094 137.90625 258.878906 138.027344 258.882812 C 138.796875 258.917969 139.574219 258.945312 140.351562 258.972656 C 140.480469 258.976562 140.609375 258.984375 140.742188 258.988281 C 141.398438 259.007812 142.054688 259.027344 142.714844 259.046875 C 142.832031 259.046875 142.953125 259.046875 143.070312 259.050781 C 143.761719 259.070312 144.457031 259.078125 145.152344 259.089844 C 145.492188 259.097656 145.828125 259.105469 146.167969 259.105469 C 147.203125 259.117188 148.246094 259.125 149.289062 259.125 C 149.65625 259.125 150.023438 259.125 150.390625 259.125 C 150.507812 259.125 150.621094 259.121094 150.734375 259.121094 C 150.992188 259.121094 151.246094 259.117188 151.5 259.117188 C 151.628906 259.117188 151.753906 259.113281 151.882812 259.113281 C 152.132812 259.109375 152.382812 259.109375 152.628906 259.105469 C 152.746094 259.105469 152.863281 259.101562 152.980469 259.101562 C 153.304688 259.097656 153.632812 259.089844 153.953125 259.085938 C 153.988281 259.085938 154.023438 259.082031 154.054688 259.082031 C 154.410156 259.078125 154.765625 259.070312 155.117188 259.0625 C 155.230469 259.0625 155.335938 259.058594 155.445312 259.054688 C 155.691406 259.050781 155.9375 259.042969 156.183594 259.039062 C 156.308594 259.035156 156.4375 259.03125 156.5625 259.027344 C 156.800781 259.023438 157.039062 259.015625 157.273438 259.007812 C 157.390625 259.003906 157.503906 259 157.617188 259 C 157.914062 258.988281 158.207031 258.980469 158.496094 258.972656 C 158.542969 258.96875 158.589844 258.96875 158.632812 258.964844 C 158.640625 258.964844 158.648438 258.964844 158.65625 258.964844 C 159.035156 258.953125 159.410156 258.9375 159.785156 258.921875 C 159.890625 258.921875 159.996094 258.914062 160.101562 258.910156 C 160.402344 258.902344 160.703125 258.886719 161.003906 258.875 C 161.085938 258.871094 161.171875 258.867188 161.253906 258.863281 C 161.625 258.847656 161.992188 258.832031 162.355469 258.8125 C 162.441406 258.808594 162.523438 258.808594 162.609375 258.800781 C 162.902344 258.789062 163.199219 258.773438 163.492188 258.757812 C 163.589844 258.753906 163.6875 258.75 163.78125 258.746094 C 164.144531 258.726562 164.503906 258.707031 164.859375 258.6875 C 164.902344 258.683594 164.945312 258.679688 164.984375 258.679688 C 165.304688 258.660156 165.621094 258.640625 165.9375 258.625 C 166.039062 258.617188 166.136719 258.609375 166.234375 258.605469 C 166.546875 258.585938 166.851562 258.566406 167.15625 258.546875 C 167.203125 258.542969 167.253906 258.539062 167.300781 258.539062 C 167.644531 258.515625 167.988281 258.492188 168.332031 258.46875 C 168.421875 258.464844 168.511719 258.457031 168.601562 258.449219 C 168.878906 258.433594 169.152344 258.414062 169.425781 258.394531 C 169.5 258.386719 169.578125 258.382812 169.65625 258.378906 C 169.992188 258.351562 170.324219 258.328125 170.652344 258.300781 C 170.722656 258.296875 170.792969 258.292969 170.863281 258.285156 C 171.132812 258.265625 171.402344 258.246094 171.671875 258.222656 C 171.761719 258.214844 171.847656 258.210938 171.933594 258.203125 C 172.261719 258.175781 172.582031 258.148438 172.902344 258.121094 C 172.925781 258.121094 172.949219 258.117188 172.976562 258.117188 C 173.273438 258.089844 173.570312 258.066406 173.867188 258.039062 C 173.953125 258.03125 174.039062 258.023438 174.125 258.015625 C 174.394531 257.992188 174.664062 257.96875 174.929688 257.945312 C 174.976562 257.941406 175.023438 257.933594 175.074219 257.929688 C 175.378906 257.902344 175.683594 257.875 175.984375 257.84375 C 176.0625 257.835938 176.140625 257.828125 176.21875 257.820312 C 176.460938 257.800781 176.699219 257.777344 176.9375 257.753906 C 176.984375 257.75 177.035156 257.742188 177.082031 257.738281 C 177.113281 257.734375 177.144531 257.730469 177.175781 257.730469 C 177.285156 257.71875 177.394531 257.707031 177.5 257.695312 C 177.621094 257.683594 177.742188 257.671875 177.863281 257.660156 " fill-opacity="1" fill-rule="nonzero"/></g><path fill="#e9f0f7" d="M 294.222656 127.191406 L 293.695312 313.621094 L 193.238281 255.625 L 193.765625 69.191406 L 294.222656 127.191406 " fill-opacity="1" fill-rule="nonzero"/><path fill="#aec7e6" d="M 301.324219 123.0625 L 300.792969 309.496094 L 293.695312 313.621094 L 294.222656 127.191406 L 301.324219 123.0625 " fill-opacity="1" fill-rule="nonzero"/><path fill="#c3d4e6" d="M 301.324219 123.0625 L 294.222656 127.1875 L 193.765625 69.191406 C 187.164062 70.300781 170.542969 72.691406 149.816406 72.695312 C 134.226562 72.695312 119.542969 71.335938 106.179688 68.648438 C 90.289062 65.457031 76.257812 60.378906 64.433594 53.554688 C 63.75 53.160156 63.074219 52.761719 62.40625 52.355469 L 69.6875 48.335938 C 70.308594 48.710938 70.9375 49.082031 71.570312 49.449219 C 91.585938 61.003906 117.882812 66.863281 149.78125 66.859375 C 174.53125 66.855469 193.316406 63.160156 193.503906 63.121094 L 196.476562 62.527344 L 301.324219 123.0625 " fill-opacity="1" fill-rule="nonzero"/><path fill="#114077" d="M 215.539062 151.90625 L 215.535156 153.09375 L 203.230469 145.988281 L 203.230469 144.800781 L 215.539062 151.90625 " fill-opacity="1" fill-rule="nonzero"/><path fill="#114077" d="M 215.386719 204.921875 L 215.386719 206.109375 L 203.078125 199.007812 L 203.082031 197.816406 L 215.386719 204.921875 " fill-opacity="1" fill-rule="nonzero"/><path fill="#114077" d="M 239.230469 240.253906 L 239.226562 241.441406 L 203.015625 220.535156 L 203.019531 219.347656 L 239.230469 240.253906 " fill-opacity="1" fill-rule="nonzero"/><path fill="#114077" d="M 245.433594 247.816406 L 245.429688 249.003906 L 203.007812 224.511719 L 203.007812 223.324219 L 245.433594 247.816406 " fill-opacity="1" fill-rule="nonzero"/><path fill="#114077" d="M 223.414062 205.574219 L 223.410156 206.761719 L 203.089844 195.03125 L 203.09375 193.84375 L 223.414062 205.574219 " fill-opacity="1" fill-rule="nonzero"/><path fill="#114077" d="M 229.164062 212.875 L 229.160156 214.0625 L 216.855469 206.960938 L 216.859375 205.773438 L 229.164062 212.875 " fill-opacity="1" fill-rule="nonzero"/><path fill="#114077" d="M 246.667969 240.566406 L 246.664062 241.753906 L 211.304688 221.335938 L 211.304688 220.152344 L 246.667969 240.566406 " fill-opacity="1" fill-rule="nonzero"/><path fill="#114077" d="M 223.433594 197.625 L 223.433594 198.808594 L 203.113281 187.078125 L 203.117188 185.890625 L 223.433594 197.625 " fill-opacity="1" fill-rule="nonzero"/><path fill="#114077" d="M 233.730469 207.546875 L 233.722656 208.734375 L 203.101562 191.054688 L 203.105469 189.867188 L 233.730469 207.546875 " fill-opacity="1" fill-rule="nonzero"/><path fill="#114077" d="M 266.675781 264.066406 L 266.675781 265.253906 L 262.863281 263.050781 L 240.671875 250.242188 L 239.203125 249.390625 L 230.5 244.367188 L 202.996094 228.488281 L 203 227.300781 L 230.503906 243.179688 L 239.207031 248.207031 L 240.675781 249.054688 L 262.867188 261.863281 L 266.675781 264.066406 " fill-opacity="1" fill-rule="nonzero"/><path fill="#114077" d="M 245.496094 226.289062 L 245.492188 227.476562 L 230.570312 218.859375 L 203.066406 202.980469 L 203.070312 201.792969 L 245.496094 226.289062 " fill-opacity="1" fill-rule="nonzero"/><path fill="#114077" d="M 218.925781 177.757812 L 218.921875 178.945312 L 203.160156 169.84375 L 203.164062 168.65625 L 218.925781 177.757812 " fill-opacity="1" fill-rule="nonzero"/><path fill="#114077" d="M 258.53125 237.796875 L 258.527344 238.984375 L 203.054688 206.957031 L 203.058594 205.769531 L 258.53125 237.796875 " fill-opacity="1" fill-rule="nonzero"/><path fill="#114077" d="M 237.136719 197.566406 L 237.132812 198.753906 L 211.410156 183.902344 L 211.410156 182.714844 L 237.136719 197.566406 " fill-opacity="1" fill-rule="nonzero"/><path fill="#114077" d="M 246.964844 227.136719 L 246.960938 228.324219 L 262.933594 237.546875 L 230.570312 218.859375 L 245.492188 227.476562 L 245.496094 226.289062 L 246.964844 227.136719 " fill-opacity="1" fill-rule="nonzero"/><path fill="#114077" d="M 255.070312 223.851562 L 255.066406 225.039062 L 224.878906 207.609375 L 224.882812 206.421875 L 255.070312 223.851562 " fill-opacity="1" fill-rule="nonzero"/><path fill="#114077" d="M 245.550781 206.410156 L 245.546875 207.597656 L 203.125 183.101562 L 203.125 181.914062 L 245.550781 206.410156 " fill-opacity="1" fill-rule="nonzero"/><path fill="#114077" d="M 284.660156 270.464844 L 284.65625 271.652344 L 246.902344 249.855469 L 246.902344 248.667969 L 284.660156 270.464844 " fill-opacity="1" fill-rule="nonzero"/><path fill="#114077" d="M 262.949219 232.382812 L 262.945312 233.570312 L 230.585938 214.886719 L 230.585938 213.699219 L 262.949219 232.382812 " fill-opacity="1" fill-rule="nonzero"/><path fill="#114077" d="M 229.28125 171.789062 L 229.277344 172.976562 L 203.195312 157.917969 L 203.199219 156.730469 L 229.28125 171.789062 " fill-opacity="1" fill-rule="nonzero"/><path fill="#114077" d="M 255.09375 215.902344 L 255.089844 217.085938 L 224.902344 199.65625 L 224.902344 198.472656 L 255.09375 215.902344 " fill-opacity="1" fill-rule="nonzero"/><path fill="#114077" d="M 284.671875 266.488281 L 284.667969 267.675781 L 240.695312 242.289062 L 240.699219 241.101562 L 284.671875 266.488281 " fill-opacity="1" fill-rule="nonzero"/><path fill="#114077" d="M 233.8125 178.382812 L 233.808594 179.574219 L 203.183594 161.894531 L 203.1875 160.703125 L 233.8125 178.382812 " fill-opacity="1" fill-rule="nonzero"/><path fill="#114077" d="M 223.542969 160.511719 L 223.539062 161.695312 L 203.21875 149.964844 L 203.21875 148.777344 L 223.542969 160.511719 " fill-opacity="1" fill-rule="nonzero"/><path fill="#114077" d="M 245.601562 189.175781 L 245.597656 190.363281 L 203.171875 165.871094 L 203.175781 164.683594 L 245.601562 189.175781 " fill-opacity="1" fill-rule="nonzero"/><path fill="#114077" d="M 239.417969 173.660156 L 239.414062 174.84375 L 203.207031 153.941406 L 203.210938 152.753906 L 239.417969 173.660156 " fill-opacity="1" fill-rule="nonzero"/><path fill="#114077" d="M 284.722656 248.933594 L 284.71875 250.121094 L 262.933594 237.546875 L 246.960938 228.324219 L 246.964844 227.136719 L 284.722656 248.933594 " fill-opacity="1" fill-rule="nonzero"/><path fill="#114077" d="M 277.585938 232.867188 L 277.578125 234.054688 L 235.195312 209.582031 L 235.199219 208.398438 L 277.585938 232.867188 " fill-opacity="1" fill-rule="nonzero"/><path fill="#114077" d="M 284.734375 244.960938 L 284.730469 246.144531 L 264.414062 234.417969 L 264.417969 233.230469 L 284.734375 244.960938 " fill-opacity="1" fill-rule="nonzero"/><path fill="#114077" d="M 284.742188 240.984375 L 284.742188 242.171875 L 256.535156 225.886719 L 256.539062 224.699219 L 284.742188 240.984375 " fill-opacity="1" fill-rule="nonzero"/><path fill="#114077" d="M 262.828125 203.105469 L 262.824219 204.292969 L 220.390625 179.792969 L 220.394531 178.605469 L 262.828125 203.105469 " fill-opacity="1" fill-rule="nonzero"/><path fill="#114077" d="M 284.753906 237.007812 L 284.75 238.195312 L 279.046875 234.902344 L 279.050781 233.714844 L 284.753906 237.007812 " fill-opacity="1" fill-rule="nonzero"/><path fill="#114077" d="M 284.765625 233.03125 L 284.761719 234.21875 L 256.554688 217.933594 L 256.558594 216.746094 L 284.765625 233.03125 " fill-opacity="1" fill-rule="nonzero"/><path fill="#114077" d="M 255.199219 178.785156 L 255.191406 179.972656 L 225.007812 162.542969 L 225.011719 161.355469 L 255.199219 178.785156 " fill-opacity="1" fill-rule="nonzero"/><path fill="#114077" d="M 284.777344 229.054688 L 284.773438 230.242188 L 247.019531 208.445312 L 247.019531 207.257812 L 284.777344 229.054688 " fill-opacity="1" fill-rule="nonzero"/><path fill="#114077" d="M 263.066406 191.292969 L 263.0625 192.480469 L 230.699219 173.796875 L 230.703125 172.609375 L 263.066406 191.292969 " fill-opacity="1" fill-rule="nonzero"/><path fill="#114077" d="M 284.789062 225.082031 L 284.785156 226.269531 L 238.601562 199.605469 L 238.605469 198.414062 L 284.789062 225.082031 " fill-opacity="1" fill-rule="nonzero"/><path fill="#114077" d="M 263.101562 179.367188 L 263.097656 180.554688 L 230.734375 161.871094 L 230.738281 160.679688 L 263.101562 179.367188 " fill-opacity="1" fill-rule="nonzero"/><path fill="#114077" d="M 277.667969 203.703125 L 277.660156 204.894531 L 235.277344 180.421875 L 235.28125 179.234375 L 277.667969 203.703125 " fill-opacity="1" fill-rule="nonzero"/><path fill="#114077" d="M 284.824219 211.824219 L 284.824219 213.011719 L 247.066406 191.210938 L 247.070312 190.023438 L 284.824219 211.824219 " fill-opacity="1" fill-rule="nonzero"/><path fill="#114077" d="M 284.839844 207.84375 L 284.832031 209.035156 L 279.128906 205.742188 L 279.132812 204.550781 L 284.839844 207.84375 " fill-opacity="1" fill-rule="nonzero"/><path fill="#114077" d="M 284.847656 203.871094 L 284.84375 205.054688 L 264.53125 193.328125 L 264.535156 192.140625 L 284.847656 203.871094 " fill-opacity="1" fill-rule="nonzero"/><path fill="#114077" d="M 284.859375 199.894531 L 284.855469 201.082031 L 240.882812 175.695312 L 240.886719 174.503906 L 284.859375 199.894531 " fill-opacity="1" fill-rule="nonzero"/><path fill="#114077" d="M 284.871094 195.917969 L 284.867188 197.105469 L 256.660156 180.820312 L 256.664062 179.632812 L 284.871094 195.917969 " fill-opacity="1" fill-rule="nonzero"/><path fill="#114077" d="M 229.316406 159.859375 L 229.308594 161.046875 L 217.003906 153.941406 L 217.007812 152.753906 L 229.316406 159.859375 " fill-opacity="1" fill-rule="nonzero"/><path fill="#114077" d="M 246.878906 166.019531 L 246.875 167.207031 L 211.511719 146.789062 L 211.515625 145.601562 L 246.878906 166.019531 " fill-opacity="1" fill-rule="nonzero"/><path fill="#114077" d="M 284.882812 191.941406 L 284.878906 193.128906 L 264.566406 181.402344 L 264.570312 180.214844 L 284.882812 191.941406 " fill-opacity="1" fill-rule="nonzero"/><path fill="#114077" d="M 284.894531 187.96875 L 284.890625 189.15625 L 248.34375 168.054688 L 248.347656 166.867188 L 284.894531 187.96875 " fill-opacity="1" fill-rule="nonzero"/><path fill="#114077" d="M 284.683594 262.515625 L 284.679688 263.703125 L 248.132812 242.601562 L 248.136719 241.414062 L 284.683594 262.515625 " fill-opacity="1" fill-rule="nonzero"/><path fill="#114077" d="M 213.496094 123.804688 L 213.460938 135.65625 L 211.695312 134.636719 L 211.71875 126.222656 L 209.796875 132.222656 L 208.078125 131.226562 L 206.199219 123.195312 L 206.175781 131.453125 L 204.410156 130.433594 L 204.441406 118.582031 L 207.003906 120.058594 L 208.945312 129.183594 L 210.933594 122.328125 L 213.496094 123.804688 " fill-opacity="1" fill-rule="nonzero"/><path fill="#ff8666" d="M 213.433594 104.449219 L 213.410156 113.382812 C 213.40625 114.480469 213.226562 115.316406 212.878906 115.894531 C 212.527344 116.476562 212.015625 116.773438 211.347656 116.800781 C 210.679688 116.820312 209.875 116.5625 208.9375 116.019531 C 208 115.476562 207.195312 114.808594 206.53125 114.019531 C 205.871094 113.226562 205.367188 112.339844 205.019531 111.359375 C 204.675781 110.382812 204.507812 109.34375 204.511719 108.246094 L 204.535156 99.3125 L 206.832031 100.636719 L 206.804688 109.640625 C 206.804688 110.441406 206.988281 111.171875 207.363281 111.832031 C 207.734375 112.488281 208.261719 113.015625 208.945312 113.410156 C 209.632812 113.804688 210.164062 113.894531 210.542969 113.667969 C 210.921875 113.441406 211.109375 112.929688 211.113281 112.125 L 211.136719 103.121094 L 213.433594 104.449219 " fill-opacity="1" fill-rule="nonzero"/><path fill="#114077" d="M 217.9375 134.183594 L 220.402344 135.609375 L 219.179688 130.855469 Z M 219.808594 127.449219 L 223.71875 141.582031 L 221.625 140.375 L 221.050781 138.140625 L 217.273438 135.957031 L 216.6875 137.523438 L 214.597656 136.3125 L 218.574219 126.738281 L 219.808594 127.449219 " fill-opacity="1" fill-rule="nonzero"/><path fill="#ff8666" d="M 219.929688 108.050781 C 220.367188 108.304688 220.8125 108.617188 221.265625 108.996094 C 221.722656 109.375 222.167969 109.800781 222.601562 110.269531 C 223.035156 110.742188 223.449219 111.242188 223.839844 111.773438 L 222.859375 113.449219 C 222.394531 112.804688 221.902344 112.234375 221.394531 111.734375 C 220.882812 111.230469 220.390625 110.847656 219.921875 110.578125 C 219.21875 110.171875 218.675781 109.988281 218.289062 110.03125 C 217.902344 110.074219 217.707031 110.335938 217.707031 110.816406 C 217.703125 111.234375 217.804688 111.613281 218.007812 111.960938 C 218.207031 112.3125 218.453125 112.625 218.75 112.90625 C 219.046875 113.1875 219.460938 113.542969 219.996094 113.976562 C 220.019531 113.992188 220.042969 114.011719 220.0625 114.027344 C 220.085938 114.042969 220.109375 114.0625 220.128906 114.082031 C 220.164062 114.109375 220.195312 114.132812 220.226562 114.160156 C 220.257812 114.1875 220.289062 114.214844 220.324219 114.238281 C 221.09375 114.859375 221.738281 115.441406 222.253906 115.988281 C 222.769531 116.53125 223.199219 117.179688 223.542969 117.925781 C 223.890625 118.679688 224.0625 119.527344 224.058594 120.476562 C 224.058594 121.386719 223.871094 122.046875 223.507812 122.472656 C 223.140625 122.898438 222.613281 123.078125 221.914062 123.007812 C 221.21875 122.941406 220.382812 122.628906 219.402344 122.0625 C 218.824219 121.726562 218.253906 121.332031 217.699219 120.875 C 217.140625 120.421875 216.621094 119.921875 216.132812 119.378906 C 215.644531 118.835938 215.210938 118.269531 214.824219 117.679688 L 215.894531 116.121094 C 216.363281 116.832031 216.90625 117.488281 217.515625 118.082031 C 218.132812 118.679688 218.761719 119.164062 219.410156 119.539062 C 220.160156 119.972656 220.738281 120.160156 221.15625 120.105469 C 221.570312 120.054688 221.777344 119.761719 221.78125 119.230469 C 221.78125 118.847656 221.6875 118.496094 221.503906 118.171875 C 221.320312 117.847656 221.082031 117.546875 220.785156 117.277344 C 220.488281 117 220.109375 116.6875 219.644531 116.339844 L 219.601562 116.300781 L 219.554688 116.265625 L 219.371094 116.132812 C 218.554688 115.511719 217.878906 114.9375 217.34375 114.40625 C 216.808594 113.875 216.355469 113.222656 215.980469 112.453125 C 215.609375 111.679688 215.421875 110.785156 215.425781 109.765625 C 215.429688 108.847656 215.605469 108.175781 215.960938 107.738281 C 216.316406 107.300781 216.828125 107.105469 217.5 107.152344 C 218.167969 107.207031 218.980469 107.503906 219.929688 108.050781 " fill-opacity="1" fill-rule="nonzero"/><path fill="#ff8666" d="M 234.175781 116.421875 L 234.167969 118.964844 L 228.300781 115.578125 L 228.292969 118.8125 L 233.238281 121.667969 L 233.230469 124.210938 L 228.285156 121.355469 L 228.277344 124.492188 L 234.144531 127.878906 L 234.136719 130.421875 L 226.804688 126.1875 L 225.972656 125.707031 L 226.011719 111.710938 L 228.308594 113.035156 L 234.175781 116.421875 " fill-opacity="1" fill-rule="nonzero"/><path fill="#114077" d="M 242.59375 140.605469 L 242.570312 148.171875 C 242.570312 149.101562 242.417969 149.808594 242.121094 150.300781 C 241.824219 150.789062 241.394531 151.042969 240.828125 151.0625 C 240.261719 151.082031 239.578125 150.863281 238.785156 150.402344 C 237.988281 149.945312 237.3125 149.378906 236.75 148.710938 C 236.191406 148.039062 235.761719 147.292969 235.472656 146.460938 C 235.179688 145.632812 235.035156 144.753906 235.035156 143.824219 L 235.058594 136.257812 L 237.003906 137.378906 L 236.980469 145.003906 C 236.980469 145.679688 237.136719 146.296875 237.453125 146.855469 C 237.769531 147.414062 238.214844 147.859375 238.792969 148.195312 C 239.371094 148.53125 239.824219 148.601562 240.144531 148.410156 C 240.464844 148.222656 240.625 147.785156 240.628906 147.109375 L 240.652344 139.484375 L 242.59375 140.605469 " fill-opacity="1" fill-rule="nonzero"/><path fill="#ff8666" d="M 242.027344 126.589844 C 242.207031 126.558594 242.34375 126.445312 242.445312 126.25 C 242.542969 126.054688 242.59375 125.796875 242.601562 125.472656 C 242.601562 125.144531 242.554688 124.828125 242.460938 124.519531 C 242.359375 124.214844 242.222656 123.941406 242.042969 123.703125 C 241.867188 123.464844 241.65625 123.277344 241.417969 123.136719 L 238.558594 121.488281 L 238.550781 124.78125 L 241.40625 126.433594 C 241.640625 126.566406 241.847656 126.621094 242.027344 126.589844 Z M 242.550781 129.5 L 245.449219 136.953125 L 242.667969 135.347656 L 239.9375 128.128906 L 238.542969 127.324219 L 238.527344 132.957031 L 236.230469 131.632812 L 236.269531 117.621094 L 238.566406 118.945312 L 241.609375 120.703125 C 242.28125 121.089844 242.867188 121.605469 243.375 122.246094 C 243.882812 122.886719 244.273438 123.601562 244.550781 124.394531 C 244.832031 125.1875 244.96875 126.003906 244.964844 126.839844 C 244.964844 127.671875 244.820312 128.324219 244.539062 128.796875 C 244.257812 129.265625 243.863281 129.527344 243.351562 129.578125 C 243.101562 129.601562 242.835938 129.578125 242.550781 129.5 " fill-opacity="1" fill-rule="nonzero"/><path fill="#114077" d="M 232.929688 135.027344 L 232.898438 146.875 L 230.507812 145.492188 L 226.878906 134.839844 L 226.855469 143.382812 L 224.996094 142.3125 L 225.03125 130.46875 L 227.40625 131.839844 L 231.046875 142.636719 L 231.070312 133.957031 L 232.929688 135.027344 " fill-opacity="1" fill-rule="nonzero"/><path fill="#114077" d="M 246.609375 150.738281 L 249.074219 152.164062 L 247.855469 147.410156 Z M 248.480469 144.007812 L 252.390625 158.132812 L 250.296875 156.925781 L 249.726562 154.695312 L 245.945312 152.511719 L 245.363281 154.078125 L 243.269531 152.867188 L 247.246094 143.292969 L 248.480469 144.007812 " fill-opacity="1" fill-rule="nonzero"/><path fill="#114077" d="M 255.644531 148.144531 L 255.617188 157.84375 L 260.585938 160.710938 L 260.578125 162.863281 L 254.535156 159.371094 L 253.667969 158.875 L 253.703125 147.023438 L 255.644531 148.144531 " fill-opacity="1" fill-rule="nonzero"/><path fill="#0f3f75" d="M 154.074219 182.175781 C 153.449219 181.757812 138.816406 172.355469 136.164062 169.625 C 134.238281 167.644531 132.417969 166.042969 132.007812 162.449219 C 131.597656 158.859375 135.660156 156.378906 141.160156 159.347656 C 145.035156 161.4375 149.855469 167.324219 151.511719 169.367188 C 152.671875 170.796875 154.371094 172.46875 155.933594 173.84375 C 155.964844 173.871094 155.984375 173.882812 155.984375 173.882812 C 156.640625 174.460938 157.273438 174.984375 157.832031 175.410156 C 159.226562 176.480469 154.699219 182.597656 154.074219 182.175781 " fill-opacity="1" fill-rule="nonzero"/><path fill="#ffc5b3" d="M 166.609375 182.480469 L 166.09375 183.5 L 163.253906 189.121094 L 162.816406 189.984375 C 162.816406 189.984375 160.863281 188.535156 159.191406 187.164062 C 158.882812 186.910156 158.585938 186.660156 158.308594 186.421875 C 158.207031 186.332031 158.105469 186.246094 158.007812 186.160156 C 157.839844 186.011719 157.683594 185.867188 157.542969 185.734375 C 157.496094 185.6875 157.453125 185.644531 157.410156 185.601562 C 157.335938 185.53125 157.269531 185.460938 157.207031 185.398438 C 155.90625 184.015625 155.453125 182.691406 155.453125 182.691406 C 155.453125 182.691406 154.574219 182.003906 153.933594 181.566406 C 153.914062 181.515625 153.902344 181.464844 153.890625 181.414062 C 153.867188 181.289062 153.855469 181.15625 153.855469 181.019531 C 153.878906 178.894531 156.980469 175.339844 158.21875 176.421875 C 159.292969 177.359375 158.816406 176.863281 158.785156 176.832031 C 158.84375 176.851562 160.800781 177.566406 162.511719 178.765625 C 164.253906 179.980469 166.609375 182.480469 166.609375 182.480469 " fill-opacity="1" fill-rule="nonzero"/><path fill="#f2a29b" d="M 166.09375 183.5 L 163.253906 189.121094 L 162.816406 189.984375 C 162.816406 189.984375 160.863281 188.535156 159.191406 187.164062 C 158.882812 186.910156 158.585938 186.660156 158.308594 186.421875 C 158.207031 186.332031 158.105469 186.246094 158.007812 186.160156 C 157.839844 186.011719 157.683594 185.867188 157.542969 185.734375 C 157.496094 185.6875 157.453125 185.644531 157.410156 185.601562 C 157.335938 185.53125 157.269531 185.460938 157.207031 185.398438 C 155.90625 184.015625 155.453125 182.691406 155.453125 182.691406 C 155.453125 182.691406 154.574219 182.003906 153.933594 181.566406 C 153.914062 181.515625 153.902344 181.464844 153.890625 181.414062 C 153.867188 181.289062 153.855469 181.15625 153.855469 181.019531 C 155.109375 181.902344 155.457031 182.136719 155.457031 182.136719 C 155.457031 182.136719 155.574219 181.789062 156.070312 181.40625 L 157.027344 180.4375 C 157.027344 180.4375 159.414062 178.417969 161.765625 180.675781 C 163.414062 182.253906 165.179688 183.121094 166.09375 183.5 " fill-opacity="1" fill-rule="nonzero"/><path fill="#f2a29b" d="M 164.007812 188.105469 C 164.007812 188.105469 164.390625 189.855469 164.480469 190.25 C 164.636719 190.9375 164.238281 191.746094 163.644531 191.855469 C 163.214844 191.9375 162.527344 192 162.035156 192.003906 C 161.65625 192.007812 160.144531 192.042969 159.878906 191.996094 C 159.613281 191.945312 159.871094 190.984375 160.46875 190.628906 C 161.152344 190.226562 161.730469 190.425781 161.730469 190.425781 L 162.628906 190.195312 C 162.628906 190.195312 162.390625 189.679688 162.144531 188.96875 C 161.78125 187.921875 163.699219 187.355469 164.007812 188.105469 " fill-opacity="1" fill-rule="nonzero"/><path fill="#f2a29b" d="M 165.210938 186.152344 C 165.210938 186.152344 166.203125 188.261719 166.378906 188.675781 C 166.691406 189.410156 166.34375 190.355469 165.707031 190.601562 C 165.246094 190.78125 164.390625 191.183594 163.96875 191.222656 C 163.546875 191.257812 161.496094 191.109375 161.191406 191.109375 C 160.886719 191.109375 160.9375 190.140625 161.601562 189.726562 C 162.457031 189.195312 163.363281 189.441406 163.363281 189.441406 L 164.316406 189 C 164.316406 189 163.855469 188.328125 163.4375 187.59375 C 162.820312 186.503906 164.71875 185.382812 165.210938 186.152344 " fill-opacity="1" fill-rule="nonzero"/><path fill="#fab2a5" d="M 165.792969 183.960938 C 165.792969 183.960938 167.039062 186.523438 167.214844 186.941406 C 167.53125 187.671875 167.253906 188.273438 166.839844 188.546875 C 166.425781 188.824219 164.753906 189.496094 164.753906 189.496094 C 164.753906 189.496094 161.664062 189.328125 161.363281 189.328125 C 161.058594 189.328125 161.121094 188.054688 161.867188 187.820312 C 162.613281 187.585938 164.027344 187.617188 164.027344 187.617188 L 165.058594 187.140625 C 165.058594 187.140625 164.617188 186.289062 163.992188 185.621094 C 162.988281 184.550781 165.300781 183.191406 165.792969 183.960938 " fill-opacity="1" fill-rule="nonzero"/><path fill="#ffc5b3" d="M 166.660156 182.558594 C 166.660156 182.558594 167.433594 184.484375 167.53125 184.929688 C 167.625 185.371094 167.667969 185.894531 167.253906 186.171875 C 166.839844 186.449219 165.484375 187.097656 165.484375 187.097656 C 165.484375 187.097656 163 187.097656 162.699219 187.097656 C 162.394531 187.097656 162.457031 185.828125 163.203125 185.589844 C 163.949219 185.355469 164.722656 185.371094 164.722656 185.371094 L 165.089844 184.949219 C 165.089844 184.949219 164.695312 184.269531 164.425781 183.824219 C 163.972656 183.0625 166.320312 181.800781 166.660156 182.558594 " fill-opacity="1" fill-rule="nonzero"/><path fill="#ffc5b3" d="M 162.253906 180.601562 L 162.332031 182.011719 C 162.332031 182.011719 162.246094 184.347656 162.214844 184.984375 C 162.1875 185.621094 160.375 185.527344 160.339844 184.292969 C 160.300781 183.058594 160.101562 182.0625 160.101562 182.0625 C 160.101562 182.0625 158.164062 182.820312 157.027344 180.4375 C 157.027344 180.433594 157.023438 180.433594 157.023438 180.429688 C 156.136719 178.5625 157.578125 176.988281 158.78125 176.828125 C 159.625 176.71875 160.4375 176.910156 161.914062 178.164062 C 162.375 178.558594 162.253906 180.601562 162.253906 180.601562 " fill-opacity="1" fill-rule="nonzero"/><path fill="#f2a29b" d="M 160.101562 182.0625 C 160.101562 182.0625 158.164062 182.820312 157.027344 180.4375 C 157.027344 180.433594 157.023438 180.433594 157.023438 180.429688 C 158.542969 181.667969 159.085938 180.0625 159.085938 180.0625 C 159.28125 180.230469 160.101562 182.0625 160.101562 182.0625 " fill-opacity="1" fill-rule="nonzero"/><path fill="#07244d" d="M 115.859375 299.648438 C 115.859375 299.648438 115.753906 308.980469 115.125 311.257812 C 114.496094 313.535156 113.59375 315.007812 113.550781 317.398438 C 113.511719 319.785156 114.371094 321.007812 116.046875 321.597656 C 117.722656 322.183594 119.757812 321.882812 122.355469 319.703125 C 124.953125 317.523438 126.292969 316.769531 128.347656 316.347656 C 130.402344 315.929688 133.371094 315.945312 137.273438 313.605469 C 139.996094 311.96875 143.371094 309.503906 142.34375 307.421875 C 141.664062 306.039062 137.292969 304.613281 133.542969 305.328125 C 131.886719 305.644531 128.515625 306.484375 127.164062 306.375 C 125.578125 306.25 124.71875 305.765625 124.71875 305.765625 C 124.769531 304.347656 125.164062 300.625 125.164062 298.613281 C 125.164062 296.601562 115.859375 296.410156 115.859375 299.648438 " fill-opacity="1" fill-rule="nonzero"/><path fill="#0c325d" d="M 122.941406 195.949219 C 122.941406 195.949219 120.886719 199.71875 120.847656 203.746094 C 120.804688 207.765625 122.730469 212.25 122.605469 213.761719 C 122.480469 215.269531 121.054688 249.800781 119.796875 254.242188 C 118.539062 258.683594 114.351562 266.898438 114.351562 274.863281 C 114.351562 282.824219 114.851562 304.949219 114.851562 309.308594 C 114.851562 312.660156 125.078125 312.019531 125.078125 308.542969 C 125.078125 302.59375 127.257812 289.949219 128.933594 280.726562 C 130.609375 271.507812 132.621094 261.113281 137.484375 251.8125 C 142.34375 242.507812 146.660156 218.371094 146.660156 199.761719 C 146.660156 181.15625 127.636719 181.949219 122.941406 195.949219 " fill-opacity="1" fill-rule="nonzero"/><path fill="#f2a29b" d="M 151.445312 138.054688 L 148.851562 136.371094 L 147.828125 136.453125 C 147.828125 136.453125 147.949219 137.5625 147.074219 137.929688 C 146.203125 138.296875 145.820312 137.855469 145.820312 137.855469 C 145.820312 137.855469 145.910156 135.285156 145.933594 134.910156 C 145.976562 134.246094 146.585938 133.878906 147.136719 133.804688 C 147.691406 133.730469 149.136719 133.609375 149.554688 133.710938 C 149.972656 133.8125 152.34375 135.101562 152.972656 135.523438 C 153.601562 135.945312 152.289062 138.601562 151.445312 138.054688 " fill-opacity="1" fill-rule="nonzero"/><path fill="#f2a29b" d="M 154.195312 133.441406 C 154.195312 133.441406 150.636719 131.113281 150.15625 130.988281 C 149.675781 130.867188 146.550781 132.023438 146.417969 132.175781 C 146.289062 132.324219 145.960938 132.503906 145.875 132.992188 C 145.792969 133.476562 145.566406 135.617188 145.566406 135.617188 C 145.566406 135.617188 146.550781 136.078125 147.097656 135.46875 C 147.640625 134.859375 147.96875 134.257812 147.96875 134.257812 L 149.527344 133.761719 C 149.527344 133.761719 152.417969 136.296875 152.746094 136.546875 C 153.535156 137.148438 155.464844 134.261719 154.195312 133.441406 " fill-opacity="1" fill-rule="nonzero"/><path fill="#f2a29b" d="M 153.265625 134.023438 L 150.589844 130.746094 C 150.589844 130.746094 148.546875 130.675781 147.8125 130.578125 C 147.8125 130.578125 147.125 131.066406 145.941406 130.972656 C 144.757812 130.878906 144.449219 130.097656 144.410156 129.816406 C 144.410156 129.816406 147.566406 128.285156 147.960938 128.203125 C 148.355469 128.117188 152.054688 128.421875 152.28125 128.453125 C 152.503906 128.480469 155.78125 132.308594 155.953125 132.5625 C 156.414062 133.25 154.492188 135.53125 153.265625 134.023438 " fill-opacity="1" fill-rule="nonzero"/><path fill="#f2a29b" d="M 154.527344 132.582031 C 154.527344 132.582031 153.019531 129.855469 152.625 129.027344 C 152.625 129.027344 150.925781 128.238281 150.011719 127.578125 C 150.011719 127.578125 148.824219 127.402344 147.855469 126.269531 C 146.699219 124.90625 147.957031 124.183594 147.957031 124.183594 C 147.957031 124.183594 150.925781 125.3125 151.207031 125.453125 C 151.488281 125.59375 154.277344 127.097656 154.601562 127.449219 C 154.925781 127.804688 157.253906 131.148438 157.410156 131.460938 C 157.566406 131.777344 155.480469 134.671875 154.527344 132.582031 " fill-opacity="1" fill-rule="nonzero"/><path fill="#f2a29b" d="M 151.375 137.589844 C 151.375 136.625 152.136719 135.539062 153.5 133.710938 C 154.699219 132.097656 157.03125 130.523438 157.488281 131.601562 C 157.804688 132.339844 159.289062 135.507812 160.175781 137.453125 C 161.453125 140.253906 160.613281 142.355469 160.757812 143.792969 C 160.898438 145.230469 161.941406 146.894531 162.097656 147.3125 C 162.480469 148.3125 157.675781 151.101562 157.140625 149.480469 C 156.667969 148.050781 156.351562 146.75 156.351562 146.75 C 156.351562 146.75 154.726562 146.546875 153.941406 144.746094 C 153.152344 142.941406 151.375 138.558594 151.375 137.589844 " fill-opacity="1" fill-rule="nonzero"/><path fill="#ffc5b3" d="M 156.839844 145.589844 C 156.839844 145.589844 155.011719 144.507812 155.09375 140.613281 C 155.179688 136.71875 156.75 134.527344 156.75 134.527344 L 156.980469 131.75 C 156.980469 131.75 156.972656 128.765625 158.0625 128.136719 C 159.152344 127.507812 160.015625 128.285156 160.015625 128.285156 L 159.574219 131.421875 C 159.574219 131.421875 159.785156 133.703125 159.785156 134.4375 C 159.785156 135.167969 161.148438 138.40625 161.121094 140.40625 C 161.09375 142.40625 160.914062 143.40625 159.816406 144.894531 C 158.90625 146.132812 157.5625 146.332031 156.839844 145.589844 " fill-opacity="1" fill-rule="nonzero"/><path fill="#0c3461" d="M 156.175781 147.714844 C 156.578125 149.078125 161.789062 169.003906 162.878906 173.023438 C 163.96875 177.050781 167.992188 183.796875 171.636719 182.917969 C 175.285156 182.035156 175.453125 178.261719 174.613281 176.628906 C 173.773438 174.996094 162.710938 147.421875 161.875 145.535156 C 161.035156 143.648438 155.671875 146.023438 156.175781 147.714844 " fill-opacity="1" fill-rule="nonzero"/><g clip-path="url(#fcc566888b)"><path fill="#07244d" d="M 140.292969 319.785156 C 140.292969 319.785156 140.589844 322.730469 140.292969 323.765625 C 139.992188 324.804688 138.65625 329.71875 138.574219 331.519531 C 138.488281 333.320312 138.488281 337.136719 142.535156 337.386719 C 146.578125 337.640625 149.761719 336.507812 152.695312 336.714844 C 155.628906 336.925781 156.175781 337.753906 162.796875 337.421875 C 169.417969 337.09375 172.414062 335.691406 173.25 331.835938 C 174.089844 327.980469 172.464844 325.339844 168.285156 325.894531 C 159.691406 327.035156 150.683594 322.972656 150.683594 322.972656 C 150.683594 322.972656 150.769531 320.832031 150.769531 318.90625 C 150.769531 316.976562 140.292969 315.804688 140.292969 319.785156 " fill-opacity="1" fill-rule="nonzero"/></g><path fill="#0f3f75" d="M 128.683594 200.601562 C 128.683594 200.601562 126.253906 210.574219 128.179688 215.9375 C 130.105469 221.304688 133.460938 223.984375 134.046875 225.828125 C 134.632812 227.675781 138.910156 256.757812 139.828125 262.539062 C 140.75 268.324219 136.730469 282.992188 136.730469 289.027344 C 136.730469 295.0625 139.703125 317.101562 139.703125 323.726562 C 139.703125 328.042969 151.816406 328.054688 151.816406 323.597656 C 151.816406 317.140625 154.496094 283.746094 156.089844 278.128906 C 157.683594 272.515625 161.203125 248.039062 160.617188 239.492188 C 160.03125 230.941406 158.71875 207.386719 156.96875 201.207031 C 153.449219 188.761719 128.683594 192.765625 128.683594 200.601562 " fill-opacity="1" fill-rule="nonzero"/><path fill="#0c325d" d="M 156.089844 278.128906 C 154.496094 283.746094 151.816406 317.144531 151.816406 323.597656 C 151.816406 324.964844 150.675781 325.910156 149.097656 326.441406 C 147.738281 307.921875 151.199219 281.773438 153.855469 263.128906 C 156.648438 243.515625 149.34375 226.542969 149.34375 226.542969 C 144.613281 227.300781 140.753906 226.542969 140.753906 226.542969 C 144.777344 226.667969 150.808594 222.769531 150.808594 222.769531 L 150.179688 211.957031 C 150.179688 211.957031 148.921875 210.574219 140.753906 210.449219 C 134.417969 210.351562 129.589844 207.304688 127.746094 205.945312 C 128.113281 202.929688 128.683594 200.597656 128.683594 200.597656 C 128.683594 192.765625 153.449219 188.761719 156.96875 201.207031 C 158.71875 207.386719 160.027344 230.941406 160.617188 239.492188 C 161.203125 248.039062 157.683594 272.515625 156.089844 278.128906 " fill-opacity="1" fill-rule="nonzero"/><path fill="#0f3f75" d="M 130.339844 132.3125 C 135.34375 133.820312 148.253906 142.015625 150.179688 144.949219 C 152.363281 148.269531 158.835938 153.75 157.832031 162.800781 C 156.824219 171.851562 154.457031 181.394531 154.457031 190.332031 C 154.457031 194.921875 157.9375 199.789062 157.9375 202.570312 C 157.9375 205.351562 146.292969 208.640625 138.40625 207.347656 C 128.683594 205.753906 121.433594 198.964844 122.269531 195.824219 C 123.046875 192.90625 126.292969 186.15625 126.921875 183.910156 C 127.550781 181.660156 129.4375 169.839844 124.785156 162.046875 C 120.132812 154.25 115.421875 143.804688 116.457031 137.496094 C 117.085938 133.671875 120.78125 129.195312 124.15625 128.980469 C 127.644531 128.757812 129.625 130.886719 130.339844 132.3125 " fill-opacity="1" fill-rule="nonzero"/><path fill="#0c325d" d="M 157.9375 202.570312 C 157.9375 204.464844 152.527344 206.597656 146.582031 207.351562 C 146.753906 202.121094 146.589844 196.167969 146.660156 194 C 146.773438 190.628906 142.511719 185.808594 143.265625 183.734375 C 144.019531 181.660156 148.921875 183.042969 148.785156 178.707031 C 148.644531 174.375 141.574219 164.429688 141.574219 164.429688 C 138.046875 158.960938 146.660156 157.019531 152.628906 159.378906 C 154.535156 160.132812 156.292969 161.5 157.808594 163.011719 C 156.789062 172.003906 154.457031 181.464844 154.457031 190.332031 C 154.457031 194.921875 157.9375 199.789062 157.9375 202.570312 " fill-opacity="1" fill-rule="nonzero"/><path fill="#ffc5b3" d="M 128.683594 133.097656 C 128.683594 133.097656 132.707031 128.015625 130.441406 125.304688 C 126.515625 120.597656 149.992188 129.863281 148.734375 130.867188 C 147.476562 131.871094 146.753906 132.40625 145.890625 134.386719 C 145.027344 136.367188 144.449219 138.324219 145.035156 140.519531 C 145.625 142.714844 142.691406 141.421875 140.585938 140.378906 C 138.480469 139.339844 131.667969 137.152344 129.65625 135.457031 C 127.644531 133.757812 128.683594 133.097656 128.683594 133.097656 " fill-opacity="1" fill-rule="nonzero"/><path fill="#ffc5b3" d="M 141.253906 100.066406 C 147.625 100.066406 152.503906 104.515625 154.164062 108.066406 C 156.089844 112.195312 155.042969 116.617188 155.042969 116.617188 C 155.042969 116.617188 156.152344 117.714844 156.230469 117.886719 C 156.308594 118.058594 155.382812 120.210938 155.382812 120.320312 C 155.382812 120.429688 154.644531 126.65625 153.292969 128.574219 C 151.941406 130.488281 150.148438 130.617188 148.734375 130.867188 C 147.320312 131.117188 133.648438 128.917969 130.441406 125.304688 C 127.238281 121.6875 126.253906 119.089844 126.253906 115.234375 C 126.253906 111.378906 128.890625 100.066406 141.253906 100.066406 " fill-opacity="1" fill-rule="nonzero"/><path fill="#0f3f75" d="M 156.234375 110.21875 C 155.996094 111.628906 155.714844 113.160156 152.949219 115.476562 C 152.789062 115.609375 152.632812 115.738281 152.488281 115.859375 C 150.390625 117.59375 149.175781 120.171875 149.175781 122.890625 L 149.175781 124.183594 C 149.175781 124.972656 148.121094 125.066406 148.121094 123.730469 C 148.121094 123.378906 148.125 122.890625 148.066406 122.382812 C 147.835938 120.429688 146.0625 120.558594 144.902344 122.445312 C 143.511719 124.695312 143.855469 129.800781 142.128906 129.957031 C 137.859375 130.34375 132.390625 130.269531 128.414062 123.976562 C 123.710938 116.535156 124.785156 112.386719 127.488281 107.796875 C 127.488281 107.796875 129.8125 99.3125 140.53125 99.3125 C 151.25 99.3125 153.703125 105.941406 154.171875 106.351562 C 154.265625 106.429688 154.386719 106.4375 154.519531 106.398438 C 155.308594 106.171875 156.097656 106.765625 156.183594 107.582031 C 156.28125 108.546875 156.34375 109.589844 156.234375 110.21875 " fill-opacity="1" fill-rule="nonzero"/><path fill="#0c325d" d="M 156.234375 110.21875 C 155.996094 111.632812 155.710938 113.160156 152.949219 115.476562 C 152.789062 115.609375 152.636719 115.734375 152.484375 115.859375 C 150.390625 117.59375 149.175781 120.171875 149.175781 122.890625 L 149.175781 124.183594 C 149.175781 124.972656 148.125 125.066406 148.125 123.730469 C 148.125 123.378906 148.125 122.890625 148.066406 122.382812 C 147.835938 120.429688 146.0625 120.558594 144.902344 122.441406 C 143.511719 124.695312 143.855469 129.800781 142.128906 129.957031 C 137.859375 130.34375 132.390625 130.269531 128.414062 123.976562 C 123.714844 116.535156 124.785156 112.386719 127.488281 107.800781 C 127.417969 107.957031 124.316406 114.867188 128.890625 116.910156 C 136.117188 120.136719 141.195312 118.160156 143.820312 116.429688 C 145.347656 115.425781 147 114.621094 148.753906 114.121094 C 154.609375 112.457031 155.761719 108.675781 155.976562 106.984375 C 156.085938 107.160156 156.160156 107.363281 156.183594 107.582031 C 156.28125 108.546875 156.34375 109.589844 156.234375 110.21875 " fill-opacity="1" fill-rule="nonzero"/><path fill="#0f3f75" d="M 154.582031 153.8125 C 157.816406 157.296875 168.601562 170.78125 172.558594 175.625 C 176.519531 180.464844 174.273438 182.050781 172.890625 183.371094 C 171.507812 184.691406 166.386719 184.230469 160.234375 179.738281 C 154.078125 175.246094 143.542969 168.292969 140.214844 162.445312 C 136.882812 156.597656 144.410156 142.851562 154.582031 153.8125 " fill-opacity="1" fill-rule="nonzero"/><path fill="#57679c" d="M 130.25 130.566406 C 130.25 130.566406 129.664062 131.800781 130.777344 132.6875 C 132.4375 134.007812 137.363281 137.28125 143.707031 138.125 C 144.796875 138.273438 145.707031 139.082031 146.464844 139.882812 C 147.839844 141.339844 150.113281 144.015625 152.628906 148.105469 C 152.628906 148.105469 149.546875 144.355469 146.535156 143.101562 C 141.445312 140.988281 134.960938 141.074219 129.480469 136.3125 C 124.472656 131.964844 130.25 130.566406 130.25 130.566406 " fill-opacity="1" fill-rule="nonzero"/></svg>