<svg xmlns="http://www.w3.org/2000/svg" xmlns:xlink="http://www.w3.org/1999/xlink" width="500" zoomAndPan="magnify" viewBox="0 0 375 374.999991" height="500" preserveAspectRatio="xMidYMid meet" version="1.0"><defs><clipPath id="f88dd35cae"><path d="M 37.5 91 L 114 91 L 114 173 L 37.5 173 Z M 37.5 91 " clip-rule="nonzero"/></clipPath><clipPath id="e3394fb195"><path d="M 283 243 L 337.5 243 L 337.5 313.96875 L 283 313.96875 Z M 283 243 " clip-rule="nonzero"/></clipPath><clipPath id="68b619cf2d"><path d="M 283 256 L 337.5 256 L 337.5 313.96875 L 283 313.96875 Z M 283 256 " clip-rule="nonzero"/></clipPath></defs><path fill="#f89d8d" d="M 267.328125 243.761719 C 258.078125 239.253906 245.707031 238.132812 236.875 240.496094 C 226.242188 243.34375 217.578125 250.828125 207.046875 253.90625 C 199.71875 256.046875 193.367188 254.710938 186.351562 252.347656 C 183.292969 251.316406 179.851562 250.460938 176.621094 250.3125 C 175.558594 250.265625 174.46875 250.261719 173.457031 250.589844 C 171.179688 251.324219 170.816406 252.984375 171.492188 254.921875 C 171.914062 256.132812 172.449219 259.289062 173.441406 260.132812 C 168.742188 256.148438 163.917969 252.597656 158.574219 249.503906 C 151.898438 245.632812 140.542969 244.414062 133.207031 246.789062 C 139.609375 252.46875 149.316406 258.175781 156.234375 263.214844 C 161.839844 267.300781 167.679688 271.203125 174.195312 273.5625 C 183.078125 276.777344 192.75 276.964844 201.910156 279.261719 C 205.496094 280.164062 209.140625 281.398438 212.800781 280.882812 C 215.386719 280.519531 217.773438 279.296875 220.023438 277.972656 C 234.960938 269.171875 246.183594 257.152344 260.902344 247.988281 L 267.328125 243.761719 " fill-opacity="1" fill-rule="nonzero"/><path fill="#f89d8d" d="M 103.46875 128.164062 C 103.78125 128.578125 104.152344 129.027344 104.667969 129.082031 C 105.074219 129.125 105.460938 128.910156 105.8125 128.703125 C 120.558594 120.027344 137.101562 114.414062 154.082031 112.332031 C 159.5 111.667969 164.984375 111.351562 170.277344 110.007812 C 176.097656 108.53125 181.597656 105.8125 186.308594 102.082031 C 188.796875 100.113281 191.359375 97.738281 194.53125 97.664062 C 197.753906 97.585938 202.464844 100.164062 205.378906 101.484375 C 208.613281 102.949219 210.375 106.976562 211.636719 110.046875 C 214.628906 117.3125 219.007812 134.414062 229.386719 132.960938 C 230.113281 132.855469 230.898438 132.613281 231.269531 131.980469 C 231.585938 131.441406 231.511719 130.769531 231.429688 130.148438 C 230.519531 123.378906 229.609375 116.609375 228.699219 109.839844 C 228.144531 105.71875 228.34375 101.136719 227.21875 97.128906 C 226.414062 94.257812 225.890625 89.816406 224.121094 87.367188 C 223.148438 86.023438 221.652344 85.179688 220.1875 84.402344 C 215.683594 82.027344 211.019531 79.960938 206.230469 78.226562 C 203.25 77.140625 200.164062 76.179688 196.988281 76.15625 C 190.664062 76.117188 184.785156 79.386719 178.5 79.941406 C 171.066406 80.597656 163.664062 81.460938 156.378906 83.113281 C 144.097656 85.90625 132.035156 89.648438 120.332031 94.296875 C 114.433594 96.636719 108.628906 99.203125 102.929688 101.992188 C 98.949219 103.945312 92.683594 106.210938 92.777344 111.601562 C 92.875 117.335938 100.207031 123.839844 103.46875 128.164062 " fill-opacity="1" fill-rule="nonzero"/><path fill="#b0b4c8" d="M 189.78125 168.050781 C 194.476562 172.832031 202.164062 174.234375 209.367188 171.625 C 215.058594 169.566406 219.203125 164.316406 220.1875 157.921875 C 221.152344 151.636719 218.8125 145.652344 213.925781 141.917969 C 208.816406 138.007812 201.402344 137.308594 195.046875 140.125 C 188.359375 143.09375 184.589844 149.644531 185.203125 157.226562 C 185.558594 161.5625 187.183594 165.40625 189.78125 168.050781 Z M 202.128906 175.832031 C 196.601562 175.832031 191.386719 173.84375 187.707031 170.097656 C 184.628906 166.964844 182.710938 162.476562 182.304688 157.464844 C 181.582031 148.609375 186.015625 140.949219 193.867188 137.464844 C 201.183594 134.21875 209.75 135.058594 215.695312 139.601562 C 221.441406 143.996094 224.195312 151.007812 223.0625 158.363281 C 221.917969 165.8125 217.050781 171.945312 210.355469 174.367188 C 207.632812 175.351562 204.84375 175.832031 202.128906 175.832031 " fill-opacity="1" fill-rule="nonzero"/><path fill="#a1a4b6" d="M 203.121094 138.414062 C 200.40625 138.414062 197.640625 138.976562 195.046875 140.125 C 188.359375 143.09375 184.589844 149.644531 185.203125 157.226562 C 185.558594 161.5625 187.183594 165.40625 189.78125 168.050781 C 194.476562 172.832031 202.164062 174.234375 209.367188 171.625 C 215.058594 169.566406 219.203125 164.316406 220.1875 157.921875 C 221.152344 151.636719 218.8125 145.652344 213.925781 141.917969 C 210.902344 139.605469 207.066406 138.414062 203.121094 138.414062 Z M 202.195312 173.742188 C 197.238281 173.742188 192.566406 171.960938 189.269531 168.597656 C 186.511719 165.792969 184.792969 161.773438 184.425781 157.277344 C 183.78125 149.34375 187.753906 142.476562 194.789062 139.351562 C 201.347656 136.441406 209.027344 137.195312 214.355469 141.269531 C 219.503906 145.203125 221.972656 151.492188 220.960938 158.085938 C 219.933594 164.761719 215.570312 170.257812 209.570312 172.425781 C 207.128906 173.3125 204.628906 173.742188 202.195312 173.742188 " fill-opacity="1" fill-rule="nonzero"/><path fill="#b0b4c8" d="M 205.5 194.972656 C 204.40625 194.972656 203.292969 195.203125 202.246094 195.667969 C 199.582031 196.847656 198.078125 199.464844 198.324219 202.496094 C 198.464844 204.234375 199.113281 205.773438 200.144531 206.820312 C 202.019531 208.730469 205.105469 209.285156 208.003906 208.234375 C 210.269531 207.414062 211.921875 205.316406 212.316406 202.757812 C 212.703125 200.25 211.769531 197.863281 209.824219 196.375 C 208.613281 195.449219 207.082031 194.972656 205.5 194.972656 Z M 205.082031 210.839844 C 202.625 210.839844 200.304688 209.953125 198.660156 208.28125 C 197.289062 206.882812 196.433594 204.886719 196.25 202.664062 C 195.929688 198.726562 197.90625 195.316406 201.402344 193.761719 C 204.644531 192.324219 208.445312 192.699219 211.085938 194.722656 C 213.648438 196.679688 214.875 199.800781 214.371094 203.074219 C 213.863281 206.382812 211.691406 209.113281 208.710938 210.195312 C 207.507812 210.628906 206.277344 210.839844 205.082031 210.839844 " fill-opacity="1" fill-rule="nonzero"/><path fill="#b0b4c8" d="M 204.339844 181.070312 C 203.785156 181.070312 203.308594 180.660156 203.234375 180.101562 C 203.066406 178.8125 202.996094 176.269531 202.945312 174.414062 C 202.917969 173.507812 202.894531 172.722656 202.871094 172.433594 C 202.820312 171.820312 203.277344 171.277344 203.890625 171.226562 C 204.503906 171.175781 205.046875 171.632812 205.097656 172.246094 C 205.128906 172.597656 205.148438 173.332031 205.175781 174.351562 C 205.226562 176.160156 205.296875 178.636719 205.449219 179.808594 C 205.527344 180.421875 205.097656 180.984375 204.488281 181.0625 L 204.339844 181.070312 " fill-opacity="1" fill-rule="nonzero"/><path fill="#b0b4c8" d="M 204.875 196.644531 C 204.273438 196.644531 203.777344 196.164062 203.757812 195.558594 C 203.703125 193.796875 203.480469 188.90625 203.40625 188.003906 C 203.355469 187.386719 203.8125 186.847656 204.425781 186.796875 C 205.039062 186.746094 205.582031 187.203125 205.632812 187.820312 C 205.710938 188.769531 205.9375 193.660156 205.992188 195.488281 C 206.011719 196.109375 205.527344 196.625 204.910156 196.640625 L 204.875 196.644531 " fill-opacity="1" fill-rule="nonzero"/><path fill="#b0b4c8" d="M 204.023438 179.308594 L 204.019531 179.3125 C 203.242188 179.597656 203.128906 180.117188 203.15625 181.644531 L 203.164062 182.429688 C 203.179688 183.910156 203.195312 185.585938 203.394531 186.949219 L 203.4375 187.269531 C 203.519531 187.863281 203.617188 188.601562 203.929688 188.847656 C 204.15625 189.027344 204.457031 189.097656 204.734375 189.03125 C 204.886719 189 205.089844 188.90625 205.207031 188.660156 C 205.625 187.746094 205.683594 181.59375 205.175781 179.945312 C 205.09375 179.6875 204.90625 179.460938 204.675781 179.34375 C 204.476562 179.242188 204.257812 179.234375 204.023438 179.308594 Z M 204.53125 191.289062 C 203.820312 191.289062 203.109375 191.050781 202.542969 190.601562 C 201.519531 189.792969 201.351562 188.503906 201.226562 187.566406 L 201.183594 187.273438 C 200.964844 185.761719 200.945312 184.003906 200.929688 182.453125 L 200.921875 181.683594 C 200.898438 180.34375 200.859375 178.097656 203.222656 177.222656 L 203.277344 177.203125 L 203.292969 177.195312 C 204.097656 176.921875 204.949219 176.976562 205.6875 177.351562 C 206.457031 177.742188 207.046875 178.449219 207.308594 179.285156 C 207.859375 181.078125 208.015625 187.972656 207.222656 189.628906 C 206.835938 190.429688 206.113281 191.007812 205.234375 191.210938 C 205.003906 191.265625 204.769531 191.289062 204.53125 191.289062 " fill-opacity="1" fill-rule="nonzero"/><path fill="#7dd4e2" d="M 200.019531 210.21875 C 199.007812 210.191406 197.992188 209.664062 197.582031 208.699219 C 197.355469 208.160156 197.367188 207.542969 197.535156 206.992188 C 197.847656 205.957031 198.6875 205.253906 199.773438 205.207031 C 200.726562 205.167969 201.710938 205.621094 202.210938 206.449219 C 203.234375 208.140625 201.851562 210.269531 200.019531 210.21875 Z M 214.71875 229.667969 C 213.386719 225.519531 205.90625 207.636719 203.824219 203.265625 C 203.511719 202.613281 203.046875 201.972656 202.34375 201.648438 C 201.390625 201.203125 200.816406 201.3125 199.929688 201.726562 C 196.257812 203.449219 179.414062 212.007812 174.621094 215.144531 C 174.210938 215.410156 174.144531 215.828125 174.195312 216.023438 C 174.269531 216.308594 174.628906 216.457031 174.933594 216.589844 C 180.261719 218.933594 187.109375 221.601562 193.550781 224.042969 C 196.890625 225.3125 201.53125 226.945312 204.867188 228.210938 C 207.714844 229.289062 211.4375 230.519531 213.40625 231.042969 C 213.839844 231.160156 214.335938 231.015625 214.574219 230.703125 C 214.792969 230.417969 214.832031 230.019531 214.71875 229.667969 " fill-opacity="1" fill-rule="nonzero"/><path fill="#7dd4e2" d="M 190.972656 200.730469 C 191.035156 200.53125 191.097656 200.296875 190.988281 200.125 C 190.90625 200.003906 190.761719 199.949219 190.621094 199.902344 C 189.453125 199.519531 188.273438 199.171875 187.082031 198.863281 C 186.839844 198.800781 186.570312 198.746094 186.351562 198.882812 C 186.175781 198.992188 186.082031 199.199219 186 199.394531 C 184.253906 203.613281 182.503906 207.824219 180.753906 212.042969 L 187.507812 210.035156 C 188.804688 206.988281 189.960938 203.882812 190.972656 200.730469 " fill-opacity="1" fill-rule="nonzero"/><path fill="#7dd4e2" d="M 178.796875 215.699219 C 176.941406 220.398438 172.132812 232.5 170.261719 237.414062 C 169.917969 238.316406 169.628906 239.363281 170.117188 240.230469 C 170.535156 240.96875 171.402344 241.351562 172.207031 241.679688 C 180.9375 245.234375 191.574219 249.324219 198.835938 251.992188 C 199.277344 252.148438 199.71875 252.347656 200.179688 252.328125 C 201.339844 252.285156 201.980469 251.109375 202.398438 250.089844 C 204.886719 244.007812 208.59375 234.039062 211.085938 227.957031 L 178.796875 215.699219 " fill-opacity="1" fill-rule="nonzero"/><path fill="#ffffff" d="M 184.902344 222.621094 C 184.136719 222.328125 183.261719 222.742188 182.941406 223.554688 C 181.484375 227.226562 178.945312 233.636719 177.867188 236.460938 C 177.640625 237.054688 177.445312 237.746094 177.742188 238.3125 C 177.996094 238.789062 178.539062 239.03125 179.039062 239.234375 C 184.488281 241.460938 191.132812 244.007812 195.667969 245.667969 C 195.941406 245.769531 196.21875 245.890625 196.507812 245.871094 C 197.238281 245.832031 197.65625 245.046875 197.933594 244.375 C 199.386719 240.820312 201.472656 235.257812 203.074219 231.234375 C 203.40625 230.40625 203.03125 229.484375 202.242188 229.1875 L 184.902344 222.621094 " fill-opacity="1" fill-rule="nonzero"/><path fill="#7dd4e2" d="M 202.417969 239.710938 C 202.34375 239.710938 202.269531 239.695312 202.195312 239.667969 L 179.34375 230.9375 C 179.019531 230.8125 178.859375 230.449219 178.984375 230.128906 C 179.105469 229.804688 179.46875 229.644531 179.789062 229.769531 L 202.640625 238.5 C 202.964844 238.625 203.125 238.984375 203 239.308594 C 202.90625 239.554688 202.671875 239.710938 202.417969 239.710938 " fill-opacity="1" fill-rule="nonzero"/><path fill="#7dd4e2" d="M 186.582031 244.394531 C 186.507812 244.394531 186.429688 244.378906 186.355469 244.351562 C 186.035156 244.222656 185.875 243.863281 186 243.542969 L 186.132812 243.210938 C 190.265625 232.6875 192.6875 226.382812 193.332031 224.464844 C 193.441406 224.140625 193.792969 223.960938 194.121094 224.074219 C 194.449219 224.183594 194.625 224.539062 194.515625 224.863281 C 193.863281 226.800781 191.433594 233.125 187.292969 243.667969 L 187.164062 243.996094 C 187.066406 244.242188 186.832031 244.394531 186.582031 244.394531 " fill-opacity="1" fill-rule="nonzero"/><path fill="#ffffff" d="M 186.964844 199.765625 L 186.792969 199.816406 C 186.695312 199.886719 186.625 200.039062 186.558594 200.203125 C 185.785156 202.085938 184.832031 204.417969 183.882812 206.75 C 182.9375 209.0625 181.992188 211.375 181.222656 213.25 L 181.140625 213.34375 C 180.40625 213.757812 179.636719 214.109375 178.953125 214.417969 C 178.253906 214.738281 177.648438 215.015625 177.246094 215.277344 C 176.964844 215.464844 176.925781 215.738281 176.953125 215.835938 C 176.992188 215.988281 177.234375 216.09375 177.453125 216.191406 C 177.898438 216.386719 178.507812 216.644531 179.054688 216.875 L 179.734375 217.164062 C 179.828125 217.203125 179.875 217.3125 179.835938 217.410156 L 178.992188 219.546875 C 176.828125 225.007812 173.558594 233.257812 172.109375 237.070312 C 171.800781 237.878906 171.539062 238.804688 171.945312 239.546875 C 172.285156 240.160156 173 240.488281 173.765625 240.800781 C 182.238281 244.257812 192.160156 248.046875 198.230469 250.273438 L 198.386719 250.328125 C 198.734375 250.460938 199.058594 250.578125 199.390625 250.566406 C 200.359375 250.523438 200.910156 249.480469 201.28125 248.574219 C 202.449219 245.71875 203.925781 241.894531 205.355469 238.191406 C 206.679688 234.765625 208.046875 231.226562 209.164062 228.460938 C 209.203125 228.367188 209.308594 228.320312 209.402344 228.347656 C 209.625 228.417969 209.875 228.5 210.136719 228.582031 C 210.730469 228.773438 211.34375 228.96875 211.699219 229.0625 C 212.003906 229.144531 212.355469 229.046875 212.515625 228.832031 C 212.660156 228.644531 212.699219 228.367188 212.613281 228.101562 C 211.472656 224.519531 204.660156 208.859375 202.796875 204.929688 C 202.488281 204.277344 202.085938 203.832031 201.605469 203.609375 C 200.835938 203.25 200.382812 203.339844 199.664062 203.679688 C 197.933594 204.496094 192.386719 207.292969 186.890625 210.214844 C 186.796875 210.265625 186.679688 210.226562 186.628906 210.136719 C 186.589844 210.0625 186.601562 209.972656 186.65625 209.914062 C 187.734375 207.347656 189.007812 203.9375 189.980469 201 C 190.007812 200.921875 190.078125 200.710938 190.03125 200.625 C 190.011719 200.585938 189.945312 200.5625 189.871094 200.539062 C 188.992188 200.261719 188.09375 200.011719 187.199219 199.800781 C 187.109375 199.78125 187.03125 199.765625 186.964844 199.765625 Z M 199.335938 250.953125 C 198.953125 250.953125 198.597656 250.820312 198.25 250.6875 L 198.097656 250.632812 C 192.023438 248.40625 182.097656 244.613281 173.621094 241.160156 C 172.789062 240.820312 172.007812 240.453125 171.609375 239.730469 C 171.128906 238.855469 171.410156 237.824219 171.75 236.933594 C 173.203125 233.121094 176.46875 224.867188 178.632812 219.40625 L 179.410156 217.441406 L 178.90625 217.230469 C 178.359375 216.996094 177.746094 216.738281 177.332031 216.558594 C 177.015625 216.417969 176.667969 216.265625 176.578125 215.933594 C 176.519531 215.699219 176.589844 215.25 177.035156 214.957031 C 177.460938 214.675781 178.078125 214.394531 178.792969 214.070312 C 179.453125 213.769531 180.191406 213.433594 180.894531 213.042969 C 181.660156 211.179688 182.59375 208.894531 183.527344 206.605469 C 184.476562 204.273438 185.429688 201.9375 186.203125 200.054688 C 186.292969 199.84375 186.386719 199.640625 186.5625 199.507812 C 186.820312 199.316406 187.125 199.390625 187.285156 199.429688 C 188.191406 199.640625 189.101562 199.894531 189.988281 200.175781 C 190.097656 200.207031 190.277344 200.265625 190.371094 200.445312 C 190.492188 200.671875 190.394531 200.964844 190.34375 201.121094 C 189.421875 203.902344 188.234375 207.101562 187.195312 209.617188 C 192.539062 206.785156 197.816406 204.128906 199.5 203.332031 C 200.296875 202.957031 200.867188 202.84375 201.765625 203.261719 C 202.332031 203.523438 202.796875 204.027344 203.144531 204.765625 C 205.007812 208.703125 211.835938 224.390625 212.980469 227.988281 C 213.101562 228.367188 213.039062 228.78125 212.820312 229.066406 C 212.566406 229.398438 212.054688 229.554688 211.601562 229.433594 C 211.234375 229.335938 210.617188 229.140625 210.019531 228.949219 C 209.824219 228.886719 209.632812 228.824219 209.457031 228.769531 C 208.351562 231.507812 207.011719 234.976562 205.714844 238.328125 C 204.285156 242.035156 202.804688 245.863281 201.636719 248.722656 C 201.253906 249.652344 200.609375 250.898438 199.40625 250.949219 L 199.335938 250.953125 " fill-opacity="1" fill-rule="nonzero"/><path fill="#cbcedb" d="M 228.042969 232.847656 L 227.949219 232.707031 C 226.820312 230.144531 223.804688 223.636719 222.738281 221.21875 L 216.582031 224.078125 C 219.261719 230.613281 221.941406 237.148438 224.621094 243.683594 C 224.78125 244.078125 224.953125 244.484375 225.265625 244.765625 C 225.570312 245.042969 225.988281 245.136719 226.371094 245.289062 C 227.539062 245.761719 229.78125 246.753906 230.863281 247.175781 C 231.316406 245.351562 232.207031 241.570312 232.617188 240.28125 C 232.339844 240.128906 231.019531 239.355469 230.613281 239.171875 C 230.523438 239.128906 230.421875 239.078125 230.386719 238.984375 C 230.347656 238.875 230.417969 238.761719 230.476562 238.65625 C 230.703125 238.273438 231.210938 237.078125 231.402344 236.746094 C 231.011719 236.589844 229.429688 235.800781 229.046875 235.613281 C 229.28125 235.234375 229.984375 233.929688 230.160156 233.59375 C 230.039062 233.507812 228.117188 232.925781 228.042969 232.847656 " fill-opacity="1" fill-rule="nonzero"/><path fill="#b0b4c8" d="M 230.472656 244.523438 C 230.21875 244.640625 229.628906 243.058594 229.546875 242.851562 C 227.511719 237.800781 223.714844 228.996094 221.988281 225.050781 C 221.898438 224.847656 222.03125 224.582031 222.296875 224.476562 C 222.554688 224.359375 222.835938 224.433594 222.921875 224.636719 C 224.648438 228.585938 228.449219 237.394531 230.488281 242.453125 C 230.566406 242.65625 230.703125 244.417969 230.472656 244.523438 " fill-opacity="1" fill-rule="nonzero"/><path fill="#b0b4c8" d="M 228.773438 245.261719 C 229.035156 245.152344 228.277344 243.644531 228.183594 243.445312 C 225.871094 238.511719 222.015625 229.738281 220.296875 225.785156 C 220.210938 225.582031 219.929688 225.5 219.671875 225.621094 C 219.410156 225.730469 219.273438 225.984375 219.359375 226.1875 C 221.078125 230.144531 224.933594 238.925781 227.25 243.863281 C 227.34375 244.058594 228.542969 245.359375 228.773438 245.261719 " fill-opacity="1" fill-rule="nonzero"/><path fill="#cbcedb" d="M 215.050781 210.09375 C 214.125 210.96875 212.75 211.402344 211.523438 210.910156 C 210.84375 210.632812 210.304688 210.070312 209.964844 209.429688 C 209.320312 208.230469 209.445312 206.855469 210.371094 205.84375 C 211.183594 204.957031 212.464844 204.484375 213.648438 204.777344 C 216.0625 205.375 216.730469 208.503906 215.050781 210.09375 Z M 219.390625 202.371094 C 214.578125 201.179688 209.363281 203.109375 206.058594 206.710938 C 202.285156 210.816406 201.792969 216.425781 204.402344 221.300781 C 205.792969 223.898438 207.980469 226.191406 210.746094 227.308594 C 215.742188 229.320312 221.328125 227.558594 225.09375 223.988281 C 231.925781 217.527344 229.21875 204.792969 219.390625 202.371094 " fill-opacity="1" fill-rule="nonzero"/><path fill="#b0b4c8" d="M 221.207031 212.566406 C 221.527344 212.425781 221.851562 212.316406 222.191406 212.304688 C 223.398438 212.261719 223.671875 213.582031 222.605469 214.082031 C 219.390625 215.597656 210.964844 219.359375 209.988281 219.214844 C 209.238281 219.101562 208.945312 218.074219 209.523438 217.597656 C 209.917969 217.265625 213.546875 215.792969 214.503906 215.378906 C 215.824219 214.796875 217.164062 214.25 218.503906 213.710938 C 219.097656 213.472656 220.910156 212.699219 221.207031 212.566406 " fill-opacity="1" fill-rule="nonzero"/><path fill="#b0b4c8" d="M 221.15625 217.453125 C 221.375 217.347656 221.609375 217.234375 221.832031 217.257812 C 222.722656 217.355469 223.066406 218.640625 222.335938 219 C 219.703125 220.285156 216.988281 221.324219 214.246094 222.335938 C 213.628906 222.566406 212.988281 222.4375 212.796875 221.652344 C 212.644531 221.035156 213.140625 220.753906 213.59375 220.527344 C 214.949219 219.859375 216.347656 219.289062 217.757812 218.746094 C 218.46875 218.472656 219.1875 218.207031 219.902344 217.9375 C 220.25 217.804688 220.597656 217.675781 220.945312 217.542969 C 221.011719 217.515625 221.085938 217.484375 221.15625 217.453125 " fill-opacity="1" fill-rule="nonzero"/><path fill="#dde1eb" d="M 205.097656 210.890625 C 205.234375 210.609375 205.394531 210.351562 205.589844 210.125 C 205.699219 209.996094 205.847656 209.867188 206.015625 209.886719 C 206.558594 209.949219 206.289062 210.921875 206.230469 211.226562 C 206.085938 211.957031 206 212.699219 205.96875 213.4375 C 205.910156 214.894531 206.066406 216.363281 206.457031 217.765625 C 207.050781 219.910156 207.757812 222.027344 208.972656 223.914062 C 209.042969 224.019531 209.113281 224.140625 209.109375 224.265625 C 209.066406 225.1875 207.410156 223.632812 207.21875 223.40625 C 205.570312 221.421875 204.675781 218.867188 204.34375 216.328125 C 204.203125 215.234375 204.238281 214.113281 204.453125 213.03125 C 204.585938 212.34375 204.769531 211.558594 205.097656 210.890625 " fill-opacity="1" fill-rule="nonzero"/><path fill="#b0b4c8" d="M 212.320312 202.71875 C 212.773438 202.527344 213.960938 202.242188 214.460938 202.195312 C 214.636719 199.25 213.417969 196.5 211.085938 194.722656 C 208.445312 192.703125 204.644531 192.324219 201.402344 193.761719 C 197.90625 195.316406 195.929688 198.726562 196.25 202.664062 C 196.273438 202.933594 196.308594 203.203125 196.347656 203.46875 C 197.003906 203.140625 197.65625 202.8125 198.328125 202.507812 L 198.324219 202.496094 C 198.078125 199.464844 199.582031 196.847656 202.246094 195.667969 C 204.800781 194.53125 207.777344 194.808594 209.824219 196.375 C 211.761719 197.855469 212.691406 200.226562 212.320312 202.71875 " fill-opacity="1" fill-rule="nonzero"/><path fill="#b0b4c8" d="M 211.507812 205.402344 L 211.359375 205.414062 C 210.578125 206.714844 209.414062 207.726562 208.003906 208.234375 C 205.105469 209.285156 202.019531 208.730469 200.144531 206.820312 C 199.804688 206.476562 199.515625 206.074219 199.261719 205.636719 C 199.183594 205.667969 199.105469 205.707031 199.023438 205.742188 L 198.933594 205.863281 L 198.871094 205.941406 L 198.796875 206.042969 C 198.726562 206.152344 198.664062 206.261719 198.605469 206.378906 L 198.527344 206.535156 C 198.480469 206.671875 198.4375 206.8125 198.398438 206.953125 C 198.335938 207.191406 198.203125 207.386719 198.035156 207.535156 C 198.226562 207.800781 198.4375 208.050781 198.660156 208.28125 C 200.304688 209.953125 202.625 210.839844 205.078125 210.839844 C 206.277344 210.839844 207.507812 210.628906 208.710938 210.195312 C 211.007812 209.363281 212.816406 207.546875 213.761719 205.242188 C 213.007812 205.246094 212.253906 205.285156 211.507812 205.402344 " fill-opacity="1" fill-rule="nonzero"/><path fill="#a3e1f0" d="M 177.171875 229.488281 C 176.683594 230.71875 174.976562 235.496094 174.398438 236.714844 C 174.160156 237.21875 173.917969 237.730469 173.546875 238.148438 C 173.5 238.199219 173.441406 238.257812 173.367188 238.257812 C 173.214844 238.257812 173.183594 238.042969 173.207031 237.894531 C 173.316406 237.136719 173.539062 236.460938 173.796875 235.75 C 174.160156 234.75 175.757812 230.203125 176.148438 229.214844 C 177.792969 225.046875 179.421875 220.859375 181.191406 216.746094 C 181.445312 216.152344 181.613281 215.414062 181.996094 214.898438 C 182.347656 214.429688 182.859375 214.117188 183.355469 213.816406 C 186.535156 211.898438 189.769531 210.078125 193.054688 208.359375 C 193.59375 208.078125 194.117188 207.695312 194.738281 207.714844 L 194.933594 207.761719 C 195.066406 207.871094 194.980469 208.089844 194.871094 208.222656 C 194.523438 208.648438 194.042969 208.949219 193.574219 209.238281 C 190.605469 211.085938 187.640625 212.933594 184.738281 214.890625 C 184.117188 215.3125 183.488281 215.742188 182.996094 216.308594 C 182.390625 217 181.058594 220.046875 180.855469 220.511719 C 180.578125 221.152344 180.300781 221.800781 180.03125 222.445312 C 179.503906 223.695312 178.988281 224.953125 178.476562 226.207031 C 178.027344 227.3125 177.605469 228.402344 177.171875 229.488281 " fill-opacity="1" fill-rule="nonzero"/><path fill="#fabea5" d="M 88.015625 98.390625 C 90.105469 93.554688 95.527344 87.632812 98.90625 84.964844 C 99.574219 84.4375 100.371094 84.101562 101.15625 83.773438 C 112.734375 78.929688 125.371094 76.039062 137.46875 72.710938 C 149.730469 69.339844 162.054688 66.183594 174.429688 63.253906 C 178.210938 62.363281 182.8125 61.21875 186.566406 62.875 C 189.484375 64.152344 191.710938 67.128906 194.21875 69.136719 C 201.242188 74.757812 207.976562 80.730469 214.289062 87.152344 C 226.878906 99.964844 226.878906 99.964844 224.199219 111.394531 C 222.566406 118.378906 219.984375 127.582031 217.855469 134.429688 C 216.816406 137.78125 215.683594 141.101562 214.417969 144.371094 C 213.367188 147.09375 212.597656 150.140625 210.703125 152.414062 C 210.253906 152.957031 209.691406 153.492188 208.992188 153.535156 C 208.484375 153.566406 208 153.332031 207.574219 153.054688 C 205.890625 151.960938 204.789062 150.132812 204.183594 148.210938 C 202.585938 143.136719 203.753906 137.390625 204.394531 132.234375 C 205.113281 126.445312 206.117188 120.695312 207.394531 115.007812 C 207.746094 113.441406 208.109375 111.746094 207.425781 110.292969 C 207.050781 109.488281 206.386719 108.855469 205.699219 108.289062 C 202.84375 105.9375 199.382812 104.464844 196.105469 102.746094 C 189.042969 99.035156 182.660156 94.046875 177.355469 88.089844 C 176.792969 91.640625 168.882812 96.121094 166.769531 96.183594 C 170.132812 102.824219 173.101562 109.96875 177.199219 116.1875 C 180.265625 120.839844 185.070312 123.894531 189.40625 127.226562 C 193.996094 130.753906 199.609375 134.757812 202.109375 140.003906 C 203.847656 143.660156 204.933594 150.988281 202.015625 154.355469 C 198.046875 158.929688 187.171875 150.792969 184.199219 148.105469 C 176.386719 141.035156 167.582031 134.980469 160.546875 127.078125 C 156.90625 122.992188 151.601562 121.171875 146.136719 121.019531 C 136.09375 120.742188 125.992188 121.464844 115.988281 120.253906 C 107.820312 119.265625 97.339844 116.589844 91.183594 110.765625 C 87.164062 106.960938 85.925781 103.21875 88.015625 98.390625 " fill-opacity="1" fill-rule="nonzero"/><path fill="#fbcdb7" d="M 115.078125 81.054688 C 124.039062 78.425781 133.277344 76.917969 142.378906 74.886719 C 153.648438 72.375 164.777344 69.128906 176.25 67.628906 C 181.203125 66.980469 186.035156 66.355469 190.679688 68.59375 C 194.796875 70.574219 198.101562 73.878906 201.535156 76.820312 C 207.246094 81.71875 212.957031 86.609375 218.601562 91.578125 C 217.363281 90.28125 215.9375 88.828125 214.289062 87.152344 C 207.976562 80.730469 201.242188 74.757812 194.21875 69.136719 C 191.710938 67.128906 189.484375 64.152344 186.566406 62.875 C 182.8125 61.21875 178.210938 62.363281 174.429688 63.253906 C 162.054688 66.183594 149.730469 69.339844 137.46875 72.710938 C 125.371094 76.039062 112.734375 78.929688 101.15625 83.773438 C 100.371094 84.101562 99.574219 84.4375 98.90625 84.964844 C 96.53125 86.839844 93.148438 90.324219 90.621094 93.910156 C 98.90625 84.964844 106.140625 83.675781 115.078125 81.054688 " fill-opacity="1" fill-rule="nonzero"/><g clip-path="url(#f88dd35cae)"><path fill="#7484ca" d="M 112.480469 133.988281 C 108.394531 125.722656 104.042969 117.589844 99.433594 109.605469 C 97.480469 106.226562 95.4375 102.90625 93.441406 99.546875 C 92 97.125 90.832031 94.644531 88.914062 92.59375 C 88.792969 92.464844 88.667969 92.335938 88.539062 92.210938 C 88.222656 91.894531 87.878906 91.566406 87.4375 91.476562 C 86.789062 91.34375 86.171875 91.765625 85.636719 92.160156 C 81.753906 94.996094 77.367188 97.34375 73.203125 99.730469 C 68.136719 102.632812 63.132812 105.726562 58.183594 108.882812 C 56.621094 109.875 45.84375 116.746094 37.609375 122.191406 C 47.417969 138.636719 55.609375 155.96875 64.472656 172.9375 C 71.566406 168.074219 78.660156 163.210938 85.75 158.34375 C 90.546875 155.054688 95.34375 151.769531 100.136719 148.480469 C 102.78125 146.667969 105.582031 145.09375 108.191406 143.234375 C 110.261719 141.761719 113.527344 140.945312 113.648438 137.894531 C 113.703125 136.519531 113.085938 135.21875 112.480469 133.988281 " fill-opacity="1" fill-rule="nonzero"/></g><path fill="#6478c4" d="M 70.777344 104.335938 C 78.726562 119.40625 86.46875 134.585938 94.003906 149.867188 C 94.191406 150.25 94.65625 150.410156 95.039062 150.21875 C 95.425781 150.03125 95.582031 149.566406 95.390625 149.183594 C 87.851562 133.886719 80.101562 118.695312 72.148438 103.613281 C 71.949219 103.234375 71.480469 103.089844 71.101562 103.289062 C 70.722656 103.488281 70.578125 103.957031 70.777344 104.335938 " fill-opacity="1" fill-rule="nonzero"/><path fill="#6478c4" d="M 105.179688 139.394531 C 104.957031 133.234375 95.871094 134.855469 97.835938 141.351562 C 98.421875 143.300781 101.09375 144.078125 102.914062 143.164062 C 104.296875 142.464844 105.234375 140.941406 105.179688 139.394531 " fill-opacity="1" fill-rule="nonzero"/><path fill="#b0b4c8" d="M 213.925781 141.917969 C 215.871094 143.40625 217.40625 145.25 218.496094 147.324219 C 219.175781 146.546875 219.84375 145.761719 220.511719 144.972656 C 219.28125 142.9375 217.671875 141.113281 215.695312 139.601562 C 211.605469 136.476562 206.269531 135.101562 200.953125 135.609375 C 201.1875 136.566406 201.402344 137.527344 201.644531 138.476562 C 206.097656 138.144531 210.523438 139.316406 213.925781 141.917969 " fill-opacity="1" fill-rule="nonzero"/><path fill="#a1a4b6" d="M 203.121094 138.414062 C 207.066406 138.414062 210.902344 139.605469 213.925781 141.917969 C 215.871094 143.40625 217.40625 145.25 218.496094 147.324219 C 218.675781 147.117188 218.859375 146.910156 219.035156 146.703125 C 217.898438 144.625 216.324219 142.773438 214.355469 141.269531 C 210.765625 138.523438 206.105469 137.296875 201.445312 137.667969 C 201.507812 137.941406 201.574219 138.207031 201.640625 138.476562 C 202.136719 138.4375 202.628906 138.414062 203.121094 138.414062 " fill-opacity="1" fill-rule="nonzero"/><path fill="#fabea5" d="M 128.59375 249.378906 C 129.570312 247.625 132.742188 246.773438 135.242188 246.382812 C 142.300781 245.277344 148.980469 248.214844 154.769531 251.996094 C 157.621094 253.859375 160.707031 255.886719 163.257812 258.128906 C 165.746094 260.316406 167.40625 263.332031 170.804688 264.375 C 172.039062 264.75 173.339844 264.820312 174.628906 264.914062 C 187.539062 265.867188 200.21875 269.851562 211.359375 276.453125 C 211.726562 276.667969 212.121094 276.898438 212.550781 276.890625 C 213.058594 276.878906 213.492188 276.542969 213.882812 276.226562 C 220.648438 270.710938 227.253906 265.011719 234.058594 259.546875 C 241.152344 253.847656 248.878906 247.199219 257.429688 243.839844 C 263.195312 241.578125 269.785156 244.035156 275.105469 246.324219 C 281.558594 249.101562 287.996094 251.753906 294.214844 255.058594 C 294.609375 255.269531 295.019531 255.492188 295.289062 255.851562 C 295.667969 256.355469 295.707031 257.027344 295.730469 257.660156 C 295.886719 262.046875 294.300781 280.863281 293.6875 290.394531 C 289.324219 288.5 284.824219 286.917969 280.234375 285.664062 C 278.332031 285.144531 276.378906 284.679688 274.417969 284.847656 C 271.921875 285.0625 269.550781 285.207031 267.328125 286.355469 C 257.929688 291.203125 244.425781 296.898438 232.96875 303.574219 C 230.058594 305.269531 226.945312 307.121094 223.585938 306.851562 C 221.402344 306.675781 219.402344 305.613281 217.476562 304.570312 C 213.816406 302.59375 210.222656 300.71875 206.421875 299.136719 C 205.183594 298.621094 194.75 294.085938 194.75 293.207031 C 190.628906 291.117188 186.503906 289.019531 182.207031 287.320312 C 176.558594 285.078125 170.640625 283.523438 165.15625 280.90625 C 155.433594 276.257812 147.644531 268.617188 139.339844 261.929688 C 135.945312 259.195312 131.972656 256.492188 129.3125 252.992188 C 128.167969 251.488281 128.074219 250.308594 128.59375 249.378906 " fill-opacity="1" fill-rule="nonzero"/><path fill="#fab59c" d="M 295.730469 257.660156 C 295.707031 257.027344 295.667969 256.355469 295.289062 255.851562 C 295.019531 255.492188 294.609375 255.269531 294.214844 255.058594 C 292.109375 253.941406 289.980469 252.902344 287.832031 251.902344 C 282.347656 261.816406 277.320312 272.40625 268.566406 279.835938 C 264.023438 283.695312 258.710938 286.101562 253.597656 289.0625 C 247.796875 292.425781 242.109375 296.054688 235.945312 298.730469 C 229.957031 301.328125 224.308594 301.929688 218.082031 299.65625 C 211.980469 297.425781 206.375 293.988281 200.339844 291.566406 C 189.511719 287.214844 178.199219 284.277344 166.832031 281.660156 C 171.835938 283.839844 177.128906 285.304688 182.207031 287.320312 C 186.503906 289.019531 190.628906 291.117188 194.75 293.207031 C 194.75 294.085938 205.183594 298.621094 206.421875 299.136719 C 210.222656 300.71875 213.816406 302.59375 217.476562 304.570312 C 219.402344 305.613281 221.402344 306.675781 223.585938 306.851562 C 226.945312 307.121094 230.058594 305.269531 232.96875 303.574219 C 244.425781 296.898438 257.929688 291.203125 267.328125 286.355469 C 269.550781 285.207031 271.921875 285.0625 274.417969 284.847656 C 276.378906 284.679688 278.332031 285.144531 280.234375 285.664062 C 284.824219 286.917969 289.324219 288.5 293.6875 290.394531 C 294.300781 280.863281 295.886719 262.046875 295.730469 257.660156 " fill-opacity="1" fill-rule="nonzero"/><g clip-path="url(#e3394fb195)"><path fill="#f5747a" d="M 311.613281 247.867188 C 307.519531 246.453125 294.8125 240.035156 293.191406 247.175781 C 289.480469 263.53125 286.347656 278.296875 284.035156 293.960938 C 283.835938 295.316406 283.679688 296.867188 284.449219 297.914062 C 284.929688 298.566406 285.667969 298.867188 286.367188 299.136719 C 299.15625 304.082031 311.945312 309.023438 324.730469 313.96875 L 337.394531 257.6875 C 328.882812 254.140625 320.28125 250.867188 311.613281 247.867188 " fill-opacity="1" fill-rule="nonzero"/></g><g clip-path="url(#68b619cf2d)"><path fill="#f36470" d="M 321.960938 285.152344 C 312.300781 295.6875 297.074219 297.886719 284.246094 292.617188 C 284.179688 293.066406 284.105469 293.507812 284.035156 293.960938 C 283.835938 295.316406 283.679688 296.867188 284.449219 297.914062 C 284.929688 298.566406 285.667969 298.867188 286.367188 299.136719 C 299.15625 304.082031 311.945312 309.023438 324.730469 313.96875 L 337.394531 257.6875 C 336.675781 257.390625 335.953125 257.101562 335.234375 256.808594 C 332.164062 266.921875 329.226562 277.234375 321.960938 285.152344 " fill-opacity="1" fill-rule="nonzero"/></g></svg>