<svg xmlns="http://www.w3.org/2000/svg" xmlns:xlink="http://www.w3.org/1999/xlink" width="500" zoomAndPan="magnify" viewBox="0 0 375 374.999991" height="500" preserveAspectRatio="xMidYMid meet" version="1.0"><path fill="#dc9e6c" d="M 228.320312 157.257812 C 223.199219 154.644531 206.957031 165.257812 209.308594 176.015625 C 211.660156 186.769531 225.421875 181.863281 225.421875 181.863281 L 233.863281 190.300781 L 232.488281 192.796875 L 233.976562 194.3125 L 235.992188 192.464844 L 238.621094 194.847656 L 237.464844 196.699219 L 238.953125 198.214844 L 240.539062 196.648438 L 243.09375 198.816406 L 242.085938 200.097656 L 248.6875 206.230469 L 255.335938 206.351562 L 254.597656 199.542969 C 254.597656 199.542969 231.035156 177.03125 231.25 176.820312 C 231.464844 176.605469 233.441406 159.871094 228.320312 157.257812 Z M 224.253906 170.511719 C 224.199219 170.703125 224.128906 170.890625 224.042969 171.070312 C 223.90625 171.394531 223.75 171.707031 223.574219 172.007812 L 223.679688 171.800781 C 223.453125 172.242188 223.15625 172.628906 222.789062 172.960938 C 222.773438 172.976562 222.757812 172.992188 222.742188 173.003906 C 222.476562 173.230469 222.1875 173.429688 221.886719 173.605469 C 221.558594 173.773438 221.21875 173.90625 220.867188 174 C 220.164062 174.175781 219.460938 174.171875 218.757812 173.992188 C 218.269531 173.894531 217.824219 173.703125 217.421875 173.410156 L 217.472656 173.449219 L 217.398438 173.394531 C 217.273438 173.3125 217.148438 173.222656 217.023438 173.128906 C 216.972656 173.09375 216.929688 173.0625 216.886719 173.03125 C 216.832031 172.992188 216.777344 172.949219 216.722656 172.910156 L 216.828125 172.988281 C 216.457031 172.703125 216.140625 172.367188 215.875 171.980469 C 215.632812 171.636719 215.445312 171.261719 215.308594 170.863281 C 215.304688 170.84375 215.296875 170.828125 215.292969 170.808594 C 215.242188 170.664062 215.085938 169.882812 215.0625 169.726562 C 215.054688 169.695312 215.050781 169.667969 215.046875 169.632812 C 215.046875 169.613281 215.046875 169.59375 215.042969 169.574219 C 215.035156 169.4375 215.054688 168.628906 215.074219 168.484375 C 215.078125 168.449219 215.082031 168.410156 215.089844 168.371094 C 215.125 168.183594 215.203125 167.953125 215.246094 167.804688 C 215.277344 167.6875 215.339844 167.433594 215.398438 167.257812 C 215.40625 167.230469 215.417969 167.199219 215.429688 167.171875 C 215.441406 167.140625 215.449219 167.121094 215.460938 167.097656 C 215.539062 166.929688 215.6875 166.695312 215.742188 166.597656 C 215.796875 166.503906 215.925781 166.257812 216.027344 166.101562 C 216.066406 166.046875 216.109375 165.992188 216.15625 165.945312 C 216.40625 165.648438 216.683594 165.371094 216.984375 165.121094 C 217.144531 165.027344 217.308594 164.929688 217.46875 164.835938 C 217.621094 164.742188 217.773438 164.652344 217.929688 164.566406 C 217.9375 164.558594 217.949219 164.554688 217.957031 164.550781 C 218.144531 164.476562 218.34375 164.4375 218.53125 164.382812 C 219.050781 164.195312 219.585938 164.140625 220.132812 164.214844 C 220.941406 164.296875 221.679688 164.570312 222.34375 165.039062 C 222.738281 165.296875 223.082031 165.613281 223.375 165.984375 C 223.480469 166.144531 223.582031 166.304688 223.683594 166.46875 L 223.96875 166.910156 C 223.976562 166.929688 223.988281 166.945312 223.996094 166.960938 C 224.019531 167.007812 224.039062 167.054688 224.054688 167.101562 C 224.363281 167.804688 224.5 168.539062 224.464844 169.308594 C 224.449219 169.71875 224.378906 170.121094 224.253906 170.511719 Z M 224.253906 170.511719 " fill-opacity="1" fill-rule="nonzero"/><path fill="#5c7396" d="M 232.164062 149.660156 C 231.925781 147.226562 231.40625 144.855469 230.601562 142.546875 C 229.847656 140.300781 228.753906 138.238281 227.324219 136.351562 C 225.890625 134.464844 224.195312 132.859375 222.238281 131.535156 C 214.476562 126.453125 204.078125 126.699219 195.484375 129.226562 C 190.84375 130.539062 186.683594 132.753906 183 135.875 C 181.238281 137.402344 179.699219 139.128906 178.386719 141.058594 C 177.074219 142.984375 176.03125 145.050781 175.257812 147.253906 C 174.464844 149.464844 174.058594 151.75 174.03125 154.101562 C 174.007812 156.449219 174.363281 158.742188 175.109375 160.972656 C 175.882812 163.199219 177.019531 165.222656 178.523438 167.039062 C 179.976562 168.902344 181.753906 170.363281 183.863281 171.425781 C 185.082031 171.988281 186.347656 172.398438 187.667969 172.652344 C 187.765625 172.671875 187.859375 172.65625 187.949219 172.605469 C 188.707031 172.808594 189.480469 172.972656 190.242188 173.109375 C 193.652344 173.710938 197.089844 174.023438 200.550781 174.039062 C 203.90625 174.113281 207.234375 173.839844 210.53125 173.226562 C 212.71875 172.8125 214.84375 172.1875 216.90625 171.355469 C 219.023438 170.441406 221.03125 169.332031 222.9375 168.03125 C 222.945312 168.023438 222.949219 168.015625 222.957031 168.007812 C 223.015625 167.972656 223.078125 167.941406 223.132812 167.90625 C 226.894531 165.554688 230.148438 162.011719 231.527344 157.730469 C 232.300781 155.085938 232.511719 152.394531 232.164062 149.660156 Z M 230.105469 153.761719 C 229.84375 158.234375 227.484375 162.066406 224.050781 164.832031 C 220.476562 167.71875 216.039062 169.253906 211.613281 170.261719 C 210.453125 170.523438 209.289062 170.753906 208.125 170.96875 C 207.746094 171.023438 207.5 171.230469 207.386719 171.597656 C 205.433594 171.832031 203.476562 171.957031 201.511719 171.980469 C 198.289062 171.996094 195.082031 171.792969 191.890625 171.371094 C 188.636719 170.964844 185.429688 170.179688 182.796875 168.125 C 180.363281 166.226562 178.707031 163.539062 177.339844 160.789062 C 176.1875 157.460938 175.984375 154.078125 176.734375 150.636719 C 177.21875 148.480469 177.992188 146.433594 179.050781 144.496094 C 180.109375 142.558594 181.410156 140.800781 182.957031 139.226562 C 186.101562 136.066406 189.773438 133.75 193.972656 132.269531 C 198.070312 130.773438 202.296875 129.988281 206.65625 129.917969 C 210.921875 129.753906 214.996094 130.5625 218.878906 132.335938 C 220.746094 133.246094 222.410156 134.4375 223.875 135.910156 C 225.339844 137.382812 226.523438 139.050781 227.429688 140.921875 C 229.417969 144.972656 230.308594 149.253906 230.105469 153.761719 Z M 230.105469 153.761719 " fill-opacity="1" fill-rule="nonzero"/><path fill="#dc9e6c" d="M 212.914062 164.921875 C 209.460938 160.320312 190.214844 162.707031 187.605469 173.40625 C 184.996094 184.101562 199.511719 185.746094 199.511719 185.746094 L 203.390625 197.042969 L 201.058594 198.679688 L 201.734375 200.695312 L 204.355469 199.925781 L 205.667969 203.222656 L 203.816406 204.378906 L 204.488281 206.394531 L 206.597656 205.6875 L 207.945312 208.757812 L 206.476562 209.464844 L 209.714844 217.878906 L 215.632812 220.914062 L 217.957031 214.476562 C 217.957031 214.476562 206.667969 183.886719 206.957031 183.789062 C 207.246094 183.691406 216.367188 169.523438 212.914062 164.921875 Z M 203.445312 175.039062 C 203.308594 175.1875 203.164062 175.324219 203.007812 175.449219 C 202.746094 175.679688 202.46875 175.890625 202.175781 176.085938 L 202.363281 175.945312 C 201.964844 176.242188 201.527344 176.457031 201.054688 176.597656 C 201.035156 176.605469 201.011719 176.609375 200.996094 176.617188 C 200.65625 176.699219 200.3125 176.753906 199.960938 176.777344 C 199.59375 176.785156 199.230469 176.753906 198.871094 176.683594 C 198.164062 176.53125 197.53125 176.21875 196.980469 175.746094 C 196.585938 175.445312 196.269531 175.078125 196.035156 174.636719 L 196.066406 174.695312 C 196.046875 174.664062 196.035156 174.640625 196.023438 174.613281 C 195.945312 174.484375 195.875 174.347656 195.800781 174.207031 C 195.773438 174.15625 195.746094 174.105469 195.722656 174.0625 C 195.6875 174 195.65625 173.941406 195.625 173.882812 L 195.6875 173.996094 C 195.480469 173.578125 195.339844 173.136719 195.273438 172.671875 C 195.207031 172.253906 195.203125 171.835938 195.257812 171.417969 C 195.257812 171.398438 195.261719 171.382812 195.261719 171.363281 C 195.28125 171.210938 195.484375 170.441406 195.53125 170.289062 C 195.539062 170.257812 195.546875 170.230469 195.558594 170.199219 C 195.566406 170.179688 195.574219 170.164062 195.582031 170.144531 C 195.632812 170.019531 196.011719 169.300781 196.085938 169.179688 C 196.105469 169.148438 196.128906 169.113281 196.152344 169.085938 C 196.265625 168.929688 196.4375 168.757812 196.539062 168.644531 C 196.617188 168.554688 196.789062 168.351562 196.917969 168.21875 C 196.9375 168.199219 196.960938 168.175781 196.984375 168.15625 C 197.007812 168.132812 197.023438 168.121094 197.042969 168.101562 C 197.1875 167.984375 197.421875 167.84375 197.515625 167.78125 C 197.609375 167.71875 197.828125 167.554688 197.988281 167.460938 C 198.046875 167.425781 198.109375 167.398438 198.171875 167.375 C 198.527344 167.21875 198.898438 167.09375 199.273438 167 C 199.464844 166.984375 199.652344 166.96875 199.839844 166.953125 C 200.015625 166.9375 200.191406 166.925781 200.371094 166.914062 C 200.382812 166.914062 200.394531 166.914062 200.402344 166.914062 C 200.601562 166.929688 200.800781 166.980469 200.996094 167.015625 C 201.542969 167.078125 202.046875 167.261719 202.507812 167.570312 C 203.195312 168 203.738281 168.570312 204.128906 169.28125 C 204.371094 169.6875 204.539062 170.121094 204.640625 170.585938 C 204.664062 170.773438 204.6875 170.964844 204.707031 171.15625 L 204.765625 171.679688 C 204.765625 171.699219 204.769531 171.71875 204.769531 171.738281 C 204.773438 171.789062 204.769531 171.839844 204.757812 171.886719 C 204.730469 172.65625 204.53125 173.375 204.160156 174.050781 C 203.964844 174.410156 203.726562 174.742188 203.445312 175.039062 Z M 203.445312 175.039062 " fill-opacity="1" fill-rule="nonzero"/><path fill="#cea98d" d="M 191.292969 86.863281 C 191.292969 86.863281 214.832031 104.53125 218.234375 107.8125 C 221.640625 111.097656 217.0625 114.035156 211.308594 113.765625 C 205.558594 113.5 198.34375 112.320312 196.527344 108.507812 C 194.710938 104.691406 191.292969 86.863281 191.292969 86.863281 Z M 191.292969 86.863281 " fill-opacity="1" fill-rule="nonzero"/><path fill="#cea98d" d="M 127.152344 85.617188 C 127.152344 85.617188 142.273438 77.863281 148.226562 75.929688 C 154.179688 73.992188 165.167969 76.425781 167.625 78.601562 C 170.078125 80.777344 167.90625 83.222656 167.90625 83.222656 Z M 127.152344 85.617188 " fill-opacity="1" fill-rule="nonzero"/><path fill="#cea98d" d="M 157.507812 92.257812 C 157.507812 92.257812 167.746094 104.332031 168.292969 106.4375 C 168.839844 108.542969 165.664062 115.289062 166.289062 118.257812 C 166.597656 119.699219 168.265625 120.914062 169.902344 121.78125 C 170.105469 121.890625 170.316406 121.972656 170.535156 122.035156 C 170.753906 122.09375 170.980469 122.128906 171.207031 122.140625 C 171.4375 122.148438 171.664062 122.136719 171.886719 122.09375 C 172.113281 122.054688 172.328125 121.988281 172.539062 121.898438 C 172.75 121.808594 172.945312 121.695312 173.132812 121.5625 C 173.316406 121.429688 173.484375 121.277344 173.636719 121.105469 C 173.785156 120.933594 173.914062 120.746094 174.023438 120.542969 C 174.132812 120.34375 174.21875 120.132812 174.28125 119.914062 C 175.402344 115.875 179.722656 107.691406 179.632812 104.964844 C 179.496094 100.914062 168.386719 88.875 168.386719 88.875 Z M 157.507812 92.257812 " fill-opacity="1" fill-rule="nonzero"/><path fill="#cea98d" d="M 165.660156 87.609375 C 165.660156 87.609375 177.242188 106.351562 181.28125 114.199219 C 185.316406 122.042969 190.160156 123.253906 192.984375 123.230469 C 195.8125 123.207031 197.203125 122.007812 197.203125 122.007812 C 197.203125 122.007812 184.835938 88.722656 177.464844 85.902344 C 170.09375 83.085938 165.660156 87.609375 165.660156 87.609375 Z M 165.660156 87.609375 " fill-opacity="1" fill-rule="nonzero"/><path fill="#e7cdb7" d="M 103.976562 85.707031 L 95.171875 124.707031 C 95.171875 124.707031 103.722656 134.988281 131.5625 147.375 C 159.398438 159.765625 169.53125 155.707031 177.566406 152.199219 C 184.449219 149.191406 195.457031 144.457031 202.054688 145.710938 C 202.269531 145.757812 202.480469 145.777344 202.699219 145.773438 C 202.914062 145.773438 203.128906 145.746094 203.339844 145.695312 C 203.550781 145.648438 203.753906 145.574219 203.949219 145.480469 C 204.144531 145.386719 204.328125 145.273438 204.5 145.140625 C 204.667969 145.003906 204.824219 144.855469 204.960938 144.6875 C 205.097656 144.519531 205.214844 144.335938 205.3125 144.144531 C 205.410156 143.949219 205.488281 143.75 205.542969 143.539062 C 205.59375 143.328125 205.625 143.113281 205.632812 142.898438 C 205.691406 139.6875 204.554688 135.359375 198.71875 133.175781 C 188.757812 129.445312 180.421875 135.863281 168.03125 133.410156 C 155.636719 130.957031 152.65625 119.132812 151.371094 109.398438 C 150.089844 99.667969 167.113281 94.070312 171.023438 93.332031 C 174.933594 92.59375 193.488281 121.277344 196.746094 124.347656 C 199.085938 126.558594 203.375 129.5 206.941406 129.660156 C 207.179688 129.664062 207.414062 129.640625 207.644531 129.589844 C 207.875 129.539062 208.097656 129.460938 208.308594 129.355469 C 208.523438 129.25 208.71875 129.121094 208.902344 128.96875 C 209.082031 128.816406 209.242188 128.644531 209.382812 128.457031 C 209.523438 128.265625 209.640625 128.058594 209.730469 127.839844 C 209.820312 127.621094 209.882812 127.394531 209.921875 127.160156 C 209.957031 126.925781 209.964844 126.691406 209.945312 126.453125 C 209.925781 126.21875 209.878906 125.988281 209.800781 125.761719 C 207.097656 117.460938 198.347656 91.769531 191.648438 85.085938 C 183.625 77.078125 174.933594 73.863281 166.8125 76.597656 C 158.6875 79.328125 131.324219 85.246094 121.585938 83.882812 C 111.847656 82.523438 105.511719 81.175781 105.511719 81.175781 Z M 103.976562 85.707031 " fill-opacity="1" fill-rule="nonzero"/><path fill="#e8ebee" d="M 112.796875 77.449219 L 99.8125 133.296875 L 83.566406 129.804688 L 93.988281 74.082031 Z M 112.796875 77.449219 " fill-opacity="1" fill-rule="nonzero"/><path fill="#7b91b8" d="M 84.503906 134.683594 C 84.503906 134.683594 98.394531 77.5625 97.210938 74.222656 C 96.027344 70.878906 71.214844 63.773438 63.699219 62.339844 C 56.183594 60.910156 54.125 63.484375 53.121094 65.738281 C 52.117188 67.996094 37.484375 122.460938 40.4375 125.988281 C 43.390625 129.519531 59.960938 132.328125 63.523438 132.484375 C 67.085938 132.644531 84.503906 134.683594 84.503906 134.683594 Z M 84.503906 134.683594 " fill-opacity="1" fill-rule="nonzero"/><path fill="#cea98d" d="M 203.199219 141.976562 C 200.171875 140.648438 197.015625 140.175781 193.734375 140.554688 C 192.894531 140.628906 192.105469 140.867188 191.367188 141.269531 C 190.628906 141.671875 190.003906 142.210938 189.492188 142.875 C 189.105469 143.382812 188.777344 143.921875 188.496094 144.492188 C 188.085938 145.195312 187.820312 145.953125 187.699219 146.761719 C 187.664062 146.972656 187.691406 147.179688 187.789062 147.371094 C 187.882812 147.566406 188.023438 147.714844 188.214844 147.820312 C 188.410156 147.917969 188.617188 147.945312 188.832031 147.902344 C 189.050781 147.863281 189.230469 147.757812 189.375 147.59375 C 190.140625 146.523438 190.445312 145.203125 191.292969 144.167969 C 191.777344 143.636719 192.347656 143.214844 193 142.910156 C 193.652344 142.605469 194.339844 142.4375 195.058594 142.40625 C 197.605469 142.152344 200.046875 142.554688 202.378906 143.609375 C 203.449219 144.085938 204.277344 142.453125 203.199219 141.976562 Z M 203.199219 141.976562 " fill-opacity="1" fill-rule="nonzero"/><path fill="#cea98d" d="M 208.648438 125.324219 C 208.242188 125.085938 207.859375 125.371094 207.460938 125.222656 C 207.167969 125.117188 206.964844 124.792969 206.78125 124.558594 C 206.210938 123.828125 205.6875 123.066406 205.214844 122.269531 C 204.960938 121.835938 204.707031 121.402344 204.472656 120.957031 C 204.363281 120.753906 204.261719 120.550781 204.160156 120.34375 C 204.046875 120.171875 203.960938 119.988281 203.894531 119.792969 C 203.847656 119.5 204.199219 119.027344 204.367188 118.765625 C 204.582031 118.433594 204.8125 118.113281 205.050781 117.796875 C 205.433594 117.28125 205.859375 116.808594 206.328125 116.375 C 206.675781 116.0625 206.300781 115.398438 205.863281 115.65625 C 204.84375 116.234375 203.921875 116.945312 203.101562 117.785156 C 202.585938 118.234375 202.222656 118.78125 202.003906 119.429688 C 201.910156 120.050781 202.023438 120.636719 202.339844 121.179688 C 203.109375 122.835938 204.082031 124.367188 205.25 125.769531 C 205.726562 126.476562 206.378906 126.933594 207.199219 127.140625 C 207.753906 127.257812 208.273438 127.164062 208.75 126.859375 C 208.871094 126.761719 208.960938 126.644531 209.023438 126.503906 C 209.085938 126.363281 209.113281 126.21875 209.101562 126.0625 C 209.09375 125.910156 209.046875 125.769531 208.96875 125.636719 C 208.886719 125.507812 208.78125 125.402344 208.648438 125.324219 Z M 208.648438 125.324219 " fill-opacity="1" fill-rule="nonzero"/><path fill="#e7cdb7" d="M 179.46875 107.996094 C 179.253906 107.296875 178.957031 106.632812 178.574219 106.007812 C 178.25 105.382812 177.953125 104.75 177.632812 104.121094 C 177.070312 103.011719 176.527344 101.890625 175.949219 100.785156 C 174.601562 98.207031 172.308594 96.191406 170.144531 94.296875 C 169.683594 93.894531 168.976562 94.6875 169.425781 95.113281 C 170.339844 95.941406 171.207031 96.816406 172.027344 97.734375 C 172.484375 98.253906 172.890625 98.808594 173.246094 99.402344 C 173.65625 100.113281 173.960938 100.902344 174.324219 101.640625 C 174.878906 102.78125 175.390625 103.9375 175.972656 105.0625 C 176.300781 105.695312 176.660156 106.3125 177.003906 106.933594 C 177.332031 107.613281 177.753906 108.230469 178.269531 108.78125 C 178.84375 109.320312 179.621094 108.671875 179.46875 107.996094 Z M 179.46875 107.996094 " fill-opacity="1" fill-rule="nonzero"/><path fill="#5c7396" d="M 90.363281 71.609375 C 89.691406 73.59375 89.261719 75.691406 88.742188 77.722656 C 88.269531 79.585938 87.800781 81.449219 87.339844 83.316406 C 86.980469 84.777344 86.628906 86.238281 86.28125 87.703125 C 86.152344 87.550781 85.988281 87.457031 85.789062 87.425781 C 81.828125 86.851562 77.863281 86.355469 73.902344 85.820312 C 74.429688 84.207031 74.957031 82.597656 75.492188 80.988281 C 76.261719 78.648438 77.070312 76.324219 77.855469 73.988281 C 78.726562 71.660156 79.453125 69.28125 80.035156 66.863281 C 80.160156 66.261719 79.304688 65.855469 79 66.445312 C 78.035156 68.472656 77.195312 70.550781 76.480469 72.679688 C 75.730469 74.691406 75.03125 76.730469 74.324219 78.761719 C 73.535156 81.023438 72.757812 83.289062 71.984375 85.558594 C 71.855469 85.542969 71.722656 85.523438 71.59375 85.507812 C 66.890625 84.84375 62.195312 84.089844 57.515625 83.300781 C 58.0625 81.25 58.617188 79.199219 59.175781 77.152344 C 60.578125 72.015625 61.972656 66.875 63.226562 61.703125 C 63.351562 61.179688 62.503906 60.941406 62.320312 61.445312 C 60.710938 65.914062 59.4375 70.503906 58.050781 75.042969 C 57.242188 77.679688 56.480469 80.339844 55.746094 83.003906 C 54.863281 82.851562 53.980469 82.703125 53.09375 82.550781 C 51.625 82.300781 50.074219 81.847656 48.574219 81.949219 C 48.4375 81.964844 48.316406 82.019531 48.210938 82.113281 C 48.109375 82.207031 48.042969 82.324219 48.015625 82.460938 C 47.988281 82.597656 48.003906 82.730469 48.066406 82.859375 C 48.125 82.984375 48.214844 83.082031 48.339844 83.148438 C 49.5625 83.621094 50.820312 83.933594 52.121094 84.089844 C 53.175781 84.292969 54.230469 84.492188 55.285156 84.6875 C 54.992188 85.761719 54.707031 86.839844 54.421875 87.917969 C 53.285156 92.246094 52.214844 96.597656 51.257812 100.972656 C 50.988281 102.199219 50.734375 103.433594 50.488281 104.664062 C 48.511719 104.394531 46.527344 104.222656 44.53125 104.148438 C 43.6875 104.128906 43.59375 105.472656 44.414062 105.621094 C 46.304688 105.964844 48.222656 106.1875 50.136719 106.4375 C 49.675781 108.789062 49.230469 111.140625 48.757812 113.492188 C 48.28125 115.839844 47.777344 118.179688 47.195312 120.5 C 47.164062 120.613281 47.136719 120.726562 47.105469 120.839844 C 46.574219 120.753906 46.042969 120.667969 45.503906 120.582031 C 44.03125 120.277344 42.542969 120.089844 41.039062 120.023438 C 40.859375 120.019531 40.703125 120.078125 40.566406 120.191406 C 40.429688 120.304688 40.34375 120.445312 40.3125 120.621094 C 40.28125 120.796875 40.308594 120.960938 40.398438 121.117188 C 40.488281 121.269531 40.617188 121.378906 40.785156 121.4375 C 42.09375 121.847656 43.429688 122.136719 44.792969 122.308594 C 45.402344 122.417969 46.015625 122.523438 46.628906 122.628906 C 46.511719 123.058594 46.394531 123.484375 46.269531 123.910156 C 45.914062 125.125 45.457031 126.320312 45.167969 127.550781 C 44.949219 128.464844 46.296875 129.246094 46.773438 128.289062 C 47.253906 127.222656 47.644531 126.125 47.945312 124.996094 C 48.148438 124.320312 48.339844 123.644531 48.527344 122.964844 C 50.976562 123.390625 53.417969 123.835938 55.867188 124.261719 C 57.261719 124.503906 58.660156 124.746094 60.054688 124.988281 C 59.625 126.144531 59.148438 127.285156 58.609375 128.40625 C 58.039062 129.589844 59.851562 130.582031 60.394531 129.390625 C 61 128.058594 61.546875 126.703125 62.050781 125.335938 C 64.949219 125.84375 67.84375 126.347656 70.738281 126.851562 C 73.59375 127.347656 76.457031 127.828125 79.332031 128.195312 C 79.371094 128.199219 79.410156 128.203125 79.449219 128.199219 C 79.175781 129.761719 78.691406 131.253906 77.996094 132.675781 C 77.886719 132.875 77.855469 133.082031 77.902344 133.300781 C 77.949219 133.519531 78.058594 133.699219 78.238281 133.835938 C 78.476562 134.011719 79.269531 134.183594 79.421875 133.761719 C 79.671875 132.890625 79.871094 132.011719 80.023438 131.121094 C 80.160156 130.519531 80.296875 129.921875 80.449219 129.328125 C 80.707031 128.320312 80.980469 127.316406 81.226562 126.304688 C 81.742188 124.191406 82.097656 122.046875 82.476562 119.910156 C 82.820312 117.972656 83.035156 116.007812 83.320312 114.058594 C 83.613281 112.0625 83.914062 110.066406 84.242188 108.074219 C 85.53125 100.300781 87.152344 92.589844 88.957031 84.921875 C 89.449219 82.828125 89.949219 80.734375 90.453125 78.640625 C 90.738281 77.445312 91.027344 76.246094 91.324219 75.050781 C 91.570312 74.054688 91.859375 73.039062 92.007812 72.023438 C 92.050781 71.800781 92.015625 71.589844 91.894531 71.398438 C 91.773438 71.207031 91.601562 71.082031 91.382812 71.027344 C 91.160156 70.972656 90.953125 71.003906 90.757812 71.113281 C 90.558594 71.226562 90.429688 71.394531 90.363281 71.609375 Z M 52.714844 103.238281 C 53.96875 97.117188 55.472656 91.050781 57.066406 85.011719 C 59.09375 85.378906 61.121094 85.730469 63.148438 86.078125 C 65.886719 86.539062 68.628906 86.976562 71.371094 87.394531 C 70.957031 88.640625 70.535156 89.882812 70.128906 91.125 C 68.402344 96.410156 66.765625 101.71875 65.21875 107.058594 C 61.316406 106.269531 57.394531 105.589844 53.453125 105.058594 L 52.378906 104.910156 C 52.488281 104.355469 52.597656 103.796875 52.714844 103.238281 Z M 60.746094 123.015625 C 56.949219 122.417969 53.148438 121.828125 49.359375 121.203125 L 49 121.144531 C 49.453125 119.363281 49.863281 117.566406 50.242188 115.765625 C 50.871094 112.75 51.4375 109.722656 52.027344 106.695312 L 52.117188 106.710938 C 54.53125 107.070312 56.941406 107.460938 59.34375 107.898438 C 61.125 108.226562 62.902344 108.578125 64.679688 108.949219 C 64.078125 111.066406 63.5 113.191406 62.9375 115.320312 C 62.253906 117.90625 61.578125 120.488281 60.746094 123.015625 Z M 80.882812 117.15625 C 80.601562 119.429688 80.382812 121.714844 80.082031 123.988281 C 79.980469 124.757812 79.882812 125.535156 79.773438 126.308594 C 79.753906 126.304688 79.734375 126.296875 79.714844 126.292969 C 74.085938 125.171875 68.425781 124.238281 62.757812 123.335938 C 63.40625 121.390625 63.980469 119.414062 64.507812 117.417969 C 65.21875 114.734375 65.929688 112.050781 66.667969 109.375 C 68.992188 109.882812 71.304688 110.433594 73.609375 111.023438 C 74.925781 111.363281 76.238281 111.710938 77.546875 112.074219 C 78.152344 112.242188 78.757812 112.417969 79.367188 112.570312 C 80.058594 112.664062 80.753906 112.714844 81.453125 112.71875 C 81.253906 114.195312 81.066406 115.671875 80.882812 117.152344 Z M 84.714844 94.554688 C 83.902344 98.296875 83.148438 102.054688 82.492188 105.828125 C 82.160156 107.730469 81.875 109.632812 81.609375 111.539062 C 81.53125 111.492188 81.453125 111.441406 81.382812 111.382812 C 81.144531 111.199219 80.890625 111.03125 80.625 110.886719 C 79.976562 110.597656 79.304688 110.378906 78.605469 110.238281 C 77.441406 109.917969 76.277344 109.609375 75.105469 109.3125 C 72.679688 108.695312 70.238281 108.132812 67.792969 107.601562 C 67.59375 107.558594 67.398438 107.519531 67.203125 107.476562 C 67.398438 106.777344 67.59375 106.078125 67.796875 105.378906 C 69.515625 99.445312 71.378906 93.558594 73.292969 87.683594 C 74.699219 87.894531 76.105469 88.113281 77.515625 88.3125 C 80.128906 88.683594 82.742188 89.050781 85.367188 89.3125 C 85.554688 89.332031 85.738281 89.3125 85.917969 89.253906 C 85.503906 91.015625 85.101562 92.78125 84.714844 94.550781 Z M 84.714844 94.554688 " fill-opacity="1" fill-rule="nonzero"/><path fill="#dc9e6c" d="M 287.765625 242.007812 L 290.070312 234.6875 C 290.070312 234.6875 328.5 240.46875 333 245.207031 C 337.5 249.945312 335.078125 267.972656 333 275.253906 C 330.921875 282.535156 324.691406 308.191406 319.84375 311.3125 C 314.996094 314.429688 294.917969 308.882812 290.765625 308.191406 C 286.609375 307.496094 271.378906 300.214844 271.378906 300.214844 Z M 287.765625 242.007812 " fill-opacity="1" fill-rule="nonzero"/><path fill="#cea98d" d="M 151.210938 218.054688 C 151.210938 218.054688 143.054688 209.734375 142.59375 206.5 C 142.132812 203.265625 149.363281 201.878906 154.746094 205.421875 C 160.132812 208.964844 166.597656 216.054688 171.058594 218.054688 C 175.523438 220.058594 204.101562 231.460938 204.101562 231.460938 C 204.101562 231.460938 203.679688 245.949219 189.371094 245.175781 C 175.058594 244.40625 151.210938 218.054688 151.210938 218.054688 Z M 151.210938 218.054688 " fill-opacity="1" fill-rule="nonzero"/><path fill="#cea98d" d="M 166.003906 214.214844 C 166.003906 214.214844 160.769531 203.796875 161.316406 200.578125 C 161.863281 197.359375 169.171875 198.242188 173.21875 203.261719 C 177.269531 208.28125 181.265625 217.007812 184.90625 220.277344 C 188.542969 223.546875 212.292969 243.132812 212.292969 243.132812 C 212.292969 243.132812 207.480469 256.800781 194.085938 251.695312 C 180.695312 246.59375 166.003906 214.214844 166.003906 214.214844 Z M 166.003906 214.214844 " fill-opacity="1" fill-rule="nonzero"/><path fill="#e7cdb7" d="M 277.144531 240.46875 C 277.144531 240.46875 258.148438 227.753906 241.164062 228.101562 C 224.179688 228.449219 214.832031 236.421875 204.097656 230.527344 C 193.367188 224.632812 174.289062 224.058594 179.367188 229.140625 C 179.367188 229.140625 191.984375 238.847656 190.59375 238.847656 C 189.207031 238.847656 180.210938 246.765625 163.941406 226.167969 C 147.671875 205.566406 144.554688 209.378906 141.4375 209.378906 C 138.320312 209.378906 150.671875 224.980469 157.132812 243.390625 C 161.640625 256.234375 176.402344 271.4375 192.675781 273.515625 C 208.945312 275.59375 254.296875 267.625 266.066406 277.683594 Z M 277.144531 240.46875 " fill-opacity="1" fill-rule="nonzero"/><path fill="#cea98d" d="M 233.3125 249.179688 C 231.726562 249.390625 230.132812 249.523438 228.53125 249.570312 C 226.851562 249.652344 225.191406 249.570312 223.515625 249.527344 C 215.433594 249.34375 207.75 247.496094 200.464844 243.988281 C 197.34375 242.441406 194.320312 240.71875 191.394531 238.828125 C 191.277344 238.757812 191.152344 238.734375 191.015625 238.765625 C 190.882812 238.796875 190.777344 238.867188 190.703125 238.984375 C 190.519531 239.273438 190.683594 239.464844 190.859375 239.679688 C 191.398438 240.273438 191.996094 240.796875 192.652344 241.257812 C 193.355469 241.804688 194.070312 242.328125 194.8125 242.820312 C 196.125 243.6875 197.472656 244.5 198.855469 245.253906 C 201.40625 246.644531 204.058594 247.800781 206.8125 248.722656 C 212.046875 250.503906 217.421875 251.476562 222.945312 251.648438 C 224.804688 251.664062 226.65625 251.574219 228.503906 251.371094 C 230.246094 251.21875 231.9375 250.890625 233.65625 250.566406 C 234.574219 250.398438 234.207031 249.046875 233.3125 249.179688 Z M 233.3125 249.179688 " fill-opacity="1" fill-rule="nonzero"/><path fill="#cea98d" d="M 189.339844 232.414062 C 189.144531 231.765625 188.910156 231.136719 188.628906 230.519531 C 188.339844 229.71875 187.90625 229.003906 187.335938 228.375 C 186.375 227.425781 184.867188 227.238281 183.578125 227.199219 C 182.917969 227.183594 182.261719 227.226562 181.609375 227.332031 C 180.914062 227.4375 180.066406 227.566406 179.617188 228.167969 C 179.574219 228.242188 179.542969 228.320312 179.535156 228.40625 C 179.523438 228.488281 179.53125 228.574219 179.5625 228.652344 C 179.589844 228.734375 179.632812 228.804688 179.691406 228.867188 C 179.753906 228.925781 179.824219 228.96875 179.90625 229 C 180.523438 229.234375 181.269531 228.964844 181.910156 228.917969 C 182.542969 228.867188 183.175781 228.882812 183.804688 228.964844 C 184.769531 229.089844 185.730469 229.222656 186.3125 230.074219 C 186.851562 230.90625 187.277344 231.796875 187.597656 232.738281 C 187.976562 233.628906 188.019531 234.535156 187.722656 235.460938 C 187.65625 235.6875 187.683594 235.902344 187.792969 236.109375 C 187.90625 236.316406 188.074219 236.453125 188.300781 236.523438 C 188.527344 236.59375 188.742188 236.570312 188.953125 236.460938 C 189.160156 236.351562 189.300781 236.183594 189.371094 235.960938 C 189.746094 234.773438 189.738281 233.59375 189.339844 232.414062 Z M 189.339844 232.414062 " fill-opacity="1" fill-rule="nonzero"/><path fill="#cea98d" d="M 150.582031 217.375 C 150.195312 216.667969 149.792969 215.964844 149.363281 215.28125 C 148.957031 214.554688 148.449219 213.910156 147.832031 213.351562 C 146.371094 212.164062 144.414062 212.511719 142.789062 213.105469 C 142.074219 213.363281 142.511719 214.441406 143.207031 214.328125 C 144.566406 214.105469 146.152344 213.855469 147.097656 215.074219 C 147.828125 216.066406 148.464844 217.109375 149.015625 218.207031 C 149.644531 219.246094 150.027344 220.363281 150.167969 221.570312 C 150.195312 222.003906 150.136719 222.429688 150 222.847656 C 149.796875 223.328125 149.519531 223.761719 149.164062 224.140625 C 149.035156 224.304688 148.980469 224.492188 148.988281 224.699219 C 149 224.90625 149.074219 225.082031 149.214844 225.234375 C 149.359375 225.386719 149.53125 225.472656 149.738281 225.496094 C 149.941406 225.519531 150.128906 225.472656 150.300781 225.355469 C 151.523438 224.605469 151.992188 222.96875 151.957031 221.613281 C 151.835938 220.089844 151.378906 218.679688 150.582031 217.375 Z M 150.582031 217.375 " fill-opacity="1" fill-rule="nonzero"/><path fill="#e7cdb7" d="M 176.433594 225.671875 C 173.65625 221.753906 170.867188 217.625 167.011719 214.679688 C 166.929688 214.617188 166.835938 214.585938 166.730469 214.589844 C 166.628906 214.597656 166.535156 214.632812 166.460938 214.707031 C 166.382812 214.777344 166.339844 214.863281 166.324219 214.96875 C 166.3125 215.074219 166.335938 215.167969 166.394531 215.257812 C 167.613281 217.410156 169.226562 219.265625 170.722656 221.226562 C 172.113281 223.039062 173.597656 224.773438 174.953125 226.609375 C 175.621094 227.511719 177.09375 226.601562 176.433594 225.671875 Z M 176.433594 225.671875 " fill-opacity="1" fill-rule="nonzero"/><path fill="#e8ebee" d="M 280.6875 238.003906 C 280.6875 238.003906 279.914062 236.617188 277.144531 240.46875 C 274.378906 244.320312 261.523438 286.078125 261.875 288.234375 C 262.222656 290.394531 266.378906 295.167969 273.148438 291.933594 C 279.917969 288.699219 287.765625 242.007812 287.765625 242.007812 Z M 280.6875 238.003906 " fill-opacity="1" fill-rule="nonzero"/><path fill="#dc9e6c" d="M 257.746094 138.367188 C 255.757812 137.25 253.644531 136.035156 252.25 134.175781 C 251.625 133.328125 251.21875 132.386719 251.03125 131.351562 C 250.785156 130.136719 250.476562 128.855469 249.378906 128.125 C 249.222656 128.011719 249.046875 127.945312 248.855469 127.921875 C 248.664062 127.902344 248.480469 127.925781 248.300781 128 C 248.121094 128.074219 247.972656 128.1875 247.855469 128.339844 C 247.734375 128.492188 247.660156 128.660156 247.628906 128.851562 C 247.378906 129.960938 247.117188 131.113281 246.8125 132.265625 C 246.097656 134.65625 245.007812 136.867188 243.546875 138.894531 C 242.105469 140.808594 240.363281 142.394531 238.324219 143.648438 C 238.132812 143.773438 237.992188 143.941406 237.902344 144.148438 C 237.8125 144.355469 237.789062 144.570312 237.824219 144.796875 C 237.863281 145.019531 237.957031 145.214844 238.109375 145.378906 C 238.265625 145.546875 238.449219 145.660156 238.667969 145.714844 C 245.019531 147.191406 247.351562 154.085938 249.011719 159.59375 C 249.082031 159.863281 249.230469 160.078125 249.460938 160.238281 C 249.6875 160.398438 249.941406 160.464844 250.222656 160.4375 C 250.496094 160.402344 250.730469 160.285156 250.917969 160.078125 C 251.109375 159.875 251.210938 159.632812 251.226562 159.355469 C 252.238281 152.582031 253.546875 145.421875 258.125 140.054688 C 258.230469 139.921875 258.300781 139.773438 258.339844 139.609375 C 258.378906 139.449219 258.378906 139.285156 258.339844 139.121094 C 258.304688 138.957031 258.234375 138.808594 258.128906 138.675781 C 258.027344 138.542969 257.898438 138.441406 257.746094 138.367188 Z M 257.746094 138.367188 " fill-opacity="1" fill-rule="nonzero"/><path fill="#dc9e6c" d="M 238.691406 120.851562 C 237.824219 120.4375 237.074219 119.863281 236.441406 119.136719 C 236.1875 118.789062 236.023438 118.402344 235.945312 117.980469 C 235.90625 117.445312 235.679688 117.003906 235.269531 116.660156 C 235.203125 116.613281 235.132812 116.585938 235.054688 116.574219 C 234.976562 116.566406 234.902344 116.578125 234.828125 116.605469 C 234.753906 116.636719 234.695312 116.683594 234.644531 116.746094 C 234.59375 116.808594 234.566406 116.875 234.550781 116.953125 C 234.449219 117.410156 234.34375 117.878906 234.21875 118.351562 C 233.925781 119.332031 233.480469 120.234375 232.878906 121.0625 C 232.289062 121.847656 231.578125 122.496094 230.742188 123.011719 C 230.574219 123.121094 230.503906 123.277344 230.539062 123.480469 C 230.574219 123.679688 230.6875 123.804688 230.882812 123.855469 C 233.484375 124.460938 234.4375 127.28125 235.117188 129.539062 C 235.148438 129.648438 235.207031 129.738281 235.300781 129.804688 C 235.394531 129.867188 235.5 129.894531 235.613281 129.882812 C 235.726562 129.871094 235.820312 129.820312 235.898438 129.738281 C 235.976562 129.652344 236.015625 129.554688 236.023438 129.441406 C 236.4375 126.667969 236.972656 123.738281 238.847656 121.539062 C 238.9375 121.425781 238.96875 121.300781 238.9375 121.160156 C 238.902344 121.015625 238.824219 120.914062 238.691406 120.851562 Z M 238.691406 120.851562 " fill-opacity="1" fill-rule="nonzero"/><path fill="#5c7396" d="M 307.640625 300.273438 C 307.425781 298.871094 307.003906 297.578125 305.710938 296.820312 C 304.226562 295.949219 302.183594 296.148438 300.667969 296.847656 C 300.554688 296.898438 300.441406 296.957031 300.332031 297.023438 C 299.535156 297.328125 298.875 297.820312 298.359375 298.496094 C 297.535156 299.621094 297.085938 300.875 297.011719 302.265625 C 296.832031 304.953125 298.390625 308.960938 301.628906 308.832031 C 302.480469 308.742188 303.277344 308.484375 304.023438 308.0625 C 304.625 307.792969 305.1875 307.460938 305.710938 307.058594 C 306.773438 306.1875 307.421875 305.074219 307.652344 303.71875 C 307.847656 302.570312 307.839844 301.421875 307.640625 300.273438 Z M 305.070312 302.632812 C 305.046875 303.335938 304.835938 303.980469 304.4375 304.5625 C 303.910156 305.132812 303.28125 305.5625 302.554688 305.847656 C 302.195312 306.066406 301.808594 306.210938 301.394531 306.277344 C 301.15625 306.289062 300.949219 306.210938 300.773438 306.046875 C 300.203125 305.585938 299.792969 305.007812 299.546875 304.3125 C 299.246094 303.496094 299.152344 302.660156 299.265625 301.796875 C 299.53125 301.769531 299.757812 301.664062 299.945312 301.472656 C 300.136719 301.285156 300.242188 301.058594 300.269531 300.789062 C 300.429688 299.101562 302.402344 298.410156 303.855469 298.765625 C 304.699219 298.972656 304.882812 299.636719 304.984375 300.425781 C 305.09375 301.160156 305.121094 301.894531 305.070312 302.632812 Z M 305.070312 302.632812 " fill-opacity="1" fill-rule="nonzero"/></svg>