<svg xmlns="http://www.w3.org/2000/svg" xmlns:xlink="http://www.w3.org/1999/xlink" width="500" zoomAndPan="magnify" viewBox="0 0 375 374.999991" height="500" preserveAspectRatio="xMidYMid meet" version="1.0"><defs><clipPath id="6f54e47247"><path d="M 169 37.757812 L 270 37.757812 L 270 159 L 169 159 Z M 169 37.757812 " clip-rule="nonzero"/></clipPath><clipPath id="8efbe720e5"><path d="M 101.195312 143.285156 L 273.597656 143.285156 L 273.597656 337.757812 L 101.195312 337.757812 Z M 101.195312 143.285156 " clip-rule="nonzero"/></clipPath><clipPath id="99422b49d1"><path d="M 106 37.757812 L 206 37.757812 L 206 159 L 106 159 Z M 106 37.757812 " clip-rule="nonzero"/></clipPath></defs><g clip-path="url(#6f54e47247)"><path fill="#006dd3" d="M 269.128906 37.757812 L 205.144531 158.0625 L 169.992188 158.113281 L 234.015625 37.757812 L 269.128906 37.757812 " fill-opacity="1" fill-rule="nonzero"/></g><g clip-path="url(#8efbe720e5)"><path fill="#edbf00" d="M 170.332031 157.085938 C 172.808594 153.925781 176.128906 153.210938 179.894531 153.210938 C 184.871094 153.210938 189.851562 153.210938 194.824219 153.210938 C 200.027344 153.210938 204.554688 155.128906 206.09375 160.570312 C 206.65625 162.554688 206.691406 164.855469 206.605469 167.136719 C 200.429688 165.730469 194 164.980469 187.398438 164.980469 C 180.871094 164.980469 174.515625 165.714844 168.40625 167.089844 C 168.40625 166.714844 168.40625 166.335938 168.40625 165.960938 C 168.40625 162.84375 168.277344 159.710938 170.332031 157.085938 Z M 216.148438 169.910156 C 216.148438 168.136719 216.148438 166.363281 216.148438 164.589844 C 216.148438 159.972656 215.300781 155.566406 212.570312 151.722656 C 208.914062 146.570312 202.933594 143.425781 196.605469 143.425781 C 190.460938 143.425781 184.320312 143.425781 178.175781 143.425781 C 171.238281 143.425781 165.113281 147.148438 161.417969 152.921875 C 159.054688 156.621094 158.644531 160.90625 158.644531 165.164062 C 158.644531 166.746094 158.644531 168.328125 158.644531 169.910156 C 125.175781 181.777344 101.195312 213.765625 101.195312 251.371094 C 101.195312 299.085938 139.789062 337.765625 187.398438 337.765625 C 235.003906 337.765625 273.597656 299.085938 273.597656 251.371094 C 273.597656 213.765625 249.617188 181.773438 216.148438 169.910156 " fill-opacity="1" fill-rule="nonzero"/></g><path fill="#f9c900" d="M 260.859375 251.644531 C 260.859375 292.304688 227.96875 325.265625 187.398438 325.265625 C 146.824219 325.265625 113.933594 292.304688 113.933594 251.644531 C 113.933594 210.984375 146.824219 178.019531 187.398438 178.019531 C 227.96875 178.019531 260.859375 210.984375 260.859375 251.644531 " fill-opacity="1" fill-rule="nonzero"/><path fill="#ffffff" d="M 258.960938 251.644531 C 258.835938 276.542969 245.871094 299.730469 224.742188 312.839844 C 203.386719 326.082031 175.894531 326.683594 153.769531 314.972656 C 131.988281 303.441406 117.597656 280.773438 115.972656 256.214844 C 114.324219 231.351562 126.1875 207.070312 146.476562 192.792969 C 166.996094 178.34375 194.394531 176.003906 217.171875 186.394531 C 239.480469 196.574219 255.304688 218.246094 258.410156 242.582031 C 258.792969 245.585938 258.945312 248.617188 258.960938 251.644531 C 258.972656 254.097656 262.769531 254.097656 262.753906 251.644531 C 262.632812 227.34375 250.941406 204.660156 231.394531 190.332031 C 211.632812 175.84375 185.164062 172.351562 162.164062 180.460938 C 139.71875 188.375 122.207031 207.097656 115.234375 229.8125 C 108.03125 253.285156 113.289062 279.128906 128.226562 298.398438 C 143.109375 317.597656 167.085938 328.179688 191.199219 327.070312 C 215.226562 325.964844 237.40625 312.828125 250.589844 292.800781 C 258.59375 280.648438 262.683594 266.160156 262.753906 251.644531 C 262.769531 249.191406 258.972656 249.191406 258.960938 251.644531 " fill-opacity="1" fill-rule="nonzero"/><g clip-path="url(#99422b49d1)"><path fill="#0095ff" d="M 106.117188 37.757812 L 170.101562 158.0625 L 205.257812 158.113281 L 141.230469 37.757812 L 106.117188 37.757812 " fill-opacity="1" fill-rule="nonzero"/></g><path fill="#ddb300" d="M 206.796875 265.648438 C 206.796875 267.835938 206.71875 270.105469 206.640625 272.136719 C 201.027344 272.136719 194.472656 272.136719 189.167969 272.136719 C 184.097656 272.136719 178.484375 272.214844 171.855469 272.214844 C 171.855469 270.105469 171.855469 267.835938 172.007812 265.648438 L 182.929688 265.414062 C 183.164062 265.414062 183.320312 265.179688 183.320312 264.945312 C 183.320312 255.019531 183.320312 242.351562 183.320312 234.144531 C 179.574219 234.613281 175.988281 235.082031 171.308594 235.707031 C 170.917969 233.597656 170.527344 231.332031 170.292969 229.21875 C 178.40625 226.953125 195.253906 220.621094 196.035156 220.621094 C 196.1875 220.621094 196.347656 220.699219 196.347656 221.011719 C 196.347656 233.363281 196.109375 251.578125 196.035156 265.414062 L 206.796875 265.648438 " fill-opacity="1" fill-rule="nonzero"/><path fill="#ddb300" d="M 162.585938 220 C 164.015625 220.574219 165.507812 220.9375 166.925781 221.546875 C 167.972656 222 168.9375 222.59375 169.859375 223.253906 L 169.929688 223.332031 C 169.921875 223.316406 169.914062 223.300781 169.902344 223.285156 C 169.917969 223.296875 169.933594 223.308594 169.945312 223.316406 L 169.875 223.238281 C 169.296875 222.261719 168.792969 221.246094 168.433594 220.160156 C 167.949219 218.6875 167.71875 217.164062 167.269531 215.683594 C 166.707031 213.835938 165.679688 212.453125 164.296875 211.117188 C 161.601562 208.507812 158.960938 207.796875 155.394531 207.394531 L 155.375 207.375 C 155.375 207.382812 155.378906 207.386719 155.378906 207.390625 C 155.371094 207.390625 155.363281 207.390625 155.359375 207.390625 L 155.378906 207.410156 C 155.472656 211.011719 155.949219 213.710938 158.308594 216.636719 C 159.515625 218.132812 160.800781 219.277344 162.585938 220 " fill-opacity="1" fill-rule="nonzero"/><path fill="#ddb300" d="M 160.375 193.71875 C 161.6875 192.90625 163.097656 192.300781 164.394531 191.457031 C 165.351562 190.835938 166.203125 190.089844 167 189.28125 L 167.058594 189.191406 C 167.050781 189.210938 167.042969 189.226562 167.039062 189.242188 C 167.050781 189.230469 167.0625 189.21875 167.078125 189.203125 L 167.019531 189.296875 C 166.613281 190.355469 166.285156 191.441406 166.113281 192.574219 C 165.882812 194.105469 165.90625 195.648438 165.710938 197.179688 C 165.464844 199.097656 164.6875 200.632812 163.546875 202.183594 C 161.320312 205.210938 158.835938 206.355469 155.390625 207.351562 L 155.375 207.375 C 155.375 207.371094 155.375 207.363281 155.375 207.359375 C 155.367188 207.359375 155.363281 207.363281 155.359375 207.363281 L 155.371094 207.339844 C 154.863281 203.777344 154.882812 201.03125 156.71875 197.753906 C 157.65625 196.074219 158.734375 194.726562 160.375 193.71875 " fill-opacity="1" fill-rule="nonzero"/><path fill="#ddb300" d="M 154.089844 228.222656 C 155.625 228.328125 157.15625 228.214844 158.691406 228.351562 C 159.828125 228.457031 160.929688 228.722656 162.007812 229.066406 L 162.101562 229.117188 C 162.085938 229.105469 162.074219 229.09375 162.058594 229.082031 C 162.078125 229.085938 162.09375 229.09375 162.113281 229.097656 L 162.019531 229.042969 C 161.167969 228.292969 160.375 227.484375 159.699219 226.5625 C 158.785156 225.3125 158.09375 223.9375 157.214844 222.671875 C 156.113281 221.085938 154.710938 220.085938 152.984375 219.246094 C 149.613281 217.605469 146.882812 217.746094 143.367188 218.46875 L 143.347656 218.457031 C 143.347656 218.460938 143.351562 218.46875 143.351562 218.472656 C 143.347656 218.476562 143.339844 218.476562 143.335938 218.476562 L 143.359375 218.492188 C 144.554688 221.886719 145.84375 224.304688 148.984375 226.355469 C 150.59375 227.402344 152.167969 228.09375 154.089844 228.222656 " fill-opacity="1" fill-rule="nonzero"/><path fill="#ddb300" d="M 143.898438 203.917969 C 144.894531 202.738281 146.050781 201.722656 147.023438 200.523438 C 147.742188 199.632812 148.320312 198.65625 148.832031 197.644531 L 148.859375 197.542969 C 148.859375 197.558594 148.855469 197.578125 148.855469 197.59375 C 148.863281 197.578125 148.875 197.5625 148.882812 197.546875 L 148.855469 197.648438 C 148.792969 198.785156 148.816406 199.917969 149 201.050781 C 149.253906 202.578125 149.75 204.035156 150.039062 205.554688 C 150.394531 207.457031 150.125 209.160156 149.519531 210.984375 C 148.335938 214.554688 146.324219 216.414062 143.351562 218.429688 L 143.347656 218.457031 C 143.34375 218.453125 143.339844 218.445312 143.339844 218.441406 C 143.335938 218.445312 143.328125 218.445312 143.324219 218.449219 L 143.332031 218.425781 C 141.75 215.191406 140.925781 212.578125 141.660156 208.886719 C 142.035156 207 142.648438 205.386719 143.898438 203.917969 " fill-opacity="1" fill-rule="nonzero"/><path fill="#ddb300" d="M 148.539062 238.6875 C 150.03125 238.308594 151.453125 237.722656 152.957031 237.378906 C 154.070312 237.125 155.195312 237.035156 156.328125 237.027344 L 156.433594 237.050781 C 156.414062 237.039062 156.398438 237.035156 156.382812 237.027344 C 156.402344 237.027344 156.417969 237.027344 156.4375 237.027344 L 156.332031 237.007812 C 155.292969 236.554688 154.289062 236.03125 153.363281 235.363281 C 152.109375 234.460938 151.03125 233.363281 149.800781 232.433594 C 148.265625 231.269531 146.625 230.757812 144.726562 230.488281 C 141.015625 229.972656 138.460938 230.957031 135.339844 232.734375 L 135.316406 232.726562 C 135.320312 232.734375 135.324219 232.738281 135.328125 232.742188 C 135.320312 232.746094 135.316406 232.75 135.3125 232.75 L 135.335938 232.757812 C 137.523438 235.613281 139.488281 237.515625 143.109375 238.492188 C 144.960938 238.988281 146.671875 239.15625 148.539062 238.6875 " fill-opacity="1" fill-rule="nonzero"/><path fill="#ddb300" d="M 131.363281 218.730469 C 131.949219 217.300781 132.734375 215.976562 133.292969 214.53125 C 133.703125 213.460938 133.953125 212.355469 134.128906 211.230469 L 134.121094 211.125 C 134.125 211.144531 134.128906 211.160156 134.136719 211.175781 C 134.136719 211.160156 134.140625 211.140625 134.144531 211.125 L 134.148438 211.230469 C 134.441406 212.328125 134.8125 213.402344 135.335938 214.417969 C 136.042969 215.792969 136.96875 217.027344 137.707031 218.382812 C 138.632812 220.078125 138.898438 221.78125 138.886719 223.707031 C 138.859375 227.46875 137.519531 229.859375 135.3125 232.703125 L 135.316406 232.726562 C 135.3125 232.722656 135.308594 232.722656 135.304688 232.714844 C 135.300781 232.722656 135.296875 232.726562 135.292969 232.730469 L 135.292969 232.703125 C 132.792969 230.121094 131.203125 227.886719 130.765625 224.152344 C 130.542969 222.238281 130.625 220.515625 131.363281 218.730469 " fill-opacity="1" fill-rule="nonzero"/><path fill="#ddb300" d="M 146.480469 250.355469 C 147.785156 249.535156 148.957031 248.535156 150.28125 247.742188 C 151.257812 247.15625 152.304688 246.722656 153.378906 246.363281 L 153.484375 246.351562 C 153.464844 246.347656 153.449219 246.347656 153.429688 246.34375 C 153.449219 246.339844 153.464844 246.332031 153.480469 246.328125 L 153.375 246.339844 C 152.25 246.234375 151.132812 246.046875 150.046875 245.699219 C 148.578125 245.230469 147.210938 244.523438 145.757812 244.019531 C 143.9375 243.386719 142.21875 243.40625 140.332031 243.746094 C 136.640625 244.402344 134.519531 246.132812 132.097656 248.789062 L 132.070312 248.792969 C 132.078125 248.796875 132.082031 248.800781 132.085938 248.804688 C 132.082031 248.804688 132.078125 248.808594 132.074219 248.816406 L 132.101562 248.8125 C 135.058594 250.855469 137.515625 252.050781 141.257812 251.855469 C 143.171875 251.753906 144.851562 251.382812 146.480469 250.355469 " fill-opacity="1" fill-rule="nonzero"/><path fill="#ddb300" d="M 124.003906 236.707031 C 124.121094 235.164062 124.460938 233.660156 124.542969 232.113281 C 124.605469 230.96875 124.503906 229.839844 124.324219 228.714844 L 124.285156 228.617188 C 124.292969 228.632812 124.304688 228.648438 124.3125 228.664062 C 124.3125 228.644531 124.308594 228.625 124.308594 228.609375 L 124.34375 228.710938 C 124.960938 229.664062 125.640625 230.566406 126.457031 231.371094 C 127.550781 232.460938 128.808594 233.347656 129.929688 234.40625 C 131.332031 235.730469 132.109375 237.269531 132.6875 239.101562 C 133.820312 242.691406 133.285156 245.382812 132.0625 248.769531 L 132.070312 248.792969 C 132.066406 248.789062 132.0625 248.789062 132.054688 248.785156 C 132.054688 248.789062 132.050781 248.796875 132.050781 248.800781 L 132.039062 248.773438 C 128.867188 247.09375 126.667969 245.464844 125.105469 242.046875 C 124.304688 240.296875 123.851562 238.632812 124.003906 236.707031 " fill-opacity="1" fill-rule="nonzero"/><path fill="#ddb300" d="M 148.113281 262.09375 C 149.101562 260.90625 149.90625 259.59375 150.925781 258.429688 C 151.675781 257.566406 152.535156 256.832031 153.445312 256.15625 L 153.542969 256.109375 C 153.523438 256.117188 153.507812 256.121094 153.488281 256.121094 C 153.503906 256.113281 153.519531 256.101562 153.535156 256.089844 L 153.4375 256.136719 C 152.332031 256.382812 151.214844 256.554688 150.074219 256.558594 C 148.53125 256.566406 147.015625 256.320312 145.476562 256.289062 C 143.550781 256.257812 141.921875 256.808594 140.230469 257.714844 C 136.925781 259.488281 135.4375 261.785156 133.953125 265.066406 L 133.929688 265.078125 C 133.933594 265.078125 133.941406 265.082031 133.945312 265.082031 C 133.941406 265.089844 133.941406 265.09375 133.941406 265.097656 L 133.964844 265.085938 C 137.402344 266.109375 140.109375 266.488281 143.609375 265.140625 C 145.398438 264.449219 146.878906 263.574219 148.113281 262.09375 " fill-opacity="1" fill-rule="nonzero"/><path fill="#ddb300" d="M 122.535156 256.082031 C 122.175781 254.582031 122.035156 253.046875 121.636719 251.550781 C 121.34375 250.441406 120.898438 249.398438 120.382812 248.386719 L 120.316406 248.304688 C 120.328125 248.316406 120.34375 248.328125 120.355469 248.339844 C 120.347656 248.324219 120.339844 248.308594 120.332031 248.289062 L 120.398438 248.375 C 121.28125 249.089844 122.207031 249.738281 123.226562 250.25 C 124.605469 250.945312 126.074219 251.398438 127.464844 252.058594 C 129.207031 252.886719 130.417969 254.105469 131.535156 255.671875 C 133.714844 258.730469 134.03125 261.457031 133.914062 265.054688 L 133.929688 265.078125 C 133.921875 265.078125 133.917969 265.078125 133.910156 265.074219 C 133.910156 265.082031 133.910156 265.085938 133.910156 265.089844 L 133.894531 265.070312 C 130.359375 264.457031 127.765625 263.589844 125.226562 260.824219 C 123.929688 259.40625 122.988281 257.964844 122.535156 256.082031 " fill-opacity="1" fill-rule="nonzero"/><path fill="#ddb300" d="M 153.28125 272.75 C 153.855469 271.316406 154.21875 269.816406 154.824219 268.394531 C 155.273438 267.339844 155.867188 266.371094 156.523438 265.449219 L 156.601562 265.375 C 156.585938 265.386719 156.570312 265.394531 156.554688 265.402344 C 156.566406 265.390625 156.578125 265.375 156.585938 265.359375 L 156.507812 265.429688 C 155.535156 266.011719 154.523438 266.519531 153.441406 266.878906 C 151.976562 267.363281 150.457031 267.597656 148.984375 268.050781 C 147.144531 268.613281 145.765625 269.644531 144.433594 271.03125 C 141.835938 273.742188 141.128906 276.390625 140.730469 279.96875 L 140.710938 279.988281 C 140.714844 279.988281 140.71875 279.988281 140.726562 279.988281 C 140.726562 279.992188 140.726562 280 140.722656 280.003906 L 140.746094 279.988281 C 144.332031 279.894531 147.019531 279.414062 149.933594 277.046875 C 151.421875 275.835938 152.5625 274.542969 153.28125 272.75 " fill-opacity="1" fill-rule="nonzero"/><path fill="#ddb300" d="M 127.105469 274.96875 C 126.300781 273.652344 125.691406 272.234375 124.855469 270.933594 C 124.234375 269.972656 123.492188 269.121094 122.6875 268.320312 L 122.597656 268.261719 C 122.617188 268.265625 122.632812 268.273438 122.648438 268.28125 C 122.636719 268.265625 122.621094 268.253906 122.613281 268.242188 L 122.699219 268.300781 C 123.757812 268.707031 124.839844 269.039062 125.964844 269.210938 C 127.492188 269.441406 129.027344 269.417969 130.554688 269.613281 C 132.464844 269.859375 133.996094 270.640625 135.539062 271.785156 C 138.554688 274.019531 139.695312 276.511719 140.6875 279.972656 L 140.710938 279.988281 C 140.703125 279.988281 140.695312 279.992188 140.691406 279.992188 C 140.691406 279.996094 140.695312 280.003906 140.695312 280.007812 L 140.675781 279.992188 C 137.125 280.503906 134.390625 280.484375 131.121094 278.640625 C 129.453125 277.699219 128.113281 276.617188 127.105469 274.96875 " fill-opacity="1" fill-rule="nonzero"/><path fill="#ddb300" d="M 161.476562 281.28125 C 161.578125 279.738281 161.460938 278.199219 161.601562 276.660156 C 161.707031 275.519531 161.972656 274.414062 162.3125 273.332031 L 162.363281 273.238281 C 162.351562 273.253906 162.339844 273.265625 162.328125 273.277344 C 162.335938 273.261719 162.339844 273.246094 162.34375 273.226562 L 162.292969 273.320312 C 161.542969 274.171875 160.738281 274.96875 159.820312 275.648438 C 158.578125 276.566406 157.203125 277.257812 155.941406 278.144531 C 154.367188 279.253906 153.371094 280.660156 152.535156 282.390625 C 150.894531 285.773438 151.039062 288.515625 151.757812 292.042969 L 151.746094 292.066406 C 151.753906 292.066406 151.757812 292.0625 151.761719 292.0625 C 151.761719 292.066406 151.765625 292.070312 151.765625 292.078125 L 151.777344 292.054688 C 155.164062 290.851562 157.570312 289.558594 159.613281 286.40625 C 160.65625 284.789062 161.347656 283.210938 161.476562 281.28125 " fill-opacity="1" fill-rule="nonzero"/><path fill="#ddb300" d="M 137.261719 291.515625 C 136.09375 290.511719 135.078125 289.351562 133.882812 288.375 C 132.996094 287.652344 132.023438 287.070312 131.015625 286.558594 L 130.914062 286.53125 C 130.929688 286.53125 130.949219 286.53125 130.96875 286.535156 C 130.949219 286.527344 130.933594 286.519531 130.917969 286.511719 L 131.019531 286.535156 C 132.152344 286.597656 133.28125 286.574219 134.40625 286.390625 C 135.929688 286.136719 137.382812 285.636719 138.894531 285.347656 C 140.789062 284.992188 142.484375 285.261719 144.304688 285.871094 C 147.859375 287.058594 149.710938 289.074219 151.722656 292.058594 L 151.746094 292.066406 C 151.742188 292.070312 151.734375 292.074219 151.730469 292.074219 C 151.734375 292.078125 151.738281 292.082031 151.742188 292.089844 L 151.714844 292.082031 C 148.496094 293.667969 145.890625 294.5 142.214844 293.757812 C 140.335938 293.382812 138.726562 292.769531 137.261719 291.515625 " fill-opacity="1" fill-rule="nonzero"/><path fill="#ddb300" d="M 171.894531 286.851562 C 171.519531 285.355469 170.933594 283.925781 170.59375 282.417969 C 170.339844 281.300781 170.25 280.167969 170.242188 279.03125 L 170.265625 278.925781 C 170.257812 278.945312 170.25 278.960938 170.242188 278.980469 C 170.242188 278.960938 170.242188 278.941406 170.242188 278.921875 L 170.222656 279.027344 C 169.773438 280.074219 169.253906 281.078125 168.585938 282.007812 C 167.683594 283.265625 166.59375 284.351562 165.667969 285.585938 C 164.507812 287.128906 163.996094 288.777344 163.730469 290.683594 C 163.214844 294.410156 164.195312 296.972656 165.964844 300.101562 L 165.960938 300.128906 C 165.964844 300.125 165.972656 300.121094 165.972656 300.117188 C 165.976562 300.125 165.980469 300.128906 165.984375 300.132812 L 165.988281 300.109375 C 168.835938 297.914062 170.730469 295.9375 171.699219 292.304688 C 172.195312 290.445312 172.363281 288.726562 171.894531 286.851562 " fill-opacity="1" fill-rule="nonzero"/><path fill="#ddb300" d="M 152.015625 304.097656 C 150.59375 303.507812 149.273438 302.71875 147.835938 302.160156 C 146.769531 301.75 145.667969 301.496094 144.550781 301.324219 L 144.441406 301.328125 C 144.460938 301.324219 144.480469 301.320312 144.496094 301.3125 C 144.476562 301.3125 144.460938 301.308594 144.441406 301.304688 L 144.546875 301.300781 C 145.640625 301.007812 146.710938 300.632812 147.722656 300.109375 C 149.09375 299.398438 150.320312 298.46875 151.671875 297.726562 C 153.359375 296.800781 155.058594 296.527344 156.976562 296.542969 C 160.722656 296.574219 163.105469 297.917969 165.9375 300.128906 L 165.960938 300.128906 C 165.957031 300.132812 165.953125 300.136719 165.949219 300.140625 C 165.953125 300.144531 165.957031 300.148438 165.960938 300.152344 L 165.9375 300.152344 C 163.363281 302.664062 161.140625 304.257812 157.417969 304.695312 C 155.511719 304.921875 153.796875 304.835938 152.015625 304.097656 " fill-opacity="1" fill-rule="nonzero"/><path fill="#ddb300" d="M 183.519531 288.917969 C 182.699219 287.609375 181.703125 286.433594 180.914062 285.105469 C 180.332031 284.121094 179.898438 283.074219 179.539062 281.996094 L 179.53125 281.886719 C 179.527344 281.90625 179.527344 281.925781 179.523438 281.941406 C 179.519531 281.925781 179.511719 281.910156 179.507812 281.890625 L 179.519531 281.996094 C 179.414062 283.128906 179.226562 284.25 178.882812 285.339844 C 178.414062 286.816406 177.707031 288.1875 177.207031 289.648438 C 176.578125 291.472656 176.597656 293.199219 176.933594 295.09375 C 177.589844 298.796875 179.308594 300.933594 181.957031 303.359375 L 181.960938 303.386719 C 181.964844 303.382812 181.96875 303.378906 181.972656 303.371094 C 181.976562 303.375 181.980469 303.378906 181.984375 303.382812 L 181.980469 303.359375 C 184.015625 300.390625 185.207031 297.921875 185.011719 294.164062 C 184.910156 292.242188 184.542969 290.558594 183.519531 288.917969 " fill-opacity="1" fill-rule="nonzero"/><path fill="#ddb300" d="M 169.921875 311.484375 C 168.386719 311.367188 166.890625 311.027344 165.347656 310.945312 C 164.210938 310.882812 163.082031 310.984375 161.964844 311.167969 L 161.867188 311.203125 C 161.882812 311.195312 161.898438 311.183594 161.914062 311.171875 C 161.894531 311.175781 161.875 311.179688 161.859375 311.183594 L 161.957031 311.144531 C 162.90625 310.527344 163.808594 309.839844 164.609375 309.027344 C 165.695312 307.925781 166.578125 306.660156 167.632812 305.535156 C 168.953125 304.128906 170.484375 303.347656 172.3125 302.765625 C 175.886719 301.628906 178.5625 302.167969 181.9375 303.394531 L 181.960938 303.386719 C 181.957031 303.390625 181.957031 303.398438 181.953125 303.402344 C 181.957031 303.402344 181.964844 303.40625 181.96875 303.40625 L 181.945312 303.417969 C 180.269531 306.601562 178.648438 308.808594 175.242188 310.378906 C 173.5 311.1875 171.839844 311.636719 169.921875 311.484375 " fill-opacity="1" fill-rule="nonzero"/><path fill="#ddb300" d="M 214.503906 220.644531 C 213.078125 221.222656 211.582031 221.585938 210.164062 222.195312 C 209.117188 222.644531 208.152344 223.242188 207.230469 223.902344 L 207.160156 223.980469 C 207.167969 223.964844 207.179688 223.949219 207.1875 223.933594 C 207.171875 223.945312 207.15625 223.953125 207.144531 223.964844 L 207.214844 223.886719 C 207.792969 222.90625 208.300781 221.894531 208.65625 220.804688 C 209.140625 219.335938 209.375 217.808594 209.824219 216.332031 C 210.382812 214.484375 211.410156 213.101562 212.792969 211.765625 C 215.492188 209.15625 218.128906 208.445312 221.695312 208.042969 L 221.714844 208.023438 C 221.714844 208.03125 221.714844 208.035156 221.714844 208.039062 C 221.71875 208.039062 221.726562 208.039062 221.730469 208.039062 L 221.710938 208.058594 C 221.621094 211.660156 221.140625 214.359375 218.78125 217.285156 C 217.574219 218.78125 216.289062 219.925781 214.503906 220.644531 " fill-opacity="1" fill-rule="nonzero"/><path fill="#ddb300" d="M 216.714844 194.363281 C 215.402344 193.558594 213.992188 192.945312 212.695312 192.105469 C 211.738281 191.484375 210.886719 190.734375 210.089844 189.929688 L 210.035156 189.839844 C 210.039062 189.859375 210.046875 189.875 210.050781 189.890625 C 210.039062 189.878906 210.027344 189.863281 210.015625 189.851562 L 210.070312 189.941406 C 210.476562 191.003906 210.804688 192.089844 210.976562 193.222656 C 211.210938 194.753906 211.183594 196.292969 211.378906 197.828125 C 211.625 199.746094 212.402344 201.28125 213.542969 202.832031 C 215.769531 205.859375 218.253906 207.003906 221.699219 208 L 221.714844 208.023438 C 221.714844 208.019531 221.714844 208.011719 221.714844 208.003906 C 221.722656 208.007812 221.726562 208.007812 221.734375 208.011719 L 221.71875 207.988281 C 222.226562 204.421875 222.207031 201.679688 220.371094 198.398438 C 219.433594 196.722656 218.355469 195.375 216.714844 194.363281 " fill-opacity="1" fill-rule="nonzero"/><path fill="#ddb300" d="M 223 228.871094 C 221.464844 228.976562 219.933594 228.859375 218.398438 229 C 217.261719 229.105469 216.164062 229.367188 215.085938 229.710938 L 214.992188 229.765625 C 215.003906 229.753906 215.015625 229.742188 215.03125 229.726562 C 215.015625 229.734375 214.996094 229.738281 214.980469 229.746094 L 215.070312 229.691406 C 215.921875 228.941406 216.714844 228.132812 217.390625 227.210938 C 218.304688 225.960938 218.996094 224.585938 219.875 223.316406 C 220.980469 221.734375 222.382812 220.734375 224.105469 219.894531 C 227.476562 218.25 230.207031 218.394531 233.722656 219.117188 L 233.746094 219.105469 C 233.742188 219.109375 233.742188 219.117188 233.738281 219.121094 C 233.746094 219.121094 233.75 219.121094 233.753906 219.125 L 233.730469 219.136719 C 232.535156 222.53125 231.25 224.953125 228.105469 227.003906 C 226.496094 228.050781 224.921875 228.742188 223 228.871094 " fill-opacity="1" fill-rule="nonzero"/><path fill="#ddb300" d="M 233.195312 204.566406 C 232.195312 203.386719 231.039062 202.371094 230.066406 201.167969 C 229.347656 200.28125 228.769531 199.304688 228.257812 198.289062 L 228.230469 198.1875 C 228.230469 198.207031 228.234375 198.226562 228.234375 198.242188 C 228.226562 198.226562 228.21875 198.210938 228.207031 198.195312 L 228.238281 198.296875 C 228.296875 199.429688 228.273438 200.566406 228.089844 201.695312 C 227.835938 203.222656 227.339844 204.683594 227.054688 206.203125 C 226.695312 208.101562 226.964844 209.804688 227.570312 211.632812 C 228.757812 215.199219 230.765625 217.0625 233.738281 219.078125 L 233.746094 219.105469 C 233.746094 219.101562 233.75 219.09375 233.75 219.089844 C 233.757812 219.089844 233.761719 219.097656 233.765625 219.097656 L 233.761719 219.074219 C 235.339844 215.839844 236.164062 213.226562 235.429688 209.535156 C 235.054688 207.648438 234.445312 206.035156 233.195312 204.566406 " fill-opacity="1" fill-rule="nonzero"/><path fill="#ddb300" d="M 228.550781 239.332031 C 227.058594 238.957031 225.636719 238.371094 224.132812 238.027344 C 223.019531 237.773438 221.894531 237.683594 220.761719 237.675781 L 220.65625 237.695312 C 220.675781 237.691406 220.691406 237.679688 220.707031 237.671875 C 220.691406 237.675781 220.671875 237.671875 220.652344 237.671875 L 220.757812 237.652344 C 221.796875 237.203125 222.800781 236.679688 223.726562 236.011719 C 224.980469 235.109375 226.0625 234.011719 227.289062 233.082031 C 228.824219 231.917969 230.464844 231.402344 232.363281 231.136719 C 236.078125 230.621094 238.628906 231.601562 241.75 233.382812 L 241.773438 233.375 C 241.769531 233.382812 241.769531 233.386719 241.765625 233.390625 C 241.769531 233.390625 241.773438 233.398438 241.777344 233.398438 L 241.753906 233.402344 C 239.566406 236.261719 237.601562 238.164062 233.980469 239.136719 C 232.128906 239.636719 230.417969 239.804688 228.550781 239.332031 " fill-opacity="1" fill-rule="nonzero"/><path fill="#ddb300" d="M 245.726562 219.375 C 245.140625 217.949219 244.355469 216.621094 243.796875 215.179688 C 243.386719 214.109375 243.136719 213 242.964844 211.878906 L 242.96875 211.773438 C 242.964844 211.789062 242.960938 211.808594 242.957031 211.824219 C 242.953125 211.808594 242.949219 211.789062 242.945312 211.773438 L 242.941406 211.878906 C 242.648438 212.976562 242.277344 214.050781 241.753906 215.066406 C 241.046875 216.441406 240.121094 217.675781 239.382812 219.027344 C 238.460938 220.726562 238.191406 222.429688 238.203125 224.351562 C 238.230469 228.117188 239.570312 230.507812 241.777344 233.347656 L 241.773438 233.375 C 241.777344 233.371094 241.78125 233.367188 241.785156 233.363281 C 241.789062 233.367188 241.792969 233.371094 241.796875 233.375 L 241.800781 233.351562 C 244.296875 230.765625 245.886719 228.535156 246.324219 224.796875 C 246.546875 222.886719 246.460938 221.164062 245.726562 219.375 " fill-opacity="1" fill-rule="nonzero"/><path fill="#ddb300" d="M 230.609375 251 C 229.304688 250.179688 228.136719 249.183594 226.8125 248.390625 C 225.832031 247.804688 224.785156 247.371094 223.710938 247.007812 L 223.605469 246.996094 C 223.625 246.996094 223.640625 246.992188 223.660156 246.992188 C 223.640625 246.988281 223.628906 246.980469 223.609375 246.972656 L 223.714844 246.988281 C 224.839844 246.882812 225.957031 246.695312 227.042969 246.347656 C 228.515625 245.878906 229.878906 245.167969 231.335938 244.664062 C 233.152344 244.035156 234.871094 244.054688 236.757812 244.390625 C 240.449219 245.050781 242.574219 246.777344 244.992188 249.4375 L 245.019531 249.4375 C 245.015625 249.445312 245.007812 249.445312 245.003906 249.449219 C 245.007812 249.453125 245.011719 249.457031 245.015625 249.460938 L 244.992188 249.460938 C 242.035156 251.5 239.578125 252.699219 235.832031 252.5 C 233.917969 252.402344 232.238281 252.03125 230.609375 251 " fill-opacity="1" fill-rule="nonzero"/><path fill="#ddb300" d="M 253.085938 237.351562 C 252.96875 235.8125 252.628906 234.304688 252.546875 232.761719 C 252.484375 231.617188 252.585938 230.484375 252.769531 229.363281 L 252.804688 229.265625 C 252.796875 229.28125 252.785156 229.296875 252.777344 229.3125 C 252.777344 229.292969 252.78125 229.273438 252.78125 229.257812 L 252.746094 229.355469 C 252.128906 230.308594 251.449219 231.214844 250.636719 232.019531 C 249.539062 233.109375 248.28125 233.992188 247.160156 235.054688 C 245.761719 236.378906 244.980469 237.914062 244.402344 239.75 C 243.269531 243.339844 243.804688 246.027344 245.027344 249.414062 L 245.019531 249.4375 C 245.023438 249.4375 245.027344 249.433594 245.035156 249.429688 C 245.039062 249.4375 245.039062 249.441406 245.039062 249.449219 L 245.050781 249.425781 C 248.222656 247.742188 250.421875 246.113281 251.984375 242.691406 C 252.785156 240.941406 253.238281 239.277344 253.085938 237.351562 " fill-opacity="1" fill-rule="nonzero"/><path fill="#ddb300" d="M 228.976562 262.738281 C 227.988281 261.554688 227.183594 260.242188 226.167969 259.074219 C 225.414062 258.214844 224.554688 257.476562 223.644531 256.800781 L 223.546875 256.757812 C 223.566406 256.761719 223.582031 256.765625 223.601562 256.769531 C 223.585938 256.761719 223.570312 256.746094 223.558594 256.738281 L 223.65625 256.78125 C 224.757812 257.03125 225.875 257.203125 227.019531 257.207031 C 228.558594 257.214844 230.074219 256.964844 231.617188 256.9375 C 233.539062 256.902344 235.167969 257.457031 236.859375 258.359375 C 240.164062 260.132812 241.652344 262.433594 243.136719 265.714844 L 243.160156 265.722656 C 243.15625 265.726562 243.152344 265.730469 243.144531 265.730469 C 243.144531 265.734375 243.148438 265.738281 243.152344 265.746094 L 243.128906 265.734375 C 239.6875 266.757812 236.980469 267.136719 233.480469 265.789062 C 231.691406 265.097656 230.210938 264.222656 228.976562 262.738281 " fill-opacity="1" fill-rule="nonzero"/><path fill="#ddb300" d="M 254.554688 256.730469 C 254.914062 255.230469 255.054688 253.695312 255.453125 252.195312 C 255.746094 251.089844 256.191406 250.046875 256.707031 249.035156 L 256.773438 248.953125 C 256.761719 248.964844 256.746094 248.976562 256.734375 248.988281 C 256.742188 248.972656 256.75 248.953125 256.757812 248.9375 L 256.691406 249.023438 C 255.8125 249.734375 254.882812 250.386719 253.863281 250.898438 C 252.484375 251.59375 251.019531 252.046875 249.625 252.707031 C 247.882812 253.53125 246.671875 254.753906 245.554688 256.320312 C 243.375 259.378906 243.054688 262.105469 243.175781 265.703125 L 243.160156 265.722656 C 243.167969 265.722656 243.171875 265.722656 243.179688 265.722656 C 243.179688 265.726562 243.179688 265.734375 243.179688 265.738281 L 243.195312 265.71875 C 246.730469 265.101562 249.324219 264.234375 251.863281 261.46875 C 253.164062 260.054688 254.105469 258.609375 254.554688 256.730469 " fill-opacity="1" fill-rule="nonzero"/><path fill="#ddb300" d="M 223.808594 273.398438 C 223.234375 271.960938 222.875 270.464844 222.265625 269.039062 C 221.816406 267.988281 221.226562 267.019531 220.566406 266.097656 L 220.488281 266.023438 C 220.503906 266.035156 220.519531 266.042969 220.535156 266.050781 C 220.523438 266.039062 220.515625 266.023438 220.503906 266.007812 L 220.582031 266.078125 C 221.554688 266.65625 222.566406 267.167969 223.648438 267.527344 C 225.113281 268.011719 226.632812 268.246094 228.105469 268.699219 C 229.945312 269.261719 231.324219 270.289062 232.65625 271.679688 C 235.253906 274.386719 235.960938 277.039062 236.363281 280.617188 L 236.382812 280.636719 C 236.375 280.636719 236.371094 280.636719 236.363281 280.636719 C 236.363281 280.640625 236.363281 280.644531 236.367188 280.652344 L 236.347656 280.636719 C 232.757812 280.542969 230.070312 280.058594 227.15625 277.691406 C 225.667969 276.480469 224.527344 275.191406 223.808594 273.398438 " fill-opacity="1" fill-rule="nonzero"/><path fill="#ddb300" d="M 249.984375 275.617188 C 250.789062 274.300781 251.398438 272.882812 252.238281 271.582031 C 252.855469 270.621094 253.597656 269.765625 254.402344 268.964844 L 254.492188 268.910156 C 254.472656 268.914062 254.457031 268.921875 254.441406 268.925781 C 254.453125 268.914062 254.46875 268.902344 254.480469 268.890625 L 254.390625 268.945312 C 253.332031 269.355469 252.25 269.6875 251.125 269.859375 C 249.597656 270.089844 248.0625 270.066406 246.535156 270.261719 C 244.625 270.507812 243.097656 271.289062 241.550781 272.433594 C 238.539062 274.667969 237.394531 277.160156 236.402344 280.621094 L 236.382812 280.636719 C 236.386719 280.636719 236.394531 280.636719 236.398438 280.636719 C 236.398438 280.644531 236.394531 280.648438 236.394531 280.65625 L 236.414062 280.640625 C 239.96875 281.152344 242.699219 281.132812 245.96875 279.289062 C 247.640625 278.347656 248.976562 277.265625 249.984375 275.617188 " fill-opacity="1" fill-rule="nonzero"/><path fill="#ddb300" d="M 215.613281 281.929688 C 215.511719 280.386719 215.628906 278.851562 215.488281 277.308594 C 215.382812 276.167969 215.121094 275.0625 214.777344 273.976562 L 214.726562 273.886719 C 214.738281 273.898438 214.75 273.914062 214.761719 273.925781 C 214.757812 273.910156 214.753906 273.890625 214.746094 273.875 L 214.796875 273.96875 C 215.546875 274.820312 216.351562 275.617188 217.269531 276.296875 C 218.511719 277.210938 219.886719 277.90625 221.148438 278.792969 C 222.726562 279.898438 223.71875 281.304688 224.558594 283.039062 C 226.195312 286.421875 226.050781 289.164062 225.332031 292.691406 L 225.34375 292.714844 C 225.335938 292.710938 225.332031 292.707031 225.328125 292.707031 C 225.328125 292.714844 225.324219 292.71875 225.324219 292.722656 L 225.3125 292.703125 C 221.929688 291.5 219.519531 290.207031 217.476562 287.050781 C 216.433594 285.4375 215.746094 283.855469 215.613281 281.929688 " fill-opacity="1" fill-rule="nonzero"/><path fill="#ddb300" d="M 239.828125 292.160156 C 241 291.160156 242.011719 290 243.207031 289.023438 C 244.09375 288.300781 245.0625 287.71875 246.074219 287.207031 L 246.179688 287.179688 C 246.160156 287.179688 246.140625 287.179688 246.121094 287.183594 C 246.140625 287.171875 246.15625 287.167969 246.171875 287.15625 L 246.070312 287.183594 C 244.9375 287.246094 243.808594 287.222656 242.683594 287.035156 C 241.160156 286.785156 239.707031 286.285156 238.195312 285.996094 C 236.304688 285.636719 234.609375 285.910156 232.789062 286.515625 C 229.230469 287.707031 227.378906 289.722656 225.367188 292.707031 L 225.34375 292.714844 C 225.351562 292.71875 225.355469 292.71875 225.359375 292.71875 C 225.355469 292.726562 225.351562 292.734375 225.351562 292.734375 L 225.375 292.730469 C 228.59375 294.316406 231.199219 295.144531 234.875 294.40625 C 236.753906 294.027344 238.363281 293.417969 239.828125 292.160156 " fill-opacity="1" fill-rule="nonzero"/><path fill="#ddb300" d="M 205.195312 287.5 C 205.570312 286.003906 206.15625 284.574219 206.5 283.066406 C 206.75 281.949219 206.839844 280.816406 206.847656 279.679688 L 206.824219 279.574219 C 206.832031 279.59375 206.839844 279.609375 206.847656 279.625 C 206.847656 279.605469 206.847656 279.589844 206.847656 279.570312 L 206.867188 279.675781 C 207.316406 280.71875 207.839844 281.726562 208.503906 282.65625 C 209.40625 283.914062 210.496094 285 211.425781 286.234375 C 212.582031 287.777344 213.09375 289.421875 213.359375 291.332031 C 213.875 295.058594 212.894531 297.617188 211.125 300.75 L 211.128906 300.777344 C 211.125 300.773438 211.121094 300.769531 211.117188 300.765625 C 211.113281 300.769531 211.109375 300.777344 211.105469 300.78125 L 211.101562 300.753906 C 208.253906 298.5625 206.359375 296.585938 205.390625 292.949219 C 204.894531 291.09375 204.726562 289.375 205.195312 287.5 " fill-opacity="1" fill-rule="nonzero"/><path fill="#ddb300" d="M 225.074219 304.742188 C 226.496094 304.15625 227.816406 303.367188 229.253906 302.808594 C 230.320312 302.394531 231.421875 302.144531 232.542969 301.972656 L 232.648438 301.976562 C 232.628906 301.972656 232.613281 301.96875 232.59375 301.960938 C 232.613281 301.957031 232.628906 301.957031 232.648438 301.953125 L 232.542969 301.949219 C 231.449219 301.652344 230.378906 301.28125 229.367188 300.757812 C 227.996094 300.042969 226.769531 299.117188 225.417969 298.375 C 223.730469 297.445312 222.035156 297.175781 220.117188 297.191406 C 216.367188 297.222656 213.988281 298.5625 211.15625 300.777344 L 211.128906 300.777344 C 211.132812 300.78125 211.136719 300.785156 211.144531 300.789062 C 211.136719 300.792969 211.132812 300.796875 211.128906 300.796875 L 211.15625 300.800781 C 213.726562 303.3125 215.953125 304.90625 219.675781 305.34375 C 221.578125 305.566406 223.292969 305.484375 225.074219 304.742188 " fill-opacity="1" fill-rule="nonzero"/><path fill="#ddb300" d="M 193.574219 289.570312 C 194.390625 288.257812 195.386719 287.082031 196.175781 285.753906 C 196.757812 284.769531 197.191406 283.71875 197.550781 282.640625 L 197.5625 282.535156 C 197.5625 282.554688 197.566406 282.570312 197.566406 282.589844 C 197.570312 282.570312 197.578125 282.554688 197.585938 282.539062 L 197.574219 282.644531 C 197.675781 283.777344 197.863281 284.894531 198.207031 285.988281 C 198.675781 287.464844 199.382812 288.832031 199.882812 290.296875 C 200.511719 292.121094 200.492188 293.847656 200.15625 295.742188 C 199.5 299.445312 197.78125 301.578125 195.132812 304.007812 L 195.128906 304.035156 C 195.125 304.027344 195.121094 304.023438 195.117188 304.019531 C 195.113281 304.023438 195.109375 304.027344 195.105469 304.03125 L 195.109375 304.003906 C 193.074219 301.035156 191.882812 298.570312 192.078125 294.8125 C 192.179688 292.886719 192.546875 291.203125 193.574219 289.570312 " fill-opacity="1" fill-rule="nonzero"/><path fill="#ddb300" d="M 207.167969 312.132812 C 208.703125 312.015625 210.203125 311.675781 211.742188 311.589844 C 212.878906 311.527344 214.007812 311.628906 215.125 311.8125 L 215.222656 311.851562 C 215.210938 311.839844 215.191406 311.832031 215.179688 311.824219 C 215.195312 311.824219 215.214844 311.828125 215.230469 311.828125 L 215.132812 311.792969 C 214.183594 311.171875 213.28125 310.488281 212.480469 309.671875 C 211.394531 308.570312 210.515625 307.308594 209.457031 306.183594 C 208.136719 304.777344 206.609375 303.996094 204.777344 303.414062 C 201.207031 302.277344 198.527344 302.816406 195.152344 304.042969 L 195.128906 304.035156 C 195.132812 304.039062 195.132812 304.042969 195.136719 304.050781 C 195.132812 304.050781 195.125 304.054688 195.121094 304.054688 L 195.144531 304.066406 C 196.820312 307.25 198.441406 309.457031 201.847656 311.027344 C 203.589844 311.832031 205.25 312.285156 207.167969 312.132812 " fill-opacity="1" fill-rule="nonzero"/><path fill="#ddb300" d="M 198.386719 315.875 C 198.066406 315.011719 194.519531 309.523438 190.09375 305.570312 C 187.839844 303.371094 185.308594 302.261719 183.28125 301.660156 C 182.878906 301.460938 182.449219 301.269531 182 301.097656 C 178.910156 299.984375 175.355469 300.035156 171.84375 299.339844 C 169.117188 298.59375 165.601562 297.640625 162.335938 296.230469 C 159.085938 294.902344 156.09375 291.917969 152.644531 289.195312 C 145.746094 283.761719 139.722656 275.808594 136.234375 265.832031 C 134.484375 260.902344 133.328125 255.566406 133.203125 250.097656 C 133.226562 244.730469 134.511719 239.0625 136.296875 233.738281 C 139.597656 222.652344 148.238281 214.378906 156.605469 206.90625 C 147.878906 213.726562 138.558594 221.882812 134.792969 233.183594 C 132.78125 238.664062 131.316406 244.253906 131.152344 250.109375 C 131.164062 255.867188 132.289062 261.449219 134.046875 266.601562 C 137.464844 276.9375 143.980469 285.578125 151.027344 291.105469 C 154.503906 293.839844 157.5 296.894531 161.320312 298.515625 C 165.035156 300.089844 168.207031 300.921875 171.324219 301.773438 C 175.304688 302.53125 178.625 302.476562 181.191406 303.394531 C 183.675781 304.308594 185.597656 305.996094 187.015625 307.527344 C 187.144531 307.671875 187.269531 307.8125 187.390625 307.957031 C 190.152344 312.78125 191.546875 318 191.828125 318.699219 C 192.375 320.125 194.347656 320.773438 196.222656 320.164062 C 198.097656 319.550781 199.074219 317.628906 198.386719 315.875 " fill-opacity="1" fill-rule="nonzero"/><path fill="#ddb300" d="M 242.074219 233.253906 C 238.320312 221.960938 229.046875 213.769531 220.351562 206.90625 C 228.683594 214.417969 237.277344 222.730469 240.566406 233.808594 C 242.355469 239.132812 243.628906 244.796875 243.695312 250.167969 C 243.625 255.640625 242.488281 260.976562 240.796875 265.925781 C 237.359375 275.898438 231.511719 284 224.671875 289.480469 C 221.296875 292.222656 218.199219 295.226562 215.074219 296.6875 C 211.847656 298.203125 208.386719 299.082031 205.597656 299.910156 C 202.152344 300.734375 198.609375 300.59375 195.519531 301.640625 C 194.96875 301.816406 194.460938 302.023438 193.976562 302.246094 C 191.953125 302.710938 188.90625 303.738281 186.308594 306.371094 C 182.191406 310.148438 178.917969 315.339844 178.621094 316.152344 C 177.992188 317.800781 178.929688 319.597656 180.695312 320.164062 C 182.460938 320.726562 184.3125 320.097656 184.816406 318.746094 C 185.042969 318.171875 186.027344 314.371094 187.945312 310.382812 C 188.59375 309.570312 189.339844 308.714844 190.222656 307.832031 C 191.765625 306.464844 193.726562 304.714844 196.261719 303.972656 C 198.851562 303.085938 202.207031 303.246094 206.203125 302.328125 C 209.210938 301.433594 212.488281 300.640625 216.148438 298.949219 C 219.910156 297.132812 222.828125 294.191406 226.308594 291.382812 C 233.328125 285.769531 239.625 277.015625 242.996094 266.679688 C 244.695312 261.507812 245.792969 255.925781 245.746094 250.164062 C 245.539062 244.324219 244.089844 238.730469 242.074219 233.253906 " fill-opacity="1" fill-rule="nonzero"/><path fill="#ffefab" d="M 205.652344 265.152344 C 205.652344 267.339844 205.570312 269.605469 205.492188 271.640625 C 199.878906 271.640625 193.328125 271.640625 188.023438 271.640625 C 182.953125 271.640625 177.335938 271.714844 170.707031 271.714844 C 170.707031 269.605469 170.707031 267.339844 170.863281 265.152344 L 181.78125 264.917969 C 182.015625 264.917969 182.171875 264.683594 182.171875 264.449219 C 182.171875 254.519531 182.171875 241.855469 182.171875 233.648438 C 178.425781 234.117188 174.839844 234.585938 170.160156 235.210938 C 169.769531 233.101562 169.378906 230.832031 169.144531 228.722656 C 177.257812 226.457031 194.105469 220.125 194.886719 220.125 C 195.042969 220.125 195.199219 220.203125 195.199219 220.511719 C 195.199219 232.867188 194.964844 251.078125 194.886719 264.917969 L 205.652344 265.152344 " fill-opacity="1" fill-rule="nonzero"/><path fill="#ffefab" d="M 161.4375 219.5 C 162.867188 220.078125 164.359375 220.441406 165.777344 221.050781 C 166.828125 221.503906 167.789062 222.09375 168.710938 222.757812 L 168.78125 222.835938 C 168.773438 222.816406 168.765625 222.804688 168.757812 222.789062 C 168.769531 222.796875 168.785156 222.808594 168.800781 222.816406 L 168.730469 222.742188 C 168.152344 221.761719 167.644531 220.746094 167.289062 219.660156 C 166.800781 218.1875 166.570312 216.664062 166.121094 215.1875 C 165.558594 213.339844 164.535156 211.953125 163.152344 210.617188 C 160.453125 208.011719 157.8125 207.300781 154.246094 206.898438 L 154.230469 206.878906 C 154.230469 206.882812 154.230469 206.890625 154.230469 206.894531 C 154.222656 206.894531 154.21875 206.894531 154.214844 206.894531 L 154.230469 206.914062 C 154.324219 210.511719 154.800781 213.214844 157.160156 216.140625 C 158.367188 217.636719 159.652344 218.78125 161.4375 219.5 " fill-opacity="1" fill-rule="nonzero"/><path fill="#ffefab" d="M 159.226562 193.222656 C 160.539062 192.410156 161.953125 191.800781 163.246094 190.960938 C 164.203125 190.339844 165.054688 189.59375 165.855469 188.785156 L 165.910156 188.695312 C 165.902344 188.710938 165.898438 188.730469 165.890625 188.746094 C 165.902344 188.734375 165.917969 188.71875 165.929688 188.707031 L 165.871094 188.796875 C 165.464844 189.859375 165.136719 190.945312 164.964844 192.078125 C 164.734375 193.605469 164.757812 195.148438 164.5625 196.683594 C 164.320312 198.597656 163.539062 200.136719 162.402344 201.6875 C 160.175781 204.714844 157.691406 205.859375 154.242188 206.855469 L 154.230469 206.878906 C 154.230469 206.871094 154.226562 206.867188 154.226562 206.859375 C 154.222656 206.863281 154.214844 206.863281 154.210938 206.867188 L 154.222656 206.84375 C 153.714844 203.277344 153.734375 200.535156 155.570312 197.253906 C 156.511719 195.578125 157.585938 194.230469 159.226562 193.222656 " fill-opacity="1" fill-rule="nonzero"/><path fill="#ffefab" d="M 152.941406 227.726562 C 154.476562 227.832031 156.007812 227.714844 157.546875 227.855469 C 158.679688 227.957031 159.78125 228.222656 160.859375 228.566406 L 160.953125 228.621094 C 160.9375 228.605469 160.925781 228.597656 160.914062 228.582031 C 160.929688 228.589844 160.945312 228.59375 160.964844 228.601562 L 160.871094 228.546875 C 160.023438 227.796875 159.226562 226.988281 158.550781 226.066406 C 157.636719 224.816406 156.949219 223.4375 156.066406 222.171875 C 154.964844 220.589844 153.5625 219.589844 151.835938 218.75 C 148.464844 217.105469 145.738281 217.25 142.222656 217.972656 L 142.199219 217.957031 C 142.203125 217.964844 142.203125 217.96875 142.203125 217.976562 C 142.199219 217.976562 142.195312 217.976562 142.1875 217.980469 L 142.210938 217.992188 C 143.410156 221.386719 144.695312 223.808594 147.839844 225.855469 C 149.445312 226.90625 151.019531 227.597656 152.941406 227.726562 " fill-opacity="1" fill-rule="nonzero"/><path fill="#ffefab" d="M 142.75 203.421875 C 143.75 202.242188 144.902344 201.222656 145.875 200.023438 C 146.59375 199.136719 147.171875 198.160156 147.683594 197.144531 L 147.710938 197.042969 C 147.710938 197.0625 147.710938 197.082031 147.710938 197.097656 C 147.71875 197.082031 147.726562 197.066406 147.734375 197.050781 L 147.707031 197.152344 C 147.648438 198.285156 147.667969 199.421875 147.855469 200.550781 C 148.105469 202.078125 148.605469 203.539062 148.890625 205.058594 C 149.246094 206.957031 148.976562 208.660156 148.371094 210.488281 C 147.1875 214.054688 145.179688 215.914062 142.207031 217.933594 L 142.199219 217.957031 C 142.195312 217.953125 142.195312 217.949219 142.191406 217.945312 C 142.1875 217.945312 142.183594 217.949219 142.179688 217.953125 L 142.183594 217.929688 C 140.601562 214.695312 139.777344 212.078125 140.511719 208.390625 C 140.890625 206.503906 141.5 204.886719 142.75 203.421875 " fill-opacity="1" fill-rule="nonzero"/><path fill="#ffefab" d="M 147.390625 238.1875 C 148.882812 237.808594 150.304688 237.222656 151.808594 236.878906 C 152.921875 236.628906 154.050781 236.539062 155.183594 236.53125 L 155.285156 236.550781 C 155.269531 236.542969 155.253906 236.535156 155.234375 236.527344 C 155.253906 236.53125 155.273438 236.527344 155.289062 236.527344 L 155.1875 236.507812 C 154.148438 236.054688 153.140625 235.535156 152.214844 234.867188 C 150.964844 233.964844 149.882812 232.867188 148.652344 231.9375 C 147.117188 230.769531 145.476562 230.257812 143.578125 229.992188 C 139.867188 229.476562 137.316406 230.457031 134.195312 232.238281 L 134.167969 232.230469 C 134.171875 232.238281 134.175781 232.242188 134.179688 232.242188 C 134.175781 232.246094 134.171875 232.25 134.164062 232.253906 L 134.191406 232.257812 C 136.375 235.117188 138.34375 237.019531 141.964844 237.996094 C 143.816406 238.492188 145.527344 238.660156 147.390625 238.1875 " fill-opacity="1" fill-rule="nonzero"/><path fill="#ffefab" d="M 130.21875 218.234375 C 130.804688 216.804688 131.589844 215.476562 132.144531 214.03125 C 132.554688 212.964844 132.808594 211.859375 132.980469 210.734375 L 132.972656 210.628906 C 132.976562 210.644531 132.984375 210.664062 132.988281 210.679688 C 132.992188 210.664062 132.992188 210.644531 132.996094 210.625 L 133.003906 210.730469 C 133.292969 211.832031 133.664062 212.90625 134.191406 213.917969 C 134.898438 215.296875 135.820312 216.527344 136.5625 217.882812 C 137.484375 219.578125 137.753906 221.285156 137.738281 223.207031 C 137.710938 226.972656 136.371094 229.363281 134.167969 232.203125 L 134.167969 232.230469 C 134.164062 232.226562 134.160156 232.222656 134.15625 232.21875 C 134.152344 232.222656 134.148438 232.226562 134.148438 232.230469 L 134.144531 232.207031 C 131.644531 229.621094 130.054688 227.390625 129.621094 223.652344 C 129.398438 221.742188 129.480469 220.019531 130.21875 218.234375 " fill-opacity="1" fill-rule="nonzero"/><path fill="#ffefab" d="M 145.332031 249.855469 C 146.636719 249.035156 147.808594 248.035156 149.132812 247.242188 C 150.113281 246.660156 151.15625 246.226562 152.230469 245.863281 L 152.335938 245.851562 C 152.316406 245.851562 152.300781 245.851562 152.28125 245.847656 C 152.300781 245.84375 152.316406 245.835938 152.335938 245.828125 L 152.230469 245.84375 C 151.101562 245.738281 149.984375 245.550781 148.898438 245.203125 C 147.429688 244.730469 146.066406 244.023438 144.609375 243.519531 C 142.789062 242.890625 141.070312 242.910156 139.183594 243.246094 C 135.496094 243.90625 133.371094 245.632812 130.949219 248.292969 L 130.925781 248.292969 C 130.929688 248.296875 130.933594 248.300781 130.9375 248.304688 C 130.933594 248.308594 130.929688 248.3125 130.925781 248.316406 L 130.953125 248.3125 C 133.910156 250.355469 136.367188 251.554688 140.109375 251.359375 C 142.023438 251.257812 143.703125 250.886719 145.332031 249.855469 " fill-opacity="1" fill-rule="nonzero"/><path fill="#ffefab" d="M 122.855469 236.207031 C 122.976562 234.664062 123.3125 233.160156 123.398438 231.617188 C 123.460938 230.472656 123.359375 229.339844 123.175781 228.21875 L 123.136719 228.121094 C 123.148438 228.136719 123.15625 228.152344 123.167969 228.164062 C 123.164062 228.148438 123.164062 228.128906 123.160156 228.113281 L 123.195312 228.210938 C 123.8125 229.164062 124.496094 230.070312 125.308594 230.875 C 126.402344 231.960938 127.664062 232.847656 128.78125 233.910156 C 130.183594 235.234375 130.964844 236.769531 131.542969 238.605469 C 132.675781 242.195312 132.136719 244.882812 130.914062 248.269531 L 130.925781 248.292969 C 130.917969 248.292969 130.914062 248.289062 130.910156 248.285156 C 130.90625 248.292969 130.90625 248.296875 130.902344 248.304688 L 130.890625 248.277344 C 127.722656 246.59375 125.523438 244.96875 123.957031 241.546875 C 123.15625 239.800781 122.707031 238.132812 122.855469 236.207031 " fill-opacity="1" fill-rule="nonzero"/><path fill="#ffefab" d="M 146.96875 261.59375 C 147.953125 260.410156 148.761719 259.09375 149.777344 257.929688 C 150.527344 257.070312 151.386719 256.332031 152.296875 255.660156 L 152.394531 255.613281 C 152.378906 255.617188 152.359375 255.621094 152.34375 255.625 C 152.355469 255.617188 152.371094 255.605469 152.386719 255.59375 L 152.289062 255.636719 C 151.183594 255.886719 150.066406 256.054688 148.925781 256.0625 C 147.382812 256.070312 145.867188 255.820312 144.328125 255.792969 C 142.402344 255.757812 140.777344 256.308594 139.082031 257.21875 C 135.777344 258.988281 134.289062 261.289062 132.808594 264.570312 L 132.78125 264.578125 C 132.789062 264.582031 132.792969 264.582031 132.796875 264.582031 C 132.796875 264.589844 132.792969 264.59375 132.792969 264.597656 L 132.816406 264.589844 C 136.257812 265.613281 138.960938 265.992188 142.460938 264.640625 C 144.25 263.953125 145.734375 263.078125 146.96875 261.59375 " fill-opacity="1" fill-rule="nonzero"/><path fill="#ffefab" d="M 121.390625 255.585938 C 121.027344 254.082031 120.886719 252.550781 120.488281 251.050781 C 120.195312 249.945312 119.753906 248.898438 119.234375 247.890625 L 119.167969 247.808594 C 119.183594 247.816406 119.195312 247.828125 119.210938 247.84375 C 119.203125 247.828125 119.195312 247.808594 119.183594 247.792969 L 119.253906 247.875 C 120.132812 248.589844 121.058594 249.242188 122.078125 249.753906 C 123.457031 250.449219 124.925781 250.902344 126.316406 251.5625 C 128.058594 252.386719 129.273438 253.605469 130.390625 255.171875 C 132.570312 258.234375 132.886719 260.957031 132.765625 264.558594 L 132.78125 264.578125 C 132.777344 264.578125 132.769531 264.578125 132.765625 264.578125 C 132.765625 264.582031 132.765625 264.589844 132.765625 264.59375 L 132.746094 264.574219 C 129.210938 263.957031 126.621094 263.089844 124.082031 260.324219 C 122.78125 258.910156 121.839844 257.464844 121.390625 255.585938 " fill-opacity="1" fill-rule="nonzero"/><path fill="#ffefab" d="M 152.132812 272.25 C 152.707031 270.820312 153.070312 269.320312 153.679688 267.894531 C 154.128906 266.84375 154.71875 265.875 155.378906 264.953125 L 155.457031 264.878906 C 155.441406 264.890625 155.425781 264.894531 155.410156 264.90625 C 155.417969 264.890625 155.429688 264.878906 155.441406 264.863281 L 155.363281 264.933594 C 154.386719 265.511719 153.375 266.023438 152.292969 266.382812 C 150.828125 266.867188 149.3125 267.101562 147.839844 267.550781 C 145.996094 268.117188 144.617188 269.144531 143.289062 270.53125 C 140.691406 273.242188 139.984375 275.894531 139.582031 279.472656 L 139.5625 279.492188 C 139.566406 279.492188 139.574219 279.492188 139.578125 279.492188 C 139.578125 279.496094 139.578125 279.5 139.578125 279.507812 L 139.597656 279.492188 C 143.183594 279.394531 145.875 278.914062 148.785156 276.546875 C 150.277344 275.335938 151.417969 274.046875 152.132812 272.25 " fill-opacity="1" fill-rule="nonzero"/><path fill="#ffefab" d="M 125.957031 274.472656 C 125.152344 273.15625 124.542969 271.738281 123.707031 270.4375 C 123.089844 269.476562 122.34375 268.621094 121.539062 267.820312 L 121.453125 267.765625 C 121.46875 267.769531 121.484375 267.777344 121.5 267.78125 C 121.488281 267.769531 121.476562 267.757812 121.464844 267.746094 L 121.550781 267.800781 C 122.609375 268.210938 123.691406 268.539062 124.820312 268.710938 C 126.34375 268.945312 127.882812 268.917969 129.410156 269.117188 C 131.316406 269.363281 132.847656 270.144531 134.390625 271.289062 C 137.40625 273.523438 138.546875 276.015625 139.539062 279.476562 L 139.5625 279.492188 C 139.554688 279.492188 139.550781 279.492188 139.546875 279.492188 C 139.546875 279.5 139.546875 279.503906 139.550781 279.507812 L 139.527344 279.496094 C 135.976562 280.007812 133.242188 279.984375 129.976562 278.144531 C 128.304688 277.203125 126.964844 276.121094 125.957031 274.472656 " fill-opacity="1" fill-rule="nonzero"/><path fill="#ffefab" d="M 160.328125 280.785156 C 160.429688 279.242188 160.316406 277.703125 160.457031 276.160156 C 160.558594 275.019531 160.824219 273.917969 161.164062 272.832031 L 161.21875 272.742188 C 161.207031 272.753906 161.191406 272.765625 161.183594 272.78125 C 161.1875 272.765625 161.191406 272.746094 161.195312 272.730469 L 161.144531 272.824219 C 160.398438 273.675781 159.59375 274.472656 158.671875 275.148438 C 157.429688 276.066406 156.058594 276.761719 154.796875 277.644531 C 153.21875 278.753906 152.226562 280.160156 151.386719 281.894531 C 149.75 285.277344 149.890625 288.015625 150.613281 291.542969 L 150.597656 291.570312 C 150.605469 291.566406 150.609375 291.5625 150.617188 291.5625 C 150.617188 291.570312 150.617188 291.574219 150.617188 291.578125 L 150.632812 291.558594 C 154.015625 290.355469 156.425781 289.0625 158.464844 285.90625 C 159.511719 284.292969 160.199219 282.710938 160.328125 280.785156 " fill-opacity="1" fill-rule="nonzero"/><path fill="#ffefab" d="M 136.117188 291.015625 C 134.945312 290.015625 133.929688 288.855469 132.734375 287.875 C 131.851562 287.15625 130.878906 286.574219 129.867188 286.0625 L 129.765625 286.035156 C 129.785156 286.035156 129.800781 286.035156 129.820312 286.035156 C 129.804688 286.027344 129.789062 286.019531 129.773438 286.011719 L 129.875 286.039062 C 131.003906 286.097656 132.136719 286.078125 133.261719 285.890625 C 134.78125 285.636719 136.238281 285.136719 137.75 284.851562 C 139.640625 284.492188 141.335938 284.765625 143.15625 285.371094 C 146.710938 286.558594 148.566406 288.578125 150.574219 291.5625 L 150.597656 291.570312 C 150.59375 291.570312 150.589844 291.574219 150.582031 291.574219 C 150.585938 291.582031 150.589844 291.585938 150.59375 291.589844 L 150.570312 291.585938 C 147.347656 293.171875 144.742188 294 141.066406 293.261719 C 139.1875 292.882812 137.582031 292.273438 136.117188 291.015625 " fill-opacity="1" fill-rule="nonzero"/><path fill="#ffefab" d="M 170.746094 286.355469 C 170.371094 284.855469 169.789062 283.429688 169.445312 281.921875 C 169.195312 280.804688 169.105469 279.671875 169.097656 278.535156 L 169.117188 278.429688 C 169.109375 278.445312 169.105469 278.464844 169.09375 278.480469 C 169.097656 278.460938 169.09375 278.445312 169.09375 278.425781 L 169.074219 278.53125 C 168.625 279.574219 168.105469 280.582031 167.441406 281.511719 C 166.539062 282.769531 165.449219 283.855469 164.519531 285.089844 C 163.359375 286.632812 162.847656 288.277344 162.582031 290.183594 C 162.070312 293.910156 163.046875 296.472656 164.820312 299.605469 L 164.8125 299.632812 C 164.816406 299.628906 164.824219 299.625 164.828125 299.621094 C 164.832031 299.628906 164.832031 299.628906 164.835938 299.636719 L 164.84375 299.609375 C 167.6875 297.417969 169.582031 295.441406 170.554688 291.804688 C 171.050781 289.949219 171.21875 288.230469 170.746094 286.355469 " fill-opacity="1" fill-rule="nonzero"/><path fill="#ffefab" d="M 150.871094 303.597656 C 149.445312 303.011719 148.128906 302.222656 146.6875 301.664062 C 145.625 301.25 144.519531 301 143.402344 300.828125 L 143.296875 300.832031 C 143.3125 300.828125 143.332031 300.820312 143.351562 300.816406 C 143.332031 300.8125 143.3125 300.8125 143.296875 300.808594 L 143.402344 300.800781 C 144.496094 300.507812 145.566406 300.136719 146.578125 299.613281 C 147.945312 298.898438 149.175781 297.972656 150.523438 297.230469 C 152.214844 296.300781 153.910156 296.03125 155.828125 296.046875 C 159.574219 296.074219 161.957031 297.417969 164.789062 299.632812 L 164.8125 299.632812 C 164.808594 299.636719 164.804688 299.640625 164.800781 299.644531 C 164.804688 299.648438 164.8125 299.652344 164.816406 299.652344 L 164.789062 299.65625 C 162.214844 302.164062 159.992188 303.761719 156.269531 304.199219 C 154.367188 304.421875 152.648438 304.335938 150.871094 303.597656 " fill-opacity="1" fill-rule="nonzero"/><path fill="#ffefab" d="M 182.371094 288.421875 C 181.554688 287.113281 180.558594 285.9375 179.769531 284.609375 C 179.183594 283.625 178.753906 282.574219 178.394531 281.496094 L 178.382812 281.390625 C 178.378906 281.410156 178.378906 281.425781 178.375 281.445312 C 178.371094 281.429688 178.363281 281.410156 178.359375 281.394531 L 178.371094 281.5 C 178.265625 282.628906 178.082031 283.75 177.734375 284.84375 C 177.265625 286.316406 176.5625 287.6875 176.058594 289.148438 C 175.429688 290.976562 175.453125 292.703125 175.785156 294.597656 C 176.445312 298.300781 178.164062 300.433594 180.8125 302.863281 L 180.8125 302.890625 C 180.816406 302.882812 180.820312 302.878906 180.824219 302.875 C 180.828125 302.878906 180.832031 302.882812 180.835938 302.886719 L 180.835938 302.859375 C 182.867188 299.890625 184.0625 297.425781 183.863281 293.667969 C 183.765625 291.742188 183.394531 290.058594 182.371094 288.421875 " fill-opacity="1" fill-rule="nonzero"/><path fill="#ffefab" d="M 168.773438 310.988281 C 167.242188 310.871094 165.742188 310.53125 164.203125 310.445312 C 163.0625 310.382812 161.9375 310.484375 160.816406 310.667969 L 160.71875 310.707031 C 160.734375 310.695312 160.75 310.6875 160.765625 310.675781 C 160.746094 310.679688 160.730469 310.683594 160.710938 310.683594 L 160.8125 310.648438 C 161.761719 310.027344 162.664062 309.34375 163.464844 308.527344 C 164.546875 307.425781 165.429688 306.164062 166.484375 305.039062 C 167.804688 303.632812 169.335938 302.851562 171.164062 302.269531 C 174.738281 301.132812 177.417969 301.671875 180.792969 302.898438 L 180.8125 302.890625 C 180.8125 302.894531 180.808594 302.898438 180.804688 302.902344 C 180.8125 302.90625 180.816406 302.910156 180.824219 302.910156 L 180.796875 302.921875 C 179.121094 306.105469 177.5 308.3125 174.09375 309.882812 C 172.351562 310.6875 170.695312 311.140625 168.773438 310.988281 " fill-opacity="1" fill-rule="nonzero"/><path fill="#ffefab" d="M 213.355469 220.148438 C 211.929688 220.722656 210.4375 221.089844 209.015625 221.695312 C 207.972656 222.148438 207.003906 222.742188 206.085938 223.40625 L 206.011719 223.484375 C 206.023438 223.46875 206.03125 223.453125 206.039062 223.433594 C 206.027344 223.445312 206.011719 223.457031 205.996094 223.46875 L 206.070312 223.390625 C 206.644531 222.410156 207.152344 221.394531 207.507812 220.308594 C 207.992188 218.835938 208.226562 217.3125 208.675781 215.835938 C 209.238281 213.988281 210.265625 212.601562 211.644531 211.269531 C 214.34375 208.660156 216.984375 207.949219 220.550781 207.546875 L 220.566406 207.523438 C 220.566406 207.53125 220.566406 207.539062 220.566406 207.542969 C 220.574219 207.542969 220.578125 207.542969 220.582031 207.542969 L 220.566406 207.558594 C 220.472656 211.164062 219.992188 213.863281 217.636719 216.785156 C 216.429688 218.285156 215.140625 219.425781 213.355469 220.148438 " fill-opacity="1" fill-rule="nonzero"/><path fill="#ffefab" d="M 215.570312 193.867188 C 214.257812 193.058594 212.84375 192.449219 211.550781 191.609375 C 210.59375 190.984375 209.742188 190.238281 208.945312 189.433594 L 208.886719 189.34375 C 208.890625 189.359375 208.898438 189.378906 208.90625 189.394531 C 208.890625 189.378906 208.882812 189.367188 208.867188 189.355469 L 208.925781 189.445312 C 209.332031 190.503906 209.660156 191.59375 209.832031 192.722656 C 210.0625 194.253906 210.039062 195.796875 210.234375 197.332031 C 210.476562 199.246094 211.257812 200.785156 212.398438 202.332031 C 214.621094 205.359375 217.105469 206.503906 220.554688 207.503906 L 220.566406 207.523438 C 220.570312 207.519531 220.570312 207.511719 220.570312 207.507812 C 220.574219 207.511719 220.578125 207.511719 220.585938 207.511719 L 220.570312 207.492188 C 221.082031 203.925781 221.0625 201.179688 219.226562 197.902344 C 218.289062 196.222656 217.207031 194.878906 215.570312 193.867188 " fill-opacity="1" fill-rule="nonzero"/><path fill="#ffefab" d="M 221.855469 228.375 C 220.320312 228.480469 218.789062 228.363281 217.25 228.5 C 216.117188 228.605469 215.015625 228.871094 213.9375 229.214844 L 213.84375 229.265625 C 213.855469 229.257812 213.871094 229.242188 213.882812 229.230469 C 213.867188 229.238281 213.851562 229.242188 213.832031 229.246094 L 213.925781 229.195312 C 214.773438 228.441406 215.570312 227.636719 216.246094 226.714844 C 217.15625 225.464844 217.847656 224.085938 218.730469 222.820312 C 219.832031 221.234375 221.234375 220.238281 222.957031 219.398438 C 226.332031 217.753906 229.058594 217.894531 232.574219 218.621094 L 232.597656 218.605469 C 232.59375 218.613281 232.59375 218.617188 232.589844 218.625 C 232.597656 218.625 232.601562 218.625 232.609375 218.625 L 232.585938 218.640625 C 231.386719 222.035156 230.101562 224.457031 226.957031 226.507812 C 225.351562 227.554688 223.773438 228.242188 221.855469 228.375 " fill-opacity="1" fill-rule="nonzero"/><path fill="#ffefab" d="M 232.046875 204.066406 C 231.046875 202.890625 229.894531 201.871094 228.921875 200.671875 C 228.203125 199.785156 227.621094 198.808594 227.109375 197.792969 L 227.085938 197.691406 C 227.085938 197.707031 227.085938 197.726562 227.085938 197.746094 C 227.078125 197.730469 227.070312 197.710938 227.0625 197.695312 L 227.089844 197.796875 C 227.148438 198.933594 227.128906 200.070312 226.941406 201.199219 C 226.691406 202.726562 226.191406 204.1875 225.90625 205.703125 C 225.550781 207.605469 225.816406 209.304688 226.425781 211.132812 C 227.609375 214.703125 229.617188 216.5625 232.589844 218.582031 L 232.597656 218.605469 C 232.597656 218.601562 232.601562 218.597656 232.605469 218.589844 C 232.609375 218.59375 232.613281 218.597656 232.617188 218.601562 L 232.613281 218.574219 C 234.195312 215.339844 235.019531 212.726562 234.285156 209.035156 C 233.90625 207.148438 233.296875 205.535156 232.046875 204.066406 " fill-opacity="1" fill-rule="nonzero"/><path fill="#ffefab" d="M 227.40625 238.835938 C 225.910156 238.457031 224.488281 237.871094 222.988281 237.527344 C 221.875 237.273438 220.746094 237.1875 219.613281 237.175781 L 219.511719 237.199219 C 219.527344 237.191406 219.542969 237.183594 219.5625 237.175781 C 219.542969 237.175781 219.523438 237.175781 219.507812 237.175781 L 219.609375 237.15625 C 220.648438 236.703125 221.652344 236.183594 222.578125 235.511719 C 223.832031 234.609375 224.914062 233.511719 226.140625 232.582031 C 227.679688 231.417969 229.320312 230.90625 231.21875 230.640625 C 234.929688 230.121094 237.484375 231.105469 240.601562 232.882812 L 240.628906 232.878906 C 240.621094 232.882812 240.621094 232.886719 240.617188 232.890625 C 240.621094 232.894531 240.628906 232.898438 240.632812 232.902344 L 240.605469 232.90625 C 238.421875 235.765625 236.453125 237.667969 232.835938 238.640625 C 230.980469 239.140625 229.273438 239.308594 227.40625 238.835938 " fill-opacity="1" fill-rule="nonzero"/><path fill="#ffefab" d="M 244.582031 218.878906 C 243.992188 217.449219 243.207031 216.125 242.648438 214.679688 C 242.242188 213.613281 241.988281 212.503906 241.816406 211.378906 L 241.824219 211.277344 C 241.816406 211.292969 241.8125 211.308594 241.808594 211.328125 C 241.804688 211.308594 241.804688 211.292969 241.800781 211.273438 L 241.792969 211.378906 C 241.5 212.476562 241.132812 213.550781 240.605469 214.566406 C 239.898438 215.945312 238.976562 217.175781 238.234375 218.53125 C 237.3125 220.226562 237.042969 221.929688 237.054688 223.855469 C 237.085938 227.617188 238.421875 230.011719 240.628906 232.851562 L 240.628906 232.878906 C 240.632812 232.871094 240.636719 232.871094 240.640625 232.863281 C 240.644531 232.871094 240.648438 232.875 240.648438 232.878906 L 240.652344 232.851562 C 243.152344 230.269531 244.742188 228.039062 245.175781 224.300781 C 245.398438 222.386719 245.316406 220.664062 244.582031 218.878906 " fill-opacity="1" fill-rule="nonzero"/><path fill="#ffefab" d="M 229.464844 250.503906 C 228.160156 249.683594 226.988281 248.6875 225.664062 247.890625 C 224.683594 247.304688 223.640625 246.871094 222.5625 246.511719 L 222.460938 246.5 C 222.476562 246.5 222.496094 246.496094 222.511719 246.496094 C 222.496094 246.488281 222.480469 246.480469 222.460938 246.476562 L 222.570312 246.488281 C 223.695312 246.382812 224.8125 246.199219 225.894531 245.851562 C 227.367188 245.378906 228.734375 244.671875 230.1875 244.167969 C 232.007812 243.539062 233.726562 243.558594 235.613281 243.894531 C 239.304688 244.554688 241.425781 246.28125 243.84375 248.9375 L 243.875 248.941406 C 243.867188 248.945312 243.863281 248.949219 243.859375 248.953125 C 243.863281 248.957031 243.867188 248.960938 243.871094 248.964844 L 243.84375 248.960938 C 240.886719 251 238.429688 252.199219 234.683594 252.003906 C 232.773438 251.902344 231.09375 251.53125 229.464844 250.503906 " fill-opacity="1" fill-rule="nonzero"/><path fill="#ffefab" d="M 251.9375 236.855469 C 251.820312 235.3125 251.480469 233.808594 251.398438 232.261719 C 251.335938 231.121094 251.4375 229.988281 251.621094 228.867188 L 251.660156 228.769531 C 251.648438 228.78125 251.640625 228.796875 251.628906 228.8125 C 251.632812 228.796875 251.636719 228.777344 251.636719 228.757812 L 251.597656 228.859375 C 250.980469 229.8125 250.300781 230.71875 249.488281 231.523438 C 248.390625 232.609375 247.132812 233.496094 246.011719 234.554688 C 244.613281 235.882812 243.832031 237.417969 243.253906 239.253906 C 242.121094 242.839844 242.660156 245.53125 243.882812 248.917969 L 243.875 248.941406 C 243.878906 248.9375 243.882812 248.9375 243.886719 248.933594 C 243.890625 248.941406 243.890625 248.945312 243.894531 248.949219 L 243.902344 248.925781 C 247.074219 247.242188 249.273438 245.613281 250.839844 242.195312 C 251.640625 240.445312 252.089844 238.78125 251.9375 236.855469 " fill-opacity="1" fill-rule="nonzero"/><path fill="#ffefab" d="M 227.828125 262.242188 C 226.839844 261.058594 226.035156 259.742188 225.019531 258.578125 C 224.269531 257.71875 223.410156 256.980469 222.496094 256.304688 L 222.402344 256.261719 C 222.417969 256.265625 222.4375 256.269531 222.453125 256.273438 C 222.4375 256.261719 222.425781 256.25 222.410156 256.242188 L 222.507812 256.285156 C 223.609375 256.53125 224.730469 256.703125 225.871094 256.707031 C 227.414062 256.71875 228.929688 256.46875 230.46875 256.441406 C 232.390625 256.40625 234.019531 256.957031 235.710938 257.863281 C 239.019531 259.632812 240.507812 261.9375 241.988281 265.214844 L 242.015625 265.226562 C 242.007812 265.230469 242.003906 265.230469 241.996094 265.230469 C 242 265.238281 242.003906 265.242188 242.003906 265.25 L 241.980469 265.234375 C 238.539062 266.257812 235.835938 266.636719 232.335938 265.289062 C 230.542969 264.597656 229.0625 263.726562 227.828125 262.242188 " fill-opacity="1" fill-rule="nonzero"/><path fill="#ffefab" d="M 253.40625 256.234375 C 253.769531 254.730469 253.910156 253.195312 254.304688 251.699219 C 254.597656 250.59375 255.042969 249.546875 255.5625 248.535156 L 255.628906 248.457031 C 255.613281 248.46875 255.597656 248.476562 255.585938 248.488281 C 255.59375 248.472656 255.605469 248.457031 255.609375 248.441406 L 255.546875 248.523438 C 254.664062 249.238281 253.734375 249.890625 252.71875 250.402344 C 251.339844 251.097656 249.871094 251.550781 248.476562 252.210938 C 246.738281 253.035156 245.523438 254.253906 244.40625 255.820312 C 242.226562 258.882812 241.910156 261.605469 242.03125 265.207031 L 242.015625 265.226562 C 242.019531 265.226562 242.027344 265.222656 242.03125 265.222656 C 242.03125 265.230469 242.03125 265.234375 242.03125 265.242188 L 242.046875 265.21875 C 245.582031 264.605469 248.175781 263.738281 250.714844 260.972656 C 252.015625 259.554688 252.957031 258.113281 253.40625 256.234375 " fill-opacity="1" fill-rule="nonzero"/><path fill="#ffefab" d="M 222.664062 272.902344 C 222.089844 271.464844 221.726562 269.964844 221.117188 268.542969 C 220.667969 267.492188 220.078125 266.523438 219.417969 265.597656 L 219.339844 265.527344 C 219.355469 265.535156 219.371094 265.542969 219.386719 265.550781 C 219.375 265.539062 219.367188 265.523438 219.355469 265.511719 L 219.433594 265.582031 C 220.40625 266.160156 221.417969 266.671875 222.5 267.027344 C 223.96875 267.515625 225.484375 267.75 226.957031 268.199219 C 228.800781 268.761719 230.175781 269.792969 231.507812 271.179688 C 234.105469 273.890625 234.816406 276.539062 235.214844 280.121094 L 235.234375 280.136719 C 235.230469 280.136719 235.222656 280.136719 235.21875 280.136719 C 235.21875 280.144531 235.21875 280.148438 235.21875 280.152344 L 235.199219 280.136719 C 231.613281 280.042969 228.921875 279.5625 226.011719 277.195312 C 224.519531 275.984375 223.378906 274.691406 222.664062 272.902344 " fill-opacity="1" fill-rule="nonzero"/><path fill="#ffefab" d="M 248.839844 275.121094 C 249.644531 273.804688 250.25 272.386719 251.089844 271.085938 C 251.707031 270.125 252.453125 269.269531 253.257812 268.46875 L 253.34375 268.410156 C 253.328125 268.417969 253.3125 268.421875 253.292969 268.429688 C 253.308594 268.417969 253.320312 268.40625 253.332031 268.390625 L 253.246094 268.449219 C 252.183594 268.859375 251.105469 269.1875 249.976562 269.359375 C 248.453125 269.589844 246.914062 269.566406 245.390625 269.765625 C 243.480469 270.007812 241.949219 270.789062 240.40625 271.933594 C 237.390625 274.167969 236.25 276.660156 235.257812 280.125 L 235.234375 280.136719 C 235.242188 280.140625 235.246094 280.140625 235.25 280.140625 C 235.25 280.144531 235.25 280.152344 235.246094 280.15625 L 235.269531 280.144531 C 238.820312 280.65625 241.550781 280.632812 244.820312 278.792969 C 246.492188 277.847656 247.832031 276.769531 248.839844 275.121094 " fill-opacity="1" fill-rule="nonzero"/><path fill="#ffefab" d="M 214.46875 281.429688 C 214.363281 279.886719 214.480469 278.351562 214.339844 276.808594 C 214.238281 275.667969 213.972656 274.566406 213.628906 273.480469 L 213.578125 273.386719 C 213.589844 273.402344 213.601562 273.414062 213.617188 273.429688 C 213.609375 273.414062 213.605469 273.394531 213.597656 273.375 L 213.648438 273.46875 C 214.398438 274.324219 215.207031 275.121094 216.121094 275.796875 C 217.367188 276.714844 218.738281 277.410156 220 278.292969 C 221.578125 279.402344 222.574219 280.808594 223.410156 282.539062 C 225.046875 285.925781 224.902344 288.664062 224.183594 292.195312 L 224.199219 292.21875 C 224.191406 292.214844 224.1875 292.210938 224.179688 292.210938 C 224.179688 292.214844 224.175781 292.222656 224.175781 292.226562 L 224.164062 292.203125 C 220.78125 291 218.371094 289.710938 216.328125 286.554688 C 215.285156 284.941406 214.597656 283.359375 214.46875 281.429688 " fill-opacity="1" fill-rule="nonzero"/><path fill="#ffefab" d="M 238.679688 291.664062 C 239.851562 290.660156 240.863281 289.503906 242.0625 288.527344 C 242.945312 287.800781 243.917969 287.222656 244.925781 286.710938 L 245.03125 286.683594 C 245.011719 286.683594 244.996094 286.683594 244.976562 286.683594 C 244.992188 286.675781 245.007812 286.667969 245.023438 286.660156 L 244.921875 286.6875 C 243.792969 286.746094 242.660156 286.726562 241.535156 286.539062 C 240.015625 286.285156 238.5625 285.785156 237.046875 285.5 C 235.15625 285.140625 233.460938 285.410156 231.640625 286.019531 C 228.085938 287.207031 226.234375 289.226562 224.222656 292.210938 L 224.199219 292.21875 C 224.203125 292.21875 224.207031 292.222656 224.214844 292.222656 C 224.210938 292.226562 224.207031 292.234375 224.203125 292.238281 L 224.230469 292.234375 C 227.449219 293.820312 230.054688 294.648438 233.726562 293.910156 C 235.609375 293.53125 237.214844 292.917969 238.679688 291.664062 " fill-opacity="1" fill-rule="nonzero"/><path fill="#ffefab" d="M 204.046875 287.003906 C 204.425781 285.503906 205.007812 284.074219 205.351562 282.566406 C 205.601562 281.453125 205.691406 280.320312 205.699219 279.183594 L 205.679688 279.078125 C 205.683594 279.09375 205.695312 279.113281 205.699219 279.128906 C 205.699219 279.109375 205.699219 279.09375 205.699219 279.074219 L 205.722656 279.179688 C 206.171875 280.222656 206.691406 281.230469 207.355469 282.160156 C 208.257812 283.417969 209.347656 284.503906 210.277344 285.734375 C 211.433594 287.277344 211.949219 288.925781 212.210938 290.832031 C 212.726562 294.558594 211.746094 297.121094 209.976562 300.253906 L 209.984375 300.277344 C 209.976562 300.273438 209.972656 300.269531 209.96875 300.269531 C 209.964844 300.273438 209.964844 300.277344 209.960938 300.28125 L 209.957031 300.257812 C 207.109375 298.066406 205.210938 296.089844 204.242188 292.453125 C 203.746094 290.59375 203.578125 288.875 204.046875 287.003906 " fill-opacity="1" fill-rule="nonzero"/><path fill="#ffefab" d="M 223.925781 304.246094 C 225.347656 303.65625 226.667969 302.871094 228.109375 302.3125 C 229.171875 301.898438 230.273438 301.648438 231.394531 301.472656 L 231.5 301.480469 C 231.480469 301.472656 231.464844 301.46875 231.449219 301.464844 C 231.464844 301.460938 231.480469 301.457031 231.5 301.457031 L 231.394531 301.449219 C 230.300781 301.15625 229.234375 300.78125 228.21875 300.257812 C 226.851562 299.546875 225.621094 298.621094 224.269531 297.878906 C 222.582031 296.949219 220.886719 296.679688 218.96875 296.695312 C 215.222656 296.722656 212.839844 298.066406 210.007812 300.28125 L 209.984375 300.277344 C 209.988281 300.28125 209.992188 300.289062 209.996094 300.292969 C 209.992188 300.296875 209.984375 300.296875 209.980469 300.300781 L 210.007812 300.300781 C 212.582031 302.8125 214.804688 304.410156 218.527344 304.84375 C 220.429688 305.070312 222.144531 304.984375 223.925781 304.246094 " fill-opacity="1" fill-rule="nonzero"/><path fill="#ffefab" d="M 192.425781 289.070312 C 193.242188 287.761719 194.238281 286.585938 195.027344 285.253906 C 195.613281 284.273438 196.042969 283.222656 196.402344 282.144531 L 196.414062 282.039062 C 196.414062 282.058594 196.417969 282.074219 196.417969 282.09375 C 196.425781 282.074219 196.429688 282.058594 196.4375 282.042969 L 196.425781 282.144531 C 196.53125 283.277344 196.714844 284.398438 197.0625 285.488281 C 197.53125 286.964844 198.234375 288.335938 198.738281 289.796875 C 199.367188 291.621094 199.347656 293.347656 199.011719 295.242188 C 198.351562 298.949219 196.632812 301.078125 193.984375 303.511719 L 193.980469 303.539062 C 193.976562 303.53125 193.976562 303.527344 193.972656 303.523438 C 193.96875 303.527344 193.964844 303.53125 193.960938 303.535156 L 193.964844 303.507812 C 191.929688 300.539062 190.738281 298.074219 190.929688 294.316406 C 191.03125 292.390625 191.402344 290.707031 192.425781 289.070312 " fill-opacity="1" fill-rule="nonzero"/><path fill="#ffefab" d="M 206.023438 311.636719 C 207.558594 311.515625 209.054688 311.175781 210.597656 311.09375 C 211.734375 311.03125 212.859375 311.132812 213.980469 311.316406 L 214.078125 311.355469 C 214.0625 311.34375 214.046875 311.332031 214.03125 311.324219 C 214.050781 311.328125 214.070312 311.328125 214.085938 311.332031 L 213.988281 311.292969 C 213.035156 310.675781 212.132812 309.988281 211.332031 309.175781 C 210.25 308.074219 209.367188 306.808594 208.308594 305.6875 C 206.988281 304.277344 205.460938 303.496094 203.632812 302.914062 C 200.058594 301.777344 197.378906 302.316406 194.007812 303.546875 L 193.980469 303.539062 C 193.984375 303.542969 193.988281 303.546875 193.992188 303.554688 C 193.984375 303.554688 193.980469 303.558594 193.972656 303.558594 L 194 303.566406 C 195.671875 306.753906 197.296875 308.960938 200.703125 310.53125 C 202.445312 311.335938 204.101562 311.789062 206.023438 311.636719 " fill-opacity="1" fill-rule="nonzero"/><path fill="#ffefab" d="M 197.242188 315.378906 C 196.917969 314.515625 193.371094 309.027344 188.945312 305.070312 C 186.691406 302.875 184.164062 301.761719 182.136719 301.164062 C 181.730469 300.960938 181.304688 300.773438 180.851562 300.597656 C 177.761719 299.488281 174.207031 299.539062 170.699219 298.84375 C 167.972656 298.09375 164.457031 297.144531 161.191406 295.734375 C 157.941406 294.40625 154.945312 291.421875 151.496094 288.695312 C 144.597656 283.265625 138.578125 275.308594 135.089844 265.332031 C 133.335938 260.40625 132.179688 255.070312 132.054688 249.597656 C 132.078125 244.234375 133.367188 238.5625 135.148438 233.242188 C 138.449219 222.15625 147.089844 213.878906 155.457031 206.410156 C 146.734375 213.230469 137.410156 221.386719 133.644531 232.6875 C 131.632812 238.167969 130.167969 243.757812 130.003906 249.609375 C 130.019531 255.371094 131.140625 260.953125 132.898438 266.105469 C 136.320312 276.441406 142.835938 285.082031 149.878906 290.609375 C 153.359375 293.34375 156.351562 296.394531 160.171875 298.019531 C 163.886719 299.589844 167.0625 300.425781 170.175781 301.273438 C 174.160156 302.035156 177.476562 301.980469 180.042969 302.898438 C 182.527344 303.8125 184.449219 305.5 185.867188 307.03125 C 185.996094 307.171875 186.121094 307.316406 186.242188 307.457031 C 189.003906 312.285156 190.398438 317.503906 190.683594 318.203125 C 191.226562 319.625 193.203125 320.277344 195.074219 319.664062 C 196.949219 319.050781 197.925781 317.132812 197.242188 315.378906 " fill-opacity="1" fill-rule="nonzero"/><path fill="#ffefab" d="M 240.925781 232.757812 C 237.171875 221.464844 227.902344 213.273438 219.207031 206.410156 C 227.539062 213.921875 236.128906 222.230469 239.417969 233.3125 C 241.207031 238.636719 242.480469 244.300781 242.546875 249.671875 C 242.476562 255.140625 241.34375 260.480469 239.648438 265.425781 C 236.214844 275.402344 230.363281 283.5 223.523438 288.984375 C 220.148438 291.726562 217.050781 294.726562 213.925781 296.1875 C 210.703125 297.707031 207.238281 298.582031 204.449219 299.410156 C 201.007812 300.238281 197.460938 300.09375 194.371094 301.140625 C 193.824219 301.320312 193.3125 301.527344 192.832031 301.75 C 190.804688 302.214844 187.757812 303.242188 185.160156 305.875 C 181.042969 309.648438 177.773438 314.839844 177.472656 315.652344 C 176.847656 317.300781 177.78125 319.101562 179.546875 319.664062 C 181.3125 320.230469 183.167969 319.597656 183.671875 318.25 C 183.898438 317.675781 184.878906 313.875 186.800781 309.886719 C 187.445312 309.070312 188.195312 308.21875 189.074219 307.332031 C 190.617188 305.964844 192.578125 304.21875 195.113281 303.472656 C 197.703125 302.589844 201.058594 302.75 205.054688 301.832031 C 208.066406 300.933594 211.339844 300.144531 215.003906 298.453125 C 218.765625 296.632812 221.679688 293.695312 225.164062 290.882812 C 232.179688 285.273438 238.480469 276.519531 241.851562 266.179688 C 243.546875 261.007812 244.648438 255.425781 244.601562 249.667969 C 244.394531 243.824219 242.945312 238.234375 240.925781 232.757812 " fill-opacity="1" fill-rule="nonzero"/></svg>