<svg xmlns="http://www.w3.org/2000/svg" xmlns:xlink="http://www.w3.org/1999/xlink" width="500" zoomAndPan="magnify" viewBox="0 0 375 374.999991" height="500" preserveAspectRatio="xMidYMid meet" version="1.0"><defs><clipPath id="8c57857c64"><path d="M 170 37.5 L 270 37.5 L 270 158 L 170 158 Z M 170 37.5 " clip-rule="nonzero"/></clipPath><clipPath id="1389c5e845"><path d="M 101.011719 143.144531 L 274.160156 143.144531 L 274.160156 337.484375 L 101.011719 337.484375 Z M 101.011719 143.144531 " clip-rule="nonzero"/></clipPath><clipPath id="320ab36d65"><path d="M 105 37.5 L 206 37.5 L 206 158 L 105 158 Z M 105 37.5 " clip-rule="nonzero"/></clipPath></defs><g clip-path="url(#8c57857c64)"><path fill="#006dd3" d="M 269.671875 37.5 L 205.410156 157.796875 L 170.105469 157.851562 L 234.402344 37.5 L 269.671875 37.5 " fill-opacity="1" fill-rule="nonzero"/></g><g clip-path="url(#1389c5e845)"><path fill="#f29100" d="M 170.449219 156.820312 C 172.9375 153.664062 176.269531 152.941406 180.050781 152.941406 C 185.050781 152.941406 190.046875 152.941406 195.046875 152.941406 C 200.269531 152.941406 204.8125 154.863281 206.363281 160.300781 C 206.925781 162.289062 206.960938 164.585938 206.878906 166.871094 C 200.671875 165.460938 194.214844 164.714844 187.585938 164.714844 C 181.03125 164.714844 174.648438 165.445312 168.511719 166.824219 C 168.511719 166.449219 168.511719 166.070312 168.511719 165.695312 C 168.511719 162.578125 168.382812 159.445312 170.449219 156.820312 Z M 216.457031 169.644531 C 216.457031 167.871094 216.457031 166.097656 216.457031 164.324219 C 216.457031 159.707031 215.609375 155.300781 212.867188 151.457031 C 209.195312 146.308594 203.191406 143.160156 196.835938 143.160156 C 190.664062 143.160156 184.496094 143.160156 178.324219 143.160156 C 171.355469 143.160156 165.203125 146.882812 161.492188 152.660156 C 159.117188 156.351562 158.710938 160.640625 158.710938 164.898438 C 158.710938 166.480469 158.710938 168.0625 158.710938 169.644531 C 125.09375 181.507812 101.011719 213.496094 101.011719 251.101562 C 101.011719 298.8125 139.769531 337.484375 187.585938 337.484375 C 235.398438 337.484375 274.160156 298.8125 274.160156 251.101562 C 274.160156 213.496094 250.074219 181.507812 216.457031 169.644531 " fill-opacity="1" fill-rule="nonzero"/></g><path fill="#ffa722" d="M 261.363281 251.371094 C 261.363281 292.03125 228.332031 324.988281 187.585938 324.988281 C 146.835938 324.988281 113.804688 292.03125 113.804688 251.371094 C 113.804688 210.714844 146.835938 177.753906 187.585938 177.753906 C 228.332031 177.753906 261.363281 210.714844 261.363281 251.371094 " fill-opacity="1" fill-rule="nonzero"/><path fill="#ffffff" d="M 259.460938 251.371094 C 259.332031 276.269531 246.3125 299.457031 225.089844 312.5625 C 203.644531 325.808594 176.03125 326.410156 153.816406 314.699219 C 131.9375 303.164062 117.484375 280.5 115.851562 255.941406 C 114.199219 231.082031 126.109375 206.804688 146.484375 192.523438 C 167.097656 178.078125 194.613281 175.738281 217.488281 186.128906 C 239.890625 196.304688 255.785156 217.976562 258.90625 242.308594 C 259.289062 245.316406 259.441406 248.34375 259.460938 251.371094 C 259.46875 253.824219 263.28125 253.824219 263.269531 251.371094 C 263.144531 227.074219 251.402344 204.394531 231.773438 190.066406 C 211.925781 175.578125 185.34375 172.085938 162.246094 180.195312 C 139.699219 188.109375 122.113281 206.828125 115.113281 229.542969 C 107.875 253.011719 113.15625 278.855469 128.160156 298.125 C 143.105469 317.320312 167.1875 327.90625 191.40625 326.792969 C 215.535156 325.6875 237.808594 312.554688 251.050781 292.527344 C 259.089844 280.375 263.195312 265.886719 263.269531 251.371094 C 263.28125 248.917969 259.46875 248.921875 259.460938 251.371094 " fill-opacity="1" fill-rule="nonzero"/><g clip-path="url(#320ab36d65)"><path fill="#0095ff" d="M 105.953125 37.5 L 170.214844 157.796875 L 205.519531 157.851562 L 141.222656 37.5 L 105.953125 37.5 " fill-opacity="1" fill-rule="nonzero"/></g><path fill="#e58200" d="M 203.996094 299.011719 C 204.671875 297.964844 205.40625 296.9375 206.179688 295.960938 C 206.597656 295.429688 207.050781 294.933594 207.511719 294.445312 C 207.5625 295.042969 207.722656 295.628906 208.003906 296.171875 C 208.246094 296.648438 208.597656 297.066406 209.011719 297.414062 C 209.253906 297.613281 209.519531 297.78125 209.796875 297.9375 C 207.722656 298.757812 205.582031 299.460938 203.394531 300.035156 C 203.589844 299.6875 203.78125 299.339844 203.996094 299.011719 Z M 218.691406 291.796875 C 218.984375 290.570312 219.335938 289.347656 219.738281 288.15625 C 220.121094 287.019531 220.628906 285.9375 221.132812 284.851562 C 221.132812 285.085938 221.140625 285.320312 221.164062 285.546875 C 221.277344 286.601562 221.746094 287.566406 222.511719 288.273438 C 222.878906 288.617188 223.324219 288.875 223.800781 289.042969 C 224.058594 289.132812 224.328125 289.191406 224.597656 289.238281 C 222.636719 290.839844 220.542969 292.324219 218.34375 293.667969 C 218.464844 293.042969 218.546875 292.40625 218.691406 291.796875 Z M 155.421875 288.144531 C 156.1875 287.4375 156.65625 286.472656 156.769531 285.421875 C 156.796875 285.191406 156.800781 284.957031 156.804688 284.722656 C 157.308594 285.8125 157.8125 286.890625 158.195312 288.03125 C 158.601562 289.21875 158.949219 290.445312 159.242188 291.667969 C 159.378906 292.246094 159.460938 292.847656 159.574219 293.4375 C 157.4375 292.113281 155.410156 290.65625 153.503906 289.082031 C 153.71875 289.042969 153.929688 288.988281 154.132812 288.914062 C 154.609375 288.746094 155.054688 288.492188 155.421875 288.144531 Z M 169.933594 296.042969 C 170.261719 295.402344 170.429688 294.703125 170.4375 293.992188 C 171.011719 294.582031 171.574219 295.183594 172.085938 295.832031 C 172.855469 296.808594 173.59375 297.835938 174.273438 298.886719 C 174.511719 299.257812 174.730469 299.652344 174.949219 300.046875 C 172.621094 299.4375 170.351562 298.6875 168.15625 297.800781 C 168.425781 297.648438 168.6875 297.480469 168.921875 297.285156 C 169.335938 296.9375 169.6875 296.523438 169.933594 296.042969 Z M 254.003906 250.917969 C 254.265625 250.0625 255.082031 248.21875 255.933594 247.84375 C 254.625 248.417969 253.339844 249.039062 251.976562 249.472656 C 250.777344 249.851562 249.546875 250.179688 248.316406 250.441406 C 247.316406 250.65625 246.253906 250.6875 245.292969 251.023438 C 245.269531 248.261719 245.027344 245.546875 244.582031 242.914062 C 245.28125 242.875 245.964844 242.65625 246.574219 242.269531 C 248.414062 241.109375 249.738281 238.953125 250.675781 237.003906 C 250.128906 237.359375 249.167969 237.546875 248.484375 237.644531 C 247.835938 237.738281 246.121094 237.296875 245.824219 237.800781 C 246.347656 236.914062 247.429688 236.34375 248.003906 235.488281 C 249.164062 233.769531 249.601562 231.960938 249.523438 229.875 C 249.488281 229.035156 249.636719 227.132812 250.269531 226.519531 C 249.292969 227.464844 248.347656 228.4375 247.277344 229.277344 C 246.335938 230.011719 245.347656 230.707031 244.34375 231.351562 C 243.519531 231.878906 242.578125 232.265625 241.828125 232.890625 C 240.730469 230.035156 239.40625 227.347656 237.910156 224.882812 C 238.65625 224.632812 239.316406 224.164062 239.808594 223.519531 C 241.070312 221.890625 241.566406 219.546875 241.789062 217.523438 C 241.417969 218.015625 240.628906 218.5 240.058594 218.8125 C 239.515625 219.109375 237.867188 219.292969 237.765625 219.832031 C 237.945312 218.882812 238.726562 218.015625 238.96875 217.070312 C 239.453125 215.175781 239.277344 213.433594 238.5625 211.625 C 238.273438 210.894531 237.816406 209.171875 238.183594 208.417969 C 237.613281 209.574219 237.085938 210.75 236.402344 211.839844 C 235.796875 212.800781 235.144531 213.746094 234.460938 214.644531 C 233.742188 215.582031 232.789062 216.378906 232.398438 217.523438 C 230.105469 214.929688 227.699219 212.695312 225.253906 210.769531 C 225.394531 210.714844 225.53125 210.652344 225.660156 210.574219 C 226.453125 210.105469 227.039062 209.355469 227.328125 208.457031 C 227.929688 206.613281 227.644531 204.394531 227.214844 202.542969 C 227.042969 203.101562 226.5 203.785156 226.09375 204.246094 C 225.710938 204.6875 224.324219 205.390625 224.398438 205.902344 C 224.265625 205.003906 224.679688 203.988281 224.601562 203.078125 C 224.441406 201.257812 223.753906 199.785156 222.566406 198.4375 C 222.085938 197.894531 221.152344 196.53125 221.242188 195.75 C 221.101562 196.953125 221 198.15625 220.738281 199.339844 C 220.503906 200.382812 220.222656 201.421875 219.898438 202.4375 C 219.554688 203.511719 218.953125 204.535156 218.980469 205.683594 C 218.984375 205.972656 219.019531 206.257812 219.066406 206.539062 C 215.90625 204.683594 212.792969 203.273438 209.882812 202.210938 C 210.101562 202.054688 210.3125 201.878906 210.484375 201.664062 C 211.058594 200.964844 211.351562 200.078125 211.328125 199.160156 C 211.285156 197.269531 210.3125 195.339844 209.324219 193.800781 C 209.34375 194.367188 209.070312 195.179688 208.851562 195.742188 C 208.640625 196.277344 207.597656 197.394531 207.832031 197.835938 C 207.421875 197.0625 207.472656 195.992188 207.109375 195.1875 C 206.378906 193.578125 205.28125 192.472656 203.761719 191.652344 C 203.148438 191.320312 201.859375 190.398438 201.695312 189.652344 C 201.949219 190.796875 202.242188 191.933594 202.382812 193.101562 C 202.503906 194.132812 202.582031 195.183594 202.613281 196.222656 C 202.644531 197.316406 202.421875 198.460938 202.8125 199.5 C 202.972656 199.921875 203.179688 200.320312 203.425781 200.6875 C 203.394531 200.695312 203.367188 200.703125 203.335938 200.714844 C 202.484375 200.972656 201.875 201.703125 201.167969 202.238281 C 200.5 202.742188 199.800781 203.21875 199.085938 203.660156 C 198.277344 204.160156 197.414062 204.53125 196.5625 204.941406 C 197.117188 204.675781 198.347656 205.082031 198.867188 205.324219 C 200.15625 205.933594 201.410156 206.117188 202.792969 205.796875 C 203.484375 205.632812 204.132812 205.054688 204.824219 204.945312 C 204.429688 205.007812 204.253906 206.277344 204.023438 206.6875 C 203.777344 207.121094 203.40625 207.71875 203.039062 207.992188 C 204.511719 207.878906 206.21875 207.558594 207.429688 206.632812 C 208.023438 206.179688 208.429688 205.535156 208.585938 204.792969 C 208.660156 204.433594 208.648438 204.054688 208.582031 203.6875 C 208.527344 203.410156 208.4375 203.136719 208.320312 202.875 C 208.324219 202.875 208.324219 202.871094 208.328125 202.871094 C 211.25 203.957031 214.410156 205.40625 217.617188 207.316406 C 217.226562 207.453125 216.84375 207.613281 216.453125 207.730469 C 215.632812 207.976562 214.792969 208.183594 213.957031 208.351562 C 213.003906 208.535156 212.042969 208.585938 211.078125 208.667969 C 211.707031 208.617188 212.761719 209.457031 213.179688 209.882812 C 214.21875 210.941406 215.367188 211.570312 216.816406 211.765625 C 217.539062 211.863281 218.363281 211.539062 219.070312 211.679688 C 218.667969 211.601562 218.0625 212.765625 217.699219 213.078125 C 217.316406 213.410156 216.753906 213.851562 216.308594 213.980469 C 217.769531 214.40625 219.527344 214.722656 221.019531 214.265625 C 221.742188 214.042969 222.359375 213.570312 222.757812 212.90625 C 222.953125 212.582031 223.070312 212.21875 223.132812 211.839844 C 223.167969 211.59375 223.175781 211.34375 223.164062 211.09375 C 225.917969 213.230469 228.621094 215.757812 231.175781 218.742188 C 230.5 218.644531 229.796875 218.714844 229.117188 218.664062 C 228.207031 218.601562 227.285156 218.492188 226.386719 218.339844 C 225.359375 218.167969 224.375 217.851562 223.375 217.570312 C 224.023438 217.753906 224.789062 219.003906 225.058594 219.589844 C 225.730469 221.046875 226.664062 222.121094 228.054688 222.863281 C 228.746094 223.234375 229.691406 223.222656 230.355469 223.636719 C 229.976562 223.398438 228.957031 224.34375 228.480469 224.519531 C 227.976562 224.707031 227.253906 224.9375 226.757812 224.898438 C 228.078125 225.882812 229.738281 226.867188 231.398438 226.976562 C 232.207031 227.027344 232.996094 226.785156 233.632812 226.265625 C 233.941406 226.015625 234.191406 225.691406 234.386719 225.332031 C 234.535156 225.054688 234.648438 224.761719 234.726562 224.453125 C 235.050781 224.640625 235.398438 224.785156 235.75 224.890625 C 237.613281 227.890625 239.207031 231.230469 240.4375 234.816406 C 240.429688 234.824219 240.425781 234.832031 240.421875 234.839844 C 240.398438 234.8125 240.375 234.785156 240.347656 234.757812 C 239.589844 234.011719 238.515625 233.800781 237.570312 233.367188 C 236.679688 232.957031 235.796875 232.503906 234.945312 232.011719 C 233.980469 231.449219 233.101562 230.761719 232.199219 230.101562 C 232.785156 230.53125 233.113281 232.070312 233.175781 232.761719 C 233.339844 234.476562 233.894531 235.90625 235.027344 237.175781 C 235.589844 237.808594 236.539062 238.148438 237.058594 238.816406 C 236.761719 238.4375 235.410156 238.996094 234.867188 238.996094 C 234.296875 238.992188 233.492188 238.953125 233.007812 238.726562 C 233.984375 240.210938 235.300781 241.820312 236.929688 242.558594 C 237.71875 242.914062 238.597656 242.96875 239.417969 242.691406 C 239.816406 242.554688 240.183594 242.328125 240.503906 242.039062 C 240.746094 241.816406 240.964844 241.5625 241.152344 241.28125 C 241.460938 241.65625 241.816406 241.992188 242.207031 242.253906 C 242.261719 242.296875 242.324219 242.328125 242.386719 242.367188 C 242.957031 245.585938 243.222656 248.929688 243.128906 252.335938 C 242.632812 251.308594 241.636719 250.691406 240.847656 249.90625 C 240.101562 249.164062 239.382812 248.375 238.703125 247.566406 C 237.9375 246.644531 237.300781 245.625 236.632812 244.628906 C 237.066406 245.273438 236.851562 246.933594 236.671875 247.652344 C 236.230469 249.421875 236.285156 251.058594 236.96875 252.75 C 237.308594 253.59375 238.136719 254.292969 238.421875 255.15625 C 238.261719 254.664062 236.710938 254.714844 236.171875 254.507812 C 235.605469 254.292969 234.8125 253.949219 234.410156 253.539062 C 234.863281 255.390625 235.613281 257.496094 236.980469 258.839844 C 237.640625 259.496094 238.5 259.878906 239.417969 259.910156 C 239.863281 259.921875 240.308594 259.835938 240.730469 259.667969 C 241.050781 259.539062 241.359375 259.367188 241.644531 259.160156 C 241.792969 259.574219 241.996094 259.96875 242.234375 260.332031 C 241.671875 263.164062 240.839844 266.003906 239.703125 268.828125 C 239.421875 267.902344 238.839844 267.085938 238.425781 266.214844 C 237.941406 265.191406 237.5 264.140625 237.113281 263.078125 C 236.671875 261.871094 236.394531 260.621094 236.078125 259.378906 C 236.285156 260.1875 235.492188 261.757812 235.0625 262.402344 C 234 264 233.484375 265.644531 233.570312 267.589844 C 233.613281 268.554688 234.191406 269.5625 234.175781 270.523438 C 234.1875 269.976562 232.628906 269.445312 232.164062 269.039062 C 231.671875 268.613281 231.007812 267.972656 230.75 267.414062 C 230.550781 269.421875 230.5625 271.800781 231.449219 273.652344 C 231.878906 274.550781 232.597656 275.253906 233.5 275.628906 C 233.9375 275.8125 234.414062 275.886719 234.890625 275.878906 C 235.257812 275.871094 235.621094 275.8125 235.980469 275.714844 C 235.980469 275.90625 236.003906 276.097656 236.019531 276.285156 C 234.570312 278.648438 232.894531 280.921875 231.015625 283.0625 C 230.945312 282.300781 230.757812 281.535156 230.679688 280.777344 C 230.554688 279.585938 230.484375 278.375 230.46875 277.175781 C 230.453125 275.816406 230.617188 274.472656 230.734375 273.117188 C 230.660156 274 229.324219 275.257812 228.671875 275.742188 C 227.0625 276.925781 225.972656 278.367188 225.382812 280.328125 C 225.089844 281.300781 225.3125 282.515625 224.960938 283.464844 C 225.160156 282.925781 223.800781 281.8125 223.480469 281.238281 C 223.144531 280.632812 222.707031 279.75 222.644531 279.097656 C 221.871094 280.753906 221.160156 282.734375 221.128906 284.636719 C 220.488281 285.308594 219.140625 285.875 218.457031 286.070312 C 216.453125 286.644531 214.875 287.664062 213.609375 289.378906 C 212.976562 290.234375 212.777344 291.519531 212.097656 292.324219 C 212.484375 291.867188 211.527344 290.265625 211.410156 289.574219 C 211.289062 288.847656 211.160156 287.8125 211.328125 287.144531 C 209.773438 288.710938 208.140625 290.738281 207.617188 292.972656 C 207.582031 293.136719 207.554688 293.300781 207.535156 293.464844 C 206.84375 293.570312 206.109375 293.582031 205.667969 293.542969 C 203.59375 293.378906 201.773438 293.773438 200.015625 294.941406 C 199.140625 295.519531 198.527344 296.65625 197.625 297.175781 C 198.140625 296.878906 197.765625 295.035156 197.886719 294.34375 C 198.011719 293.617188 198.234375 292.601562 198.609375 292.03125 C 196.632812 292.953125 194.429688 294.285156 193.203125 296.195312 C 192.601562 297.125 192.351562 298.234375 192.503906 299.335938 C 192.574219 299.875 192.769531 300.390625 193.042969 300.863281 C 193.210938 301.148438 193.414062 301.414062 193.632812 301.664062 C 192.097656 301.777344 190.546875 301.828125 188.980469 301.808594 C 187.484375 301.820312 186 301.765625 184.53125 301.65625 C 184.792969 301.375 185.027344 301.066406 185.222656 300.734375 C 185.496094 300.261719 185.691406 299.746094 185.761719 299.210938 C 185.914062 298.105469 185.660156 297 185.0625 296.070312 C 183.835938 294.15625 181.632812 292.824219 179.652344 291.90625 C 180.03125 292.472656 180.253906 293.492188 180.378906 294.214844 C 180.496094 294.902344 180.125 296.753906 180.640625 297.046875 C 179.738281 296.527344 179.125 295.390625 178.25 294.808594 C 176.492188 293.648438 174.671875 293.246094 172.597656 293.417969 C 172.085938 293.457031 171.171875 293.441406 170.394531 293.273438 C 170.375 293.128906 170.347656 292.988281 170.316406 292.84375 C 169.792969 290.613281 168.160156 288.582031 166.605469 287.015625 C 166.773438 287.683594 166.648438 288.71875 166.523438 289.445312 C 166.40625 290.136719 165.449219 291.738281 165.835938 292.199219 C 165.15625 291.390625 164.957031 290.105469 164.324219 289.25 C 163.058594 287.535156 161.480469 286.515625 159.476562 285.9375 C 158.796875 285.746094 157.445312 285.183594 156.804688 284.511719 C 156.773438 282.605469 156.0625 280.625 155.289062 278.96875 C 155.226562 279.621094 154.789062 280.503906 154.453125 281.109375 C 154.132812 281.6875 152.773438 282.796875 152.972656 283.335938 C 152.621094 282.386719 152.84375 281.171875 152.550781 280.199219 C 151.960938 278.242188 150.871094 276.800781 149.261719 275.609375 C 148.609375 275.132812 147.277344 273.871094 147.199219 272.992188 C 147.316406 274.34375 147.480469 275.691406 147.464844 277.046875 C 147.449219 278.246094 147.375 279.457031 147.253906 280.648438 C 147.183594 281.324219 147.03125 282.007812 146.945312 282.6875 C 145.058594 280.496094 143.382812 278.175781 141.941406 275.761719 C 141.945312 275.703125 141.953125 275.648438 141.953125 275.589844 C 142.308594 275.6875 142.679688 275.746094 143.042969 275.75 C 143.519531 275.757812 143.996094 275.679688 144.433594 275.5 C 145.335938 275.125 146.054688 274.421875 146.484375 273.523438 C 147.375 271.671875 147.382812 269.296875 147.1875 267.289062 C 146.929688 267.847656 146.261719 268.484375 145.773438 268.910156 C 145.308594 269.316406 143.746094 269.847656 143.757812 270.394531 C 143.742188 269.433594 144.320312 268.425781 144.363281 267.460938 C 144.449219 265.519531 143.933594 263.871094 142.871094 262.273438 C 142.445312 261.628906 141.648438 260.058594 141.855469 259.25 C 141.539062 260.496094 141.265625 261.746094 140.824219 262.949219 C 140.433594 264.011719 139.992188 265.066406 139.507812 266.085938 C 139.15625 266.832031 138.675781 267.535156 138.371094 268.300781 C 137.269531 265.480469 136.464844 262.640625 135.933594 259.820312 C 136.070312 259.566406 136.191406 259.304688 136.289062 259.03125 C 136.574219 259.238281 136.882812 259.410156 137.207031 259.539062 C 137.628906 259.707031 138.070312 259.796875 138.515625 259.78125 C 139.433594 259.75 140.292969 259.367188 140.953125 258.714844 C 142.324219 257.367188 143.070312 255.261719 143.527344 253.410156 C 143.121094 253.820312 142.332031 254.164062 141.761719 254.382812 C 141.222656 254.585938 139.675781 254.535156 139.511719 255.027344 C 139.796875 254.164062 140.625 253.464844 140.964844 252.625 C 141.648438 250.929688 141.703125 249.292969 141.257812 247.523438 C 141.082031 246.804688 140.867188 245.148438 141.300781 244.5 C 140.632812 245.496094 140 246.515625 139.230469 247.4375 C 138.554688 248.25 137.832031 249.035156 137.085938 249.78125 C 136.441406 250.421875 135.65625 250.957031 135.121094 251.695312 C 135.074219 248.363281 135.367188 245.097656 135.953125 241.949219 C 136.253906 241.714844 136.535156 241.453125 136.777344 241.15625 C 136.96875 241.433594 137.1875 241.691406 137.429688 241.910156 C 137.753906 242.199219 138.117188 242.429688 138.515625 242.5625 C 139.335938 242.839844 140.214844 242.785156 141.003906 242.429688 C 142.632812 241.695312 143.949219 240.082031 144.925781 238.597656 C 144.441406 238.824219 143.636719 238.867188 143.066406 238.867188 C 142.523438 238.867188 141.171875 238.308594 140.875 238.6875 C 141.394531 238.019531 142.347656 237.679688 142.910156 237.046875 C 144.039062 235.777344 144.597656 234.347656 144.753906 232.632812 C 144.820312 231.941406 145.148438 230.402344 145.734375 229.972656 C 144.832031 230.632812 143.953125 231.320312 142.988281 231.882812 C 142.136719 232.375 141.253906 232.828125 140.363281 233.238281 C 139.582031 233.597656 138.714844 233.808594 138.007812 234.289062 C 139.253906 230.78125 140.847656 227.515625 142.699219 224.578125 C 142.871094 224.503906 143.042969 224.417969 143.207031 224.324219 C 143.285156 224.632812 143.398438 224.929688 143.546875 225.203125 C 143.742188 225.566406 143.992188 225.886719 144.300781 226.140625 C 144.9375 226.65625 145.726562 226.898438 146.535156 226.847656 C 148.195312 226.738281 149.859375 225.757812 151.175781 224.773438 C 150.679688 224.8125 149.957031 224.582031 149.457031 224.390625 C 148.976562 224.214844 147.957031 223.269531 147.578125 223.507812 C 148.242188 223.09375 149.1875 223.109375 149.878906 222.738281 C 151.269531 221.992188 152.203125 220.921875 152.875 219.460938 C 153.144531 218.871094 153.910156 217.625 154.558594 217.441406 C 153.5625 217.722656 152.574219 218.042969 151.550781 218.210938 C 150.648438 218.363281 149.726562 218.472656 148.816406 218.535156 C 148.285156 218.574219 147.738281 218.542969 147.207031 218.570312 C 149.621094 215.769531 152.171875 213.378906 154.769531 211.335938 C 154.777344 211.460938 154.785156 211.585938 154.804688 211.710938 C 154.859375 212.089844 154.980469 212.457031 155.175781 212.777344 C 155.574219 213.441406 156.191406 213.917969 156.914062 214.136719 C 158.40625 214.59375 160.164062 214.28125 161.628906 213.851562 C 161.179688 213.722656 160.617188 213.28125 160.234375 212.949219 C 159.871094 212.632812 159.265625 211.472656 158.863281 211.554688 C 159.574219 211.410156 160.394531 211.734375 161.117188 211.636719 C 162.566406 211.445312 163.714844 210.8125 164.753906 209.753906 C 165.175781 209.328125 166.230469 208.488281 166.855469 208.542969 C 165.894531 208.457031 164.925781 208.410156 163.976562 208.222656 C 163.140625 208.058594 162.300781 207.847656 161.480469 207.605469 C 161.195312 207.519531 160.917969 207.410156 160.636719 207.304688 C 163.6875 205.492188 166.691406 204.097656 169.5 203.03125 C 169.441406 203.203125 169.386719 203.382812 169.351562 203.5625 C 169.285156 203.929688 169.277344 204.304688 169.351562 204.664062 C 169.5 205.40625 169.914062 206.054688 170.5 206.503906 C 171.71875 207.429688 173.425781 207.75 174.894531 207.863281 C 174.527344 207.589844 174.15625 206.996094 173.910156 206.558594 C 173.683594 206.148438 173.503906 204.878906 173.109375 204.8125 C 173.804688 204.929688 174.449219 205.507812 175.140625 205.667969 C 176.527344 205.988281 177.777344 205.804688 179.066406 205.199219 C 179.585938 204.953125 180.820312 204.546875 181.375 204.8125 C 180.519531 204.40625 179.65625 204.03125 178.847656 203.53125 C 178.136719 203.09375 177.4375 202.613281 176.765625 202.109375 C 176.058594 201.578125 175.449219 200.847656 174.597656 200.585938 C 174.566406 200.574219 174.539062 200.570312 174.507812 200.5625 C 174.753906 200.191406 174.960938 199.792969 175.121094 199.371094 C 175.511719 198.332031 175.289062 197.191406 175.324219 196.09375 C 175.351562 195.054688 175.429688 194.007812 175.550781 192.972656 C 175.691406 191.804688 175.984375 190.671875 176.242188 189.523438 C 176.074219 190.269531 174.785156 191.191406 174.171875 191.523438 C 172.65625 192.347656 171.554688 193.453125 170.824219 195.0625 C 170.457031 195.863281 170.515625 196.933594 170.101562 197.707031 C 170.335938 197.265625 169.292969 196.148438 169.085938 195.613281 C 168.863281 195.050781 168.589844 194.238281 168.609375 193.671875 C 167.621094 195.210938 166.648438 197.140625 166.605469 199.03125 C 166.582031 199.953125 166.875 200.835938 167.449219 201.539062 C 167.683594 201.824219 167.972656 202.046875 168.28125 202.234375 C 165.273438 203.339844 162.058594 204.808594 158.800781 206.757812 C 158.890625 206.363281 158.945312 205.964844 158.957031 205.554688 C 158.980469 204.410156 158.378906 203.382812 158.035156 202.3125 C 157.710938 201.296875 157.429688 200.253906 157.195312 199.214844 C 156.933594 198.03125 156.832031 196.824219 156.6875 195.621094 C 156.78125 196.402344 155.84375 197.765625 155.367188 198.3125 C 154.179688 199.660156 153.492188 201.128906 153.332031 202.953125 C 153.253906 203.859375 153.667969 204.875 153.535156 205.773438 C 153.613281 205.261719 152.222656 204.558594 151.839844 204.121094 C 151.433594 203.65625 150.894531 202.972656 150.71875 202.414062 C 150.289062 204.265625 150.003906 206.484375 150.605469 208.332031 C 150.894531 209.226562 151.480469 209.976562 152.273438 210.445312 C 152.503906 210.582031 152.75 210.679688 153.003906 210.753906 C 150.480469 212.742188 148 215.0625 145.636719 217.761719 C 145.605469 217.648438 145.585938 217.539062 145.550781 217.433594 C 145.167969 216.269531 144.199219 215.464844 143.472656 214.515625 C 142.789062 213.617188 142.136719 212.675781 141.53125 211.714844 C 140.847656 210.621094 140.320312 209.449219 139.75 208.289062 C 140.121094 209.042969 139.660156 210.765625 139.371094 211.5 C 138.652344 213.304688 138.480469 215.046875 138.96875 216.945312 C 139.210938 217.890625 139.988281 218.753906 140.171875 219.707031 C 140.066406 219.164062 138.417969 218.984375 137.875 218.6875 C 137.304688 218.371094 136.515625 217.886719 136.144531 217.394531 C 136.367188 219.421875 136.863281 221.761719 138.125 223.394531 C 138.695312 224.132812 139.476562 224.644531 140.363281 224.847656 C 138.839844 227.363281 137.492188 230.097656 136.382812 233.007812 C 135.597656 232.230469 134.519531 231.820312 133.589844 231.222656 C 132.585938 230.582031 131.597656 229.882812 130.65625 229.148438 C 129.585938 228.3125 128.640625 227.335938 127.664062 226.390625 C 128.296875 227.003906 128.445312 228.90625 128.414062 229.75 C 128.332031 231.832031 128.773438 233.640625 129.925781 235.359375 C 130.503906 236.214844 131.589844 236.789062 132.105469 237.675781 C 131.8125 237.167969 130.097656 237.613281 129.449219 237.519531 C 128.765625 237.417969 127.804688 237.230469 127.257812 236.875 C 128.195312 238.824219 129.519531 240.984375 131.355469 242.144531 C 132.070312 242.59375 132.882812 242.816406 133.703125 242.789062 C 133.246094 245.464844 132.992188 248.214844 132.96875 251.019531 C 131.925781 250.566406 130.730469 250.554688 129.617188 250.3125 C 128.386719 250.050781 127.15625 249.726562 125.957031 249.34375 C 124.59375 248.914062 123.308594 248.292969 122 247.714844 C 122.851562 248.09375 123.667969 249.9375 123.929688 250.789062 C 124.582031 252.898438 125.65625 254.539062 127.414062 255.820312 C 128.289062 256.460938 129.570312 256.621094 130.402344 257.3125 C 129.929688 256.917969 128.371094 258.003906 127.691406 258.15625 C 126.976562 258.3125 125.949219 258.488281 125.28125 258.335938 C 126.898438 259.929688 128.980469 261.589844 131.222656 262.054688 C 132.1875 262.257812 133.171875 262.136719 134.050781 261.707031 C 134.5625 264.101562 135.261719 266.5 136.167969 268.898438 C 134.863281 268.726562 133.5625 269.21875 132.265625 269.414062 C 130.949219 269.613281 129.613281 269.75 128.285156 269.824219 C 126.777344 269.902344 125.28125 269.765625 123.777344 269.6875 C 124.757812 269.738281 126.210938 271.269531 126.773438 272.019531 C 128.160156 273.875 129.804688 275.105469 132 275.71875 C 133.09375 276.027344 134.429688 275.707031 135.496094 276.085938 C 134.886719 275.871094 133.71875 277.53125 133.09375 277.9375 C 132.4375 278.363281 131.476562 278.921875 130.757812 279.023438 C 132.925781 280.003906 135.578125 280.871094 137.96875 280.5 C 139.132812 280.316406 140.179688 279.71875 140.933594 278.78125 C 140.960938 278.746094 140.988281 278.707031 141.015625 278.667969 C 142.34375 280.722656 143.832031 282.707031 145.476562 284.59375 C 145.386719 284.605469 145.296875 284.605469 145.207031 284.621094 C 143.71875 284.855469 142.535156 285.933594 141.230469 286.65625 C 139.996094 287.347656 138.71875 287.980469 137.425781 288.546875 C 135.957031 289.191406 134.425781 289.617188 132.90625 290.097656 C 133.894531 289.785156 135.875 290.757812 136.691406 291.292969 C 138.714844 292.613281 140.773438 293.21875 143.167969 293.007812 C 144.359375 292.90625 145.570312 292.09375 146.761719 292.066406 C 146.082031 292.078125 145.503906 294.167969 145.027344 294.800781 C 144.523438 295.46875 143.765625 296.382812 143.089844 296.75 C 145.582031 296.914062 148.511719 296.785156 150.753906 295.515625 C 151.84375 294.902344 152.675781 293.921875 153.09375 292.707031 C 153.179688 292.464844 153.238281 292.214844 153.277344 291.957031 C 155.164062 293.433594 157.15625 294.800781 159.242188 296.046875 C 159.027344 296.144531 158.804688 296.242188 158.597656 296.363281 C 157.207031 297.148438 156.414062 298.652344 155.375 299.859375 C 154.394531 301 153.351562 302.105469 152.269531 303.148438 C 151.042969 304.328125 149.675781 305.316406 148.339844 306.359375 C 149.207031 305.683594 151.503906 305.910156 152.5 306.132812 C 154.957031 306.6875 157.207031 306.519531 159.5 305.421875 C 160.644531 304.875 161.558594 303.617188 162.726562 303.148438 C 162.0625 303.414062 162.214844 305.691406 161.964844 306.5 C 161.699219 307.347656 161.265625 308.53125 160.726562 309.148438 C 163.246094 308.378906 166.101562 307.160156 167.878906 305.074219 C 168.742188 304.0625 169.222656 302.777344 169.214844 301.425781 C 169.214844 301.210938 169.195312 300.996094 169.164062 300.785156 C 171.355469 301.585938 173.609375 302.261719 175.914062 302.796875 C 175.667969 303.023438 175.433594 303.265625 175.21875 303.523438 C 174.171875 304.75 173.921875 306.449219 173.34375 307.945312 C 172.800781 309.367188 172.183594 310.777344 171.511719 312.136719 C 170.75 313.679688 169.792969 315.09375 168.882812 316.546875 C 169.472656 315.605469 171.703125 315.003906 172.714844 314.863281 C 175.210938 314.511719 177.265625 313.558594 179.058594 311.714844 C 179.953125 310.796875 180.398438 309.289062 181.339844 308.433594 C 180.800781 308.921875 181.703125 311.007812 181.730469 311.855469 C 181.761719 312.746094 181.746094 314.011719 181.441406 314.785156 C 183.558594 313.171875 185.835938 311.011719 186.820312 308.421875 C 187.296875 307.164062 187.320312 305.789062 186.867188 304.519531 C 186.832031 304.417969 186.785156 304.316406 186.742188 304.214844 C 187.484375 304.238281 188.226562 304.25 188.976562 304.246094 C 189.847656 304.257812 190.714844 304.242188 191.578125 304.214844 C 191.511719 304.355469 191.449219 304.5 191.398438 304.644531 C 190.945312 305.917969 190.972656 307.292969 191.445312 308.550781 C 192.429688 311.140625 194.710938 313.296875 196.824219 314.914062 C 196.519531 314.140625 196.503906 312.875 196.535156 311.984375 C 196.5625 311.136719 197.460938 309.050781 196.925781 308.5625 C 197.867188 309.417969 198.3125 310.921875 199.207031 311.84375 C 201 313.6875 203.054688 314.640625 205.550781 314.992188 C 206.558594 315.128906 208.792969 315.730469 209.386719 316.675781 C 208.472656 315.222656 207.515625 313.808594 206.753906 312.265625 C 206.082031 310.902344 205.46875 309.496094 204.921875 308.074219 C 204.34375 306.578125 204.097656 304.878906 203.050781 303.648438 C 202.796875 303.355469 202.523438 303.085938 202.238281 302.828125 C 204.464844 302.320312 206.644531 301.671875 208.769531 300.910156 C 208.738281 301.121094 208.71875 301.335938 208.71875 301.550781 C 208.710938 302.90625 209.191406 304.1875 210.054688 305.199219 C 211.832031 307.289062 214.6875 308.507812 217.210938 309.277344 C 216.667969 308.660156 216.234375 307.476562 215.972656 306.628906 C 215.71875 305.820312 215.871094 303.542969 215.207031 303.273438 C 216.375 303.742188 217.289062 305.003906 218.433594 305.546875 C 220.726562 306.644531 222.976562 306.816406 225.4375 306.261719 C 226.433594 306.039062 228.726562 305.8125 229.59375 306.488281 C 228.257812 305.445312 226.890625 304.453125 225.664062 303.273438 C 224.585938 302.234375 223.539062 301.128906 222.558594 299.984375 C 221.523438 298.78125 220.726562 297.277344 219.335938 296.492188 C 219.152344 296.386719 218.957031 296.300781 218.765625 296.210938 C 220.832031 294.992188 222.804688 293.65625 224.679688 292.214844 C 224.71875 292.425781 224.769531 292.632812 224.839844 292.835938 C 225.257812 294.046875 226.089844 295.035156 227.175781 295.644531 C 229.421875 296.914062 232.351562 297.039062 234.84375 296.878906 C 234.167969 296.507812 233.410156 295.597656 232.910156 294.929688 C 232.429688 294.292969 231.851562 292.207031 231.171875 292.195312 C 232.363281 292.21875 233.574219 293.035156 234.769531 293.140625 C 237.160156 293.347656 239.222656 292.742188 241.242188 291.417969 C 242.058594 290.886719 244.039062 289.910156 245.027344 290.222656 C 243.507812 289.742188 241.976562 289.316406 240.507812 288.675781 C 239.21875 288.109375 237.9375 287.476562 236.703125 286.785156 C 235.398438 286.058594 234.214844 284.984375 232.730469 284.75 C 232.710938 284.746094 232.695312 284.746094 232.679688 284.746094 C 234.292969 282.910156 235.753906 280.980469 237.066406 278.980469 C 237.8125 279.875 238.832031 280.449219 239.964844 280.625 C 242.355469 281 245.007812 280.128906 247.175781 279.152344 C 246.457031 279.050781 245.496094 278.492188 244.839844 278.066406 C 244.21875 277.664062 243.046875 275.996094 242.4375 276.210938 C 243.507812 275.835938 244.839844 276.15625 245.9375 275.847656 C 248.132812 275.230469 249.773438 274.003906 251.160156 272.148438 C 251.722656 271.394531 253.179688 269.867188 254.15625 269.8125 C 252.652344 269.894531 251.15625 270.03125 249.648438 269.949219 C 248.324219 269.878906 246.984375 269.742188 245.671875 269.542969 C 244.472656 269.363281 243.273438 268.921875 242.070312 268.992188 C 242.960938 266.648438 243.65625 264.300781 244.164062 261.957031 C 244.96875 262.285156 245.851562 262.367188 246.710938 262.183594 C 248.953125 261.714844 251.035156 260.058594 252.652344 258.46875 C 251.984375 258.617188 250.957031 258.441406 250.242188 258.28125 C 249.5625 258.132812 248.003906 257.046875 247.53125 257.441406 C 248.359375 256.75 249.644531 256.589844 250.523438 255.949219 C 252.277344 254.667969 253.351562 253.027344 254.003906 250.917969 " fill-opacity="1" fill-rule="nonzero"/><path fill="#e58200" d="M 179.40625 238.132812 C 176.777344 237.972656 173.90625 237.734375 171.355469 237.335938 C 171.597656 233.042969 171.753906 228.75 171.996094 224.613281 C 175.898438 223.101562 181.714844 222.070312 187.773438 222.070312 C 193.75 222.070312 198.210938 222.785156 201.476562 225.011719 C 204.1875 226.839844 206.65625 230.019531 206.65625 233.917969 C 206.65625 239.878906 202.273438 244.253906 195.820312 246.003906 L 195.820312 246.480469 C 204.027344 247.992188 207.851562 253.714844 207.851562 258.882812 C 207.851562 264.609375 204.824219 268.027344 201.160156 270.730469 C 197.574219 273.433594 190.957031 274.863281 182.589844 274.863281 C 179.5625 274.863281 175.023438 274.707031 171.753906 273.992188 C 171.117188 269.378906 170.558594 264.765625 170.082031 260.234375 C 172.632812 259.757812 175.582031 259.28125 178.367188 258.882812 L 180.203125 266.359375 C 180.28125 266.753906 180.519531 266.914062 180.757812 267.074219 C 181.554688 267.46875 183.148438 267.789062 184.1875 267.789062 C 187.371094 267.789062 189.761719 267.074219 191.277344 265.71875 C 192.871094 264.289062 193.589844 262.300781 193.589844 260.15625 C 193.589844 254.75 188.964844 251.726562 182.671875 251.648438 C 181.953125 251.648438 178.6875 251.648438 178.128906 251.648438 C 178.050781 249.261719 177.96875 246.636719 177.96875 244.253906 C 190 244.171875 193.191406 240.355469 193.191406 235.347656 C 193.191406 233.835938 192.789062 232.246094 191.675781 231.132812 C 190.082031 229.386719 188.25 229.144531 185.9375 229.144531 C 184.1875 229.144531 182.511719 229.542969 181.398438 230.339844 C 181.15625 230.496094 181.078125 230.734375 181 231.054688 L 179.40625 238.132812 " fill-opacity="1" fill-rule="nonzero"/><path fill="#ffdcae" d="M 202.613281 297.921875 C 203.292969 296.875 204.027344 295.847656 204.796875 294.875 C 205.21875 294.339844 205.667969 293.84375 206.132812 293.359375 C 206.179688 293.953125 206.339844 294.539062 206.621094 295.082031 C 206.867188 295.5625 207.21875 295.976562 207.632812 296.324219 C 207.871094 296.523438 208.140625 296.695312 208.414062 296.847656 C 206.339844 297.671875 204.203125 298.375 202.011719 298.949219 C 202.207031 298.601562 202.398438 298.25 202.613281 297.921875 Z M 217.3125 290.707031 C 217.605469 289.484375 217.957031 288.257812 218.355469 287.070312 C 218.742188 285.929688 219.246094 284.851562 219.75 283.765625 C 219.753906 284 219.757812 284.230469 219.785156 284.457031 C 219.898438 285.511719 220.367188 286.476562 221.132812 287.183594 C 221.5 287.53125 221.945312 287.785156 222.421875 287.953125 C 222.679688 288.046875 222.945312 288.105469 223.21875 288.148438 C 221.253906 289.75 219.164062 291.234375 216.960938 292.578125 C 217.082031 291.953125 217.164062 291.320312 217.3125 290.707031 Z M 154.042969 287.058594 C 154.804688 286.347656 155.273438 285.382812 155.390625 284.332031 C 155.414062 284.101562 155.421875 283.867188 155.421875 283.636719 C 155.925781 284.722656 156.433594 285.804688 156.816406 286.941406 C 157.21875 288.132812 157.570312 289.359375 157.859375 290.582031 C 158 291.15625 158.082031 291.757812 158.191406 292.347656 C 156.058594 291.023438 154.03125 289.566406 152.125 287.996094 C 152.335938 287.953125 152.546875 287.898438 152.75 287.828125 C 153.230469 287.65625 153.671875 287.402344 154.042969 287.058594 Z M 168.550781 294.953125 C 168.882812 294.3125 169.050781 293.613281 169.058594 292.902344 C 169.632812 293.492188 170.191406 294.09375 170.707031 294.746094 C 171.476562 295.722656 172.210938 296.75 172.890625 297.796875 C 173.132812 298.167969 173.347656 298.5625 173.570312 298.957031 C 171.242188 298.351562 168.972656 297.601562 166.773438 296.710938 C 167.042969 296.558594 167.304688 296.394531 167.542969 296.195312 C 167.953125 295.851562 168.304688 295.433594 168.550781 294.953125 Z M 252.625 249.828125 C 252.886719 248.976562 253.703125 247.128906 254.550781 246.757812 C 253.246094 247.332031 251.957031 247.953125 250.597656 248.382812 C 249.394531 248.765625 248.167969 249.089844 246.9375 249.355469 C 245.9375 249.566406 244.875 249.601562 243.910156 249.933594 C 243.890625 247.171875 243.644531 244.457031 243.199219 241.824219 C 243.902344 241.785156 244.585938 241.570312 245.199219 241.183594 C 247.035156 240.023438 248.359375 237.863281 249.292969 235.914062 C 248.746094 236.269531 247.785156 236.457031 247.105469 236.558594 C 246.457031 236.648438 244.742188 236.207031 244.445312 236.714844 C 244.964844 235.828125 246.050781 235.253906 246.625 234.398438 C 247.78125 232.679688 248.222656 230.871094 248.140625 228.789062 C 248.109375 227.945312 248.257812 226.042969 248.890625 225.429688 C 247.910156 226.375 246.96875 227.351562 245.898438 228.1875 C 244.953125 228.921875 243.96875 229.621094 242.964844 230.265625 C 242.140625 230.792969 241.199219 231.175781 240.445312 231.804688 C 239.347656 228.949219 238.023438 226.261719 236.527344 223.792969 C 237.277344 223.546875 237.933594 223.078125 238.429688 222.433594 C 239.6875 220.800781 240.1875 218.460938 240.40625 216.433594 C 240.039062 216.925781 239.25 217.414062 238.675781 217.722656 C 238.132812 218.023438 236.488281 218.203125 236.382812 218.742188 C 236.566406 217.792969 237.34375 216.929688 237.585938 215.980469 C 238.070312 214.085938 237.898438 212.347656 237.183594 210.535156 C 236.894531 209.804688 236.433594 208.082031 236.804688 207.328125 C 236.230469 208.484375 235.703125 209.660156 235.019531 210.75 C 234.417969 211.714844 233.765625 212.65625 233.078125 213.554688 C 232.363281 214.492188 231.410156 215.289062 231.019531 216.433594 C 228.722656 213.84375 226.320312 211.605469 223.875 209.679688 C 224.011719 209.625 224.148438 209.5625 224.28125 209.484375 C 225.074219 209.019531 225.660156 208.265625 225.949219 207.371094 C 226.550781 205.523438 226.261719 203.304688 225.835938 201.453125 C 225.660156 202.011719 225.121094 202.695312 224.714844 203.15625 C 224.332031 203.597656 222.941406 204.300781 223.015625 204.8125 C 222.882812 203.914062 223.300781 202.902344 223.21875 201.992188 C 223.0625 200.167969 222.371094 198.699219 221.1875 197.351562 C 220.707031 196.804688 219.773438 195.441406 219.863281 194.660156 C 219.722656 195.863281 219.621094 197.070312 219.355469 198.25 C 219.125 199.292969 218.84375 200.335938 218.515625 201.351562 C 218.175781 202.421875 217.570312 203.449219 217.597656 204.59375 C 217.605469 204.882812 217.640625 205.167969 217.6875 205.453125 C 214.527344 203.59375 211.410156 202.1875 208.503906 201.121094 C 208.722656 200.964844 208.929688 200.789062 209.105469 200.574219 C 209.679688 199.875 209.96875 198.988281 209.949219 198.074219 C 209.902344 196.179688 208.929688 194.25 207.941406 192.710938 C 207.964844 193.28125 207.6875 194.089844 207.46875 194.652344 C 207.257812 195.1875 206.21875 196.304688 206.453125 196.746094 C 206.039062 195.972656 206.097656 194.902344 205.730469 194.101562 C 205 192.492188 203.898438 191.386719 202.382812 190.5625 C 201.769531 190.230469 200.480469 189.308594 200.3125 188.5625 C 200.570312 189.707031 200.863281 190.84375 201 192.015625 C 201.125 193.046875 201.203125 194.09375 201.230469 195.132812 C 201.265625 196.230469 201.042969 197.375 201.433594 198.410156 C 201.59375 198.832031 201.796875 199.230469 202.046875 199.597656 C 202.015625 199.609375 201.984375 199.617188 201.953125 199.625 C 201.105469 199.882812 200.496094 200.613281 199.785156 201.148438 C 199.117188 201.652344 198.417969 202.132812 197.707031 202.570312 C 196.898438 203.070312 196.035156 203.445312 195.179688 203.851562 C 195.734375 203.585938 196.96875 203.992188 197.488281 204.238281 C 198.777344 204.84375 200.027344 205.027344 201.414062 204.707031 C 202.101562 204.546875 202.75 203.96875 203.445312 203.855469 C 203.050781 203.917969 202.871094 205.191406 202.640625 205.601562 C 202.398438 206.03125 202.027344 206.628906 201.65625 206.902344 C 203.128906 206.789062 204.835938 206.46875 206.050781 205.542969 C 206.640625 205.09375 207.050781 204.445312 207.203125 203.703125 C 207.277344 203.34375 207.269531 202.96875 207.203125 202.601562 C 207.148438 202.320312 207.058594 202.046875 206.941406 201.785156 C 206.945312 201.785156 206.945312 201.785156 206.945312 201.785156 C 209.871094 202.871094 213.027344 204.320312 216.234375 206.230469 C 215.847656 206.367188 215.464844 206.527344 215.074219 206.640625 C 214.253906 206.886719 213.414062 207.097656 212.578125 207.261719 C 211.625 207.449219 210.660156 207.496094 209.699219 207.578125 C 210.324219 207.527344 211.378906 208.367188 211.800781 208.792969 C 212.839844 209.851562 213.988281 210.484375 215.4375 210.679688 C 216.160156 210.773438 216.984375 210.449219 217.691406 210.59375 C 217.285156 210.511719 216.683594 211.675781 216.320312 211.988281 C 215.9375 212.320312 215.375 212.761719 214.925781 212.890625 C 216.386719 213.316406 218.144531 213.632812 219.640625 213.175781 C 220.363281 212.957031 220.980469 212.480469 221.378906 211.816406 C 221.570312 211.496094 221.695312 211.132812 221.75 210.75 C 221.789062 210.503906 221.792969 210.257812 221.78125 210.007812 C 224.535156 212.140625 227.242188 214.667969 229.792969 217.652344 C 229.121094 217.558594 228.417969 217.625 227.738281 217.578125 C 226.824219 217.511719 225.90625 217.402344 225.003906 217.25 C 223.980469 217.078125 222.992188 216.765625 221.992188 216.480469 C 222.644531 216.664062 223.40625 217.914062 223.679688 218.5 C 224.351562 219.957031 225.285156 221.03125 226.675781 221.777344 C 227.367188 222.148438 228.308594 222.132812 228.976562 222.546875 C 228.59375 222.3125 227.574219 223.253906 227.097656 223.433594 C 226.597656 223.621094 225.875 223.851562 225.375 223.8125 C 226.695312 224.796875 228.359375 225.777344 230.019531 225.886719 C 230.824219 225.9375 231.613281 225.695312 232.25 225.175781 C 232.5625 224.925781 232.8125 224.605469 233.007812 224.242188 C 233.15625 223.96875 233.265625 223.671875 233.347656 223.363281 C 233.671875 223.554688 234.015625 223.695312 234.371094 223.800781 C 236.230469 226.800781 237.824219 230.140625 239.054688 233.726562 C 239.050781 233.734375 239.046875 233.742188 239.042969 233.75 C 239.015625 233.722656 238.996094 233.695312 238.96875 233.667969 C 238.210938 232.921875 237.132812 232.710938 236.191406 232.277344 C 235.300781 231.871094 234.417969 231.414062 233.566406 230.921875 C 232.601562 230.363281 231.722656 229.671875 230.820312 229.011719 C 231.40625 229.441406 231.730469 230.980469 231.796875 231.675781 C 231.957031 233.386719 232.515625 234.816406 233.644531 236.085938 C 234.207031 236.71875 235.160156 237.0625 235.679688 237.726562 C 235.382812 237.347656 234.027344 237.90625 233.488281 237.90625 C 232.917969 237.90625 232.113281 237.863281 231.625 237.636719 C 232.601562 239.121094 233.921875 240.734375 235.546875 241.46875 C 236.339844 241.828125 237.214844 241.878906 238.035156 241.601562 C 238.433594 241.464844 238.800781 241.242188 239.121094 240.949219 C 239.367188 240.730469 239.585938 240.472656 239.773438 240.195312 C 240.082031 240.566406 240.4375 240.902344 240.828125 241.167969 C 240.886719 241.207031 240.945312 241.242188 241.003906 241.277344 C 241.574219 244.5 241.84375 247.84375 241.75 251.25 C 241.253906 250.21875 240.257812 249.605469 239.46875 248.820312 C 238.71875 248.074219 238 247.289062 237.324219 246.476562 C 236.554688 245.554688 235.921875 244.535156 235.253906 243.539062 C 235.6875 244.1875 235.472656 245.847656 235.292969 246.5625 C 234.851562 248.332031 234.90625 249.96875 235.585938 251.660156 C 235.929688 252.507812 236.757812 253.203125 237.042969 254.066406 C 236.878906 253.574219 235.332031 253.625 234.792969 253.421875 C 234.222656 253.203125 233.433594 252.859375 233.027344 252.453125 C 233.480469 254.300781 234.230469 256.40625 235.597656 257.753906 C 236.261719 258.40625 237.117188 258.789062 238.035156 258.820312 C 238.480469 258.835938 238.925781 258.746094 239.347656 258.578125 C 239.671875 258.449219 239.976562 258.277344 240.265625 258.070312 C 240.414062 258.484375 240.617188 258.878906 240.855469 259.246094 C 240.292969 262.074219 239.460938 264.914062 238.320312 267.738281 C 238.042969 266.8125 237.457031 265.996094 237.046875 265.125 C 236.5625 264.105469 236.121094 263.050781 235.730469 261.988281 C 235.289062 260.785156 235.015625 259.53125 234.695312 258.289062 C 234.902344 259.097656 234.109375 260.667969 233.679688 261.316406 C 232.621094 262.910156 232.101562 264.558594 232.1875 266.5 C 232.230469 267.464844 232.8125 268.472656 232.796875 269.433594 C 232.804688 268.886719 231.246094 268.355469 230.78125 267.949219 C 230.292969 267.523438 229.628906 266.882812 229.367188 266.324219 C 229.171875 268.335938 229.179688 270.710938 230.070312 272.5625 C 230.5 273.460938 231.21875 274.164062 232.121094 274.539062 C 232.558594 274.722656 233.03125 274.796875 233.511719 274.789062 C 233.875 274.78125 234.242188 274.726562 234.601562 274.628906 C 234.601562 274.816406 234.621094 275.007812 234.640625 275.195312 C 233.191406 277.5625 231.515625 279.832031 229.636719 281.976562 C 229.5625 281.210938 229.378906 280.449219 229.300781 279.6875 C 229.175781 278.496094 229.105469 277.285156 229.089844 276.085938 C 229.070312 274.726562 229.234375 273.382812 229.355469 272.03125 C 229.277344 272.910156 227.941406 274.171875 227.292969 274.652344 C 225.683594 275.839844 224.59375 277.28125 224.003906 279.238281 C 223.707031 280.210938 223.933594 281.425781 223.582031 282.375 C 223.78125 281.835938 222.421875 280.726562 222.101562 280.152344 C 221.761719 279.542969 221.328125 278.660156 221.261719 278.007812 C 220.492188 279.664062 219.78125 281.644531 219.75 283.546875 C 219.105469 284.222656 217.761719 284.785156 217.078125 284.980469 C 215.074219 285.554688 213.496094 286.574219 212.230469 288.289062 C 211.597656 289.144531 211.398438 290.429688 210.71875 291.238281 C 211.105469 290.777344 210.144531 289.175781 210.027344 288.484375 C 209.90625 287.757812 209.78125 286.722656 209.949219 286.054688 C 208.390625 287.621094 206.761719 289.652344 206.238281 291.882812 C 206.199219 292.046875 206.175781 292.210938 206.152344 292.375 C 205.464844 292.484375 204.726562 292.492188 204.285156 292.457031 C 202.214844 292.289062 200.394531 292.6875 198.636719 293.851562 C 197.761719 294.429688 197.148438 295.566406 196.246094 296.085938 C 196.757812 295.792969 196.386719 293.945312 196.507812 293.257812 C 196.628906 292.53125 196.855469 291.511719 197.230469 290.945312 C 195.253906 291.863281 193.046875 293.195312 191.820312 295.109375 C 191.222656 296.039062 190.972656 297.144531 191.121094 298.246094 C 191.195312 298.785156 191.390625 299.300781 191.664062 299.773438 C 191.828125 300.058594 192.035156 300.324219 192.253906 300.574219 C 190.714844 300.6875 189.164062 300.742188 187.601562 300.71875 C 186.105469 300.730469 184.621094 300.675781 183.148438 300.566406 C 183.410156 300.285156 183.648438 299.976562 183.84375 299.644531 C 184.117188 299.171875 184.308594 298.660156 184.382812 298.121094 C 184.535156 297.015625 184.28125 295.910156 183.683594 294.980469 C 182.457031 293.066406 180.253906 291.738281 178.273438 290.816406 C 178.648438 291.386719 178.875 292.402344 179 293.125 C 179.117188 293.816406 178.746094 295.664062 179.257812 295.957031 C 178.355469 295.4375 177.742188 294.304688 176.871094 293.722656 C 175.109375 292.558594 173.289062 292.160156 171.21875 292.328125 C 170.703125 292.367188 169.792969 292.355469 169.015625 292.1875 C 168.992188 292.042969 168.96875 291.898438 168.933594 291.757812 C 168.410156 289.523438 166.78125 287.492188 165.226562 285.929688 C 165.390625 286.59375 165.265625 287.632812 165.144531 288.359375 C 165.027344 289.046875 164.066406 290.652344 164.453125 291.109375 C 163.777344 290.300781 163.574219 289.015625 162.945312 288.160156 C 161.675781 286.445312 160.101562 285.425781 158.09375 284.851562 C 157.414062 284.65625 156.066406 284.09375 155.425781 283.421875 C 155.390625 281.515625 154.679688 279.535156 153.910156 277.882812 C 153.847656 278.53125 153.410156 279.417969 153.070312 280.023438 C 152.75 280.597656 151.390625 281.707031 151.59375 282.25 C 151.242188 281.300781 151.464844 280.082031 151.171875 279.109375 C 150.578125 277.152344 149.488281 275.710938 147.882812 274.523438 C 147.230469 274.042969 145.894531 272.78125 145.820312 271.902344 C 145.9375 273.253906 146.101562 274.601562 146.082031 275.960938 C 146.066406 277.15625 145.996094 278.367188 145.871094 279.558594 C 145.804688 280.234375 145.652344 280.917969 145.566406 281.597656 C 143.679688 279.40625 142.003906 277.085938 140.5625 274.671875 C 140.5625 274.613281 140.574219 274.558594 140.574219 274.5 C 140.929688 274.597656 141.296875 274.65625 141.660156 274.660156 C 142.140625 274.671875 142.617188 274.59375 143.050781 274.410156 C 143.953125 274.039062 144.671875 273.335938 145.105469 272.433594 C 145.992188 270.582031 146.003906 268.207031 145.804688 266.199219 C 145.546875 266.757812 144.882812 267.394531 144.390625 267.824219 C 143.925781 268.226562 142.367188 268.757812 142.378906 269.308594 C 142.359375 268.34375 142.941406 267.339844 142.984375 266.371094 C 143.070312 264.429688 142.550781 262.78125 141.492188 261.1875 C 141.0625 260.542969 140.269531 258.96875 140.476562 258.160156 C 140.15625 259.40625 139.882812 260.65625 139.441406 261.859375 C 139.050781 262.925781 138.609375 263.976562 138.125 264.996094 C 137.773438 265.742188 137.296875 266.445312 136.988281 267.210938 C 135.886719 264.390625 135.082031 261.554688 134.550781 258.734375 C 134.6875 258.476562 134.808594 258.214844 134.910156 257.941406 C 135.195312 258.148438 135.503906 258.324219 135.824219 258.449219 C 136.246094 258.617188 136.691406 258.710938 137.136719 258.695312 C 138.054688 258.660156 138.910156 258.28125 139.574219 257.625 C 140.941406 256.277344 141.691406 254.171875 142.144531 252.324219 C 141.738281 252.734375 140.949219 253.078125 140.382812 253.292969 C 139.839844 253.496094 138.292969 253.449219 138.128906 253.9375 C 138.414062 253.078125 139.246094 252.378906 139.585938 251.535156 C 140.265625 249.839844 140.324219 248.203125 139.882812 246.433594 C 139.699219 245.71875 139.488281 244.058594 139.921875 243.410156 C 139.25 244.40625 138.617188 245.425781 137.851562 246.347656 C 137.171875 247.160156 136.449219 247.949219 135.707031 248.691406 C 135.058594 249.332031 134.277344 249.867188 133.742188 250.605469 C 133.691406 247.273438 133.988281 244.007812 134.570312 240.859375 C 134.871094 240.625 135.152344 240.367188 135.398438 240.066406 C 135.589844 240.347656 135.804688 240.601562 136.050781 240.820312 C 136.371094 241.109375 136.738281 241.339844 137.136719 241.472656 C 137.957031 241.753906 138.832031 241.699219 139.625 241.339844 C 141.253906 240.605469 142.570312 238.992188 143.546875 237.507812 C 143.058594 237.738281 142.253906 237.777344 141.6875 237.78125 C 141.144531 237.78125 139.792969 237.21875 139.492188 237.597656 C 140.015625 236.933594 140.964844 236.59375 141.527344 235.960938 C 142.660156 234.6875 143.214844 233.257812 143.375 231.546875 C 143.441406 230.851562 143.765625 229.3125 144.351562 228.886719 C 143.449219 229.542969 142.570312 230.234375 141.605469 230.792969 C 140.753906 231.285156 139.871094 231.742188 138.980469 232.148438 C 138.203125 232.507812 137.335938 232.71875 136.628906 233.203125 C 137.871094 229.695312 139.464844 226.425781 141.316406 223.488281 C 141.488281 223.414062 141.664062 223.332031 141.828125 223.234375 C 141.90625 223.542969 142.019531 223.839844 142.167969 224.117188 C 142.359375 224.476562 142.609375 224.800781 142.921875 225.050781 C 143.558594 225.566406 144.347656 225.808594 145.152344 225.757812 C 146.816406 225.652344 148.476562 224.667969 149.796875 223.683594 C 149.296875 223.722656 148.574219 223.492188 148.074219 223.304688 C 147.597656 223.125 146.578125 222.183594 146.199219 222.417969 C 146.863281 222.003906 147.804688 222.019531 148.5 221.648438 C 149.890625 220.902344 150.824219 219.832031 151.496094 218.375 C 151.765625 217.785156 152.53125 216.539062 153.179688 216.355469 C 152.179688 216.636719 151.191406 216.953125 150.167969 217.125 C 149.265625 217.277344 148.347656 217.382812 147.4375 217.449219 C 146.902344 217.488281 146.359375 217.453125 145.824219 217.484375 C 148.238281 214.679688 150.792969 212.289062 153.386719 210.246094 C 153.394531 210.371094 153.402344 210.5 153.421875 210.621094 C 153.480469 211.003906 153.601562 211.367188 153.796875 211.691406 C 154.195312 212.355469 154.808594 212.828125 155.535156 213.046875 C 157.027344 213.503906 158.785156 213.191406 160.246094 212.765625 C 159.796875 212.632812 159.234375 212.191406 158.851562 211.863281 C 158.492188 211.546875 157.886719 210.382812 157.480469 210.464844 C 158.191406 210.324219 159.015625 210.644531 159.734375 210.550781 C 161.1875 210.355469 162.335938 209.722656 163.375 208.667969 C 163.792969 208.238281 164.847656 207.398438 165.476562 207.453125 C 164.511719 207.367188 163.546875 207.320312 162.597656 207.132812 C 161.757812 206.96875 160.921875 206.757812 160.097656 206.515625 C 159.816406 206.433594 159.539062 206.320312 159.257812 206.21875 C 162.308594 204.402344 165.3125 203.007812 168.121094 201.941406 C 168.058594 202.117188 168.007812 202.292969 167.972656 202.472656 C 167.902344 202.839844 167.898438 203.214844 167.96875 203.578125 C 168.121094 204.316406 168.53125 204.964844 169.121094 205.414062 C 170.335938 206.339844 172.042969 206.660156 173.515625 206.773438 C 173.144531 206.5 172.773438 205.90625 172.53125 205.472656 C 172.300781 205.0625 172.125 203.789062 171.730469 203.726562 C 172.421875 203.839844 173.070312 204.417969 173.757812 204.578125 C 175.144531 204.898438 176.398438 204.714844 177.683594 204.109375 C 178.203125 203.867188 179.4375 203.460938 179.992188 203.722656 C 179.140625 203.316406 178.273438 202.941406 177.46875 202.441406 C 176.757812 202.003906 176.054688 201.523438 175.386719 201.019531 C 174.679688 200.488281 174.070312 199.757812 173.21875 199.496094 C 173.1875 199.488281 173.15625 199.484375 173.125 199.472656 C 173.371094 199.101562 173.578125 198.707031 173.738281 198.28125 C 174.132812 197.246094 173.910156 196.101562 173.941406 195.003906 C 173.972656 193.964844 174.046875 192.917969 174.171875 191.886719 C 174.308594 190.714844 174.605469 189.582031 174.859375 188.433594 C 174.695312 189.179688 173.402344 190.101562 172.792969 190.433594 C 171.273438 191.257812 170.175781 192.363281 169.441406 193.972656 C 169.078125 194.773438 169.132812 195.84375 168.722656 196.617188 C 168.957031 196.175781 167.914062 195.058594 167.703125 194.523438 C 167.484375 193.964844 167.210938 193.152344 167.230469 192.582031 C 166.246094 194.125 165.269531 196.054688 165.222656 197.945312 C 165.203125 198.863281 165.496094 199.75 166.070312 200.449219 C 166.300781 200.734375 166.589844 200.957031 166.902344 201.144531 C 163.894531 202.25 160.675781 203.722656 157.421875 205.667969 C 157.507812 205.277344 157.566406 204.875 157.574219 204.46875 C 157.601562 203.320312 156.996094 202.292969 156.65625 201.222656 C 156.332031 200.207031 156.046875 199.167969 155.816406 198.125 C 155.554688 196.941406 155.453125 195.734375 155.308594 194.53125 C 155.402344 195.316406 154.464844 196.675781 153.988281 197.222656 C 152.800781 198.570312 152.113281 200.042969 151.953125 201.863281 C 151.875 202.773438 152.289062 203.785156 152.15625 204.683594 C 152.230469 204.171875 150.84375 203.46875 150.460938 203.03125 C 150.054688 202.566406 149.511719 201.882812 149.339844 201.324219 C 148.90625 203.175781 148.621094 205.394531 149.222656 207.242188 C 149.515625 208.136719 150.097656 208.890625 150.894531 209.359375 C 151.121094 209.492188 151.367188 209.59375 151.625 209.664062 C 149.101562 211.652344 146.617188 213.972656 144.253906 216.671875 C 144.226562 216.5625 144.203125 216.449219 144.167969 216.34375 C 143.789062 215.179688 142.820312 214.375 142.09375 213.425781 C 141.40625 212.527344 140.753906 211.585938 140.152344 210.625 C 139.46875 209.53125 138.9375 208.359375 138.371094 207.199219 C 138.738281 207.953125 138.28125 209.679688 137.988281 210.410156 C 137.273438 212.21875 137.101562 213.957031 137.585938 215.855469 C 137.828125 216.800781 138.605469 217.664062 138.789062 218.617188 C 138.6875 218.074219 137.039062 217.894531 136.496094 217.597656 C 135.925781 217.285156 135.136719 216.800781 134.765625 216.304688 C 134.988281 218.332031 135.484375 220.671875 136.742188 222.304688 C 137.3125 223.046875 138.09375 223.554688 138.984375 223.757812 C 137.460938 226.273438 136.113281 229.007812 135.003906 231.921875 C 134.21875 231.140625 133.136719 230.730469 132.210938 230.136719 C 131.203125 229.492188 130.21875 228.796875 129.273438 228.058594 C 128.207031 227.222656 127.261719 226.246094 126.28125 225.300781 C 126.917969 225.917969 127.066406 227.820312 127.03125 228.660156 C 126.949219 230.746094 127.390625 232.554688 128.546875 234.269531 C 129.121094 235.128906 130.207031 235.699219 130.726562 236.585938 C 130.433594 236.082031 128.71875 236.523438 128.070312 236.429688 C 127.386719 236.328125 126.425781 236.140625 125.878906 235.789062 C 126.816406 237.734375 128.140625 239.894531 129.976562 241.054688 C 130.691406 241.503906 131.5 241.730469 132.324219 241.699219 C 131.867188 244.375 131.609375 247.128906 131.589844 249.929688 C 130.546875 249.476562 129.351562 249.464844 128.234375 249.222656 C 127.007812 248.964844 125.777344 248.636719 124.578125 248.257812 C 123.214844 247.824219 121.929688 247.203125 120.621094 246.628906 C 121.472656 247.003906 122.285156 248.847656 122.550781 249.699219 C 123.199219 251.808594 124.273438 253.453125 126.03125 254.730469 C 126.90625 255.371094 128.191406 255.535156 129.023438 256.222656 C 128.546875 255.828125 126.992188 256.917969 126.3125 257.066406 C 125.597656 257.226562 124.570312 257.398438 123.898438 257.25 C 125.519531 258.84375 127.601562 260.5 129.84375 260.96875 C 130.804688 261.171875 131.792969 261.050781 132.671875 260.617188 C 133.179688 263.011719 133.882812 265.414062 134.789062 267.808594 C 133.484375 267.636719 132.183594 268.128906 130.882812 268.324219 C 129.566406 268.523438 128.230469 268.660156 126.902344 268.734375 C 125.398438 268.8125 123.902344 268.679688 122.398438 268.597656 C 123.375 268.652344 124.832031 270.179688 125.390625 270.929688 C 126.777344 272.785156 128.421875 274.015625 130.617188 274.628906 C 131.710938 274.9375 133.046875 274.621094 134.113281 274.996094 C 133.507812 274.78125 132.339844 276.445312 131.710938 276.847656 C 131.054688 277.277344 130.09375 277.835938 129.378906 277.9375 C 131.546875 278.914062 134.195312 279.785156 136.589844 279.410156 C 137.753906 279.226562 138.800781 278.628906 139.550781 277.691406 C 139.582031 277.65625 139.605469 277.617188 139.632812 277.578125 C 140.964844 279.636719 142.453125 281.621094 144.097656 283.507812 C 144.007812 283.515625 143.914062 283.519531 143.824219 283.53125 C 142.335938 283.765625 141.15625 284.84375 139.851562 285.566406 C 138.617188 286.257812 137.335938 286.890625 136.042969 287.460938 C 134.578125 288.101562 133.046875 288.527344 131.527344 289.007812 C 132.515625 288.695312 134.492188 289.667969 135.3125 290.203125 C 137.335938 291.527344 139.394531 292.128906 141.785156 291.921875 C 142.980469 291.820312 144.191406 291.003906 145.382812 290.976562 C 144.703125 290.992188 144.125 293.078125 143.644531 293.714844 C 143.140625 294.382812 142.386719 295.292969 141.707031 295.660156 C 144.199219 295.824219 147.132812 295.695312 149.375 294.429688 C 150.464844 293.816406 151.296875 292.832031 151.714844 291.621094 C 151.800781 291.375 151.855469 291.125 151.898438 290.871094 C 153.785156 292.34375 155.777344 293.710938 157.863281 294.957031 C 157.644531 295.058594 157.425781 295.15625 157.21875 295.273438 C 155.828125 296.058594 155.03125 297.5625 153.996094 298.769531 C 153.011719 299.910156 151.96875 301.015625 150.886719 302.058594 C 149.664062 303.238281 148.292969 304.230469 146.957031 305.273438 C 147.828125 304.59375 150.121094 304.820312 151.117188 305.042969 C 153.578125 305.597656 155.824219 305.429688 158.117188 304.332031 C 159.261719 303.785156 160.179688 302.527344 161.347656 302.058594 C 160.679688 302.324219 160.835938 304.605469 160.582031 305.410156 C 160.316406 306.257812 159.886719 307.441406 159.34375 308.0625 C 161.863281 307.292969 164.722656 306.074219 166.5 303.984375 C 167.363281 302.972656 167.84375 301.6875 167.835938 300.335938 C 167.835938 300.121094 167.8125 299.90625 167.78125 299.695312 C 169.976562 300.496094 172.230469 301.171875 174.535156 301.707031 C 174.289062 301.933594 174.054688 302.175781 173.835938 302.433594 C 172.789062 303.664062 172.539062 305.359375 171.960938 306.859375 C 171.417969 308.277344 170.804688 309.6875 170.132812 311.046875 C 169.371094 312.589844 168.410156 314.007812 167.5 315.457031 C 168.09375 314.515625 170.324219 313.914062 171.335938 313.773438 C 173.828125 313.421875 175.886719 312.46875 177.675781 310.625 C 178.574219 309.707031 179.015625 308.199219 179.957031 307.347656 C 179.421875 307.832031 180.320312 309.921875 180.351562 310.769531 C 180.378906 311.660156 180.367188 312.921875 180.0625 313.695312 C 182.175781 312.082031 184.457031 309.921875 185.4375 307.332031 C 185.914062 306.074219 185.941406 304.699219 185.488281 303.429688 C 185.453125 303.328125 185.40625 303.226562 185.363281 303.128906 C 186.101562 303.152344 186.847656 303.160156 187.59375 303.15625 C 188.46875 303.167969 189.332031 303.152344 190.199219 303.125 C 190.132812 303.265625 190.070312 303.410156 190.015625 303.558594 C 189.5625 304.828125 189.589844 306.203125 190.066406 307.460938 C 191.046875 310.050781 193.328125 312.207031 195.441406 313.824219 C 195.136719 313.050781 195.125 311.785156 195.15625 310.894531 C 195.183594 310.046875 196.082031 307.960938 195.546875 307.472656 C 196.488281 308.328125 196.933594 309.835938 197.828125 310.753906 C 199.617188 312.597656 201.675781 313.550781 204.171875 313.902344 C 205.179688 314.042969 207.410156 314.640625 208.003906 315.585938 C 207.09375 314.136719 206.136719 312.71875 205.375 311.175781 C 204.703125 309.8125 204.085938 308.40625 203.542969 306.984375 C 202.964844 305.488281 202.714844 303.789062 201.667969 302.5625 C 201.417969 302.265625 201.140625 301.996094 200.855469 301.742188 C 203.085938 301.230469 205.265625 300.582031 207.390625 299.820312 C 207.359375 300.035156 207.335938 300.246094 207.335938 300.460938 C 207.328125 301.816406 207.8125 303.101562 208.671875 304.113281 C 210.453125 306.199219 213.308594 307.421875 215.832031 308.191406 C 215.289062 307.570312 214.855469 306.386719 214.589844 305.539062 C 214.339844 304.734375 214.492188 302.453125 213.824219 302.1875 C 214.996094 302.652344 215.910156 303.914062 217.054688 304.460938 C 219.347656 305.558594 221.59375 305.726562 224.054688 305.171875 C 225.050781 304.949219 227.34375 304.722656 228.214844 305.398438 C 226.878906 304.355469 225.511719 303.367188 224.285156 302.1875 C 223.203125 301.144531 222.160156 300.039062 221.179688 298.894531 C 220.140625 297.691406 219.34375 296.1875 217.957031 295.402344 C 217.769531 295.296875 217.578125 295.210938 217.382812 295.121094 C 219.449219 293.902344 221.425781 292.566406 223.296875 291.125 C 223.339844 291.335938 223.386719 291.546875 223.457031 291.75 C 223.878906 292.957031 224.707031 293.945312 225.796875 294.554688 C 228.042969 295.824219 230.972656 295.949219 233.464844 295.792969 C 232.785156 295.417969 232.03125 294.507812 231.527344 293.839844 C 231.046875 293.203125 230.46875 291.117188 229.792969 291.105469 C 230.980469 291.132812 232.195312 291.945312 233.386719 292.050781 C 235.777344 292.261719 237.839844 291.652344 239.863281 290.332031 C 240.679688 289.796875 242.660156 288.824219 243.644531 289.132812 C 242.128906 288.65625 240.59375 288.226562 239.128906 287.585938 C 237.835938 287.019531 236.558594 286.386719 235.324219 285.695312 C 234.015625 284.96875 232.835938 283.894531 231.347656 283.660156 C 231.332031 283.660156 231.316406 283.660156 231.296875 283.65625 C 232.910156 281.820312 234.371094 279.890625 235.683594 277.890625 C 236.433594 278.785156 237.453125 279.359375 238.582031 279.535156 C 240.976562 279.910156 243.628906 279.039062 245.796875 278.0625 C 245.078125 277.960938 244.117188 277.402344 243.457031 276.976562 C 242.835938 276.574219 241.667969 274.90625 241.058594 275.121094 C 242.125 274.746094 243.460938 275.066406 244.554688 274.757812 C 246.75 274.144531 248.394531 272.914062 249.78125 271.058594 C 250.339844 270.308594 251.796875 268.777344 252.777344 268.722656 C 251.273438 268.808594 249.773438 268.941406 248.269531 268.859375 C 246.941406 268.789062 245.605469 268.652344 244.289062 268.453125 C 243.089844 268.273438 241.894531 267.832031 240.6875 267.902344 C 241.578125 265.558594 242.273438 263.210938 242.785156 260.867188 C 243.589844 261.195312 244.46875 261.277344 245.332031 261.097656 C 247.574219 260.625 249.65625 258.96875 251.273438 257.378906 C 250.601562 257.527344 249.578125 257.351562 248.863281 257.191406 C 248.179688 257.042969 246.625 255.957031 246.152344 256.351562 C 246.984375 255.664062 248.265625 255.5 249.140625 254.859375 C 250.898438 253.578125 251.972656 251.9375 252.625 249.828125 " fill-opacity="1" fill-rule="nonzero"/><path fill="#ffdcae" d="M 178.023438 237.042969 C 175.394531 236.882812 172.527344 236.644531 169.976562 236.246094 C 170.214844 231.953125 170.375 227.660156 170.613281 223.523438 C 174.519531 222.015625 180.335938 220.980469 186.390625 220.980469 C 192.367188 220.980469 196.832031 221.695312 200.097656 223.921875 C 202.804688 225.753906 205.277344 228.929688 205.277344 232.828125 C 205.277344 238.789062 200.894531 243.164062 194.441406 244.914062 L 194.441406 245.390625 C 202.644531 246.902344 206.472656 252.625 206.472656 257.792969 C 206.472656 263.519531 203.441406 266.9375 199.777344 269.640625 C 196.191406 272.34375 189.578125 273.777344 181.210938 273.777344 C 178.183594 273.777344 173.640625 273.617188 170.375 272.902344 C 169.738281 268.289062 169.179688 263.679688 168.699219 259.144531 C 171.25 258.667969 174.199219 258.191406 176.988281 257.792969 L 178.820312 265.269531 C 178.902344 265.664062 179.140625 265.824219 179.378906 265.984375 C 180.175781 266.378906 181.769531 266.699219 182.804688 266.699219 C 185.992188 266.699219 188.382812 265.984375 189.898438 264.632812 C 191.492188 263.199219 192.207031 261.214844 192.207031 259.066406 C 192.207031 253.660156 187.585938 250.636719 181.292969 250.558594 C 180.574219 250.558594 177.308594 250.558594 176.75 250.558594 C 176.671875 248.171875 176.589844 245.546875 176.589844 243.164062 C 188.621094 243.085938 191.808594 239.269531 191.808594 234.257812 C 191.808594 232.75 191.410156 231.160156 190.296875 230.042969 C 188.703125 228.296875 186.867188 228.054688 184.558594 228.054688 C 182.804688 228.054688 181.132812 228.453125 180.015625 229.25 C 179.777344 229.410156 179.695312 229.648438 179.617188 229.964844 L 178.023438 237.042969 " fill-opacity="1" fill-rule="nonzero"/></svg>