<svg xmlns="http://www.w3.org/2000/svg" xmlns:xlink="http://www.w3.org/1999/xlink" width="500" zoomAndPan="magnify" viewBox="0 0 375 374.999991" height="500" preserveAspectRatio="xMidYMid meet" version="1.0"><defs><clipPath id="16ad6e6794"><path d="M 169 37.660156 L 270 37.660156 L 270 159 L 169 159 Z M 169 37.660156 " clip-rule="nonzero"/></clipPath><clipPath id="96612cecc1"><path d="M 101.160156 143.09375 L 273.574219 143.09375 L 273.574219 337.660156 L 101.160156 337.660156 Z M 101.160156 143.09375 " clip-rule="nonzero"/></clipPath><clipPath id="6d3f03b7d0"><path d="M 106 37.660156 L 206 37.660156 L 206 159 L 106 159 Z M 106 37.660156 " clip-rule="nonzero"/></clipPath></defs><g clip-path="url(#16ad6e6794)"><path fill="#006dd3" d="M 269.101562 37.65625 L 205.117188 157.964844 L 169.960938 158.019531 L 233.984375 37.65625 L 269.101562 37.65625 " fill-opacity="1" fill-rule="nonzero"/></g><g clip-path="url(#96612cecc1)"><path fill="#aaabad" d="M 170.300781 156.988281 C 172.78125 153.828125 176.101562 153.109375 179.867188 153.109375 C 184.839844 153.109375 189.820312 153.109375 194.796875 153.109375 C 199.996094 153.109375 204.523438 155.03125 206.0625 160.472656 C 206.625 162.457031 206.660156 164.757812 206.578125 167.039062 C 200.398438 165.628906 193.96875 164.882812 187.367188 164.882812 C 180.839844 164.882812 174.484375 165.617188 168.375 166.992188 C 168.375 166.617188 168.375 166.238281 168.375 165.863281 C 168.375 162.746094 168.246094 159.613281 170.300781 156.988281 Z M 216.117188 169.8125 C 216.117188 168.039062 216.117188 166.265625 216.117188 164.492188 C 216.117188 159.875 215.269531 155.46875 212.542969 151.625 C 208.886719 146.472656 202.90625 143.328125 196.578125 143.328125 C 190.433594 143.328125 184.289062 143.328125 178.144531 143.328125 C 171.207031 143.328125 165.078125 147.050781 161.386719 152.828125 C 159.023438 156.519531 158.613281 160.808594 158.613281 165.066406 C 158.613281 166.648438 158.613281 168.230469 158.613281 169.8125 C 125.140625 181.679688 101.160156 213.667969 101.160156 251.277344 C 101.160156 298.992188 139.757812 337.667969 187.367188 337.667969 C 234.976562 337.667969 273.574219 298.992188 273.574219 251.277344 C 273.574219 213.667969 249.589844 181.679688 216.117188 169.8125 " fill-opacity="1" fill-rule="nonzero"/></g><path fill="#c9c9c9" d="M 260.832031 251.550781 C 260.832031 292.210938 227.941406 325.171875 187.367188 325.171875 C 146.792969 325.171875 113.902344 292.210938 113.902344 251.550781 C 113.902344 210.886719 146.792969 177.925781 187.367188 177.925781 C 227.941406 177.925781 260.832031 210.886719 260.832031 251.550781 " fill-opacity="1" fill-rule="nonzero"/><path fill="#ffffff" d="M 258.933594 251.550781 C 258.804688 276.449219 245.84375 299.636719 224.710938 312.742188 C 203.355469 325.988281 175.863281 326.59375 153.742188 314.878906 C 131.957031 303.347656 117.566406 280.679688 115.941406 256.117188 C 114.292969 231.253906 126.152344 206.976562 146.441406 192.695312 C 166.96875 178.25 194.363281 175.90625 217.140625 186.296875 C 239.449219 196.476562 255.273438 218.148438 258.382812 242.484375 C 258.765625 245.492188 258.917969 248.523438 258.933594 251.550781 C 258.945312 254 262.742188 254 262.726562 251.550781 C 262.605469 227.246094 250.914062 204.566406 231.367188 190.234375 C 211.605469 175.746094 185.132812 172.257812 162.132812 180.363281 C 139.6875 188.277344 122.175781 207 115.203125 229.714844 C 107.996094 253.1875 113.257812 279.035156 128.195312 298.304688 C 143.078125 317.503906 167.054688 328.085938 191.171875 326.976562 C 215.199219 325.871094 237.378906 312.734375 250.5625 292.707031 C 258.566406 280.550781 262.65625 266.066406 262.726562 251.550781 C 262.742188 249.09375 258.945312 249.097656 258.933594 251.550781 " fill-opacity="1" fill-rule="nonzero"/><g clip-path="url(#6d3f03b7d0)"><path fill="#0095ff" d="M 106.082031 37.65625 L 170.070312 157.964844 L 205.226562 158.019531 L 141.199219 37.65625 L 106.082031 37.65625 " fill-opacity="1" fill-rule="nonzero"/></g><path fill="#aaabad" d="M 203.847656 299.425781 C 204.523438 298.378906 205.253906 297.351562 206.023438 296.375 C 206.441406 295.84375 206.890625 295.34375 207.351562 294.859375 C 207.398438 295.457031 207.558594 296.042969 207.835938 296.585938 C 208.082031 297.0625 208.433594 297.480469 208.84375 297.824219 C 209.082031 298.027344 209.347656 298.195312 209.625 298.351562 C 207.558594 299.171875 205.429688 299.875 203.25 300.449219 C 203.441406 300.101562 203.636719 299.753906 203.847656 299.425781 Z M 218.484375 292.210938 C 218.773438 290.984375 219.121094 289.761719 219.523438 288.570312 C 219.90625 287.429688 220.410156 286.351562 220.910156 285.265625 C 220.914062 285.5 220.917969 285.730469 220.945312 285.960938 C 221.058594 287.011719 221.523438 287.980469 222.285156 288.6875 C 222.652344 289.03125 223.09375 289.285156 223.570312 289.457031 C 223.828125 289.546875 224.09375 289.605469 224.363281 289.648438 C 222.40625 291.25 220.328125 292.734375 218.132812 294.078125 C 218.257812 293.457031 218.335938 292.820312 218.484375 292.210938 Z M 155.484375 288.558594 C 156.242188 287.851562 156.710938 286.886719 156.824219 285.832031 C 156.847656 285.601562 156.855469 285.371094 156.859375 285.136719 C 157.355469 286.222656 157.863281 287.304688 158.246094 288.441406 C 158.644531 289.632812 158.992188 290.859375 159.285156 292.082031 C 159.421875 292.660156 159.503906 293.261719 159.617188 293.851562 C 157.488281 292.523438 155.472656 291.066406 153.574219 289.496094 C 153.785156 289.453125 153.992188 289.398438 154.195312 289.328125 C 154.671875 289.15625 155.117188 288.902344 155.484375 288.558594 Z M 169.929688 296.457031 C 170.261719 295.816406 170.425781 295.113281 170.433594 294.402344 C 171.007812 294.996094 171.566406 295.59375 172.074219 296.246094 C 172.84375 297.222656 173.574219 298.25 174.25 299.296875 C 174.492188 299.671875 174.707031 300.066406 174.925781 300.460938 C 172.609375 299.851562 170.347656 299.101562 168.160156 298.214844 C 168.429688 298.0625 168.6875 297.894531 168.925781 297.699219 C 169.335938 297.351562 169.6875 296.933594 169.929688 296.457031 Z M 253.644531 251.324219 C 253.90625 250.472656 254.71875 248.628906 255.5625 248.253906 C 254.261719 248.828125 252.980469 249.449219 251.625 249.882812 C 250.429688 250.261719 249.207031 250.589844 247.980469 250.851562 C 246.984375 251.066406 245.925781 251.097656 244.96875 251.429688 C 244.945312 248.671875 244.703125 245.957031 244.257812 243.320312 C 244.957031 243.28125 245.640625 243.066406 246.25 242.679688 C 248.078125 241.519531 249.398438 239.359375 250.328125 237.410156 C 249.785156 237.769531 248.828125 237.957031 248.148438 238.054688 C 247.503906 238.148438 245.796875 237.703125 245.503906 238.210938 C 246.019531 237.324219 247.097656 236.75 247.671875 235.894531 C 248.824219 234.175781 249.261719 232.367188 249.179688 230.285156 C 249.148438 229.441406 249.292969 227.539062 249.925781 226.925781 C 248.953125 227.871094 248.011719 228.847656 246.945312 229.683594 C 246.007812 230.417969 245.027344 231.117188 244.023438 231.761719 C 243.203125 232.289062 242.265625 232.671875 241.519531 233.300781 C 240.425781 230.445312 239.109375 227.757812 237.617188 225.289062 C 238.363281 225.042969 239.019531 224.570312 239.511719 223.925781 C 240.765625 222.296875 241.257812 219.953125 241.480469 217.929688 C 241.109375 218.421875 240.328125 218.90625 239.757812 219.21875 C 239.214844 219.515625 237.578125 219.695312 237.472656 220.238281 C 237.65625 219.289062 238.429688 218.421875 238.671875 217.476562 C 239.15625 215.582031 238.984375 213.839844 238.269531 212.03125 C 237.980469 211.300781 237.523438 209.574219 237.890625 208.824219 C 237.324219 209.980469 236.796875 211.152344 236.117188 212.246094 C 235.515625 213.207031 234.867188 214.148438 234.183594 215.050781 C 233.46875 215.988281 232.519531 216.785156 232.132812 217.929688 C 229.847656 215.335938 227.449219 213.101562 225.019531 211.175781 C 225.15625 211.121094 225.292969 211.054688 225.421875 210.980469 C 226.210938 210.511719 226.792969 209.757812 227.082031 208.863281 C 227.683594 207.015625 227.398438 204.796875 226.96875 202.949219 C 226.796875 203.503906 226.257812 204.1875 225.851562 204.652344 C 225.472656 205.09375 224.089844 205.792969 224.164062 206.308594 C 224.03125 205.410156 224.445312 204.394531 224.363281 203.484375 C 224.207031 201.660156 223.523438 200.191406 222.339844 198.84375 C 221.863281 198.296875 220.933594 196.933594 221.023438 196.152344 C 220.882812 197.355469 220.78125 198.5625 220.519531 199.746094 C 220.289062 200.785156 220.007812 201.828125 219.683594 202.84375 C 219.34375 203.917969 218.742188 204.941406 218.765625 206.089844 C 218.773438 206.378906 218.808594 206.664062 218.851562 206.945312 C 215.707031 205.089844 212.609375 203.679688 209.710938 202.613281 C 209.929688 202.457031 210.136719 202.28125 210.308594 202.070312 C 210.882812 201.371094 211.171875 200.484375 211.148438 199.566406 C 211.105469 197.671875 210.136719 195.746094 209.152344 194.203125 C 209.175781 194.773438 208.902344 195.582031 208.683594 196.144531 C 208.472656 196.679688 207.433594 197.796875 207.667969 198.238281 C 207.257812 197.464844 207.3125 196.394531 206.949219 195.589844 C 206.222656 193.984375 205.128906 192.878906 203.617188 192.054688 C 203.007812 191.722656 201.722656 190.800781 201.554688 190.054688 C 201.808594 191.203125 202.101562 192.335938 202.242188 193.507812 C 202.363281 194.539062 202.441406 195.585938 202.46875 196.625 C 202.503906 197.722656 202.28125 198.867188 202.671875 199.90625 C 202.832031 200.324219 203.039062 200.726562 203.28125 201.09375 C 203.253906 201.101562 203.222656 201.109375 203.191406 201.117188 C 202.34375 201.378906 201.738281 202.105469 201.035156 202.640625 C 200.367188 203.144531 199.667969 203.625 198.960938 204.0625 C 198.15625 204.5625 197.296875 204.9375 196.445312 205.347656 C 197 205.082031 198.226562 205.484375 198.746094 205.730469 C 200.027344 206.339844 201.273438 206.523438 202.652344 206.199219 C 203.339844 206.039062 203.984375 205.460938 204.675781 205.347656 C 204.28125 205.410156 204.105469 206.683594 203.875 207.09375 C 203.632812 207.527344 203.261719 208.121094 202.894531 208.394531 C 204.359375 208.28125 206.0625 207.964844 207.269531 207.039062 C 207.859375 206.585938 208.265625 205.941406 208.417969 205.195312 C 208.492188 204.835938 208.484375 204.460938 208.414062 204.09375 C 208.363281 203.8125 208.273438 203.539062 208.15625 203.277344 C 208.160156 203.277344 208.160156 203.277344 208.160156 203.277344 C 211.074219 204.363281 214.214844 205.8125 217.410156 207.722656 C 217.027344 207.859375 216.644531 208.019531 216.253906 208.136719 C 215.4375 208.378906 214.601562 208.589844 213.765625 208.753906 C 212.820312 208.941406 211.859375 208.988281 210.902344 209.074219 C 211.523438 209.023438 212.574219 209.863281 212.992188 210.289062 C 214.027344 211.34375 215.171875 211.976562 216.617188 212.171875 C 217.332031 212.269531 218.152344 211.945312 218.859375 212.085938 C 218.457031 212.003906 217.855469 213.167969 217.496094 213.484375 C 217.113281 213.816406 216.554688 214.257812 216.109375 214.386719 C 217.5625 214.8125 219.316406 215.125 220.800781 214.671875 C 221.519531 214.449219 222.136719 213.976562 222.53125 213.3125 C 222.722656 212.988281 222.84375 212.625 222.902344 212.242188 C 222.941406 212 222.945312 211.75 222.933594 211.5 C 225.675781 213.632812 228.371094 216.164062 230.910156 219.148438 C 230.242188 219.050781 229.542969 219.121094 228.863281 219.070312 C 227.957031 219.003906 227.039062 218.898438 226.140625 218.746094 C 225.121094 218.574219 224.140625 218.257812 223.144531 217.976562 C 223.789062 218.160156 224.554688 219.410156 224.824219 219.996094 C 225.492188 221.453125 226.421875 222.527344 227.804688 223.273438 C 228.492188 223.640625 229.433594 223.628906 230.09375 224.042969 C 229.71875 223.804688 228.703125 224.75 228.226562 224.925781 C 227.726562 225.113281 227.011719 225.34375 226.511719 225.304688 C 227.828125 226.292969 229.480469 227.273438 231.136719 227.382812 C 231.9375 227.433594 232.726562 227.191406 233.359375 226.671875 C 233.667969 226.421875 233.917969 226.101562 234.109375 225.738281 C 234.257812 225.464844 234.367188 225.167969 234.449219 224.859375 C 234.769531 225.046875 235.117188 225.191406 235.46875 225.296875 C 237.320312 228.296875 238.910156 231.636719 240.132812 235.222656 C 240.128906 235.230469 240.125 235.238281 240.121094 235.246094 C 240.097656 235.21875 240.070312 235.191406 240.042969 235.164062 C 239.289062 234.417969 238.21875 234.207031 237.28125 233.773438 C 236.394531 233.363281 235.515625 232.910156 234.667969 232.417969 C 233.707031 231.859375 232.832031 231.167969 231.933594 230.507812 C 232.515625 230.9375 232.84375 232.476562 232.90625 233.167969 C 233.066406 234.882812 233.621094 236.3125 234.746094 237.582031 C 235.308594 238.214844 236.253906 238.558594 236.773438 239.222656 C 236.476562 238.84375 235.128906 239.402344 234.589844 239.402344 C 234.023438 239.402344 233.222656 239.363281 232.738281 239.132812 C 233.707031 240.617188 235.019531 242.230469 236.640625 242.964844 C 237.429688 243.324219 238.300781 243.375 239.117188 243.097656 C 239.515625 242.964844 239.878906 242.738281 240.199219 242.445312 C 240.445312 242.226562 240.660156 241.96875 240.847656 241.691406 C 241.15625 242.066406 241.507812 242.398438 241.898438 242.664062 C 241.953125 242.703125 242.015625 242.738281 242.074219 242.773438 C 242.644531 245.996094 242.910156 249.339844 242.816406 252.746094 C 242.324219 251.71875 241.328125 251.101562 240.542969 250.316406 C 239.800781 249.570312 239.082031 248.785156 238.410156 247.972656 C 237.644531 247.050781 237.011719 246.03125 236.347656 245.035156 C 236.78125 245.683594 236.566406 247.34375 236.386719 248.058594 C 235.945312 249.832031 236 251.464844 236.679688 253.160156 C 237.019531 254.003906 237.84375 254.703125 238.128906 255.5625 C 237.96875 255.074219 236.425781 255.121094 235.890625 254.917969 C 235.320312 254.703125 234.535156 254.359375 234.132812 253.949219 C 234.582031 255.800781 235.332031 257.90625 236.695312 259.25 C 237.351562 259.90625 238.207031 260.289062 239.117188 260.320312 C 239.5625 260.332031 240.007812 260.246094 240.425781 260.078125 C 240.746094 259.949219 241.050781 259.777344 241.335938 259.570312 C 241.488281 259.984375 241.6875 260.378906 241.925781 260.742188 C 241.363281 263.570312 240.535156 266.414062 239.402344 269.238281 C 239.125 268.3125 238.542969 267.496094 238.132812 266.621094 C 237.652344 265.601562 237.210938 264.550781 236.824219 263.488281 C 236.382812 262.285156 236.109375 261.03125 235.792969 259.789062 C 236 260.59375 235.210938 262.167969 234.78125 262.8125 C 233.726562 264.410156 233.210938 266.058594 233.296875 268 C 233.339844 268.964844 233.917969 269.972656 233.902344 270.933594 C 233.910156 270.386719 232.359375 269.855469 231.894531 269.449219 C 231.40625 269.023438 230.746094 268.382812 230.488281 267.824219 C 230.292969 269.835938 230.300781 272.210938 231.183594 274.0625 C 231.613281 274.960938 232.332031 275.664062 233.226562 276.039062 C 233.664062 276.222656 234.136719 276.296875 234.613281 276.289062 C 234.976562 276.28125 235.339844 276.226562 235.695312 276.128906 C 235.699219 276.320312 235.71875 276.507812 235.738281 276.695312 C 234.292969 279.0625 232.625 281.332031 230.753906 283.476562 C 230.683594 282.710938 230.496094 281.945312 230.417969 281.1875 C 230.296875 279.996094 230.226562 278.785156 230.210938 277.585938 C 230.195312 276.226562 230.355469 274.882812 230.476562 273.527344 C 230.398438 274.410156 229.070312 275.671875 228.421875 276.152344 C 226.816406 277.339844 225.734375 278.78125 225.144531 280.738281 C 224.851562 281.714844 225.074219 282.929688 224.726562 283.875 C 224.925781 283.335938 223.570312 282.226562 223.25 281.652344 C 222.914062 281.042969 222.480469 280.160156 222.417969 279.507812 C 221.648438 281.164062 220.941406 283.144531 220.910156 285.050781 C 220.269531 285.722656 218.925781 286.285156 218.25 286.480469 C 216.253906 287.054688 214.683594 288.074219 213.421875 289.792969 C 212.792969 290.648438 212.59375 291.933594 211.917969 292.738281 C 212.300781 292.28125 211.347656 290.675781 211.230469 289.984375 C 211.109375 289.261719 210.984375 288.226562 211.148438 287.558594 C 209.601562 289.125 207.976562 291.152344 207.457031 293.386719 C 207.417969 293.550781 207.394531 293.710938 207.371094 293.875 C 206.683594 293.984375 205.953125 293.992188 205.515625 293.957031 C 203.449219 293.789062 201.636719 294.1875 199.886719 295.351562 C 199.015625 295.933594 198.40625 297.070312 197.503906 297.589844 C 198.019531 297.292969 197.648438 295.445312 197.765625 294.757812 C 197.890625 294.03125 198.113281 293.015625 198.488281 292.445312 C 196.515625 293.367188 194.324219 294.695312 193.101562 296.609375 C 192.503906 297.539062 192.253906 298.644531 192.40625 299.75 C 192.476562 300.289062 192.671875 300.804688 192.941406 301.273438 C 193.109375 301.5625 193.3125 301.828125 193.53125 302.078125 C 192 302.191406 190.457031 302.242188 188.898438 302.21875 C 187.40625 302.234375 185.929688 302.179688 184.464844 302.070312 C 184.726562 301.789062 184.964844 301.480469 185.15625 301.148438 C 185.429688 300.675781 185.621094 300.160156 185.691406 299.621094 C 185.84375 298.519531 185.59375 297.410156 184.996094 296.484375 C 183.773438 294.566406 181.582031 293.238281 179.613281 292.316406 C 179.984375 292.886719 180.210938 293.902344 180.332031 294.628906 C 180.449219 295.316406 180.082031 297.164062 180.59375 297.460938 C 179.691406 296.941406 179.082031 295.804688 178.210938 295.222656 C 176.460938 294.058594 174.648438 293.660156 172.585938 293.828125 C 172.074219 293.871094 171.164062 293.855469 170.390625 293.6875 C 170.371094 293.542969 170.34375 293.398438 170.3125 293.257812 C 169.792969 291.027344 168.167969 288.996094 166.621094 287.429688 C 166.785156 288.097656 166.660156 289.132812 166.535156 289.859375 C 166.421875 290.546875 165.464844 292.152344 165.851562 292.613281 C 165.175781 291.804688 164.972656 290.519531 164.347656 289.664062 C 163.085938 287.945312 161.515625 286.925781 159.519531 286.351562 C 158.839844 286.15625 157.496094 285.59375 156.859375 284.921875 C 156.828125 283.019531 156.117188 281.035156 155.351562 279.382812 C 155.289062 280.035156 154.855469 280.917969 154.515625 281.523438 C 154.199219 282.097656 152.84375 283.210938 153.042969 283.746094 C 152.695312 282.796875 152.917969 281.585938 152.625 280.609375 C 152.035156 278.652344 150.949219 277.210938 149.347656 276.023438 C 148.699219 275.542969 147.371094 274.28125 147.292969 273.402344 C 147.414062 274.753906 147.574219 276.097656 147.558594 277.460938 C 147.542969 278.65625 147.472656 279.867188 147.347656 281.058594 C 147.277344 281.738281 147.125 282.417969 147.042969 283.097656 C 145.164062 280.90625 143.496094 278.589844 142.058594 276.171875 C 142.0625 276.113281 142.070312 276.058594 142.070312 276 C 142.425781 276.097656 142.792969 276.15625 143.15625 276.160156 C 143.632812 276.171875 144.105469 276.09375 144.539062 275.910156 C 145.4375 275.539062 146.152344 274.832031 146.582031 273.933594 C 147.46875 272.082031 147.476562 269.707031 147.28125 267.699219 C 147.023438 268.257812 146.359375 268.894531 145.875 269.320312 C 145.410156 269.726562 143.859375 270.257812 143.867188 270.804688 C 143.851562 269.84375 144.429688 268.839844 144.472656 267.871094 C 144.558594 265.929688 144.042969 264.28125 142.984375 262.683594 C 142.558594 262.039062 141.769531 260.464844 141.972656 259.660156 C 141.65625 260.902344 141.382812 262.15625 140.945312 263.359375 C 140.558594 264.421875 140.117188 265.476562 139.636719 266.496094 C 139.285156 267.242188 138.808594 267.945312 138.503906 268.710938 C 137.40625 265.890625 136.605469 263.054688 136.078125 260.230469 C 136.210938 259.976562 136.332031 259.714844 136.429688 259.441406 C 136.714844 259.648438 137.023438 259.820312 137.34375 259.949219 C 137.761719 260.117188 138.207031 260.207031 138.648438 260.191406 C 139.5625 260.160156 140.417969 259.777344 141.074219 259.125 C 142.4375 257.777344 143.183594 255.671875 143.636719 253.820312 C 143.234375 254.230469 142.445312 254.574219 141.882812 254.792969 C 141.34375 254.996094 139.800781 254.945312 139.640625 255.433594 C 139.921875 254.574219 140.75 253.878906 141.089844 253.03125 C 141.765625 251.339844 141.820312 249.703125 141.382812 247.929688 C 141.203125 247.214844 140.992188 245.554688 141.421875 244.90625 C 140.757812 245.90625 140.125 246.925781 139.359375 247.84375 C 138.683594 248.660156 137.964844 249.445312 137.222656 250.191406 C 136.582031 250.832031 135.800781 251.363281 135.269531 252.101562 C 135.21875 248.769531 135.515625 245.503906 136.09375 242.355469 C 136.394531 242.125 136.675781 241.863281 136.917969 241.5625 C 137.105469 241.839844 137.324219 242.097656 137.570312 242.320312 C 137.886719 242.609375 138.253906 242.835938 138.648438 242.96875 C 139.464844 243.25 140.339844 243.195312 141.125 242.835938 C 142.746094 242.101562 144.058594 240.492188 145.03125 239.003906 C 144.546875 239.234375 143.746094 239.273438 143.179688 239.277344 C 142.640625 239.277344 141.292969 238.714844 140.996094 239.09375 C 141.515625 238.429688 142.460938 238.089844 143.023438 237.457031 C 144.148438 236.183594 144.703125 234.753906 144.863281 233.039062 C 144.925781 232.347656 145.25 230.808594 145.835938 230.382812 C 144.9375 231.039062 144.0625 231.730469 143.101562 232.289062 C 142.253906 232.78125 141.375 233.238281 140.484375 233.648438 C 139.710938 234.003906 138.847656 234.214844 138.144531 234.699219 C 139.382812 231.191406 140.96875 227.921875 142.8125 224.984375 C 142.984375 224.90625 143.15625 224.828125 143.320312 224.730469 C 143.398438 225.039062 143.511719 225.335938 143.65625 225.613281 C 143.851562 225.972656 144.101562 226.292969 144.410156 226.542969 C 145.042969 227.0625 145.832031 227.304688 146.632812 227.253906 C 148.289062 227.144531 149.941406 226.164062 151.253906 225.179688 C 150.757812 225.21875 150.039062 224.988281 149.539062 224.800781 C 149.066406 224.621094 148.050781 223.675781 147.671875 223.914062 C 148.335938 223.5 149.273438 223.515625 149.964844 223.144531 C 151.347656 222.398438 152.277344 221.324219 152.945312 219.867188 C 153.214844 219.277344 153.976562 218.03125 154.625 217.847656 C 153.628906 218.128906 152.644531 218.449219 151.625 218.621094 C 150.726562 218.769531 149.8125 218.878906 148.902344 218.941406 C 148.375 218.980469 147.832031 218.949219 147.300781 218.976562 C 149.703125 216.175781 152.246094 213.78125 154.832031 211.738281 C 154.835938 211.867188 154.847656 211.992188 154.867188 212.117188 C 154.921875 212.496094 155.042969 212.863281 155.238281 213.183594 C 155.636719 213.847656 156.246094 214.324219 156.96875 214.542969 C 158.453125 215 160.207031 214.6875 161.664062 214.257812 C 161.214844 214.128906 160.652344 213.6875 160.273438 213.355469 C 159.910156 213.042969 159.308594 211.878906 158.90625 211.960938 C 159.613281 211.816406 160.433594 212.140625 161.152344 212.042969 C 162.597656 211.851562 163.742188 211.21875 164.773438 210.160156 C 165.191406 209.734375 166.242188 208.890625 166.867188 208.949219 C 165.910156 208.863281 164.949219 208.816406 164 208.625 C 163.167969 208.460938 162.332031 208.253906 161.511719 208.011719 C 161.230469 207.925781 160.953125 207.816406 160.675781 207.710938 C 163.710938 205.898438 166.703125 204.503906 169.503906 203.433594 C 169.441406 203.609375 169.386719 203.785156 169.351562 203.964844 C 169.285156 204.332031 169.277344 204.710938 169.351562 205.070312 C 169.503906 205.8125 169.910156 206.457031 170.496094 206.910156 C 171.707031 207.835938 173.40625 208.15625 174.871094 208.269531 C 174.503906 207.996094 174.136719 207.398438 173.894531 206.964844 C 173.664062 206.554688 173.488281 205.285156 173.09375 205.21875 C 173.785156 205.335938 174.429688 205.910156 175.117188 206.070312 C 176.496094 206.394531 177.742188 206.210938 179.023438 205.601562 C 179.542969 205.359375 180.769531 204.953125 181.324219 205.21875 C 180.472656 204.808594 179.613281 204.433594 178.808594 203.933594 C 178.097656 203.496094 177.402344 203.019531 176.738281 202.511719 C 176.03125 201.980469 175.425781 201.25 174.578125 200.988281 C 174.546875 200.980469 174.515625 200.976562 174.484375 200.96875 C 174.730469 200.597656 174.9375 200.199219 175.09375 199.777344 C 175.484375 198.738281 175.265625 197.59375 175.296875 196.496094 C 175.324219 195.457031 175.40625 194.410156 175.523438 193.378906 C 175.664062 192.207031 175.957031 191.074219 176.214844 189.925781 C 176.046875 190.671875 174.761719 191.59375 174.152344 191.925781 C 172.640625 192.75 171.546875 193.855469 170.816406 195.464844 C 170.457031 196.269531 170.507812 197.335938 170.101562 198.109375 C 170.335938 197.667969 169.296875 196.550781 169.085938 196.019531 C 168.867188 195.457031 168.59375 194.644531 168.613281 194.078125 C 167.632812 195.617188 166.660156 197.546875 166.617188 199.4375 C 166.59375 200.355469 166.886719 201.242188 167.460938 201.941406 C 167.691406 202.226562 167.976562 202.449219 168.289062 202.636719 C 165.292969 203.742188 162.089844 205.214844 158.847656 207.164062 C 158.933594 206.769531 158.992188 206.367188 159 205.960938 C 159.027344 204.8125 158.425781 203.789062 158.085938 202.714844 C 157.761719 201.699219 157.480469 200.660156 157.25 199.617188 C 156.988281 198.433594 156.886719 197.230469 156.746094 196.023438 C 156.835938 196.808594 155.90625 198.167969 155.429688 198.714844 C 154.246094 200.066406 153.5625 201.535156 153.402344 203.355469 C 153.324219 204.265625 153.738281 205.28125 153.605469 206.175781 C 153.679688 205.667969 152.296875 204.964844 151.914062 204.523438 C 151.511719 204.0625 150.972656 203.378906 150.800781 202.820312 C 150.371094 204.671875 150.085938 206.890625 150.683594 208.734375 C 150.972656 209.632812 151.554688 210.382812 152.347656 210.851562 C 152.574219 210.988281 152.820312 211.085938 153.074219 211.160156 C 150.5625 213.148438 148.089844 215.46875 145.738281 218.164062 C 145.707031 218.054688 145.6875 217.945312 145.652344 217.839844 C 145.273438 216.675781 144.304688 215.871094 143.585938 214.921875 C 142.902344 214.019531 142.253906 213.082031 141.652344 212.117188 C 140.972656 211.027344 140.445312 209.851562 139.878906 208.695312 C 140.246094 209.449219 139.789062 211.171875 139.5 211.90625 C 138.785156 213.714844 138.613281 215.453125 139.097656 217.347656 C 139.339844 218.296875 140.113281 219.15625 140.296875 220.113281 C 140.191406 219.570312 138.550781 219.390625 138.011719 219.09375 C 137.441406 218.78125 136.65625 218.292969 136.289062 217.800781 C 136.507812 219.828125 137.003906 222.167969 138.257812 223.800781 C 138.824219 224.539062 139.605469 225.050781 140.488281 225.253906 C 138.972656 227.769531 137.628906 230.503906 136.523438 233.417969 C 135.742188 232.632812 134.667969 232.222656 133.742188 231.632812 C 132.742188 230.988281 131.761719 230.289062 130.820312 229.554688 C 129.757812 228.71875 128.816406 227.742188 127.839844 226.796875 C 128.472656 227.414062 128.621094 229.316406 128.585938 230.15625 C 128.507812 232.242188 128.945312 234.046875 130.097656 235.765625 C 130.671875 236.625 131.75 237.195312 132.265625 238.082031 C 131.972656 237.578125 130.265625 238.019531 129.621094 237.925781 C 128.941406 237.828125 127.984375 237.640625 127.4375 237.285156 C 128.371094 239.230469 129.691406 241.390625 131.519531 242.550781 C 132.230469 243.003906 133.039062 243.222656 133.859375 243.195312 C 133.402344 245.871094 133.148438 248.625 133.125 251.429688 C 132.089844 250.976562 130.898438 250.960938 129.785156 250.722656 C 128.5625 250.460938 127.339844 250.132812 126.144531 249.753906 C 124.785156 249.320312 123.507812 248.699219 122.203125 248.125 C 123.050781 248.5 123.863281 250.347656 124.125 251.195312 C 124.773438 253.308594 125.84375 254.949219 127.59375 256.230469 C 128.464844 256.867188 129.742188 257.03125 130.570312 257.722656 C 130.097656 257.328125 128.546875 258.414062 127.871094 258.566406 C 127.15625 258.722656 126.136719 258.898438 125.46875 258.746094 C 127.082031 260.339844 129.152344 262 131.386719 262.464844 C 132.34375 262.667969 133.328125 262.546875 134.203125 262.117188 C 134.710938 264.507812 135.40625 266.914062 136.3125 269.308594 C 135.011719 269.132812 133.71875 269.628906 132.421875 269.824219 C 131.113281 270.023438 129.78125 270.160156 128.460938 270.234375 C 126.960938 270.3125 125.46875 270.179688 123.972656 270.097656 C 124.945312 270.148438 126.398438 271.679688 126.957031 272.429688 C 128.335938 274.285156 129.972656 275.515625 132.15625 276.128906 C 133.246094 276.4375 134.578125 276.121094 135.640625 276.496094 C 135.035156 276.28125 133.871094 277.945312 133.25 278.347656 C 132.59375 278.773438 131.640625 279.335938 130.921875 279.4375 C 133.082031 280.414062 135.722656 281.285156 138.105469 280.910156 C 139.261719 280.726562 140.304688 280.128906 141.054688 279.191406 C 141.082031 279.15625 141.105469 279.117188 141.136719 279.082031 C 142.460938 281.136719 143.941406 283.121094 145.582031 285.007812 C 145.492188 285.019531 145.398438 285.019531 145.308594 285.035156 C 143.828125 285.265625 142.648438 286.34375 141.351562 287.070312 C 140.121094 287.757812 138.847656 288.394531 137.5625 288.960938 C 136.101562 289.601562 134.578125 290.027344 133.0625 290.507812 C 134.046875 290.195312 136.019531 291.171875 136.832031 291.703125 C 138.84375 293.027344 140.898438 293.632812 143.277344 293.421875 C 144.464844 293.320312 145.675781 292.503906 146.859375 292.480469 C 146.183594 292.492188 145.605469 294.578125 145.128906 295.214844 C 144.628906 295.882812 143.875 296.792969 143.203125 297.164062 C 145.683594 297.324219 148.601562 297.199219 150.835938 295.929688 C 151.921875 295.316406 152.75 294.332031 153.164062 293.121094 C 153.25 292.878906 153.304688 292.625 153.347656 292.371094 C 155.226562 293.84375 157.210938 295.210938 159.285156 296.460938 C 159.070312 296.558594 158.851562 296.65625 158.644531 296.773438 C 157.257812 297.5625 156.46875 299.066406 155.433594 300.273438 C 154.457031 301.414062 153.417969 302.519531 152.339844 303.5625 C 151.121094 304.742188 149.757812 305.730469 148.429688 306.773438 C 149.292969 306.097656 151.578125 306.324219 152.570312 306.546875 C 155.019531 307.101562 157.257812 306.933594 159.542969 305.835938 C 160.679688 305.289062 161.59375 304.03125 162.757812 303.5625 C 162.09375 303.828125 162.246094 306.109375 161.996094 306.914062 C 161.730469 307.761719 161.300781 308.945312 160.761719 309.566406 C 163.273438 308.796875 166.117188 307.574219 167.886719 305.488281 C 168.746094 304.476562 169.226562 303.191406 169.21875 301.839844 C 169.214844 301.621094 169.195312 301.410156 169.164062 301.195312 C 171.347656 301.996094 173.59375 302.675781 175.886719 303.207031 C 175.644531 303.4375 175.410156 303.679688 175.191406 303.9375 C 174.152344 305.164062 173.902344 306.859375 173.328125 308.359375 C 172.785156 309.78125 172.171875 311.1875 171.503906 312.550781 C 170.742188 314.09375 169.789062 315.511719 168.882812 316.960938 C 169.476562 316.019531 171.695312 315.417969 172.699219 315.277344 C 175.1875 314.925781 177.234375 313.972656 179.015625 312.128906 C 179.910156 311.210938 180.351562 309.703125 181.289062 308.847656 C 180.753906 309.335938 181.648438 311.421875 181.679688 312.269531 C 181.707031 313.160156 181.695312 314.425781 181.390625 315.199219 C 183.496094 313.582031 185.765625 311.425781 186.746094 308.835938 C 187.21875 307.578125 187.246094 306.203125 186.792969 304.933594 C 186.757812 304.828125 186.714844 304.730469 186.667969 304.632812 C 187.40625 304.65625 188.148438 304.664062 188.890625 304.65625 C 189.761719 304.667969 190.625 304.65625 191.484375 304.625 C 191.417969 304.769531 191.355469 304.914062 191.304688 305.058594 C 190.851562 306.328125 190.878906 307.707031 191.351562 308.960938 C 192.332031 311.554688 194.601562 313.710938 196.707031 315.328125 C 196.402344 314.554688 196.390625 313.289062 196.421875 312.398438 C 196.449219 311.550781 197.34375 309.464844 196.808594 308.976562 C 197.746094 309.832031 198.1875 311.335938 199.082031 312.257812 C 200.863281 314.101562 202.914062 315.054688 205.398438 315.402344 C 206.402344 315.546875 208.625 316.148438 209.214844 317.089844 C 208.308594 315.636719 207.355469 314.222656 206.597656 312.679688 C 205.925781 311.316406 205.3125 309.910156 204.773438 308.488281 C 204.195312 306.988281 203.945312 305.292969 202.90625 304.066406 C 202.65625 303.769531 202.382812 303.5 202.097656 303.242188 C 204.316406 302.734375 206.488281 302.085938 208.601562 301.324219 C 208.574219 301.535156 208.550781 301.75 208.550781 301.964844 C 208.542969 303.316406 209.019531 304.601562 209.882812 305.613281 C 211.652344 307.703125 214.496094 308.921875 217.007812 309.691406 C 216.464844 309.074219 216.035156 307.890625 215.773438 307.042969 C 215.523438 306.234375 215.675781 303.953125 215.011719 303.6875 C 216.175781 304.15625 217.085938 305.414062 218.226562 305.960938 C 220.511719 307.058594 222.746094 307.230469 225.199219 306.675781 C 226.1875 306.449219 228.472656 306.226562 229.339844 306.902344 C 228.007812 305.859375 226.648438 304.871094 225.425781 303.6875 C 224.351562 302.644531 223.3125 301.539062 222.332031 300.398438 C 221.296875 299.195312 220.507812 297.691406 219.125 296.90625 C 218.9375 296.796875 218.746094 296.714844 218.554688 296.625 C 220.609375 295.40625 222.578125 294.066406 224.445312 292.625 C 224.484375 292.839844 224.535156 293.046875 224.605469 293.25 C 225.019531 294.460938 225.847656 295.445312 226.929688 296.058594 C 229.167969 297.324219 232.085938 297.453125 234.566406 297.292969 C 233.894531 296.921875 233.140625 296.011719 232.636719 295.34375 C 232.164062 294.707031 231.585938 292.621094 230.910156 292.605469 C 232.09375 292.632812 233.300781 293.449219 234.488281 293.550781 C 236.871094 293.761719 238.921875 293.15625 240.9375 291.832031 C 241.75 291.296875 243.71875 290.324219 244.703125 290.636719 C 243.191406 290.15625 241.664062 289.730469 240.207031 289.089844 C 238.921875 288.523438 237.648438 287.886719 236.417969 287.199219 C 235.117188 286.472656 233.941406 285.394531 232.460938 285.160156 C 232.441406 285.160156 232.425781 285.160156 232.410156 285.15625 C 234.015625 283.320312 235.472656 281.390625 236.777344 279.390625 C 237.519531 280.285156 238.535156 280.859375 239.664062 281.035156 C 242.046875 281.410156 244.6875 280.539062 246.84375 279.5625 C 246.128906 279.460938 245.171875 278.902344 244.519531 278.480469 C 243.898438 278.074219 242.734375 276.410156 242.128906 276.621094 C 243.191406 276.246094 244.519531 276.566406 245.609375 276.257812 C 247.796875 275.640625 249.433594 274.414062 250.816406 272.558594 C 251.371094 271.808594 252.820312 270.277344 253.792969 270.222656 C 252.296875 270.304688 250.808594 270.441406 249.308594 270.363281 C 247.988281 270.289062 246.65625 270.152344 245.34375 269.953125 C 244.152344 269.773438 242.957031 269.332031 241.761719 269.402344 C 242.648438 267.058594 243.339844 264.710938 243.847656 262.367188 C 244.648438 262.695312 245.527344 262.773438 246.382812 262.59375 C 248.613281 262.125 250.6875 260.46875 252.300781 258.875 C 251.632812 259.023438 250.609375 258.851562 249.898438 258.691406 C 249.21875 258.542969 247.667969 257.457031 247.199219 257.851562 C 248.023438 257.160156 249.304688 256.996094 250.175781 256.359375 C 251.925781 255.078125 252.996094 253.4375 253.644531 251.324219 " fill-opacity="1" fill-rule="nonzero"/><path fill="#aaabad" d="M 192 259.285156 C 189.640625 261.226562 187.871094 262.40625 185.683594 263.925781 L 185.683594 264.261719 C 191.496094 264.179688 203.871094 263.671875 209.179688 263.503906 L 209.347656 263.671875 C 209.347656 266.964844 209.09375 270.589844 208.753906 273.714844 C 204.882812 273.714844 187.621094 273.628906 181.390625 273.628906 C 176.589844 273.628906 172.71875 273.628906 170.695312 273.628906 C 169.855469 271.351562 169.011719 268.652344 168.421875 266.289062 C 174.148438 262.070312 177.265625 259.621094 180.882812 256.160156 C 187.871094 249.664062 193.9375 243.167969 193.9375 235.484375 C 193.9375 232.617188 193.347656 230.675781 192 228.988281 C 190.902344 227.46875 188.96875 226.625 186.863281 226.625 C 184.335938 226.625 182.484375 227.214844 181.304688 228.058594 C 181.054688 228.3125 180.96875 228.480469 180.800781 228.902344 L 178.863281 237.34375 C 176 237.089844 172.882812 236.75 170.191406 236.414062 C 170.441406 231.347656 170.777344 226.285156 171.117188 221.308594 C 175.15625 219.707031 181.980469 218.4375 187.621094 218.4375 C 195.285156 218.4375 199.914062 219.957031 203.453125 222.996094 C 206.820312 225.867188 208.671875 230.253906 208.671875 234.640625 C 208.671875 245.78125 198.0625 254.558594 192 259.285156 " fill-opacity="1" fill-rule="nonzero"/><path fill="#f2f2f2" d="M 202.332031 298.101562 C 203.007812 297.054688 203.738281 296.027344 204.507812 295.054688 C 204.925781 294.523438 205.375 294.023438 205.835938 293.539062 C 205.882812 294.136719 206.042969 294.71875 206.320312 295.261719 C 206.566406 295.742188 206.917969 296.15625 207.328125 296.503906 C 207.566406 296.707031 207.832031 296.875 208.105469 297.027344 C 206.042969 297.851562 203.914062 298.554688 201.734375 299.128906 C 201.925781 298.78125 202.121094 298.429688 202.332031 298.101562 Z M 216.964844 290.886719 C 217.257812 289.664062 217.605469 288.4375 218.007812 287.25 C 218.390625 286.109375 218.894531 285.027344 219.394531 283.941406 C 219.398438 284.175781 219.402344 284.410156 219.429688 284.640625 C 219.542969 285.691406 220.007812 286.65625 220.769531 287.363281 C 221.136719 287.707031 221.578125 287.964844 222.054688 288.132812 C 222.3125 288.222656 222.578125 288.28125 222.847656 288.328125 C 220.890625 289.929688 218.8125 291.414062 216.617188 292.757812 C 216.738281 292.136719 216.820312 291.5 216.964844 290.886719 Z M 153.96875 287.238281 C 154.726562 286.527344 155.195312 285.566406 155.308594 284.511719 C 155.332031 284.28125 155.339844 284.050781 155.34375 283.816406 C 155.839844 284.898438 156.347656 285.980469 156.730469 287.121094 C 157.128906 288.308594 157.476562 289.539062 157.769531 290.761719 C 157.90625 291.339844 157.988281 291.9375 158.097656 292.527344 C 155.972656 291.203125 153.957031 289.746094 152.058594 288.175781 C 152.269531 288.132812 152.476562 288.078125 152.679688 288.003906 C 153.15625 287.835938 153.597656 287.582031 153.96875 287.238281 Z M 168.414062 295.132812 C 168.742188 294.492188 168.910156 293.792969 168.917969 293.082031 C 169.488281 293.671875 170.050781 294.273438 170.558594 294.925781 C 171.328125 295.902344 172.058594 296.929688 172.734375 297.976562 C 172.976562 298.347656 173.191406 298.742188 173.410156 299.136719 C 171.09375 298.53125 168.832031 297.78125 166.644531 296.890625 C 166.914062 296.742188 167.171875 296.574219 167.410156 296.375 C 167.820312 296.03125 168.167969 295.613281 168.414062 295.132812 Z M 252.128906 250.003906 C 252.390625 249.152344 253.203125 247.308594 254.046875 246.933594 C 252.746094 247.507812 251.464844 248.128906 250.109375 248.558594 C 248.914062 248.941406 247.691406 249.265625 246.464844 249.53125 C 245.472656 249.742188 244.410156 249.777344 243.453125 250.109375 C 243.429688 247.347656 243.1875 244.632812 242.746094 242 C 243.441406 241.960938 244.125 241.742188 244.734375 241.359375 C 246.5625 240.195312 247.882812 238.039062 248.8125 236.089844 C 248.269531 236.445312 247.3125 236.632812 246.632812 236.730469 C 245.988281 236.824219 244.28125 236.382812 243.984375 236.886719 C 244.503906 236 245.582031 235.429688 246.15625 234.574219 C 247.308594 232.855469 247.746094 231.046875 247.664062 228.960938 C 247.632812 228.121094 247.777344 226.21875 248.410156 225.605469 C 247.4375 226.550781 246.496094 227.523438 245.429688 228.363281 C 244.492188 229.097656 243.511719 229.796875 242.507812 230.4375 C 241.6875 230.964844 240.75 231.351562 240.003906 231.976562 C 238.910156 229.121094 237.589844 226.433594 236.101562 223.96875 C 236.84375 223.71875 237.5 223.25 237.996094 222.605469 C 239.25 220.976562 239.742188 218.632812 239.964844 216.605469 C 239.59375 217.101562 238.8125 217.585938 238.242188 217.898438 C 237.699219 218.195312 236.0625 218.375 235.957031 218.917969 C 236.140625 217.964844 236.914062 217.101562 237.15625 216.15625 C 237.640625 214.257812 237.46875 212.519531 236.753906 210.710938 C 236.464844 209.980469 236.003906 208.253906 236.375 207.5 C 235.808594 208.660156 235.28125 209.832031 234.597656 210.921875 C 234 211.882812 233.347656 212.828125 232.667969 213.726562 C 231.953125 214.664062 231.003906 215.460938 230.613281 216.605469 C 228.332031 214.015625 225.933594 211.78125 223.5 209.851562 C 223.640625 209.796875 223.773438 209.734375 223.90625 209.65625 C 224.695312 209.191406 225.277344 208.4375 225.566406 207.542969 C 226.164062 205.695312 225.878906 203.476562 225.453125 201.625 C 225.28125 202.183594 224.742188 202.867188 224.335938 203.332031 C 223.957031 203.769531 222.574219 204.472656 222.648438 204.984375 C 222.515625 204.085938 222.929688 203.070312 222.847656 202.164062 C 222.691406 200.339844 222.007812 198.867188 220.824219 197.519531 C 220.347656 196.976562 219.414062 195.613281 219.507812 194.832031 C 219.367188 196.035156 219.265625 197.242188 219.003906 198.421875 C 218.773438 199.464844 218.492188 200.507812 218.167969 201.523438 C 217.828125 202.597656 217.226562 203.621094 217.25 204.769531 C 217.257812 205.058594 217.292969 205.339844 217.335938 205.625 C 214.191406 203.765625 211.09375 202.359375 208.195312 201.292969 C 208.414062 201.136719 208.621094 200.960938 208.792969 200.75 C 209.367188 200.046875 209.65625 199.164062 209.632812 198.242188 C 209.589844 196.351562 208.621094 194.421875 207.636719 192.882812 C 207.660156 193.449219 207.382812 194.261719 207.164062 194.824219 C 206.957031 195.359375 205.917969 196.476562 206.152344 196.917969 C 205.742188 196.144531 205.796875 195.074219 205.433594 194.269531 C 204.707031 192.660156 203.609375 191.554688 202.101562 190.734375 C 201.492188 190.398438 200.207031 189.476562 200.039062 188.734375 C 200.292969 189.878906 200.585938 191.015625 200.726562 192.183594 C 200.847656 193.21875 200.925781 194.265625 200.953125 195.304688 C 200.988281 196.402344 200.765625 197.542969 201.15625 198.582031 C 201.316406 199.003906 201.519531 199.402344 201.765625 199.769531 C 201.738281 199.78125 201.707031 199.789062 201.675781 199.796875 C 200.828125 200.054688 200.222656 200.785156 199.515625 201.320312 C 198.847656 201.824219 198.152344 202.304688 197.445312 202.742188 C 196.640625 203.242188 195.78125 203.617188 194.929688 204.023438 C 195.484375 203.761719 196.710938 204.164062 197.230469 204.410156 C 198.511719 205.015625 199.757812 205.199219 201.136719 204.878906 C 201.824219 204.71875 202.46875 204.140625 203.160156 204.027344 C 202.765625 204.089844 202.589844 205.359375 202.359375 205.773438 C 202.117188 206.203125 201.746094 206.800781 201.378906 207.074219 C 202.84375 206.960938 204.546875 206.640625 205.753906 205.714844 C 206.34375 205.265625 206.75 204.617188 206.902344 203.875 C 206.976562 203.515625 206.96875 203.140625 206.898438 202.769531 C 206.847656 202.492188 206.757812 202.21875 206.640625 201.957031 C 206.644531 201.957031 206.644531 201.953125 206.644531 201.953125 C 209.558594 203.042969 212.699219 204.488281 215.894531 206.402344 C 215.507812 206.539062 215.128906 206.699219 214.738281 206.8125 C 213.921875 207.058594 213.085938 207.269531 212.25 207.433594 C 211.304688 207.621094 210.34375 207.667969 209.386719 207.75 C 210.007812 207.699219 211.058594 208.539062 211.476562 208.964844 C 212.511719 210.023438 213.65625 210.65625 215.101562 210.851562 C 215.816406 210.945312 216.636719 210.621094 217.34375 210.765625 C 216.941406 210.683594 216.339844 211.847656 215.980469 212.160156 C 215.597656 212.492188 215.039062 212.933594 214.59375 213.0625 C 216.046875 213.488281 217.796875 213.804688 219.285156 213.347656 C 220.003906 213.128906 220.621094 212.652344 221.015625 211.988281 C 221.207031 211.667969 221.328125 211.304688 221.386719 210.921875 C 221.425781 210.679688 221.429688 210.429688 221.417969 210.179688 C 224.160156 212.3125 226.855469 214.84375 229.394531 217.828125 C 228.726562 217.730469 228.027344 217.796875 227.347656 217.75 C 226.441406 217.683594 225.523438 217.578125 224.625 217.425781 C 223.605469 217.253906 222.625 216.9375 221.628906 216.65625 C 222.273438 216.839844 223.035156 218.085938 223.308594 218.675781 C 223.976562 220.132812 224.90625 221.207031 226.289062 221.949219 C 226.976562 222.320312 227.917969 222.304688 228.582031 222.71875 C 228.203125 222.484375 227.1875 223.425781 226.710938 223.605469 C 226.210938 223.792969 225.492188 224.023438 224.996094 223.984375 C 226.308594 224.96875 227.964844 225.953125 229.621094 226.058594 C 230.421875 226.113281 231.210938 225.867188 231.84375 225.351562 C 232.152344 225.101562 232.402344 224.777344 232.59375 224.417969 C 232.742188 224.140625 232.855469 223.84375 232.933594 223.539062 C 233.253906 223.726562 233.601562 223.871094 233.953125 223.976562 C 235.804688 226.972656 237.394531 230.316406 238.617188 233.902344 C 238.613281 233.910156 238.609375 233.917969 238.605469 233.925781 C 238.578125 233.898438 238.554688 233.867188 238.527344 233.84375 C 237.773438 233.097656 236.703125 232.882812 235.765625 232.453125 C 234.878906 232.042969 234 231.585938 233.152344 231.09375 C 232.191406 230.535156 231.316406 229.847656 230.417969 229.1875 C 231 229.613281 231.324219 231.152344 231.390625 231.847656 C 231.550781 233.5625 232.105469 234.992188 233.230469 236.257812 C 233.789062 236.894531 234.738281 237.238281 235.257812 237.902344 C 234.960938 237.523438 233.613281 238.082031 233.074219 238.082031 C 232.503906 238.078125 231.707031 238.039062 231.21875 237.8125 C 232.191406 239.296875 233.503906 240.90625 235.125 241.644531 C 235.914062 242 236.785156 242.054688 237.601562 241.777344 C 238 241.640625 238.363281 241.414062 238.683594 241.125 C 238.929688 240.90625 239.144531 240.648438 239.332031 240.371094 C 239.640625 240.742188 239.992188 241.078125 240.382812 241.34375 C 240.4375 241.382812 240.5 241.414062 240.558594 241.453125 C 241.128906 244.675781 241.394531 248.019531 241.300781 251.425781 C 240.808594 250.394531 239.8125 249.777344 239.027344 248.996094 C 238.285156 248.25 237.566406 247.464844 236.894531 246.652344 C 236.128906 245.730469 235.496094 244.710938 234.832031 243.714844 C 235.261719 244.363281 235.050781 246.019531 234.871094 246.738281 C 234.429688 248.507812 234.484375 250.144531 235.164062 251.839844 C 235.503906 252.683594 236.328125 253.378906 236.613281 254.242188 C 236.453125 253.75 234.910156 253.800781 234.371094 253.597656 C 233.804688 253.378906 233.019531 253.035156 232.617188 252.628906 C 233.066406 254.476562 233.8125 256.582031 235.175781 257.929688 C 235.835938 258.582031 236.6875 258.96875 237.601562 258.996094 C 238.046875 259.011719 238.492188 258.921875 238.910156 258.753906 C 239.230469 258.628906 239.535156 258.453125 239.824219 258.246094 C 239.972656 258.664062 240.171875 259.054688 240.410156 259.421875 C 239.847656 262.25 239.019531 265.09375 237.886719 267.914062 C 237.609375 266.992188 237.027344 266.175781 236.617188 265.300781 C 236.136719 264.28125 235.695312 263.226562 235.308594 262.167969 C 234.867188 260.960938 234.59375 259.710938 234.277344 258.464844 C 234.484375 259.273438 233.691406 260.84375 233.265625 261.492188 C 232.210938 263.085938 231.695312 264.734375 231.78125 266.679688 C 231.824219 267.644531 232.398438 268.648438 232.386719 269.613281 C 232.394531 269.066406 230.84375 268.53125 230.378906 268.128906 C 229.890625 267.699219 229.230469 267.0625 228.972656 266.5 C 228.777344 268.511719 228.785156 270.886719 229.667969 272.742188 C 230.097656 273.640625 230.816406 274.34375 231.710938 274.714844 C 232.148438 274.902344 232.621094 274.976562 233.097656 274.96875 C 233.460938 274.960938 233.824219 274.902344 234.179688 274.804688 C 234.183594 274.996094 234.203125 275.183594 234.222656 275.375 C 232.777344 277.738281 231.109375 280.011719 229.238281 282.152344 C 229.167969 281.390625 228.980469 280.625 228.90625 279.867188 C 228.78125 278.675781 228.710938 277.464844 228.695312 276.265625 C 228.675781 274.90625 228.839844 273.558594 228.960938 272.207031 C 228.882812 273.089844 227.554688 274.347656 226.90625 274.832031 C 225.300781 276.019531 224.21875 277.457031 223.628906 279.417969 C 223.335938 280.390625 223.558594 281.605469 223.210938 282.554688 C 223.410156 282.015625 222.054688 280.90625 221.734375 280.328125 C 221.398438 279.722656 220.964844 278.839844 220.902344 278.1875 C 220.132812 279.84375 219.425781 281.824219 219.394531 283.726562 C 218.753906 284.402344 217.414062 284.964844 216.734375 285.15625 C 214.738281 285.734375 213.164062 286.753906 211.90625 288.46875 C 211.277344 289.324219 211.078125 290.609375 210.402344 291.417969 C 210.785156 290.957031 209.832031 289.351562 209.714844 288.664062 C 209.59375 287.9375 209.46875 286.902344 209.632812 286.234375 C 208.085938 287.800781 206.460938 289.832031 205.941406 292.066406 C 205.902344 292.226562 205.875 292.390625 205.855469 292.554688 C 205.167969 292.664062 204.4375 292.671875 203.996094 292.636719 C 201.933594 292.46875 200.121094 292.867188 198.371094 294.03125 C 197.5 294.609375 196.890625 295.746094 195.988281 296.265625 C 196.5 295.972656 196.132812 294.125 196.25 293.433594 C 196.375 292.710938 196.597656 291.691406 196.972656 291.125 C 195.003906 292.042969 192.808594 293.375 191.585938 295.289062 C 190.988281 296.21875 190.738281 297.324219 190.890625 298.429688 C 190.960938 298.964844 191.15625 299.480469 191.425781 299.953125 C 191.59375 300.242188 191.796875 300.503906 192.015625 300.757812 C 190.484375 300.867188 188.941406 300.921875 187.382812 300.898438 C 185.890625 300.910156 184.414062 300.859375 182.949219 300.746094 C 183.210938 300.464844 183.445312 300.15625 183.640625 299.828125 C 183.914062 299.355469 184.105469 298.839844 184.175781 298.300781 C 184.328125 297.195312 184.078125 296.089844 183.480469 295.160156 C 182.257812 293.246094 180.066406 291.917969 178.097656 290.996094 C 178.46875 291.5625 178.695312 292.582031 178.816406 293.308594 C 178.933594 293.996094 178.566406 295.84375 179.078125 296.136719 C 178.175781 295.621094 177.566406 294.484375 176.695312 293.902344 C 174.945312 292.738281 173.132812 292.339844 171.070312 292.507812 C 170.558594 292.546875 169.648438 292.53125 168.875 292.363281 C 168.855469 292.222656 168.828125 292.078125 168.796875 291.9375 C 168.273438 289.703125 166.652344 287.671875 165.101562 286.105469 C 165.265625 286.777344 165.144531 287.8125 165.019531 288.535156 C 164.90625 289.226562 163.949219 290.828125 164.335938 291.289062 C 163.660156 290.480469 163.457031 289.195312 162.832031 288.339844 C 161.570312 286.625 159.996094 285.605469 158.003906 285.03125 C 157.324219 284.835938 155.980469 284.273438 155.34375 283.601562 C 155.308594 281.695312 154.601562 279.714844 153.832031 278.0625 C 153.773438 278.710938 153.339844 279.59375 153 280.199219 C 152.683594 280.777344 151.328125 281.886719 151.527344 282.425781 C 151.175781 281.476562 151.402344 280.261719 151.109375 279.289062 C 150.519531 277.332031 149.433594 275.890625 147.832031 274.699219 C 147.183594 274.21875 145.855469 272.960938 145.777344 272.082031 C 145.894531 273.433594 146.058594 274.777344 146.042969 276.136719 C 146.027344 277.335938 145.957031 278.546875 145.832031 279.738281 C 145.761719 280.414062 145.609375 281.097656 145.527344 281.777344 C 143.648438 279.585938 141.980469 277.265625 140.542969 274.851562 C 140.542969 274.792969 140.554688 274.734375 140.554688 274.679688 C 140.910156 274.777344 141.277344 274.832031 141.640625 274.839844 C 142.117188 274.847656 142.589844 274.769531 143.023438 274.589844 C 143.921875 274.214844 144.636719 273.511719 145.066406 272.613281 C 145.953125 270.761719 145.960938 268.386719 145.765625 266.375 C 145.507812 266.933594 144.84375 267.574219 144.355469 268 C 143.894531 268.40625 142.34375 268.9375 142.351562 269.484375 C 142.335938 268.519531 142.914062 267.515625 142.953125 266.550781 C 143.042969 264.605469 142.527344 262.957031 141.46875 261.363281 C 141.042969 260.71875 140.253906 259.148438 140.457031 258.339844 C 140.140625 259.582031 139.867188 260.832031 139.429688 262.039062 C 139.042969 263.101562 138.601562 264.152344 138.121094 265.175781 C 137.769531 265.917969 137.292969 266.625 136.988281 267.390625 C 135.890625 264.570312 135.089844 261.730469 134.5625 258.910156 C 134.695312 258.65625 134.816406 258.390625 134.914062 258.121094 C 135.199219 258.324219 135.507812 258.5 135.824219 258.628906 C 136.246094 258.792969 136.691406 258.886719 137.132812 258.871094 C 138.046875 258.839844 138.902344 258.457031 139.558594 257.800781 C 140.921875 256.453125 141.667969 254.347656 142.121094 252.5 C 141.714844 252.910156 140.929688 253.253906 140.363281 253.46875 C 139.828125 253.671875 138.285156 253.625 138.121094 254.113281 C 138.410156 253.253906 139.234375 252.554688 139.574219 251.710938 C 140.25 250.015625 140.304688 248.382812 139.867188 246.609375 C 139.6875 245.890625 139.472656 244.234375 139.90625 243.585938 C 139.238281 244.582031 138.609375 245.601562 137.84375 246.523438 C 137.167969 247.335938 136.449219 248.121094 135.707031 248.867188 C 135.066406 249.511719 134.285156 250.042969 133.753906 250.78125 C 133.703125 247.449219 133.996094 244.183594 134.578125 241.035156 C 134.878906 240.804688 135.160156 240.539062 135.402344 240.242188 C 135.589844 240.519531 135.808594 240.777344 136.050781 240.996094 C 136.371094 241.285156 136.738281 241.515625 137.132812 241.648438 C 137.949219 241.925781 138.824219 241.875 139.609375 241.515625 C 141.230469 240.78125 142.542969 239.167969 143.515625 237.683594 C 143.03125 237.910156 142.230469 237.953125 141.664062 237.953125 C 141.125 237.953125 139.777344 237.394531 139.480469 237.773438 C 140 237.109375 140.945312 236.765625 141.507812 236.132812 C 142.632812 234.863281 143.1875 233.433594 143.34375 231.71875 C 143.410156 231.027344 143.734375 229.484375 144.320312 229.058594 C 143.417969 229.71875 142.546875 230.40625 141.585938 230.96875 C 140.738281 231.460938 139.859375 231.914062 138.972656 232.324219 C 138.195312 232.679688 137.328125 232.894531 136.628906 233.375 C 137.867188 229.867188 139.453125 226.597656 141.296875 223.664062 C 141.46875 223.585938 141.640625 223.503906 141.804688 223.410156 C 141.882812 223.714844 141.996094 224.011719 142.140625 224.289062 C 142.335938 224.652344 142.585938 224.972656 142.894531 225.222656 C 143.527344 225.738281 144.316406 225.984375 145.117188 225.929688 C 146.773438 225.824219 148.425781 224.839844 149.738281 223.855469 C 149.242188 223.894531 148.523438 223.667969 148.023438 223.476562 C 147.550781 223.300781 146.535156 222.355469 146.15625 222.59375 C 146.820312 222.179688 147.757812 222.191406 148.449219 221.820312 C 149.832031 221.078125 150.761719 220.003906 151.429688 218.546875 C 151.699219 217.957031 152.460938 216.710938 153.109375 216.527344 C 152.113281 216.808594 151.128906 217.125 150.109375 217.296875 C 149.210938 217.449219 148.296875 217.558594 147.386719 217.621094 C 146.859375 217.660156 146.316406 217.628906 145.785156 217.65625 C 148.1875 214.855469 150.730469 212.460938 153.316406 210.417969 C 153.320312 210.546875 153.332031 210.667969 153.351562 210.792969 C 153.40625 211.175781 153.527344 211.542969 153.722656 211.863281 C 154.117188 212.527344 154.730469 213 155.453125 213.222656 C 156.9375 213.675781 158.691406 213.363281 160.144531 212.9375 C 159.699219 212.804688 159.136719 212.363281 158.757812 212.035156 C 158.394531 211.71875 157.792969 210.554688 157.390625 210.636719 C 158.097656 210.496094 158.917969 210.820312 159.636719 210.722656 C 161.082031 210.527344 162.226562 209.894531 163.257812 208.839844 C 163.675781 208.410156 164.726562 207.570312 165.351562 207.625 C 164.390625 207.542969 163.429688 207.492188 162.484375 207.304688 C 161.652344 207.140625 160.8125 206.929688 159.996094 206.6875 C 159.714844 206.601562 159.4375 206.492188 159.160156 206.390625 C 162.195312 204.574219 165.1875 203.179688 167.988281 202.113281 C 167.925781 202.289062 167.871094 202.464844 167.835938 202.644531 C 167.769531 203.011719 167.761719 203.386719 167.835938 203.75 C 167.984375 204.488281 168.394531 205.136719 168.980469 205.585938 C 170.191406 206.515625 171.890625 206.832031 173.355469 206.945312 C 172.988281 206.671875 172.621094 206.078125 172.378906 205.644531 C 172.148438 205.230469 171.972656 203.964844 171.578125 203.898438 C 172.269531 204.011719 172.914062 204.589844 173.601562 204.75 C 174.980469 205.070312 176.226562 204.886719 177.507812 204.28125 C 178.027344 204.035156 179.253906 203.632812 179.808594 203.894531 C 178.957031 203.488281 178.097656 203.113281 177.292969 202.613281 C 176.582031 202.175781 175.886719 201.695312 175.222656 201.191406 C 174.515625 200.65625 173.910156 199.925781 173.0625 199.667969 C 173.03125 199.660156 173 199.652344 172.96875 199.644531 C 173.214844 199.273438 173.421875 198.875 173.578125 198.453125 C 173.96875 197.414062 173.75 196.273438 173.78125 195.175781 C 173.808594 194.136719 173.886719 193.089844 174.007812 192.058594 C 174.148438 190.886719 174.441406 189.753906 174.695312 188.605469 C 174.53125 189.351562 173.246094 190.269531 172.636719 190.605469 C 171.125 191.429688 170.03125 192.535156 169.300781 194.144531 C 168.941406 194.945312 168.992188 196.015625 168.585938 196.789062 C 168.820312 196.347656 167.777344 195.230469 167.570312 194.695312 C 167.351562 194.132812 167.078125 193.320312 167.097656 192.753906 C 166.117188 194.292969 165.148438 196.222656 165.101562 198.117188 C 165.078125 199.035156 165.371094 199.921875 165.941406 200.621094 C 166.175781 200.90625 166.460938 201.128906 166.773438 201.316406 C 163.777344 202.421875 160.574219 203.890625 157.332031 205.839844 C 157.417969 205.449219 157.476562 205.046875 157.484375 204.640625 C 157.511719 203.492188 156.910156 202.464844 156.570312 201.394531 C 156.246094 200.378906 155.964844 199.335938 155.734375 198.292969 C 155.472656 197.113281 155.371094 195.90625 155.226562 194.703125 C 155.320312 195.488281 154.390625 196.847656 153.910156 197.390625 C 152.730469 198.742188 152.046875 200.210938 151.886719 202.035156 C 151.804688 202.945312 152.222656 203.957031 152.085938 204.855469 C 152.164062 204.34375 150.78125 203.644531 150.398438 203.203125 C 149.996094 202.738281 149.457031 202.054688 149.285156 201.496094 C 148.855469 203.347656 148.570312 205.566406 149.167969 207.414062 C 149.457031 208.3125 150.039062 209.0625 150.832031 209.53125 C 151.058594 209.667969 151.304688 209.765625 151.558594 209.835938 C 149.046875 211.824219 146.574219 214.144531 144.222656 216.84375 C 144.191406 216.734375 144.171875 216.625 144.136719 216.515625 C 143.757812 215.351562 142.789062 214.546875 142.070312 213.597656 C 141.386719 212.699219 140.734375 211.757812 140.136719 210.796875 C 139.453125 209.703125 138.929688 208.53125 138.363281 207.375 C 138.730469 208.125 138.269531 209.851562 137.984375 210.582031 C 137.269531 212.390625 137.097656 214.128906 137.582031 216.027344 C 137.824219 216.972656 138.597656 217.835938 138.78125 218.792969 C 138.675781 218.246094 137.035156 218.066406 136.496094 217.769531 C 135.925781 217.457031 135.140625 216.972656 134.773438 216.480469 C 134.992188 218.503906 135.488281 220.847656 136.742188 222.480469 C 137.308594 223.21875 138.089844 223.730469 138.972656 223.933594 C 137.457031 226.445312 136.113281 229.183594 135.007812 232.09375 C 134.226562 231.316406 133.152344 230.902344 132.226562 230.308594 C 131.226562 229.667969 130.246094 228.96875 129.304688 228.234375 C 128.242188 227.394531 127.300781 226.417969 126.324219 225.476562 C 126.957031 226.089844 127.105469 227.992188 127.070312 228.835938 C 126.992188 230.917969 127.429688 232.726562 128.582031 234.445312 C 129.152344 235.300781 130.234375 235.875 130.75 236.761719 C 130.457031 236.253906 128.75 236.699219 128.105469 236.605469 C 127.425781 236.503906 126.46875 236.316406 125.921875 235.960938 C 126.855469 237.910156 128.171875 240.070312 130.003906 241.230469 C 130.714844 241.679688 131.523438 241.902344 132.34375 241.875 C 131.886719 244.550781 131.628906 247.304688 131.609375 250.109375 C 130.570312 249.652344 129.378906 249.640625 128.269531 249.402344 C 127.046875 249.136719 125.824219 248.8125 124.628906 248.429688 C 123.269531 248 121.992188 247.378906 120.6875 246.804688 C 121.535156 247.179688 122.347656 249.023438 122.609375 249.875 C 123.257812 251.988281 124.328125 253.628906 126.078125 254.910156 C 126.949219 255.546875 128.226562 255.710938 129.050781 256.398438 C 128.582031 256.007812 127.03125 257.09375 126.355469 257.242188 C 125.640625 257.402344 124.621094 257.578125 123.953125 257.425781 C 125.566406 259.019531 127.636719 260.675781 129.871094 261.144531 C 130.828125 261.347656 131.8125 261.226562 132.6875 260.792969 C 133.195312 263.1875 133.890625 265.589844 134.792969 267.984375 C 133.496094 267.8125 132.199219 268.308594 130.90625 268.503906 C 129.597656 268.703125 128.265625 268.839844 126.945312 268.910156 C 125.445312 268.988281 123.953125 268.855469 122.457031 268.773438 C 123.429688 268.828125 124.882812 270.355469 125.4375 271.109375 C 126.820312 272.964844 128.457031 274.195312 130.640625 274.808594 C 131.730469 275.117188 133.0625 274.796875 134.125 275.171875 C 133.515625 274.960938 132.355469 276.621094 131.734375 277.027344 C 131.078125 277.453125 130.125 278.011719 129.40625 278.113281 C 131.566406 279.09375 134.207031 279.960938 136.589844 279.585938 C 137.746094 279.40625 138.789062 278.808594 139.539062 277.871094 C 139.566406 277.835938 139.589844 277.796875 139.621094 277.757812 C 140.945312 279.816406 142.425781 281.796875 144.066406 283.683594 C 143.976562 283.695312 143.882812 283.695312 143.792969 283.710938 C 142.3125 283.945312 141.136719 285.023438 139.835938 285.746094 C 138.605469 286.4375 137.332031 287.070312 136.046875 287.640625 C 134.585938 288.28125 133.058594 288.707031 131.546875 289.1875 C 132.53125 288.875 134.5 289.847656 135.316406 290.382812 C 137.328125 291.707031 139.378906 292.3125 141.761719 292.101562 C 142.949219 292 144.160156 291.183594 145.34375 291.15625 C 144.667969 291.171875 144.089844 293.257812 143.613281 293.894531 C 143.113281 294.5625 142.359375 295.472656 141.6875 295.84375 C 144.164062 296.003906 147.085938 295.875 149.320312 294.609375 C 150.40625 293.996094 151.234375 293.011719 151.648438 291.800781 C 151.734375 291.558594 151.789062 291.304688 151.832031 291.050781 C 153.710938 292.523438 155.695312 293.890625 157.769531 295.136719 C 157.554688 295.238281 157.335938 295.335938 157.128906 295.453125 C 155.742188 296.238281 154.953125 297.746094 153.917969 298.949219 C 152.941406 300.09375 151.902344 301.195312 150.824219 302.238281 C 149.605469 303.421875 148.242188 304.410156 146.914062 305.453125 C 147.777344 304.777344 150.0625 305 151.054688 305.226562 C 153.503906 305.777344 155.742188 305.609375 158.027344 304.511719 C 159.164062 303.964844 160.078125 302.707031 161.242188 302.238281 C 160.578125 302.503906 160.730469 304.785156 160.480469 305.589844 C 160.214844 306.441406 159.785156 307.625 159.246094 308.242188 C 161.753906 307.472656 164.601562 306.253906 166.371094 304.164062 C 167.230469 303.152344 167.707031 301.871094 167.703125 300.515625 C 167.699219 300.300781 167.679688 300.085938 167.648438 299.875 C 169.832031 300.675781 172.074219 301.351562 174.371094 301.886719 C 174.128906 302.113281 173.894531 302.355469 173.675781 302.613281 C 172.636719 303.84375 172.386719 305.539062 171.8125 307.039062 C 171.269531 308.460938 170.65625 309.867188 169.988281 311.226562 C 169.226562 312.773438 168.273438 314.1875 167.367188 315.636719 C 167.957031 314.695312 170.179688 314.09375 171.183594 313.953125 C 173.671875 313.605469 175.71875 312.652344 177.5 310.804688 C 178.394531 309.890625 178.835938 308.382812 179.773438 307.527344 C 179.238281 308.011719 180.132812 310.101562 180.164062 310.949219 C 180.191406 311.839844 180.179688 313.105469 179.875 313.878906 C 181.980469 312.261719 184.25 310.105469 185.230469 307.511719 C 185.703125 306.257812 185.730469 304.878906 185.277344 303.609375 C 185.242188 303.507812 185.195312 303.410156 185.152344 303.308594 C 185.890625 303.332031 186.632812 303.339844 187.375 303.335938 C 188.246094 303.347656 189.105469 303.335938 189.96875 303.304688 C 189.902344 303.445312 189.839844 303.589844 189.789062 303.738281 C 189.335938 305.007812 189.363281 306.386719 189.835938 307.640625 C 190.816406 310.230469 193.085938 312.390625 195.191406 314.003906 C 194.886719 313.230469 194.875 311.96875 194.90625 311.074219 C 194.933594 310.230469 195.828125 308.140625 195.292969 307.65625 C 196.230469 308.507812 196.671875 310.015625 197.566406 310.9375 C 199.347656 312.777344 201.398438 313.734375 203.882812 314.082031 C 204.886719 314.222656 207.109375 314.824219 207.699219 315.765625 C 206.792969 314.316406 205.839844 312.898438 205.082031 311.359375 C 204.410156 309.996094 203.796875 308.585938 203.253906 307.167969 C 202.679688 305.667969 202.429688 303.972656 201.390625 302.742188 C 201.140625 302.445312 200.867188 302.175781 200.582031 301.921875 C 202.800781 301.410156 204.972656 300.765625 207.085938 300 C 207.058594 300.214844 207.035156 300.429688 207.035156 300.644531 C 207.027344 301.996094 207.503906 303.28125 208.367188 304.292969 C 210.136719 306.378906 212.980469 307.601562 215.492188 308.371094 C 214.949219 307.75 214.523438 306.566406 214.257812 305.71875 C 214.003906 304.914062 214.160156 302.632812 213.496094 302.367188 C 214.660156 302.835938 215.570312 304.09375 216.710938 304.640625 C 218.992188 305.738281 221.230469 305.90625 223.683594 305.355469 C 224.671875 305.128906 226.957031 304.902344 227.824219 305.578125 C 226.492188 304.539062 225.132812 303.546875 223.910156 302.367188 C 222.835938 301.324219 221.796875 300.21875 220.816406 299.074219 C 219.78125 297.871094 218.992188 296.367188 217.605469 295.582031 C 217.421875 295.476562 217.230469 295.390625 217.039062 295.304688 C 219.09375 294.082031 221.0625 292.746094 222.929688 291.304688 C 222.96875 291.515625 223.015625 291.726562 223.085938 291.929688 C 223.503906 293.140625 224.332031 294.125 225.414062 294.738281 C 227.652344 296.003906 230.570312 296.132812 233.050781 295.972656 C 232.375 295.601562 231.621094 294.6875 231.121094 294.019531 C 230.644531 293.386719 230.070312 291.296875 229.394531 291.285156 C 230.578125 291.308594 231.785156 292.125 232.972656 292.230469 C 235.355469 292.4375 237.40625 291.832031 239.421875 290.511719 C 240.234375 289.976562 242.203125 289.003906 243.1875 289.3125 C 241.675781 288.835938 240.148438 288.410156 238.691406 287.765625 C 237.40625 287.199219 236.132812 286.566406 234.902344 285.875 C 233.601562 285.148438 232.425781 284.070312 230.945312 283.839844 C 230.925781 283.835938 230.910156 283.835938 230.894531 283.835938 C 232.496094 282 233.957031 280.066406 235.261719 278.070312 C 236.003906 278.964844 237.019531 279.539062 238.148438 279.714844 C 240.53125 280.089844 243.167969 279.21875 245.328125 278.242188 C 244.613281 278.136719 243.65625 277.582031 243.003906 277.15625 C 242.382812 276.753906 241.21875 275.085938 240.613281 275.300781 C 241.675781 274.925781 243.003906 275.246094 244.09375 274.9375 C 246.28125 274.320312 247.917969 273.089844 249.296875 271.234375 C 249.855469 270.484375 251.304688 268.957031 252.277344 268.902344 C 250.78125 268.984375 249.289062 269.117188 247.792969 269.039062 C 246.46875 268.96875 245.136719 268.832031 243.828125 268.632812 C 242.636719 268.453125 241.441406 268.011719 240.242188 268.082031 C 241.132812 265.738281 241.824219 263.386719 242.332031 261.042969 C 243.132812 261.371094 244.007812 261.453125 244.867188 261.273438 C 247.097656 260.804688 249.171875 259.148438 250.78125 257.554688 C 250.117188 257.703125 249.09375 257.53125 248.382812 257.371094 C 247.703125 257.21875 246.152344 256.136719 245.683594 256.527344 C 246.511719 255.839844 247.789062 255.675781 248.660156 255.035156 C 250.410156 253.757812 251.480469 252.113281 252.128906 250.003906 " fill-opacity="1" fill-rule="nonzero"/><path fill="#f2f2f2" d="M 190.484375 257.960938 C 188.125 259.902344 186.355469 261.085938 184.167969 262.601562 L 184.167969 262.941406 C 189.980469 262.855469 202.355469 262.351562 207.664062 262.179688 L 207.832031 262.351562 C 207.832031 265.644531 207.578125 269.269531 207.242188 272.394531 C 203.367188 272.394531 186.105469 272.308594 179.875 272.308594 C 175.074219 272.308594 171.199219 272.308594 169.179688 272.308594 C 168.339844 270.03125 167.496094 267.328125 166.90625 264.964844 C 172.632812 260.746094 175.75 258.300781 179.367188 254.839844 C 186.355469 248.34375 192.417969 241.84375 192.417969 234.164062 C 192.417969 231.292969 191.832031 229.351562 190.484375 227.664062 C 189.386719 226.148438 187.453125 225.304688 185.347656 225.304688 C 182.820312 225.304688 180.96875 225.894531 179.789062 226.738281 C 179.539062 226.988281 179.453125 227.160156 179.285156 227.582031 L 177.347656 236.019531 C 174.484375 235.765625 171.371094 235.429688 168.675781 235.09375 C 168.925781 230.027344 169.261719 224.964844 169.601562 219.984375 C 173.640625 218.382812 180.464844 217.117188 186.105469 217.117188 C 193.769531 217.117188 198.398438 218.636719 201.9375 221.675781 C 205.304688 224.542969 207.15625 228.929688 207.15625 233.320312 C 207.15625 244.457031 196.546875 253.234375 190.484375 257.960938 " fill-opacity="1" fill-rule="nonzero"/></svg>