<svg xmlns="http://www.w3.org/2000/svg" xmlns:xlink="http://www.w3.org/1999/xlink" width="500" zoomAndPan="magnify" viewBox="0 0 375 374.999991" height="500" preserveAspectRatio="xMidYMid meet" version="1.0"><defs><clipPath id="2b63906b3d"><path d="M 70.3125 111 L 292 111 L 292 337 L 70.3125 337 Z M 70.3125 111 " clip-rule="nonzero"/></clipPath></defs><g clip-path="url(#2b63906b3d)"><path fill="#ef7581" d="M 103.429688 111.195312 C 103.132812 110.894531 100.625 111.792969 100.328125 111.792969 C 96.929688 112.539062 93.535156 112.835938 89.992188 113.132812 C 86.890625 113.433594 70.644531 114.773438 70.644531 114.773438 C 70.644531 114.773438 71.828125 124.171875 71.972656 127.304688 C 72.121094 129.84375 72.269531 132.378906 72.417969 134.914062 C 72.710938 139.984375 74.1875 146.550781 74.632812 151.472656 C 78.175781 194.136719 82.753906 235.011719 87.777344 277.53125 C 89.253906 290.210938 91.46875 302.890625 92.945312 315.71875 C 93.535156 320.492188 94.863281 331.085938 95.160156 335.5625 C 95.308594 337.5 115.242188 334.816406 122.480469 335.261719 C 130.304688 335.859375 190.410156 331.980469 212.707031 329.742188 C 231.316406 327.804688 249.183594 327.503906 267.789062 325.417969 C 273.550781 324.820312 291.863281 321.984375 291.863281 321.984375 C 291.863281 321.984375 290.089844 307.066406 289.5 303.933594 C 287.285156 292.449219 286.839844 277.082031 281.230469 266.640625 C 278.71875 261.867188 273.550781 258.433594 269.859375 254.855469 C 232.9375 219.945312 205.324219 174.894531 165.746094 142.820312 C 156 134.914062 145.8125 128.199219 134.441406 122.832031 C 128.238281 120.144531 109.335938 114.179688 103.429688 111.195312 Z M 103.429688 111.195312 " fill-opacity="1" fill-rule="nonzero"/></g><path fill="#f4dac9" d="M 80.40625 99.109375 C 80.703125 102.09375 81.75 113.28125 82.050781 116.714844 C 83.394531 130.738281 85.1875 144.910156 86.679688 158.933594 C 91.015625 198.914062 98.785156 237.402344 103.714844 277.230469 C 105.207031 289.164062 106.554688 300.949219 109.242188 312.585938 C 109.988281 315.867188 111.484375 326.3125 111.484375 326.3125 C 111.484375 326.3125 117.011719 325.265625 118.359375 325.117188 C 123.289062 324.519531 128.21875 323.925781 133.148438 323.03125 C 154.515625 319.597656 176.183594 317.511719 197.699219 314.675781 C 212.191406 312.734375 226.535156 311.246094 241.03125 309.15625 C 249.695312 307.960938 258.210938 306.917969 266.878906 305.726562 C 269.71875 305.277344 272.558594 304.828125 275.394531 304.382812 C 277.339844 304.082031 279.28125 303.933594 281.222656 303.636719 C 282.867188 303.488281 284.359375 303.1875 286.003906 303.039062 C 287.347656 302.890625 288.695312 302.59375 290.1875 302.441406 C 291.085938 302.292969 303.636719 301.398438 303.933594 300.503906 C 304.683594 298.5625 302.890625 294.535156 302.441406 292.597656 C 301.097656 287.226562 299.902344 282.003906 299.152344 276.335938 C 298.40625 270.667969 297.210938 266.191406 296.613281 260.523438 C 295.71875 250.675781 293.175781 236.804688 291.832031 226.957031 C 289.589844 210.699219 287.945312 198.761719 286.152344 182.351562 C 283.316406 156.394531 278.683594 133.722656 275.695312 105.972656 C 275.097656 99.707031 271.660156 77.03125 271.660156 77.03125 C 271.660156 77.03125 266.730469 77.628906 262.695312 78.078125 C 249.996094 79.417969 237.292969 81.058594 224.59375 82.550781 C 180.515625 88.070312 122.988281 93.890625 80.40625 99.109375 Z M 80.40625 99.109375 " fill-opacity="1" fill-rule="nonzero"/><path fill="#f4a54e" d="M 155.414062 56.148438 C 155.710938 62.859375 165.125 68.378906 161.242188 75.390625 C 158.101562 81.058594 148.988281 81.507812 143.160156 83.148438 C 138.230469 84.492188 134.792969 85.238281 134.941406 90.457031 C 134.941406 91.652344 135.09375 92.84375 135.390625 94.039062 C 135.839844 95.679688 136.585938 97.320312 137.632812 98.664062 C 141.816406 104.035156 150.332031 102.839844 156.609375 102.542969 C 161.089844 102.394531 165.574219 101.945312 170.054688 101.648438 C 173.640625 101.347656 177.226562 101.050781 180.8125 100.753906 C 189.332031 100.15625 197.699219 99.109375 206.214844 97.769531 C 212.789062 96.722656 218.316406 96.722656 219.066406 89.414062 C 219.214844 87.476562 219.511719 85.386719 218.617188 83.597656 C 214.433594 76.285156 203.972656 77.925781 195.605469 77.03125 C 192.617188 76.734375 188.136719 76.136719 185.894531 74.050781 C 182.605469 70.917969 186.789062 65.246094 188.585938 62.5625 C 191.722656 57.640625 192.320312 51.671875 188.433594 46.898438 C 181.710938 38.695312 154.515625 37.5 155.414062 56.148438 Z M 155.414062 56.148438 " fill-opacity="1" fill-rule="nonzero"/><path fill="#4a4aa8" d="M 171.25 202.195312 C 175.285156 203.238281 179.320312 204.433594 183.503906 203.984375 C 189.03125 203.386719 193.964844 200.253906 199.492188 199.0625 C 202.480469 198.464844 205.46875 198.761719 208.308594 199.0625 C 211.445312 199.359375 214.730469 199.65625 217.871094 199.0625 C 222.203125 198.316406 226.386719 196.523438 230.570312 194.882812 C 234.457031 193.390625 238.488281 191.902344 242.671875 191.453125 C 243.421875 191.453125 244.019531 190.707031 243.867188 189.960938 C 243.867188 189.214844 243.121094 188.617188 242.375 188.769531 C 237.890625 189.214844 233.707031 190.707031 229.523438 192.347656 C 225.492188 193.988281 221.605469 195.628906 217.421875 196.375 C 214.433594 196.972656 211.445312 196.675781 208.457031 196.375 C 205.320312 196.078125 202.03125 195.78125 198.746094 196.523438 C 193.367188 197.570312 188.433594 200.703125 183.054688 201.300781 C 179.171875 201.746094 175.433594 200.703125 171.847656 199.65625 C 165.125 197.867188 157.804688 200.105469 151.230469 201.746094 C 148.988281 202.34375 146.746094 202.941406 144.503906 203.386719 L 142.265625 203.835938 C 141.816406 203.6875 141.367188 203.835938 141.070312 204.132812 C 140.621094 204.582031 140.621094 204.878906 140.472656 205.175781 C 140.472656 205.625 140.621094 205.921875 140.917969 206.222656 C 141.070312 206.371094 141.367188 206.667969 141.964844 206.667969 C 142.5625 206.667969 144.65625 206.074219 145.101562 206.074219 C 147.34375 205.476562 149.734375 205.027344 151.976562 204.433594 C 158.101562 202.640625 164.828125 200.402344 171.25 202.195312 Z M 171.25 202.195312 " fill-opacity="1" fill-rule="nonzero"/><path fill="#4a4aa8" d="M 215.03125 220.992188 C 212.789062 221.140625 210.699219 220.542969 208.457031 219.945312 C 206.066406 219.351562 203.527344 218.902344 200.984375 219.351562 C 195.90625 220.246094 191.273438 222.929688 186.042969 223.972656 C 182.007812 224.71875 178.421875 223.972656 174.539062 223.378906 C 169.011719 222.632812 163.632812 223.226562 158.253906 224.71875 C 157.804688 224.871094 155.265625 225.316406 154.070312 225.765625 C 153.171875 226.0625 152.871094 226.660156 152.871094 227.105469 C 152.722656 227.851562 153.171875 228.597656 153.917969 228.75 C 154.367188 228.898438 154.964844 228.75 155.265625 228.300781 C 155.414062 228.300781 156.011719 228.003906 156.460938 228.003906 C 157.65625 227.703125 158.851562 227.554688 159.148438 227.40625 C 164.078125 226.0625 169.160156 225.464844 174.238281 226.210938 C 178.421875 226.808594 182.308594 227.554688 186.640625 226.808594 C 191.722656 225.914062 196.355469 223.078125 201.582031 222.183594 C 203.824219 221.738281 205.917969 222.183594 208.007812 222.78125 C 210.398438 223.378906 212.789062 223.972656 215.328125 223.824219 C 221.902344 223.527344 228.03125 219.796875 234.457031 218.15625 C 235.203125 218.007812 235.652344 217.261719 235.5 216.515625 C 235.351562 215.769531 234.605469 215.320312 233.859375 215.472656 C 227.433594 216.964844 221.457031 220.691406 215.03125 220.992188 Z M 215.03125 220.992188 " fill-opacity="1" fill-rule="nonzero"/><path fill="#4a4aa8" d="M 253.429688 239.9375 C 246.855469 240.535156 240.132812 239.636719 233.707031 241.128906 C 231.019531 241.726562 228.480469 242.921875 226.089844 243.964844 C 223.847656 245.007812 221.457031 245.902344 218.914062 246.203125 C 216.523438 246.5 214.285156 246.054688 212.191406 245.457031 C 209.652344 244.859375 207.261719 244.261719 204.570312 244.261719 C 197.699219 244.5625 191.125 248.289062 184.699219 250.082031 C 180.515625 251.273438 176.628906 251.125 172.597656 250.675781 C 168.414062 250.230469 164.378906 249.484375 159.894531 249.484375 C 157.058594 249.484375 154.21875 249.78125 151.378906 250.082031 C 150.480469 250.230469 149.4375 250.378906 148.539062 250.378906 C 148.539062 250.378906 147.792969 250.378906 147.644531 250.378906 C 147.195312 250.378906 146.746094 250.527344 146.449219 250.828125 C 146.148438 251.125 146.148438 251.574219 146.148438 251.871094 C 146.148438 252.167969 146.296875 252.46875 146.597656 252.765625 C 146.746094 252.914062 146.894531 253.0625 147.34375 253.0625 C 147.492188 253.0625 148.839844 253.0625 148.839844 253.0625 C 149.882812 252.914062 150.78125 252.914062 151.675781 252.765625 C 154.367188 252.46875 157.207031 252.167969 159.894531 252.167969 C 164.230469 252.167969 168.261719 252.914062 172.296875 253.214844 C 176.628906 253.660156 180.8125 253.808594 185.296875 252.46875 C 191.574219 250.675781 197.996094 247.097656 204.570312 246.796875 C 206.960938 246.648438 209.203125 247.394531 211.445312 247.84375 C 213.984375 248.441406 216.523438 249.035156 219.214844 248.589844 C 222.054688 248.289062 224.59375 247.246094 227.132812 246.054688 C 229.523438 245.007812 231.765625 243.964844 234.304688 243.367188 C 240.582031 241.875 247.304688 242.769531 253.730469 242.324219 C 254.476562 242.324219 255.074219 241.578125 254.925781 240.832031 C 254.777344 240.382812 254.179688 239.789062 253.429688 239.9375 Z M 253.429688 239.9375 " fill-opacity="1" fill-rule="nonzero"/><path fill="#4a4aa8" d="M 248.050781 268.28125 C 239.386719 269.175781 231.167969 272.011719 222.5 272.605469 C 216.523438 273.054688 210.847656 271.265625 204.871094 271.265625 C 199.042969 271.265625 194.113281 273.203125 188.585938 274.695312 C 182.160156 276.335938 174.988281 276.1875 168.414062 276.484375 C 166.171875 276.632812 163.929688 276.785156 161.6875 277.230469 C 161.089844 277.378906 159 278.125 158.699219 278.277344 C 158.253906 278.425781 158.101562 278.722656 158.101562 278.722656 C 157.953125 279.023438 157.804688 279.320312 157.804688 279.46875 C 157.804688 279.617188 158.101562 281.109375 159.449219 280.8125 C 159.597656 280.8125 159.597656 280.8125 159.746094 280.664062 C 160.046875 280.511719 161.839844 279.917969 162.285156 279.765625 C 164.378906 279.320312 166.320312 279.171875 168.414062 279.023438 C 175.136719 278.722656 182.605469 278.722656 189.183594 277.082031 C 194.410156 275.738281 199.191406 273.800781 204.722656 273.800781 C 210.699219 273.800781 216.523438 275.589844 222.5 275.144531 C 231.167969 274.546875 239.386719 271.710938 248.050781 270.816406 C 248.800781 270.667969 249.398438 270.070312 249.246094 269.324219 C 249.546875 268.726562 248.800781 268.28125 248.050781 268.28125 Z M 248.050781 268.28125 " fill-opacity="1" fill-rule="nonzero"/><path fill="#ef7581" d="M 155.5625 148.9375 C 155.113281 147.148438 154.816406 145.355469 154.367188 143.566406 C 154.21875 142.671875 153.917969 141.925781 153.769531 141.03125 C 153.621094 140.433594 153.320312 138.496094 152.722656 137.449219 C 152.425781 136.855469 151.828125 136.40625 151.378906 136.257812 C 150.632812 135.957031 149.882812 135.957031 149.136719 136.554688 C 148.839844 136.855469 148.390625 137.152344 148.089844 137.597656 C 147.644531 138.34375 147.195312 139.089844 147.046875 139.390625 C 145.550781 142.375 144.355469 145.65625 143.160156 148.789062 C 143.011719 149.085938 142.863281 149.535156 142.710938 150.128906 C 142.265625 149.683594 141.667969 149.085938 141.515625 148.789062 C 140.171875 147.296875 137.035156 143.417969 134.046875 141.476562 C 132.402344 140.285156 130.609375 139.835938 129.265625 140.136719 C 128.070312 140.433594 127.171875 141.179688 126.574219 142.375 C 126.128906 143.417969 125.976562 144.910156 125.828125 145.65625 C 125.230469 150.578125 125.378906 155.648438 125.53125 160.574219 C 125.53125 162.066406 125.679688 163.707031 125.828125 165.199219 C 125.828125 165.644531 125.976562 166.539062 126.128906 167.136719 C 126.128906 167.433594 126.128906 167.734375 126.277344 168.03125 C 127.023438 169.671875 128.519531 169.226562 128.667969 169.078125 C 129.117188 168.925781 129.863281 168.628906 130.011719 167.433594 C 130.011719 167.136719 129.5625 165.644531 129.5625 164.898438 C 129.414062 163.40625 129.414062 161.914062 129.265625 160.273438 C 129.117188 155.5 128.964844 150.578125 129.5625 145.804688 C 129.5625 145.207031 129.714844 144.460938 129.863281 143.714844 C 129.863281 143.566406 130.011719 143.417969 130.011719 143.269531 C 130.3125 143.269531 130.609375 143.417969 130.910156 143.566406 C 131.507812 143.863281 132.253906 144.3125 132.851562 144.910156 C 135.242188 146.847656 137.484375 149.683594 138.679688 150.875 C 139.125 151.324219 140.023438 152.667969 140.917969 153.261719 C 141.816406 153.859375 142.710938 154.160156 143.460938 154.007812 C 144.207031 153.859375 144.953125 153.414062 145.402344 152.367188 C 145.851562 151.472656 146.296875 149.980469 146.449219 149.535156 C 147.492188 146.699219 148.539062 143.863281 149.882812 141.179688 C 150.035156 141.925781 150.332031 142.820312 150.480469 143.566406 C 150.929688 145.355469 151.230469 146.996094 151.675781 148.789062 C 152.125 151.175781 152.722656 153.5625 153.171875 155.949219 C 153.917969 159.230469 154.515625 162.511719 155.113281 165.792969 C 155.265625 166.839844 156.308594 167.433594 157.355469 167.285156 C 158.402344 167.136719 159 166.242188 158.851562 165.199219 C 158.253906 161.914062 157.503906 158.484375 156.90625 155.203125 C 156.609375 153.710938 156.160156 151.324219 155.5625 148.9375 Z M 155.5625 148.9375 " fill-opacity="1" fill-rule="nonzero"/><path fill="#ef7581" d="M 179.320312 161.765625 C 176.332031 162.214844 173.492188 163.109375 170.503906 163.40625 C 170.207031 163.40625 169.757812 163.558594 169.308594 163.558594 C 169.160156 163.558594 168.859375 163.558594 168.710938 163.558594 C 168.414062 163.109375 168.261719 162.511719 168.261719 161.765625 C 167.964844 159.976562 167.964844 157.886719 167.816406 156.84375 C 167.664062 155.800781 167.515625 154.753906 167.367188 153.710938 C 168.414062 153.5625 169.609375 153.5625 170.207031 153.414062 C 172.894531 153.113281 175.734375 152.964844 178.421875 152.667969 C 179.46875 152.515625 180.214844 151.621094 180.066406 150.726562 C 179.917969 149.683594 179.019531 149.085938 177.976562 149.085938 C 175.285156 149.382812 172.445312 149.535156 169.757812 149.832031 C 169.308594 149.832031 167.664062 149.980469 166.769531 150.128906 C 166.320312 147.445312 166.023438 144.761719 165.722656 142.074219 C 165.574219 141.328125 165.574219 140.582031 165.425781 139.984375 C 165.722656 139.835938 166.171875 139.6875 166.46875 139.6875 C 170.207031 139.835938 173.941406 139.984375 177.675781 140.285156 C 178.722656 140.433594 179.617188 139.6875 179.769531 138.644531 C 179.917969 137.597656 179.171875 136.703125 178.125 136.703125 C 174.238281 136.257812 170.503906 136.257812 166.621094 136.109375 C 165.871094 136.109375 165.125 136.257812 164.527344 136.554688 C 164.378906 136.40625 164.230469 136.40625 164.078125 136.40625 C 163.632812 136.257812 163.183594 136.257812 162.734375 136.40625 C 162.4375 136.554688 162.285156 136.554688 161.988281 136.855469 C 161.839844 137.003906 161.539062 137.152344 161.390625 137.300781 C 160.941406 138.046875 160.941406 138.941406 161.539062 139.539062 C 161.6875 140.582031 161.839844 141.476562 161.988281 142.523438 C 162.4375 145.804688 162.882812 149.085938 163.332031 152.21875 C 163.632812 154.007812 163.78125 155.648438 164.078125 157.441406 C 164.230469 158.632812 164.230469 160.574219 164.527344 162.363281 C 164.828125 164.003906 165.273438 165.347656 166.023438 166.242188 C 166.46875 166.691406 167.21875 167.136719 167.964844 167.136719 C 169.011719 167.285156 170.207031 166.988281 170.953125 166.988281 C 173.941406 166.539062 176.929688 165.792969 179.917969 165.199219 C 180.964844 165.046875 181.5625 164.152344 181.410156 163.109375 C 181.261719 162.214844 180.367188 161.617188 179.320312 161.765625 Z M 179.320312 161.765625 " fill-opacity="1" fill-rule="nonzero"/><path fill="#ef7581" d="M 212.640625 149.832031 C 212.339844 147.742188 212.042969 145.65625 211.742188 143.566406 C 211.144531 139.835938 210.546875 136.257812 210.25 132.527344 C 210.101562 131.484375 209.203125 130.738281 208.15625 130.886719 C 207.113281 131.035156 206.363281 131.929688 206.515625 132.824219 C 206.8125 136.554688 207.558594 140.285156 208.007812 144.164062 C 208.308594 146.25 208.605469 148.339844 208.90625 150.429688 C 209.054688 151.621094 209.203125 152.964844 209.503906 154.160156 C 209.203125 153.859375 208.90625 153.5625 208.90625 153.414062 C 204.421875 149.085938 199.941406 144.609375 195.308594 140.433594 C 194.710938 139.984375 191.421875 136.257812 189.628906 135.363281 C 188.285156 134.617188 187.238281 134.914062 186.492188 135.363281 C 185.894531 135.808594 185.445312 136.703125 185.445312 137.898438 C 185.445312 139.242188 185.894531 141.179688 186.042969 141.777344 C 186.789062 146.996094 187.6875 152.21875 188.734375 157.441406 C 188.734375 157.738281 189.332031 159.378906 189.628906 160.871094 C 189.78125 161.46875 189.929688 162.214844 189.929688 162.511719 C 189.628906 163.109375 189.78125 163.855469 190.226562 164.300781 C 190.976562 165.046875 192.019531 165.199219 192.917969 164.453125 C 193.367188 164.152344 193.8125 163.40625 193.664062 162.214844 C 193.515625 160.574219 192.46875 157.140625 192.46875 156.695312 C 191.421875 151.621094 190.527344 146.402344 189.78125 141.179688 L 189.480469 139.539062 C 190.976562 140.882812 192.46875 142.523438 192.769531 142.820312 C 197.398438 146.996094 201.734375 151.472656 206.363281 155.800781 C 206.515625 155.949219 209.054688 158.484375 210.25 159.378906 C 211.445312 160.273438 212.492188 159.976562 212.9375 159.679688 C 213.386719 159.378906 213.835938 158.933594 213.984375 158.1875 C 214.132812 157.589844 213.835938 156.246094 213.835938 155.949219 C 213.386719 154.007812 212.9375 151.921875 212.640625 149.832031 Z M 212.640625 149.832031 " fill-opacity="1" fill-rule="nonzero"/><path fill="#ef7581" d="M 239.683594 129.394531 C 239.535156 128.351562 238.488281 127.753906 237.445312 127.902344 C 236.398438 128.050781 235.800781 128.945312 235.949219 129.992188 C 236.695312 134.316406 238.640625 143.714844 237.144531 150.429688 C 236.695312 152.667969 235.800781 154.605469 234.007812 155.800781 C 232.960938 156.546875 231.617188 156.84375 229.824219 156.695312 C 226.6875 156.546875 224.894531 154.160156 223.847656 151.324219 C 222.5 147.894531 222.054688 144.015625 221.457031 141.179688 C 221.15625 139.6875 219.664062 133.871094 219.511719 132.976562 C 219.511719 132.976562 219.511719 132.976562 219.511719 132.824219 C 219.511719 132.527344 219.363281 132.378906 219.363281 132.378906 C 219.066406 132.078125 218.765625 132.078125 218.316406 132.230469 C 217.121094 132.078125 215.628906 132.230469 215.925781 133.722656 L 216.078125 134.019531 C 216.078125 133.871094 215.925781 133.871094 215.925781 133.722656 L 215.925781 133.871094 C 216.226562 134.765625 217.570312 140.433594 217.871094 141.925781 C 218.617188 145.507812 219.214844 151.027344 221.457031 154.902344 C 223.25 158.035156 225.789062 160.125 229.675781 160.273438 C 232.363281 160.425781 234.457031 159.828125 236.097656 158.78125 C 238.488281 157.140625 239.984375 154.457031 240.730469 151.175781 C 242.375 144.015625 240.433594 134.019531 239.683594 129.394531 Z M 239.683594 129.394531 " fill-opacity="1" fill-rule="nonzero"/></svg>