<svg width="40" height="35" viewBox="0 0 40 35" fill="none" xmlns="http://www.w3.org/2000/svg">
<path d="M34.4652 20.1863V34.3047H10.4194V20.623C3.7671 14.2578 3.64264 4.44865 14.7225 6.75785C20.1976 -0.724107 25.3082 -1.78099 29.8965 6.54249C34.982 5.84255 39.0478 6.65216 39.3668 13.0393C38.9829 16.4752 37.3197 18.8343 34.4652 20.1863Z" fill="white"/>
<path d="M35.0407 15.211C34.143 15.2649 33.8209 14.8036 33.8549 14.0609L33.8689 14.0249C34.5241 13.2403 34.5155 12.3218 34.1316 11.613C33.7418 10.8822 32.988 10.421 32.1296 10.5807L32.0817 10.5627C31.6977 10.1075 31.517 9.57636 31.8134 8.8935L31.8501 8.86355C33.4454 8.56205 34.8459 9.45256 35.5349 10.7384C36.2408 12.0502 36.2408 13.8013 35.0747 15.195L35.0407 15.211ZM0.124242 20.3284L0 20.1867V18.216L0.124242 18.0822H12.7881L12.9123 18.216V20.1867L12.7881 20.3284H0.124242ZM3.35436 24.785L3.23012 24.6492V22.6725L3.35436 22.5388H12.7881L12.9123 22.6725V24.6492L12.7881 24.785H3.35436ZM6.19505 29.2396L6.06802 29.1058V27.1351L6.19505 26.9953H12.7881L12.9123 27.1351V29.1058L12.7881 29.2396H6.19505ZM31.1838 31.7714C30.9832 31.7554 30.7743 31.6855 30.5513 31.5437L30.5258 31.4938V23.1917L30.5513 23.1437C31.0934 22.8303 31.6243 22.7963 32.1241 23.1457L32.1467 23.1917V31.4938L32.1157 31.5437C31.8813 31.6516 31.6382 31.7474 31.3814 31.7714C31.3164 31.7774 31.2516 31.7774 31.1838 31.7714ZM34.4618 35L10.1931 34.986L9.44505 34.0376L9.43093 33.9937L9.46472 33.78V30.5514H11.0825V33.2549H33.6516V21.4745H14.5668V19.7314H33.7816L34.1796 19.1244C37.6866 17.7947 38.9515 13.8093 38.1496 10.6606C37.3985 7.70748 34.7952 5.45123 30.1306 7.77536C29.5631 7.83127 29.148 7.66154 28.9955 7.13042C28.2133 2.30247 22.9388 0.547406 19.4149 2.594L18.7939 3.02527L18.4494 3.31079L17.8987 3.86387L17.5968 4.27319L17.1986 4.85024C17.0094 5.18168 16.8428 5.54108 16.7044 5.93043L16.405 7.0805L16.84 7.58767L17.718 8.30846C18.0512 8.5261 18.4239 8.72977 18.8615 8.92943C19.367 9.76804 18.9885 10.2333 18.3082 10.5368L18.2715 10.5387C16.6394 9.85988 15.6512 8.8835 14.8861 7.88317L14.615 7.49981L14.5358 7.4479L13.4884 6.96671C13.1807 6.87087 12.873 6.80097 12.5678 6.76503L11.8448 6.75905L11.6218 6.76503L10.9642 6.89283L10.7098 6.95673L10.0917 7.20231L9.85435 7.31812L9.26991 7.67553L9.08364 7.81927L8.52148 8.30448L8.42288 8.4103L7.8778 9.04124C7.69153 9.30081 7.51361 9.57635 7.35836 9.86586C6.35309 11.7387 6.14695 14.2366 7.60109 16.5587L7.84679 16.9101H5.90422L5.57105 16.2073C4.54312 13.7215 4.81984 11.0978 5.95214 8.99333C7.59552 5.93643 11.0825 3.98766 14.55 5.51711L15.0612 5.78267L15.2051 5.2296C17.831 -2.19602 27.8378 -1.30752 30.2095 5.33342L30.331 5.79665L30.4638 5.73876C35.4389 3.78202 38.7567 6.41362 39.7166 10.1933C40.5664 13.5597 39.5303 17.8346 36.2635 19.987L35.2723 20.4922V34.1274L35.2554 34.1654L34.4986 34.988L34.4618 35Z" fill="#333333"/>
</svg>
