<svg width="41" height="36" viewBox="0 0 41 36" fill="none" xmlns="http://www.w3.org/2000/svg">
<path d="M1.53445 1.12452V30.7129C1.53445 32.4548 2.38679 33.9775 4.21364 33.9775H37.0889C38.8485 33.9775 39.519 32.1878 39.519 30.514V7.59496H14.83L11.4939 1.12452H1.53445Z" fill="#FFDA6A"/>
<path d="M15.1537 19.3927L20.8404 25.4507L28.0677 17.0137L25.9313 15.1853L20.7748 21.3887L17.0822 17.3672L15.1537 19.3927Z" fill="#FF7A6A"/>
<path d="M37.9835 6.63949L37.8397 6.42221L37.1968 5.97661C36.9497 5.86981 36.6666 5.8072 36.3585 5.8072H15.035L15.465 6.63949H37.9835ZM20.4589 24.2555L26.4678 17.2437L25.6796 16.5661L21.0657 22.1196C20.7342 22.5173 20.1601 22.5302 19.8114 22.1527L16.7178 18.7867L16.0187 19.5196L20.4589 24.2555ZM20.5073 26.489C20.2821 26.4927 20.0523 26.4025 19.8801 26.2202L14.1936 20.1604C13.8573 19.8032 13.8604 19.2231 14.1998 18.8622L16.1281 16.8405C16.4644 16.4869 17.0072 16.4924 17.3418 16.8533L20.3917 20.1733L24.9351 14.7064C25.2401 14.3399 25.7577 14.2957 26.1144 14.5977L28.2538 16.4225C28.6401 16.7521 28.6824 17.3634 28.3508 17.7538L21.1205 26.1907C20.9547 26.3822 20.7311 26.4853 20.5073 26.489ZM37.1249 33.0239C37.9945 33.0239 38.5512 32.2045 38.5512 30.6302V8.78832H14.8722C14.5033 8.78832 14.1654 8.57656 13.9839 8.22855L10.9358 2.31972H2.58232V30.8309C2.58232 32.2027 3.19547 33.0239 4.25588 33.0239H37.1249ZM4.25588 35.1709C1.68159 35.1709 0.566406 32.9134 0.566406 30.8309V1.24808C0.566406 0.651485 1.01522 0.170898 1.57514 0.170898H11.5317C11.896 0.170898 12.2354 0.386331 12.4137 0.730659L13.9276 3.65469H36.3585C38.3619 3.65469 39.9805 5.09829 40.3573 7.00591L40.3728 7.07036L40.3901 7.11271C40.5059 7.2858 40.5664 7.49018 40.5664 7.71114V30.6302C40.5664 32.4476 39.7593 35.1709 37.1249 35.1709H4.25588Z" fill="#333333"/>
</svg>
