<svg xmlns="http://www.w3.org/2000/svg" xmlns:xlink="http://www.w3.org/1999/xlink" width="500" zoomAndPan="magnify" viewBox="0 0 375 374.999991" height="500" preserveAspectRatio="xMidYMid meet" version="1.0"><defs><clipPath id="b45125e91a"><path d="M 37.5 37.5 L 337.5 37.5 L 337.5 337.5 L 37.5 337.5 Z M 37.5 37.5 " clip-rule="nonzero"/></clipPath><clipPath id="79e2ce111d"><path d="M 187.5 37.5 C 104.65625 37.5 37.5 104.65625 37.5 187.5 C 37.5 270.34375 104.65625 337.5 187.5 337.5 C 270.34375 337.5 337.5 270.34375 337.5 187.5 C 337.5 104.65625 270.34375 37.5 187.5 37.5 Z M 187.5 37.5 " clip-rule="nonzero"/></clipPath><clipPath id="3592ee5e11"><path d="M 126.5625 112.5 L 248.8125 112.5 L 248.8125 262.5 L 126.5625 262.5 Z M 126.5625 112.5 " clip-rule="nonzero"/></clipPath></defs><g clip-path="url(#b45125e91a)"><g clip-path="url(#79e2ce111d)"><path fill="#f0f1f5" d="M 37.5 37.5 L 337.5 37.5 L 337.5 337.5 L 37.5 337.5 Z M 37.5 37.5 " fill-opacity="1" fill-rule="nonzero"/></g></g><g clip-path="url(#3592ee5e11)"><path fill="#3971ff" d="M 137.515625 176.714844 L 137.515625 214.5 C 137.515625 217.253906 136.863281 220.015625 135.632812 222.484375 L 127.1875 239.378906 C 126.632812 240.484375 126.691406 241.804688 127.34375 242.851562 C 127.992188 243.902344 129.140625 244.550781 130.375 244.550781 L 166.402344 244.550781 C 168.109375 254.660156 176.90625 262.394531 187.5 262.394531 C 193.195312 262.394531 198.578125 260.179688 202.675781 256.121094 C 205.847656 252.917969 207.875 248.894531 208.605469 244.550781 L 244.617188 244.550781 C 245.859375 244.550781 247.007812 243.902344 247.65625 242.851562 C 248.308594 241.804688 248.367188 240.484375 247.8125 239.378906 L 239.367188 222.484375 C 238.136719 220.015625 237.484375 217.253906 237.484375 214.5 L 237.484375 176.714844 C 237.484375 163.375 232.28125 150.828125 222.832031 141.382812 C 216.890625 135.4375 209.601562 131.121094 201.558594 128.746094 C 201.648438 128.078125 201.777344 127.421875 201.777344 126.734375 C 201.777344 118.863281 195.375 112.453125 187.5 112.453125 C 179.625 112.453125 173.222656 118.863281 173.222656 126.734375 C 173.222656 127.425781 173.351562 128.085938 173.441406 128.753906 C 152.417969 134.929688 137.515625 154.515625 137.515625 176.714844 Z M 197.628906 251.078125 C 194.90625 253.773438 191.300781 255.261719 187.5 255.261719 C 180.859375 255.261719 175.261719 250.699219 173.671875 244.550781 L 201.335938 244.550781 C 200.707031 246.992188 199.441406 249.242188 197.628906 251.078125 Z M 187.5 119.597656 C 191.433594 119.597656 194.640625 122.796875 194.640625 126.734375 C 194.640625 126.902344 194.636719 127.070312 194.625 127.238281 C 194.191406 127.175781 193.761719 127.152344 193.335938 127.101562 C 192.941406 127.054688 192.550781 127.011719 192.160156 126.976562 C 190.601562 126.832031 189.046875 126.734375 187.5 126.734375 C 185.949219 126.734375 184.386719 126.832031 182.828125 126.976562 C 182.449219 127.011719 182.070312 127.054688 181.691406 127.101562 C 181.253906 127.148438 180.8125 127.175781 180.375 127.238281 C 180.363281 127.070312 180.359375 126.902344 180.359375 126.734375 C 180.359375 122.796875 183.566406 119.597656 187.5 119.597656 Z M 178.542969 134.800781 C 183.003906 133.878906 187.523438 133.652344 191.984375 134.109375 C 193.476562 134.265625 194.960938 134.492188 196.445312 134.796875 C 204.554688 136.550781 211.929688 140.574219 217.78125 146.425781 C 225.878906 154.527344 230.339844 165.28125 230.339844 176.714844 L 230.339844 214.5 C 230.339844 218.359375 231.253906 222.226562 232.976562 225.675781 L 238.847656 237.40625 L 136.152344 237.40625 L 142.023438 225.675781 C 143.746094 222.226562 144.660156 218.359375 144.660156 214.5 L 144.660156 176.714844 C 144.660156 156.601562 158.921875 138.96875 178.542969 134.800781 " fill-opacity="1" fill-rule="nonzero"/></g></svg>