<svg width="40" height="41" viewBox="0 0 40 41" fill="none" xmlns="http://www.w3.org/2000/svg">
<path d="M6.88019 39.9805H0.683044V30.259H6.88019V39.9805Z" fill="white"/>
<path d="M17.6925 39.9805H11.4953V18.0877H17.6925V39.9805Z" fill="white"/>
<path d="M28.5047 39.9805H22.3075V22.1448H28.5047V39.9805Z" fill="white"/>
<path d="M39.3168 39.9805H33.1202V11.7111H39.3168V39.9805Z" fill="#FF725D"/>
<path d="M1.36621 39.3183H6.19714V30.9216H1.36621V39.3183ZM6.88025 40.6431H0.683107C0.306032 40.6431 0 40.3463 0 39.9807V30.2592C0 29.8935 0.306032 29.5968 0.683107 29.5968H6.88025C7.25787 29.5968 7.56336 29.8935 7.56336 30.2592V39.9807C7.56336 40.3463 7.25787 40.6431 6.88025 40.6431Z" fill="#333333"/>
<path d="M12.1784 39.8183H11.6784V39.3183V18.7503V18.2503H12.1784H17.0094H17.5094V18.7503V39.3183V39.8183H17.0094H12.1784ZM11.4953 40.1431H17.6925C17.8083 40.1431 17.8756 40.056 17.8756 39.9807V18.0878C17.8756 18.0122 17.8086 17.9254 17.6925 17.9254H11.4953C11.3795 17.9254 11.3122 18.0125 11.3122 18.0878V39.9807C11.3122 40.0558 11.3798 40.1431 11.4953 40.1431Z" fill="#333333" stroke="#333333"/>
<path d="M22.9907 39.3183H27.8216V22.8074H22.9907V39.3183ZM28.5047 40.6431H22.3076C21.9305 40.6431 21.6245 40.3463 21.6245 39.9807V22.145C21.6245 21.7788 21.9305 21.4826 22.3076 21.4826H28.5047C28.8823 21.4826 29.1878 21.7788 29.1878 22.145V39.9807C29.1878 40.3463 28.8823 40.6431 28.5047 40.6431Z" fill="#333333"/>
<path d="M33.8034 39.3183H38.6338V12.3737H33.8034V39.3183ZM39.3169 40.6431H33.1203C32.7432 40.6431 32.4372 40.3463 32.4372 39.9807V11.7113C32.4372 11.3456 32.7432 11.0489 33.1203 11.0489H39.3169C39.6945 11.0489 40 11.3456 40 11.7113V39.9807C40 40.3463 39.6945 40.6431 39.3169 40.6431Z" fill="#333333"/>
<path d="M3.78239 16.0903C3.54686 16.0903 3.31788 15.9722 3.19109 15.7607C3.00146 15.4438 3.1124 15.039 3.4392 14.8551L14.2509 8.76941C14.3935 8.68886 14.5618 8.66236 14.7236 8.69151L25.1882 10.6549L35.7458 0.827943C36.0168 0.574109 36.4496 0.582588 36.7109 0.847021C36.9726 1.11092 36.9633 1.5301 36.6912 1.7834L25.879 11.8483C25.7194 11.9972 25.4943 12.0608 25.2768 12.021L14.7154 10.0396L4.12449 16.0008C4.01683 16.0612 3.89879 16.0903 3.78239 16.0903Z" fill="#333333"/>
<path d="M36.2185 1.96826H31.692C31.3143 1.96826 31.0089 1.6715 31.0089 1.30585C31.0089 0.940206 31.3143 0.643447 31.692 0.643447H36.2185C36.5956 0.643447 36.9016 0.940206 36.9016 1.30585C36.9016 1.6715 36.5956 1.96826 36.2185 1.96826Z" fill="#333333"/>
<path d="M36.2185 6.35791C35.8414 6.35791 35.5354 6.06115 35.5354 5.6955V1.30613C35.5354 0.93995 35.8414 0.643721 36.2185 0.643721C36.5956 0.643721 36.9016 0.93995 36.9016 1.30613V5.6955C36.9016 6.06115 36.5956 6.35791 36.2185 6.35791Z" fill="#333333"/>
</svg>
