<svg xmlns="http://www.w3.org/2000/svg" xmlns:xlink="http://www.w3.org/1999/xlink" width="500" zoomAndPan="magnify" viewBox="0 0 375 374.999991" height="500" preserveAspectRatio="xMidYMid meet" version="1.0"><defs><clipPath id="a28626d900"><path d="M 125 118 L 255.683594 118 L 255.683594 262.5 L 125 262.5 Z M 125 118 " clip-rule="nonzero"/></clipPath></defs><g clip-path="url(#a28626d900)"><path fill="#000000" d="M 254.121094 253.660156 L 222.75 212.140625 C 223.554688 211.269531 224.328125 210.371094 225.070312 209.449219 C 225.816406 208.527344 226.53125 207.582031 227.214844 206.617188 C 227.902344 205.648438 228.554688 204.660156 229.175781 203.652344 C 229.800781 202.644531 230.386719 201.617188 230.945312 200.570312 C 231.503906 199.527344 232.027344 198.464844 232.515625 197.382812 C 233.007812 196.304688 233.460938 195.210938 233.882812 194.101562 C 234.300781 192.996094 234.6875 191.875 235.035156 190.742188 C 235.386719 189.609375 235.699219 188.46875 235.976562 187.316406 C 236.253906 186.160156 236.492188 185 236.699219 183.835938 C 236.902344 182.667969 237.066406 181.492188 237.195312 180.316406 C 237.324219 179.136719 237.417969 177.957031 237.472656 176.773438 C 237.527344 175.585938 237.542969 174.402344 237.519531 173.21875 C 237.5 172.03125 237.441406 170.847656 237.347656 169.667969 C 237.25 168.484375 237.117188 167.308594 236.945312 166.136719 C 236.777344 164.964844 236.570312 163.796875 236.324219 162.636719 C 236.078125 161.476562 235.796875 160.324219 235.480469 159.183594 C 235.164062 158.042969 234.8125 156.910156 234.421875 155.792969 C 234.03125 154.671875 233.609375 153.566406 233.148438 152.472656 C 232.691406 151.382812 232.195312 150.304688 231.667969 149.242188 C 231.140625 148.179688 230.582031 147.136719 229.988281 146.113281 C 229.394531 145.085938 228.769531 144.082031 228.109375 143.09375 C 227.453125 142.109375 226.765625 141.144531 226.046875 140.203125 C 225.328125 139.261719 224.582031 138.34375 223.804688 137.449219 C 223.027344 136.550781 222.222656 135.683594 221.390625 134.839844 C 220.558594 133.996094 219.699219 133.179688 218.816406 132.390625 C 217.933594 131.601562 217.027344 130.839844 216.09375 130.109375 C 215.160156 129.378906 214.207031 128.675781 213.230469 128.007812 C 212.253906 127.335938 211.257812 126.695312 210.242188 126.089844 C 209.226562 125.480469 208.191406 124.90625 207.136719 124.363281 C 206.082031 123.820312 205.015625 123.3125 203.929688 122.839844 C 202.84375 122.367188 201.742188 121.925781 200.628906 121.523438 C 199.515625 121.121094 198.390625 120.75 197.253906 120.417969 C 196.117188 120.085938 194.972656 119.789062 193.816406 119.53125 C 192.664062 119.269531 191.5 119.046875 190.332031 118.859375 C 189.160156 118.675781 187.984375 118.527344 186.808594 118.414062 C 185.628906 118.304688 184.445312 118.230469 183.261719 118.191406 C 182.078125 118.15625 180.894531 118.15625 179.710938 118.195312 C 178.527344 118.234375 177.347656 118.3125 176.167969 118.425781 C 174.988281 118.539062 173.816406 118.691406 172.648438 118.878906 C 171.476562 119.066406 170.316406 119.292969 169.160156 119.554688 C 168.003906 119.816406 166.859375 120.113281 165.722656 120.449219 C 164.589844 120.785156 163.464844 121.15625 162.351562 121.5625 C 161.238281 121.96875 160.140625 122.410156 159.054688 122.886719 C 157.972656 123.363281 156.902344 123.871094 155.851562 124.414062 C 154.800781 124.960938 153.765625 125.535156 152.75 126.144531 C 151.734375 126.757812 150.738281 127.398438 149.765625 128.070312 C 148.789062 128.742188 147.835938 129.445312 146.90625 130.179688 C 145.976562 130.914062 145.070312 131.675781 144.1875 132.464844 C 143.304688 133.257812 142.449219 134.074219 141.617188 134.921875 C 140.789062 135.765625 139.984375 136.636719 139.210938 137.53125 C 138.4375 138.429688 137.691406 139.347656 136.972656 140.292969 C 136.257812 141.238281 135.570312 142.203125 134.914062 143.1875 C 134.261719 144.175781 133.636719 145.183594 133.046875 146.210938 C 132.453125 147.238281 131.894531 148.28125 131.371094 149.34375 C 130.84375 150.40625 130.351562 151.484375 129.894531 152.578125 C 129.4375 153.671875 129.015625 154.777344 128.628906 155.898438 C 128.242188 157.019531 127.890625 158.152344 127.578125 159.292969 C 127.261719 160.4375 126.984375 161.585938 126.742188 162.746094 C 126.5 163.90625 126.292969 165.074219 126.125 166.25 C 125.957031 167.421875 125.828125 168.597656 125.734375 169.78125 C 125.640625 170.960938 125.582031 172.144531 125.566406 173.332031 C 125.546875 174.515625 125.566406 175.699219 125.621094 176.882812 C 125.679688 178.070312 125.773438 179.25 125.90625 180.425781 C 126.035156 181.605469 126.203125 182.777344 126.410156 183.945312 C 126.617188 185.113281 126.859375 186.273438 127.140625 187.425781 C 127.417969 188.578125 127.734375 189.71875 128.085938 190.851562 C 128.4375 191.980469 128.824219 193.101562 129.246094 194.207031 C 129.667969 195.316406 130.128906 196.410156 130.621094 197.488281 C 131.109375 198.566406 131.636719 199.625 132.195312 200.671875 C 132.753906 201.714844 133.347656 202.742188 133.972656 203.75 C 134.597656 204.757812 135.25 205.742188 135.9375 206.707031 C 136.625 207.675781 137.34375 208.617188 138.089844 209.539062 C 138.835938 210.457031 139.609375 211.351562 140.414062 212.222656 C 141.21875 213.09375 142.046875 213.9375 142.90625 214.757812 C 143.761719 215.574219 144.644531 216.367188 145.550781 217.128906 C 146.457031 217.890625 147.386719 218.621094 148.339844 219.324219 C 149.296875 220.027344 150.269531 220.699219 151.265625 221.339844 C 152.261719 221.980469 153.277344 222.589844 154.3125 223.167969 C 155.347656 223.742188 156.398438 224.289062 157.46875 224.796875 C 158.535156 225.308594 159.621094 225.78125 160.71875 226.222656 C 161.820312 226.664062 162.933594 227.070312 164.058594 227.441406 C 165.183594 227.808594 166.316406 228.144531 167.464844 228.441406 C 168.609375 228.742188 169.765625 229 170.925781 229.226562 C 172.089844 229.453125 173.257812 229.640625 174.433594 229.789062 C 175.609375 229.941406 176.785156 230.054688 177.96875 230.128906 C 179.148438 230.203125 180.332031 230.242188 181.515625 230.242188 C 182.703125 230.246094 183.882812 230.207031 185.066406 230.132812 C 186.246094 230.058594 187.425781 229.945312 188.601562 229.796875 C 189.777344 229.648438 190.945312 229.460938 192.109375 229.238281 C 193.269531 229.011719 194.425781 228.753906 195.570312 228.457031 C 196.71875 228.160156 197.855469 227.824219 198.980469 227.457031 C 200.105469 227.085938 201.21875 226.683594 202.316406 226.242188 C 203.417969 225.804688 204.5 225.328125 205.570312 224.820312 C 206.640625 224.3125 207.691406 223.769531 208.730469 223.195312 C 209.765625 222.617188 210.78125 222.011719 211.777344 221.371094 C 212.773438 220.730469 213.75 220.058594 214.703125 219.359375 L 245.53125 260.167969 C 245.746094 260.453125 245.988281 260.714844 246.253906 260.953125 C 246.519531 261.1875 246.804688 261.398438 247.109375 261.578125 C 247.417969 261.757812 247.738281 261.90625 248.074219 262.023438 C 248.410156 262.140625 248.753906 262.222656 249.105469 262.273438 C 249.457031 262.324219 249.8125 262.335938 250.167969 262.316406 C 250.523438 262.296875 250.871094 262.242188 251.214844 262.152344 C 251.558594 262.0625 251.890625 261.941406 252.210938 261.785156 C 252.53125 261.628906 252.835938 261.445312 253.117188 261.230469 C 253.402344 261.015625 253.664062 260.777344 253.898438 260.511719 C 254.136719 260.246094 254.34375 259.960938 254.523438 259.652344 C 254.707031 259.34375 254.855469 259.023438 254.972656 258.6875 C 255.089844 258.351562 255.171875 258.007812 255.21875 257.65625 C 255.269531 257.300781 255.285156 256.949219 255.261719 256.59375 C 255.242188 256.238281 255.1875 255.886719 255.097656 255.542969 C 255.011719 255.199219 254.886719 254.867188 254.734375 254.546875 C 254.578125 254.226562 254.394531 253.921875 254.179688 253.636719 Z M 134.632812 174.199219 C 134.632812 172.660156 134.707031 171.125 134.859375 169.59375 C 135.007812 168.0625 135.234375 166.542969 135.53125 165.035156 C 135.832031 163.523438 136.207031 162.035156 136.652344 160.5625 C 137.097656 159.089844 137.613281 157.644531 138.203125 156.222656 C 138.789062 154.800781 139.445312 153.410156 140.171875 152.054688 C 140.894531 150.695312 141.683594 149.378906 142.539062 148.101562 C 143.390625 146.820312 144.304688 145.585938 145.28125 144.398438 C 146.257812 143.207031 147.285156 142.070312 148.375 140.980469 C 149.460938 139.894531 150.597656 138.859375 151.785156 137.886719 C 152.972656 136.910156 154.207031 135.992188 155.484375 135.136719 C 156.761719 134.285156 158.078125 133.492188 159.433594 132.769531 C 160.789062 132.042969 162.175781 131.386719 163.597656 130.796875 C 165.015625 130.207031 166.460938 129.691406 167.933594 129.242188 C 169.40625 128.796875 170.894531 128.421875 172.402344 128.125 C 173.910156 127.824219 175.425781 127.597656 176.957031 127.445312 C 178.484375 127.296875 180.019531 127.21875 181.554688 127.21875 C 183.09375 127.21875 184.625 127.296875 186.15625 127.445312 C 187.6875 127.597656 189.203125 127.824219 190.710938 128.121094 C 192.21875 128.421875 193.707031 128.796875 195.179688 129.242188 C 196.648438 129.6875 198.09375 130.207031 199.515625 130.796875 C 200.933594 131.382812 202.324219 132.039062 203.679688 132.765625 C 205.035156 133.492188 206.351562 134.28125 207.628906 135.136719 C 208.90625 135.992188 210.140625 136.90625 211.328125 137.882812 C 212.515625 138.859375 213.652344 139.890625 214.742188 140.976562 C 215.828125 142.066406 216.859375 143.203125 217.832031 144.394531 C 218.808594 145.582031 219.722656 146.816406 220.578125 148.097656 C 221.429688 149.375 222.21875 150.691406 222.945312 152.050781 C 223.667969 153.40625 224.324219 154.796875 224.914062 156.21875 C 225.5 157.636719 226.019531 159.085938 226.464844 160.558594 C 226.910156 162.03125 227.285156 163.519531 227.582031 165.027344 C 227.882812 166.539062 228.109375 168.058594 228.257812 169.589844 C 228.410156 171.121094 228.484375 172.65625 228.484375 174.191406 C 228.484375 175.730469 228.410156 177.265625 228.257812 178.796875 C 228.109375 180.328125 227.882812 181.847656 227.582031 183.355469 C 227.28125 184.867188 226.910156 186.355469 226.464844 187.828125 C 226.015625 189.300781 225.5 190.746094 224.910156 192.167969 C 224.324219 193.589844 223.667969 194.980469 222.941406 196.335938 C 222.21875 197.691406 221.429688 199.011719 220.574219 200.289062 C 219.71875 201.570312 218.804688 202.804688 217.832031 203.992188 C 216.855469 205.179688 215.824219 206.320312 214.738281 207.40625 C 213.652344 208.496094 212.511719 209.527344 211.324219 210.503906 C 210.136719 211.480469 208.902344 212.394531 207.625 213.25 C 206.347656 214.101562 205.03125 214.894531 203.675781 215.617188 C 202.320312 216.34375 200.929688 217 199.511719 217.589844 C 198.089844 218.175781 196.644531 218.695312 195.175781 219.140625 C 193.703125 219.585938 192.214844 219.960938 190.707031 220.261719 C 189.199219 220.558594 187.679688 220.785156 186.152344 220.9375 C 184.621094 221.085938 183.089844 221.160156 181.550781 221.160156 C 180.015625 221.160156 178.480469 221.085938 176.953125 220.933594 C 175.425781 220.785156 173.90625 220.558594 172.398438 220.257812 C 170.890625 219.957031 169.402344 219.585938 167.933594 219.136719 C 166.460938 218.691406 165.015625 218.171875 163.597656 217.585938 C 162.179688 216.996094 160.789062 216.339844 159.433594 215.613281 C 158.082031 214.890625 156.765625 214.097656 155.484375 213.246094 C 154.207031 212.390625 152.976562 211.476562 151.789062 210.5 C 150.601562 209.523438 149.464844 208.492188 148.375 207.40625 C 147.289062 206.316406 146.257812 205.179688 145.285156 203.988281 C 144.308594 202.800781 143.394531 201.566406 142.542969 200.289062 C 141.6875 199.007812 140.898438 197.691406 140.175781 196.335938 C 139.449219 194.980469 138.792969 193.589844 138.207031 192.167969 C 137.617188 190.75 137.101562 189.300781 136.652344 187.828125 C 136.207031 186.359375 135.835938 184.867188 135.535156 183.359375 C 135.234375 181.851562 135.007812 180.332031 134.859375 178.800781 C 134.707031 177.269531 134.632812 175.734375 134.632812 174.199219 Z M 134.632812 174.199219 " fill-opacity="1" fill-rule="nonzero"/></g></svg>