<svg xmlns="http://www.w3.org/2000/svg" xmlns:xlink="http://www.w3.org/1999/xlink" width="500" zoomAndPan="magnify" viewBox="0 0 375 374.999991" height="500" preserveAspectRatio="xMidYMid meet" version="1.0"><defs><clipPath id="b56141f46d"><path d="M 37.5 51 L 290 51 L 290 320 L 37.5 320 Z M 37.5 51 " clip-rule="nonzero"/></clipPath><clipPath id="c50aa09191"><path d="M 153 61 L 337.5 61 L 337.5 285 L 153 285 Z M 153 61 " clip-rule="nonzero"/></clipPath></defs><g clip-path="url(#b56141f46d)"><path fill="#ededed" d="M 289.164062 238.449219 L 138.632812 319.503906 L 37.6875 132.027344 L 188.21875 50.972656 L 289.164062 238.449219 " fill-opacity="1" fill-rule="nonzero"/></g><path fill="#c5c4c4" d="M 60.421875 146.941406 L 57.976562 142.398438 L 149.375 93.1875 L 151.824219 97.726562 L 60.421875 146.941406 " fill-opacity="1" fill-rule="nonzero"/><path fill="#c5c4c4" d="M 65.4375 156.253906 L 62.988281 151.710938 L 154.394531 102.5 L 156.835938 107.039062 L 65.4375 156.253906 " fill-opacity="1" fill-rule="nonzero"/><path fill="#c5c4c4" d="M 70.449219 165.566406 L 68.003906 161.027344 L 159.40625 111.8125 L 161.851562 116.355469 L 70.449219 165.566406 " fill-opacity="1" fill-rule="nonzero"/><path fill="#c5c4c4" d="M 75.464844 174.878906 L 73.015625 170.339844 L 162.941406 121.921875 L 162.554688 127.988281 L 75.464844 174.878906 " fill-opacity="1" fill-rule="nonzero"/><path fill="#c5c4c4" d="M 80.476562 184.191406 L 78.035156 179.652344 L 162.148438 134.363281 L 161.765625 140.429688 L 80.476562 184.191406 " fill-opacity="1" fill-rule="nonzero"/><path fill="#c5c4c4" d="M 85.496094 193.507812 L 83.046875 188.964844 L 161.359375 146.796875 L 160.972656 152.863281 L 85.496094 193.507812 " fill-opacity="1" fill-rule="nonzero"/><path fill="#c5c4c4" d="M 90.507812 202.820312 L 88.0625 198.277344 L 160.570312 159.238281 L 160.183594 165.304688 L 90.507812 202.820312 " fill-opacity="1" fill-rule="nonzero"/><path fill="#c5c4c4" d="M 95.523438 212.132812 L 93.078125 207.589844 L 159.777344 171.675781 L 159.390625 177.742188 L 95.523438 212.132812 " fill-opacity="1" fill-rule="nonzero"/><path fill="#c5c4c4" d="M 100.535156 221.445312 L 98.09375 216.90625 L 158.988281 184.113281 L 158.601562 190.179688 L 100.535156 221.445312 " fill-opacity="1" fill-rule="nonzero"/><path fill="#c5c4c4" d="M 105.550781 230.757812 L 103.105469 226.214844 L 158.195312 196.554688 L 157.8125 202.621094 L 105.550781 230.757812 " fill-opacity="1" fill-rule="nonzero"/><path fill="#c5c4c4" d="M 110.5625 240.070312 L 108.121094 235.53125 L 157.40625 208.992188 L 157.019531 215.058594 L 110.5625 240.070312 " fill-opacity="1" fill-rule="nonzero"/><path fill="#c5c4c4" d="M 115.578125 249.386719 L 113.136719 244.84375 L 156.617188 221.429688 L 156.230469 227.496094 L 115.578125 249.386719 " fill-opacity="1" fill-rule="nonzero"/><path fill="#c5c4c4" d="M 120.597656 258.695312 L 118.148438 254.15625 L 155.824219 233.871094 L 155.4375 239.9375 L 120.597656 258.695312 " fill-opacity="1" fill-rule="nonzero"/><path fill="#c5c4c4" d="M 125.609375 268.011719 L 123.164062 263.46875 L 155.035156 246.308594 L 154.648438 252.375 L 125.609375 268.011719 " fill-opacity="1" fill-rule="nonzero"/><path fill="#c5c4c4" d="M 130.621094 277.324219 L 128.179688 272.785156 L 154.246094 258.75 L 153.859375 264.8125 L 130.621094 277.324219 " fill-opacity="1" fill-rule="nonzero"/><path fill="#c5c4c4" d="M 135.640625 286.636719 L 133.191406 282.09375 L 153.453125 271.1875 L 153.265625 274.15625 L 158.234375 274.472656 L 135.640625 286.636719 " fill-opacity="1" fill-rule="nonzero"/><path fill="#c5c4c4" d="M 140.652344 295.949219 L 138.207031 291.410156 L 168.457031 275.121094 L 178.191406 275.738281 L 140.652344 295.949219 " fill-opacity="1" fill-rule="nonzero"/><path fill="#6bc5bb" d="M 201.386719 102.742188 L 170.730469 119.25 L 155.050781 90.128906 L 185.707031 73.625 L 201.386719 102.742188 " fill-opacity="1" fill-rule="nonzero"/><path fill="#183651" d="M 218.136719 133.851562 L 187.480469 150.355469 L 171.800781 121.238281 L 202.457031 104.734375 L 218.136719 133.851562 " fill-opacity="1" fill-rule="nonzero"/><path fill="#f9a72b" d="M 234.886719 164.960938 L 204.230469 181.464844 L 188.550781 152.34375 L 219.203125 135.839844 L 234.886719 164.960938 " fill-opacity="1" fill-rule="nonzero"/><path fill="#648f16" d="M 251.632812 196.066406 L 220.976562 212.574219 L 205.304688 183.453125 L 235.953125 166.949219 L 251.632812 196.066406 " fill-opacity="1" fill-rule="nonzero"/><path fill="#6bc5bb" d="M 268.382812 227.175781 L 237.730469 243.683594 L 222.050781 214.5625 L 252.707031 198.054688 L 268.382812 227.175781 " fill-opacity="1" fill-rule="nonzero"/><g clip-path="url(#c50aa09191)"><path fill="#e5e4e4" d="M 323.886719 284.996094 L 153.265625 274.15625 L 166.773438 61.65625 L 337.390625 72.5 L 323.886719 284.996094 " fill-opacity="1" fill-rule="nonzero"/></g><path fill="#bdbcbd" d="M 281.773438 92.921875 L 178.175781 86.339844 L 178.5 81.191406 L 282.101562 87.777344 L 281.773438 92.921875 " fill-opacity="1" fill-rule="nonzero"/><path fill="#bdbcbd" d="M 281.101562 103.480469 L 177.503906 96.898438 L 177.828125 91.75 L 281.429688 98.332031 L 281.101562 103.480469 " fill-opacity="1" fill-rule="nonzero"/><path fill="#bdbcbd" d="M 280.433594 114.039062 L 176.832031 107.453125 L 177.160156 102.304688 L 280.757812 108.886719 L 280.433594 114.039062 " fill-opacity="1" fill-rule="nonzero"/><path fill="#bdbcbd" d="M 279.757812 124.59375 L 176.160156 118.007812 L 176.488281 112.859375 L 280.089844 119.445312 L 279.757812 124.59375 " fill-opacity="1" fill-rule="nonzero"/><path fill="#bdbcbd" d="M 279.089844 135.148438 L 175.488281 128.566406 L 175.816406 123.414062 L 279.414062 130 L 279.089844 135.148438 " fill-opacity="1" fill-rule="nonzero"/><path fill="#bdbcbd" d="M 278.417969 145.703125 L 174.816406 139.121094 L 175.144531 133.972656 L 278.746094 140.558594 L 278.417969 145.703125 " fill-opacity="1" fill-rule="nonzero"/><path fill="#bdbcbd" d="M 277.746094 156.261719 L 174.144531 149.675781 L 174.472656 144.527344 L 278.078125 151.113281 L 277.746094 156.261719 " fill-opacity="1" fill-rule="nonzero"/><path fill="#bdbcbd" d="M 277.078125 166.816406 L 173.476562 160.230469 L 173.804688 155.085938 L 277.40625 161.667969 L 277.078125 166.816406 " fill-opacity="1" fill-rule="nonzero"/><path fill="#bdbcbd" d="M 276.40625 177.371094 L 172.808594 170.785156 L 173.132812 165.640625 L 276.734375 172.222656 L 276.40625 177.371094 " fill-opacity="1" fill-rule="nonzero"/><path fill="#bdbcbd" d="M 275.734375 187.929688 L 172.136719 181.34375 L 172.464844 176.195312 L 276.066406 182.78125 L 275.734375 187.929688 " fill-opacity="1" fill-rule="nonzero"/><path fill="#bdbcbd" d="M 275.0625 198.484375 L 171.464844 191.902344 L 171.792969 186.75 L 275.390625 193.335938 L 275.0625 198.484375 " fill-opacity="1" fill-rule="nonzero"/><path fill="#bdbcbd" d="M 274.394531 209.039062 L 170.792969 202.457031 L 171.121094 197.308594 L 274.71875 203.890625 L 274.394531 209.039062 " fill-opacity="1" fill-rule="nonzero"/><path fill="#bdbcbd" d="M 273.722656 219.597656 L 170.121094 213.011719 L 170.449219 207.863281 L 274.046875 214.445312 L 273.722656 219.597656 " fill-opacity="1" fill-rule="nonzero"/><path fill="#bdbcbd" d="M 273.050781 230.152344 L 169.449219 223.566406 L 169.78125 218.421875 L 273.378906 225.003906 L 273.050781 230.152344 " fill-opacity="1" fill-rule="nonzero"/><path fill="#bdbcbd" d="M 272.382812 240.707031 L 168.777344 234.125 L 169.109375 228.976562 L 272.707031 235.5625 L 272.382812 240.707031 " fill-opacity="1" fill-rule="nonzero"/><path fill="#bdbcbd" d="M 271.710938 251.261719 L 168.109375 244.679688 L 168.4375 239.53125 L 272.035156 246.117188 L 271.710938 251.261719 " fill-opacity="1" fill-rule="nonzero"/><path fill="#bdbcbd" d="M 271.042969 261.820312 L 167.4375 255.234375 L 167.765625 250.089844 L 271.367188 256.671875 L 271.042969 261.820312 " fill-opacity="1" fill-rule="nonzero"/><path fill="#6bc5bb" d="M 321.183594 123.398438 L 286.433594 121.191406 L 288.53125 88.1875 L 323.28125 90.394531 L 321.183594 123.398438 " fill-opacity="1" fill-rule="nonzero"/><path fill="#183651" d="M 318.941406 158.660156 L 284.191406 156.449219 L 286.292969 123.445312 L 321.039062 125.652344 L 318.941406 158.660156 " fill-opacity="1" fill-rule="nonzero"/><path fill="#f9a72b" d="M 316.699219 193.921875 L 281.953125 191.710938 L 284.050781 158.703125 L 318.800781 160.914062 L 316.699219 193.921875 " fill-opacity="1" fill-rule="nonzero"/><path fill="#648f16" d="M 314.460938 229.175781 L 279.714844 226.96875 L 281.8125 193.960938 L 316.558594 196.171875 L 314.460938 229.175781 " fill-opacity="1" fill-rule="nonzero"/><path fill="#6bc5bb" d="M 312.222656 264.4375 L 277.472656 262.230469 L 279.570312 229.222656 L 314.316406 231.433594 L 312.222656 264.4375 " fill-opacity="1" fill-rule="nonzero"/><path fill="#cb7124" d="M 151.300781 203.570312 L 151.300781 193.445312 L 94.46875 193.445312 L 94.46875 323.949219 L 269.351562 323.949219 L 269.351562 203.570312 L 151.300781 203.570312 " fill-opacity="1" fill-rule="nonzero"/><path fill="#c4c3c3" d="M 257.824219 316.011719 L 100.910156 316.011719 L 100.910156 206.375 L 257.824219 206.375 L 257.824219 316.011719 " fill-opacity="1" fill-rule="nonzero"/><path fill="#dad9d9" d="M 261.550781 319.671875 L 104.636719 319.671875 L 104.636719 210.035156 L 261.550781 210.035156 L 261.550781 319.671875 " fill-opacity="1" fill-rule="nonzero"/><path fill="#ffffff" d="M 266.222656 323.949219 L 109.308594 323.949219 L 109.308594 214.3125 L 266.222656 214.3125 L 266.222656 323.949219 " fill-opacity="1" fill-rule="nonzero"/><path fill="#f9a72b" d="M 269.351562 323.949219 L 94.46875 323.949219 L 94.46875 221.355469 L 269.351562 221.355469 L 269.351562 323.949219 " fill-opacity="1" fill-rule="nonzero"/></svg>