<svg xmlns="http://www.w3.org/2000/svg" xmlns:xlink="http://www.w3.org/1999/xlink" width="500" zoomAndPan="magnify" viewBox="0 0 375 374.999991" height="500" preserveAspectRatio="xMidYMid meet" version="1.0"><defs><clipPath id="5f3ae150a2"><path d="M 203 41.050781 L 223 41.050781 L 223 81 L 203 81 Z M 203 41.050781 " clip-rule="nonzero"/></clipPath></defs><path fill="#ffe7d2" d="M 298.300781 309.421875 C 243.8125 299.777344 189.324219 290.128906 134.835938 280.484375 C 161.183594 210.753906 174.285156 136.746094 173.476562 62.210938 C 227.964844 71.855469 282.453125 81.503906 336.941406 91.148438 C 337.75 165.6875 324.648438 239.695312 298.300781 309.421875 Z M 298.300781 309.421875 " fill-opacity="1" fill-rule="nonzero"/><path fill="#f26849" d="M 271.398438 255.992188 C 279.402344 257.402344 284.496094 265.363281 282.171875 273.203125 C 279.917969 281.265625 270.902344 286.390625 262.820312 285.035156 C 254.773438 283.621094 250.238281 275.675781 252.53125 267.953125 C 254.898438 260.175781 263.199219 254.414062 271.398438 255.992188 Z M 271.898438 254.039062 C 262.570312 252.257812 253.257812 258.773438 250.554688 267.605469 C 247.8125 276.382812 253.171875 285.289062 262.179688 286.949219 C 271.363281 288.476562 281.574219 282.722656 284.148438 273.550781 C 286.679688 264.742188 281.066406 255.511719 271.898438 254.039062 Z M 271.898438 254.039062 " fill-opacity="1" fill-rule="nonzero"/><path fill="#f26849" d="M 257.992188 266.90625 C 257.257812 266.621094 256.890625 266.476562 256.160156 266.191406 C 258.714844 260.933594 264.925781 257.679688 270.6875 258.695312 C 272.757812 259.058594 274.726562 259.972656 276.308594 261.363281 C 275.730469 261.96875 275.441406 262.269531 274.859375 262.875 C 273.664062 261.757812 271.730469 260.914062 270.164062 260.644531 C 265.367188 259.816406 260.25 262.636719 257.992188 266.90625 Z M 257.992188 266.90625 " fill-opacity="1" fill-rule="nonzero"/><path fill="#f26849" d="M 263.691406 282.375 C 261.644531 282.015625 259.699219 281.121094 258.152344 279.726562 C 258.761719 279.132812 259.066406 278.832031 259.671875 278.238281 C 260.847656 279.351562 262.765625 280.1875 264.3125 280.453125 C 269.742188 281.378906 275.867188 277.722656 277.460938 272.367188 C 278.25 272.507812 278.644531 272.578125 279.4375 272.71875 C 277.503906 279.234375 270.359375 283.546875 263.691406 282.375 Z M 263.691406 282.375 " fill-opacity="1" fill-rule="nonzero"/><path fill="#f26849" d="M 275.902344 265.695312 C 269.898438 267.171875 263.894531 268.640625 257.886719 270.101562 C 258.167969 271.878906 258.445312 273.65625 258.714844 275.4375 C 264.75 273.984375 270.78125 272.523438 276.8125 271.054688 C 276.515625 269.265625 276.210938 267.480469 275.902344 265.695312 Z M 275.902344 265.695312 " fill-opacity="1" fill-rule="nonzero"/><path fill="#344973" d="M 248.265625 249.488281 C 247.382812 249.332031 246.507812 248.972656 245.957031 248.410156 C 244.644531 247.066406 244.992188 244.644531 245.484375 242.804688 C 246.59375 238.660156 248.613281 234.613281 250.644531 230.789062 C 247.722656 230.273438 244.828125 229.574219 242.324219 228.066406 C 242 227.871094 241.921875 227.421875 242.152344 227.089844 C 242.382812 226.757812 242.839844 226.664062 243.164062 226.859375 C 245.558594 228.292969 248.550781 229.195312 251.398438 229.4375 C 255.339844 222.734375 260.816406 212.859375 268.191406 210.324219 C 270.128906 209.65625 273.550781 208.824219 274.617188 211.246094 C 277.246094 217.203125 268.273438 225.398438 263.636719 228.128906 C 260.234375 230.128906 256.148438 231.195312 252.1875 230.925781 C 250.117188 234.769531 247.980469 238.761719 246.902344 243.027344 C 246.347656 245.226562 246.371094 246.789062 246.988281 247.320312 C 247.785156 248.007812 248.808594 248.273438 250.105469 248.132812 C 253.996094 247.707031 257.761719 244.703125 260.582031 242.222656 C 260.5625 238.867188 261.726562 235.179688 263.898438 232.59375 C 265.414062 230.792969 266.804688 229.878906 267.933594 230.011719 C 268.558594 230.089844 269.078125 230.5 269.257812 231.101562 C 270.042969 233.761719 267.722656 236.652344 266.121094 238.628906 C 265.003906 240.007812 263.539062 241.421875 262.074219 242.746094 C 262.171875 243.550781 262.402344 244.261719 262.773438 244.804688 C 263.546875 245.949219 264.898438 246.199219 266.789062 245.550781 C 268.210938 245.066406 269.976562 244.21875 271.832031 243.152344 C 271.6875 242.613281 271.640625 242.007812 271.714844 241.355469 C 272.214844 236.894531 276.59375 232.933594 281.027344 232.539062 C 283.148438 232.347656 283.832031 233.210938 283.847656 233.808594 C 283.964844 237.605469 276.953125 241.550781 273.726562 243.617188 C 274.121094 244.074219 274.777344 244.453125 275.75 244.554688 C 279.320312 244.929688 283.191406 243.324219 286.28125 241.453125 C 286.246094 240.835938 286.386719 240.082031 286.675781 239.210938 C 287.4375 236.917969 289.679688 234.078125 292.304688 234.695312 C 293.417969 234.953125 294.109375 236.121094 293.722656 237.019531 C 292.792969 239.167969 289.980469 240.691406 287.945312 242.0625 C 288.046875 242.246094 288.179688 242.433594 288.347656 242.5625 C 290.191406 243.96875 293.714844 243.488281 295.886719 242.503906 C 297.136719 241.9375 298.425781 241.1875 299.667969 240.460938 C 301.6875 239.285156 303.28125 238.359375 304.339844 238.421875 C 304.730469 238.445312 305.015625 238.785156 304.964844 239.175781 C 304.914062 239.570312 304.546875 239.863281 304.148438 239.839844 C 303.550781 239.800781 301.851562 240.792969 300.347656 241.667969 C 299.128906 242.375 297.746094 243.179688 296.417969 243.78125 C 293.738281 244.996094 289.597656 245.421875 287.324219 243.644531 C 287.089844 243.457031 286.847656 243.164062 286.660156 242.820312 C 283.160156 244.625 279.382812 246.378906 275.441406 245.957031 C 274.113281 245.816406 273.0625 245.230469 272.425781 244.386719 C 270.785156 245.351562 268.917969 246.230469 267.167969 246.878906 C 265.210938 247.605469 262.785156 247.441406 261.527344 245.648438 C 261.1875 245.160156 260.941406 244.542969 260.785156 243.863281 C 257.867188 246.320312 254.070312 249.113281 250.132812 249.535156 C 249.464844 249.601562 248.839844 249.589844 248.265625 249.488281 Z M 267.6875 231.425781 C 267.679688 231.425781 267.671875 231.421875 267.664062 231.421875 C 267.332031 231.382812 266.378906 231.765625 265.003906 233.441406 C 263.304688 235.519531 262.289062 238.195312 262.046875 240.886719 C 263.128906 239.855469 264.144531 238.792969 265.035156 237.761719 C 266.398438 236.179688 268.378906 233.628906 267.882812 231.648438 C 267.839844 231.480469 267.738281 231.433594 267.6875 231.425781 Z M 282.058594 233.96875 C 281.851562 233.929688 281.535156 233.910156 281.0625 233.953125 C 277.320312 234.285156 273.605469 237.648438 273.164062 241.386719 C 273.128906 241.691406 273.128906 242.027344 273.175781 242.351562 C 274.496094 241.535156 275.835938 240.609375 277.09375 239.679688 C 279.015625 238.257812 282.230469 235.933594 282.414062 234.117188 C 282.414062 234.097656 282.324219 234.015625 282.058594 233.96875 Z M 291.699219 236.03125 C 290.605469 235.839844 289.046875 236.851562 288.042969 239.601562 C 287.921875 239.933594 287.835938 240.238281 287.785156 240.523438 C 289.449219 239.449219 291.566406 238.144531 292.34375 236.652344 C 292.457031 236.4375 292.15625 236.152344 291.832031 236.0625 C 291.789062 236.050781 291.746094 236.039062 291.699219 236.03125 Z M 272.101562 211.042969 C 271.046875 210.855469 269.613281 211.285156 268.675781 211.65625 C 261.613281 214.457031 256.695312 223.316406 252.980469 229.53125 C 256.628906 229.566406 259.851562 228.585938 262.945312 226.917969 C 266.808594 224.832031 275.488281 217.0625 273.308594 211.886719 C 273.105469 211.402344 272.636719 211.136719 272.101562 211.042969 Z M 272.101562 211.042969 " fill-opacity="1" fill-rule="nonzero"/><path fill="#eac1a2" d="M 233.488281 201.5 C 217.71875 198.710938 201.949219 195.917969 186.179688 193.125 C 186.550781 191.320312 186.730469 190.417969 187.085938 188.609375 C 202.855469 191.402344 218.625 194.191406 234.394531 196.984375 C 234.039062 198.792969 233.859375 199.695312 233.488281 201.5 Z M 233.488281 201.5 " fill-opacity="1" fill-rule="nonzero"/><path fill="#eac1a2" d="M 230.832031 213.800781 C 215.0625 211.007812 199.292969 208.214844 183.523438 205.425781 C 183.933594 203.628906 184.132812 202.726562 184.527344 200.925781 C 200.296875 203.71875 216.066406 206.511719 231.835938 209.304688 C 231.441406 211.101562 231.242188 212.003906 230.832031 213.800781 Z M 230.832031 213.800781 " fill-opacity="1" fill-rule="nonzero"/><path fill="#344973" d="M 220.996094 101.21875 C 221.40625 99.585938 220.417969 96.851562 219.007812 96.980469 C 218.203125 97.054688 217.554688 97.554688 217.019531 98.375 C 214.964844 101.949219 215.175781 106.804688 215.292969 110.699219 C 215.363281 113.03125 215.550781 115.566406 216.417969 117.785156 C 217.402344 119.988281 218.75 119.117188 219.386719 118.351562 C 219.683594 117.964844 219.925781 117.519531 220.023438 116.992188 C 220.097656 116.578125 220.496094 116.355469 220.957031 116.480469 C 221.375 116.589844 221.621094 117.035156 221.554688 117.5 C 221.257812 119.003906 220.132812 120.230469 218.875 120.648438 C 217.445312 121.125 215.855469 120.273438 215.050781 118.339844 C 213.230469 113.703125 213.3125 107.707031 214.007812 102.882812 C 214.351562 100.46875 214.949219 98.574219 215.65625 97.417969 C 216.328125 96.316406 217.460938 95.515625 218.667969 95.410156 C 220.027344 95.292969 221.351562 96.089844 222.011719 97.75 C 222.632812 99.304688 222.804688 100.667969 222.527344 101.808594 C 222.394531 102.226562 221.996094 102.390625 221.578125 102.238281 C 221.15625 102.085938 220.941406 101.644531 220.996094 101.21875 Z M 220.996094 101.21875 " fill-opacity="1" fill-rule="nonzero"/><path fill="#344973" d="M 233.28125 107.050781 C 233.121094 111.050781 232.875 115.171875 232.035156 119.078125 C 231.734375 120.480469 231.355469 121.621094 230.816406 122.085938 C 230.082031 122.707031 228.753906 122.945312 227.71875 122.773438 C 222.671875 121.925781 223.007812 114.804688 223.035156 111.039062 C 223.0625 107.195312 222.710938 101.402344 225.597656 98.660156 C 227.921875 96.457031 231.988281 98.617188 232.722656 101.550781 C 233.144531 102.773438 233.355469 104.398438 233.347656 106.347656 C 233.347656 106.382812 233.34375 106.425781 233.34375 106.464844 C 233.34375 106.503906 233.296875 106.65625 233.28125 107.050781 Z M 231.789062 105.59375 C 231.839844 103.421875 231.453125 100.066406 228.949219 99.453125 C 228.011719 99.226562 227.242188 99.386719 226.71875 99.894531 C 224.242188 102.679688 224.621094 107.804688 224.585938 111.234375 C 224.566406 113.265625 224.558594 115.378906 224.960938 117.390625 C 225.4375 119.660156 226.285156 120.925781 227.828125 121.199219 C 228.449219 121.308594 229.355469 121.152344 229.734375 120.78125 C 229.855469 120.722656 229.957031 120.496094 230.09375 120.128906 C 230.242188 119.722656 230.394531 119.21875 230.546875 118.574219 C 230.824219 117.398438 231.046875 115.859375 231.253906 114.003906 C 231.558594 111.28125 231.796875 108.515625 231.78125 105.75 C 231.785156 105.6875 231.785156 105.65625 231.789062 105.59375 Z M 231.789062 105.59375 " fill-opacity="1" fill-rule="nonzero"/><path fill="#344973" d="M 241.578125 111.816406 C 241.894531 112.589844 242.378906 114.089844 242.441406 111.734375 C 242.480469 110.316406 242.53125 108.710938 242.691406 107.164062 C 242.886719 105.246094 243.007812 103.074219 242.71875 101.136719 C 242.691406 100.695312 242.941406 100.304688 243.363281 100.300781 C 243.789062 100.296875 244.167969 100.640625 244.273438 101.09375 C 244.5625 103.238281 244.382812 105.414062 244.226562 107.558594 C 244.136719 108.8125 244.066406 109.761719 244.0625 110.386719 C 244.054688 115.039062 243.820312 119.84375 243.894531 124.5625 C 243.902344 125 243.5625 125.339844 243.136719 125.304688 C 242.710938 125.265625 242.347656 124.886719 242.335938 124.445312 C 242.269531 122.355469 242.382812 120.160156 242.363281 118.160156 C 242.359375 117.8125 242.28125 117.511719 242.148438 117.167969 C 240.523438 113.210938 238.875 109.261719 237.207031 105.320312 C 237.402344 105.816406 237.503906 106.066406 237.699219 106.5625 C 237.378906 105.789062 236.886719 104.550781 236.800781 106.601562 C 236.664062 109.839844 236.449219 113.097656 236.191406 116.3125 C 236.023438 118.363281 235.820312 120.441406 235.671875 122.507812 C 235.640625 122.9375 235.269531 123.234375 234.847656 123.160156 C 234.421875 123.082031 234.097656 122.664062 234.128906 122.234375 C 234.394531 118.550781 234.785156 114.804688 235.03125 111.175781 C 235.277344 107.558594 235.410156 103.800781 235.183594 100.121094 C 235.183594 100.042969 235.210938 99.949219 235.226562 99.890625 C 235.257812 99.777344 235.199219 99.527344 235.402344 99.246094 C 235.523438 99.070312 235.6875 98.972656 235.953125 98.988281 C 236.371094 99.011719 236.78125 99.390625 236.820312 99.8125 C 236.882812 100.5625 237.265625 101.679688 237.480469 102.191406 C 237.585938 102.488281 237.765625 102.917969 238.050781 103.5625 C 238.339844 104.210938 238.515625 104.640625 238.625 104.859375 C 239.617188 107.171875 240.605469 109.492188 241.578125 111.816406 Z M 241.578125 111.816406 " fill-opacity="1" fill-rule="nonzero"/><path fill="#344973" d="M 246.558594 101.460938 C 249.183594 101.882812 251.890625 102.363281 254.546875 102.835938 C 254.972656 102.910156 255.3125 103.324219 255.296875 103.757812 C 255.28125 104.191406 254.921875 104.488281 254.496094 104.414062 C 254.035156 104.332031 253.363281 104.191406 252.492188 104.019531 C 252.226562 103.964844 251.953125 103.925781 251.757812 103.890625 C 251.296875 103.808594 251 104.046875 250.960938 104.5 C 250.539062 109.019531 250.453125 113.855469 250.226562 118.515625 C 250.117188 120.71875 249.992188 122.929688 249.839844 125.132812 C 249.808594 125.566406 249.4375 125.859375 249.011719 125.785156 C 248.585938 125.710938 248.265625 125.292969 248.296875 124.863281 C 248.449219 122.65625 248.578125 120.449219 248.683594 118.246094 C 248.910156 113.59375 249.007812 108.792969 249.414062 104.265625 C 249.457031 103.773438 249.191406 103.453125 248.671875 103.382812 C 247.921875 103.273438 247.179688 103.136719 246.582031 103.050781 C 246.167969 102.988281 245.78125 102.59375 245.796875 102.160156 C 245.808594 101.726562 246.140625 101.390625 246.558594 101.460938 Z M 246.558594 101.460938 " fill-opacity="1" fill-rule="nonzero"/><path fill="#344973" d="M 263.316406 122.347656 C 263.320312 123.046875 263.320312 123.398438 263.324219 124.097656 C 263.3125 124.851562 263.507812 126.042969 263.773438 126.765625 C 263.804688 126.851562 263.835938 126.933594 263.832031 126.976562 C 263.902344 127.109375 264.351562 126.867188 264.351562 126.867188 C 264.640625 126.601562 265.148438 126.609375 265.441406 126.945312 C 265.730469 127.273438 265.773438 127.796875 265.4375 128.097656 C 264.386719 129.144531 263.023438 129.0625 262.335938 127.226562 C 261.972656 126.25 261.832031 124.828125 261.808594 123.949219 C 261.800781 123.511719 261.761719 122.90625 261.773438 122.074219 C 261.785156 121.28125 261.773438 120.757812 261.75 120.476562 C 261.757812 118.371094 261.445312 116.925781 260.605469 115.820312 C 260.3125 115.453125 260.003906 115.359375 259.6875 115.417969 C 259.257812 115.503906 259.054688 115.789062 259.023438 116.257812 C 258.800781 119.820312 258.433594 123.464844 258.164062 127.046875 C 258.128906 127.476562 257.761719 127.773438 257.335938 127.699219 C 256.910156 127.621094 256.589844 127.203125 256.617188 126.773438 C 256.792969 124.3125 257.007812 121.851562 257.210938 119.394531 C 257.597656 114.761719 257.9375 110.148438 257.933594 105.496094 C 257.933594 104.308594 257.222656 104.65625 257.222656 104.65625 C 256.871094 104.792969 256.386719 104.484375 256.234375 104.085938 C 256.078125 103.664062 256.226562 103.210938 256.652344 103.128906 C 259.066406 102.46875 261.308594 103.511719 263.164062 104.675781 C 265.191406 105.953125 266.496094 108.617188 265.917969 111.117188 C 265.5625 112.671875 264.558594 113.816406 262.964844 114.53125 C 262.765625 114.613281 262.570312 114.65625 262.371094 114.742188 C 262.011719 114.917969 262 115.195312 262.246094 115.675781 C 262.886719 116.902344 263.265625 118.558594 263.304688 120.632812 C 263.308594 121.320312 263.3125 121.664062 263.316406 122.347656 Z M 260.125 113.710938 C 262.328125 113.222656 263.921875 112.511719 264.390625 110.53125 C 264.8125 108.742188 264.015625 107.128906 262.386719 105.929688 C 261.742188 105.417969 261.011719 105.089844 260.246094 104.835938 C 259.753906 104.671875 259.441406 104.9375 259.453125 105.449219 C 259.511719 107.890625 259.347656 110.429688 259.226562 112.914062 C 259.199219 113.503906 259.574219 113.847656 260.125 113.710938 Z M 260.125 113.710938 " fill-opacity="1" fill-rule="nonzero"/><path fill="#344973" d="M 266.460938 128.558594 C 266.601562 122.40625 267.332031 116.300781 268.214844 110.214844 C 268.46875 108.710938 268.820312 107.503906 269.320312 106.558594 C 270.1875 104.929688 271.789062 104.582031 273.152344 106.882812 C 275.277344 110.464844 274.617188 115.335938 274.335938 119.246094 C 274.117188 122.316406 273.164062 126.804688 274.863281 129.683594 C 275.152344 130.054688 275.019531 130.550781 274.710938 130.773438 C 274.382812 131.011719 273.882812 130.867188 273.632812 130.503906 C 271.515625 127.382812 272.535156 122.363281 272.796875 118.933594 C 272.808594 118.660156 272.863281 118.390625 272.875 118.152344 C 272.898438 117.679688 272.59375 117.378906 272.097656 117.339844 C 271.714844 117.304688 271.273438 117.304688 270.699219 117.25 C 270.28125 117.210938 269.867188 117.167969 269.539062 117.164062 C 269.132812 117.15625 268.863281 117.402344 268.796875 117.867188 C 268.421875 121.496094 268.152344 125.109375 268.015625 128.753906 C 267.984375 129.183594 267.644531 129.523438 267.21875 129.449219 C 266.796875 129.371094 266.433594 128.988281 266.460938 128.558594 Z M 272.214844 115.691406 C 272.71875 115.777344 273.003906 115.554688 273.027344 115.039062 C 273.140625 112.558594 273.117188 109.847656 271.886719 107.609375 C 271.261719 106.585938 271.140625 106.644531 270.6875 107.476562 C 269.699219 109.710938 269.476562 112.28125 269.1875 114.675781 C 269.125 115.261719 269.398438 115.5625 269.847656 115.589844 C 270.109375 115.605469 270.351562 115.597656 270.660156 115.652344 C 271.785156 115.730469 272.523438 115.785156 272.835938 115.796875 C 272.585938 115.753906 272.464844 115.734375 272.214844 115.691406 Z M 272.214844 115.691406 " fill-opacity="1" fill-rule="nonzero"/><path fill="#344973" d="M 283.800781 112.339844 C 284.214844 110.703125 283.222656 107.96875 281.816406 108.097656 C 281.011719 108.171875 280.363281 108.675781 279.828125 109.492188 C 277.773438 113.070312 277.980469 117.925781 278.097656 121.820312 C 278.167969 124.148438 278.359375 126.683594 279.222656 128.902344 C 280.207031 131.109375 281.554688 130.234375 282.191406 129.46875 C 282.492188 129.082031 282.730469 128.636719 282.828125 128.109375 C 282.90625 127.695312 283.304688 127.472656 283.761719 127.597656 C 284.183594 127.710938 284.429688 128.152344 284.359375 128.621094 C 284.066406 130.121094 282.941406 131.347656 281.683594 131.769531 C 280.25 132.246094 278.664062 131.390625 277.855469 129.460938 C 276.039062 124.820312 276.121094 118.824219 276.8125 114.003906 C 277.160156 111.589844 277.757812 109.695312 278.460938 108.535156 C 279.136719 107.433594 280.269531 106.632812 281.472656 106.53125 C 282.835938 106.414062 284.160156 107.207031 284.820312 108.867188 C 285.4375 110.421875 285.609375 111.785156 285.335938 112.925781 C 285.203125 113.34375 284.804688 113.507812 284.382812 113.355469 C 283.964844 113.203125 283.746094 112.765625 283.800781 112.339844 Z M 283.800781 112.339844 " fill-opacity="1" fill-rule="nonzero"/><path fill="#344973" d="M 287.042969 108.628906 C 289.667969 109.050781 292.371094 109.53125 295.03125 110.003906 C 295.457031 110.078125 295.792969 110.492188 295.78125 110.925781 C 295.765625 111.359375 295.40625 111.65625 294.980469 111.582031 C 294.519531 111.5 293.847656 111.359375 292.972656 111.1875 C 292.710938 111.132812 292.433594 111.089844 292.242188 111.058594 C 291.78125 110.976562 291.484375 111.214844 291.441406 111.667969 C 291.023438 116.1875 290.9375 121.023438 290.710938 125.683594 C 290.601562 127.886719 290.476562 130.097656 290.320312 132.300781 C 290.292969 132.734375 289.921875 133.027344 289.496094 132.953125 C 289.070312 132.878906 288.75 132.460938 288.777344 132.027344 C 288.933594 129.824219 289.058594 127.613281 289.167969 125.410156 C 289.394531 120.761719 289.503906 115.976562 289.898438 111.433594 C 289.941406 110.941406 289.675781 110.621094 289.152344 110.546875 C 288.402344 110.441406 287.664062 110.304688 287.066406 110.21875 C 286.652344 110.15625 286.269531 109.761719 286.28125 109.328125 C 286.296875 108.894531 286.621094 108.558594 287.042969 108.628906 Z M 287.042969 108.628906 " fill-opacity="1" fill-rule="nonzero"/><path fill="#eac1a2" d="M 308.988281 157.246094 C 284.183594 152.855469 259.378906 148.464844 234.570312 144.070312 C 234.765625 142.238281 234.859375 141.320312 235.042969 139.484375 C 259.847656 143.878906 284.652344 148.269531 309.457031 152.660156 C 309.277344 154.496094 309.183594 155.414062 308.988281 157.246094 Z M 308.988281 157.246094 " fill-opacity="1" fill-rule="nonzero"/><path fill="#eac1a2" d="M 307.605469 169.101562 C 282.800781 164.707031 257.992188 160.316406 233.1875 155.925781 C 233.421875 154.097656 233.53125 153.183594 233.75 151.351562 C 258.554688 155.742188 283.363281 160.136719 308.167969 164.527344 C 307.949219 166.359375 307.835938 167.273438 307.605469 169.101562 Z M 307.605469 169.101562 " fill-opacity="1" fill-rule="nonzero"/><path fill="#eac1a2" d="M 305.984375 180.921875 C 281.179688 176.53125 256.371094 172.136719 231.566406 167.746094 C 231.835938 165.921875 231.964844 165.011719 232.222656 163.1875 C 257.027344 167.578125 281.832031 171.96875 306.636719 176.359375 C 306.382812 178.1875 306.253906 179.097656 305.984375 180.921875 Z M 305.984375 180.921875 " fill-opacity="1" fill-rule="nonzero"/><path fill="#eac1a2" d="M 304.125 192.707031 C 266.089844 185.972656 228.058594 179.238281 190.023438 172.503906 C 190.328125 170.6875 190.480469 169.777344 190.769531 167.957031 C 228.804688 174.691406 266.835938 181.425781 304.871094 188.160156 C 304.578125 189.980469 304.429688 190.886719 304.125 192.707031 Z M 304.125 192.707031 " fill-opacity="1" fill-rule="nonzero"/><path fill="#eac1a2" d="M 222.210938 166.089844 C 212.101562 164.300781 201.992188 162.511719 191.882812 160.71875 C 193.246094 151.324219 194.40625 141.90625 195.359375 132.460938 C 205.46875 134.25 215.578125 136.039062 225.6875 137.828125 C 224.734375 147.277344 223.574219 156.695312 222.210938 166.089844 Z M 222.210938 166.089844 " fill-opacity="1" fill-rule="nonzero"/><path fill="#e89938" d="M 245.375 224.914062 C 232.902344 224.117188 228.078125 227.171875 228.078125 227.171875 L 214.070312 219.492188 L 217.125 210.375 L 232.933594 212.6875 C 232.933594 212.6875 234.941406 218.035156 245.375 224.914062 Z M 245.375 224.914062 " fill-opacity="1" fill-rule="nonzero"/><path fill="#283a56" d="M 216.542969 206.890625 C 217.40625 207.265625 217.839844 208.234375 217.542969 209.128906 L 213.652344 220.738281 C 213.351562 221.632812 212.417969 222.144531 211.503906 221.921875 C 176.648438 213.410156 113.753906 189.007812 113.753906 189.007812 L 118.699219 174.25 C 118.699219 174.25 183.597656 192.679688 216.542969 206.890625 Z M 216.542969 206.890625 " fill-opacity="1" fill-rule="nonzero"/><path fill="#e89938" d="M 131.269531 176.640625 L 125.226562 194.675781 L 119.710938 192.652344 L 125.667969 174.878906 Z M 131.269531 176.640625 " fill-opacity="1" fill-rule="nonzero"/><path fill="#283a56" d="M 119.710938 192.652344 L 83.1875 179.238281 C 80.515625 178.257812 79.109375 175.328125 80.015625 172.628906 L 82.042969 166.574219 C 82.953125 163.855469 85.875 162.367188 88.609375 163.226562 L 125.667969 174.878906 Z M 119.710938 192.652344 " fill-opacity="1" fill-rule="nonzero"/><path fill="#e89938" d="M 84.988281 169.746094 C 84.863281 170.117188 84.894531 170.535156 85.109375 170.902344 C 85.5 171.570312 86.359375 171.792969 87.027344 171.398438 L 87.277344 171.253906 C 88.804688 170.355469 90.644531 170.160156 92.324219 170.726562 L 141.183594 187.101562 C 141.917969 187.347656 142.714844 186.949219 142.960938 186.21875 C 143.207031 185.484375 142.808594 184.6875 142.074219 184.441406 L 93.214844 168.066406 C 90.765625 167.246094 88.082031 167.523438 85.855469 168.835938 L 85.605469 168.980469 C 85.304688 169.160156 85.09375 169.433594 84.988281 169.746094 Z M 84.988281 169.746094 " fill-opacity="1" fill-rule="nonzero"/><path fill="#344973" d="M 234.632812 220.828125 C 234.214844 221.539062 234.453125 222.457031 235.164062 222.875 C 235.875 223.292969 236.789062 223.054688 237.207031 222.34375 C 237.625 221.632812 237.386719 220.71875 236.675781 220.300781 C 235.964844 219.882812 235.050781 220.117188 234.632812 220.828125 Z M 234.632812 220.828125 " fill-opacity="1" fill-rule="nonzero"/><path fill="#344973" d="M 244.363281 224.855469 L 235.949219 221.816406 C 235.9375 221.8125 235.925781 221.804688 235.914062 221.796875 C 235.832031 221.75 235.789062 221.644531 235.824219 221.546875 C 235.863281 221.4375 235.984375 221.382812 236.09375 221.421875 L 244.933594 224.621094 C 245.082031 224.71875 245.222656 224.816406 245.375 224.914062 C 245.03125 224.890625 244.695312 224.871094 244.363281 224.855469 Z M 244.363281 224.855469 " fill-opacity="1" fill-rule="nonzero"/><path fill="#ffa27d" d="M 43.367188 282.199219 C 43.367188 282.199219 56.425781 277.910156 64.367188 272.238281 C 72.3125 266.566406 79.300781 257.605469 80.671875 256.261719 C 82.042969 254.921875 86.308594 249.703125 86.621094 248.382812 C 86.933594 247.0625 94.886719 222.816406 96.367188 220.582031 C 97.847656 218.34375 104.023438 196.296875 107.609375 195.378906 C 111.191406 194.457031 132.761719 187.28125 137.21875 185.414062 C 141.675781 183.542969 153.667969 178.921875 157.445312 177.898438 C 161.21875 176.875 176.835938 183.769531 182.117188 185.019531 C 187.402344 186.269531 193.96875 188.132812 196.464844 189.949219 C 198.960938 191.765625 211.375 197.664062 213 200.429688 C 214.625 203.195312 209.179688 210.683594 202.144531 208.917969 C 202.144531 208.917969 202.335938 215.585938 200.976562 222.566406 C 199.621094 229.550781 199.679688 233.988281 196.980469 234.664062 C 194.28125 235.339844 191.8125 234.9375 191.8125 234.9375 C 191.8125 234.9375 190.457031 243.53125 188.316406 245.382812 C 186.179688 247.234375 185.4375 248.351562 185.4375 248.351562 C 185.4375 248.351562 184.636719 254.898438 179.925781 259.65625 C 175.214844 264.417969 156.144531 266.410156 156.144531 266.410156 C 156.144531 266.410156 143.28125 281.851562 138.492188 289.71875 C 133.703125 297.589844 127.519531 303.449219 119.5 306.960938 C 111.484375 310.476562 102.871094 310.929688 102.871094 310.929688 C 102.871094 310.929688 68.398438 334.296875 67.390625 333.46875 C 66.386719 332.640625 37.976562 287.582031 43.367188 282.199219 Z M 43.367188 282.199219 " fill-opacity="1" fill-rule="nonzero"/><path fill="#e06655" d="M 177.519531 255.398438 C 174.324219 257.285156 170.757812 258.492188 167.796875 259.371094 C 163.34375 260.6875 157.753906 266.058594 157.699219 266.113281 C 157.183594 266.609375 156.363281 266.597656 155.867188 266.082031 C 155.367188 265.566406 155.382812 264.746094 155.898438 264.25 C 156.144531 264.011719 162.007812 258.382812 167.058594 256.886719 C 170.769531 255.785156 175.464844 254.15625 178.890625 251.289062 C 179.4375 250.828125 180.253906 250.902344 180.714844 251.453125 C 181.175781 252 181.101562 252.816406 180.550781 253.277344 C 179.605469 254.066406 178.582031 254.773438 177.519531 255.398438 Z M 177.519531 255.398438 " fill-opacity="1" fill-rule="nonzero"/><path fill="#e06655" d="M 177.554688 261.449219 C 177.246094 261.476562 174.410156 261.589844 170.789062 257.554688 C 170.308594 257.023438 170.355469 256.203125 170.886719 255.726562 C 171.421875 255.246094 172.238281 255.289062 172.714844 255.824219 C 175.445312 258.863281 177.363281 258.867188 177.382812 258.867188 L 177.339844 258.867188 Z M 177.554688 261.449219 " fill-opacity="1" fill-rule="nonzero"/><path fill="#e06655" d="M 186.09375 249.46875 C 185.902344 249.582031 185.683594 249.644531 185.445312 249.648438 C 184.730469 249.652344 184.144531 249.074219 184.140625 248.359375 C 184.140625 248.273438 184.015625 239.558594 178.8125 236.34375 C 175.332031 234.191406 172.257812 234.847656 168.007812 235.75 C 165.820312 236.214844 163.347656 236.742188 160.496094 236.914062 C 152.332031 237.417969 139.542969 237.367188 139.417969 237.367188 C 138.699219 237.363281 138.125 236.78125 138.125 236.066406 C 138.128906 235.351562 138.710938 234.773438 139.425781 234.777344 C 139.554688 234.777344 152.257812 234.824219 160.339844 234.328125 C 162.996094 234.167969 165.269531 233.683594 167.46875 233.214844 C 171.945312 232.265625 175.808594 231.441406 180.171875 234.136719 C 186.605469 238.109375 186.730469 247.929688 186.734375 248.34375 C 186.734375 248.824219 186.480469 249.242188 186.09375 249.46875 Z M 186.09375 249.46875 " fill-opacity="1" fill-rule="nonzero"/><path fill="#e06655" d="M 192.472656 236.050781 C 192.355469 236.121094 192.226562 236.171875 192.085938 236.203125 C 191.390625 236.355469 190.699219 235.910156 190.546875 235.210938 C 189.316406 229.582031 185.300781 214.292969 181.535156 211.222656 C 178.636719 208.859375 176.296875 209.496094 169.96875 211.691406 C 167.660156 212.492188 165.042969 213.398438 161.789062 214.3125 C 149.855469 217.664062 140.839844 217.910156 140.460938 217.921875 C 139.746094 217.9375 139.152344 217.371094 139.136719 216.65625 C 139.117188 215.941406 139.683594 215.347656 140.398438 215.332031 C 140.488281 215.328125 149.488281 215.074219 161.089844 211.816406 C 164.269531 210.925781 166.847656 210.03125 169.121094 209.242188 C 175.285156 207.105469 179.003906 205.816406 183.171875 209.214844 C 188.316406 213.40625 192.605469 232.496094 193.078125 234.660156 C 193.199219 235.21875 192.9375 235.777344 192.472656 236.050781 Z M 192.472656 236.050781 " fill-opacity="1" fill-rule="nonzero"/><path fill="#e06655" d="M 202.804688 210.035156 C 202.695312 210.097656 202.574219 210.148438 202.441406 210.179688 C 201.746094 210.34375 201.046875 209.910156 200.882812 209.214844 C 200.878906 209.183594 200 205.644531 197.1875 203.261719 C 194.167969 200.699219 173.011719 190.074219 168.878906 188.382812 C 165.398438 186.960938 147.964844 192.46875 139.425781 196.597656 C 134.589844 198.933594 130.535156 199.5 126.246094 200.097656 C 123.4375 200.488281 120.53125 200.890625 117.242188 201.835938 C 109.546875 204.050781 104.441406 213.90625 104.386719 214.007812 C 104.0625 214.644531 103.285156 214.898438 102.644531 214.574219 C 102.007812 214.246094 101.753906 213.46875 102.078125 212.832031 C 102.304688 212.382812 107.738281 201.875 116.527344 199.347656 C 119.992188 198.351562 122.988281 197.933594 125.890625 197.527344 C 129.972656 196.960938 133.828125 196.421875 138.296875 194.261719 C 145.1875 190.933594 164.78125 183.910156 169.859375 185.984375 C 174.261719 187.785156 195.511719 198.441406 198.863281 201.285156 C 202.339844 204.230469 203.363281 208.441406 203.40625 208.621094 C 203.539062 209.1875 203.28125 209.753906 202.804688 210.035156 Z M 202.804688 210.035156 " fill-opacity="1" fill-rule="nonzero"/><path fill="#ffc3ae" d="M 201.820312 201.101562 C 202.96875 202.707031 208.007812 205.683594 211.316406 205.851562 C 213.007812 203.949219 213.742188 201.695312 213 200.429688 C 212.070312 198.847656 207.601562 196.234375 203.484375 193.953125 C 202.65625 195.488281 200.683594 199.507812 201.820312 201.101562 Z M 201.820312 201.101562 " fill-opacity="1" fill-rule="nonzero"/><path fill="#ffc3ae" d="M 198.113281 224.582031 C 195.863281 227.554688 195.875 229.980469 196.023438 232.40625 C 196.082031 233.351562 196.214844 234.160156 196.417969 234.789062 C 196.605469 234.75 196.792969 234.710938 196.980469 234.664062 C 199.679688 233.984375 199.621094 229.550781 200.976562 222.566406 C 200.992188 222.496094 201.003906 222.425781 201.019531 222.355469 C 200.238281 222.570312 199.203125 223.148438 198.113281 224.582031 Z M 198.113281 224.582031 " fill-opacity="1" fill-rule="nonzero"/><path fill="#ffe7d2" d="M 205.390625 79.203125 L 206.601562 79.328125 C 206.960938 79.363281 207.320312 79.128906 207.441406 78.78125 L 217.617188 48.953125 C 217.648438 48.859375 217.664062 48.761719 217.65625 48.667969 L 217.253906 43.554688 L 227.730469 44.621094 L 224.917969 49.367188 C 224.863281 49.460938 224.828125 49.5625 224.8125 49.667969 L 221.398438 80.183594 C 221.355469 80.546875 221.605469 80.855469 221.972656 80.890625 L 223.054688 81.003906 C 223.449219 81.042969 223.835938 80.761719 223.917969 80.371094 C 224 79.980469 223.75 79.632812 223.355469 79.59375 L 222.917969 79.546875 L 226.246094 49.832031 L 229.511719 44.324219 C 229.632812 44.113281 229.652344 43.871094 229.558594 43.671875 C 229.464844 43.46875 229.269531 43.335938 229.039062 43.3125 L 216.601562 42.046875 C 216.378906 42.023438 216.144531 42.105469 215.972656 42.269531 C 215.800781 42.433594 215.707031 42.660156 215.726562 42.878906 L 216.191406 48.777344 L 206.269531 77.851562 L 205.6875 77.792969 C 205.296875 77.753906 204.910156 78.035156 204.828125 78.425781 C 204.742188 78.816406 204.996094 79.164062 205.390625 79.203125 Z M 205.390625 79.203125 " fill-opacity="1" fill-rule="nonzero"/><path fill="#344973" d="M 197.851562 76.050781 L 199.371094 61.148438 C 199.492188 59.96875 200.546875 59.105469 201.726562 59.226562 L 229.226562 62.027344 C 230.40625 62.148438 231.265625 63.203125 231.148438 64.386719 L 229.519531 80.351562 C 229.398438 81.546875 228.332031 82.414062 227.136719 82.292969 L 202.414062 79.777344 L 197.523438 79.277344 C 196.699219 79.195312 196.097656 78.457031 196.183594 77.632812 L 196.207031 77.394531 C 196.289062 76.570312 197.027344 75.96875 197.851562 76.050781 Z M 197.851562 76.050781 " fill-opacity="1" fill-rule="nonzero"/><g clip-path="url(#5f3ae150a2)"><path fill="#ffe7d2" d="M 203.929688 79.054688 L 205.140625 79.179688 C 205.503906 79.214844 205.804688 78.976562 205.84375 78.617188 L 209.375 48.113281 C 209.382812 48.015625 209.375 47.917969 209.347656 47.820312 L 207.851562 42.597656 L 218.328125 43.664062 L 216.601562 48.519531 C 216.566406 48.613281 216.554688 48.71875 216.566406 48.828125 L 219.796875 80.019531 C 219.835938 80.394531 220.144531 80.707031 220.511719 80.742188 L 221.59375 80.855469 C 221.988281 80.894531 222.304688 80.605469 222.300781 80.207031 C 222.300781 79.808594 221.976562 79.453125 221.585938 79.414062 L 221.144531 79.367188 L 218 48.992188 L 220.007812 43.355469 C 220.082031 43.140625 220.046875 42.894531 219.914062 42.6875 C 219.777344 42.484375 219.558594 42.347656 219.328125 42.324219 L 206.890625 41.058594 C 206.667969 41.035156 206.457031 41.121094 206.324219 41.289062 C 206.191406 41.457031 206.152344 41.6875 206.214844 41.910156 L 207.941406 47.9375 L 204.5 77.671875 L 203.917969 77.613281 C 203.523438 77.574219 203.207031 77.863281 203.210938 78.261719 C 203.214844 78.660156 203.535156 79.015625 203.929688 79.054688 Z M 203.929688 79.054688 " fill-opacity="1" fill-rule="nonzero"/></g></svg>