<svg xmlns="http://www.w3.org/2000/svg" xmlns:xlink="http://www.w3.org/1999/xlink" width="500" zoomAndPan="magnify" viewBox="0 0 375 374.999991" height="500" preserveAspectRatio="xMidYMid meet" version="1.0"><defs><clipPath id="c55c99fd1d"><path d="M 79 78.9375 L 304 78.9375 L 304 86 L 79 86 Z M 79 78.9375 " clip-rule="nonzero"/></clipPath><clipPath id="190d4853b8"><path d="M 79 78.9375 L 304 78.9375 L 304 82 L 79 82 Z M 79 78.9375 " clip-rule="nonzero"/></clipPath><clipPath id="eebbdb7c1a"><path d="M 37.5 288 L 337.5 288 L 337.5 296.4375 L 37.5 296.4375 Z M 37.5 288 " clip-rule="nonzero"/></clipPath><clipPath id="e58acc8f0a"><path d="M 37.5 294 L 337.5 294 L 337.5 296.4375 L 37.5 296.4375 Z M 37.5 294 " clip-rule="nonzero"/></clipPath><clipPath id="de7e60500a"><path d="M 37.5 288 L 337.5 288 L 337.5 291 L 37.5 291 Z M 37.5 288 " clip-rule="nonzero"/></clipPath><clipPath id="8d04d7a914"><path d="M 318 171 L 337.5 171 L 337.5 238 L 318 238 Z M 318 171 " clip-rule="nonzero"/></clipPath></defs><path fill="#cd432f" d="M 311.414062 146.585938 L 70.328125 146.585938 L 80.867188 83.808594 L 300.9375 83.808594 L 311.414062 146.585938 " fill-opacity="1" fill-rule="nonzero"/><path fill="#c0786a" d="M 79.578125 91.503906 L 80.867188 83.808594 L 79.578125 91.503906 " fill-opacity="1" fill-rule="nonzero"/><path fill="#af312b" d="M 302.21875 91.503906 L 79.578125 91.503906 L 80.867188 83.808594 L 300.9375 83.808594 L 302.21875 91.503906 " fill-opacity="1" fill-rule="nonzero"/><path fill="#922b26" d="M 89.585938 136.4375 L 87.332031 136.4375 L 96.386719 83.808594 L 98.449219 83.808594 L 89.585938 136.4375 " fill-opacity="1" fill-rule="nonzero"/><path fill="#922b26" d="M 110.070312 136.4375 L 107.8125 136.4375 L 115.085938 83.808594 L 117.144531 83.808594 L 110.070312 136.4375 " fill-opacity="1" fill-rule="nonzero"/><path fill="#922b26" d="M 130.554688 136.4375 L 128.296875 136.4375 L 133.78125 83.808594 L 135.839844 83.808594 L 130.554688 136.4375 " fill-opacity="1" fill-rule="nonzero"/><path fill="#922b26" d="M 151.035156 136.4375 L 148.78125 136.4375 L 152.480469 83.808594 L 154.539062 83.808594 L 151.035156 136.4375 " fill-opacity="1" fill-rule="nonzero"/><path fill="#922b26" d="M 171.515625 136.4375 L 169.261719 136.4375 L 171.175781 83.808594 L 173.234375 83.808594 L 171.515625 136.4375 " fill-opacity="1" fill-rule="nonzero"/><path fill="#922b26" d="M 192 136.4375 L 189.746094 136.4375 L 189.875 83.808594 L 191.929688 83.808594 L 192 136.4375 " fill-opacity="1" fill-rule="nonzero"/><path fill="#922b26" d="M 212.480469 136.4375 L 210.230469 136.4375 L 208.570312 83.808594 L 210.628906 83.808594 L 212.480469 136.4375 " fill-opacity="1" fill-rule="nonzero"/><path fill="#922b26" d="M 232.96875 136.4375 L 230.710938 136.4375 L 227.265625 83.808594 L 229.328125 83.808594 L 232.96875 136.4375 " fill-opacity="1" fill-rule="nonzero"/><path fill="#922b26" d="M 253.449219 136.4375 L 251.195312 136.4375 L 245.964844 83.808594 L 248.027344 83.808594 L 253.449219 136.4375 " fill-opacity="1" fill-rule="nonzero"/><path fill="#922b26" d="M 273.933594 136.4375 L 271.675781 136.4375 L 264.660156 83.808594 L 266.71875 83.808594 L 273.933594 136.4375 " fill-opacity="1" fill-rule="nonzero"/><path fill="#922b26" d="M 294.414062 136.4375 L 292.160156 136.4375 L 283.359375 83.808594 L 285.417969 83.808594 L 294.414062 136.4375 " fill-opacity="1" fill-rule="nonzero"/><g clip-path="url(#c55c99fd1d)"><path fill="#cd432f" d="M 303.402344 85.347656 L 303.402344 79.707031 C 303.402344 79.28125 303.058594 78.9375 302.644531 78.9375 L 79.789062 78.9375 C 79.371094 78.9375 79.035156 79.28125 79.035156 79.707031 L 79.035156 85.347656 L 303.402344 85.347656 " fill-opacity="1" fill-rule="nonzero"/></g><g clip-path="url(#190d4853b8)"><path fill="#ee5d4a" d="M 303.402344 81.246094 L 303.402344 79.707031 C 303.402344 79.28125 303.058594 78.9375 302.644531 78.9375 L 79.789062 78.9375 C 79.371094 78.9375 79.035156 79.28125 79.035156 79.707031 L 79.035156 81.246094 L 303.402344 81.246094 " fill-opacity="1" fill-rule="nonzero"/></g><path fill="#e09d49" d="M 71.664062 274.65625 L 310.558594 274.65625 L 310.558594 150.441406 L 71.664062 150.441406 Z M 71.664062 274.65625 " fill-opacity="1" fill-rule="nonzero"/><path fill="#c25b37" d="M 211.523438 258.457031 L 91.394531 258.457031 L 91.394531 254.523438 L 208.710938 254.523438 L 208.710938 174.082031 L 211.523438 174.082031 L 211.523438 258.457031 " fill-opacity="1" fill-rule="nonzero"/><path fill="#bf8038" d="M 71.664062 167.535156 L 310.558594 167.535156 L 310.558594 150.441406 L 71.664062 150.441406 Z M 71.664062 167.535156 " fill-opacity="1" fill-rule="nonzero"/><path fill="#c25b37" d="M 292.527344 264.570312 L 289.367188 264.570312 L 289.367188 172.433594 L 291.824219 172.433594 C 292.214844 172.433594 292.527344 172.75 292.527344 173.140625 L 292.527344 264.570312 " fill-opacity="1" fill-rule="nonzero"/><path fill="#eed1bb" d="M 315.007812 287.324219 C 315.007812 287.714844 314.695312 288.027344 314.308594 288.027344 L 67.453125 288.027344 C 67.0625 288.027344 66.75 287.714844 66.75 287.324219 L 66.75 265.273438 C 66.75 264.886719 67.0625 264.570312 67.453125 264.570312 L 314.308594 264.570312 C 314.695312 264.570312 315.007812 264.886719 315.007812 265.273438 L 315.007812 287.324219 " fill-opacity="1" fill-rule="nonzero"/><path fill="#d6b295" d="M 314.308594 288.027344 L 67.453125 288.027344 C 67.0625 288.027344 66.75 287.714844 66.75 287.324219 L 66.75 284.507812 L 315.007812 284.507812 L 315.007812 287.324219 C 315.007812 287.714844 314.695312 288.027344 314.308594 288.027344 " fill-opacity="1" fill-rule="nonzero"/><path fill="#e2dcc2" d="M 315.007812 269.378906 L 315.007812 265.273438 C 315.007812 264.886719 314.695312 264.570312 314.308594 264.570312 L 67.453125 264.570312 C 67.0625 264.570312 66.75 264.886719 66.75 265.273438 L 66.75 269.378906 L 315.007812 269.378906 " fill-opacity="1" fill-rule="nonzero"/><path fill="#eed1bb" d="M 289.367188 279.933594 C 289.367188 280.324219 289.050781 280.640625 288.664062 280.640625 L 226.488281 280.640625 C 226.101562 280.640625 225.785156 280.324219 225.785156 279.933594 L 225.785156 170.851562 C 225.785156 170.464844 226.101562 170.148438 226.488281 170.148438 L 288.664062 170.148438 C 289.050781 170.148438 289.367188 170.464844 289.367188 170.851562 L 289.367188 279.933594 " fill-opacity="1" fill-rule="nonzero"/><path fill="#e2dcc2" d="M 289.367188 172.566406 L 289.367188 170.851562 C 289.367188 170.464844 289.050781 170.148438 288.664062 170.148438 L 226.488281 170.148438 C 226.101562 170.148438 225.785156 170.464844 225.785156 170.851562 L 225.785156 172.566406 L 289.367188 172.566406 " fill-opacity="1" fill-rule="nonzero"/><path fill="#7d2c25" d="M 284.449219 279.988281 C 284.449219 280.347656 284.183594 280.640625 283.855469 280.640625 L 231.296875 280.640625 C 230.96875 280.640625 230.703125 280.347656 230.703125 279.988281 L 230.703125 178.894531 C 230.703125 178.535156 230.96875 178.242188 231.296875 178.242188 L 283.855469 178.242188 C 284.183594 178.242188 284.449219 178.535156 284.449219 178.894531 L 284.449219 279.988281 " fill-opacity="1" fill-rule="nonzero"/><path fill="#652320" d="M 284.449219 181.410156 L 284.449219 178.894531 C 284.449219 178.535156 284.183594 178.242188 283.855469 178.242188 L 231.296875 178.242188 C 230.96875 178.242188 230.703125 178.535156 230.703125 178.894531 L 230.703125 181.410156 L 284.449219 181.410156 " fill-opacity="1" fill-rule="nonzero"/><path fill="#5ca1cd" d="M 238.609375 240.492188 L 276.546875 240.492188 L 276.546875 185.984375 L 238.609375 185.984375 Z M 238.609375 240.492188 " fill-opacity="1" fill-rule="nonzero"/><path fill="#83b0cd" d="M 239.484375 219.613281 L 272.679688 189.175781 L 276.078125 189.175781 L 239.484375 219.613281 " fill-opacity="1" fill-rule="nonzero"/><path fill="#83b0cd" d="M 238.609375 216.269531 L 238.609375 185.984375 L 274.851562 185.984375 L 238.609375 216.269531 " fill-opacity="1" fill-rule="nonzero"/><path fill="#40769a" d="M 276.546875 188.292969 L 276.546875 185.984375 L 238.609375 185.984375 L 238.609375 188.292969 L 276.546875 188.292969 " fill-opacity="1" fill-rule="nonzero"/><path fill="#d8b59e" d="M 316.910156 155.074219 C 316.910156 155.464844 316.574219 155.777344 316.160156 155.777344 L 66.0625 155.777344 C 65.648438 155.777344 65.316406 155.464844 65.316406 155.074219 L 65.316406 143.773438 C 65.316406 143.386719 65.648438 143.070312 66.0625 143.070312 L 316.160156 143.070312 C 316.574219 143.070312 316.910156 143.386719 316.910156 143.773438 L 316.910156 155.074219 " fill-opacity="1" fill-rule="nonzero"/><path fill="#af846a" d="M 316.910156 150.878906 L 65.316406 150.878906 L 65.316406 143.773438 C 65.316406 143.386719 65.648438 143.070312 66.0625 143.070312 L 316.160156 143.070312 C 316.574219 143.070312 316.910156 143.386719 316.910156 143.773438 L 316.910156 150.878906 " fill-opacity="1" fill-rule="nonzero"/><path fill="#eed1bb" d="M 318.925781 146.863281 C 318.925781 147.261719 318.585938 147.582031 318.164062 147.582031 L 64.0625 147.582031 C 63.640625 147.582031 63.296875 147.261719 63.296875 146.863281 L 55.695312 132.660156 C 55.695312 132.261719 56.058594 131.941406 56.503906 131.941406 L 325.722656 131.941406 C 326.167969 131.941406 326.53125 132.261719 326.53125 132.660156 L 318.925781 146.863281 " fill-opacity="1" fill-rule="nonzero"/><path fill="#e2dcc2" d="M 325.191406 135.160156 L 326.53125 132.660156 C 326.53125 132.261719 326.167969 131.941406 325.722656 131.941406 L 56.503906 131.941406 C 56.058594 131.941406 55.695312 132.261719 55.695312 132.660156 L 57.035156 135.160156 L 325.191406 135.160156 " fill-opacity="1" fill-rule="nonzero"/><path fill="#9b413b" d="M 276.652344 274.65625 L 238.152344 274.65625 L 238.152344 244.9375 L 276.652344 244.9375 L 276.652344 274.65625 " fill-opacity="1" fill-rule="nonzero"/><path fill="#7d2c25" d="M 275.027344 274.964844 L 239.78125 274.964844 L 239.78125 247.253906 L 275.027344 247.253906 L 275.027344 274.964844 " fill-opacity="1" fill-rule="nonzero"/><path fill="#e4852a" d="M 237.203125 240.492188 L 232.519531 240.492188 L 232.519531 223.367188 L 237.203125 223.367188 L 237.203125 240.492188 " fill-opacity="1" fill-rule="nonzero"/><path fill="#b76429" d="M 237.203125 231.003906 C 236.644531 230.324219 235.808594 229.882812 234.859375 229.882812 C 233.914062 229.882812 233.074219 230.324219 232.519531 231.003906 L 232.519531 234.851562 C 233.074219 235.53125 233.914062 235.972656 234.859375 235.972656 C 235.808594 235.972656 236.644531 235.53125 237.203125 234.851562 L 237.203125 231.003906 " fill-opacity="1" fill-rule="nonzero"/><path fill="#f8a455" d="M 237.898438 231.34375 C 237.898438 233.027344 236.539062 234.390625 234.859375 234.390625 C 233.179688 234.390625 231.816406 233.027344 231.816406 231.34375 C 231.816406 229.660156 233.179688 228.296875 234.859375 228.296875 C 236.539062 228.296875 237.898438 229.660156 237.898438 231.34375 " fill-opacity="1" fill-rule="nonzero"/><g clip-path="url(#eebbdb7c1a)"><path fill="#dbba9e" d="M 337.453125 295.652344 C 337.453125 296.039062 337.140625 296.355469 336.75 296.355469 L 38.167969 296.355469 C 37.78125 296.355469 37.464844 296.039062 37.464844 295.652344 L 37.464844 288.730469 C 37.464844 288.34375 37.78125 288.027344 38.167969 288.027344 L 336.75 288.027344 C 337.140625 288.027344 337.453125 288.34375 337.453125 288.730469 L 337.453125 295.652344 " fill-opacity="1" fill-rule="nonzero"/></g><g clip-path="url(#e58acc8f0a)"><path fill="#bb9475" d="M 37.464844 294.246094 L 37.464844 295.652344 C 37.464844 296.039062 37.78125 296.355469 38.167969 296.355469 L 336.75 296.355469 C 337.140625 296.355469 337.453125 296.039062 337.453125 295.652344 L 337.453125 294.246094 L 37.464844 294.246094 " fill-opacity="1" fill-rule="nonzero"/></g><g clip-path="url(#de7e60500a)"><path fill="#e2dcc2" d="M 337.453125 290.023438 L 337.453125 288.730469 C 337.453125 288.34375 337.140625 288.027344 336.75 288.027344 L 38.167969 288.027344 C 37.78125 288.027344 37.464844 288.34375 37.464844 288.730469 L 37.464844 290.023438 L 337.453125 290.023438 " fill-opacity="1" fill-rule="nonzero"/></g><path fill="#eed1bb" d="M 88.585938 254.523438 L 208.710938 254.523438 L 208.710938 170.148438 L 88.585938 170.148438 Z M 88.585938 254.523438 " fill-opacity="1" fill-rule="nonzero"/><path fill="#5ca1cd" d="M 96.128906 247.253906 L 201.164062 247.253906 L 201.164062 178.242188 L 96.128906 178.242188 Z M 96.128906 247.253906 " fill-opacity="1" fill-rule="nonzero"/><path fill="#4d8ab1" d="M 197.992188 218.476562 C 194.25 218.476562 191.214844 215.070312 191.214844 210.867188 C 191.214844 215.070312 188.183594 218.476562 184.441406 218.476562 C 180.699219 218.476562 177.664062 215.070312 177.664062 210.867188 C 177.664062 215.070312 174.628906 218.476562 170.890625 218.476562 C 167.144531 218.476562 164.109375 215.070312 164.109375 210.867188 C 164.109375 215.070312 161.078125 218.476562 157.335938 218.476562 C 153.59375 218.476562 150.5625 215.070312 150.5625 210.867188 C 150.5625 215.070312 147.527344 218.476562 143.785156 218.476562 C 140.042969 218.476562 137.007812 215.070312 137.007812 210.867188 C 137.007812 215.070312 133.972656 218.476562 130.234375 218.476562 C 126.492188 218.476562 123.457031 215.070312 123.457031 210.867188 C 123.457031 215.070312 120.421875 218.476562 116.679688 218.476562 C 112.9375 218.476562 109.902344 215.070312 109.902344 210.867188 C 109.902344 215.070312 106.871094 218.476562 103.128906 218.476562 C 99.382812 218.476562 96.351562 215.070312 96.351562 210.867188 C 96.351562 211.527344 96.269531 212.164062 96.128906 212.773438 L 96.128906 178.242188 L 201.164062 178.242188 L 201.164062 217.589844 C 200.21875 218.15625 199.140625 218.476562 197.992188 218.476562 " fill-opacity="1" fill-rule="nonzero"/><path fill="#e2dcc2" d="M 208.710938 173.976562 L 208.710938 170.148438 L 88.585938 170.148438 L 88.585938 173.976562 L 208.710938 173.976562 " fill-opacity="1" fill-rule="nonzero"/><path fill="#8f2226" d="M 62.472656 197.363281 C 66.214844 197.363281 69.246094 193.957031 69.246094 189.757812 L 55.695312 189.757812 C 55.695312 193.957031 58.730469 197.363281 62.472656 197.363281 " fill-opacity="1" fill-rule="nonzero"/><path fill="#e0c68b" d="M 76.023438 197.363281 C 79.765625 197.363281 82.800781 193.957031 82.800781 189.757812 L 69.246094 189.757812 C 69.246094 193.957031 72.277344 197.363281 76.023438 197.363281 " fill-opacity="1" fill-rule="nonzero"/><path fill="#8f2226" d="M 89.574219 197.363281 C 93.316406 197.363281 96.351562 193.957031 96.351562 189.757812 L 82.800781 189.757812 C 82.800781 193.957031 85.832031 197.363281 89.574219 197.363281 " fill-opacity="1" fill-rule="nonzero"/><path fill="#e0c68b" d="M 103.128906 197.363281 C 106.871094 197.363281 109.902344 193.957031 109.902344 189.757812 L 96.351562 189.757812 C 96.351562 193.957031 99.382812 197.363281 103.128906 197.363281 " fill-opacity="1" fill-rule="nonzero"/><path fill="#8f2226" d="M 116.679688 197.363281 C 120.421875 197.363281 123.457031 193.957031 123.457031 189.757812 L 109.902344 189.757812 C 109.902344 193.957031 112.9375 197.363281 116.679688 197.363281 " fill-opacity="1" fill-rule="nonzero"/><path fill="#e0c68b" d="M 130.234375 197.363281 C 133.972656 197.363281 137.007812 193.957031 137.007812 189.757812 L 123.457031 189.757812 C 123.457031 193.957031 126.492188 197.363281 130.234375 197.363281 " fill-opacity="1" fill-rule="nonzero"/><path fill="#8f2226" d="M 143.785156 197.363281 C 147.527344 197.363281 150.5625 193.957031 150.5625 189.757812 L 137.007812 189.757812 C 137.007812 193.957031 140.042969 197.363281 143.785156 197.363281 " fill-opacity="1" fill-rule="nonzero"/><path fill="#e0c68b" d="M 157.335938 197.363281 C 161.078125 197.363281 164.109375 193.957031 164.109375 189.757812 L 150.5625 189.757812 C 150.5625 193.957031 153.59375 197.363281 157.335938 197.363281 " fill-opacity="1" fill-rule="nonzero"/><path fill="#8f2226" d="M 170.890625 197.363281 C 174.628906 197.363281 177.664062 193.957031 177.664062 189.757812 L 164.109375 189.757812 C 164.109375 193.957031 167.144531 197.363281 170.890625 197.363281 " fill-opacity="1" fill-rule="nonzero"/><path fill="#e0c68b" d="M 184.441406 197.363281 C 188.183594 197.363281 191.214844 193.957031 191.214844 189.757812 L 177.664062 189.757812 C 177.664062 193.957031 180.699219 197.363281 184.441406 197.363281 " fill-opacity="1" fill-rule="nonzero"/><path fill="#8f2226" d="M 197.992188 197.363281 C 201.734375 197.363281 204.769531 193.957031 204.769531 189.757812 L 191.214844 189.757812 C 191.214844 193.957031 194.25 197.363281 197.992188 197.363281 " fill-opacity="1" fill-rule="nonzero"/><path fill="#e0c68b" d="M 211.546875 197.363281 C 215.289062 197.363281 218.320312 193.957031 218.320312 189.757812 L 204.769531 189.757812 C 204.769531 193.957031 207.804688 197.363281 211.546875 197.363281 " fill-opacity="1" fill-rule="nonzero"/><path fill="#8f2226" d="M 225.097656 197.363281 C 228.839844 197.363281 231.875 193.957031 231.875 189.757812 L 218.320312 189.757812 C 218.320312 193.957031 221.355469 197.363281 225.097656 197.363281 " fill-opacity="1" fill-rule="nonzero"/><path fill="#c1292e" d="M 75.671875 147.769531 L 55.695312 189.757812 L 69.246094 189.757812 L 86.148438 147.769531 L 75.671875 147.769531 " fill-opacity="1" fill-rule="nonzero"/><path fill="#faeac2" d="M 86.148438 147.769531 L 69.246094 189.757812 L 82.800781 189.757812 L 96.628906 147.769531 L 86.148438 147.769531 " fill-opacity="1" fill-rule="nonzero"/><path fill="#c1292e" d="M 96.628906 147.769531 L 82.800781 189.757812 L 96.351562 189.757812 L 107.105469 147.769531 L 96.628906 147.769531 " fill-opacity="1" fill-rule="nonzero"/><path fill="#faeac2" d="M 107.105469 147.769531 L 96.351562 189.757812 L 109.902344 189.757812 L 117.585938 147.769531 L 107.105469 147.769531 " fill-opacity="1" fill-rule="nonzero"/><path fill="#c1292e" d="M 117.585938 147.769531 L 109.902344 189.757812 L 123.457031 189.757812 L 128.066406 147.769531 L 117.585938 147.769531 " fill-opacity="1" fill-rule="nonzero"/><path fill="#faeac2" d="M 128.066406 147.769531 L 123.457031 189.757812 L 137.007812 189.757812 L 138.546875 147.769531 L 128.066406 147.769531 " fill-opacity="1" fill-rule="nonzero"/><path fill="#c1292e" d="M 138.546875 147.769531 L 137.007812 189.757812 L 150.5625 189.757812 L 149.023438 147.769531 L 138.546875 147.769531 " fill-opacity="1" fill-rule="nonzero"/><path fill="#faeac2" d="M 149.023438 147.769531 L 150.5625 189.757812 L 164.109375 189.757812 L 159.5 147.769531 L 149.023438 147.769531 " fill-opacity="1" fill-rule="nonzero"/><path fill="#c1292e" d="M 159.5 147.769531 L 164.109375 189.757812 L 177.664062 189.757812 L 169.980469 147.769531 L 159.5 147.769531 " fill-opacity="1" fill-rule="nonzero"/><path fill="#faeac2" d="M 169.980469 147.769531 L 177.664062 189.757812 L 191.214844 189.757812 L 180.460938 147.769531 L 169.980469 147.769531 " fill-opacity="1" fill-rule="nonzero"/><path fill="#c1292e" d="M 180.460938 147.769531 L 191.214844 189.757812 L 204.769531 189.757812 L 190.941406 147.769531 L 180.460938 147.769531 " fill-opacity="1" fill-rule="nonzero"/><path fill="#faeac2" d="M 190.941406 147.769531 L 204.769531 189.757812 L 218.320312 189.757812 L 201.417969 147.769531 L 190.941406 147.769531 " fill-opacity="1" fill-rule="nonzero"/><path fill="#c1292e" d="M 201.417969 147.769531 L 218.320312 189.757812 L 231.875 189.757812 L 211.898438 147.769531 L 201.417969 147.769531 " fill-opacity="1" fill-rule="nonzero"/><path fill="#4d8ab1" d="M 96.128906 247.253906 L 201.164062 247.253906 L 201.164062 239.503906 L 96.128906 239.503906 Z M 96.128906 247.253906 " fill-opacity="1" fill-rule="nonzero"/><g clip-path="url(#8d04d7a914)"><path fill="#e2dcc2" d="M 337.453125 236.949219 C 337.453125 237.335938 337.140625 237.652344 336.75 237.652344 L 319.539062 237.652344 C 319.148438 237.652344 318.835938 237.335938 318.835938 236.949219 L 318.835938 171.839844 C 318.835938 171.449219 319.148438 171.132812 319.539062 171.132812 L 336.75 171.132812 C 337.140625 171.132812 337.453125 171.449219 337.453125 171.839844 L 337.453125 236.949219 " fill-opacity="1" fill-rule="nonzero"/></g><path fill="#cd432f" d="M 335.347656 234.167969 C 335.347656 234.523438 335.101562 234.8125 334.800781 234.8125 L 321.488281 234.8125 C 321.1875 234.8125 320.941406 234.523438 320.941406 234.167969 L 320.941406 174.617188 C 320.941406 174.261719 321.1875 173.976562 321.488281 173.976562 L 334.800781 173.976562 C 335.101562 173.976562 335.347656 174.261719 335.347656 174.617188 L 335.347656 234.167969 " fill-opacity="1" fill-rule="nonzero"/><path fill="#7d2c25" d="M 318.835938 184.621094 L 310.558594 184.621094 L 310.558594 182.421875 L 318.835938 182.421875 L 318.835938 184.621094 " fill-opacity="1" fill-rule="nonzero"/><path fill="#7d2c25" d="M 318.835938 226.363281 L 310.558594 226.363281 L 310.558594 224.164062 L 318.835938 224.164062 L 318.835938 226.363281 " fill-opacity="1" fill-rule="nonzero"/><path fill="#ae9985" d="M 296.800781 131.386719 C 296.800781 131.777344 296.488281 132.089844 296.097656 132.089844 L 161.160156 132.089844 C 160.773438 132.089844 160.457031 131.777344 160.457031 131.386719 L 160.457031 83.871094 C 160.457031 83.480469 160.773438 83.164062 161.160156 83.164062 L 296.097656 83.164062 C 296.488281 83.164062 296.800781 83.480469 296.800781 83.871094 L 296.800781 131.386719 " fill-opacity="1" fill-rule="nonzero"/><path fill="#f7d8c5" d="M 293.449219 127.726562 C 293.449219 128.0625 293.148438 128.339844 292.777344 128.339844 L 164.484375 128.339844 C 164.113281 128.339844 163.8125 128.0625 163.8125 127.726562 L 163.8125 87.53125 C 163.8125 87.191406 164.113281 86.917969 164.484375 86.917969 L 292.777344 86.917969 C 293.148438 86.917969 293.449219 87.191406 293.449219 87.53125 L 293.449219 127.726562 " fill-opacity="1" fill-rule="nonzero"/></svg>