<svg width="40" height="40" viewBox="0 0 40 40" fill="none" xmlns="http://www.w3.org/2000/svg">
<path d="M6.96545 17.0123C9.40576 18.2178 11.6852 17.8768 13.9075 17.0123C15.9485 17.7483 17.9893 18.1451 20.0303 17.0123C22.2894 18.3407 24.5453 18.1526 26.8011 17.0123C28.8422 18.2271 30.8832 18.0408 32.924 17.0123L34.1594 17.6905V35.5786H31.0039V21.5863H22.3398V35.2302H6.62976L6.96545 17.0123Z" fill="#FFDA6A"/>
<path d="M7.04593 21.5939V31.1631H18.9495V21.5939H7.04593Z" fill="#9CE6FF"/>
<path d="M4.4846 5.8263L9.53008 5.912L6.88148 15.9153C6.2201 17.6909 2.42359 19.4869 0.92981 15.4886L4.4846 5.8263Z" fill="#FF8E68"/>
<path d="M13.659 15.2296C15.4112 18.6616 17.5362 19.4664 20.3894 15.2296L20.1075 6.25297H14.9816L13.659 15.2296Z" fill="#FF8E68"/>
<path d="M25.2301 6.42058L26.6367 16.1667C28.8756 18.5404 31.0173 18.6988 33.0449 16.1667L30.2754 6.00137L25.2301 6.42058Z" fill="#FF8E68"/>
<path d="M32.444 5.22055V1.69174H7.26425V5.22055H32.444ZM36.0962 17.223C37.1873 17.223 38.0029 16.5373 38.1876 15.8293L38.2245 15.5443L38.2212 15.4679L38.2245 15.3095L34.6495 6.91229H31.3665L33.4982 14.7375L33.5116 14.9201L33.5418 14.9648C33.629 15.1027 33.6794 15.2741 33.6694 15.4567L33.6626 15.5368L33.713 15.8144C33.9445 16.4889 34.9449 17.223 36.0962 17.223ZM29.7351 17.223C30.8461 17.223 31.6921 16.5522 31.8868 15.8387L31.9237 15.5443L31.917 15.4679C31.917 15.4064 31.917 15.3468 31.9237 15.289L31.9371 15.248L31.907 15.1959L29.6511 6.91229H26.1231L27.2208 14.8512L27.2074 15.0133L27.2577 15.1139C27.298 15.2201 27.3148 15.3337 27.308 15.4567L27.3048 15.5368L27.3551 15.8144C27.5867 16.4889 28.587 17.223 29.7351 17.223ZM23.3805 17.223C24.5084 17.223 25.3846 16.5373 25.5893 15.8349L25.6296 15.5443L25.6263 15.4679C25.6229 15.4064 25.6229 15.3468 25.6329 15.289L25.6396 15.2573L25.5793 15.0859L24.4513 6.91229H20.9333V15.317L20.9534 15.4567L20.9502 15.5368L21.0005 15.8144C21.2288 16.4889 22.2324 17.223 23.3805 17.223ZM17.0226 17.223C18.1304 17.223 18.9697 16.5522 19.1643 15.8387L19.2045 15.5443L19.2012 15.4679C19.1878 15.3431 19.2079 15.2275 19.2516 15.1157L19.2785 15.0692V6.91229H15.7469L14.5552 15.0934L14.5419 15.1232L14.5856 15.2778C14.5923 15.3412 14.599 15.3989 14.5923 15.4567V15.5368L14.6392 15.8144C14.8709 16.4889 15.8712 17.223 17.0226 17.223ZM10.4432 17.223C11.6215 17.223 12.6083 16.5038 12.8332 15.8219L12.887 15.5443L12.8768 15.4679C12.8702 15.3431 12.887 15.2275 12.9273 15.1157L12.9338 15.1064L12.9206 14.8419L14.0752 6.91229H10.3727L8.00269 15.2052L7.99269 15.2238L8.00941 15.2778C8.01269 15.3412 8.01614 15.3989 8.01268 15.4567L8.00941 15.5368L8.06303 15.8144C8.2913 16.4889 9.29182 17.223 10.4432 17.223ZM4.08186 17.223C5.19978 17.223 6.05563 16.5448 6.25047 15.8349L6.29063 15.5443V15.4679C6.28391 15.3431 6.30081 15.2275 6.33425 15.1157L6.39477 14.9965L6.42167 14.7319L8.65061 6.91229H5.15271L1.66153 15.5648L1.70515 15.8144C1.93688 16.4889 2.93376 17.223 4.08186 17.223ZM8.98285 26.7586C8.76802 26.7679 8.55665 26.6971 8.38872 26.535C8.05303 26.222 8.02959 25.6854 8.3351 25.3407L10.1544 23.3024C10.4634 22.9596 10.987 22.9391 11.3259 23.2521C11.6583 23.5689 11.6852 24.1055 11.373 24.452L9.55354 26.4828C9.39923 26.6542 9.1944 26.7474 8.98285 26.7586ZM11.2756 28.0516C11.0608 28.0591 10.8459 27.9864 10.6815 27.828C10.3425 27.5113 10.3189 26.9784 10.6278 26.6319L13.4878 23.4384C13.7933 23.09 14.3169 23.0695 14.6526 23.3863C14.9883 23.703 15.0118 24.2396 14.703 24.5806L11.8463 27.7777C11.692 27.9491 11.4837 28.046 11.2756 28.0516ZM27.637 29.5496C27.1805 29.5496 26.8079 29.1714 26.8079 28.7V27.474C26.8079 27.0027 27.1805 26.6282 27.637 26.6282C28.0903 26.6282 28.4629 27.0027 28.4629 27.474V28.7C28.4629 29.1714 28.0903 29.5496 27.637 29.5496ZM18.2143 30.375V22.2702H7.62338V30.375H18.2143ZM29.9868 34.4944V22.5087H23.0415V34.4944H29.9868ZM21.3933 34.6323V21.6647C21.3933 21.1971 21.7591 20.8189 22.2189 20.8189H30.8127C31.2692 20.8189 31.6418 21.1971 31.6418 21.6647V34.6323H33.0818V18.0353L33.1321 17.7912L32.8301 17.5229L32.3702 17.9794C31.6451 18.5756 30.6851 18.9166 29.7351 18.9166C28.8085 18.9166 27.7848 18.5849 26.9958 17.9906L26.4956 17.5453L26.0358 17.9869C25.2972 18.5793 24.3205 18.9166 23.3805 18.9166C22.4539 18.9166 21.4302 18.5849 20.6414 17.9906L20.1143 17.5229L19.6543 17.9794C18.9293 18.5756 17.9726 18.9166 17.0226 18.9166C15.8578 18.9166 14.5519 18.393 13.7295 17.508C12.9004 18.3856 11.5878 18.9166 10.4432 18.9166C9.51337 18.9166 8.49286 18.5849 7.7039 17.9906L7.59648 17.8974L7.62338 18.0353V20.5748H19.0435C19.4966 20.5748 19.8693 20.953 19.8693 21.4207V31.2246C19.8693 31.6922 19.4966 32.0742 19.0435 32.0742H7.62338V34.6323H21.3933ZM6.79752 36.3259C6.34097 36.3259 5.97185 35.9439 5.97185 35.4781V18.4545L5.4884 18.6706C5.0353 18.829 4.55858 18.9166 4.08186 18.9166C2.22549 18.9166 0 17.5844 0 15.5331C0 15.5219 3.19464e-06 15.4977 0.00327464 15.4884L0.00672677 15.4083V15.2965C0.0167229 15.2275 0.0334415 15.1586 0.0636115 15.0859L3.83686 5.74224C3.96772 5.4255 4.26651 5.22055 4.6022 5.22055H5.61598V0.842148C5.61598 0.378223 5.9853 6.65486e-08 6.44166 6.65486e-08H33.2699C33.7264 6.65486e-08 34.0956 0.378223 34.0956 0.842148V5.22055H35.1933C35.519 5.22055 35.8143 5.41991 35.9487 5.72919L39.9298 15.0692C40.0507 15.3505 40.0071 15.6505 39.8628 15.8741C39.6412 17.6944 37.8923 18.9166 36.0962 18.9166C35.8647 18.9166 35.623 18.8942 35.388 18.857L34.7335 18.6949V35.4781C34.7335 35.9439 34.3642 36.3259 33.9076 36.3259H6.79752ZM3.65893 40C3.20238 40 2.83308 39.6255 2.83308 39.1541C2.83308 38.6865 3.20238 38.3064 3.65893 38.3064H37.4257C37.8821 38.3064 38.2514 38.6865 38.2514 39.1541C38.2514 39.6255 37.8821 40 37.4257 40H3.65893Z" fill="#333333"/>
</svg>
