<svg xmlns="http://www.w3.org/2000/svg" xmlns:xlink="http://www.w3.org/1999/xlink" width="500" zoomAndPan="magnify" viewBox="0 0 375 374.999991" height="500" preserveAspectRatio="xMidYMid meet" version="1.0"><defs><clipPath id="3b0ed38475"><path d="M 45 39.75 L 330 39.75 L 330 55 L 45 55 Z M 45 39.75 " clip-rule="nonzero"/></clipPath><clipPath id="9856093460"><path d="M 37.5 316 L 337.5 316 L 337.5 335.25 L 37.5 335.25 Z M 37.5 316 " clip-rule="nonzero"/></clipPath></defs><path fill="#c7463b" d="M 53.320312 161.601562 L 321.621094 161.601562 L 321.621094 316.089844 L 53.320312 316.089844 Z M 53.320312 161.601562 " fill-opacity="1" fill-rule="nonzero"/><path fill="#c7463b" d="M 53.320312 54.960938 L 321.621094 54.960938 L 321.621094 80.179688 L 53.320312 80.179688 Z M 53.320312 54.960938 " fill-opacity="1" fill-rule="nonzero"/><path fill="#e2ac7a" d="M 335.742188 139.511719 L 39.257812 139.511719 L 53.320312 80.214844 L 321.679688 80.214844 Z M 335.742188 139.511719 " fill-opacity="1" fill-rule="nonzero"/><g clip-path="url(#3b0ed38475)"><path fill="#e0e0e0" d="M 45.703125 39.84375 L 329.296875 39.84375 L 329.296875 54.976562 L 45.703125 54.976562 Z M 45.703125 39.84375 " fill-opacity="1" fill-rule="nonzero"/></g><path fill="#da922a" d="M 172.734375 178.476562 C 171.765625 178.476562 170.808594 178.382812 169.859375 178.191406 C 168.910156 178.003906 167.988281 177.722656 167.09375 177.351562 C 166.199219 176.980469 165.347656 176.523438 164.546875 175.984375 C 163.742188 175.445312 162.996094 174.835938 162.3125 174.148438 C 161.632812 173.460938 161.019531 172.714844 160.484375 171.910156 C 159.949219 171.105469 159.496094 170.253906 159.128906 169.355469 C 158.761719 168.460938 158.484375 167.539062 158.300781 166.589844 C 158.113281 165.636719 158.023438 164.679688 158.027344 163.710938 L 158.027344 139.511719 L 187.5 139.511719 L 187.5 163.710938 C 187.5 164.679688 187.40625 165.640625 187.214844 166.589844 C 187.027344 167.542969 186.746094 168.464844 186.375 169.363281 C 186.003906 170.257812 185.550781 171.109375 185.011719 171.914062 C 184.472656 172.71875 183.859375 173.464844 183.175781 174.152344 C 182.488281 174.835938 181.742188 175.449219 180.9375 175.988281 C 180.132812 176.527344 179.28125 176.980469 178.386719 177.351562 C 177.488281 177.722656 176.566406 178.003906 175.613281 178.191406 C 174.664062 178.382812 173.703125 178.476562 172.734375 178.476562 Z M 172.734375 178.476562 " fill-opacity="1" fill-rule="nonzero"/><path fill="#e0e0e0" d="M 128.496094 139.511719 L 157.96875 139.511719 L 157.96875 163.769531 C 157.96875 164.738281 157.875 165.699219 157.683594 166.648438 C 157.496094 167.601562 157.214844 168.523438 156.84375 169.421875 C 156.472656 170.316406 156.019531 171.167969 155.480469 171.972656 C 154.941406 172.777344 154.328125 173.523438 153.644531 174.210938 C 152.957031 174.894531 152.210938 175.507812 151.40625 176.046875 C 150.601562 176.585938 149.75 177.039062 148.855469 177.410156 C 147.957031 177.78125 147.035156 178.0625 146.082031 178.25 C 145.132812 178.441406 144.171875 178.535156 143.203125 178.535156 C 142.234375 178.535156 141.273438 178.441406 140.324219 178.25 C 139.371094 178.0625 138.449219 177.78125 137.550781 177.410156 C 136.65625 177.039062 135.804688 176.585938 135 176.046875 C 134.195312 175.507812 133.449219 174.894531 132.761719 174.210938 C 132.078125 173.523438 131.464844 172.777344 130.925781 171.972656 C 130.386719 171.167969 129.933594 170.316406 129.5625 169.421875 C 129.191406 168.523438 128.910156 167.601562 128.722656 166.648438 C 128.53125 165.699219 128.4375 164.738281 128.4375 163.769531 L 128.4375 139.511719 Z M 128.496094 139.511719 " fill-opacity="1" fill-rule="nonzero"/><path fill="#da922a" d="M 113.789062 178.476562 C 112.820312 178.476562 111.859375 178.382812 110.910156 178.191406 C 109.957031 178.003906 109.035156 177.722656 108.136719 177.351562 C 107.242188 176.980469 106.390625 176.527344 105.585938 175.988281 C 104.78125 175.449219 104.035156 174.835938 103.347656 174.152344 C 102.664062 173.464844 102.050781 172.71875 101.511719 171.914062 C 100.972656 171.109375 100.519531 170.257812 100.148438 169.363281 C 99.777344 168.464844 99.496094 167.542969 99.308594 166.589844 C 99.117188 165.640625 99.023438 164.679688 99.023438 163.710938 L 99.023438 139.511719 L 128.496094 139.511719 L 128.496094 163.710938 C 128.5 164.679688 128.410156 165.636719 128.222656 166.589844 C 128.039062 167.539062 127.761719 168.460938 127.394531 169.355469 C 127.027344 170.253906 126.574219 171.105469 126.039062 171.910156 C 125.503906 172.714844 124.890625 173.460938 124.210938 174.148438 C 123.527344 174.835938 122.78125 175.445312 121.976562 175.984375 C 121.175781 176.523438 120.324219 176.980469 119.429688 177.351562 C 118.535156 177.722656 117.613281 178.003906 116.664062 178.191406 C 115.714844 178.382812 114.757812 178.476562 113.789062 178.476562 Z M 113.789062 178.476562 " fill-opacity="1" fill-rule="nonzero"/><path fill="#e0e0e0" d="M 68.789062 139.511719 L 99.023438 139.511719 L 99.023438 163.769531 C 99.023438 164.738281 98.929688 165.699219 98.738281 166.648438 C 98.550781 167.601562 98.269531 168.523438 97.898438 169.421875 C 97.527344 170.316406 97.074219 171.167969 96.535156 171.972656 C 95.996094 172.777344 95.382812 173.523438 94.699219 174.210938 C 94.011719 174.894531 93.265625 175.507812 92.460938 176.046875 C 91.65625 176.585938 90.804688 177.039062 89.910156 177.410156 C 89.011719 177.78125 88.089844 178.0625 87.136719 178.25 C 86.1875 178.441406 85.226562 178.535156 84.257812 178.535156 L 83.496094 178.535156 C 82.527344 178.535156 81.566406 178.441406 80.617188 178.25 C 79.664062 178.0625 78.742188 177.78125 77.84375 177.410156 C 76.949219 177.039062 76.097656 176.585938 75.292969 176.046875 C 74.488281 175.507812 73.742188 174.894531 73.054688 174.210938 C 72.371094 173.523438 71.757812 172.777344 71.21875 171.972656 C 70.679688 171.167969 70.226562 170.316406 69.855469 169.421875 C 69.484375 168.523438 69.203125 167.601562 69.015625 166.648438 C 68.824219 165.699219 68.730469 164.738281 68.730469 163.769531 L 68.730469 139.511719 Z M 68.789062 139.511719 " fill-opacity="1" fill-rule="nonzero"/><path fill="#da922a" d="M 54.023438 178.476562 C 53.054688 178.476562 52.09375 178.382812 51.144531 178.191406 C 50.191406 178.003906 49.269531 177.722656 48.371094 177.351562 C 47.476562 176.980469 46.625 176.527344 45.820312 175.988281 C 45.015625 175.449219 44.269531 174.835938 43.582031 174.152344 C 42.898438 173.464844 42.285156 172.71875 41.746094 171.914062 C 41.207031 171.109375 40.753906 170.257812 40.382812 169.363281 C 40.011719 168.464844 39.730469 167.542969 39.542969 166.589844 C 39.351562 165.640625 39.257812 164.679688 39.257812 163.710938 L 39.257812 139.511719 L 68.789062 139.511719 L 68.789062 163.710938 C 68.789062 164.679688 68.695312 165.640625 68.503906 166.589844 C 68.316406 167.542969 68.035156 168.464844 67.664062 169.363281 C 67.292969 170.257812 66.839844 171.109375 66.300781 171.914062 C 65.761719 172.71875 65.148438 173.464844 64.464844 174.152344 C 63.777344 174.835938 63.03125 175.449219 62.226562 175.988281 C 61.421875 176.527344 60.570312 176.980469 59.675781 177.351562 C 58.777344 177.722656 57.855469 178.003906 56.902344 178.191406 C 55.953125 178.382812 54.992188 178.476562 54.023438 178.476562 Z M 54.023438 178.476562 " fill-opacity="1" fill-rule="nonzero"/><path fill="#e0e0e0" d="M 306.210938 139.511719 L 335.742188 139.511719 L 335.742188 163.769531 C 335.742188 164.738281 335.648438 165.699219 335.457031 166.648438 C 335.269531 167.601562 334.988281 168.523438 334.617188 169.421875 C 334.246094 170.316406 333.792969 171.167969 333.253906 171.972656 C 332.714844 172.777344 332.101562 173.523438 331.417969 174.210938 C 330.730469 174.894531 329.984375 175.507812 329.179688 176.046875 C 328.375 176.585938 327.523438 177.039062 326.628906 177.410156 C 325.730469 177.78125 324.808594 178.0625 323.855469 178.25 C 322.90625 178.441406 321.945312 178.535156 320.976562 178.535156 C 320.007812 178.535156 319.046875 178.441406 318.097656 178.25 C 317.144531 178.0625 316.222656 177.78125 315.324219 177.410156 C 314.429688 177.039062 313.578125 176.585938 312.773438 176.046875 C 311.96875 175.507812 311.222656 174.894531 310.535156 174.210938 C 309.851562 173.523438 309.238281 172.777344 308.699219 171.972656 C 308.160156 171.167969 307.707031 170.316406 307.335938 169.421875 C 306.964844 168.523438 306.683594 167.601562 306.496094 166.648438 C 306.304688 165.699219 306.210938 164.738281 306.210938 163.769531 Z M 306.210938 139.511719 " fill-opacity="1" fill-rule="nonzero"/><path fill="#da922a" d="M 291.503906 178.476562 C 290.535156 178.476562 289.574219 178.382812 288.625 178.191406 C 287.671875 178.003906 286.75 177.722656 285.851562 177.351562 C 284.957031 176.980469 284.105469 176.527344 283.300781 175.988281 C 282.496094 175.449219 281.75 174.835938 281.0625 174.152344 C 280.378906 173.464844 279.765625 172.71875 279.226562 171.914062 C 278.6875 171.109375 278.234375 170.257812 277.863281 169.363281 C 277.492188 168.464844 277.210938 167.542969 277.023438 166.589844 C 276.832031 165.640625 276.738281 164.679688 276.738281 163.710938 L 276.738281 139.511719 L 306.210938 139.511719 L 306.210938 163.710938 C 306.214844 164.679688 306.125 165.636719 305.9375 166.589844 C 305.753906 167.539062 305.476562 168.460938 305.109375 169.355469 C 304.742188 170.253906 304.289062 171.105469 303.753906 171.910156 C 303.21875 172.714844 302.605469 173.460938 301.925781 174.148438 C 301.242188 174.835938 300.496094 175.445312 299.691406 175.984375 C 298.890625 176.523438 298.039062 176.980469 297.144531 177.351562 C 296.25 177.722656 295.328125 178.003906 294.378906 178.191406 C 293.429688 178.382812 292.472656 178.476562 291.503906 178.476562 Z M 291.503906 178.476562 " fill-opacity="1" fill-rule="nonzero"/><path fill="#e0e0e0" d="M 246.503906 139.511719 L 276.738281 139.511719 L 276.738281 163.769531 C 276.738281 164.738281 276.644531 165.699219 276.453125 166.648438 C 276.265625 167.601562 275.984375 168.523438 275.613281 169.421875 C 275.242188 170.316406 274.789062 171.167969 274.25 171.972656 C 273.710938 172.777344 273.097656 173.523438 272.414062 174.210938 C 271.726562 174.894531 270.980469 175.507812 270.175781 176.046875 C 269.371094 176.585938 268.519531 177.039062 267.625 177.410156 C 266.726562 177.78125 265.804688 178.0625 264.851562 178.25 C 263.902344 178.441406 262.941406 178.535156 261.972656 178.535156 L 261.210938 178.535156 C 260.242188 178.535156 259.28125 178.441406 258.332031 178.25 C 257.378906 178.0625 256.457031 177.78125 255.558594 177.410156 C 254.664062 177.039062 253.8125 176.585938 253.007812 176.046875 C 252.203125 175.507812 251.457031 174.894531 250.769531 174.210938 C 250.085938 173.523438 249.472656 172.777344 248.933594 171.972656 C 248.394531 171.167969 247.941406 170.316406 247.570312 169.421875 C 247.199219 168.523438 246.917969 167.601562 246.730469 166.648438 C 246.539062 165.699219 246.445312 164.738281 246.445312 163.769531 L 246.445312 139.511719 Z M 246.503906 139.511719 " fill-opacity="1" fill-rule="nonzero"/><path fill="#da922a" d="M 231.738281 178.476562 C 230.769531 178.476562 229.808594 178.382812 228.859375 178.191406 C 227.90625 178.003906 226.984375 177.722656 226.085938 177.351562 C 225.191406 176.980469 224.339844 176.527344 223.535156 175.988281 C 222.730469 175.449219 221.984375 174.835938 221.296875 174.152344 C 220.613281 173.464844 220 172.71875 219.460938 171.914062 C 218.921875 171.109375 218.46875 170.257812 218.097656 169.363281 C 217.726562 168.464844 217.445312 167.542969 217.257812 166.589844 C 217.066406 165.640625 216.972656 164.679688 216.972656 163.710938 L 216.972656 139.511719 L 246.503906 139.511719 L 246.503906 163.710938 C 246.503906 164.679688 246.410156 165.640625 246.21875 166.589844 C 246.03125 167.542969 245.75 168.464844 245.378906 169.363281 C 245.007812 170.257812 244.554688 171.109375 244.015625 171.914062 C 243.476562 172.71875 242.863281 173.464844 242.179688 174.152344 C 241.492188 174.835938 240.746094 175.449219 239.941406 175.988281 C 239.136719 176.527344 238.285156 176.980469 237.390625 177.351562 C 236.492188 177.722656 235.570312 178.003906 234.617188 178.191406 C 233.667969 178.382812 232.707031 178.476562 231.738281 178.476562 Z M 231.738281 178.476562 " fill-opacity="1" fill-rule="nonzero"/><path fill="#e0e0e0" d="M 187.5 139.511719 L 216.972656 139.511719 L 216.972656 163.769531 C 216.972656 164.738281 216.878906 165.699219 216.6875 166.648438 C 216.5 167.601562 216.21875 168.523438 215.847656 169.421875 C 215.476562 170.316406 215.023438 171.167969 214.484375 171.972656 C 213.945312 172.777344 213.332031 173.523438 212.648438 174.210938 C 211.960938 174.894531 211.214844 175.507812 210.410156 176.046875 C 209.605469 176.585938 208.753906 177.039062 207.859375 177.410156 C 206.960938 177.78125 206.039062 178.0625 205.085938 178.25 C 204.136719 178.441406 203.175781 178.535156 202.207031 178.535156 C 201.238281 178.53125 200.277344 178.433594 199.328125 178.238281 C 198.378906 178.046875 197.457031 177.761719 196.5625 177.390625 C 195.667969 177.015625 194.816406 176.554688 194.011719 176.015625 C 193.210938 175.472656 192.464844 174.855469 191.785156 174.167969 C 191.101562 173.480469 190.492188 172.734375 189.957031 171.925781 C 189.421875 171.117188 188.96875 170.261719 188.601562 169.367188 C 188.234375 168.46875 187.957031 167.542969 187.773438 166.59375 C 187.585938 165.640625 187.496094 164.679688 187.5 163.710938 Z M 187.5 139.511719 " fill-opacity="1" fill-rule="nonzero"/><path fill="#e0e0e0" d="M 269.0625 194.53125 L 274.863281 194.53125 C 275.746094 194.53125 276.625 194.574219 277.503906 194.660156 C 278.382812 194.746094 279.253906 194.875 280.121094 195.050781 C 280.988281 195.222656 281.84375 195.4375 282.6875 195.691406 C 283.53125 195.949219 284.363281 196.246094 285.179688 196.582031 C 285.992188 196.921875 286.789062 197.296875 287.570312 197.714844 C 288.347656 198.128906 289.105469 198.582031 289.835938 199.074219 C 290.570312 199.5625 291.28125 200.089844 291.960938 200.648438 C 292.644531 201.210938 293.296875 201.800781 293.921875 202.425781 C 294.546875 203.050781 295.136719 203.703125 295.699219 204.386719 C 296.257812 205.066406 296.785156 205.777344 297.273438 206.511719 C 297.765625 207.242188 298.21875 208 298.632812 208.777344 C 299.050781 209.558594 299.425781 210.355469 299.765625 211.167969 C 300.101562 211.984375 300.398438 212.816406 300.65625 213.660156 C 300.910156 214.503906 301.125 215.359375 301.296875 216.226562 C 301.472656 217.09375 301.601562 217.964844 301.6875 218.84375 C 301.773438 219.722656 301.816406 220.601562 301.816406 221.484375 L 301.816406 316.113281 L 242.050781 316.113281 L 242.050781 221.542969 C 242.050781 220.65625 242.089844 219.773438 242.175781 218.894531 C 242.261719 218.011719 242.390625 217.136719 242.558594 216.269531 C 242.730469 215.402344 242.945312 214.542969 243.199219 213.695312 C 243.457031 212.847656 243.753906 212.015625 244.089844 211.195312 C 244.429688 210.378906 244.804688 209.578125 245.222656 208.796875 C 245.640625 208.015625 246.09375 207.257812 246.585938 206.523438 C 247.078125 205.785156 247.601562 205.074219 248.164062 204.390625 C 248.726562 203.707031 249.320312 203.050781 249.945312 202.425781 C 250.570312 201.800781 251.226562 201.207031 251.910156 200.644531 C 252.59375 200.082031 253.304688 199.558594 254.042969 199.066406 C 254.777344 198.574219 255.535156 198.121094 256.316406 197.703125 C 257.097656 197.285156 257.898438 196.910156 258.714844 196.570312 C 259.535156 196.234375 260.367188 195.9375 261.214844 195.679688 C 262.0625 195.425781 262.921875 195.210938 263.789062 195.039062 C 264.65625 194.871094 265.53125 194.742188 266.414062 194.65625 C 267.292969 194.570312 268.175781 194.53125 269.0625 194.53125 Z M 269.0625 194.53125 " fill-opacity="1" fill-rule="nonzero"/><path fill="#777777" d="M 301.816406 319.628906 L 242.050781 319.628906 C 241.585938 319.628906 241.136719 319.539062 240.707031 319.359375 C 240.273438 319.183594 239.894531 318.929688 239.566406 318.597656 C 239.234375 318.269531 238.980469 317.890625 238.800781 317.457031 C 238.625 317.027344 238.535156 316.578125 238.535156 316.113281 L 238.535156 221.542969 C 238.535156 220.542969 238.585938 219.546875 238.6875 218.550781 C 238.785156 217.558594 238.933594 216.570312 239.132812 215.589844 C 239.328125 214.613281 239.570312 213.644531 239.863281 212.6875 C 240.152344 211.730469 240.492188 210.792969 240.875 209.871094 C 241.257812 208.945312 241.683594 208.046875 242.15625 207.164062 C 242.628906 206.28125 243.140625 205.425781 243.699219 204.597656 C 244.253906 203.765625 244.847656 202.964844 245.484375 202.191406 C 246.117188 201.421875 246.785156 200.679688 247.492188 199.972656 C 248.199219 199.265625 248.941406 198.597656 249.710938 197.964844 C 250.484375 197.328125 251.285156 196.734375 252.117188 196.179688 C 252.945312 195.621094 253.800781 195.109375 254.683594 194.636719 C 255.566406 194.164062 256.464844 193.738281 257.390625 193.355469 C 258.3125 192.972656 259.25 192.632812 260.207031 192.34375 C 261.164062 192.050781 262.132812 191.808594 263.109375 191.613281 C 264.089844 191.414062 265.078125 191.265625 266.070312 191.167969 C 267.066406 191.066406 268.0625 191.015625 269.0625 191.015625 L 274.863281 191.015625 C 275.863281 191.015625 276.859375 191.066406 277.851562 191.167969 C 278.84375 191.269531 279.832031 191.414062 280.808594 191.613281 C 281.789062 191.808594 282.757812 192.050781 283.710938 192.34375 C 284.667969 192.636719 285.605469 192.972656 286.527344 193.355469 C 287.449219 193.738281 288.351562 194.167969 289.230469 194.640625 C 290.109375 195.109375 290.964844 195.625 291.796875 196.179688 C 292.625 196.738281 293.425781 197.332031 294.195312 197.964844 C 294.96875 198.601562 295.707031 199.269531 296.410156 199.976562 C 297.117188 200.683594 297.785156 201.425781 298.417969 202.195312 C 299.050781 202.96875 299.644531 203.769531 300.199219 204.601562 C 300.753906 205.433594 301.265625 206.289062 301.734375 207.167969 C 302.207031 208.050781 302.632812 208.953125 303.015625 209.875 C 303.394531 210.796875 303.730469 211.734375 304.019531 212.691406 C 304.308594 213.648438 304.550781 214.613281 304.746094 215.59375 C 304.941406 216.574219 305.085938 217.5625 305.183594 218.554688 C 305.28125 219.546875 305.332031 220.542969 305.332031 221.542969 L 305.332031 316.113281 C 305.332031 316.578125 305.242188 317.027344 305.0625 317.457031 C 304.886719 317.890625 304.632812 318.269531 304.300781 318.597656 C 303.972656 318.929688 303.59375 319.183594 303.160156 319.359375 C 302.730469 319.539062 302.28125 319.628906 301.816406 319.628906 Z M 245.566406 312.597656 L 298.300781 312.597656 L 298.300781 221.542969 C 298.300781 220.773438 298.261719 220.007812 298.1875 219.242188 C 298.113281 218.480469 298 217.71875 297.851562 216.964844 C 297.699219 216.210938 297.515625 215.46875 297.292969 214.734375 C 297.070312 213.996094 296.8125 213.273438 296.519531 212.566406 C 296.222656 211.855469 295.898438 211.160156 295.535156 210.484375 C 295.171875 209.804688 294.78125 209.148438 294.351562 208.507812 C 293.925781 207.867188 293.46875 207.25 292.984375 206.65625 C 292.496094 206.0625 291.980469 205.492188 291.441406 204.949219 C 290.898438 204.40625 290.328125 203.890625 289.734375 203.402344 C 289.144531 202.914062 288.527344 202.453125 287.890625 202.027344 C 287.25 201.597656 286.59375 201.203125 285.917969 200.839844 C 285.238281 200.476562 284.546875 200.148438 283.835938 199.851562 C 283.128906 199.558594 282.40625 199.296875 281.671875 199.074219 C 280.9375 198.847656 280.191406 198.660156 279.4375 198.507812 C 278.6875 198.355469 277.925781 198.242188 277.164062 198.164062 C 276.398438 198.089844 275.632812 198.046875 274.863281 198.046875 L 269.0625 198.046875 C 268.292969 198.046875 267.527344 198.089844 266.761719 198.164062 C 265.996094 198.242188 265.238281 198.355469 264.484375 198.507812 C 263.730469 198.660156 262.984375 198.847656 262.25 199.070312 C 261.511719 199.296875 260.789062 199.554688 260.078125 199.851562 C 259.371094 200.144531 258.675781 200.476562 258 200.839844 C 257.320312 201.203125 256.660156 201.597656 256.023438 202.023438 C 255.382812 202.453125 254.765625 202.910156 254.171875 203.398438 C 253.578125 203.886719 253.007812 204.402344 252.464844 204.945312 C 251.921875 205.488281 251.40625 206.058594 250.917969 206.652344 C 250.429688 207.246094 249.972656 207.863281 249.542969 208.503906 C 249.117188 209.140625 248.722656 209.800781 248.359375 210.480469 C 247.996094 211.15625 247.664062 211.851562 247.371094 212.558594 C 247.074219 213.269531 246.816406 213.992188 246.589844 214.730469 C 246.367188 215.464844 246.179688 216.210938 246.027344 216.964844 C 245.875 217.71875 245.761719 218.476562 245.683594 219.242188 C 245.609375 220.007812 245.566406 220.773438 245.566406 221.542969 Z M 245.566406 312.597656 " fill-opacity="1" fill-rule="nonzero"/><path fill="#fbe36a" d="M 289.394531 235.722656 L 289.394531 226.640625 C 289.394531 226.070312 289.363281 225.5 289.304688 224.933594 C 289.246094 224.367188 289.160156 223.800781 289.050781 223.242188 C 288.9375 222.683594 288.796875 222.128906 288.628906 221.585938 C 288.460938 221.039062 288.269531 220.503906 288.046875 219.976562 C 287.828125 219.449219 287.585938 218.933594 287.3125 218.433594 C 287.042969 217.929688 286.75 217.441406 286.429688 216.96875 C 286.113281 216.496094 285.773438 216.035156 285.410156 215.597656 C 285.046875 215.15625 284.664062 214.734375 284.257812 214.332031 C 283.855469 213.929688 283.433594 213.546875 282.992188 213.183594 C 282.550781 212.824219 282.089844 212.484375 281.617188 212.167969 C 281.140625 211.851562 280.652344 211.558594 280.148438 211.292969 C 279.644531 211.023438 279.128906 210.78125 278.601562 210.5625 C 278.074219 210.34375 277.539062 210.152344 276.992188 209.988281 C 276.445312 209.820312 275.894531 209.683594 275.332031 209.574219 C 274.773438 209.460938 274.210938 209.378906 273.640625 209.320312 C 273.074219 209.265625 272.503906 209.238281 271.933594 209.238281 C 271.363281 209.238281 270.796875 209.265625 270.226562 209.320312 C 269.660156 209.378906 269.097656 209.460938 268.539062 209.574219 C 267.980469 209.683594 267.425781 209.820312 266.882812 209.988281 C 266.335938 210.152344 265.800781 210.34375 265.273438 210.5625 C 264.746094 210.78125 264.234375 211.023438 263.730469 211.292969 C 263.226562 211.5625 262.738281 211.855469 262.265625 212.171875 C 261.792969 212.488281 261.335938 212.828125 260.894531 213.1875 C 260.453125 213.550781 260.03125 213.933594 259.628906 214.335938 C 259.226562 214.738281 258.84375 215.160156 258.480469 215.601562 C 258.121094 216.042969 257.78125 216.5 257.464844 216.972656 C 257.148438 217.445312 256.855469 217.933594 256.585938 218.4375 C 256.316406 218.941406 256.074219 219.453125 255.855469 219.980469 C 255.636719 220.507812 255.445312 221.042969 255.28125 221.589844 C 255.113281 222.132812 254.976562 222.6875 254.867188 223.246094 C 254.753906 223.804688 254.671875 224.367188 254.613281 224.933594 C 254.558594 225.503906 254.53125 226.070312 254.53125 226.640625 L 254.53125 301.464844 L 289.394531 301.464844 L 289.394531 273.925781 " fill-opacity="1" fill-rule="nonzero"/><path fill="#e0e0e0" d="M 289.394531 230.15625 L 289.394531 223.125 L 254.53125 223.125 L 254.53125 230.15625 L 268.417969 230.15625 L 268.417969 250.722656 L 254.53125 250.722656 L 254.53125 257.753906 L 268.417969 257.753906 L 268.417969 278.378906 L 254.53125 278.378906 L 254.53125 285.410156 L 268.417969 285.410156 L 268.417969 301.464844 L 275.449219 301.464844 L 275.449219 285.410156 L 289.394531 285.410156 L 289.394531 278.378906 L 275.449219 278.378906 L 275.449219 257.753906 L 289.394531 257.753906 L 289.394531 250.722656 L 275.449219 250.722656 L 275.449219 230.15625 Z M 289.394531 230.15625 " fill-opacity="1" fill-rule="nonzero"/><path fill="#777777" d="M 285.878906 244.921875 L 292.910156 244.921875 L 292.910156 263.605469 L 285.878906 263.605469 Z M 285.878906 244.921875 " fill-opacity="1" fill-rule="nonzero"/><path fill="#af0e0e" d="M 223.652344 220.488281 L 223.652344 297.1875 L 205.019531 297.1875 C 207.773438 280.078125 211.289062 264.023438 211.289062 264.023438 L 207.597656 262.207031 C 206.085938 261.460938 204.699219 260.527344 203.4375 259.40625 C 202.175781 258.289062 201.082031 257.023438 200.160156 255.613281 C 199.238281 254.199219 198.519531 252.691406 198 251.085938 C 197.484375 249.480469 197.1875 247.835938 197.109375 246.152344 L 194.765625 194.53125 L 197.636719 194.53125 C 198.488281 194.53125 199.335938 194.570312 200.183594 194.652344 C 201.03125 194.734375 201.875 194.855469 202.710938 195.019531 C 203.542969 195.183594 204.371094 195.390625 205.183594 195.636719 C 206 195.878906 206.800781 196.164062 207.589844 196.492188 C 208.375 196.816406 209.144531 197.175781 209.894531 197.578125 C 210.648438 197.976562 211.378906 198.414062 212.085938 198.886719 C 212.792969 199.355469 213.476562 199.863281 214.136719 200.402344 C 214.796875 200.941406 215.425781 201.511719 216.027344 202.113281 C 216.632812 202.714844 217.203125 203.34375 217.742188 204 C 218.285156 204.660156 218.792969 205.339844 219.265625 206.050781 C 219.738281 206.757812 220.175781 207.484375 220.578125 208.234375 C 220.980469 208.988281 221.34375 209.753906 221.671875 210.542969 C 221.996094 211.328125 222.285156 212.128906 222.53125 212.941406 C 222.777344 213.757812 222.984375 214.582031 223.152344 215.417969 C 223.320312 216.253906 223.445312 217.09375 223.527344 217.941406 C 223.609375 218.789062 223.652344 219.636719 223.652344 220.488281 Z M 223.652344 220.488281 " fill-opacity="1" fill-rule="nonzero"/><path fill="#af0e0e" d="M 98.496094 194.53125 L 96.152344 246.152344 C 96.074219 247.835938 95.777344 249.480469 95.261719 251.085938 C 94.742188 252.691406 94.023438 254.199219 93.101562 255.613281 C 92.179688 257.023438 91.085938 258.289062 89.824219 259.40625 C 88.5625 260.527344 87.175781 261.460938 85.664062 262.207031 L 81.914062 264.023438 C 81.914062 264.023438 85.488281 280.078125 88.242188 297.1875 L 68.789062 297.1875 L 68.789062 220.488281 C 68.789062 219.636719 68.832031 218.789062 68.914062 217.945312 C 68.996094 217.097656 69.121094 216.257812 69.289062 215.425781 C 69.453125 214.589844 69.660156 213.765625 69.90625 212.953125 C 70.152344 212.140625 70.441406 211.339844 70.765625 210.554688 C 71.089844 209.769531 71.453125 209.003906 71.855469 208.253906 C 72.253906 207.503906 72.691406 206.773438 73.164062 206.066406 C 73.636719 205.359375 74.140625 204.679688 74.679688 204.019531 C 75.21875 203.363281 75.789062 202.734375 76.390625 202.132812 C 76.992188 201.53125 77.621094 200.960938 78.277344 200.421875 C 78.9375 199.882812 79.617188 199.378906 80.324219 198.90625 C 81.03125 198.433594 81.761719 197.996094 82.511719 197.597656 C 83.261719 197.195312 84.027344 196.832031 84.8125 196.507812 C 85.597656 196.183594 86.398438 195.894531 87.210938 195.648438 C 88.023438 195.402344 88.847656 195.195312 89.683594 195.03125 C 90.515625 194.863281 91.355469 194.738281 92.203125 194.65625 C 93.046875 194.574219 93.894531 194.53125 94.746094 194.53125 Z M 98.496094 194.53125 " fill-opacity="1" fill-rule="nonzero"/><path fill="#fbe36a" d="M 211.289062 264.023438 C 211.289062 264.023438 207.773438 280.078125 205.019531 297.1875 L 88.242188 297.1875 C 85.488281 280.078125 81.914062 264.023438 81.914062 264.023438 L 85.664062 262.207031 C 87.175781 261.460938 88.5625 260.527344 89.824219 259.40625 C 91.085938 258.289062 92.179688 257.023438 93.101562 255.613281 C 94.023438 254.199219 94.742188 252.691406 95.261719 251.085938 C 95.777344 249.480469 96.074219 247.835938 96.152344 246.152344 L 98.496094 194.53125 L 194.765625 194.53125 L 197.109375 246.152344 C 197.1875 247.835938 197.484375 249.480469 198 251.085938 C 198.519531 252.691406 199.238281 254.199219 200.160156 255.613281 C 201.082031 257.023438 202.175781 258.289062 203.4375 259.40625 C 204.699219 260.527344 206.085938 261.460938 207.597656 262.207031 Z M 211.289062 264.023438 " fill-opacity="1" fill-rule="nonzero"/><path fill="#da922a" d="M 167.519531 234.257812 L 123.925781 234.257812 L 141.796875 221.835938 L 150.703125 221.835938 Z M 167.519531 234.257812 " fill-opacity="1" fill-rule="nonzero"/><path fill="#777777" d="M 142.207031 194.53125 L 149.238281 194.53125 L 149.238281 221.816406 L 142.207031 221.816406 Z M 142.207031 194.53125 " fill-opacity="1" fill-rule="nonzero"/><path fill="#777777" d="M 169.511719 276.5625 L 169.511719 269.53125 L 127.558594 269.53125 L 127.558594 276.5625 L 145.019531 276.5625 L 145.019531 297.1875 L 152.050781 297.1875 L 152.050781 276.5625 Z M 169.511719 276.5625 " fill-opacity="1" fill-rule="nonzero"/><path fill="#777777" d="M 183.984375 267.714844 L 183.984375 280.429688 L 167.929688 280.429688 C 167.464844 280.429688 167.015625 280.519531 166.585938 280.699219 C 166.152344 280.875 165.773438 281.128906 165.445312 281.460938 C 165.113281 281.789062 164.859375 282.167969 164.683594 282.601562 C 164.503906 283.03125 164.414062 283.480469 164.414062 283.945312 L 164.414062 297.1875 L 171.445312 297.1875 L 171.445312 287.460938 L 183.984375 287.460938 L 183.984375 297.1875 L 191.015625 297.1875 L 191.015625 267.714844 Z M 183.984375 267.714844 " fill-opacity="1" fill-rule="nonzero"/><path fill="#777777" d="M 128.203125 280.429688 L 112.148438 280.429688 L 112.148438 267.714844 L 105.117188 267.714844 L 105.117188 297.1875 L 112.148438 297.1875 L 112.148438 287.460938 L 124.6875 287.460938 L 124.6875 297.1875 L 131.71875 297.1875 L 131.71875 283.945312 C 131.71875 283.480469 131.628906 283.03125 131.449219 282.601562 C 131.273438 282.167969 131.019531 281.789062 130.6875 281.460938 C 130.359375 281.128906 129.980469 280.875 129.546875 280.695312 C 129.117188 280.519531 128.667969 280.429688 128.203125 280.429688 Z M 128.203125 280.429688 " fill-opacity="1" fill-rule="nonzero"/><path fill="#777777" d="M 68.789062 216.972656 L 223.652344 216.972656 L 223.652344 224.003906 L 68.789062 224.003906 Z M 68.789062 216.972656 " fill-opacity="1" fill-rule="nonzero"/><path fill="#e0e0e0" d="M 227.34375 98.613281 C 227.34375 100.453125 227.214844 102.285156 226.957031 104.109375 C 226.703125 105.929688 226.320312 107.726562 225.816406 109.496094 C 225.308594 111.265625 224.683594 112.992188 223.9375 114.671875 C 223.195312 116.355469 222.335938 117.980469 221.363281 119.542969 C 220.394531 121.105469 219.320312 122.59375 218.140625 124.007812 C 216.964844 125.421875 215.691406 126.75 214.332031 127.984375 C 212.96875 129.222656 211.527344 130.359375 210.007812 131.398438 C 208.488281 132.433594 206.902344 133.363281 205.253906 134.179688 C 203 135.304688 200.65625 136.183594 198.222656 136.816406 C 194.773438 137.785156 191.257812 138.273438 187.675781 138.28125 C 183.023438 138.269531 178.511719 137.46875 174.140625 135.878906 C 171.675781 134.996094 169.332031 133.863281 167.109375 132.480469 C 166.375 132.03125 165.65625 131.5625 164.953125 131.066406 C 164.25 130.574219 163.566406 130.058594 162.894531 129.519531 C 162.226562 128.980469 161.574219 128.421875 160.941406 127.839844 C 160.308594 127.257812 159.695312 126.65625 159.101562 126.035156 C 158.507812 125.414062 157.9375 124.773438 157.382812 124.117188 C 156.832031 123.457031 156.300781 122.78125 155.792969 122.089844 C 155.285156 121.398438 154.800781 120.6875 154.339844 119.964844 C 153.878906 119.238281 153.4375 118.5 153.023438 117.746094 C 152.609375 116.996094 152.222656 116.230469 151.859375 115.449219 C 151.492188 114.671875 151.15625 113.882812 150.84375 113.082031 C 150.53125 112.28125 150.242188 111.472656 149.984375 110.65625 C 149.722656 109.835938 149.488281 109.007812 149.285156 108.175781 C 149.078125 107.339844 148.898438 106.5 148.746094 105.65625 C 148.59375 104.808594 148.472656 103.960938 148.375 103.105469 C 148.277344 102.253906 148.210938 101.394531 148.167969 100.539062 C 148.128906 99.679688 148.117188 98.820312 148.132812 97.960938 C 148.144531 97.101562 148.191406 96.246094 148.261719 95.390625 C 148.332031 94.53125 148.429688 93.679688 148.558594 92.828125 C 148.683594 91.980469 148.835938 91.136719 149.019531 90.296875 C 149.199219 89.457031 149.410156 88.621094 149.644531 87.796875 C 149.882812 86.96875 150.144531 86.152344 150.433594 85.34375 C 150.722656 84.535156 151.035156 83.734375 151.378906 82.945312 C 151.71875 82.15625 152.085938 81.382812 152.476562 80.617188 C 152.867188 79.851562 153.285156 79.101562 153.722656 78.363281 C 154.164062 77.625 154.628906 76.902344 155.117188 76.195312 C 155.601562 75.488281 156.113281 74.796875 156.644531 74.121094 C 157.175781 73.445312 157.730469 72.789062 158.304688 72.152344 C 158.882812 71.515625 159.476562 70.894531 160.09375 70.296875 C 160.707031 69.695312 161.34375 69.117188 161.996094 68.558594 C 162.648438 68 163.320312 67.464844 164.007812 66.949219 C 164.695312 66.433594 165.398438 65.941406 166.117188 65.472656 C 166.839844 65.003906 167.574219 64.558594 168.320312 64.136719 C 169.070312 63.71875 169.832031 63.320312 170.605469 62.949219 C 171.382812 62.578125 172.167969 62.230469 172.964844 61.910156 C 173.761719 61.589844 174.570312 61.296875 175.386719 61.03125 C 176.203125 60.761719 177.027344 60.519531 177.859375 60.304688 C 178.691406 60.09375 179.527344 59.90625 180.371094 59.746094 C 181.21875 59.585938 182.066406 59.453125 182.917969 59.347656 C 183.769531 59.246094 184.625 59.167969 185.484375 59.121094 C 186.34375 59.070312 187.199219 59.050781 188.058594 59.054688 C 188.917969 59.0625 189.777344 59.097656 190.632812 59.160156 C 191.492188 59.222656 192.34375 59.316406 193.195312 59.433594 C 194.046875 59.550781 194.894531 59.699219 195.734375 59.871094 C 196.578125 60.046875 197.410156 60.246094 198.238281 60.472656 C 199.066406 60.703125 199.886719 60.957031 200.699219 61.238281 C 201.511719 61.519531 202.3125 61.824219 203.105469 62.160156 C 203.898438 62.492188 204.679688 62.851562 205.445312 63.234375 C 206.214844 63.621094 206.96875 64.027344 207.710938 64.460938 C 208.453125 64.894531 209.179688 65.351562 209.894531 65.832031 C 210.605469 66.3125 211.300781 66.816406 211.980469 67.34375 C 212.660156 67.871094 213.320312 68.417969 213.964844 68.984375 C 214.609375 69.554688 215.234375 70.144531 215.839844 70.753906 C 216.445312 71.363281 217.03125 71.992188 217.59375 72.640625 C 218.160156 73.289062 218.703125 73.953125 219.222656 74.636719 C 219.742188 75.320312 220.242188 76.019531 220.71875 76.734375 C 221.195312 77.449219 221.644531 78.179688 222.074219 78.925781 C 222.503906 79.667969 222.90625 80.425781 223.285156 81.199219 C 223.664062 81.96875 224.015625 82.753906 224.34375 83.546875 C 224.671875 84.339844 224.976562 85.144531 225.25 85.957031 C 225.527344 86.773438 225.773438 87.59375 225.996094 88.425781 C 226.21875 89.253906 226.414062 90.089844 226.582031 90.933594 C 226.75 91.777344 226.890625 92.621094 227.003906 93.476562 C 227.113281 94.328125 227.199219 95.179688 227.257812 96.039062 C 227.3125 96.894531 227.34375 97.753906 227.34375 98.613281 Z M 227.34375 98.613281 " fill-opacity="1" fill-rule="nonzero"/><path fill="#777777" d="M 217.734375 80.449219 L 217.734375 102.070312 C 217.734375 102.535156 217.644531 102.984375 217.464844 103.414062 C 217.289062 103.847656 217.035156 104.226562 216.703125 104.554688 C 216.375 104.886719 215.996094 105.140625 215.5625 105.316406 C 215.132812 105.496094 214.683594 105.585938 214.21875 105.585938 L 205.253906 105.585938 L 205.253906 134.179688 C 203 135.304688 200.65625 136.183594 198.222656 136.816406 L 198.222656 105.585938 L 189.199219 105.585938 C 188.734375 105.585938 188.285156 105.496094 187.855469 105.316406 C 187.421875 105.140625 187.042969 104.886719 186.714844 104.554688 C 186.382812 104.226562 186.128906 103.847656 185.953125 103.414062 C 185.773438 102.984375 185.683594 102.535156 185.683594 102.070312 L 185.683594 80.449219 L 192.714844 80.449219 L 192.714844 98.554688 L 198.222656 98.554688 L 198.222656 80.449219 L 205.253906 80.449219 L 205.253906 98.554688 L 210.703125 98.554688 L 210.703125 80.449219 Z M 217.734375 80.449219 " fill-opacity="1" fill-rule="nonzero"/><path fill="#777777" d="M 181.40625 91.054688 C 181.40625 96.386719 178.359375 100.839844 174.140625 102.480469 L 174.140625 135.878906 C 171.675781 134.996094 169.332031 133.863281 167.109375 132.480469 L 167.109375 102.480469 C 162.832031 100.839844 159.785156 96.386719 159.785156 91.054688 C 159.785156 84.375 164.648438 78.984375 170.625 78.984375 C 176.601562 78.984375 181.40625 84.375 181.40625 91.054688 Z M 181.40625 91.054688 " fill-opacity="1" fill-rule="nonzero"/><g clip-path="url(#9856093460)"><path fill="#e2ac7a" d="M 37.5 316.113281 L 337.5 316.113281 L 337.5 335.132812 L 37.5 335.132812 Z M 37.5 316.113281 " fill-opacity="1" fill-rule="nonzero"/></g></svg>