<svg xmlns="http://www.w3.org/2000/svg" xmlns:xlink="http://www.w3.org/1999/xlink" width="500" zoomAndPan="magnify" viewBox="0 0 375 374.999991" height="500" preserveAspectRatio="xMidYMid meet" version="1.0"><defs><clipPath id="319bedd714"><path d="M 42 41.445312 L 335 41.445312 L 335 333.195312 L 42 333.195312 Z M 42 41.445312 " clip-rule="nonzero"/></clipPath></defs><g clip-path="url(#319bedd714)"><path fill="#000000" d="M 331.992188 312.109375 L 321.367188 312.109375 L 321.367188 192.753906 C 323.523438 192.125 325.503906 191.136719 327.308594 189.789062 C 329.109375 188.445312 330.621094 186.832031 331.839844 184.941406 C 332.609375 183.765625 333.21875 182.511719 333.667969 181.175781 C 334.113281 179.84375 334.386719 178.472656 334.480469 177.070312 C 334.578125 175.667969 334.492188 174.273438 334.230469 172.894531 C 333.964844 171.511719 333.53125 170.183594 332.929688 168.914062 L 301.609375 101.765625 C 301.203125 100.890625 300.683594 100.089844 300.046875 99.363281 C 299.414062 98.636719 298.6875 98.011719 297.875 97.492188 C 297.0625 96.972656 296.191406 96.578125 295.265625 96.308594 C 294.339844 96.035156 293.390625 95.902344 292.425781 95.902344 L 284.835938 95.902344 L 284.835938 88.316406 C 284.835938 87.652344 284.773438 86.996094 284.640625 86.34375 C 284.511719 85.691406 284.320312 85.058594 284.066406 84.445312 C 283.8125 83.832031 283.5 83.25 283.132812 82.699219 C 282.761719 82.144531 282.34375 81.636719 281.871094 81.167969 C 281.402344 80.695312 280.890625 80.277344 280.339844 79.910156 C 279.785156 79.539062 279.203125 79.226562 278.589844 78.972656 C 277.976562 78.71875 277.34375 78.527344 276.691406 78.398438 C 276.039062 78.269531 275.382812 78.203125 274.71875 78.203125 L 237.097656 78.203125 C 236.730469 76.894531 236.308594 75.601562 235.832031 74.324219 C 235.355469 73.046875 234.832031 71.792969 234.253906 70.558594 C 233.675781 69.328125 233.050781 68.117188 232.378906 66.9375 C 231.703125 65.753906 230.980469 64.597656 230.210938 63.476562 C 229.445312 62.351562 228.632812 61.257812 227.777344 60.199219 C 226.917969 59.140625 226.019531 58.121094 225.082031 57.132812 C 224.140625 56.148438 223.164062 55.203125 222.148438 54.292969 C 221.132812 53.386719 220.078125 52.523438 218.992188 51.703125 C 217.90625 50.878906 216.789062 50.105469 215.640625 49.371094 C 214.492188 48.640625 213.3125 47.957031 212.109375 47.324219 C 210.902344 46.6875 209.675781 46.101562 208.421875 45.566406 C 207.171875 45.027344 205.898438 44.542969 204.609375 44.109375 C 203.316406 43.675781 202.007812 43.296875 200.6875 42.96875 C 199.363281 42.640625 198.03125 42.367188 196.6875 42.148438 C 195.34375 41.929688 193.992188 41.765625 192.632812 41.652344 C 191.273438 41.542969 189.914062 41.488281 188.550781 41.488281 C 187.191406 41.488281 185.828125 41.542969 184.472656 41.652344 C 183.113281 41.765625 181.761719 41.929688 180.417969 42.148438 C 179.074219 42.367188 177.738281 42.640625 176.417969 42.96875 C 175.09375 43.296875 173.789062 43.675781 172.496094 44.109375 C 171.207031 44.542969 169.933594 45.027344 168.679688 45.566406 C 167.429688 46.101562 166.199219 46.6875 164.996094 47.324219 C 163.792969 47.957031 162.613281 48.640625 161.464844 49.371094 C 160.316406 50.105469 159.199219 50.878906 158.113281 51.703125 C 157.023438 52.523438 155.972656 53.386719 154.957031 54.292969 C 153.941406 55.203125 152.964844 56.148438 152.023438 57.132812 C 151.085938 58.121094 150.1875 59.140625 149.328125 60.199219 C 148.472656 61.257812 147.660156 62.351562 146.890625 63.476562 C 146.125 64.597656 145.402344 65.753906 144.726562 66.9375 C 144.054688 68.117188 143.425781 69.328125 142.851562 70.558594 C 142.273438 71.792969 141.746094 73.046875 141.273438 74.324219 C 140.796875 75.601562 140.375 76.894531 140.003906 78.203125 L 102.539062 78.203125 C 101.875 78.203125 101.214844 78.269531 100.566406 78.398438 C 99.914062 78.527344 99.28125 78.71875 98.667969 78.972656 C 98.050781 79.226562 97.46875 79.539062 96.917969 79.910156 C 96.363281 80.277344 95.851562 80.695312 95.382812 81.167969 C 94.914062 81.636719 94.492188 82.144531 94.125 82.699219 C 93.753906 83.25 93.445312 83.832031 93.191406 84.445312 C 92.9375 85.058594 92.742188 85.691406 92.613281 86.34375 C 92.484375 86.996094 92.417969 87.652344 92.417969 88.316406 L 92.417969 95.902344 L 84.832031 95.902344 C 83.863281 95.902344 82.917969 96.035156 81.992188 96.308594 C 81.066406 96.578125 80.195312 96.972656 79.382812 97.492188 C 78.566406 98.011719 77.84375 98.636719 77.207031 99.363281 C 76.574219 100.089844 76.050781 100.890625 75.648438 101.765625 L 44.175781 168.941406 C 39.570312 178.800781 45.414062 189.621094 55.738281 192.753906 L 55.738281 312.109375 L 45.113281 312.109375 C 44.777344 312.109375 44.453125 312.175781 44.144531 312.300781 C 43.835938 312.429688 43.558594 312.613281 43.324219 312.851562 C 43.085938 313.085938 42.902344 313.359375 42.773438 313.671875 C 42.648438 313.980469 42.582031 314.300781 42.582031 314.636719 L 42.582031 330.667969 C 42.582031 331 42.648438 331.324219 42.773438 331.632812 C 42.902344 331.945312 43.085938 332.21875 43.324219 332.453125 C 43.558594 332.691406 43.835938 332.875 44.144531 333.003906 C 44.453125 333.128906 44.777344 333.195312 45.113281 333.195312 L 331.992188 333.195312 C 332.328125 333.195312 332.652344 333.128906 332.960938 333.003906 C 333.269531 332.875 333.542969 332.691406 333.78125 332.453125 C 334.019531 332.21875 334.203125 331.945312 334.328125 331.632812 C 334.457031 331.324219 334.523438 331 334.523438 330.667969 L 334.523438 314.636719 C 334.523438 314.300781 334.457031 313.980469 334.328125 313.671875 C 334.203125 313.359375 334.019531 313.085938 333.78125 312.851562 C 333.542969 312.613281 333.269531 312.429688 332.960938 312.300781 C 332.652344 312.175781 332.328125 312.109375 331.992188 312.109375 Z M 297.03125 103.890625 L 328.347656 171.0625 C 328.777344 171.949219 329.085938 172.871094 329.277344 173.835938 C 329.464844 174.796875 329.535156 175.769531 329.476562 176.75 C 329.417969 177.730469 329.238281 178.6875 328.9375 179.621094 C 328.632812 180.554688 328.21875 181.433594 327.691406 182.261719 C 327.023438 183.265625 326.238281 184.171875 325.339844 184.976562 C 324.441406 185.78125 323.457031 186.464844 322.386719 187.019531 C 321.316406 187.578125 320.195312 187.992188 319.019531 188.265625 C 317.84375 188.539062 316.652344 188.660156 315.449219 188.632812 C 314.726562 188.660156 314.003906 188.632812 313.289062 188.546875 C 312.570312 188.464844 311.863281 188.324219 311.167969 188.128906 C 310.472656 187.9375 309.796875 187.691406 309.136719 187.390625 C 308.480469 187.09375 307.847656 186.746094 307.246094 186.347656 C 306.640625 185.953125 306.070312 185.511719 305.535156 185.027344 C 305 184.542969 304.503906 184.019531 304.050781 183.460938 C 303.597656 182.898438 303.1875 182.304688 302.824219 181.679688 C 302.460938 181.054688 302.148438 180.40625 301.886719 179.734375 L 274.058594 100.933594 L 292.300781 100.933594 C 292.796875 100.917969 293.28125 100.980469 293.761719 101.109375 C 294.238281 101.242188 294.691406 101.4375 295.109375 101.699219 C 295.53125 101.964844 295.90625 102.28125 296.230469 102.65625 C 296.558594 103.027344 296.824219 103.4375 297.03125 103.890625 Z M 293.84375 172.152344 C 294.15625 173.03125 294.355469 173.933594 294.449219 174.863281 C 294.539062 175.789062 294.515625 176.714844 294.382812 177.636719 C 294.25 178.5625 294.003906 179.453125 293.652344 180.316406 C 293.300781 181.179688 292.847656 181.988281 292.300781 182.742188 C 291.613281 183.671875 290.832031 184.503906 289.945312 185.246094 C 289.0625 185.984375 288.101562 186.609375 287.066406 187.121094 C 286.035156 187.628906 284.953125 188.011719 283.828125 188.261719 C 282.703125 188.515625 281.5625 188.628906 280.410156 188.609375 L 278.410156 188.609375 C 277.640625 188.632812 276.875 188.589844 276.113281 188.488281 C 275.351562 188.382812 274.601562 188.21875 273.867188 187.988281 C 273.132812 187.761719 272.421875 187.472656 271.734375 187.128906 C 271.050781 186.78125 270.394531 186.378906 269.773438 185.925781 C 269.15625 185.46875 268.578125 184.96875 268.039062 184.414062 C 267.503906 183.863281 267.015625 183.273438 266.578125 182.640625 C 266.140625 182.007812 265.757812 181.34375 265.429688 180.648438 C 265.101562 179.953125 264.832031 179.238281 264.625 178.496094 C 257.820312 149.523438 249.269531 112.5625 246.433594 100.957031 L 268.824219 100.957031 C 271.074219 107.355469 290.328125 162.039062 293.84375 172.152344 Z M 258.222656 173.339844 C 258.433594 174.214844 258.542969 175.105469 258.546875 176.003906 C 258.550781 176.90625 258.449219 177.796875 258.246094 178.671875 C 258.039062 179.550781 257.738281 180.394531 257.335938 181.199219 C 256.933594 182.007812 256.445312 182.757812 255.871094 183.453125 C 255.175781 184.296875 254.398438 185.050781 253.53125 185.71875 C 252.667969 186.386719 251.738281 186.949219 250.746094 187.40625 C 249.753906 187.867188 248.722656 188.207031 247.652344 188.429688 C 246.585938 188.65625 245.503906 188.757812 244.410156 188.734375 L 241.679688 188.734375 C 240.851562 188.769531 240.023438 188.726562 239.203125 188.609375 C 238.382812 188.488281 237.582031 188.296875 236.792969 188.035156 C 236.007812 187.769531 235.253906 187.433594 234.527344 187.03125 C 233.804688 186.628906 233.121094 186.164062 232.484375 185.636719 C 231.84375 185.109375 231.257812 184.53125 230.722656 183.894531 C 230.1875 183.261719 229.71875 182.585938 229.308594 181.863281 C 228.898438 181.144531 228.558594 180.390625 228.285156 179.609375 C 228.011719 178.828125 227.8125 178.027344 227.6875 177.207031 L 222.097656 129.550781 C 224.1875 127.699219 226.113281 125.6875 227.867188 123.515625 C 229.621094 121.339844 231.183594 119.039062 232.554688 116.605469 C 233.925781 114.171875 235.085938 111.644531 236.035156 109.015625 C 236.984375 106.390625 237.710938 103.703125 238.210938 100.957031 L 241.25 100.957031 Z M 149.417969 177.207031 C 149.285156 178.019531 149.078125 178.816406 148.800781 179.589844 C 148.523438 180.367188 148.179688 181.113281 147.765625 181.824219 C 147.355469 182.539062 146.878906 183.210938 146.34375 183.835938 C 145.8125 184.464844 145.222656 185.039062 144.585938 185.558594 C 143.945312 186.082031 143.265625 186.539062 142.542969 186.9375 C 141.820312 187.332031 141.066406 187.664062 140.285156 187.921875 C 139.503906 188.183594 138.703125 188.371094 137.886719 188.488281 C 137.070312 188.601562 136.25 188.644531 135.425781 188.609375 L 132.695312 188.609375 C 131.601562 188.628906 130.519531 188.527344 129.449219 188.304688 C 128.378906 188.078125 127.351562 187.738281 126.355469 187.28125 C 125.363281 186.824219 124.4375 186.261719 123.570312 185.59375 C 122.707031 184.925781 121.925781 184.167969 121.234375 183.324219 C 120.671875 182.640625 120.191406 181.898438 119.796875 181.105469 C 119.40625 180.308594 119.105469 179.480469 118.902344 178.617188 C 118.699219 177.753906 118.59375 176.878906 118.589844 175.992188 C 118.585938 175.105469 118.683594 174.230469 118.882812 173.363281 L 135.855469 100.957031 L 138.890625 100.957031 C 139.394531 103.703125 140.117188 106.390625 141.066406 109.015625 C 142.015625 111.644531 143.175781 114.171875 144.546875 116.605469 C 145.917969 119.039062 147.484375 121.339844 149.238281 123.515625 C 150.992188 125.6875 152.917969 127.699219 155.007812 129.550781 C 154.324219 135.367188 156.90625 113.421875 149.417969 177.207031 Z M 112.480469 178.472656 C 112.273438 179.210938 112.003906 179.929688 111.675781 180.625 C 111.347656 181.320312 110.964844 181.984375 110.527344 182.617188 C 110.089844 183.25 109.601562 183.839844 109.066406 184.390625 C 108.527344 184.941406 107.949219 185.445312 107.328125 185.898438 C 106.710938 186.355469 106.054688 186.753906 105.367188 187.101562 C 104.683594 187.449219 103.972656 187.734375 103.234375 187.964844 C 102.5 188.191406 101.753906 188.359375 100.992188 188.460938 C 100.226562 188.566406 99.460938 188.605469 98.695312 188.582031 L 96.695312 188.582031 C 95.542969 188.605469 94.410156 188.488281 93.285156 188.238281 C 92.164062 187.988281 91.085938 187.609375 90.054688 187.101562 C 89.023438 186.59375 88.066406 185.96875 87.183594 185.234375 C 86.296875 184.496094 85.515625 183.667969 84.832031 182.742188 C 84.28125 181.992188 83.828125 181.183594 83.472656 180.320312 C 83.117188 179.457031 82.871094 178.566406 82.730469 177.644531 C 82.59375 176.71875 82.566406 175.796875 82.652344 174.867188 C 82.734375 173.9375 82.929688 173.03125 83.238281 172.152344 L 108.28125 100.957031 L 130.671875 100.957031 C 129.027344 107.910156 136.996094 73.957031 112.480469 178.546875 Z M 154.804688 174.679688 L 159.660156 133.316406 C 163.542969 136.023438 167.726562 138.140625 172.207031 139.660156 C 176.6875 141.183594 181.292969 142.050781 186.023438 142.269531 L 186.023438 175.941406 C 185.972656 176.820312 185.835938 177.679688 185.613281 178.53125 C 185.394531 179.378906 185.09375 180.199219 184.710938 180.988281 C 184.328125 181.78125 183.875 182.527344 183.347656 183.226562 C 182.820312 183.929688 182.230469 184.574219 181.578125 185.160156 C 180.925781 185.746094 180.21875 186.261719 179.464844 186.710938 C 178.710938 187.160156 177.921875 187.53125 177.09375 187.824219 C 176.265625 188.117188 175.417969 188.328125 174.550781 188.457031 C 173.679688 188.582031 172.808594 188.625 171.929688 188.582031 L 168.84375 188.582031 C 167.8125 188.597656 166.789062 188.503906 165.777344 188.304688 C 164.761719 188.101562 163.78125 187.796875 162.832031 187.386719 C 161.882812 186.976562 160.988281 186.472656 160.148438 185.871094 C 159.308594 185.273438 158.539062 184.59375 157.839844 183.832031 C 156.699219 182.59375 155.863281 181.179688 155.332031 179.582031 C 154.804688 177.984375 154.628906 176.351562 154.804688 174.679688 Z M 191.082031 142.269531 C 195.8125 142.042969 200.417969 141.167969 204.902344 139.636719 C 209.382812 138.105469 213.5625 135.984375 217.441406 133.265625 L 222.300781 174.679688 C 222.492188 176.367188 222.320312 178.019531 221.789062 179.636719 C 221.261719 181.25 220.417969 182.683594 219.265625 183.933594 C 218.566406 184.695312 217.796875 185.375 216.957031 185.972656 C 216.113281 186.574219 215.21875 187.078125 214.273438 187.488281 C 213.324219 187.898438 212.34375 188.203125 211.328125 188.40625 C 210.316406 188.605469 209.292969 188.699219 208.257812 188.683594 L 205.171875 188.683594 C 204.296875 188.726562 203.421875 188.683594 202.554688 188.558594 C 201.6875 188.429688 200.839844 188.21875 200.011719 187.925781 C 199.183594 187.632812 198.394531 187.261719 197.640625 186.8125 C 196.882812 186.363281 196.179688 185.847656 195.527344 185.261719 C 194.875 184.671875 194.285156 184.03125 193.757812 183.328125 C 193.230469 182.628906 192.773438 181.882812 192.394531 181.089844 C 192.011719 180.300781 191.710938 179.480469 191.492188 178.632812 C 191.269531 177.78125 191.132812 176.917969 191.082031 176.042969 Z M 274.566406 83.183594 C 274.898438 83.183594 275.226562 83.21875 275.554688 83.28125 C 275.878906 83.347656 276.195312 83.441406 276.503906 83.570312 C 276.808594 83.695312 277.101562 83.851562 277.375 84.035156 C 277.652344 84.222656 277.910156 84.429688 278.144531 84.664062 C 278.378906 84.898438 278.589844 85.15625 278.773438 85.433594 C 278.957031 85.707031 279.113281 86 279.238281 86.304688 C 279.367188 86.613281 279.464844 86.929688 279.527344 87.253906 C 279.59375 87.582031 279.625 87.910156 279.625 88.242188 L 279.625 95.824219 L 238.871094 95.824219 C 238.871094 94.511719 239.074219 93.296875 239.074219 91.855469 C 239.046875 88.917969 238.777344 86.003906 238.261719 83.109375 Z M 188.550781 46.5 C 189.980469 46.589844 191.402344 46.746094 192.816406 46.96875 C 194.234375 47.191406 195.632812 47.480469 197.019531 47.835938 C 198.40625 48.191406 199.773438 48.613281 201.121094 49.097656 C 202.46875 49.582031 203.792969 50.128906 205.089844 50.738281 C 206.382812 51.347656 207.648438 52.015625 208.882812 52.742188 C 210.113281 53.46875 211.308594 54.253906 212.46875 55.097656 C 213.628906 55.9375 214.746094 56.832031 215.820312 57.777344 C 216.894531 58.722656 217.921875 59.71875 218.902344 60.761719 C 219.882812 61.804688 220.8125 62.890625 221.6875 64.019531 C 222.566406 65.152344 223.390625 66.320312 224.15625 67.527344 C 224.925781 68.738281 225.632812 69.980469 226.285156 71.253906 C 226.933594 72.527344 227.523438 73.832031 228.050781 75.164062 C 228.578125 76.492188 229.042969 77.84375 229.441406 79.21875 C 229.839844 80.59375 230.175781 81.984375 230.445312 83.390625 C 230.710938 84.796875 230.914062 86.210938 231.046875 87.636719 C 231.183594 89.058594 231.25 90.488281 231.25 91.917969 C 231.25 93.351562 231.183594 94.777344 231.046875 96.203125 C 230.914062 97.628906 230.710938 99.042969 230.445312 100.449219 C 230.175781 101.855469 229.839844 103.246094 229.441406 104.621094 C 229.042969 105.992188 228.578125 107.347656 228.050781 108.675781 C 227.523438 110.007812 226.933594 111.308594 226.285156 112.585938 C 225.632812 113.859375 224.925781 115.101562 224.15625 116.308594 C 223.390625 117.519531 222.566406 118.6875 221.6875 119.816406 C 220.8125 120.949219 219.882812 122.035156 218.902344 123.078125 C 217.921875 124.121094 216.894531 125.117188 215.820312 126.0625 C 214.746094 127.007812 213.628906 127.902344 212.46875 128.742188 C 211.308594 129.582031 210.113281 130.367188 208.882812 131.097656 C 207.648438 131.824219 206.382812 132.492188 205.089844 133.101562 C 203.792969 133.710938 202.46875 134.257812 201.121094 134.742188 C 199.773438 135.226562 198.40625 135.644531 197.019531 136 C 195.632812 136.355469 194.234375 136.644531 192.816406 136.867188 C 191.402344 137.09375 189.980469 137.25 188.550781 137.335938 C 187.121094 137.25 185.699219 137.09375 184.285156 136.867188 C 182.871094 136.644531 181.472656 136.355469 180.082031 136 C 178.695312 135.644531 177.328125 135.226562 175.980469 134.742188 C 174.632812 134.257812 173.3125 133.710938 172.015625 133.101562 C 170.71875 132.492188 169.457031 131.824219 168.222656 131.097656 C 166.988281 130.367188 165.792969 129.582031 164.636719 128.742188 C 163.476562 127.902344 162.359375 127.007812 161.285156 126.0625 C 160.210938 125.117188 159.183594 124.121094 158.203125 123.078125 C 157.222656 122.035156 156.292969 120.949219 155.414062 119.816406 C 154.539062 118.6875 153.714844 117.519531 152.945312 116.308594 C 152.179688 115.101562 151.46875 113.859375 150.820312 112.585938 C 150.167969 111.308594 149.582031 110.007812 149.054688 108.675781 C 148.527344 107.347656 148.0625 105.992188 147.664062 104.621094 C 147.261719 103.246094 146.929688 101.855469 146.660156 100.449219 C 146.394531 99.042969 146.191406 97.628906 146.054688 96.203125 C 145.921875 94.777344 145.855469 93.351562 145.855469 91.917969 C 145.855469 90.488281 145.921875 89.058594 146.054688 87.636719 C 146.191406 86.210938 146.394531 84.796875 146.660156 83.390625 C 146.929688 81.984375 147.261719 80.59375 147.664062 79.21875 C 148.0625 77.84375 148.527344 76.492188 149.054688 75.164062 C 149.582031 73.832031 150.167969 72.527344 150.820312 71.253906 C 151.46875 69.980469 152.179688 68.738281 152.945312 67.527344 C 153.714844 66.320312 154.539062 65.152344 155.414062 64.019531 C 156.292969 62.890625 157.222656 61.804688 158.203125 60.761719 C 159.183594 59.71875 160.210938 58.722656 161.285156 57.777344 C 162.359375 56.832031 163.476562 55.9375 164.636719 55.097656 C 165.792969 54.253906 166.988281 53.46875 168.222656 52.742188 C 169.457031 52.015625 170.71875 51.347656 172.015625 50.738281 C 173.3125 50.128906 174.632812 49.582031 175.980469 49.097656 C 177.328125 48.613281 178.695312 48.191406 180.082031 47.835938 C 181.472656 47.480469 182.871094 47.191406 184.285156 46.96875 C 185.699219 46.746094 187.121094 46.589844 188.550781 46.5 Z M 97.480469 88.242188 C 97.480469 87.910156 97.511719 87.582031 97.578125 87.253906 C 97.640625 86.929688 97.738281 86.613281 97.863281 86.304688 C 97.992188 86 98.148438 85.707031 98.332031 85.433594 C 98.515625 85.15625 98.726562 84.898438 98.960938 84.664062 C 99.195312 84.429688 99.453125 84.222656 99.726562 84.035156 C 100.003906 83.851562 100.296875 83.695312 100.601562 83.570312 C 100.910156 83.441406 101.226562 83.347656 101.550781 83.28125 C 101.878906 83.21875 102.207031 83.183594 102.539062 83.183594 L 138.96875 83.183594 C 138.371094 86.070312 138.035156 88.988281 137.957031 91.933594 C 137.957031 93.273438 137.957031 94.585938 138.160156 95.902344 L 97.480469 95.902344 Z M 48.753906 171.0625 L 80.074219 103.890625 C 80.277344 103.453125 80.539062 103.050781 80.855469 102.6875 C 81.175781 102.320312 81.539062 102.011719 81.945312 101.75 C 82.355469 101.488281 82.789062 101.292969 83.253906 101.15625 C 83.71875 101.023438 84.195312 100.957031 84.679688 100.957031 L 102.917969 100.957031 L 75.21875 179.734375 C 74.953125 180.402344 74.640625 181.042969 74.28125 181.664062 C 73.917969 182.28125 73.511719 182.867188 73.058594 183.425781 C 72.609375 183.980469 72.117188 184.5 71.585938 184.980469 C 71.054688 185.460938 70.488281 185.894531 69.890625 186.289062 C 69.292969 186.683594 68.664062 187.027344 68.015625 187.328125 C 67.363281 187.625 66.691406 187.871094 66 188.066406 C 65.3125 188.257812 64.609375 188.398438 63.898438 188.488281 C 63.1875 188.574219 62.476562 188.605469 61.757812 188.582031 C 51.691406 188.609375 44.882812 179.40625 48.753906 171.0625 Z M 60.796875 193.613281 L 61.757812 193.613281 C 62.65625 193.628906 63.546875 193.582031 64.4375 193.472656 C 65.328125 193.363281 66.207031 193.191406 67.070312 192.957031 C 67.9375 192.726562 68.785156 192.433594 69.609375 192.082031 C 70.433594 191.730469 71.230469 191.324219 71.996094 190.863281 C 72.765625 190.398438 73.496094 189.886719 74.195312 189.320312 C 74.890625 188.753906 75.542969 188.144531 76.152344 187.488281 C 76.761719 186.832031 77.324219 186.136719 77.835938 185.398438 C 78.351562 184.664062 78.808594 183.898438 79.214844 183.097656 C 79.625 183.980469 80.105469 184.820312 80.65625 185.625 C 81.578125 186.878906 82.636719 188.007812 83.828125 189.011719 C 85.019531 190.015625 86.3125 190.863281 87.707031 191.558594 C 89.101562 192.253906 90.558594 192.773438 92.078125 193.121094 C 93.597656 193.46875 95.136719 193.632812 96.695312 193.613281 L 98.695312 193.613281 C 100.40625 193.625 102.09375 193.417969 103.753906 192.984375 C 105.414062 192.550781 106.988281 191.910156 108.476562 191.0625 C 109.96875 190.214844 111.324219 189.1875 112.542969 187.984375 C 113.761719 186.777344 114.804688 185.4375 115.667969 183.957031 C 116.125 184.847656 116.65625 185.6875 117.261719 186.484375 C 118.195312 187.625 119.246094 188.644531 120.410156 189.550781 C 121.570312 190.453125 122.820312 191.214844 124.15625 191.835938 C 125.492188 192.457031 126.882812 192.921875 128.324219 193.230469 C 129.761719 193.539062 131.222656 193.683594 132.695312 193.664062 L 135.425781 193.664062 C 137.09375 193.691406 138.734375 193.503906 140.355469 193.109375 C 141.972656 192.710938 143.515625 192.113281 144.980469 191.320312 C 146.445312 190.523438 147.785156 189.558594 149 188.417969 C 150.210938 187.277344 151.261719 186 152.148438 184.589844 C 152.71875 185.484375 153.359375 186.328125 154.070312 187.117188 C 155.007812 188.144531 156.042969 189.0625 157.175781 189.871094 C 158.304688 190.679688 159.507812 191.359375 160.785156 191.914062 C 162.058594 192.472656 163.378906 192.886719 164.738281 193.164062 C 166.101562 193.441406 167.480469 193.578125 168.871094 193.5625 L 171.957031 193.5625 C 173.597656 193.589844 175.214844 193.414062 176.8125 193.03125 C 178.40625 192.648438 179.929688 192.074219 181.382812 191.308594 C 182.832031 190.539062 184.164062 189.605469 185.378906 188.503906 C 186.59375 187.398438 187.652344 186.160156 188.550781 184.792969 C 189.445312 186.179688 190.496094 187.433594 191.707031 188.558594 C 192.917969 189.679688 194.25 190.628906 195.707031 191.414062 C 197.160156 192.195312 198.6875 192.785156 200.292969 193.179688 C 201.894531 193.574219 203.523438 193.761719 205.171875 193.742188 L 208.257812 193.742188 C 209.648438 193.753906 211.023438 193.625 212.386719 193.347656 C 213.75 193.070312 215.066406 192.65625 216.34375 192.105469 C 217.617188 191.550781 218.820312 190.871094 219.953125 190.066406 C 221.085938 189.257812 222.121094 188.34375 223.058594 187.320312 C 223.769531 186.53125 224.410156 185.6875 224.980469 184.792969 C 225.878906 186.183594 226.933594 187.4375 228.152344 188.558594 C 229.371094 189.675781 230.710938 190.625 232.171875 191.402344 C 233.632812 192.179688 235.171875 192.757812 236.78125 193.140625 C 238.390625 193.527344 240.023438 193.699219 241.679688 193.664062 L 244.386719 193.664062 C 245.859375 193.683594 247.316406 193.539062 248.757812 193.230469 C 250.199219 192.921875 251.585938 192.457031 252.921875 191.835938 C 254.257812 191.214844 255.507812 190.453125 256.671875 189.550781 C 257.835938 188.644531 258.882812 187.625 259.816406 186.484375 C 260.421875 185.6875 260.953125 184.847656 261.410156 183.957031 C 262.277344 185.4375 263.316406 186.777344 264.539062 187.984375 C 265.757812 189.1875 267.109375 190.214844 268.601562 191.0625 C 270.089844 191.910156 271.667969 192.550781 273.324219 192.984375 C 274.984375 193.417969 276.671875 193.625 278.386719 193.613281 L 280.382812 193.613281 C 281.941406 193.632812 283.480469 193.46875 285 193.121094 C 286.519531 192.773438 287.976562 192.253906 289.371094 191.558594 C 290.765625 190.863281 292.058594 190.015625 293.25 189.011719 C 294.441406 188.007812 295.5 186.878906 296.421875 185.625 C 296.972656 184.820312 297.453125 183.980469 297.867188 183.097656 C 298.269531 183.898438 298.730469 184.664062 299.242188 185.398438 C 299.753906 186.136719 300.316406 186.832031 300.925781 187.488281 C 301.535156 188.144531 302.191406 188.753906 302.886719 189.320312 C 303.582031 189.886719 304.3125 190.398438 305.082031 190.863281 C 305.847656 191.324219 306.644531 191.730469 307.472656 192.082031 C 308.296875 192.433594 309.140625 192.726562 310.007812 192.957031 C 310.875 193.191406 311.75 193.363281 312.640625 193.472656 C 313.53125 193.582031 314.425781 193.628906 315.320312 193.613281 L 316.28125 193.613281 L 316.28125 312.109375 L 136.664062 312.109375 L 136.664062 220.1875 C 136.664062 219.851562 136.601562 219.527344 136.472656 219.21875 C 136.34375 218.910156 136.164062 218.636719 135.925781 218.398438 C 135.6875 218.160156 135.414062 217.976562 135.105469 217.851562 C 134.792969 217.722656 134.472656 217.65625 134.136719 217.65625 L 85.488281 217.65625 C 85.152344 217.65625 84.828125 217.722656 84.519531 217.851562 C 84.210938 217.976562 83.9375 218.160156 83.699219 218.398438 C 83.460938 218.636719 83.277344 218.910156 83.152344 219.21875 C 83.023438 219.527344 82.957031 219.851562 82.957031 220.1875 L 82.957031 312.210938 L 60.796875 312.210938 Z M 131.632812 312.109375 L 88.019531 312.109375 L 88.019531 222.714844 L 131.53125 222.714844 Z M 329.5625 328.136719 L 47.640625 328.136719 L 47.640625 317.167969 L 329.460938 317.167969 Z M 329.5625 328.136719 " fill-opacity="1" fill-rule="nonzero"/></g><path fill="#000000" d="M 172.160156 89.757812 L 172.160156 116.53125 C 172.160156 116.867188 172.222656 117.1875 172.351562 117.5 C 172.480469 117.808594 172.664062 118.082031 172.898438 118.320312 C 173.136719 118.554688 173.410156 118.738281 173.722656 118.867188 C 174.03125 118.996094 174.351562 119.058594 174.6875 119.058594 C 175.023438 119.058594 175.347656 118.996094 175.65625 118.867188 C 175.96875 118.738281 176.242188 118.554688 176.476562 118.320312 C 176.714844 118.082031 176.898438 117.808594 177.027344 117.5 C 177.15625 117.1875 177.21875 116.867188 177.21875 116.53125 L 177.21875 89.757812 C 177.910156 89.613281 178.585938 89.414062 179.242188 89.152344 C 179.898438 88.894531 180.527344 88.582031 181.132812 88.214844 C 181.734375 87.847656 182.300781 87.433594 182.835938 86.96875 C 183.367188 86.503906 183.855469 86 184.300781 85.453125 C 184.746094 84.90625 185.144531 84.324219 185.488281 83.707031 C 185.835938 83.09375 186.128906 82.453125 186.367188 81.789062 C 186.601562 81.125 186.78125 80.445312 186.902344 79.75 C 187.023438 79.054688 187.085938 78.355469 187.085938 77.648438 L 187.085938 67.308594 C 187.085938 66.972656 187.019531 66.648438 186.890625 66.339844 C 186.765625 66.03125 186.582031 65.757812 186.34375 65.519531 C 186.105469 65.28125 185.832031 65.101562 185.523438 64.972656 C 185.214844 64.84375 184.890625 64.78125 184.554688 64.78125 C 184.21875 64.78125 183.898438 64.84375 183.585938 64.972656 C 183.277344 65.101562 183.003906 65.28125 182.765625 65.519531 C 182.527344 65.757812 182.347656 66.03125 182.21875 66.339844 C 182.089844 66.648438 182.023438 66.972656 182.023438 67.308594 L 182.023438 77.648438 C 182.019531 78.394531 181.90625 79.121094 181.679688 79.832031 C 181.453125 80.542969 181.125 81.203125 180.695312 81.8125 C 180.265625 82.425781 179.753906 82.957031 179.160156 83.410156 C 178.566406 83.863281 177.921875 84.21875 177.21875 84.472656 L 177.21875 67.308594 C 177.21875 66.972656 177.15625 66.648438 177.027344 66.339844 C 176.898438 66.03125 176.714844 65.757812 176.476562 65.519531 C 176.242188 65.28125 175.96875 65.101562 175.65625 64.972656 C 175.347656 64.84375 175.023438 64.78125 174.6875 64.78125 C 174.351562 64.78125 174.03125 64.84375 173.722656 64.972656 C 173.410156 65.101562 173.136719 65.28125 172.898438 65.519531 C 172.664062 65.757812 172.480469 66.03125 172.351562 66.339844 C 172.222656 66.648438 172.160156 66.972656 172.160156 67.308594 L 172.160156 84.472656 C 171.460938 84.21875 170.8125 83.863281 170.222656 83.410156 C 169.632812 82.953125 169.121094 82.421875 168.695312 81.8125 C 168.265625 81.203125 167.941406 80.542969 167.714844 79.832031 C 167.492188 79.121094 167.378906 78.394531 167.378906 77.648438 L 167.378906 67.308594 C 167.378906 66.972656 167.3125 66.648438 167.183594 66.339844 C 167.058594 66.03125 166.875 65.757812 166.636719 65.519531 C 166.398438 65.28125 166.125 65.101562 165.816406 64.972656 C 165.507812 64.84375 165.183594 64.78125 164.847656 64.78125 C 164.511719 64.78125 164.191406 64.84375 163.878906 64.972656 C 163.570312 65.101562 163.296875 65.28125 163.058594 65.519531 C 162.820312 65.757812 162.640625 66.03125 162.511719 66.339844 C 162.382812 66.648438 162.316406 66.972656 162.316406 67.308594 L 162.316406 77.648438 C 162.316406 78.351562 162.378906 79.054688 162.496094 79.746094 C 162.617188 80.441406 162.792969 81.121094 163.027344 81.789062 C 163.265625 82.453125 163.554688 83.089844 163.902344 83.707031 C 164.246094 84.320312 164.640625 84.902344 165.085938 85.449219 C 165.53125 85.996094 166.019531 86.503906 166.550781 86.96875 C 167.082031 87.429688 167.648438 87.847656 168.25 88.214844 C 168.855469 88.578125 169.484375 88.894531 170.140625 89.152344 C 170.796875 89.410156 171.46875 89.613281 172.160156 89.757812 Z M 172.160156 89.757812 " fill-opacity="1" fill-rule="nonzero"/><path fill="#000000" d="M 201.65625 89.605469 L 201.65625 116.53125 C 201.65625 116.867188 201.722656 117.1875 201.847656 117.5 C 201.976562 117.808594 202.160156 118.082031 202.398438 118.320312 C 202.636719 118.554688 202.910156 118.738281 203.21875 118.867188 C 203.527344 118.996094 203.851562 119.058594 204.1875 119.058594 C 204.523438 119.058594 204.84375 118.996094 205.15625 118.867188 C 205.464844 118.738281 205.738281 118.554688 205.976562 118.320312 C 206.210938 118.082031 206.394531 117.808594 206.523438 117.5 C 206.652344 117.1875 206.714844 116.867188 206.714844 116.53125 L 206.714844 89.605469 C 207.332031 89.378906 207.921875 89.109375 208.496094 88.789062 C 209.066406 88.46875 209.605469 88.105469 210.121094 87.699219 C 210.632812 87.292969 211.109375 86.847656 211.554688 86.367188 C 211.996094 85.886719 212.398438 85.371094 212.757812 84.824219 C 213.121094 84.28125 213.433594 83.707031 213.703125 83.113281 C 213.972656 82.515625 214.195312 81.902344 214.367188 81.273438 C 214.539062 80.640625 214.660156 80 214.730469 79.351562 C 214.800781 78.699219 214.820312 78.046875 214.785156 77.394531 C 214.785156 70.441406 210.03125 64.753906 204.1875 64.753906 C 198.34375 64.753906 193.613281 70.441406 193.613281 77.394531 C 193.578125 78.046875 193.597656 78.699219 193.664062 79.347656 C 193.734375 79.996094 193.855469 80.636719 194.027344 81.269531 C 194.199219 81.898438 194.417969 82.511719 194.6875 83.109375 C 194.957031 83.703125 195.269531 84.273438 195.628906 84.820312 C 195.988281 85.367188 196.390625 85.878906 196.832031 86.363281 C 197.273438 86.84375 197.75 87.289062 198.261719 87.695312 C 198.773438 88.101562 199.3125 88.464844 199.882812 88.785156 C 200.453125 89.105469 201.042969 89.378906 201.65625 89.605469 Z M 204.1875 69.835938 C 207.195312 69.835938 209.726562 73.300781 209.726562 77.421875 C 209.726562 81.542969 207.195312 85.003906 204.1875 85.003906 C 201.175781 85.003906 198.671875 81.492188 198.671875 77.394531 C 198.671875 73.300781 201.203125 69.835938 204.1875 69.835938 Z M 204.1875 69.835938 " fill-opacity="1" fill-rule="nonzero"/><path fill="#000000" d="M 161.40625 291.808594 L 291.617188 291.808594 C 291.953125 291.808594 292.273438 291.746094 292.585938 291.617188 C 292.894531 291.488281 293.167969 291.304688 293.40625 291.066406 C 293.644531 290.832031 293.824219 290.558594 293.953125 290.246094 C 294.082031 289.9375 294.144531 289.617188 294.148438 289.28125 L 294.148438 220.1875 C 294.144531 219.851562 294.082031 219.527344 293.953125 219.21875 C 293.824219 218.910156 293.644531 218.636719 293.40625 218.398438 C 293.167969 218.160156 292.894531 217.976562 292.585938 217.851562 C 292.273438 217.722656 291.953125 217.65625 291.617188 217.65625 L 161.40625 217.65625 C 161.070312 217.65625 160.75 217.722656 160.4375 217.851562 C 160.128906 217.976562 159.855469 218.160156 159.617188 218.398438 C 159.382812 218.636719 159.199219 218.910156 159.070312 219.21875 C 158.941406 219.527344 158.878906 219.851562 158.878906 220.1875 L 158.878906 289.382812 C 158.890625 289.707031 158.964844 290.019531 159.097656 290.316406 C 159.234375 290.617188 159.417969 290.878906 159.652344 291.105469 C 159.890625 291.332031 160.160156 291.503906 160.460938 291.625 C 160.765625 291.75 161.082031 291.808594 161.40625 291.808594 Z M 163.9375 222.613281 L 289.085938 222.613281 L 289.085938 286.753906 L 163.9375 286.753906 Z M 163.9375 222.613281 " fill-opacity="1" fill-rule="nonzero"/><path fill="#000000" d="M 182.683594 255 C 183.378906 254.988281 183.96875 254.734375 184.453125 254.238281 L 195.6875 242.9375 C 195.925781 242.703125 196.109375 242.425781 196.238281 242.117188 C 196.371094 241.804688 196.433594 241.480469 196.433594 241.144531 C 196.433594 240.808594 196.371094 240.484375 196.238281 240.171875 C 196.109375 239.859375 195.925781 239.585938 195.6875 239.347656 C 195.449219 239.113281 195.175781 238.933594 194.867188 238.804688 C 194.558594 238.675781 194.238281 238.613281 193.902344 238.613281 C 193.570312 238.613281 193.246094 238.675781 192.9375 238.804688 C 192.628906 238.933594 192.355469 239.113281 192.121094 239.347656 L 180.960938 250.675781 C 180.597656 251.035156 180.363281 251.46875 180.265625 251.972656 C 180.164062 252.476562 180.210938 252.964844 180.40625 253.441406 C 180.605469 253.914062 180.917969 254.292969 181.347656 254.578125 C 181.773438 254.859375 182.246094 255 182.757812 255 Z M 182.683594 255 " fill-opacity="1" fill-rule="nonzero"/><path fill="#000000" d="M 207.753906 240.082031 L 181.519531 266.324219 C 181.285156 266.5625 181.101562 266.835938 180.976562 267.144531 C 180.847656 267.453125 180.785156 267.773438 180.785156 268.105469 C 180.785156 268.441406 180.847656 268.761719 180.976562 269.070312 C 181.101562 269.378906 181.285156 269.652344 181.519531 269.890625 C 182.015625 270.382812 182.617188 270.625 183.316406 270.621094 C 184.007812 270.621094 184.597656 270.375 185.085938 269.890625 L 211.320312 243.671875 C 211.558594 243.433594 211.742188 243.160156 211.871094 242.847656 C 212 242.539062 212.066406 242.214844 212.066406 241.878906 C 212.066406 241.539062 212 241.21875 211.871094 240.90625 C 211.742188 240.59375 211.558594 240.320312 211.320312 240.082031 C 211.082031 239.84375 210.808594 239.660156 210.496094 239.53125 C 210.183594 239.402344 209.859375 239.339844 209.523438 239.339844 C 209.1875 239.339844 208.863281 239.402344 208.550781 239.53125 C 208.242188 239.660156 207.964844 239.84375 207.726562 240.082031 Z M 207.753906 240.082031 " fill-opacity="1" fill-rule="nonzero"/></svg>