<svg width="40" height="41" viewBox="0 0 40 41" fill="none" xmlns="http://www.w3.org/2000/svg">
<path d="M5.41052 27.3746C5.58915 28.0218 5.27392 28.7191 4.70987 28.9241L4.07059 29.1565C3.50612 29.3615 2.89836 28.9993 2.72015 28.3521L0.575331 20.5826C0.397121 19.9364 0.71235 19.239 1.2764 19.0341L1.9161 18.8016C2.47973 18.5967 3.08792 18.9589 3.26571 19.6051L5.41052 27.3746Z" fill="#87B570"/>
<path d="M7.45687 28.7276C7.45676 28.7276 7.45688 28.7276 7.45725 28.7274L7.54904 28.6941M7.45687 28.7276L7.52621 28.6455L7.54904 28.6941M7.45687 28.7276C7.45693 28.7276 7.45705 28.7275 7.45724 28.7274L7.45687 28.7276ZM7.54904 28.6941L11.9785 38.1227L11.9787 38.123C11.9979 38.164 12.0508 38.2225 12.1344 38.2615C12.1731 38.2795 12.2084 38.2884 12.2355 38.2911C12.2603 38.2935 12.2717 38.2902 12.2723 38.2901L16.0048 36.934M7.54904 28.6941L11.2816 27.3378C11.2818 27.3378 11.282 27.3377 11.2822 27.3376C11.2869 27.336 11.2964 27.3336 11.3133 27.3336C11.406 27.3336 11.5328 27.4117 11.5765 27.5048L16.0048 36.934M16.0048 36.934L16.0975 36.9003C16.0979 36.9002 16.098 36.9001 16.0979 36.9002L16.0048 36.934ZM5.69528 29.6415L5.69561 29.6422L10.1481 39.1189C10.5295 39.933 11.3566 40.5 12.2417 40.5C12.4776 40.5 12.709 40.4598 12.9291 40.3798L5.69528 29.6415ZM5.69528 29.6415C5.43491 29.085 5.39219 28.4424 5.59345 27.8723L5.59356 27.872M5.69528 29.6415L5.59356 27.872M5.59356 27.872C5.79591 27.3 6.23065 26.8452 6.79614 26.6392L6.79659 26.639M5.59356 27.872L6.79659 26.639M6.79659 26.639L10.6258 25.2478C10.8467 25.1674 11.0783 25.128 11.3133 25.128C12.198 25.128 13.0243 25.6945 13.4066 26.5075L13.4067 26.5077M6.79659 26.639L13.4067 26.5077M13.4067 26.5077L17.8581 35.9861M13.4067 26.5077L17.8581 35.9861M17.8581 35.9861C17.8581 35.9862 17.8581 35.9863 17.8582 35.9864M17.8581 35.9861L17.8582 35.9864M17.8582 35.9864C18.1193 36.5416 18.1625 37.1844 17.9612 37.7542L17.8582 35.9864ZM16.7574 38.9885L12.9293 40.3797L17.9611 37.7544C17.7589 38.327 17.3243 38.7828 16.7576 38.9885C16.7576 38.9885 16.7575 38.9885 16.7574 38.9885Z" fill="#333333" stroke="#333333"/>
<path d="M2.23811 19.3472C2.18263 19.3472 2.12757 19.3569 2.07419 19.3767L1.43533 19.6086C1.14574 19.7142 0.985183 20.0697 1.07597 20.401L3.22079 28.1705C3.30947 28.4902 3.62932 28.6851 3.91177 28.5823L4.55105 28.3494C4.69017 28.2993 4.80408 28.1883 4.87259 28.0379C4.94068 27.8869 4.95371 27.7162 4.90957 27.5566L2.76518 19.7871C2.69372 19.5281 2.47685 19.3472 2.23811 19.3472ZM3.74785 29.8169C3.0451 29.8169 2.43061 29.3014 2.2192 28.5341L0.074802 20.7646C-0.191672 19.7991 0.276548 18.7652 1.118 18.4594L1.75686 18.227C1.91364 18.1706 2.07504 18.1416 2.23811 18.1416C2.94128 18.1416 3.55535 18.6567 3.76676 19.4234L5.91116 27.193C6.0402 27.6593 6.00237 28.1565 5.80482 28.5929C5.6077 29.0299 5.27524 29.3515 4.86838 29.4986L4.2291 29.7315C4.07275 29.7884 3.91093 29.8169 3.74785 29.8169Z" fill="#333333"/>
<path d="M16.943 36.485C17.2242 37.083 16.9926 37.7393 16.4277 37.9443L12.5996 39.3355C12.0355 39.5405 11.3441 39.2198 11.0634 38.6213L6.61064 29.1437C6.3303 28.5452 6.56146 27.8893 7.12635 27.6839L10.9553 26.2926C11.5194 26.0877 12.2104 26.4083 12.4916 27.0068L16.943 36.485Z" fill="#87B570"/>
<path d="M29.4259 19.0127L26.3698 15.8096L27.2613 11.1694L31.2063 9.73613L34.2636 12.9412L33.3713 17.579L29.4259 19.0127Z" fill="#87B570"/>
<path d="M26.9478 15.5995L29.5563 18.3329L32.9233 17.1095L33.6849 13.1512L31.0757 10.4158L27.709 11.6393L26.9478 15.5995ZM29.426 19.6157C29.2965 19.6157 29.1696 19.5607 29.0716 19.4575L26.0152 16.2549C25.8765 16.1098 25.8164 15.8903 25.8563 15.6801L26.7478 11.0399C26.7881 10.8296 26.9235 10.6599 27.1025 10.5947L31.0479 9.16102C31.2257 9.09591 31.4224 9.14559 31.5607 9.29074L34.6176 12.4963C34.7563 12.6414 34.8172 12.8608 34.7764 13.0711L33.8841 17.7094C33.8434 17.9196 33.7085 18.0889 33.5294 18.154L29.584 19.5878C29.5323 19.6066 29.4785 19.6157 29.426 19.6157Z" fill="#333333"/>
<path d="M16.2675 10.9792L2.4016 16.0172C1.83755 16.2227 1.52233 16.9195 1.70095 17.5662L5.20294 30.2552C5.38157 30.9024 5.98933 31.2645 6.55338 31.0601L20.4193 26.0215L35.2573 25.8084L28.5072 1.35297L16.2675 10.9792Z" fill="white"/>
<path d="M23.4656 5.28829L29.1599 25.9199L31.5716 25.8857L25.4549 3.72435L23.4656 5.28829Z" fill="#43AEE8"/>
<path d="M28.2204 2.3097L16.5649 11.4768C16.522 11.5101 16.4753 11.5361 16.4258 11.554L2.55988 16.5925C2.27113 16.6972 2.11015 17.0531 2.20178 17.3844L5.70376 30.0733C5.79245 30.3931 6.11104 30.5879 6.39474 30.4857L20.261 25.4471C20.3098 25.4293 20.3611 25.4196 20.4128 25.4191L34.5426 25.2161L28.2204 2.3097ZM6.23124 31.7202C5.52849 31.7202 4.91401 31.2047 4.70217 30.4369L1.20019 17.7485C0.933713 16.7835 1.40109 15.7495 2.24255 15.4428L16.0349 10.4318L28.2103 0.855715C28.3473 0.748173 28.5213 0.721168 28.6785 0.782896C28.8357 0.845106 28.958 0.989299 29.008 1.17111L35.7581 25.6265C35.8086 25.8088 35.7804 26.007 35.6829 26.1613C35.5854 26.3161 35.4299 26.4092 35.2638 26.4116L20.504 26.6238L6.71165 31.6349C6.55572 31.6918 6.3939 31.7202 6.23124 31.7202Z" fill="#333333"/>
<path d="M32.5531 4.3877C32.4367 4.3877 32.3194 4.34333 32.2219 4.25267C31.997 4.0424 31.963 3.66287 32.1458 3.40439L34.402 0.222017C34.5853 -0.0359868 34.9161 -0.0750492 35.1413 0.135212C35.3662 0.344991 35.4003 0.725004 35.2174 0.983008L32.9612 4.16538C32.8574 4.3115 32.7057 4.3877 32.5531 4.3877Z" fill="#333333"/>
<path d="M34.2638 7.41504C34.0604 7.41504 33.8662 7.27808 33.7809 7.04998C33.6662 6.74423 33.7893 6.38978 34.0558 6.25812L39.2667 3.68724C39.5349 3.55463 39.8426 3.69785 39.9573 4.00312C40.0716 4.30887 39.9485 4.66332 39.6824 4.79497L34.4711 7.36585C34.4034 7.39912 34.3328 7.41504 34.2638 7.41504Z" fill="#333333"/>
</svg>
