<svg xmlns="http://www.w3.org/2000/svg" xmlns:xlink="http://www.w3.org/1999/xlink" width="500" zoomAndPan="magnify" viewBox="0 0 375 374.999991" height="500" preserveAspectRatio="xMidYMid meet" version="1.0"><defs><clipPath id="efa60447c5"><path d="M 40.6875 165 L 184 165 L 184 337.5 L 40.6875 337.5 Z M 40.6875 165 " clip-rule="nonzero"/></clipPath><clipPath id="cf861e962a"><path d="M 154 165 L 184 165 L 184 337.5 L 154 337.5 Z M 154 165 " clip-rule="nonzero"/></clipPath></defs><path fill="#c48958" d="M 302.464844 96.40625 L 142.453125 96.40625 C 130.878906 96.40625 121.402344 105.863281 121.402344 117.429688 L 121.402344 175.019531 L 308.871094 175.019531 L 308.871094 102.808594 C 308.871094 99.285156 305.988281 96.40625 302.464844 96.40625 Z M 302.464844 96.40625 " fill-opacity="1" fill-rule="evenodd"/><path fill="#6cf5c2" d="M 177.566406 203.15625 C 163.707031 179.175781 149.84375 155.195312 135.984375 131.214844 C 134.21875 128.160156 135.273438 124.238281 138.332031 122.476562 C 191.203125 91.988281 229.476562 69.914062 282.359375 39.425781 C 285.40625 37.664062 289.34375 38.714844 291.105469 41.769531 C 304.964844 65.75 318.835938 89.730469 332.699219 113.703125 C 334.460938 116.757812 333.410156 120.6875 330.351562 122.449219 C 277.476562 152.9375 239.195312 175.011719 186.324219 205.5 C 183.265625 207.261719 179.328125 206.210938 177.566406 203.15625 Z M 177.566406 203.15625 " fill-opacity="1" fill-rule="evenodd"/><path fill="#00e499" d="M 177.566406 203.15625 C 230.441406 172.667969 268.722656 150.59375 321.59375 120.105469 C 324.652344 118.34375 325.703125 114.414062 323.941406 111.367188 L 282.359375 39.425781 C 285.40625 37.664062 289.34375 38.714844 291.105469 41.769531 C 304.964844 65.75 318.828125 89.730469 332.699219 113.710938 C 334.460938 116.757812 333.410156 120.6875 330.351562 122.449219 C 277.476562 152.9375 239.195312 175.011719 186.324219 205.5 C 183.265625 207.261719 179.328125 206.210938 177.566406 203.15625 Z M 177.566406 203.15625 " fill-opacity="1" fill-rule="evenodd"/><path fill="#eceff1" d="M 301.90625 118.050781 C 298.480469 112.136719 300.40625 104.625 306.195312 101.28125 C 300.339844 91.152344 294.484375 81.023438 288.632812 70.898438 C 282.835938 74.234375 275.363281 72.144531 271.945312 66.21875 C 230.558594 90.082031 208.152344 103 166.765625 126.863281 C 170.191406 132.789062 168.273438 140.300781 162.476562 143.636719 C 168.332031 153.765625 174.1875 163.902344 180.039062 174.027344 C 185.835938 170.679688 193.308594 172.773438 196.726562 178.699219 C 238.117188 154.835938 260.519531 141.914062 301.90625 118.050781 Z M 301.90625 118.050781 " fill-opacity="1" fill-rule="evenodd"/><path fill="#d1d1d6" d="M 301.90625 118.050781 C 300.738281 116.027344 300.195312 113.808594 300.214844 111.640625 L 199.074219 169.960938 C 195.65625 164.039062 188.183594 161.945312 182.386719 165.28125 L 167.085938 138.820312 C 166.074219 140.777344 164.515625 142.46875 162.476562 143.636719 L 180.039062 174.027344 C 185.835938 170.679688 193.308594 172.773438 196.726562 178.699219 C 238.117188 154.835938 260.519531 141.914062 301.90625 118.050781 Z M 301.90625 118.050781 " fill-opacity="1" fill-rule="evenodd"/><path fill="#6cf5c2" d="M 209.691406 130.765625 C 212.136719 129.347656 215.273438 130.191406 216.695312 132.632812 C 218.109375 135.085938 217.269531 138.21875 214.816406 139.628906 L 199.949219 148.199219 C 197.496094 149.621094 194.359375 148.773438 192.949219 146.332031 C 191.535156 143.878906 192.371094 140.746094 194.828125 139.335938 Z M 209.691406 130.765625 " fill-opacity="1" fill-rule="evenodd"/><path fill="#6cf5c2" d="M 268.730469 96.738281 C 271.175781 95.335938 274.300781 96.171875 275.707031 98.605469 C 277.117188 101.046875 276.28125 104.167969 273.84375 105.570312 L 258.980469 114.148438 C 256.535156 115.550781 253.410156 114.714844 251.996094 112.28125 C 250.59375 109.839844 251.429688 106.71875 253.867188 105.308594 Z M 268.730469 96.738281 " fill-opacity="1" fill-rule="evenodd"/><path fill="#6cf5c2" d="M 240.296875 107.046875 C 242.546875 108.761719 242.984375 111.972656 241.273438 114.21875 C 240.53125 115.191406 239.519531 115.824219 238.417969 116.097656 C 239 116.027344 239.597656 116.007812 240.191406 116.019531 C 243.597656 116.085938 246.84375 117.292969 249.328125 120.601562 C 249.492188 120.824219 249.707031 121.136719 249.941406 121.535156 C 251.957031 124.820312 251.871094 128.167969 250.59375 131.195312 C 249.929688 132.78125 248.929688 134.230469 247.75 135.476562 C 248.851562 137.847656 247.972656 140.707031 245.65625 142.042969 C 243.308594 143.402344 240.335938 142.691406 238.847656 140.476562 C 237.609375 140.726562 236.351562 140.824219 235.105469 140.746094 C 232.039062 140.542969 229.074219 139.347656 226.679688 136.875 C 224.722656 134.832031 224.789062 131.601562 226.824219 129.648438 C 227.363281 129.140625 227.984375 128.761719 228.636719 128.527344 L 228.570312 128.527344 C 225.21875 128.34375 222.101562 126.992188 219.890625 123.566406 C 217.726562 120.203125 217.609375 116.582031 218.859375 113.324219 C 219.355469 112.011719 220.09375 110.765625 221.019531 109.644531 C 219.785156 107.234375 220.640625 104.246094 223.015625 102.875 C 225.375 101.523438 228.363281 102.242188 229.855469 104.480469 C 233.285156 103.886719 236.984375 104.539062 240.296875 107.046875 Z M 237.316406 116.242188 C 236.195312 116.261719 235.058594 115.929688 234.09375 115.191406 C 233.167969 114.5 232.125 114.382812 231.199219 114.644531 C 230.507812 114.839844 229.882812 115.191406 229.386719 115.628906 C 228.929688 116.027344 228.589844 116.496094 228.402344 116.960938 C 228.265625 117.320312 228.277344 117.699219 228.492188 118.042969 C 228.617188 118.234375 228.84375 118.3125 229.105469 118.332031 C 230.070312 118.382812 231.324219 118.03125 232.496094 117.585938 C 233.984375 117.03125 235.621094 116.515625 237.316406 116.242188 Z M 236.117188 127.136719 C 234.714844 127.671875 233.167969 128.128906 231.570312 128.371094 C 232.484375 128.585938 233.363281 129.0625 234.0625 129.804688 C 234.519531 130.269531 235.105469 130.503906 235.730469 130.542969 C 236.722656 130.609375 237.8125 130.28125 238.796875 129.6875 C 238.925781 129.609375 239.128906 129.460938 239.421875 129.25 C 240.21875 128.644531 240.902344 127.925781 241.195312 127.246094 C 241.261719 127.078125 241.28125 126.933594 241.222656 126.835938 C 241.195312 126.789062 241.214844 126.84375 241.125 126.71875 C 240.863281 126.378906 240.464844 126.253906 240.003906 126.242188 C 238.847656 126.222656 237.425781 126.652344 236.117188 127.136719 Z M 236.117188 127.136719 " fill-opacity="1" fill-rule="evenodd"/><path fill="#e3a76f" d="M 322.449219 138.441406 L 142.453125 138.441406 C 130.878906 138.441406 121.402344 128.984375 121.402344 117.429688 L 121.402344 266.757812 C 121.402344 278.316406 130.878906 287.78125 142.453125 287.78125 L 322.449219 287.78125 C 325.988281 287.78125 328.859375 284.902344 328.859375 281.378906 L 328.859375 144.84375 C 328.859375 141.320312 325.988281 138.441406 322.449219 138.441406 Z M 322.449219 138.441406 " fill-opacity="1" fill-rule="evenodd"/><path fill="#c48958" d="M 322.449219 138.441406 L 315.855469 138.441406 L 315.855469 268.683594 C 315.855469 272.214844 312.984375 275.085938 309.445312 275.085938 L 129.449219 275.085938 C 127.089844 275.085938 124.8125 274.695312 122.6875 273.96875 C 125.648438 282.003906 133.410156 287.78125 142.453125 287.78125 L 322.449219 287.78125 C 325.988281 287.78125 328.859375 284.902344 328.859375 281.378906 L 328.859375 144.84375 C 328.859375 141.320312 325.988281 138.441406 322.449219 138.441406 Z M 322.449219 138.441406 " fill-opacity="1" fill-rule="evenodd"/><path fill="#c48958" d="M 328.859375 183.988281 L 273.367188 183.988281 C 257.324219 183.988281 244.203125 197.09375 244.203125 213.105469 L 244.203125 213.117188 C 244.203125 229.128906 257.324219 242.234375 273.367188 242.234375 L 328.859375 242.234375 Z M 328.859375 183.988281 " fill-opacity="1" fill-rule="evenodd"/><path fill="#b5733e" d="M 315.867188 183.988281 L 328.859375 183.988281 L 328.859375 242.234375 L 315.867188 242.234375 Z M 315.867188 183.988281 " fill-opacity="1" fill-rule="evenodd"/><path fill="#eceff1" d="M 284.804688 213.117188 C 284.804688 218.867188 280.128906 223.527344 274.371094 223.527344 C 268.605469 223.527344 263.9375 218.867188 263.9375 213.117188 C 263.9375 207.359375 268.605469 202.699219 274.371094 202.699219 C 280.128906 202.699219 284.804688 207.359375 284.804688 213.117188 Z M 284.804688 213.117188 " fill-opacity="1" fill-rule="evenodd"/><path fill="#d1d1d6" d="M 274.371094 202.699219 C 275.21875 202.699219 276.046875 202.792969 276.835938 202.988281 C 272.265625 204.097656 268.875 208.203125 268.875 213.117188 C 268.875 218.019531 272.265625 222.125 276.835938 223.234375 C 276.046875 223.429688 275.21875 223.527344 274.371094 223.527344 C 268.605469 223.527344 263.9375 218.867188 263.9375 213.117188 C 263.9375 207.359375 268.605469 202.699219 274.371094 202.699219 Z M 274.371094 202.699219 " fill-opacity="1" fill-rule="evenodd"/><g clip-path="url(#efa60447c5)"><path fill="#837683" d="M 59.070312 165.46875 L 164.921875 165.46875 C 175.09375 165.46875 183.421875 173.785156 183.421875 183.941406 L 183.421875 318.960938 C 183.421875 329.117188 175.09375 337.425781 164.921875 337.425781 L 59.070312 337.425781 C 48.902344 337.425781 40.574219 329.117188 40.574219 318.960938 L 40.574219 183.941406 C 40.582031 173.785156 48.902344 165.46875 59.070312 165.46875 Z M 59.070312 165.46875 " fill-opacity="1" fill-rule="evenodd"/></g><g clip-path="url(#cf861e962a)"><path fill="#685e68" d="M 154.324219 165.46875 L 164.921875 165.46875 C 175.09375 165.46875 183.421875 173.785156 183.421875 183.941406 L 183.421875 318.960938 C 183.421875 329.117188 175.09375 337.425781 164.921875 337.425781 L 154.324219 337.425781 C 164.503906 337.425781 172.824219 329.117188 172.824219 318.960938 L 172.824219 183.941406 C 172.824219 173.785156 164.503906 165.46875 154.324219 165.46875 Z M 154.324219 165.46875 " fill-opacity="1" fill-rule="evenodd"/></g><path fill="#6cf5c2" d="M 65.234375 191.976562 L 158.757812 191.976562 C 161.105469 191.976562 163.015625 193.882812 163.015625 196.226562 L 163.015625 212.894531 C 163.015625 215.226562 161.105469 217.132812 158.757812 217.132812 L 65.234375 217.132812 C 62.890625 217.132812 60.980469 215.226562 60.980469 212.894531 L 60.980469 196.226562 C 60.980469 193.882812 62.890625 191.976562 65.234375 191.976562 Z M 65.234375 191.976562 " fill-opacity="1" fill-rule="evenodd"/><path fill="#00e499" d="M 157.714844 191.976562 L 158.757812 191.976562 C 161.105469 191.976562 163.015625 193.882812 163.015625 196.226562 L 163.015625 212.894531 C 163.015625 215.226562 161.105469 217.132812 158.757812 217.132812 L 65.234375 217.132812 C 62.890625 217.132812 60.980469 215.226562 60.980469 212.894531 L 60.980469 211.84375 L 153.457031 211.84375 C 155.804688 211.84375 157.714844 209.933594 157.714844 207.601562 Z M 157.714844 191.976562 " fill-opacity="1" fill-rule="evenodd"/><path fill="#eceff1" d="M 69.140625 237.359375 L 85.03125 237.359375 C 87.367188 237.359375 89.277344 239.265625 89.277344 241.601562 L 89.277344 247.128906 C 89.277344 249.460938 87.367188 251.367188 85.03125 251.367188 L 69.140625 251.367188 C 66.792969 251.367188 64.886719 249.460938 64.886719 247.128906 L 64.886719 241.601562 C 64.886719 239.265625 66.792969 237.359375 69.140625 237.359375 Z M 138.964844 296.90625 L 154.851562 296.90625 C 157.199219 296.90625 159.109375 298.8125 159.109375 301.148438 L 159.109375 306.675781 C 159.109375 309.007812 157.199219 310.914062 154.851562 310.914062 L 138.964844 310.914062 C 136.625 310.914062 134.71875 309.007812 134.71875 306.675781 L 134.71875 301.148438 C 134.71875 298.8125 136.625 296.90625 138.964844 296.90625 Z M 104.054688 296.90625 L 119.941406 296.90625 C 122.289062 296.90625 124.195312 298.8125 124.195312 301.148438 L 124.195312 306.675781 C 124.195312 309.007812 122.289062 310.914062 119.941406 310.914062 L 104.054688 310.914062 C 101.714844 310.914062 99.804688 309.007812 99.804688 306.675781 L 99.804688 301.148438 C 99.804688 298.8125 101.714844 296.90625 104.054688 296.90625 Z M 69.140625 296.90625 L 85.03125 296.90625 C 87.367188 296.90625 89.277344 298.8125 89.277344 301.148438 L 89.277344 306.675781 C 89.277344 309.007812 87.367188 310.914062 85.03125 310.914062 L 69.140625 310.914062 C 66.792969 310.914062 64.886719 309.007812 64.886719 306.675781 L 64.886719 301.148438 C 64.886719 298.8125 66.792969 296.90625 69.140625 296.90625 Z M 138.964844 267.128906 L 154.851562 267.128906 C 157.199219 267.128906 159.109375 269.035156 159.109375 271.378906 L 159.109375 276.894531 C 159.109375 279.230469 157.199219 281.136719 154.851562 281.136719 L 138.964844 281.136719 C 136.625 281.136719 134.71875 279.230469 134.71875 276.894531 L 134.71875 271.378906 C 134.71875 269.035156 136.625 267.128906 138.964844 267.128906 Z M 104.054688 267.128906 L 119.941406 267.128906 C 122.289062 267.128906 124.195312 269.035156 124.195312 271.378906 L 124.195312 276.894531 C 124.195312 279.230469 122.289062 281.136719 119.941406 281.136719 L 104.054688 281.136719 C 101.714844 281.136719 99.804688 279.230469 99.804688 276.894531 L 99.804688 271.378906 C 99.804688 269.035156 101.714844 267.128906 104.054688 267.128906 Z M 69.140625 267.128906 L 85.03125 267.128906 C 87.367188 267.128906 89.277344 269.035156 89.277344 271.378906 L 89.277344 276.894531 C 89.277344 279.230469 87.367188 281.136719 85.03125 281.136719 L 69.140625 281.136719 C 66.792969 281.136719 64.886719 279.230469 64.886719 276.894531 L 64.886719 271.378906 C 64.886719 269.035156 66.792969 267.128906 69.140625 267.128906 Z M 138.964844 237.359375 L 154.851562 237.359375 C 157.199219 237.359375 159.109375 239.265625 159.109375 241.601562 L 159.109375 247.128906 C 159.109375 249.460938 157.199219 251.367188 154.851562 251.367188 L 138.964844 251.367188 C 136.625 251.367188 134.71875 249.460938 134.71875 247.128906 L 134.71875 241.601562 C 134.71875 239.265625 136.625 237.359375 138.964844 237.359375 Z M 104.054688 237.359375 L 119.941406 237.359375 C 122.289062 237.359375 124.195312 239.265625 124.195312 241.601562 L 124.195312 247.128906 C 124.195312 249.460938 122.289062 251.367188 119.941406 251.367188 L 104.054688 251.367188 C 101.714844 251.367188 99.804688 249.460938 99.804688 247.128906 L 99.804688 241.601562 C 99.804688 239.265625 101.714844 237.359375 104.054688 237.359375 Z M 104.054688 237.359375 " fill-opacity="1" fill-rule="evenodd"/><path fill="#d1d1d6" d="M 85.742188 237.417969 C 87.746094 237.757812 89.277344 239.507812 89.277344 241.601562 L 89.277344 247.128906 C 89.277344 249.460938 87.367188 251.367188 85.03125 251.367188 L 69.140625 251.367188 C 67.28125 251.367188 65.695312 250.164062 65.121094 248.5 C 65.351562 248.539062 65.585938 248.558594 65.832031 248.558594 L 81.71875 248.558594 C 84.054688 248.558594 85.964844 246.648438 85.964844 244.316406 L 85.964844 238.789062 C 85.964844 238.3125 85.886719 237.847656 85.742188 237.417969 Z M 155.5625 296.964844 C 157.570312 297.304688 159.109375 299.058594 159.109375 301.148438 L 159.109375 306.675781 C 159.109375 309.007812 157.199219 310.914062 154.851562 310.914062 L 138.964844 310.914062 C 137.105469 310.914062 135.515625 309.710938 134.941406 308.046875 C 135.175781 308.085938 135.410156 308.105469 135.652344 308.105469 L 151.539062 308.105469 C 153.886719 308.105469 155.796875 306.199219 155.796875 303.863281 L 155.796875 298.335938 C 155.796875 297.859375 155.71875 297.394531 155.5625 296.964844 Z M 120.652344 296.964844 C 122.65625 297.304688 124.195312 299.058594 124.195312 301.148438 L 124.195312 306.675781 C 124.195312 309.007812 122.289062 310.914062 119.941406 310.914062 L 104.054688 310.914062 C 102.191406 310.914062 100.605469 309.710938 100.03125 308.046875 C 100.265625 308.085938 100.496094 308.105469 100.742188 308.105469 L 116.628906 308.105469 C 118.976562 308.105469 120.886719 306.199219 120.886719 303.863281 L 120.886719 298.335938 C 120.886719 297.859375 120.796875 297.394531 120.652344 296.964844 Z M 85.742188 296.964844 C 87.746094 297.304688 89.277344 299.058594 89.277344 301.148438 L 89.277344 306.675781 C 89.277344 309.007812 87.367188 310.914062 85.03125 310.914062 L 69.140625 310.914062 C 67.28125 310.914062 65.695312 309.710938 65.121094 308.046875 C 65.351562 308.085938 65.585938 308.105469 65.832031 308.105469 L 81.71875 308.105469 C 84.054688 308.105469 85.964844 306.199219 85.964844 303.863281 L 85.964844 298.335938 C 85.964844 297.859375 85.886719 297.394531 85.742188 296.964844 Z M 155.5625 267.1875 C 157.570312 267.527344 159.109375 269.277344 159.109375 271.378906 L 159.109375 276.894531 C 159.109375 279.230469 157.199219 281.136719 154.851562 281.136719 L 138.964844 281.136719 C 137.105469 281.136719 135.515625 279.941406 134.941406 278.265625 C 135.175781 278.304688 135.410156 278.335938 135.652344 278.335938 L 151.539062 278.335938 C 153.886719 278.335938 155.796875 276.417969 155.796875 274.085938 L 155.796875 268.566406 C 155.796875 268.082031 155.71875 267.625 155.5625 267.1875 Z M 120.652344 267.1875 C 122.65625 267.527344 124.195312 269.277344 124.195312 271.378906 L 124.195312 276.894531 C 124.195312 279.230469 122.289062 281.136719 119.941406 281.136719 L 104.054688 281.136719 C 102.191406 281.136719 100.605469 279.941406 100.03125 278.265625 C 100.265625 278.304688 100.496094 278.335938 100.742188 278.335938 L 116.628906 278.335938 C 118.976562 278.335938 120.886719 276.417969 120.886719 274.085938 L 120.886719 268.566406 C 120.886719 268.082031 120.796875 267.625 120.652344 267.1875 Z M 85.742188 267.1875 C 87.746094 267.527344 89.277344 269.277344 89.277344 271.378906 L 89.277344 276.894531 C 89.277344 279.230469 87.367188 281.136719 85.03125 281.136719 L 69.140625 281.136719 C 67.28125 281.136719 65.695312 279.941406 65.121094 278.265625 C 65.351562 278.304688 65.585938 278.335938 65.832031 278.335938 L 81.71875 278.335938 C 84.054688 278.335938 85.964844 276.417969 85.964844 274.085938 L 85.964844 268.566406 C 85.964844 268.082031 85.886719 267.625 85.742188 267.1875 Z M 155.5625 237.417969 C 157.570312 237.757812 159.109375 239.507812 159.109375 241.601562 L 159.109375 247.128906 C 159.109375 249.460938 157.199219 251.367188 154.851562 251.367188 L 138.964844 251.367188 C 137.105469 251.367188 135.515625 250.164062 134.941406 248.5 C 135.175781 248.539062 135.410156 248.558594 135.652344 248.558594 L 151.539062 248.558594 C 153.886719 248.558594 155.796875 246.648438 155.796875 244.316406 L 155.796875 238.789062 C 155.796875 238.3125 155.71875 237.847656 155.5625 237.417969 Z M 120.652344 237.417969 C 122.65625 237.757812 124.195312 239.507812 124.195312 241.601562 L 124.195312 247.128906 C 124.195312 249.460938 122.289062 251.367188 119.941406 251.367188 L 104.054688 251.367188 C 102.191406 251.367188 100.605469 250.164062 100.03125 248.5 C 100.265625 248.539062 100.496094 248.558594 100.742188 248.558594 L 116.628906 248.558594 C 118.976562 248.558594 120.886719 246.648438 120.886719 244.316406 L 120.886719 238.789062 C 120.886719 238.3125 120.796875 237.847656 120.652344 237.417969 Z M 120.652344 237.417969 " fill-opacity="1" fill-rule="evenodd"/></svg>